# This file uses centimeters as units for non-parametric coordinates.

mtllib Ing_gold_low.mtl
g default
v -0.179729 0.008412 0.505442
v -0.177179 0.024734 0.513111
v -0.191436 0.024414 0.499956
v 0.227715 0.024414 0.499956
v 0.212971 0.025165 0.512901
v 0.216008 0.008412 0.505442
v -0.101879 0.230259 0.371160
v -0.088967 0.232597 0.382012
v -0.087570 0.241040 0.367714
v 0.123849 0.241040 0.367714
v 0.125122 0.232482 0.382068
v 0.138157 0.230259 0.371160
v -0.101887 0.230224 -0.206291
v -0.087570 0.241040 -0.202863
v -0.088967 0.232597 -0.217160
v 0.125245 0.232597 -0.217160
v 0.123819 0.241040 -0.202839
v 0.138165 0.230224 -0.206291
v -0.191436 0.024414 -0.335105
v -0.176692 0.025165 -0.348050
v -0.179729 0.008412 -0.340591
v 0.216008 0.008412 -0.340591
v 0.213457 0.024734 -0.348260
v 0.227715 0.024414 -0.335105
vt 0.015098 0.020647
vt 0.015782 0.012638
vt 0.359874 0.009113
vt 0.360824 0.017056
vt 0.007965 0.020338
vt 0.016704 0.182480
vt 0.009341 0.182804
vt 0.018184 0.489128
vt 0.009384 0.478498
vt 0.107263 0.387549
vt 0.111845 0.393572
vt 0.017655 0.190423
vt 0.362430 0.178888
vt 0.361747 0.186898
vt 0.009674 0.211091
vt 0.017075 0.199019
vt 0.121100 0.283949
vt 0.115924 0.289416
vt 0.114741 0.386068
vt 0.378075 0.396758
vt 0.379355 0.404595
vt 0.122391 0.291775
vt 0.388604 0.294926
vt 0.385663 0.302446
vt 0.384448 0.399134
vt 0.490768 0.477391
vt 0.483403 0.489490
vt 0.393192 0.300983
vt 0.482151 0.199353
vt 0.491000 0.209931
vt 0.368188 0.016732
vt 0.369564 0.179197
vn -0.034982 -0.999248 0.016755
vn -0.954282 0.298446 0.016614
vn -0.954330 0.298301 -0.016481
vn -0.035008 -0.999252 -0.016419
vn -0.051807 0.453229 0.889887
vn -0.034982 -0.999248 0.016755
vn 0.035008 -0.999252 0.016419
vn 0.052256 0.452353 0.890307
vn -0.954282 0.298446 0.016614
vn -0.051807 0.453229 0.889887
vn -0.020350 0.552033 0.833574
vn -0.903456 0.428365 0.016448
vn 0.954307 0.298369 0.016577
vn 0.035008 -0.999252 0.016419
vn 0.034982 -0.999248 -0.016755
vn 0.954284 0.298440 -0.016618
vn 0.052256 0.452353 0.890307
vn 0.954307 0.298369 0.016577
vn 0.903382 0.428513 0.016680
vn 0.020328 0.552146 0.833500
vn -0.903456 0.428365 0.016448
vn -0.050082 0.998632 0.015057
vn -0.050071 0.998634 -0.014964
vn -0.903412 0.428450 -0.016633
vn -0.050082 0.998632 0.015057
vn -0.020350 0.552033 0.833574
vn 0.020328 0.552146 0.833500
vn 0.050105 0.998632 0.014954
vn 0.050105 0.998632 0.014954
vn 0.903382 0.428513 0.016680
vn 0.903442 0.428394 -0.016462
vn 0.050073 0.998633 -0.014984
vn -0.903412 0.428450 -0.016633
vn -0.020267 0.552046 -0.833567
vn -0.052310 0.452397 -0.890281
vn -0.954330 0.298301 -0.016481
vn -0.020267 0.552046 -0.833567
vn -0.050071 0.998634 -0.014964
vn 0.050073 0.998633 -0.014984
vn 0.020380 0.552013 -0.833587
vn 0.020380 0.552013 -0.833587
vn 0.903442 0.428394 -0.016462
vn 0.954284 0.298440 -0.016618
vn 0.051881 0.453266 -0.889864
vn -0.035008 -0.999252 -0.016419
vn -0.052310 0.452397 -0.890281
vn 0.051881 0.453266 -0.889864
vn 0.034982 -0.999248 -0.016755
vn -0.051807 0.453229 0.889887
vn 0.052256 0.452353 0.890307
vn 0.020328 0.552146 0.833500
vn -0.020350 0.552033 0.833574
vn -0.050082 0.998632 0.015057
vn 0.050105 0.998632 0.014954
vn 0.050073 0.998633 -0.014984
vn -0.050071 0.998634 -0.014964
vn -0.020267 0.552046 -0.833567
vn 0.020380 0.552013 -0.833587
vn 0.051881 0.453266 -0.889864
vn -0.052310 0.452397 -0.890281
vn -0.035008 -0.999252 -0.016419
vn 0.034982 -0.999248 -0.016755
vn 0.035008 -0.999252 0.016419
vn -0.034982 -0.999248 0.016755
vn 0.954307 0.298369 0.016577
vn 0.954284 0.298440 -0.016618
vn 0.903442 0.428394 -0.016462
vn 0.903382 0.428513 0.016680
vn -0.954330 0.298301 -0.016481
vn -0.954282 0.298446 0.016614
vn -0.903456 0.428365 0.016448
vn -0.903412 0.428450 -0.016633
vn -0.034982 -0.999248 0.016755
vn -0.051807 0.453229 0.889887
vn -0.954282 0.298446 0.016614
vn 0.954307 0.298369 0.016577
vn 0.052256 0.452353 0.890307
vn 0.035008 -0.999252 0.016419
vn -0.903456 0.428365 0.016448
vn -0.020350 0.552033 0.833574
vn -0.050082 0.998632 0.015057
vn 0.050105 0.998632 0.014954
vn 0.020328 0.552146 0.833500
vn 0.903382 0.428513 0.016680
vn -0.903412 0.428450 -0.016633
vn -0.050071 0.998634 -0.014964
vn -0.020267 0.552046 -0.833567
vn 0.020380 0.552013 -0.833587
vn 0.050073 0.998633 -0.014984
vn 0.903442 0.428394 -0.016462
vn -0.954330 0.298301 -0.016481
vn -0.052310 0.452397 -0.890281
vn -0.035008 -0.999252 -0.016419
vn 0.034982 -0.999248 -0.016755
vn 0.051881 0.453266 -0.889864
vn 0.954284 0.298440 -0.016618
s off
g Ing_gold_low:Ore_3
usemtl initialShadingGroup
f 1/1/1 3/2/2 19/3/3 21/4/4
f 2/5/5 1/1/6 6/6/7 5/7/8
f 3/8/9 2/9/10 8/10/11 7/11/12
f 4/12/13 6/6/14 22/13/15 24/14/16
f 5/15/17 4/16/18 12/17/19 11/18/20
f 7/11/21 9/19/22 14/20/23 13/21/24
f 9/19/25 8/10/26 11/18/27 10/22/28
f 10/22/29 12/17/30 18/23/31 17/24/32
f 13/21/33 15/25/34 20/26/35 19/27/36
f 15/25/37 14/20/38 17/24/39 16/28/40
f 16/28/41 18/23/42 24/29/43 23/30/44
f 21/4/45 20/31/46 23/32/47 22/13/48
f 2/9/49 5/15/50 11/18/51 8/10/52
f 9/19/53 10/22/54 17/24/55 14/20/56
f 15/25/57 16/28/58 23/30/59 20/26/60
f 21/4/61 22/13/62 6/6/63 1/1/64
f 4/16/65 24/29/66 18/23/67 12/17/68
f 19/27/69 3/8/70 7/11/71 13/21/72
f 1/1/73 2/5/74 3/2/75
f 4/12/76 5/7/77 6/6/78
f 7/11/79 8/10/80 9/19/81
f 10/22/82 11/18/83 12/17/84
f 13/21/85 14/20/86 15/25/87
f 16/28/88 17/24/89 18/23/90
f 19/3/91 20/31/92 21/4/93
f 22/13/94 23/32/95 24/14/96
