# This file uses centimeters as units for non-parametric coordinates.

mtllib Ing_copper_low.mtl
g default
v -0.181837 0.008412 0.505442
v -0.179287 0.024734 0.513111
v -0.193544 0.024414 0.499956
v 0.225607 0.024414 0.499956
v 0.210863 0.025165 0.512901
v 0.213900 0.008412 0.505442
v -0.103987 0.230259 0.371160
v -0.091075 0.232597 0.382012
v -0.089678 0.241040 0.367714
v 0.121740 0.241040 0.367714
v 0.123014 0.232482 0.382068
v 0.136049 0.230259 0.371160
v -0.103994 0.230224 -0.206291
v -0.089678 0.241040 -0.202863
v -0.091075 0.232597 -0.217160
v 0.123137 0.232597 -0.217160
v 0.121711 0.241040 -0.202839
v 0.136057 0.230224 -0.206291
v -0.193544 0.024414 -0.335105
v -0.178800 0.025165 -0.348050
v -0.181837 0.008412 -0.340591
v 0.213900 0.008412 -0.340591
v 0.211349 0.024734 -0.348260
v 0.225607 0.024414 -0.335105
vt 0.016759 0.521279
vt 0.017444 0.513269
vt 0.361535 0.509744
vt 0.362485 0.517687
vt 0.009626 0.520970
vt 0.018365 0.683111
vt 0.011002 0.683435
vt 0.019845 0.989760
vt 0.011045 0.979129
vt 0.108924 0.888180
vt 0.113506 0.894204
vt 0.019316 0.691054
vt 0.364091 0.679519
vt 0.363408 0.687529
vt 0.011335 0.711722
vt 0.018736 0.699651
vt 0.122762 0.784581
vt 0.117585 0.790047
vt 0.116402 0.886700
vt 0.379736 0.897389
vt 0.381016 0.905226
vt 0.124052 0.792407
vt 0.390265 0.795557
vt 0.387324 0.803077
vt 0.386108 0.899766
vt 0.492429 0.978022
vt 0.485064 0.990121
vt 0.394853 0.801614
vt 0.483812 0.699984
vt 0.492661 0.710562
vt 0.369848 0.517363
vt 0.371225 0.679829
vn -0.034982 -0.999248 0.016755
vn -0.954282 0.298446 0.016614
vn -0.954330 0.298301 -0.016481
vn -0.035008 -0.999252 -0.016419
vn -0.051807 0.453229 0.889887
vn -0.034982 -0.999248 0.016755
vn 0.035008 -0.999252 0.016419
vn 0.052256 0.452353 0.890307
vn -0.954282 0.298446 0.016614
vn -0.051807 0.453229 0.889887
vn -0.020350 0.552033 0.833574
vn -0.903456 0.428365 0.016448
vn 0.954307 0.298369 0.016577
vn 0.035008 -0.999252 0.016419
vn 0.034982 -0.999248 -0.016755
vn 0.954284 0.298440 -0.016618
vn 0.052256 0.452353 0.890307
vn 0.954307 0.298369 0.016577
vn 0.903382 0.428513 0.016680
vn 0.020328 0.552146 0.833500
vn -0.903456 0.428365 0.016448
vn -0.050082 0.998632 0.015057
vn -0.050071 0.998634 -0.014964
vn -0.903412 0.428450 -0.016633
vn -0.050082 0.998632 0.015057
vn -0.020350 0.552033 0.833574
vn 0.020328 0.552146 0.833500
vn 0.050105 0.998632 0.014954
vn 0.050105 0.998632 0.014954
vn 0.903382 0.428513 0.016680
vn 0.903442 0.428394 -0.016462
vn 0.050073 0.998633 -0.014984
vn -0.903412 0.428450 -0.016633
vn -0.020267 0.552046 -0.833567
vn -0.052310 0.452397 -0.890281
vn -0.954330 0.298301 -0.016481
vn -0.020267 0.552046 -0.833567
vn -0.050071 0.998634 -0.014964
vn 0.050073 0.998633 -0.014984
vn 0.020380 0.552013 -0.833587
vn 0.020380 0.552013 -0.833587
vn 0.903442 0.428394 -0.016462
vn 0.954284 0.298440 -0.016618
vn 0.051881 0.453266 -0.889864
vn -0.035008 -0.999252 -0.016419
vn -0.052310 0.452397 -0.890281
vn 0.051881 0.453266 -0.889864
vn 0.034982 -0.999248 -0.016755
vn -0.051807 0.453229 0.889887
vn 0.052256 0.452353 0.890307
vn 0.020328 0.552146 0.833500
vn -0.020350 0.552033 0.833574
vn -0.050082 0.998632 0.015057
vn 0.050105 0.998632 0.014954
vn 0.050073 0.998633 -0.014984
vn -0.050071 0.998634 -0.014964
vn -0.020267 0.552046 -0.833567
vn 0.020380 0.552013 -0.833587
vn 0.051881 0.453266 -0.889864
vn -0.052310 0.452397 -0.890281
vn -0.035008 -0.999252 -0.016419
vn 0.034982 -0.999248 -0.016755
vn 0.035008 -0.999252 0.016419
vn -0.034982 -0.999248 0.016755
vn 0.954307 0.298369 0.016577
vn 0.954284 0.298440 -0.016618
vn 0.903442 0.428394 -0.016462
vn 0.903382 0.428513 0.016680
vn -0.954330 0.298301 -0.016481
vn -0.954282 0.298446 0.016614
vn -0.903456 0.428365 0.016448
vn -0.903412 0.428450 -0.016633
vn -0.034982 -0.999248 0.016755
vn -0.051807 0.453229 0.889887
vn -0.954282 0.298446 0.016614
vn 0.954307 0.298369 0.016577
vn 0.052256 0.452353 0.890307
vn 0.035008 -0.999252 0.016419
vn -0.903456 0.428365 0.016448
vn -0.020350 0.552033 0.833574
vn -0.050082 0.998632 0.015057
vn 0.050105 0.998632 0.014954
vn 0.020328 0.552146 0.833500
vn 0.903382 0.428513 0.016680
vn -0.903412 0.428450 -0.016633
vn -0.050071 0.998634 -0.014964
vn -0.020267 0.552046 -0.833567
vn 0.020380 0.552013 -0.833587
vn 0.050073 0.998633 -0.014984
vn 0.903442 0.428394 -0.016462
vn -0.954330 0.298301 -0.016481
vn -0.052310 0.452397 -0.890281
vn -0.035008 -0.999252 -0.016419
vn 0.034982 -0.999248 -0.016755
vn 0.051881 0.453266 -0.889864
vn 0.954284 0.298440 -0.016618
s off
g Ing_copper_low:Ore_1
usemtl initialShadingGroup
f 1/1/1 3/2/2 19/3/3 21/4/4
f 2/5/5 1/1/6 6/6/7 5/7/8
f 3/8/9 2/9/10 8/10/11 7/11/12
f 4/12/13 6/6/14 22/13/15 24/14/16
f 5/15/17 4/16/18 12/17/19 11/18/20
f 7/11/21 9/19/22 14/20/23 13/21/24
f 9/19/25 8/10/26 11/18/27 10/22/28
f 10/22/29 12/17/30 18/23/31 17/24/32
f 13/21/33 15/25/34 20/26/35 19/27/36
f 15/25/37 14/20/38 17/24/39 16/28/40
f 16/28/41 18/23/42 24/29/43 23/30/44
f 21/4/45 20/31/46 23/32/47 22/13/48
f 2/9/49 5/15/50 11/18/51 8/10/52
f 9/19/53 10/22/54 17/24/55 14/20/56
f 15/25/57 16/28/58 23/30/59 20/26/60
f 21/4/61 22/13/62 6/6/63 1/1/64
f 4/16/65 24/29/66 18/23/67 12/17/68
f 19/27/69 3/8/70 7/11/71 13/21/72
f 1/1/73 2/5/74 3/2/75
f 4/12/76 5/7/77 6/6/78
f 7/11/79 8/10/80 9/19/81
f 10/22/82 11/18/83 12/17/84
f 13/21/85 14/20/86 15/25/87
f 16/28/88 17/24/89 18/23/90
f 19/3/91 20/31/92 21/4/93
f 22/13/94 23/32/95 24/14/96
