# This file uses centimeters as units for non-parametric coordinates.

mtllib Rock_4_low.mtl
g default
v 0.435029 0.004545 0.167064
v 0.430903 -0.005504 -0.602235
v -0.064546 0.007833 -0.747308
v -0.366461 0.003446 -0.439928
v -0.386483 -0.004165 -0.002849
v -0.286697 0.093586 0.526605
v -0.074817 0.004819 0.904291
v 0.309998 -0.002470 0.873829
v 0.684525 -0.007629 0.121121
v 0.590574 -0.012462 -0.684746
v -0.095077 0.008692 -0.917652
v -0.526651 -0.007414 -0.605621
v -0.568531 0.006586 -0.046665
v -0.377903 -0.000595 0.694829
v -0.052811 0.042666 1.137391
v 0.516474 0.041493 1.037189
v 0.746635 0.105172 0.069536
v 0.718018 0.084717 -0.765606
v -0.122998 0.110160 -1.029275
v -0.621174 0.115033 -0.687398
v -0.684792 0.203411 -0.068831
v -0.462353 0.285110 0.721745
v -0.070738 0.276233 1.180364
v 0.563182 0.261313 1.069056
v 0.665718 0.256860 0.054279
v 0.698533 0.208797 -0.769879
v -0.128710 0.234454 -1.009234
v -0.603042 0.253606 -0.686332
v -0.650149 0.317257 -0.080402
v -0.492416 0.410307 0.653822
v -0.090371 0.417327 1.093029
v 0.500410 0.388496 1.015137
v 0.514166 0.397212 0.041415
v 0.577843 0.326089 -0.746243
v -0.119537 0.351016 -0.921859
v -0.501698 0.385344 -0.614793
v -0.539425 0.450653 -0.098515
v -0.472546 0.509818 0.540698
v -0.108541 0.542561 0.914287
v 0.348735 0.495786 0.855375
v 0.113685 0.489838 -0.006130
v 0.171286 0.432178 -0.588563
v -0.044151 0.436794 -0.671492
v -0.246311 0.491963 -0.259993
v -0.241517 0.533834 -0.052816
v -0.185108 0.537731 0.173532
v -0.148129 0.560308 0.354106
v 0.029465 0.529698 0.304609
v -0.052855 0.050484 -0.016265
v -0.035070 0.524597 -0.258819
v 0.324717 -0.013780 -0.880282
v 0.421626 -0.005166 -1.056951
v 0.440321 0.068537 -1.156878
v 0.403188 0.194500 -1.141897
v 0.341210 0.312907 -1.069274
v 0.114613 0.424105 -0.717309
vt 0.973300 0.336119
vt 0.990339 0.333482
vt 0.974365 0.409927
vt 0.950255 0.406430
vt 0.972087 0.307583
vt 0.986288 0.294441
vt 0.895537 0.326410
vt 0.886040 0.306477
vt 0.934931 0.291335
vt 0.932492 0.307751
vt 0.880254 0.365185
vt 0.864673 0.355924
vt 0.873544 0.416281
vt 0.857858 0.429222
vt 0.880739 0.457978
vt 0.875887 0.480283
vt 0.916824 0.466902
vt 0.930632 0.488472
vt 0.510096 0.269002
vt 0.539617 0.088805
vt 0.566120 0.095089
vt 0.531814 0.256295
vt 0.623014 0.022047
vt 0.631798 0.036360
vt 0.750927 0.026295
vt 0.853126 0.105311
vt 0.830124 0.116899
vt 0.738784 0.048165
vt 0.890657 0.237403
vt 0.852188 0.232248
vt 0.843533 0.405459
vt 0.805882 0.379482
vt 0.733505 0.486939
vt 0.723668 0.452689
vt 0.588238 0.459642
vt 0.609819 0.434106
vt 0.584113 0.105628
vt 0.563073 0.254102
vt 0.642489 0.054926
vt 0.811001 0.129711
vt 0.733661 0.069340
vt 0.830655 0.232180
vt 0.793022 0.357895
vt 0.723114 0.425355
vt 0.626004 0.416034
vt 0.608858 0.119036
vt 0.601437 0.253027
vt 0.654228 0.075543
vt 0.787762 0.147928
vt 0.728114 0.094386
vt 0.799037 0.231604
vt 0.780194 0.335485
vt 0.722674 0.390678
vt 0.649726 0.385516
vt 0.675083 0.152718
vt 0.678154 0.246384
vt 0.686789 0.132399
vt 0.745260 0.206789
vt 0.712542 0.139494
vt 0.743439 0.239700
vt 0.732720 0.275193
vt 0.725153 0.303488
vt 0.693620 0.295299
vt 0.911549 0.374787
vt 0.707912 0.207223
vn -0.042908 -0.999006 0.012111
vn -0.042908 -0.999006 0.012111
vn -0.042908 -0.999006 0.012111
vn -0.042908 -0.999006 0.012111
vn -0.060731 -0.994959 0.079804
vn 0.163666 -0.802274 -0.574082
vn 0.553380 -0.826883 -0.100171
vn -0.095102 -0.991930 0.083844
vn -0.006800 -0.990462 0.137616
vn -0.476925 -0.862705 -0.168176
vn -0.288465 -0.812239 -0.507007
vn -0.048432 -0.992777 0.109762
vn -0.019391 -0.994001 0.107642
vn -0.601623 -0.782197 0.161917
vn -0.476925 -0.862705 -0.168176
vn -0.006800 -0.990462 0.137616
vn -0.266427 -0.963845 0.004351
vn -0.717742 -0.608917 0.337736
vn -0.601623 -0.782197 0.161917
vn -0.019391 -0.994001 0.107642
vn -0.173688 -0.980026 0.096861
vn -0.264629 -0.600619 0.754472
vn -0.717742 -0.608917 0.337736
vn -0.266427 -0.963845 0.004351
vn 0.039360 -0.992878 0.112442
vn 0.587832 -0.594250 0.548926
vn -0.264629 -0.600619 0.754472
vn -0.173688 -0.980026 0.096861
vn -0.065389 -0.997769 0.013498
vn 0.578568 -0.810581 0.090650
vn 0.587832 -0.594250 0.548926
vn 0.039360 -0.992878 0.112442
vn 0.578568 -0.810581 0.090650
vn 0.553380 -0.826883 -0.100171
vn 0.959895 -0.169665 -0.223195
vn 0.995541 -0.056019 0.075897
vn 0.553380 -0.826883 -0.100171
vn 0.163666 -0.802274 -0.574082
vn 0.274649 -0.337595 -0.900332
vn 0.959895 -0.169665 -0.223195
vn -0.288465 -0.812239 -0.507007
vn -0.476925 -0.862705 -0.168176
vn -0.811294 -0.363004 -0.458290
vn -0.399021 -0.291590 -0.869343
vn -0.476925 -0.862705 -0.168176
vn -0.601623 -0.782197 0.161917
vn -0.951484 -0.278597 0.130622
vn -0.811294 -0.363004 -0.458290
vn -0.601623 -0.782197 0.161917
vn -0.717742 -0.608917 0.337736
vn -0.871855 -0.172286 0.458461
vn -0.951484 -0.278597 0.130622
vn -0.717742 -0.608917 0.337736
vn -0.264629 -0.600619 0.754472
vn -0.292735 -0.000903 0.956193
vn -0.871855 -0.172286 0.458461
vn -0.264629 -0.600619 0.754472
vn 0.587832 -0.594250 0.548926
vn 0.797599 0.145296 0.585427
vn -0.292735 -0.000903 0.956193
vn 0.587832 -0.594250 0.548926
vn 0.578568 -0.810581 0.090650
vn 0.995541 -0.056019 0.075897
vn 0.797599 0.145296 0.585427
vn 0.995541 -0.056019 0.075897
vn 0.959895 -0.169665 -0.223195
vn 0.816041 0.544871 -0.192855
vn 0.793401 0.608223 0.024079
vn 0.959895 -0.169665 -0.223195
vn 0.274649 -0.337595 -0.900332
vn 0.265036 0.411455 -0.872044
vn 0.816041 0.544871 -0.192855
vn -0.399021 -0.291590 -0.869343
vn -0.811294 -0.363004 -0.458290
vn -0.771134 0.411907 -0.485473
vn -0.378730 0.353247 -0.855442
vn -0.811294 -0.363004 -0.458290
vn -0.951484 -0.278597 0.130622
vn -0.925750 0.376932 0.030166
vn -0.771134 0.411907 -0.485473
vn -0.951484 -0.278597 0.130622
vn -0.871855 -0.172286 0.458461
vn -0.830878 0.406457 0.380046
vn -0.925750 0.376932 0.030166
vn -0.871855 -0.172286 0.458461
vn -0.292735 -0.000903 0.956193
vn -0.235020 0.639034 0.732394
vn -0.830878 0.406457 0.380046
vn -0.292735 -0.000903 0.956193
vn 0.797599 0.145296 0.585427
vn 0.597000 0.724838 0.343804
vn -0.235020 0.639034 0.732394
vn 0.797599 0.145296 0.585427
vn 0.995541 -0.056019 0.075897
vn 0.793401 0.608223 0.024079
vn 0.597000 0.724838 0.343804
vn 0.793401 0.608223 0.024079
vn 0.816041 0.544871 -0.192855
vn 0.430421 0.893098 -0.130817
vn 0.413273 0.909687 -0.040933
vn 0.816041 0.544871 -0.192855
vn 0.265036 0.411455 -0.872044
vn 0.176102 0.828598 -0.531427
vn 0.430421 0.893098 -0.130817
vn -0.378730 0.353247 -0.855442
vn -0.771134 0.411907 -0.485473
vn -0.411686 0.860344 -0.300539
vn -0.208111 0.840453 -0.500328
vn -0.771134 0.411907 -0.485473
vn -0.925750 0.376932 0.030166
vn -0.521947 0.850366 -0.066701
vn -0.411686 0.860344 -0.300539
vn -0.925750 0.376932 0.030166
vn -0.830878 0.406457 0.380046
vn -0.482271 0.867472 0.122095
vn -0.521947 0.850366 -0.066701
vn -0.830878 0.406457 0.380046
vn -0.235020 0.639034 0.732394
vn -0.074514 0.959506 0.271654
vn -0.482271 0.867472 0.122095
vn -0.235020 0.639034 0.732394
vn 0.597000 0.724838 0.343804
vn 0.355406 0.927270 0.117713
vn -0.074514 0.959506 0.271654
vn 0.597000 0.724838 0.343804
vn 0.793401 0.608223 0.024079
vn 0.413273 0.909687 -0.040933
vn 0.355406 0.927270 0.117713
vn 0.413273 0.909687 -0.040933
vn 0.430421 0.893098 -0.130817
vn 0.205575 0.972929 -0.105580
vn 0.237695 0.969003 -0.067337
vn 0.430421 0.893098 -0.130817
vn 0.176102 0.828598 -0.531427
vn 0.099377 0.968577 -0.227996
vn 0.205575 0.972929 -0.105580
vn -0.208111 0.840453 -0.500328
vn -0.411686 0.860344 -0.300539
vn -0.185525 0.965624 -0.182075
vn -0.074899 0.967415 -0.241863
vn -0.411686 0.860344 -0.300539
vn -0.521947 0.850366 -0.066701
vn -0.177617 0.981294 -0.074260
vn -0.185525 0.965624 -0.182075
vn -0.521947 0.850366 -0.066701
vn -0.482271 0.867472 0.122095
vn -0.185363 0.982023 -0.035667
vn -0.177617 0.981294 -0.074260
vn -0.482271 0.867472 0.122095
vn -0.074514 0.959506 0.271654
vn -0.005764 0.999975 0.004228
vn -0.185363 0.982023 -0.035667
vn -0.074514 0.959506 0.271654
vn 0.355406 0.927270 0.117713
vn 0.191046 0.980683 -0.041982
vn -0.005764 0.999975 0.004228
vn 0.355406 0.927270 0.117713
vn 0.413273 0.909687 -0.040933
vn 0.237695 0.969003 -0.067337
vn 0.191046 0.980683 -0.041982
vn -0.095102 -0.991930 0.083844
vn -0.065389 -0.997769 0.013498
vn -0.114716 -0.992591 0.040048
vn -0.048432 -0.992777 0.109762
vn -0.060731 -0.994959 0.079804
vn -0.095102 -0.991930 0.083844
vn -0.114716 -0.992591 0.040048
vn -0.006800 -0.990462 0.137616
vn -0.048432 -0.992777 0.109762
vn -0.114716 -0.992591 0.040048
vn -0.019391 -0.994001 0.107642
vn -0.006800 -0.990462 0.137616
vn -0.114716 -0.992591 0.040048
vn -0.266427 -0.963845 0.004351
vn -0.019391 -0.994001 0.107642
vn -0.114716 -0.992591 0.040048
vn -0.173688 -0.980026 0.096861
vn -0.266427 -0.963845 0.004351
vn -0.114716 -0.992591 0.040048
vn 0.039360 -0.992878 0.112442
vn -0.173688 -0.980026 0.096861
vn -0.114716 -0.992591 0.040048
vn -0.065389 -0.997769 0.013498
vn 0.039360 -0.992878 0.112442
vn -0.114716 -0.992591 0.040048
vn 0.237695 0.969003 -0.067337
vn 0.205575 0.972929 -0.105580
vn 0.127824 0.985017 -0.115769
vn 0.205575 0.972929 -0.105580
vn 0.099377 0.968577 -0.227996
vn -0.074899 0.967415 -0.241863
vn 0.127824 0.985017 -0.115769
vn -0.074899 0.967415 -0.241863
vn -0.185525 0.965624 -0.182075
vn 0.127824 0.985017 -0.115769
vn -0.185525 0.965624 -0.182075
vn -0.177617 0.981294 -0.074260
vn 0.127824 0.985017 -0.115769
vn -0.177617 0.981294 -0.074260
vn -0.185363 0.982023 -0.035667
vn 0.127824 0.985017 -0.115769
vn -0.185363 0.982023 -0.035667
vn -0.005764 0.999975 0.004228
vn 0.127824 0.985017 -0.115769
vn -0.005764 0.999975 0.004228
vn 0.191046 0.980683 -0.041982
vn 0.127824 0.985017 -0.115769
vn 0.191046 0.980683 -0.041982
vn 0.237695 0.969003 -0.067337
vn 0.127824 0.985017 -0.115769
vn -0.048432 -0.992777 0.109762
vn -0.288465 -0.812239 -0.507007
vn 0.163666 -0.802274 -0.574082
vn -0.060731 -0.994959 0.079804
vn 0.274649 -0.337595 -0.900332
vn 0.163666 -0.802274 -0.574082
vn -0.288465 -0.812239 -0.507007
vn -0.399021 -0.291590 -0.869343
vn 0.265036 0.411455 -0.872044
vn 0.274649 -0.337595 -0.900332
vn -0.399021 -0.291590 -0.869343
vn -0.378730 0.353247 -0.855442
vn 0.176102 0.828598 -0.531427
vn 0.265036 0.411455 -0.872044
vn -0.378730 0.353247 -0.855442
vn -0.208111 0.840453 -0.500328
vn 0.099377 0.968577 -0.227996
vn 0.176102 0.828598 -0.531427
vn -0.208111 0.840453 -0.500328
vn -0.074899 0.967415 -0.241863
s off
g Rock_low_4:polySurface18
usemtl initialShadingGroup
f 2/1/1 10/2/2 9/3/3 1/4/4
f 51/5/5 52/6/6 10/2/7 2/1/8
f 4/7/9 12/8/10 11/9/11 3/10/12
f 5/11/13 13/12/14 12/8/15 4/7/16
f 6/13/17 14/14/18 13/12/19 5/11/20
f 7/15/21 15/16/22 14/14/23 6/13/24
f 8/17/25 16/18/26 15/16/27 7/15/28
f 1/4/29 9/3/30 16/18/31 8/17/32
f 9/19/33 10/20/34 18/21/35 17/22/36
f 10/20/37 52/23/38 53/24/39 18/21/40
f 11/25/41 12/26/42 20/27/43 19/28/44
f 12/26/45 13/29/46 21/30/47 20/27/48
f 13/29/49 14/31/50 22/32/51 21/30/52
f 14/31/53 15/33/54 23/34/55 22/32/56
f 15/33/57 16/35/58 24/36/59 23/34/60
f 16/35/61 9/19/62 17/22/63 24/36/64
f 17/22/65 18/21/66 26/37/67 25/38/68
f 18/21/69 53/24/70 54/39/71 26/37/72
f 19/28/73 20/27/74 28/40/75 27/41/76
f 20/27/77 21/30/78 29/42/79 28/40/80
f 21/30/81 22/32/82 30/43/83 29/42/84
f 22/32/85 23/34/86 31/44/87 30/43/88
f 23/34/89 24/36/90 32/45/91 31/44/92
f 24/36/93 17/22/94 25/38/95 32/45/96
f 25/38/97 26/37/98 34/46/99 33/47/100
f 26/37/101 54/39/102 55/48/103 34/46/104
f 27/41/105 28/40/106 36/49/107 35/50/108
f 28/40/109 29/42/110 37/51/111 36/49/112
f 29/42/113 30/43/114 38/52/115 37/51/116
f 30/43/117 31/44/118 39/53/119 38/52/120
f 31/44/121 32/45/122 40/54/123 39/53/124
f 32/45/125 25/38/126 33/47/127 40/54/128
f 33/47/129 34/46/130 42/55/131 41/56/132
f 34/46/133 55/48/134 56/57/135 42/55/136
f 35/50/137 36/49/138 44/58/139 43/59/140
f 36/49/141 37/51/142 45/60/143 44/58/144
f 37/51/145 38/52/146 46/61/147 45/60/148
f 38/52/149 39/53/150 47/62/151 46/61/152
f 39/53/153 40/54/154 48/63/155 47/62/156
f 40/54/157 33/47/158 41/56/159 48/63/160
f 2/1/161 1/4/162 49/64/163
f 3/10/164 51/5/165 2/1/166 49/64/167
f 4/7/168 3/10/169 49/64/170
f 5/11/171 4/7/172 49/64/173
f 6/13/174 5/11/175 49/64/176
f 7/15/177 6/13/178 49/64/179
f 8/17/180 7/15/181 49/64/182
f 1/4/183 8/17/184 49/64/185
f 41/56/186 42/55/187 50/65/188
f 42/55/189 56/57/190 43/59/191 50/65/192
f 43/59/193 44/58/194 50/65/195
f 44/58/196 45/60/197 50/65/198
f 45/60/199 46/61/200 50/65/201
f 46/61/202 47/62/203 50/65/204
f 47/62/205 48/63/206 50/65/207
f 48/63/208 41/56/209 50/65/210
f 3/10/211 11/9/212 52/6/213 51/5/214
f 53/24/215 52/23/216 11/25/217 19/28/218
f 54/39/219 53/24/220 19/28/221 27/41/222
f 55/48/223 54/39/224 27/41/225 35/50/226
f 56/57/227 55/48/228 35/50/229 43/59/230
