# This file uses centimeters as units for non-parametric coordinates.

mtllib Rock_2_low.mtl
g default
v 0.081307 0.045325 -0.530728
v -0.293125 0.030423 -0.413199
v -0.405239 -0.012497 -0.023256
v -0.168559 -0.024035 0.415031
v -0.038508 -0.043185 0.494249
v 0.126771 -0.035161 0.272043
v 0.410771 -0.041317 -0.040777
v 0.353631 0.014316 -0.391366
v 0.102445 0.085857 -0.679227
v -0.324362 0.060286 -0.491107
v -0.502574 -0.043682 -0.003774
v -0.206844 -0.040714 0.528220
v -0.050736 -0.041509 0.664399
v 0.152398 -0.039793 0.379768
v 0.575282 -0.049985 -0.041556
v 0.456191 0.063175 -0.498166
v 0.136237 0.390058 -0.707646
v -0.312595 0.360676 -0.496224
v -0.522841 0.291453 0.023459
v -0.226830 0.159309 0.593423
v -0.036950 0.161772 0.752416
v 0.213219 0.236695 0.443017
v 0.673683 0.281736 -0.013065
v 0.519129 0.365507 -0.511667
v 0.151615 0.595655 -0.654566
v -0.280572 0.569280 -0.454457
v -0.473268 0.501535 0.040868
v -0.188566 0.320040 0.590835
v -0.017182 0.319009 0.734299
v 0.246350 0.396031 0.433881
v 0.655139 0.527584 0.009268
v 0.519715 0.571188 -0.472789
v 0.158732 0.772182 -0.550023
v -0.243027 0.750140 -0.393073
v -0.378793 0.661634 0.052404
v -0.106732 0.422019 0.538944
v 0.012690 0.484176 0.655441
v 0.270760 0.539771 0.392966
v 0.598265 0.745153 0.030953
v 0.475595 0.751865 -0.387841
v 0.134735 0.849841 -0.220020
v -0.164001 0.845610 -0.214697
v -0.223998 0.755958 -0.003759
v -0.005780 0.538723 0.320185
v 0.082282 0.598012 0.325672
v 0.202615 0.670788 0.189400
v 0.309247 0.803650 0.042339
v 0.280631 0.843893 -0.150018
v -0.020978 0.049220 -0.054100
v 0.001548 0.825452 -0.010484
v -0.462460 -0.000040 -0.320176
v -0.553651 -0.033330 -0.375723
v -0.560027 0.343320 -0.370887
v -0.517357 0.552379 -0.336979
v -0.446530 0.735682 -0.288603
v -0.237918 0.831298 -0.155411
vt 0.495858 0.054469
vt 0.507482 0.051979
vt 0.524267 0.112331
vt 0.504298 0.106613
vt 0.486320 0.029945
vt 0.494923 0.017758
vt 0.383457 0.055809
vt 0.369007 0.048639
vt 0.444716 0.018293
vt 0.445869 0.032134
vt 0.370281 0.071601
vt 0.348022 0.066670
vt 0.396442 0.097867
vt 0.381683 0.099145
vt 0.432265 0.141603
vt 0.429208 0.163429
vt 0.480336 0.140172
vt 0.493810 0.156056
vt 0.010163 0.274320
vt 0.096732 0.107015
vt 0.125276 0.160016
vt 0.066129 0.284943
vt 0.191551 0.046715
vt 0.192529 0.122352
vt 0.331415 0.069783
vt 0.475475 0.225823
vt 0.436125 0.249248
vt 0.304051 0.125912
vt 0.483803 0.321168
vt 0.439455 0.313697
vt 0.421370 0.442049
vt 0.382890 0.403197
vt 0.228930 0.530539
vt 0.221346 0.464980
vt 0.054793 0.438980
vt 0.102888 0.395530
vt 0.150879 0.190474
vt 0.104809 0.288471
vt 0.200358 0.156074
vt 0.406267 0.262491
vt 0.288703 0.167526
vt 0.411729 0.313755
vt 0.355195 0.381703
vt 0.225828 0.420853
vt 0.133838 0.370537
vt 0.179416 0.217244
vt 0.140768 0.289833
vt 0.209126 0.187923
vt 0.381070 0.276556
vt 0.277219 0.202906
vt 0.381015 0.313445
vt 0.329319 0.361400
vt 0.232186 0.379656
vt 0.163568 0.350156
vt 0.214876 0.240960
vt 0.203963 0.291711
vt 0.227092 0.229600
vt 0.329817 0.289558
vt 0.258863 0.234314
vt 0.322145 0.311155
vt 0.288921 0.326874
vt 0.246578 0.331866
vt 0.212522 0.318826
vt 0.443462 0.083967
vt 0.248910 0.276774
vn -0.063860 -0.953762 -0.293700
vn -0.063860 -0.953762 -0.293700
vn -0.063860 -0.953762 -0.293700
vn -0.063860 -0.953762 -0.293700
vn 0.013766 -0.992804 -0.118960
vn -0.907689 -0.189258 -0.374542
vn -0.396150 -0.253760 -0.882423
vn 0.060842 -0.990134 -0.126225
vn 0.120358 -0.990553 -0.065724
vn -0.758198 -0.447301 0.474402
vn -0.900079 -0.330962 0.283413
vn 0.072502 -0.994839 -0.070982
vn 0.070978 -0.997324 -0.017544
vn 0.376993 -0.589255 0.714601
vn -0.758198 -0.447301 0.474402
vn 0.120358 -0.990553 -0.065724
vn -0.136075 -0.989783 0.042579
vn 0.611082 -0.518371 0.598223
vn 0.376993 -0.589255 0.714601
vn 0.070978 -0.997324 -0.017544
vn -0.077345 -0.993126 -0.087851
vn 0.853389 -0.473519 0.217962
vn 0.611082 -0.518371 0.598223
vn -0.136075 -0.989783 0.042579
vn -0.021688 -0.969855 -0.242716
vn 0.703019 -0.399912 -0.588077
vn 0.853389 -0.473519 0.217962
vn -0.077345 -0.993126 -0.087851
vn -0.016869 -0.988747 -0.148642
vn -0.013534 -0.319977 -0.947329
vn 0.703019 -0.399912 -0.588077
vn -0.021688 -0.969855 -0.242716
vn -0.013534 -0.319977 -0.947329
vn -0.396150 -0.253760 -0.882423
vn -0.433149 0.096390 -0.896153
vn -0.009929 0.052540 -0.998569
vn -0.396150 -0.253760 -0.882423
vn -0.907689 -0.189258 -0.374542
vn -0.933005 0.089431 -0.348574
vn -0.433149 0.096390 -0.896153
vn -0.900079 -0.330962 0.283413
vn -0.758198 -0.447301 0.474402
vn -0.838759 -0.031816 0.543573
vn -0.945933 0.024782 0.323413
vn -0.758198 -0.447301 0.474402
vn 0.376993 -0.589255 0.714601
vn 0.348781 -0.236314 0.906922
vn -0.838759 -0.031816 0.543573
vn 0.376993 -0.589255 0.714601
vn 0.611082 -0.518371 0.598223
vn 0.720895 -0.209083 0.660753
vn 0.348781 -0.236314 0.906922
vn 0.611082 -0.518371 0.598223
vn 0.853389 -0.473519 0.217962
vn 0.956008 -0.174288 0.235951
vn 0.720895 -0.209083 0.660753
vn 0.853389 -0.473519 0.217962
vn 0.703019 -0.399912 -0.588077
vn 0.798123 -0.062459 -0.599248
vn 0.956008 -0.174288 0.235951
vn 0.703019 -0.399912 -0.588077
vn -0.013534 -0.319977 -0.947329
vn -0.009929 0.052540 -0.998569
vn 0.798123 -0.062459 -0.599248
vn -0.009929 0.052540 -0.998569
vn -0.433149 0.096390 -0.896153
vn -0.418622 0.320852 -0.849594
vn -0.012429 0.347465 -0.937611
vn -0.433149 0.096390 -0.896153
vn -0.933005 0.089431 -0.348574
vn -0.893477 0.339441 -0.294074
vn -0.418622 0.320852 -0.849594
vn -0.945933 0.024782 0.323413
vn -0.838759 -0.031816 0.543573
vn -0.752890 0.326010 0.571730
vn -0.868963 0.318163 0.379045
vn -0.838759 -0.031816 0.543573
vn 0.348781 -0.236314 0.906922
vn 0.315094 0.169932 0.933723
vn -0.752890 0.326010 0.571730
vn 0.348781 -0.236314 0.906922
vn 0.720895 -0.209083 0.660753
vn 0.723211 0.018266 0.690386
vn 0.315094 0.169932 0.933723
vn 0.720895 -0.209083 0.660753
vn 0.956008 -0.174288 0.235951
vn 0.961141 0.103718 0.255834
vn 0.723211 0.018266 0.690386
vn 0.956008 -0.174288 0.235951
vn 0.798123 -0.062459 -0.599248
vn 0.793945 0.241385 -0.558018
vn 0.961141 0.103718 0.255834
vn 0.798123 -0.062459 -0.599248
vn -0.009929 0.052540 -0.998569
vn -0.012429 0.347465 -0.937611
vn 0.793945 0.241385 -0.558018
vn -0.012429 0.347465 -0.937611
vn -0.418622 0.320852 -0.849594
vn -0.309085 0.713814 -0.628439
vn 0.002481 0.755309 -0.655364
vn -0.418622 0.320852 -0.849594
vn -0.893477 0.339441 -0.294074
vn -0.761583 0.626371 -0.166283
vn -0.309085 0.713814 -0.628439
vn -0.868963 0.318163 0.379045
vn -0.752890 0.326010 0.571730
vn -0.510665 0.690737 0.511960
vn -0.561872 0.677210 0.475065
vn -0.752890 0.326010 0.571730
vn 0.315094 0.169932 0.933723
vn 0.159121 0.656161 0.737653
vn -0.510665 0.690737 0.511960
vn 0.315094 0.169932 0.933723
vn 0.723211 0.018266 0.690386
vn 0.521698 0.477477 0.706999
vn 0.159121 0.656161 0.737653
vn 0.723211 0.018266 0.690386
vn 0.961141 0.103718 0.255834
vn 0.769512 0.562899 0.301654
vn 0.521698 0.477477 0.706999
vn 0.961141 0.103718 0.255834
vn 0.793945 0.241385 -0.558018
vn 0.611946 0.686372 -0.392958
vn 0.769512 0.562899 0.301654
vn 0.793945 0.241385 -0.558018
vn -0.012429 0.347465 -0.937611
vn 0.002481 0.755309 -0.655364
vn 0.611946 0.686372 -0.392958
vn 0.002481 0.755309 -0.655364
vn -0.309085 0.713814 -0.628439
vn -0.148859 0.973579 -0.173160
vn 0.016639 0.978100 -0.207471
vn -0.309085 0.713814 -0.628439
vn -0.761583 0.626371 -0.166283
vn -0.366249 0.919298 0.144059
vn -0.148859 0.973579 -0.173160
vn -0.561872 0.677210 0.475065
vn -0.510665 0.690737 0.511960
vn -0.274435 0.836127 0.474950
vn -0.234371 0.844903 0.480843
vn -0.510665 0.690737 0.511960
vn 0.159121 0.656161 0.737653
vn -0.096650 0.901236 0.422413
vn -0.274435 0.836127 0.474950
vn 0.159121 0.656161 0.737653
vn 0.521698 0.477477 0.706999
vn 0.081893 0.818766 0.568257
vn -0.096650 0.901236 0.422413
vn 0.521698 0.477477 0.706999
vn 0.769512 0.562899 0.301654
vn 0.160956 0.918365 0.361524
vn 0.081893 0.818766 0.568257
vn 0.769512 0.562899 0.301654
vn 0.611946 0.686372 -0.392958
vn 0.207751 0.975780 -0.068511
vn 0.160956 0.918365 0.361524
vn 0.611946 0.686372 -0.392958
vn 0.002481 0.755309 -0.655364
vn 0.016639 0.978100 -0.207471
vn 0.207751 0.975780 -0.068511
vn 0.060842 -0.990134 -0.126225
vn -0.016869 -0.988747 -0.148642
vn -0.026388 -0.997369 -0.067518
vn 0.072502 -0.994839 -0.070982
vn 0.013766 -0.992804 -0.118960
vn 0.060842 -0.990134 -0.126225
vn -0.026388 -0.997369 -0.067518
vn 0.120358 -0.990553 -0.065724
vn 0.072502 -0.994839 -0.070982
vn -0.026388 -0.997369 -0.067518
vn 0.070978 -0.997324 -0.017544
vn 0.120358 -0.990553 -0.065724
vn -0.026388 -0.997369 -0.067518
vn -0.136075 -0.989783 0.042579
vn 0.070978 -0.997324 -0.017544
vn -0.026388 -0.997369 -0.067518
vn -0.077345 -0.993126 -0.087851
vn -0.136075 -0.989783 0.042579
vn -0.026388 -0.997369 -0.067518
vn -0.021688 -0.969855 -0.242716
vn -0.077345 -0.993126 -0.087851
vn -0.026388 -0.997369 -0.067518
vn -0.016869 -0.988747 -0.148642
vn -0.021688 -0.969855 -0.242716
vn -0.026388 -0.997369 -0.067518
vn 0.016639 0.978100 -0.207471
vn -0.148859 0.973579 -0.173160
vn -0.112079 0.890309 0.441349
vn -0.148859 0.973579 -0.173160
vn -0.366249 0.919298 0.144059
vn -0.234371 0.844903 0.480843
vn -0.112079 0.890309 0.441349
vn -0.234371 0.844903 0.480843
vn -0.274435 0.836127 0.474950
vn -0.112079 0.890309 0.441349
vn -0.274435 0.836127 0.474950
vn -0.096650 0.901236 0.422413
vn -0.112079 0.890309 0.441349
vn -0.096650 0.901236 0.422413
vn 0.081893 0.818766 0.568257
vn -0.112079 0.890309 0.441349
vn 0.081893 0.818766 0.568257
vn 0.160956 0.918365 0.361524
vn -0.112079 0.890309 0.441349
vn 0.160956 0.918365 0.361524
vn 0.207751 0.975780 -0.068511
vn -0.112079 0.890309 0.441349
vn 0.207751 0.975780 -0.068511
vn 0.016639 0.978100 -0.207471
vn -0.112079 0.890309 0.441349
vn 0.072502 -0.994839 -0.070982
vn -0.900079 -0.330962 0.283413
vn -0.907689 -0.189258 -0.374542
vn 0.013766 -0.992804 -0.118960
vn -0.933005 0.089431 -0.348574
vn -0.907689 -0.189258 -0.374542
vn -0.900079 -0.330962 0.283413
vn -0.945933 0.024782 0.323413
vn -0.893477 0.339441 -0.294074
vn -0.933005 0.089431 -0.348574
vn -0.945933 0.024782 0.323413
vn -0.868963 0.318163 0.379045
vn -0.761583 0.626371 -0.166283
vn -0.893477 0.339441 -0.294074
vn -0.868963 0.318163 0.379045
vn -0.561872 0.677210 0.475065
vn -0.366249 0.919298 0.144059
vn -0.761583 0.626371 -0.166283
vn -0.561872 0.677210 0.475065
vn -0.234371 0.844903 0.480843
s off
g Rock_low_2:polySurface15
usemtl initialShadingGroup
f 2/1/1 10/2/2 9/3/3 1/4/4
f 51/5/5 52/6/6 10/2/7 2/1/8
f 4/7/9 12/8/10 11/9/11 3/10/12
f 5/11/13 13/12/14 12/8/15 4/7/16
f 6/13/17 14/14/18 13/12/19 5/11/20
f 7/15/21 15/16/22 14/14/23 6/13/24
f 8/17/25 16/18/26 15/16/27 7/15/28
f 1/4/29 9/3/30 16/18/31 8/17/32
f 9/19/33 10/20/34 18/21/35 17/22/36
f 10/20/37 52/23/38 53/24/39 18/21/40
f 11/25/41 12/26/42 20/27/43 19/28/44
f 12/26/45 13/29/46 21/30/47 20/27/48
f 13/29/49 14/31/50 22/32/51 21/30/52
f 14/31/53 15/33/54 23/34/55 22/32/56
f 15/33/57 16/35/58 24/36/59 23/34/60
f 16/35/61 9/19/62 17/22/63 24/36/64
f 17/22/65 18/21/66 26/37/67 25/38/68
f 18/21/69 53/24/70 54/39/71 26/37/72
f 19/28/73 20/27/74 28/40/75 27/41/76
f 20/27/77 21/30/78 29/42/79 28/40/80
f 21/30/81 22/32/82 30/43/83 29/42/84
f 22/32/85 23/34/86 31/44/87 30/43/88
f 23/34/89 24/36/90 32/45/91 31/44/92
f 24/36/93 17/22/94 25/38/95 32/45/96
f 25/38/97 26/37/98 34/46/99 33/47/100
f 26/37/101 54/39/102 55/48/103 34/46/104
f 27/41/105 28/40/106 36/49/107 35/50/108
f 28/40/109 29/42/110 37/51/111 36/49/112
f 29/42/113 30/43/114 38/52/115 37/51/116
f 30/43/117 31/44/118 39/53/119 38/52/120
f 31/44/121 32/45/122 40/54/123 39/53/124
f 32/45/125 25/38/126 33/47/127 40/54/128
f 33/47/129 34/46/130 42/55/131 41/56/132
f 34/46/133 55/48/134 56/57/135 42/55/136
f 35/50/137 36/49/138 44/58/139 43/59/140
f 36/49/141 37/51/142 45/60/143 44/58/144
f 37/51/145 38/52/146 46/61/147 45/60/148
f 38/52/149 39/53/150 47/62/151 46/61/152
f 39/53/153 40/54/154 48/63/155 47/62/156
f 40/54/157 33/47/158 41/56/159 48/63/160
f 2/1/161 1/4/162 49/64/163
f 3/10/164 51/5/165 2/1/166 49/64/167
f 4/7/168 3/10/169 49/64/170
f 5/11/171 4/7/172 49/64/173
f 6/13/174 5/11/175 49/64/176
f 7/15/177 6/13/178 49/64/179
f 8/17/180 7/15/181 49/64/182
f 1/4/183 8/17/184 49/64/185
f 41/56/186 42/55/187 50/65/188
f 42/55/189 56/57/190 43/59/191 50/65/192
f 43/59/193 44/58/194 50/65/195
f 44/58/196 45/60/197 50/65/198
f 45/60/199 46/61/200 50/65/201
f 46/61/202 47/62/203 50/65/204
f 47/62/205 48/63/206 50/65/207
f 48/63/208 41/56/209 50/65/210
f 3/10/211 11/9/212 52/6/213 51/5/214
f 53/24/215 52/23/216 11/25/217 19/28/218
f 54/39/219 53/24/220 19/28/221 27/41/222
f 55/48/223 54/39/224 27/41/225 35/50/226
f 56/57/227 55/48/228 35/50/229 43/59/230
