# This file uses centimeters as units for non-parametric coordinates.

mtllib Rock_1_low.mtl
g default
v 0.019582 0.024518 -0.714648
v -0.564739 -0.003742 -0.403667
v -0.260969 -0.006463 0.199381
v 0.039585 -0.003379 0.384426
v 0.335103 -0.003871 0.418074
v 0.600625 -0.002745 -0.061262
v 0.054121 0.054411 -0.881468
v -0.717471 0.067039 -0.487814
v -0.356672 0.066321 0.326965
v 0.042453 0.066321 0.555299
v 0.445382 0.066321 0.571565
v 0.807792 0.066321 -0.094216
v 0.300666 0.415251 -0.714890
v -0.634264 0.805174 -0.322140
v -0.345055 0.805174 0.441677
v 0.038088 0.805174 0.460735
v 0.419703 0.805174 0.577504
v 0.794154 0.805174 -0.265045
v 0.347315 0.986208 -0.658117
v -0.489170 1.341487 -0.199492
v -0.346961 1.341487 0.500505
v 0.025254 1.341487 0.474513
v 0.391689 1.341487 0.502901
v 0.695659 1.341487 -0.325369
v 0.260871 1.634278 -0.413895
v -0.346699 1.796152 -0.149311
v -0.293556 1.796152 0.428785
v 0.026488 1.796152 0.519946
v 0.327138 1.796152 0.364088
v 0.521221 1.796152 -0.251549
v 0.089657 2.088853 -0.288258
v -0.197146 2.099949 -0.147140
v -0.173035 2.099949 0.241356
v 0.017853 2.099949 0.322273
v 0.196383 2.099949 0.203075
v 0.277518 2.099949 -0.090633
v -0.054812 0.003674 -0.054802
v -0.019802 2.206628 -0.002449
vt 0.413244 0.492112
vt 0.400928 0.471733
vt 0.499235 0.502213
vt 0.485117 0.514604
vt 0.406386 0.563271
vt 0.386143 0.567626
vt 0.423877 0.600164
vt 0.411248 0.616708
vt 0.450287 0.623627
vt 0.451017 0.647033
vt 0.505919 0.603348
vt 0.529045 0.617871
vt 0.089898 0.553071
vt 0.364994 0.535696
vt 0.337711 0.631896
vt 0.093463 0.638249
vt 0.478419 0.816725
vt 0.387206 0.808933
vt 0.382983 0.954732
vt 0.329303 0.879936
vt 0.242734 0.987876
vt 0.244848 0.919638
vt 0.009791 0.873142
vt 0.098102 0.802304
vt 0.311643 0.678920
vt 0.139445 0.683132
vt 0.340914 0.796224
vt 0.307785 0.855272
vt 0.243467 0.879028
vt 0.147659 0.772117
vt 0.287062 0.713241
vt 0.193423 0.718723
vt 0.309718 0.788349
vt 0.284209 0.819346
vt 0.243987 0.831056
vt 0.186545 0.770960
vt 0.262399 0.744207
vt 0.230677 0.742313
vt 0.282054 0.774073
vt 0.272019 0.794929
vt 0.250744 0.795323
vt 0.225497 0.773330
vt 0.440568 0.558739
vt 0.253404 0.766185
vn -0.237720 -0.970898 -0.029081
vn -0.914958 0.116956 -0.386229
vn -0.018311 0.053060 -0.998423
vn 0.049252 -0.981498 -0.185031
vn -0.914958 0.116956 -0.386229
vn -0.237720 -0.970898 -0.029081
vn -0.250535 -0.952289 0.174292
vn -0.793093 -0.142969 0.592085
vn -0.097863 -0.961952 0.255091
vn -0.236138 -0.137231 0.961981
vn -0.793093 -0.142969 0.592085
vn -0.250535 -0.952289 0.174292
vn 0.137932 -0.971434 0.193106
vn 0.678806 -0.073775 0.730602
vn -0.236138 -0.137231 0.961981
vn -0.097863 -0.961952 0.255091
vn 0.206344 -0.977614 -0.041143
vn 0.984777 -0.173808 0.002329
vn 0.678806 -0.073775 0.730602
vn 0.137932 -0.971434 0.193106
vn 0.984777 -0.173808 0.002329
vn 0.206344 -0.977614 -0.041143
vn 0.049252 -0.981498 -0.185031
vn -0.018311 0.053060 -0.998423
vn -0.018311 0.053060 -0.998423
vn -0.914958 0.116956 -0.386229
vn -0.891530 0.207389 -0.402696
vn 0.240099 0.099366 -0.965650
vn -0.891530 0.207389 -0.402696
vn -0.914958 0.116956 -0.386229
vn -0.793093 -0.142969 0.592085
vn -0.778497 0.007529 0.627603
vn -0.793093 -0.142969 0.592085
vn -0.236138 -0.137231 0.961981
vn -0.178918 0.009091 0.983822
vn -0.778497 0.007529 0.627603
vn -0.236138 -0.137231 0.961981
vn 0.678806 -0.073775 0.730602
vn 0.686861 0.110300 0.718370
vn -0.178918 0.009091 0.983822
vn 0.678806 -0.073775 0.730602
vn 0.984777 -0.173808 0.002329
vn 0.996001 0.048985 -0.074723
vn 0.686861 0.110300 0.718370
vn 0.996001 0.048985 -0.074723
vn 0.984777 -0.173808 0.002329
vn -0.018311 0.053060 -0.998423
vn 0.240099 0.099366 -0.965650
vn 0.240099 0.099366 -0.965650
vn -0.891530 0.207389 -0.402696
vn -0.802582 0.244852 -0.543976
vn 0.024530 0.198836 -0.979726
vn -0.802582 0.244852 -0.543976
vn -0.891530 0.207389 -0.402696
vn -0.778497 0.007529 0.627603
vn -0.791492 0.099032 0.603103
vn -0.778497 0.007529 0.627603
vn -0.178918 0.009091 0.983822
vn -0.031500 0.026333 0.999157
vn -0.791492 0.099032 0.603103
vn -0.178918 0.009091 0.983822
vn 0.686861 0.110300 0.718370
vn 0.747968 0.189022 0.636250
vn -0.031500 0.026333 0.999157
vn 0.686861 0.110300 0.718370
vn 0.996001 0.048985 -0.074723
vn 0.956016 0.251772 -0.150478
vn 0.747968 0.189022 0.636250
vn 0.956016 0.251772 -0.150478
vn 0.996001 0.048985 -0.074723
vn 0.240099 0.099366 -0.965650
vn 0.024530 0.198836 -0.979726
vn 0.024530 0.198836 -0.979726
vn -0.802582 0.244852 -0.543976
vn -0.766600 0.311052 -0.561757
vn -0.075650 0.320523 -0.944215
vn -0.766600 0.311052 -0.561757
vn -0.802582 0.244852 -0.543976
vn -0.791492 0.099032 0.603103
vn -0.806886 0.300451 0.508591
vn -0.791492 0.099032 0.603103
vn -0.031500 0.026333 0.999157
vn 0.059198 0.259384 0.963958
vn -0.806886 0.300451 0.508591
vn -0.031500 0.026333 0.999157
vn 0.747968 0.189022 0.636250
vn 0.774468 0.339511 0.533790
vn 0.059198 0.259384 0.963958
vn 0.747968 0.189022 0.636250
vn 0.956016 0.251772 -0.150478
vn 0.880737 0.440104 -0.174959
vn 0.774468 0.339511 0.533790
vn 0.880737 0.440104 -0.174959
vn 0.956016 0.251772 -0.150478
vn 0.024530 0.198836 -0.979726
vn -0.075650 0.320523 -0.944215
vn -0.075650 0.320523 -0.944215
vn -0.766600 0.311052 -0.561757
vn -0.708566 0.404156 -0.578439
vn -0.094440 0.402148 -0.910691
vn -0.708566 0.404156 -0.578439
vn -0.766600 0.311052 -0.561757
vn -0.806886 0.300451 0.508591
vn -0.727271 0.593406 0.344884
vn -0.806886 0.300451 0.508591
vn 0.059198 0.259384 0.963958
vn 0.081405 0.664445 0.742890
vn -0.727271 0.593406 0.344884
vn 0.059198 0.259384 0.963958
vn 0.774468 0.339511 0.533790
vn 0.662955 0.627029 0.409054
vn 0.081405 0.664445 0.742890
vn 0.774468 0.339511 0.533790
vn 0.880737 0.440104 -0.174959
vn 0.725089 0.666311 -0.173999
vn 0.662955 0.627029 0.409054
vn 0.725089 0.666311 -0.173999
vn 0.880737 0.440104 -0.174959
vn -0.075650 0.320523 -0.944215
vn -0.094440 0.402148 -0.910691
vn -0.237720 -0.970898 -0.029081
vn 0.049252 -0.981498 -0.185031
vn 0.000289 -0.999161 -0.040966
vn -0.250535 -0.952289 0.174292
vn -0.237720 -0.970898 -0.029081
vn 0.000289 -0.999161 -0.040966
vn -0.097863 -0.961952 0.255091
vn -0.250535 -0.952289 0.174292
vn 0.000289 -0.999161 -0.040966
vn 0.137932 -0.971434 0.193106
vn -0.097863 -0.961952 0.255091
vn 0.000289 -0.999161 -0.040966
vn 0.206344 -0.977614 -0.041143
vn 0.137932 -0.971434 0.193106
vn 0.000289 -0.999161 -0.040966
vn 0.049252 -0.981498 -0.185031
vn 0.206344 -0.977614 -0.041143
vn 0.000289 -0.999161 -0.040966
vn -0.094440 0.402148 -0.910691
vn -0.708566 0.404156 -0.578439
vn -0.069094 0.996225 -0.052563
vn -0.069094 0.996225 -0.052563
vn -0.708566 0.404156 -0.578439
vn -0.727271 0.593406 0.344884
vn -0.727271 0.593406 0.344884
vn 0.081405 0.664445 0.742890
vn -0.069094 0.996225 -0.052563
vn 0.081405 0.664445 0.742890
vn 0.662955 0.627029 0.409054
vn -0.069094 0.996225 -0.052563
vn 0.662955 0.627029 0.409054
vn 0.725089 0.666311 -0.173999
vn -0.069094 0.996225 -0.052563
vn -0.069094 0.996225 -0.052563
vn 0.725089 0.666311 -0.173999
vn -0.094440 0.402148 -0.910691
s off
g Rock_low_1:polySurface16
usemtl initialShadingGroup
f 2/1/1 8/2/2 7/3/3 1/4/4
f 8/2/5 2/1/6 3/5/7 9/6/8
f 4/7/9 10/8/10 9/6/11 3/5/12
f 5/9/13 11/10/14 10/8/15 4/7/16
f 6/11/17 12/12/18 11/10/19 5/9/20
f 12/12/21 6/11/22 1/4/23 7/3/24
f 7/13/25 8/14/26 14/15/27 13/16/28
f 14/15/29 8/14/30 9/17/31 15/18/32
f 9/17/33 10/19/34 16/20/35 15/18/36
f 10/19/37 11/21/38 17/22/39 16/20/40
f 11/21/41 12/23/42 18/24/43 17/22/44
f 18/24/45 12/23/46 7/13/47 13/16/48
f 13/16/49 14/15/50 20/25/51 19/26/52
f 20/25/53 14/15/54 15/18/55 21/27/56
f 15/18/57 16/20/58 22/28/59 21/27/60
f 16/20/61 17/22/62 23/29/63 22/28/64
f 17/22/65 18/24/66 24/30/67 23/29/68
f 24/30/69 18/24/70 13/16/71 19/26/72
f 19/26/73 20/25/74 26/31/75 25/32/76
f 26/31/77 20/25/78 21/27/79 27/33/80
f 21/27/81 22/28/82 28/34/83 27/33/84
f 22/28/85 23/29/86 29/35/87 28/34/88
f 23/29/89 24/30/90 30/36/91 29/35/92
f 30/36/93 24/30/94 19/26/95 25/32/96
f 25/32/97 26/31/98 32/37/99 31/38/100
f 32/37/101 26/31/102 27/33/103 33/39/104
f 27/33/105 28/34/106 34/40/107 33/39/108
f 28/34/109 29/35/110 35/41/111 34/40/112
f 29/35/113 30/36/114 36/42/115 35/41/116
f 36/42/117 30/36/118 25/32/119 31/38/120
f 2/1/121 1/4/122 37/43/123
f 3/5/124 2/1/125 37/43/126
f 4/7/127 3/5/128 37/43/129
f 5/9/130 4/7/131 37/43/132
f 6/11/133 5/9/134 37/43/135
f 1/4/136 6/11/137 37/43/138
f 31/38/139 32/37/140 38/44/141
f 38/44/142 32/37/143 33/39/144
f 33/39/145 34/40/146 38/44/147
f 34/40/148 35/41/149 38/44/150
f 35/41/151 36/42/152 38/44/153
f 38/44/154 36/42/155 31/38/156
