# This file uses centimeters as units for non-parametric coordinates.

mtllib Stick_low.mtl
g default
v 0.042316 -0.029032 0.616484
v 0.003071 -0.044369 0.616484
v -0.036173 -0.029032 0.616484
v -0.052429 0.007996 0.616484
v -0.036173 0.045024 0.616484
v 0.003071 0.060362 0.616484
v 0.042316 0.045024 0.616484
v 0.058571 0.007996 0.616484
v 0.047240 -0.029032 0.520178
v 0.007996 -0.044369 0.520178
v -0.031249 -0.029032 0.520178
v -0.047505 0.007996 0.520178
v -0.031249 0.045024 0.520178
v 0.007996 0.060362 0.520178
v 0.047240 0.045024 0.520178
v 0.063496 0.007996 0.520178
v 0.003071 0.007996 0.616484
v 0.058731 -0.029032 0.425586
v 0.019486 -0.044369 0.425586
v -0.019759 -0.029032 0.425586
v -0.036014 0.007996 0.425586
v -0.019759 0.045024 0.425586
v 0.019486 0.060362 0.425586
v 0.058731 0.045024 0.425586
v 0.074986 0.007996 0.425586
v 0.029184 -0.029032 0.238439
v -0.010061 -0.044369 0.238439
v -0.049305 -0.029032 0.238439
v -0.065561 0.007996 0.238439
v -0.049305 0.045024 0.238439
v -0.010061 0.060362 0.238439
v 0.029184 0.045024 0.238439
v 0.045439 0.007996 0.238439
v 0.058221 -0.032546 0.048099
v 0.021458 -0.049339 0.048099
v -0.015304 -0.032546 0.048099
v -0.030532 0.007996 0.048099
v -0.015304 0.048539 0.048099
v 0.021458 0.065332 0.048099
v 0.058221 0.048539 0.048099
v 0.073448 0.007996 0.048099
v 0.062843 -0.031195 -0.109912
v 0.023280 -0.046646 -0.099071
v -0.017217 -0.030087 -0.092511
v -0.034927 0.008780 -0.094073
v -0.019474 0.047188 -0.102843
v 0.020088 0.062638 -0.113683
v 0.060586 0.046080 -0.120243
v 0.026167 -0.031195 -0.158733
v -0.013395 -0.046646 -0.147893
v -0.053893 -0.030087 -0.141332
v -0.071602 0.008780 -0.142894
v -0.056150 0.047188 -0.151664
v -0.016587 0.062638 -0.162505
v 0.023910 0.046080 -0.169064
v 0.041620 0.007213 -0.167503
v -0.040512 -0.027936 -0.344972
v -0.073308 -0.041076 -0.330582
v -0.105639 -0.025470 -0.317351
v -0.118566 0.009740 -0.313031
v -0.104517 0.043928 -0.320153
v -0.071722 0.057068 -0.334545
v -0.039391 0.041462 -0.347774
v -0.026464 0.006253 -0.352094
v -0.133173 -0.027936 -0.393141
v -0.165968 -0.041076 -0.378749
v -0.198299 -0.025470 -0.365520
v -0.211226 0.009740 -0.361200
v -0.197178 0.043928 -0.368321
v -0.164382 0.057068 -0.382712
v -0.132051 0.041462 -0.395942
v -0.119124 0.006253 -0.400262
v -0.172720 -0.003483 -0.626987
v -0.184762 -0.007649 -0.626562
v -0.196384 -0.002650 -0.625768
v -0.200778 0.008586 -0.625076
v -0.195362 0.019475 -0.624859
v -0.183321 0.023642 -0.625284
v -0.171698 0.018643 -0.626077
v -0.167305 0.007406 -0.626770
v 0.031864 -0.031195 -0.151151
v 0.047316 0.007213 -0.159920
v 0.029606 0.046080 -0.161482
v -0.010891 0.062638 -0.154922
v -0.050454 0.047188 -0.144082
v -0.065906 0.008780 -0.135312
v -0.048197 -0.030087 -0.133750
v -0.007699 -0.046646 -0.140311
v 0.068807 -0.032717 -0.090941
v 0.085532 0.007483 -0.096682
v 0.067329 0.047984 -0.097705
v 0.024860 0.065060 -0.093409
v -0.016997 0.048709 -0.086312
v -0.033722 0.008509 -0.080570
v -0.015519 -0.031991 -0.079548
v 0.026950 -0.049067 -0.083843
v 0.104840 0.036826 -0.157902
v 0.094764 0.007314 -0.188029
v 0.081317 0.036826 -0.189215
v 0.106554 -0.021850 -0.150057
v 0.083030 -0.021850 -0.181371
v 0.111082 -0.023005 -0.135653
v 0.123782 0.007519 -0.140012
v 0.109960 0.038272 -0.140788
v 0.120458 0.033868 -0.187365
v 0.091968 0.008537 -0.204548
v 0.083324 0.035774 -0.200651
v 0.122830 -0.018727 -0.180763
v 0.085695 -0.016822 -0.194049
v 0.135233 -0.020227 -0.172024
v 0.143766 0.006255 -0.181270
v 0.135190 0.034619 -0.176951
v 0.158216 0.021161 -0.343634
v 0.162651 0.007187 -0.345632
v 0.143599 0.008165 -0.352449
v 0.139165 0.022138 -0.350449
v 0.159433 -0.005822 -0.340246
v 0.140381 -0.004845 -0.347063
v 0.165796 -0.006592 -0.335763
v 0.170173 0.006994 -0.340506
v 0.165774 0.021546 -0.338291
v 0.051506 -0.029032 0.379824
v 0.067761 0.007996 0.379824
v 0.051506 0.045024 0.379824
v 0.012261 0.060362 0.379824
v -0.026983 0.045024 0.379824
v -0.026983 -0.029032 0.379824
v 0.012261 -0.044369 0.379824
v 0.056086 -0.029032 0.408838
v 0.072342 0.007996 0.408838
v 0.056086 0.045024 0.408838
v 0.016842 0.060362 0.408838
v -0.022403 0.045024 0.408838
v -0.038658 0.007996 0.408838
v -0.022403 -0.029032 0.408838
v 0.016842 -0.044369 0.408838
v 0.047908 -0.029032 0.357034
v 0.064163 0.007996 0.357034
v 0.047908 0.045024 0.357034
v 0.008663 0.060362 0.357034
v -0.030581 0.045024 0.357034
v -0.046837 0.007996 0.357034
v -0.030581 -0.029032 0.357034
v 0.008663 -0.044369 0.357034
v -0.084983 0.045024 0.360792
v -0.088581 0.045024 0.338003
v -0.104836 0.007996 0.338003
v -0.084983 -0.029032 0.360792
v -0.088581 -0.029032 0.338003
v -0.080402 0.045024 0.389806
v -0.096658 0.007996 0.389806
v -0.080402 -0.029032 0.389806
v -0.142933 0.030839 0.319914
v -0.152961 0.007996 0.319914
v -0.145153 0.030839 0.305855
v -0.155181 0.007996 0.305855
v -0.142933 -0.014846 0.319914
v -0.145153 -0.014846 0.305855
v -0.140107 0.030839 0.337812
v -0.150135 0.007996 0.337812
v -0.140107 -0.014846 0.337812
v -0.184041 0.007996 -0.625923
vt 0.827758 0.971443
vt 0.810515 0.960688
vt 0.832758 0.883619
vt 0.858912 0.889850
vt 0.795035 0.954332
vt 0.806444 0.879475
vt 0.780994 0.952763
vt 0.781693 0.877887
vt 0.766927 0.954068
vt 0.756915 0.879017
vt 0.751332 0.960136
vt 0.730528 0.882674
vt 0.733890 0.970569
vt 0.704263 0.888419
vt 0.717247 0.987405
vt 0.680073 0.894431
vt 0.844083 0.988587
vt 0.882986 0.896309
vt 0.780665 0.987899
vt 0.839054 0.802228
vt 0.867009 0.805211
vt 0.810067 0.799818
vt 0.782420 0.798879
vt 0.754761 0.799312
vt 0.725734 0.801191
vt 0.697730 0.803662
vt 0.672371 0.805803
vt 0.892323 0.807818
vt 0.838090 0.787460
vt 0.866284 0.790363
vt 0.809320 0.785023
vt 0.782552 0.784538
vt 0.755778 0.784535
vt 0.726969 0.786445
vt 0.698726 0.788832
vt 0.672982 0.790200
vt 0.891999 0.792201
vt 0.862784 0.636800
vt 0.835562 0.636499
vt 0.840227 0.468345
vt 0.866754 0.467534
vt 0.808719 0.636402
vt 0.813463 0.469321
vt 0.783888 0.636327
vt 0.785359 0.469530
vt 0.759059 0.635959
vt 0.757291 0.468819
vt 0.732219 0.635576
vt 0.730561 0.467383
vt 0.704997 0.635390
vt 0.704063 0.466136
vt 0.679449 0.635350
vt 0.676667 0.466086
vt 0.888326 0.637217
vt 0.894150 0.468024
vt 0.843765 0.352435
vt 0.873076 0.345993
vt 0.814035 0.356365
vt 0.786360 0.355092
vt 0.759221 0.349661
vt 0.730094 0.342907
vt 0.700285 0.338526
vt 0.672190 0.339499
vt 0.900739 0.341687
vt 0.964890 0.336383
vt 0.965866 0.361321
vt 0.926391 0.372933
vt 0.918104 0.345289
vt 0.965182 0.388232
vt 0.927895 0.400496
vt 0.965488 0.413199
vt 0.930545 0.425877
vt 0.911047 0.182193
vt 0.920131 0.206546
vt 0.881795 0.217520
vt 0.875862 0.194326
vt 0.931082 0.232013
vt 0.891288 0.241490
vt 0.945110 0.253078
vt 0.898484 0.266916
vt 0.937017 0.287386
vt 0.938413 0.296340
vt 0.928847 0.295721
vt 0.927095 0.290015
vt 0.938417 0.305618
vt 0.930908 0.300698
vt 0.788897 0.279268
vt 0.787379 0.182486
vt 0.802810 0.179348
vt 0.805996 0.277354
vt 0.772067 0.278751
vt 0.770942 0.184857
vt 0.756708 0.276385
vt 0.754581 0.185971
vt 0.741363 0.273932
vt 0.738109 0.184519
vt 0.724448 0.272909
vt 0.721594 0.182281
vt 0.707295 0.273884
vt 0.706163 0.180220
vt 0.691522 0.275701
vt 0.692209 0.178178
vt 0.816622 0.175716
vt 0.821654 0.273376
vt 0.778176 0.145769
vt 0.790574 0.140174
vt 0.765945 0.148975
vt 0.753839 0.149503
vt 0.741796 0.148380
vt 0.729600 0.144924
vt 0.716917 0.140154
vt 0.703841 0.135519
vt 0.803111 0.133991
vt 0.760363 0.023178
vt 0.764314 0.021245
vt 0.756309 0.024598
vt 0.752368 0.025197
vt 0.748410 0.024876
vt 0.744306 0.023615
vt 0.740356 0.021603
vt 0.737072 0.018743
vt 0.767737 0.018807
vt 0.822541 0.277730
vt 0.807020 0.281738
vt 0.706478 0.278315
vt 0.690817 0.280128
vt 0.723527 0.277281
vt 0.740742 0.278379
vt 0.756765 0.280822
vt 0.772803 0.283126
vt 0.789964 0.283603
vt 0.942344 0.297701
vt 0.942046 0.305202
vt 0.940912 0.289744
vt 0.947412 0.224031
vt 0.966318 0.253700
vt 0.931547 0.198715
vt 0.919397 0.175240
vt 0.975939 0.388568
vt 0.975849 0.412628
vt 0.978763 0.361886
vt 0.981966 0.330200
vt 0.892613 0.310749
vt 0.908663 0.285139
vt 0.906825 0.303933
vt 0.937419 0.273558
vt 0.916056 0.318738
vt 0.946454 0.319050
vt 0.983542 0.291335
vt 0.957092 0.314121
vt 0.956859 0.295092
vt 0.950093 0.275920
vt 0.909622 0.286501
vt 0.910300 0.301582
vt 0.932102 0.279450
vt 0.914733 0.314545
vt 0.938331 0.314059
vt 0.947087 0.313164
vt 0.947257 0.297658
vt 0.941890 0.281749
vt 0.891066 0.765739
vt 0.865227 0.764530
vt 0.864653 0.744192
vt 0.890362 0.745089
vt 0.700254 0.763029
vt 0.674397 0.763769
vt 0.675476 0.743143
vt 0.701196 0.742710
vt 0.728524 0.760822
vt 0.729034 0.740679
vt 0.757551 0.758794
vt 0.756991 0.738384
vt 0.975332 0.952634
vt 0.961973 0.948465
vt 0.966718 0.941933
vt 0.978797 0.937664
vt 0.976713 0.917780
vt 0.988317 0.925602
vt 0.974580 0.925566
vt 0.837002 0.761808
vt 0.808017 0.759253
vt 0.808946 0.738855
vt 0.836857 0.741657
vt 0.964840 0.966740
vt 0.953653 0.957376
vt 0.978469 0.905716
vt 0.992771 0.908596
vt 0.782985 0.736794
vt 0.880148 0.941062
vt 0.893698 0.925880
vt 0.929037 0.937273
vt 0.916708 0.949471
vt 0.910644 0.904922
vt 0.943641 0.920775
vt 0.916412 0.878594
vt 0.947392 0.899062
vt 0.919797 0.858524
vt 0.949209 0.881813
vt 0.873544 0.985078
vt 0.865692 0.961618
vt 0.901751 0.965692
vt 0.913653 0.986021
vt 0.926818 0.834391
vt 0.950044 0.825867
vt 0.975836 0.856592
vt 0.952526 0.860000
vt 0.752359 0.018616
vn 0.661877 -0.711451 0.236128
vn -0.009275 -0.979889 0.199326
vn -0.006335 -0.999979 -0.001105
vn 0.681657 -0.729320 0.058614
vn -0.009275 -0.979889 0.199326
vn -0.680977 -0.711504 0.173301
vn -0.688513 -0.722804 -0.059203
vn -0.006335 -0.999979 -0.001105
vn -0.680977 -0.711504 0.173301
vn -0.986314 0.000000 0.164876
vn -0.996374 0.000000 -0.085080
vn -0.688513 -0.722804 -0.059203
vn -0.986314 0.000000 0.164876
vn -0.680976 0.711504 0.173301
vn -0.688513 0.722804 -0.059203
vn -0.996374 0.000000 -0.085080
vn -0.680976 0.711504 0.173301
vn -0.009275 0.979889 0.199326
vn -0.006335 0.999979 -0.001105
vn -0.688513 0.722804 -0.059203
vn -0.009275 0.979889 0.199326
vn 0.661877 0.711451 0.236128
vn 0.681657 0.729320 0.058614
vn -0.006335 0.999979 -0.001105
vn 0.661877 0.711451 0.236128
vn 0.966612 0.000000 0.256244
vn 0.996273 0.000000 0.086255
vn 0.681657 0.729320 0.058614
vn 0.966612 0.000000 0.256244
vn 0.661877 -0.711451 0.236128
vn 0.681657 -0.729320 0.058614
vn 0.996273 0.000000 0.086255
vn -0.009275 -0.979889 0.199326
vn 0.661877 -0.711451 0.236128
vn 0.000000 0.000000 1.000000
vn -0.680977 -0.711504 0.173301
vn -0.009275 -0.979889 0.199326
vn 0.000000 0.000000 1.000000
vn -0.986314 0.000000 0.164876
vn -0.680977 -0.711504 0.173301
vn 0.000000 0.000000 1.000000
vn -0.680976 0.711504 0.173301
vn -0.986314 0.000000 0.164876
vn 0.000000 0.000000 1.000000
vn -0.009275 0.979889 0.199326
vn -0.680976 0.711504 0.173301
vn 0.000000 0.000000 1.000000
vn 0.661877 0.711451 0.236128
vn -0.009275 0.979889 0.199326
vn 0.000000 0.000000 1.000000
vn 0.966612 0.000000 0.256244
vn 0.661877 0.711451 0.236128
vn 0.000000 0.000000 1.000000
vn 0.661877 -0.711451 0.236128
vn 0.966612 0.000000 0.256244
vn 0.000000 0.000000 1.000000
vn 0.681657 -0.729320 0.058614
vn -0.006335 -0.999979 -0.001105
vn 0.023416 -0.999725 0.001623
vn 0.698062 -0.713886 0.055464
vn -0.006335 -0.999979 -0.001105
vn -0.688513 -0.722804 -0.059203
vn -0.672695 -0.737987 -0.053448
vn 0.023416 -0.999725 0.001623
vn -0.688513 -0.722804 -0.059203
vn -0.996374 0.000000 -0.085080
vn -0.996878 0.000000 -0.078962
vn -0.672695 -0.737987 -0.053448
vn -0.996374 0.000000 -0.085080
vn -0.688513 0.722804 -0.059203
vn -0.672695 0.737987 -0.053448
vn -0.996878 0.000000 -0.078962
vn -0.688513 0.722804 -0.059203
vn -0.006335 0.999979 -0.001105
vn 0.023416 0.999725 0.001623
vn -0.672695 0.737987 -0.053448
vn -0.006335 0.999979 -0.001105
vn 0.681657 0.729320 0.058614
vn 0.698062 0.713886 0.055464
vn 0.023416 0.999725 0.001623
vn 0.681657 0.729320 0.058614
vn 0.996273 0.000000 0.086255
vn 0.996838 0.000000 0.079458
vn 0.698062 0.713886 0.055464
vn 0.996273 0.000000 0.086255
vn 0.681657 -0.729320 0.058614
vn 0.698062 -0.713886 0.055464
vn 0.996838 0.000000 0.079458
vn 0.698062 -0.713886 0.055464
vn 0.023416 -0.999725 0.001623
vn 0.007793 -0.999969 -0.001230
vn 0.686453 -0.719053 -0.108378
vn 0.023416 -0.999725 0.001623
vn -0.672695 -0.737987 -0.053448
vn -0.437448 -0.789611 0.430294
vn 0.007793 -0.999969 -0.001230
vn -0.672695 -0.737987 -0.053448
vn -0.996878 0.000000 -0.078962
vn -0.472624 0.000000 0.881264
vn -0.437448 -0.789611 0.430294
vn -0.996878 0.000000 -0.078962
vn -0.672695 0.737987 -0.053448
vn -0.437448 0.789612 0.430294
vn -0.472624 0.000000 0.881264
vn -0.672695 0.737987 -0.053448
vn 0.023416 0.999725 0.001623
vn 0.007793 0.999969 -0.001230
vn -0.437448 0.789612 0.430294
vn 0.023416 0.999725 0.001623
vn 0.698062 0.713886 0.055464
vn 0.686453 0.719052 -0.108378
vn 0.007793 0.999969 -0.001230
vn 0.698062 0.713886 0.055464
vn 0.996838 0.000000 0.079458
vn 0.987765 0.000000 -0.155949
vn 0.686453 0.719052 -0.108378
vn 0.996838 0.000000 0.079458
vn 0.698062 -0.713886 0.055464
vn 0.686453 -0.719053 -0.108378
vn 0.987765 0.000000 -0.155949
vn 0.689527 -0.723465 0.033919
vn -0.031318 -0.999456 0.010385
vn 0.017143 -0.999707 0.017096
vn 0.720593 -0.687181 0.092350
vn -0.031318 -0.999456 0.010385
vn -0.721395 -0.691823 -0.031140
vn -0.701201 -0.709968 -0.065291
vn 0.017143 -0.999707 0.017096
vn -0.721395 -0.691823 -0.031140
vn -0.998648 0.000000 -0.051988
vn -0.995180 -0.001607 -0.098049
vn -0.701201 -0.709968 -0.065291
vn -0.998648 0.000000 -0.051988
vn -0.721395 0.691823 -0.031140
vn -0.700354 0.711187 -0.060967
vn -0.995180 -0.001607 -0.098049
vn -0.721395 0.691823 -0.031140
vn -0.031318 0.999456 0.010385
vn 0.021882 0.999618 0.016875
vn -0.700354 0.711187 -0.060967
vn -0.031318 0.999456 0.010385
vn 0.689527 0.723465 0.033919
vn 0.716317 0.692347 0.086865
vn 0.021882 0.999618 0.016875
vn 0.689527 0.723465 0.033919
vn 0.999306 0.000000 0.037252
vn 0.992998 0.007990 0.117857
vn 0.716317 0.692347 0.086865
vn 0.999306 0.000000 0.037252
vn 0.689527 -0.723465 0.033919
vn 0.720593 -0.687181 0.092350
vn 0.992998 0.007990 0.117857
vn 0.017143 -0.999707 0.017096
vn 0.048525 -0.998789 -0.008115
vn 0.744719 -0.659305 0.103495
vn 0.720593 -0.687181 0.092350
vn -0.701201 -0.709968 -0.065291
vn -0.701304 -0.712861 -0.001338
vn 0.048525 -0.998789 -0.008115
vn 0.017143 -0.999707 0.017096
vn -0.995180 -0.001607 -0.098049
vn -0.999600 0.017215 0.022457
vn -0.701304 -0.712861 -0.001338
vn -0.701201 -0.709968 -0.065291
vn -0.700354 0.711187 -0.060967
vn -0.677141 0.735790 0.009662
vn -0.999600 0.017215 0.022457
vn -0.995180 -0.001607 -0.098049
vn 0.021882 0.999618 0.016875
vn 0.055840 0.998388 -0.010169
vn -0.677141 0.735790 0.009662
vn -0.700354 0.711187 -0.060967
vn 0.716317 0.692347 0.086865
vn 0.705755 0.702087 0.094782
vn 0.055840 0.998388 -0.010169
vn 0.021882 0.999618 0.016875
vn 0.992998 0.007990 0.117857
vn 0.962935 0.048141 0.265404
vn 0.705755 0.702087 0.094782
vn 0.716317 0.692347 0.086865
vn 0.720593 -0.687181 0.092350
vn 0.744719 -0.659305 0.103495
vn 0.962935 0.048141 0.265404
vn 0.992998 0.007990 0.117857
vn 0.199298 -0.968164 -0.151457
vn 0.038762 -0.996941 -0.067874
vn -0.050087 -0.998036 0.037626
vn 0.146091 -0.924514 -0.352038
vn 0.038762 -0.996941 -0.067874
vn -0.597741 -0.733786 0.322900
vn -0.623929 -0.625322 0.468706
vn -0.050087 -0.998036 0.037626
vn -0.597741 -0.733786 0.322900
vn -0.863965 0.032928 0.502475
vn -0.796853 0.081784 0.598612
vn -0.623929 -0.625322 0.468706
vn -0.863965 0.032928 0.502475
vn -0.573355 0.755240 0.317611
vn -0.564450 0.708237 0.424025
vn -0.796853 0.081784 0.598612
vn -0.573355 0.755240 0.317611
vn 0.058615 0.995625 -0.072773
vn -0.028150 0.999380 0.021147
vn -0.564450 0.708237 0.424025
vn 0.058615 0.995625 -0.072773
vn 0.211334 0.965016 -0.155181
vn 0.164883 0.892897 -0.418986
vn -0.028150 0.999380 0.021147
vn 0.084963 0.988774 -0.122916
vn 0.406010 -0.100917 -0.908279
vn -0.892582 -0.109427 -0.437406
vn -0.637836 0.686617 -0.348888
vn 0.406010 -0.100917 -0.908279
vn -0.003820 -0.990893 -0.134600
vn -0.641433 -0.692777 -0.329580
vn -0.892582 -0.109427 -0.437406
vn -0.027455 -0.999420 -0.020137
vn 0.032337 -0.997882 -0.056449
vn 0.599837 -0.689737 -0.405535
vn 0.612897 -0.751609 -0.243804
vn -0.661116 -0.725498 0.191253
vn -0.581734 -0.733491 0.351535
vn 0.032337 -0.997882 -0.056449
vn -0.027455 -0.999420 -0.020137
vn -0.958047 -0.023145 0.285675
vn -0.842426 0.032356 0.537839
vn -0.581734 -0.733491 0.351535
vn -0.661116 -0.725498 0.191253
vn -0.672463 0.714621 0.192641
vn -0.540698 0.773261 0.331230
vn -0.842426 0.032356 0.537839
vn -0.958047 -0.023145 0.285675
vn 0.014938 0.999232 -0.036217
vn 0.078241 0.992602 -0.092846
vn -0.540698 0.773261 0.331230
vn -0.672463 0.714621 0.192641
vn 0.681873 0.680360 -0.268626
vn 0.626430 0.645954 -0.436266
vn 0.078241 0.992602 -0.092846
vn 0.014938 0.999232 -0.036217
vn 0.931479 -0.064199 -0.358086
vn 0.835065 -0.028603 -0.549407
vn 0.626430 0.645954 -0.436266
vn 0.681873 0.680360 -0.268626
vn 0.612897 -0.751609 -0.243804
vn 0.599837 -0.689737 -0.405535
vn 0.835065 -0.028603 -0.549407
vn 0.931479 -0.064199 -0.358086
vn 0.599837 -0.689737 -0.405535
vn 0.032337 -0.997882 -0.056449
vn -0.154882 -0.987815 -0.015262
vn 0.502373 -0.784691 -0.363154
vn 0.032337 -0.997882 -0.056449
vn -0.581734 -0.733491 0.351535
vn -0.721390 -0.638906 0.267201
vn -0.154882 -0.987815 -0.015262
vn -0.581734 -0.733491 0.351535
vn -0.842426 0.032356 0.537839
vn -0.932531 0.027220 0.360064
vn -0.721390 -0.638906 0.267201
vn -0.842426 0.032356 0.537839
vn -0.540698 0.773261 0.331230
vn -0.689027 0.683052 0.242244
vn -0.932531 0.027220 0.360064
vn -0.540698 0.773261 0.331230
vn 0.078241 0.992602 -0.092846
vn -0.094000 0.994391 -0.048485
vn -0.689027 0.683052 0.242244
vn 0.078241 0.992602 -0.092846
vn 0.626430 0.645954 -0.436266
vn 0.559806 0.732548 -0.387286
vn -0.094000 0.994391 -0.048485
vn 0.626430 0.645954 -0.436266
vn 0.835065 -0.028603 -0.549407
vn 0.840597 -0.044329 -0.539844
vn 0.559806 0.732548 -0.387286
vn 0.835065 -0.028603 -0.549407
vn 0.599837 -0.689737 -0.405535
vn 0.502373 -0.784691 -0.363154
vn 0.840597 -0.044329 -0.539844
vn -0.154882 -0.987815 -0.015262
vn -0.083321 -0.988557 -0.125752
vn 0.642110 -0.743816 -0.185561
vn 0.502373 -0.784691 -0.363154
vn -0.721390 -0.638906 0.267201
vn -0.743302 -0.665815 -0.064752
vn -0.083321 -0.988557 -0.125752
vn -0.154882 -0.987815 -0.015262
vn -0.932531 0.027220 0.360064
vn -0.999090 0.009888 -0.041487
vn -0.743302 -0.665815 -0.064752
vn -0.721390 -0.638906 0.267201
vn -0.689027 0.683052 0.242244
vn -0.716588 0.693858 -0.071155
vn -0.999090 0.009888 -0.041487
vn -0.932531 0.027220 0.360064
vn -0.094000 0.994391 -0.048485
vn -0.010928 0.990917 -0.134033
vn -0.716588 0.693858 -0.071155
vn -0.689027 0.683052 0.242244
vn 0.559806 0.732548 -0.387286
vn 0.703115 0.685552 -0.188805
vn -0.010928 0.990917 -0.134033
vn -0.094000 0.994391 -0.048485
vn 0.840597 -0.044329 -0.539844
vn 0.977090 -0.040634 -0.208914
vn 0.703115 0.685552 -0.188805
vn 0.559806 0.732548 -0.387286
vn 0.502373 -0.784691 -0.363154
vn 0.642110 -0.743816 -0.185561
vn 0.977090 -0.040634 -0.208914
vn 0.840597 -0.044329 -0.539844
vn -0.377765 -0.133977 -0.916157
vn 0.146091 -0.924514 -0.352038
vn 0.612897 -0.751609 -0.243804
vn 0.931479 -0.064199 -0.358086
vn 0.164883 0.892897 -0.418986
vn -0.377765 -0.133977 -0.916157
vn 0.931479 -0.064199 -0.358086
vn 0.681873 0.680360 -0.268626
vn -0.028150 0.999380 0.021147
vn 0.164883 0.892897 -0.418986
vn 0.681873 0.680360 -0.268626
vn 0.014938 0.999232 -0.036217
vn -0.564450 0.708237 0.424025
vn -0.028150 0.999380 0.021147
vn 0.014938 0.999232 -0.036217
vn -0.672463 0.714621 0.192641
vn -0.796853 0.081784 0.598612
vn -0.564450 0.708237 0.424025
vn -0.672463 0.714621 0.192641
vn -0.958047 -0.023145 0.285675
vn -0.623929 -0.625322 0.468706
vn -0.796853 0.081784 0.598612
vn -0.958047 -0.023145 0.285675
vn -0.661116 -0.725498 0.191253
vn -0.050087 -0.998036 0.037626
vn -0.623929 -0.625322 0.468706
vn -0.661116 -0.725498 0.191253
vn -0.027455 -0.999420 -0.020137
vn 0.146091 -0.924514 -0.352038
vn -0.050087 -0.998036 0.037626
vn -0.027455 -0.999420 -0.020137
vn 0.612897 -0.751609 -0.243804
vn 0.991601 0.033527 0.124910
vn 0.755497 -0.651455 0.069504
vn -0.003820 -0.990893 -0.134600
vn 0.406010 -0.100917 -0.908279
vn 0.721436 0.689940 0.059278
vn 0.991601 0.033527 0.124910
vn 0.406010 -0.100917 -0.908279
vn 0.084963 0.988774 -0.122916
vn 0.055840 0.998388 -0.010169
vn 0.705755 0.702087 0.094782
vn 0.211334 0.965016 -0.155181
vn 0.058615 0.995625 -0.072773
vn -0.677141 0.735790 0.009662
vn 0.055840 0.998388 -0.010169
vn 0.058615 0.995625 -0.072773
vn -0.573355 0.755240 0.317611
vn -0.999600 0.017215 0.022457
vn -0.677141 0.735790 0.009662
vn -0.573355 0.755240 0.317611
vn -0.863965 0.032928 0.502475
vn -0.701304 -0.712861 -0.001338
vn -0.999600 0.017215 0.022457
vn -0.863965 0.032928 0.502475
vn -0.597741 -0.733786 0.322900
vn 0.048525 -0.998789 -0.008115
vn -0.701304 -0.712861 -0.001338
vn -0.597741 -0.733786 0.322900
vn 0.038762 -0.996941 -0.067874
vn 0.744719 -0.659305 0.103495
vn 0.048525 -0.998789 -0.008115
vn 0.038762 -0.996941 -0.067874
vn 0.199298 -0.968164 -0.151457
vn -0.377765 -0.133977 -0.916157
vn 0.164883 0.892897 -0.418986
vn -0.293239 0.748254 -0.595085
vn -0.675391 -0.114895 -0.728455
vn 0.164883 0.892897 -0.418986
vn 0.211334 0.965016 -0.155181
vn 0.098897 0.990657 -0.093904
vn -0.293239 0.748254 -0.595085
vn 0.199298 -0.968164 -0.151457
vn 0.146091 -0.924514 -0.352038
vn -0.235466 -0.795482 -0.558359
vn 0.095359 -0.990110 -0.102906
vn 0.146091 -0.924514 -0.352038
vn -0.377765 -0.133977 -0.916157
vn -0.675391 -0.114895 -0.728455
vn -0.235466 -0.795482 -0.558359
vn 0.962935 0.048141 0.265404
vn 0.744719 -0.659305 0.103495
vn 0.689354 -0.545328 0.476874
vn 0.808429 0.065406 0.584948
vn 0.744719 -0.659305 0.103495
vn 0.199298 -0.968164 -0.151457
vn 0.095359 -0.990110 -0.102906
vn 0.689354 -0.545328 0.476874
vn 0.705755 0.702087 0.094782
vn 0.962935 0.048141 0.265404
vn 0.808429 0.065406 0.584948
vn 0.637022 0.645555 0.421261
vn 0.211334 0.965016 -0.155181
vn 0.705755 0.702087 0.094782
vn 0.637022 0.645555 0.421261
vn 0.098897 0.990657 -0.093904
vn -0.675391 -0.114895 -0.728455
vn -0.293239 0.748254 -0.595085
vn -0.436004 0.874442 -0.212723
vn -0.950801 -0.073906 -0.300856
vn -0.293239 0.748254 -0.595085
vn 0.098897 0.990657 -0.093904
vn 0.047880 0.996366 -0.070442
vn -0.436004 0.874442 -0.212723
vn 0.095359 -0.990110 -0.102906
vn -0.235466 -0.795482 -0.558359
vn -0.393049 -0.900437 -0.186349
vn -0.019384 -0.995198 -0.095944
vn -0.235466 -0.795482 -0.558359
vn -0.675391 -0.114895 -0.728455
vn -0.950801 -0.073906 -0.300856
vn -0.393049 -0.900437 -0.186349
vn 0.808429 0.065406 0.584948
vn 0.689354 -0.545328 0.476874
vn 0.786990 -0.574658 0.224532
vn 0.972839 0.013752 0.231074
vn 0.689354 -0.545328 0.476874
vn 0.095359 -0.990110 -0.102906
vn -0.019384 -0.995198 -0.095944
vn 0.786990 -0.574658 0.224532
vn 0.637022 0.645555 0.421261
vn 0.808429 0.065406 0.584948
vn 0.972839 0.013752 0.231074
vn 0.777280 0.596455 0.200193
vn 0.098897 0.990657 -0.093904
vn 0.637022 0.645555 0.421261
vn 0.777280 0.596455 0.200193
vn 0.047880 0.996366 -0.070442
vn -0.950801 -0.073906 -0.300856
vn -0.436004 0.874442 -0.212723
vn -0.637836 0.686617 -0.348888
vn -0.892582 -0.109427 -0.437406
vn -0.436004 0.874442 -0.212723
vn 0.047880 0.996366 -0.070442
vn 0.084963 0.988774 -0.122916
vn -0.637836 0.686617 -0.348888
vn -0.019384 -0.995198 -0.095944
vn -0.393049 -0.900437 -0.186349
vn -0.641433 -0.692777 -0.329580
vn -0.003820 -0.990893 -0.134600
vn -0.393049 -0.900437 -0.186349
vn -0.950801 -0.073906 -0.300856
vn -0.892582 -0.109427 -0.437406
vn -0.641433 -0.692777 -0.329580
vn 0.972839 0.013752 0.231074
vn 0.786990 -0.574658 0.224532
vn 0.755497 -0.651455 0.069504
vn 0.991601 0.033527 0.124910
vn 0.786990 -0.574658 0.224532
vn -0.019384 -0.995198 -0.095944
vn -0.003820 -0.990893 -0.134600
vn 0.755497 -0.651455 0.069504
vn 0.777280 0.596455 0.200193
vn 0.972839 0.013752 0.231074
vn 0.991601 0.033527 0.124910
vn 0.721436 0.689940 0.059278
vn 0.047880 0.996366 -0.070442
vn 0.777280 0.596455 0.200193
vn 0.721436 0.689940 0.059278
vn 0.084963 0.988774 -0.122916
vn 0.987765 0.000000 -0.155949
vn 0.680409 -0.724916 -0.107423
vn 0.692891 -0.712696 -0.109394
vn 0.987765 0.000000 -0.155949
vn 0.680409 0.724916 -0.107423
vn 0.987765 0.000000 -0.155949
vn 0.987765 0.000000 -0.155949
vn 0.692891 0.712695 -0.109394
vn -0.003493 0.999994 0.000552
vn 0.680409 0.724916 -0.107423
vn 0.692891 0.712695 -0.109394
vn 0.019698 0.999801 -0.003110
vn -0.156266 0.987407 0.024671
vn -0.003493 0.999994 0.000552
vn 0.019698 0.999801 -0.003110
vn -0.548144 0.834455 -0.056778
vn -0.987765 0.000000 0.155949
vn -0.480828 0.873522 0.075913
vn 0.386172 0.045335 -0.921312
vn 0.370152 0.000000 -0.928971
vn -0.480829 -0.873522 0.075914
vn -0.987765 0.000000 0.155949
vn 0.370152 0.000000 -0.928971
vn 0.386172 -0.045335 -0.921312
vn -0.003494 -0.999994 0.000552
vn -0.156266 -0.987407 0.024671
vn -0.548144 -0.834455 -0.056778
vn 0.019698 -0.999801 -0.003110
vn 0.680409 -0.724916 -0.107423
vn -0.003494 -0.999994 0.000552
vn 0.019698 -0.999801 -0.003110
vn 0.692891 -0.712696 -0.109394
vn 0.987765 0.000000 -0.155949
vn 0.686453 -0.719053 -0.108378
vn 0.680409 -0.724916 -0.107423
vn 0.987765 0.000000 -0.155949
vn 0.686453 0.719052 -0.108378
vn 0.987765 0.000000 -0.155949
vn 0.987765 0.000000 -0.155949
vn 0.680409 0.724916 -0.107423
vn 0.007793 0.999969 -0.001230
vn 0.686453 0.719052 -0.108378
vn 0.680409 0.724916 -0.107423
vn -0.003493 0.999994 0.000552
vn -0.437448 0.789612 0.430294
vn 0.007793 0.999969 -0.001230
vn -0.003493 0.999994 0.000552
vn -0.156266 0.987407 0.024671
vn -0.774455 0.000000 0.632629
vn -0.619325 0.632639 0.464979
vn -0.480828 0.873522 0.075913
vn -0.987765 0.000000 0.155949
vn -0.619325 -0.632638 0.464979
vn -0.774455 0.000000 0.632629
vn -0.987765 0.000000 0.155949
vn -0.480829 -0.873522 0.075914
vn 0.007793 -0.999969 -0.001230
vn -0.437448 -0.789611 0.430294
vn -0.156266 -0.987407 0.024671
vn -0.003494 -0.999994 0.000552
vn 0.686453 -0.719053 -0.108378
vn 0.007793 -0.999969 -0.001230
vn -0.003494 -0.999994 0.000552
vn 0.680409 -0.724916 -0.107423
vn 0.987765 0.000000 -0.155949
vn 0.692891 -0.712696 -0.109394
vn 0.689527 -0.723465 0.033919
vn 0.999306 0.000000 0.037252
vn 0.692891 0.712695 -0.109394
vn 0.987765 0.000000 -0.155949
vn 0.999306 0.000000 0.037252
vn 0.689527 0.723465 0.033919
vn 0.019698 0.999801 -0.003110
vn 0.692891 0.712695 -0.109394
vn 0.689527 0.723465 0.033919
vn -0.031318 0.999456 0.010385
vn -0.548144 0.834455 -0.056778
vn 0.019698 0.999801 -0.003110
vn -0.031318 0.999456 0.010385
vn -0.721395 0.691823 -0.031140
vn -0.884678 0.000000 -0.466203
vn -0.548144 0.834455 -0.056778
vn -0.721395 0.691823 -0.031140
vn -0.998648 0.000000 -0.051988
vn -0.548144 -0.834455 -0.056778
vn -0.884678 0.000000 -0.466203
vn -0.998648 0.000000 -0.051988
vn -0.721395 -0.691823 -0.031140
vn 0.019698 -0.999801 -0.003110
vn -0.548144 -0.834455 -0.056778
vn -0.721395 -0.691823 -0.031140
vn -0.031318 -0.999456 0.010385
vn 0.692891 -0.712696 -0.109394
vn 0.019698 -0.999801 -0.003110
vn -0.031318 -0.999456 0.010385
vn 0.689527 -0.723465 0.033919
vn -0.156266 0.987407 0.024671
vn -0.548144 0.834455 -0.056778
vn 0.276669 0.384548 -0.880668
vn -0.124566 0.992016 0.019667
vn -0.548144 0.834455 -0.056778
vn -0.884678 0.000000 -0.466203
vn 0.439987 0.000000 -0.898004
vn 0.276669 0.384548 -0.880668
vn -0.884678 0.000000 -0.466203
vn -0.548144 -0.834455 -0.056778
vn 0.276669 -0.384548 -0.880668
vn 0.439987 0.000000 -0.898004
vn -0.548144 -0.834455 -0.056778
vn -0.156266 -0.987407 0.024671
vn -0.124566 -0.992016 0.019667
vn 0.276669 -0.384548 -0.880668
vn -0.472624 0.000000 0.881264
vn -0.437448 0.789612 0.430294
vn -0.381457 0.622228 0.683610
vn -0.555799 0.000000 0.831317
vn -0.437448 0.789612 0.430294
vn -0.156266 0.987407 0.024671
vn -0.124566 0.992016 0.019667
vn -0.381457 0.622228 0.683610
vn -0.437448 -0.789611 0.430294
vn -0.472624 0.000000 0.881264
vn -0.555799 0.000000 0.831317
vn -0.381458 -0.622228 0.683610
vn -0.156266 -0.987407 0.024671
vn -0.437448 -0.789611 0.430294
vn -0.381458 -0.622228 0.683610
vn -0.124566 -0.992016 0.019667
vn -0.124566 0.992016 0.019667
vn 0.276669 0.384548 -0.880668
vn 0.386172 0.045335 -0.921312
vn -0.480828 0.873522 0.075913
vn 0.276669 0.384548 -0.880668
vn 0.439987 0.000000 -0.898004
vn 0.370152 0.000000 -0.928971
vn 0.386172 0.045335 -0.921312
vn 0.439987 0.000000 -0.898004
vn 0.276669 -0.384548 -0.880668
vn 0.386172 -0.045335 -0.921312
vn 0.370152 0.000000 -0.928971
vn 0.276669 -0.384548 -0.880668
vn -0.124566 -0.992016 0.019667
vn -0.480829 -0.873522 0.075914
vn 0.386172 -0.045335 -0.921312
vn -0.555799 0.000000 0.831317
vn -0.381457 0.622228 0.683610
vn -0.619325 0.632639 0.464979
vn -0.774455 0.000000 0.632629
vn -0.381457 0.622228 0.683610
vn -0.124566 0.992016 0.019667
vn -0.480828 0.873522 0.075913
vn -0.619325 0.632639 0.464979
vn -0.381458 -0.622228 0.683610
vn -0.555799 0.000000 0.831317
vn -0.774455 0.000000 0.632629
vn -0.619325 -0.632638 0.464979
vn -0.124566 -0.992016 0.019667
vn -0.381458 -0.622228 0.683610
vn -0.619325 -0.632638 0.464979
vn -0.480829 -0.873522 0.075914
vn -0.048965 0.043259 -0.997863
vn -0.049423 0.043164 -0.997845
vn -0.049322 0.042676 -0.997871
vn -0.049423 0.043164 -0.997845
vn -0.048976 0.043256 -0.997863
vn -0.049514 0.043654 -0.997819
vn -0.049505 0.043647 -0.997820
vn -0.049423 0.043164 -0.997845
vn -0.048965 0.043259 -0.997863
vn -0.049423 0.043164 -0.997845
vn -0.049327 0.042680 -0.997870
vn -0.048976 0.043256 -0.997863
vn -0.049868 0.043065 -0.997827
vn -0.049423 0.043164 -0.997845
vn -0.049505 0.043647 -0.997820
vn -0.049322 0.042676 -0.997871
vn -0.049423 0.043164 -0.997845
vn -0.049871 0.043071 -0.997827
vn -0.049423 0.043164 -0.997845
vn -0.049514 0.043654 -0.997819
vn -0.049871 0.043071 -0.997827
vn -0.049868 0.043065 -0.997827
vn -0.049327 0.042680 -0.997870
vn -0.049423 0.043164 -0.997845
s off
g stick_low:pCylinder9
usemtl initialShadingGroup
f 1/1/1 2/2/2 10/3/3 9/4/4
f 2/2/5 3/5/6 11/6/7 10/3/8
f 3/5/9 4/7/10 12/8/11 11/6/12
f 4/7/13 5/9/14 13/10/15 12/8/16
f 5/9/17 6/11/18 14/12/19 13/10/20
f 6/11/21 7/13/22 15/14/23 14/12/24
f 7/13/25 8/15/26 16/16/27 15/14/28
f 8/17/29 1/1/30 9/4/31 16/18/32
f 2/2/33 1/1/34 17/19/35
f 3/5/36 2/2/37 17/19/38
f 4/7/39 3/5/40 17/19/41
f 5/9/42 4/7/43 17/19/44
f 6/11/45 5/9/46 17/19/47
f 7/13/48 6/11/49 17/19/50
f 8/15/51 7/13/52 17/19/53
f 1/1/54 8/17/55 17/19/56
f 9/4/57 10/3/58 19/20/59 18/21/60
f 10/3/61 11/6/62 20/22/63 19/20/64
f 11/6/65 12/8/66 21/23/67 20/22/68
f 12/8/69 13/10/70 22/24/71 21/23/72
f 13/10/73 14/12/74 23/25/75 22/24/76
f 14/12/77 15/14/78 24/26/79 23/25/80
f 15/14/81 16/16/82 25/27/83 24/26/84
f 16/18/85 9/4/86 18/21/87 25/28/88
f 18/21/89 19/20/90 136/29/91 129/30/92
f 19/20/93 20/22/94 135/31/95 136/29/96
f 20/22/97 21/23/98 134/32/99 135/31/100
f 21/23/101 22/24/102 133/33/103 134/32/104
f 22/24/105 23/25/106 132/34/107 133/33/108
f 23/25/109 24/26/110 131/35/111 132/34/112
f 24/26/113 25/27/114 130/36/115 131/35/116
f 25/28/117 18/21/118 129/30/119 130/37/120
f 26/38/121 27/39/122 35/40/123 34/41/124
f 27/39/125 28/42/126 36/43/127 35/40/128
f 28/42/129 29/44/130 37/45/131 36/43/132
f 29/44/133 30/46/134 38/47/135 37/45/136
f 30/46/137 31/48/138 39/49/139 38/47/140
f 31/48/141 32/50/142 40/51/143 39/49/144
f 32/50/145 33/52/146 41/53/147 40/51/148
f 33/54/149 26/38/150 34/41/151 41/55/152
f 35/40/153 96/56/154 89/57/155 34/41/156
f 36/43/157 95/58/158 96/56/159 35/40/160
f 37/45/161 94/59/162 95/58/163 36/43/164
f 38/47/165 93/60/166 94/59/167 37/45/168
f 39/49/169 92/61/170 93/60/171 38/47/172
f 40/51/173 91/62/174 92/61/175 39/49/176
f 41/53/177 90/63/178 91/62/179 40/51/180
f 34/41/181 89/57/182 90/64/183 41/55/184
f 42/65/185 43/66/186 88/67/187 81/68/188
f 43/66/189 44/69/190 87/70/191 88/67/192
f 44/69/193 45/71/194 86/72/195 87/70/196
f 45/73/197 46/74/198 85/75/199 86/76/200
f 46/74/201 47/77/202 84/78/203 85/75/204
f 47/77/205 48/79/206 83/80/207 84/78/208
f 113/81/209 114/82/210 115/83/211 116/84/212
f 114/82/213 117/85/214 118/86/215 115/83/216
f 50/87/217 58/88/218 57/89/219 49/90/220
f 51/91/221 59/92/222 58/88/223 50/87/224
f 52/93/225 60/94/226 59/92/227 51/91/228
f 53/95/229 61/96/230 60/94/231 52/93/232
f 54/97/233 62/98/234 61/96/235 53/95/236
f 55/99/237 63/100/238 62/98/239 54/97/240
f 56/101/241 64/102/242 63/100/243 55/99/244
f 49/90/245 57/89/246 64/103/247 56/104/248
f 57/89/249 58/88/250 66/105/251 65/106/252
f 58/88/253 59/92/254 67/107/255 66/105/256
f 59/92/257 60/94/258 68/108/259 67/107/260
f 60/94/261 61/96/262 69/109/263 68/108/264
f 61/96/265 62/98/266 70/110/267 69/109/268
f 62/98/269 63/100/270 71/111/271 70/110/272
f 63/100/273 64/102/274 72/112/275 71/111/276
f 64/103/277 57/89/278 65/106/279 72/113/280
f 66/105/281 74/114/282 73/115/283 65/106/284
f 67/107/285 75/116/286 74/114/287 66/105/288
f 68/108/289 76/117/290 75/116/291 67/107/292
f 69/109/293 77/118/294 76/117/295 68/108/296
f 70/110/297 78/119/298 77/118/299 69/109/300
f 71/111/301 79/120/302 78/119/303 70/110/304
f 72/112/305 80/121/306 79/120/307 71/111/308
f 65/106/309 73/115/310 80/122/311 72/113/312
f 82/123/313 81/124/314 49/90/315 56/104/316
f 83/125/317 82/126/318 56/101/319 55/99/320
f 84/127/321 83/125/322 55/99/323 54/97/324
f 85/128/325 84/127/326 54/97/327 53/95/328
f 86/129/329 85/128/330 53/95/331 52/93/332
f 87/130/333 86/129/334 52/93/335 51/91/336
f 88/131/337 87/130/338 51/91/339 50/87/340
f 81/124/341 88/131/342 50/87/343 49/90/344
f 120/132/345 119/133/346 117/85/347 114/82/348
f 121/134/349 120/132/350 114/82/351 113/81/352
f 92/135/353 91/136/354 48/79/355 47/77/356
f 93/137/357 92/135/358 47/77/359 46/74/360
f 94/138/361 93/137/362 46/74/363 45/73/364
f 95/139/365 94/140/366 45/71/367 44/69/368
f 96/141/369 95/139/370 44/69/371 43/66/372
f 89/142/373 96/141/374 43/66/375 42/65/376
f 82/143/377 83/80/378 99/144/379 98/145/380
f 83/80/381 48/79/382 97/146/383 99/144/384
f 42/65/385 81/68/386 101/147/387 100/148/388
f 81/68/389 82/143/390 98/145/391 101/147/392
f 90/149/393 89/142/394 102/150/395 103/151/396
f 89/142/397 42/65/398 100/148/399 102/150/400
f 91/136/401 90/149/402 103/151/403 104/152/404
f 48/79/405 91/136/406 104/152/407 97/146/408
f 98/145/409 99/144/410 107/153/411 106/154/412
f 99/144/413 97/146/414 105/155/415 107/153/416
f 100/148/417 101/147/418 109/156/419 108/157/420
f 101/147/421 98/145/422 106/154/423 109/156/424
f 103/151/425 102/150/426 110/158/427 111/159/428
f 102/150/429 100/148/430 108/157/431 110/158/432
f 104/152/433 103/151/434 111/159/435 112/160/436
f 97/146/437 104/152/438 112/160/439 105/155/440
f 106/154/441 107/153/442 116/84/443 115/83/444
f 107/153/445 105/155/446 113/81/447 116/84/448
f 108/157/449 109/156/450 118/86/451 117/85/452
f 109/156/453 106/154/454 115/83/455 118/86/456
f 111/159/457 110/158/458 119/133/459 120/132/460
f 110/158/461 108/157/462 117/85/463 119/133/464
f 112/160/465 111/159/466 120/132/467 121/134/468
f 105/155/469 112/160/470 121/134/471 113/81/472
f 123/161/473 122/162/474 137/163/475 138/164/476
f 124/165/477 123/166/478 138/167/479 139/168/480
f 125/169/481 124/165/482 139/168/483 140/170/484
f 126/171/485 125/169/486 140/170/487 141/172/488
f 154/173/489 153/174/490 155/175/491 156/176/492
f 157/177/493 154/178/494 156/176/495 158/179/496
f 128/180/497 127/181/498 143/182/499 144/183/500
f 122/162/501 128/180/502 144/183/503 137/163/504
f 130/37/505 129/30/506 122/162/507 123/161/508
f 131/35/509 130/36/510 123/166/511 124/165/512
f 132/34/513 131/35/514 124/165/515 125/169/516
f 133/33/517 132/34/518 125/169/519 126/171/520
f 160/184/521 159/185/522 153/174/523 154/173/524
f 161/186/525 160/187/526 154/178/527 157/177/528
f 136/29/529 135/31/530 127/181/531 128/180/532
f 129/30/533 136/29/534 128/180/535 122/162/536
f 138/164/537 137/163/538 26/38/539 33/54/540
f 139/168/541 138/167/542 33/52/543 32/50/544
f 140/170/545 139/168/546 32/50/547 31/48/548
f 141/172/549 140/170/550 31/48/551 30/46/552
f 142/188/553 141/172/554 30/46/555 29/44/556
f 143/182/557 142/188/558 29/44/559 28/42/560
f 144/183/561 143/182/562 28/42/563 27/39/564
f 137/163/565 144/183/566 27/39/567 26/38/568
f 126/189/569 141/190/570 146/191/571 145/192/572
f 141/190/573 142/193/574 147/194/575 146/191/576
f 142/193/577 143/195/578 149/196/579 147/194/580
f 143/195/581 127/197/582 148/198/583 149/196/584
f 134/199/585 133/200/586 150/201/587 151/202/588
f 133/200/589 126/189/590 145/192/591 150/201/592
f 135/203/593 134/204/594 151/205/595 152/206/596
f 127/197/597 135/203/598 152/206/599 148/198/600
f 145/192/601 146/191/602 155/175/603 153/174/604
f 146/191/605 147/194/606 156/176/607 155/175/608
f 147/194/609 149/196/610 158/179/611 156/176/612
f 149/196/613 148/198/614 157/177/615 158/179/616
f 151/202/617 150/201/618 159/185/619 160/184/620
f 150/201/621 145/192/622 153/174/623 159/185/624
f 152/206/625 151/205/626 160/187/627 161/186/628
f 148/198/629 152/206/630 161/186/631 157/177/632
f 80/121/633 162/207/634 79/120/635
f 162/207/636 76/117/637 77/118/638
f 73/115/639 162/207/640 80/122/641
f 162/207/642 75/116/643 76/117/644
f 74/114/645 162/207/646 73/115/647
f 79/120/648 162/207/649 78/119/650
f 162/207/651 77/118/652 78/119/653
f 74/114/654 75/116/655 162/207/656
