# This file uses centimeters as units for non-parametric coordinates.

mtllib Cobl_archway_fixed_low.mtl
g default
v -0.915153 1.078042 -0.427713
v -0.895374 1.157554 0.360033
v -0.934373 1.010035 -0.373786
v -1.308397 0.639851 0.529842
v -1.222789 1.296461 0.376887
v -1.309680 0.635779 0.376887
v -0.958554 1.935274 -0.499072
v -0.678079 1.610457 -0.499072
v -0.919644 1.068271 -0.499072
v -1.269243 1.290889 -0.499072
v -0.885210 1.076902 0.407094
v -0.944465 0.464633 0.407094
v -0.909587 0.955566 -0.427039
v -0.942882 0.474806 0.529842
v -1.671245 2.251508 -0.283491
v -1.621250 2.241000 -0.333517
v -1.621250 1.922011 -0.333517
v -1.671245 1.926552 -0.283491
v -0.675815 1.613407 -0.427713
v -1.218374 1.322497 0.529842
v -0.862579 1.192430 0.407689
v -1.133625 1.572158 -0.333517
v -1.621250 1.594804 -0.333517
v -0.968508 1.941655 -0.333517
v -1.057674 1.729058 -0.333517
v -0.881623 1.094757 0.529842
v -1.671245 1.951183 0.327021
v -1.671245 1.962999 0.013012
v -1.671245 1.594804 0.013012
v -1.671245 1.594804 0.327021
v -1.671245 2.882574 -0.283491
v -0.652009 1.685971 -0.436468
v -1.671245 2.271384 0.013012
v -0.890193 1.981722 -0.436468
v -0.649029 1.689589 -0.373786
v -1.196895 1.446213 0.377085
v -1.180987 1.394575 0.468019
v -0.983388 1.882519 -0.333517
v -1.255637 1.314293 -0.333517
v -0.589811 1.712682 -0.511964
v -0.587308 1.715555 -0.438818
v -0.859770 2.067340 -0.511964
v -0.889635 1.179262 0.468019
v -1.190846 1.459736 0.530623
v -0.854842 1.209263 0.530623
v -1.621250 1.944759 0.361783
v -1.621250 1.594804 0.361783
v -0.853848 2.070967 -0.333517
v -0.649305 1.647948 0.407689
v -0.222284 2.051925 -0.511964
v -1.621250 0.272156 0.361783
v -1.375169 0.243047 0.370102
v -1.326526 0.480664 0.377172
v -1.295905 0.560412 0.361783
v -0.416223 2.444437 -0.343584
v -0.940624 1.965852 0.370964
v -0.463746 2.441137 -0.511964
v -0.558002 1.749189 0.417502
v -1.621250 2.882574 -0.333517
v -1.671245 2.292436 0.327021
v -0.210195 2.080191 -0.437643
v -0.614149 1.731941 0.360033
v -1.621250 3.201872 -0.283491
v -1.621250 3.151877 -0.333517
v -1.671245 3.151877 -0.283491
v -0.438768 2.439101 -0.437643
v -0.645404 1.653031 0.530623
v -0.919308 1.986299 0.530623
v -1.671245 2.882574 0.013012
v -1.621250 2.287611 0.361783
v -0.194877 2.109241 -0.373786
v -0.149012 2.101548 -0.426999
v -0.157204 2.096731 -0.498243
v -0.846388 2.035717 0.361783
v -0.609016 1.738173 0.468019
v -0.385361 2.481753 -0.498243
v -0.839679 2.042890 0.468019
v -0.553689 1.754139 0.543515
v -0.817135 2.109662 0.361782
v -0.816188 2.117246 0.543515
v 0.404907 2.313461 -0.452864
v -0.131759 2.111798 0.417502
v -0.073676 2.173566 0.360033
v -1.621250 3.201872 0.327021
v -1.671245 3.151877 0.327021
v -1.621250 3.151877 0.361783
v -1.671245 2.882574 0.327021
v 0.411840 2.329989 -0.392973
v -0.361144 2.511313 0.361782
v 0.509179 2.819384 -0.452537
v -0.053106 2.157947 0.407058
v -1.671245 3.151877 0.013012
v -0.119486 2.119915 0.543515
v -1.621250 2.882574 0.361783
v 0.418777 2.346517 -0.340681
v -0.341379 2.526520 0.543515
v 0.487988 2.331795 -0.387525
v 0.487967 2.331790 -0.452418
v -0.055840 2.183032 0.468019
v -1.621250 3.201872 0.013012
v 0.553900 2.798033 -0.396430
v -0.038993 2.166247 0.529794
v 1.082499 2.371124 -0.452418
v 0.405198 2.313544 0.372515
v -0.255126 2.529167 0.468019
v 0.488231 2.331850 0.372175
v -0.244884 2.569334 0.529794
v 0.590326 2.834805 -0.452418
v 0.405238 2.313555 0.484416
v 1.083838 2.371124 -0.387525
v 0.419076 2.346598 0.330779
v 0.544979 2.802403 -0.334673
v 0.456719 2.801651 -0.333517
v 1.149754 2.402476 -0.391244
v 0.524676 2.812224 0.365277
v 1.191758 2.357885 -0.409774
v 1.190526 2.357885 -0.478247
v 0.419120 2.346610 0.429588
v 1.151388 2.402476 -0.334830
v 1.083106 2.851037 -0.452418
v 0.488267 2.331858 0.483969
v 1.150494 2.819684 -0.391244
v 0.509583 2.819455 0.484087
v 0.810475 2.842041 -0.333517
v 1.099518 2.371124 0.372175
v 1.473025 2.402476 -0.391244
v 1.434747 2.357885 -0.409774
v 1.434310 2.357885 -0.478247
v 1.428064 2.864275 -0.478248
v 1.191083 2.864275 -0.478247
v 0.554340 2.798100 0.427981
v 1.503487 2.353839 -0.416576
v 1.503092 2.353839 -0.486143
v 1.206181 2.357885 0.391837
v 1.473605 2.402476 -0.334830
v 1.464742 2.819684 -0.391244
v 1.067450 2.850461 -0.333517
v 1.497452 2.868322 -0.486143
v 1.152138 2.819719 -0.333845
v -0.007228 3.201872 -0.283491
v -0.007228 3.151877 -0.333517
v 1.170514 2.402476 0.325608
v 0.590691 2.834853 0.483969
v 1.101825 2.371124 0.483969
v 1.439863 2.357885 0.391837
v 1.508105 2.353839 0.397848
v 1.731516 2.353826 -0.416575
v 1.465327 2.819726 -0.333845
v 1.173329 2.402476 0.422795
v 1.480390 2.402476 0.325608
v 1.208303 2.357885 0.509799
v 1.153444 2.845668 0.366838
v -0.007228 3.201872 0.013012
v 1.174068 2.819684 0.422795
v 1.736790 2.353834 0.397848
v 1.208861 2.864275 0.509799
v 1.712904 2.865848 -0.305211
v 1.102432 2.851037 0.483969
v 1.481388 2.402476 0.422795
v 1.440616 2.357885 0.509799
v 1.508785 2.353839 0.517695
v 1.473105 2.819684 0.422795
v 1.737566 2.353835 0.517695
v 1.503146 2.868322 0.517695
v -0.007228 3.201872 0.327021
v 1.678761 3.201872 -0.283491
v 1.736155 3.151877 -0.283491
v 1.678761 3.151877 -0.333517
v 1.434370 2.864275 0.509799
v 1.476233 2.858829 0.366868
v -0.007228 3.151877 0.361782
v 1.681708 2.873079 0.359732
v 1.736234 2.868336 0.397848
v 1.737010 2.868337 0.517695
v 1.678760 3.151877 0.361782
v 1.736155 3.151877 0.327021
v 1.678761 3.201872 0.327021
v -0.020582 2.623522 -0.333517
v 0.590372 2.834811 -0.333517
v 0.862208 3.201872 -0.283491
v 0.844065 3.151877 -0.333517
v 0.887009 3.201872 0.013012
v 1.731065 2.353825 -0.486143
v 1.193687 2.864275 -0.333517
v 1.730509 2.868325 -0.486143
v 1.428988 2.864275 -0.333517
v 0.881679 3.201872 0.327021
v 0.883321 3.151877 0.361783
v 1.498318 2.868322 -0.333517
v 1.678761 3.201872 0.013012
v 1.734955 2.869514 0.013012
v 1.736155 3.151877 0.013012
v 1.735501 2.875454 0.327021
v -0.972937 0.417815 0.468019
v -1.671245 1.594804 -0.283491
v -1.293236 0.575147 0.468019
v -0.955604 0.340191 0.407951
v -0.954458 0.350944 0.530967
v -0.974445 0.405220 0.360033
v -1.325007 0.495562 0.530967
v -0.948341 0.207525 0.486162
v -0.901317 0.167999 0.407951
v -0.900367 0.174904 0.530967
v -0.953149 0.199968 0.373844
v -0.907981 0.030786 0.530967
v -0.937704 0.997434 -0.436468
v -1.359003 0.257931 0.486163
v -1.402406 0.236847 0.530967
v -1.232061 1.194072 -0.343584
v -0.908656 0.027425 0.407951
v -1.240119 1.168751 -0.431754
v -0.911669 0.945202 -0.498290
v -0.955218 0.395506 -0.427039
v -1.250386 1.143413 -0.498291
v -0.984695 0.319630 -0.373786
v -0.963390 0.267118 -0.428009
v -0.985819 0.148611 -0.389414
v -1.671245 0.272156 0.327021
v -0.907772 0.121078 -0.428009
v -1.411801 0.030714 0.530967
v -1.325144 0.545210 -0.427040
v -0.956137 0.389601 -0.498290
v -1.412510 0.027352 0.407951
v -0.913247 0.004582 -0.428009
v -1.671245 0.272156 0.013012
v -1.326391 0.538163 -0.498291
v -0.985570 0.312319 -0.436468
v -1.322555 0.550740 -0.333517
v -0.964055 0.260876 -0.499416
v -1.310918 0.452006 -0.436468
v -1.309721 0.462748 -0.346940
v -0.988610 0.144224 -0.454611
v -1.621250 0.040898 0.344402
v -1.671245 0.067274 0.327021
v -1.338804 0.387900 -0.499415
v -0.908323 0.117070 -0.499416
v -1.337848 0.395361 -0.428008
v -1.338264 0.391659 -0.333517
v -0.913639 0.002631 -0.499416
v -1.330884 0.180975 -0.454611
v -1.412342 0.171470 -0.499415
v -1.336148 0.190092 -0.333517
v -1.332833 0.186308 -0.389414
v -1.671245 0.272156 -0.283491
v -1.411653 0.176001 -0.428008
v -1.411246 0.170597 -0.333517
v -1.671245 0.067274 0.013012
v -1.671245 0.067274 -0.283491
v -1.621250 0.029929 0.013012
v -1.417325 0.004509 -0.428008
v -1.621250 0.029221 -0.300167
v -1.621250 0.272156 -0.333517
v -1.417736 0.002558 -0.499415
v -1.412333 0.040314 0.343477
v -1.414342 0.029929 0.013012
v -1.415887 0.029221 -0.300167
vt 0.887134 0.528758
vt 0.881115 0.451634
vt 0.894164 0.523682
vt 0.909884 0.411324
vt 0.818428 0.390052
vt 0.910497 0.390191
vt 0.668670 0.008922
vt 0.676262 0.082996
vt 0.773480 0.117028
vt 0.786650 0.046330
vt 0.889130 0.447157
vt 0.949168 0.448016
vt 0.900098 0.528763
vt 0.948345 0.436033
vt 0.720379 0.269517
vt 0.819267 0.268590
vt 0.054364 0.368228
vt 0.064887 0.366960
vt 0.065513 0.323397
vt 0.054929 0.323874
vt 0.829965 0.527556
vt 0.830169 0.534525
vt 0.814750 0.411180
vt 0.876484 0.446940
vt 0.134640 0.275648
vt 0.065627 0.278919
vt 0.155866 0.327254
vt 0.144533 0.297517
vt 0.887614 0.435139
vt 0.053288 0.820867
vt 0.010189 0.822795
vt 0.009281 0.772410
vt 0.052943 0.772241
vt 0.052666 0.454672
vt 0.659455 0.077729
vt 0.822507 0.528273
vt 0.013528 0.370139
vt 0.014039 0.328040
vt 0.708647 0.277750
vt 0.650971 0.012388
vt 0.896653 0.678480
vt 0.870218 0.743094
vt 0.788262 0.672079
vt 0.803557 0.602986
vt 0.822182 0.522153
vt 0.795939 0.389448
vt 0.803606 0.402541
vt 0.728653 0.292326
vt 0.815752 0.291512
vt 0.776317 0.291880
vt 0.752221 0.292106
vt 0.642696 0.083090
vt 0.815574 0.528394
vt 0.815820 0.535538
vt 0.631263 0.006603
vt 0.879311 0.441009
vt 0.786647 0.597541
vt 0.774983 0.659516
vt 0.696001 0.267408
vt 0.794115 0.410671
vt 0.761486 0.658774
vt 0.774804 0.587048
vt 0.874841 0.434913
vt 0.061647 0.819928
vt 0.061385 0.772159
vt 0.695233 0.292585
vt 0.827346 0.446067
vt 0.767086 0.534632
vt 0.119774 0.751075
vt 0.061678 0.594073
vt 0.116354 0.730391
vt 0.094279 0.584618
vt 0.102308 0.618967
vt 0.106252 0.630055
vt 0.104264 0.640863
vt 0.229981 0.398216
vt 0.154068 0.318991
vt 0.715922 0.389434
vt 0.620820 0.267908
vt 0.812673 0.444901
vt 0.063131 0.454868
vt 0.720225 0.292461
vt 0.053589 0.867544
vt 0.010577 0.864937
vt 0.764465 0.527229
vt 0.818365 0.450550
vt 0.888085 0.791553
vt 0.889414 0.779837
vt 0.899368 0.789652
vt 0.061923 0.866832
vt 0.616853 0.278432
vt 0.826955 0.434060
vt 0.712305 0.411563
vt 0.011936 0.453817
vt 0.536892 0.010539
vt 0.540024 0.085387
vt 0.556024 0.087685
vt 0.054019 0.948277
vt 0.761300 0.520844
vt 0.757060 0.526410
vt 0.758278 0.533347
vt 0.699701 0.388481
vt 0.817811 0.440009
vt 0.524463 0.019022
vt 0.509554 0.019360
vt 0.529256 0.093748
vt 0.698651 0.403177
vt 0.663875 0.620476
vt 0.677857 0.551873
vt 0.682262 0.626836
vt 0.611227 0.290200
vt 0.614075 0.291810
vt 0.605115 0.269106
vt 0.657797 0.554227
vt 0.812267 0.432609
vt 0.648139 0.625531
vt 0.688721 0.388640
vt 0.688026 0.413749
vt 0.699113 0.529100
vt 0.639972 0.547966
vt 0.433859 0.137230
vt 0.757969 0.444032
vt 0.749525 0.449544
vt 0.886151 0.893481
vt 0.897520 0.896070
vt 0.887371 0.903546
vt 0.051857 0.491623
vt 0.062312 0.491833
vt 0.011056 0.948513
vt 0.062350 0.948230
vt 0.697794 0.523095
vt 0.604806 0.388960
vt 0.475640 0.277064
vt 0.746580 0.445213
vt 0.011139 0.490757
vt 0.756852 0.431704
vt 0.359251 0.088336
vt 0.154900 0.822260
vt 0.696098 0.517850
vt 0.601461 0.414070
vt 0.689375 0.522796
vt 0.689603 0.529109
vt 0.748014 0.438907
vt 0.889240 0.841281
vt 0.901231 0.841558
vt 0.423531 0.141975
vt 0.353075 0.100438
vt 0.414850 0.154800
vt 0.745044 0.433211
vt 0.630959 0.529257
vt 0.699487 0.448449
vt 0.528961 0.628930
vt 0.514160 0.560997
vt 0.549358 0.628573
vt 0.595441 0.378757
vt 0.519251 0.635134
vt 0.530873 0.550088
vt 0.590499 0.398673
vt 0.689066 0.448502
vt 0.054204 0.985122
vt 0.011245 0.985353
vt 0.501478 0.558375
vt 0.341283 0.105134
vt 0.582140 0.404341
vt 0.699559 0.437537
vt 0.630758 0.522906
vt 0.695987 0.452551
vt 0.443204 0.665408
vt 0.466404 0.284410
vt 0.469025 0.292874
vt 0.483359 0.293091
vt 0.466814 0.293006
vt 0.459207 0.276777
vt 0.062534 0.985077
vt 0.623611 0.523209
vt 0.470380 0.400935
vt 0.617622 0.525007
vt 0.617702 0.531688
vt 0.696024 0.442889
vt 0.623485 0.517674
vt 0.391373 0.276244
vt 0.278061 0.163551
vt 0.321749 0.229844
vt 0.336781 0.222594
vt 0.689183 0.437594
vt 0.270690 0.178516
vt 0.315373 0.247084
vt 0.372702 0.609599
vt 0.397233 0.456501
vt 0.629604 0.448361
vt 0.588140 0.522986
vt 0.593877 0.524828
vt 0.593882 0.531515
vt 0.224191 0.213773
vt 0.285339 0.276877
vt 0.432429 0.669143
vt 0.253439 0.184757
vt 0.422529 0.681104
vt 0.366111 0.620844
vt 0.582538 0.525453
vt 0.582545 0.532246
vt 0.616445 0.446432
vt 0.474751 0.416627
vt 0.588112 0.517465
vt 0.381178 0.284698
vt 0.268114 0.282898
vt 0.217910 0.230714
vt 0.393400 0.292620
vt 0.199530 0.236856
vt 0.261627 0.300997
vt 0.381004 0.292596
vt 0.372906 0.272711
vt 0.617639 0.788546
vt 0.617799 0.776640
vt 0.622033 0.452899
vt 0.353367 0.624527
vt 0.629492 0.437439
vt 0.593662 0.446328
vt 0.582308 0.445710
vt 0.467077 0.409960
vt 0.174831 0.135546
vt 0.173943 0.107606
vt 0.274551 0.131802
vt 0.458017 0.414956
vt 0.340301 0.272833
vt 0.332374 0.284815
vt 0.324285 0.271774
vt 0.332339 0.292713
vt 0.621839 0.443388
vt 0.587772 0.452793
vt 0.616309 0.434920
vt 0.386791 0.383034
vt 0.617276 0.838304
vt 0.319307 0.749450
vt 0.273307 0.693250
vt 0.335447 0.743320
vt 0.273705 0.103776
vt 0.255765 0.697563
vt 0.311581 0.765790
vt 0.523116 0.462484
vt 0.390119 0.400072
vt 0.587729 0.443286
vt 0.185135 0.044315
vt 0.593655 0.434810
vt 0.282559 0.678653
vt 0.582300 0.434012
vt 0.171884 0.841904
vt 0.289213 0.131297
vt 0.378182 0.397760
vt 0.376625 0.389339
vt 0.262356 0.795800
vt 0.217299 0.738823
vt 0.280253 0.791362
vt 0.369671 0.408446
vt 0.288351 0.103292
vt 0.198481 0.743044
vt 0.254218 0.813152
vt 0.617096 0.891259
vt 0.335440 0.787315
vt 0.323217 0.785279
vt 0.334178 0.775577
vt 0.225355 0.722385
vt 0.334107 0.390316
vt 0.323458 0.389142
vt 0.330304 0.396589
vt 0.339990 0.409033
vt 0.268035 0.008473
vt 0.324297 0.411850
vt 0.617096 0.901515
vt 0.234533 0.896576
vt 0.283374 0.983993
vt 0.286425 0.012060
vt 0.271376 0.040612
vt 0.286134 0.040484
vt 0.333608 0.898167
vt 0.322708 0.890381
vt 0.335130 0.888212
vt 0.283824 0.423915
vt 0.283993 0.496498
vt 0.459140 0.293136
vt 0.471631 0.787274
vt 0.474611 0.775405
vt 0.467473 0.837298
vt 0.165420 0.107944
vt 0.166309 0.135869
vt 0.372622 0.292625
vt 0.170789 0.265266
vt 0.233499 0.328817
vt 0.340248 0.292747
vt 0.467542 0.890363
vt 0.162858 0.044931
vt 0.515568 0.501634
vt 0.400863 0.499127
vt 0.467024 0.900620
vt 0.324257 0.292773
vt 0.355934 0.937173
vt 0.523245 0.982884
vt 0.164836 0.016430
vt 0.333367 0.836366
vt 0.171186 0.345412
vt 0.169227 0.330793
vt 0.522918 0.945062
vt 0.526983 0.501760
vt 0.567774 0.463080
vt 0.567774 0.501859
vt 0.223318 0.838276
vt 0.166893 0.768724
vt 0.320471 0.836365
vt 0.565875 0.943878
vt 0.566209 0.982512
vt 0.514064 0.982944
vt 0.514301 0.944794
vt 0.167880 0.831784
vt 0.552392 0.292157
vt 0.405225 0.983418
vt 0.428803 0.292892
vt 0.183494 0.017831
vt 0.441988 0.941340
vt 0.224188 0.042466
vt 0.262624 0.040111
vt 0.266724 0.033776
vt 0.367016 0.454818
vt 0.360576 0.450371
vt 0.348776 0.449851
vt 0.486163 0.942932
vt 0.053249 0.594250
vt 0.491461 0.462149
vt 0.487126 0.455387
vt 0.481966 0.461388
vt 0.449691 0.460691
vt 0.444147 0.454454
vt 0.432424 0.458421
vt 0.954559 0.442111
vt 0.054908 0.278744
vt 0.014159 0.277687
vt 0.888010 0.535746
vt 0.884844 0.748356
vt 0.907079 0.690353
vt 0.962266 0.448031
vt 0.961359 0.436012
vt 0.955626 0.452663
vt 0.923919 0.698033
vt 0.895132 0.761007
vt 0.975303 0.440528
vt 0.919177 0.401996
vt 0.981661 0.447846
vt 0.980728 0.435863
vt 0.975919 0.451507
vt 0.164114 0.620162
vt 0.180345 0.639569
vt 0.163442 0.639957
vt 0.895237 0.529841
vt 0.912822 0.780303
vt 0.957635 0.723920
vt 0.921089 0.388138
vt 0.933649 0.390132
vt 0.930580 0.411293
vt 0.969097 0.724022
vt 0.914330 0.792973
vt 0.832722 0.290647
vt 0.181006 0.620258
vt 0.788674 0.123963
vt 0.800331 0.064838
vt 0.901047 0.535731
vt 0.954946 0.529468
vt 0.836324 0.278437
vt 0.921950 0.387411
vt 0.964053 0.406661
vt 0.812910 0.068164
vt 0.798717 0.134771
vt 0.962953 0.524371
vt 0.839972 0.269186
vt 0.968482 0.529666
vt 0.967222 0.390626
vt 0.980311 0.526080
vt 0.010919 0.587847
vt 0.295204 0.637043
vt 0.970637 0.412959
vt 0.164121 0.522751
vt 0.186440 0.520915
vt 0.164912 0.551034
vt 0.923318 0.278954
vt 0.955440 0.536429
vt 0.181810 0.551079
vt 0.995417 0.748466
vt 0.932862 0.809935
vt 0.988649 0.529223
vt 0.295757 0.621045
vt 0.054036 0.571472
vt 0.924300 0.269104
vt 0.963571 0.530497
vt 0.922537 0.291886
vt 0.968994 0.536646
vt 0.891844 0.200557
vt 0.912277 0.142612
vt 0.875154 0.194038
vt 0.934844 0.290099
vt 0.980680 0.532452
vt 0.899402 0.129193
vt 0.936355 0.277721
vt 0.059669 0.567355
vt 0.080904 0.555353
vt 0.927691 0.147986
vt 0.901530 0.211472
vt 0.989260 0.536176
vt 0.305018 0.636831
vt 0.945013 0.278962
vt 0.945427 0.292028
vt 0.305562 0.621117
vt 0.954660 0.172975
vt 0.920841 0.222217
vt 0.946097 0.269097
vt 0.969432 0.166283
vt 0.919643 0.238810
vt 0.974689 0.275480
vt 0.973301 0.292224
vt 0.973875 0.284490
vt 0.054964 0.103767
vt 0.015496 0.094978
vt 0.985386 0.280419
vt 0.283225 0.529337
vt 0.296178 0.528337
vt 0.986657 0.270609
vt 0.025733 0.062073
vt 0.056822 0.079751
vt 0.031655 0.052286
vt 0.305990 0.528766
vt 0.296648 0.551882
vt 0.061727 0.075508
vt 0.065484 0.104854
vt 0.306453 0.551953
vt 0.025637 0.547129
vt 0.045182 0.523032
vt 0.020913 0.555969
vt 0.131367 0.742310
vt 0.190629 0.549120
vt 0.983964 0.293433
vt 0.935316 0.251041
vt 0.992287 0.184660
vt 0.057578 0.036589
vt 0.085308 0.066584
vt 0.140917 0.750279
vt 0.100447 0.086217
vt 0.090719 0.086188
vt 0.236029 0.549622
vt 0.279032 0.548845
vt 0.116435 0.239713
vt 0.119067 0.222578
vt 0.104916 0.134786
vt 0.106360 0.122522
vt 0.102452 0.113351
vt 0.708817 0.278056
vt 0.330798 0.398682
vt 0.381257 0.389917
vt 0.589749 0.403415
vt 0.919109 0.402829
vt 0.474042 0.277500
vt 0.473637 0.276477
vt 0.481229 0.292856
vt 0.618555 0.278259
vt 0.614275 0.277432
vt 0.694393 0.267906
vn 0.992077 -0.122287 -0.028807
vn 0.998433 -0.036779 -0.042167
vn 0.909883 -0.414842 -0.004367
vn 0.906222 -0.422785 -0.003719
vn -0.041349 0.000000 0.999145
vn -0.095114 0.000000 0.995466
vn -0.919626 0.085078 0.383470
vn -0.934187 0.175966 0.310371
vn -0.829567 0.477884 -0.288870
vn 0.798872 -0.335809 -0.499035
vn 0.790664 -0.414885 -0.450245
vn -0.852027 0.334432 -0.402746
vn 0.997502 -0.069036 -0.014935
vn 0.997895 -0.062645 -0.016754
vn 0.993585 -0.112803 -0.008016
vn 0.993353 -0.114848 -0.007722
vn 0.944878 -0.131133 0.300016
vn 0.877040 -0.036679 0.479015
vn -0.787280 0.000000 -0.616595
vn -0.034012 0.000000 -0.999421
vn -0.046963 0.000000 -0.998897
vn -0.795316 0.000000 -0.606195
vn 0.912199 -0.409685 -0.007208
vn 0.911403 -0.411451 -0.007259
vn -0.057629 0.000000 -0.998338
vn -0.018209 0.003048 -0.999830
vn 0.000000 0.000000 -1.000000
vn -0.003628 0.000000 -0.999994
vn -0.989712 0.000000 0.143073
vn -1.000000 0.000000 0.000000
vn -1.000000 0.000000 0.000000
vn -0.989979 0.000000 0.141218
vn 0.691559 -0.635014 -0.344243
vn -0.787848 0.548851 -0.279388
vn 0.744833 -0.667245 0.002811
vn -1.000000 0.000000 0.000000
vn -0.905345 0.423638 -0.029684
vn -0.056197 0.016593 -0.998282
vn 0.558144 -0.729246 -0.395822
vn -0.665926 0.639747 -0.383752
vn 0.654711 -0.755870 -0.003664
vn 0.950808 -0.096020 0.294526
vn -0.958272 -0.051133 0.281248
vn 0.849520 -0.426934 0.309908
vn -0.870434 0.378036 0.315330
vn -0.045870 0.000000 0.998947
vn -0.057686 0.000000 0.998335
vn 0.723377 -0.690437 0.004739
vn 0.636205 -0.658740 -0.401627
vn 0.679459 -0.728898 -0.083919
vn -0.003453 0.000000 0.999994
vn -0.056878 0.000000 0.998381
vn -0.719836 0.065331 0.691063
vn -0.102381 0.000000 0.994745
vn -0.439283 0.063726 0.896086
vn 0.000000 0.000000 -1.000000
vn -0.123782 0.084906 0.988670
vn -0.827154 0.489791 0.275537
vn -0.598913 0.742950 -0.298880
vn -0.451300 0.728363 -0.515573
vn 0.651002 -0.759013 -0.009815
vn 0.824918 -0.344461 0.448171
vn -0.793084 0.000000 -0.609113
vn -0.023208 0.000000 -0.999731
vn -0.989690 0.000000 0.143226
vn 0.000000 0.570871 -0.821040
vn 0.000000 0.570871 -0.821040
vn -0.707105 0.707108 0.000000
vn 0.671497 -0.740831 -0.016186
vn -1.000000 0.000000 0.000000
vn 0.177591 -0.146957 -0.973070
vn -0.033258 0.000000 0.999447
vn 0.253698 -0.736462 -0.627106
vn 0.343580 -0.938931 0.018992
vn 0.455861 -0.889348 0.035371
vn 0.655992 -0.659896 0.366350
vn -0.334029 0.854334 -0.398169
vn 0.559078 -0.717506 0.415473
vn -0.807900 0.517613 0.281736
vn -0.674307 0.656468 0.338170
vn -0.650480 0.639804 0.409300
vn -0.044025 0.047937 0.997880
vn 0.327194 -0.704867 -0.629370
vn 0.370391 -0.926888 -0.060736
vn -0.274173 0.923397 -0.268640
vn 0.421838 -0.906662 -0.004205
vn 0.336243 -0.941748 0.007160
vn 0.000000 0.570868 0.821042
vn -0.570866 0.000000 0.821043
vn 0.000000 0.570868 0.821042
vn 0.614130 -0.611850 0.498481
vn -0.990048 0.000000 0.140727
vn -0.044475 0.074071 0.996261
vn -0.548846 0.732242 0.403224
vn 0.370572 -0.928798 0.003418
vn -0.987963 0.154692 0.000000
vn -0.022254 0.000000 0.999752
vn 0.004642 -0.924685 -0.380704
vn 0.048361 -0.998829 0.001007
vn 0.203433 -0.979076 0.004972
vn 0.446035 -0.808844 0.383176
vn -0.030031 0.999549 0.000000
vn -0.233879 0.893960 -0.382277
vn 0.289094 -0.812588 0.506088
vn -0.079736 0.834455 -0.545277
vn 0.108573 -0.890033 -0.442779
vn 0.090237 -0.995920 -0.001326
vn 0.166701 -0.986008 0.000022
vn -0.424742 0.836513 0.346179
vn -0.335176 0.905957 0.258647
vn 0.044177 -0.999024 -0.000583
vn 0.348388 -0.753875 0.557045
vn 0.093686 -0.995601 -0.001424
vn -0.278225 0.938816 0.203015
vn -0.075800 0.311304 -0.947282
vn -0.051698 0.144625 -0.988135
vn -0.263629 -0.889309 -0.373670
vn -0.165569 -0.986192 0.003368
vn -0.184353 0.977244 -0.104919
vn -0.158126 -0.865762 -0.474819
vn -0.083626 -0.996495 0.001919
vn 0.325543 -0.884703 0.333651
vn 0.004670 -0.920676 0.390300
vn 0.036587 0.873022 -0.486306
vn -0.264531 0.889107 -0.373512
vn -0.161142 0.859510 -0.485053
vn -0.180518 -0.983565 0.003719
vn 0.080696 -0.996739 -0.000657
vn 0.154644 -0.870868 -0.466555
vn -0.124502 -0.919664 -0.372448
vn -0.076225 -0.997091 0.000327
vn 0.155328 0.862674 -0.481318
vn -0.234251 0.893972 0.382023
vn -0.078881 0.826179 0.557858
vn -0.169755 -0.865345 -0.471552
vn -0.088668 -0.996061 0.000690
vn -0.091829 -0.995773 0.002107
vn 0.110097 -0.880377 0.461319
vn -0.177752 0.895668 -0.407656
vn -0.110105 0.922185 -0.370745
vn -0.169550 0.871902 -0.459391
vn 0.000000 0.794945 -0.606681
vn 0.000000 0.075347 -0.997157
vn 0.094951 -0.995482 -0.000773
vn -0.085702 -0.996321 0.000402
vn -0.102102 -0.994774 0.000794
vn 0.731451 -0.681840 0.008548
vn 0.728587 -0.684940 -0.004305
vn -0.093290 0.954170 -0.284353
vn -0.286182 -0.882261 0.373786
vn -0.152432 -0.880214 0.449431
vn -0.033786 0.995063 -0.093320
vn 0.039672 0.860848 0.507314
vn 0.000000 1.000000 0.000000
vn -0.287061 0.882050 0.373610
vn -0.155485 0.874460 0.459505
vn -0.137220 -0.918935 0.369769
vn 0.158697 -0.876834 0.453848
vn -0.167197 -0.867258 0.468944
vn 0.896384 -0.395285 0.200613
vn -0.122935 0.921612 0.368128
vn 0.159431 0.869032 0.468365
vn -0.166861 0.873769 0.456821
vn 0.000000 0.989895 0.141804
vn 0.707105 0.707109 0.000000
vn 0.570867 0.000000 -0.821043
vn 0.570867 0.000000 -0.821043
vn -0.023623 0.998578 -0.047799
vn 0.000000 0.073100 0.997325
vn 0.972296 0.233569 -0.009265
vn 0.892496 0.404282 0.200017
vn 0.570865 0.000000 0.821044
vn 0.570865 0.000000 0.821044
vn 0.000000 0.570868 0.821042
vn -0.000384 0.000000 -1.000000
vn 0.002478 0.052367 -0.998625
vn 0.000000 0.796283 -0.604924
vn 0.000000 0.085596 -0.996330
vn 0.000000 1.000000 0.000000
vn 0.893223 -0.397162 -0.210748
vn 0.020633 0.996201 -0.084607
vn -0.084328 0.995987 -0.029962
vn 0.889314 0.406167 -0.210116
vn 0.074217 0.996780 -0.030351
vn 0.000000 0.989876 0.141937
vn 0.986653 0.162025 -0.016272
vn 0.298665 -0.050678 -0.953011
vn 0.014953 -0.041682 -0.999019
vn 0.000000 0.080548 0.996751
vn -0.159948 0.987121 0.002991
vn -0.002230 0.007879 0.999967
vn 0.058558 0.998284 0.000000
vn 0.984226 0.176917 0.000000
vn 0.999776 -0.021148 0.000000
vn 0.987069 -0.019800 0.159070
vn 0.036346 -0.000382 0.999339
vn -0.032762 0.999463 -0.000831
vn 0.999776 -0.021148 0.000000
vn 0.987069 -0.019800 0.159070
vn 0.036346 -0.000382 0.999339
vn 0.003557 0.013457 0.999903
vn -0.040815 0.703439 0.709583
vn 0.004947 0.013413 0.999898
vn 0.954146 -0.053310 0.294558
vn 0.995744 -0.092087 -0.003759
vn -1.000000 0.000000 0.000000
vn -0.965440 0.037753 0.257878
vn 0.765830 -0.012083 0.642930
vn 0.998220 0.052904 -0.027530
vn -0.918155 0.151993 0.365910
vn 0.855906 0.399158 0.328782
vn 0.936256 0.348535 -0.044135
vn 0.817530 0.231169 0.527453
vn 0.967519 0.251531 -0.025276
vn 0.245888 -0.950477 0.190087
vn 0.250873 -0.967698 0.024967
vn 0.963409 0.015961 -0.267561
vn -0.889425 0.374323 0.262308
vn 0.918806 -0.053822 -0.391023
vn -0.879460 0.241734 0.410019
vn -0.973329 0.045704 -0.224815
vn 0.998951 -0.045009 -0.008405
vn -0.702524 0.079168 -0.707242
vn -0.993910 0.102063 0.041555
vn -0.409253 0.043642 -0.911377
vn -0.961897 0.159530 -0.222047
vn 0.999674 0.006502 -0.024699
vn 0.935173 0.351440 -0.044065
vn 0.935512 -0.141734 -0.323617
vn 0.963444 0.266650 -0.025942
vn -0.989791 0.000000 0.142527
vn 0.238421 -0.970837 0.025124
vn -0.079229 -0.996623 0.021575
vn -0.152442 -0.926967 0.342773
vn -0.927584 0.075105 -0.365988
vn -0.351592 -0.918490 0.180994
vn -1.000000 0.000000 0.000000
vn 0.952856 0.002835 -0.303408
vn 0.852494 -0.006839 -0.522692
vn -0.958155 0.090867 -0.271445
vn -0.948850 0.140553 -0.282715
vn 0.844172 0.382633 -0.375454
vn -0.498799 0.094430 -0.861558
vn 0.866847 0.233232 -0.440658
vn -0.881459 0.369685 -0.293877
vn 0.239414 -0.964694 -0.109760
vn -0.995782 0.090011 -0.017773
vn -0.916835 0.243147 -0.316691
vn -0.949308 0.313637 -0.021109
vn -1.000000 0.000000 0.000000
vn -0.925808 0.377858 -0.010138
vn -0.062658 -0.997866 0.018386
vn -0.979794 -0.200002 0.001917
vn -0.980356 -0.197195 0.004001
vn -0.066910 -0.997001 0.038900
vn -0.062806 -0.997642 0.027678
vn -0.347043 -0.932472 -0.100288
vn -0.056928 0.000000 -0.998378
vn -0.570866 0.000000 0.821043
vn 0.000000 -0.570868 0.821042
vn -0.453759 -0.051121 -0.889657
vn -0.127437 -0.991774 0.012011
vn -0.548846 0.179417 -0.816442
vn -0.375356 -0.035013 -0.926219
vn -0.018722 -0.999043 0.039519
s 1
g main
usemtl initialShadingGroup
f 2/2/1 3/3/2 1/1/3 21/24/4
f 5/5/5 6/6/6 4/4/7 20/23/8
f 7/7/9 8/8/10 9/9/11 10/10/12
f 13/13/13 11/11/14 12/12/15 213/365/16
f 14/14/17 12/12/15 11/11/14 26/29/18
f 15/17/19 16/18/20 17/19/21 18/20/22
f 8/22/10 19/21/23 1/1/3 9/336/11
f 3/3/2 2/2/1 11/11/14 13/13/13
f 21/24/4 1/1/3 19/21/23 49/67/24
f 23/26/25 17/19/21 24/27/26 25/28/27 22/25/28
g textureEditorIsolateSelectSet main
f 27/30/29 28/31/30 29/32/31 30/33/32
g main
f 32/35/33 8/8/10 7/7/9 34/40/34
f 19/21/23 8/22/10 32/36/33 35/45/35
f 33/37/36 15/17/19 18/20/22 28/38/30
f 4/41/7 14/42/17 26/43/18 20/44/8
f 7/15/9 10/16/12 38/48/37
f 38/48/37 10/16/12 25/51/27
f 25/51/27 10/16/12 22/50/28
f 10/16/12 39/49/38 22/50/28
f 40/52/39 32/35/33 34/40/34 42/55/40
f 32/36/33 40/54/39 41/53/41 35/45/35
f 11/11/14 2/2/1 43/56/42 26/29/18
f 43/58/42 37/57/43 20/44/8 26/43/18
f 43/56/42 2/2/1 21/24/4 45/63/44
f 37/47/43 5/5/5 20/23/8
f 37/57/43 43/58/42 45/61/44 44/62/45
g textureEditorIsolateSelectSet main
f 46/64/46 27/30/29 30/33/32 47/65/47
g main
f 49/67/24 19/21/23 35/45/35 62/86/48
f 41/53/41 40/54/39 50/68/49 61/85/50
g textureEditorIsolateSelectSet main
f 36/69/51 47/65/47 51/70/52 5/71/5
f 52/72/53 53/73/54 51/70/52
f 51/70/52 53/73/54 54/74/55 6/75/6
f 51/70/52 6/75/6 5/71/5
g main
f 16/18/20 55/76/56 24/27/26 17/19/21
f 25/28/27 24/27/26 38/77/37
f 36/46/51 44/60/45 56/78/57
f 56/78/57 44/60/45 68/93/58
f 57/79/59 42/462/40 66/460/60
f 35/45/35 41/53/41 58/80/61 62/86/48
f 45/63/44 21/24/4 49/67/24 67/92/62
f 31/34/63 59/81/64 16/18/20 15/17/19
f 24/82/26 7/15/9 38/48/37
g textureEditorIsolateSelectSet main
f 60/83/65 33/84/36 28/31/30 27/30/29
g main
f 34/39/34 7/15/9 24/82/26
f 63/87/66 64/88/67 65/89/68
f 58/80/61 41/53/41 61/85/50 82/122/69
f 69/94/70 31/34/63 15/17/19 33/37/36
f 48/66/71 42/59/40 34/452/34
f 61/96/50 50/97/49 57/95/59 66/104/60
g textureEditorIsolateSelectSet main
f 70/90/72 60/83/65 27/30/29 46/64/46
g main
f 61/85/50 73/101/73 72/100/74 71/99/75
f 49/67/24 62/86/48 75/103/76 67/92/62
f 76/105/77 73/106/73 61/96/50 66/104/60
f 75/103/76 62/86/48 58/80/61 78/115/78
f 77/107/79 74/102/80 68/93/58
f 56/78/57 68/93/58 74/102/80
f 67/110/62 75/108/76 68/109/58
f 68/109/58 75/108/76 77/114/79
f 76/113/77 66/461/60 55/111/56
f 75/108/76 78/116/78 77/114/79
f 77/114/79 78/116/78 80/120/81
f 80/118/81 79/117/82 77/107/79
f 77/107/79 79/117/82 74/102/80
f 72/100/74 73/101/73 81/119/83 88/131/84
f 81/121/83 73/106/73 76/105/77 90/137/85
f 61/85/50 71/99/75 82/122/69
f 82/122/69 71/99/75 83/123/86
f 57/95/59 50/97/49 40/52/39 42/55/40
f 71/99/75 72/100/74 83/123/86
f 83/123/86 72/100/74 91/134/87
f 84/124/88 85/125/89 86/126/90
f 65/127/68 64/128/67 59/81/64 31/34/63
f 58/80/61 82/122/69 78/115/78
f 78/115/78 82/122/69 93/136/91
g textureEditorIsolateSelectSet main
f 87/98/92 69/129/70 33/84/36 60/83/65
g main
f 79/117/82 80/118/81 89/132/93
f 89/132/93 80/118/81 96/140/94
f 91/134/87 72/100/74 88/131/84 104/151/95
f 44/62/45 45/61/44 67/110/62 68/109/58
f 92/135/96 65/127/68 31/34/63 69/94/70
g textureEditorIsolateSelectSet main
f 94/130/97 87/98/92 60/83/65 70/90/72
f 56/138/57 46/64/46 47/65/47 36/69/51
g main
f 88/131/84 98/142/98 97/141/99 95/139/100
f 82/122/69 83/123/86 99/143/101 93/136/91
f 100/144/102 63/87/66 65/89/68 92/145/96
f 88/146/84 81/121/83 90/137/85 101/147/103
f 99/143/101 83/123/86 91/134/87 102/149/104
f 98/148/98 88/146/84 101/147/103 108/163/105
f 97/141/99 98/142/98 103/150/106 110/166/107
f 104/151/95 88/131/84 95/139/100 111/167/108
f 99/152/101 105/153/109 93/154/91
f 93/154/91 105/153/109 96/157/94
f 99/152/101 102/156/104 105/153/109
f 105/153/109 102/156/104 107/162/110
f 96/140/94 105/455/109 89/132/93
f 95/139/100 97/141/99 106/159/111 111/167/108
g textureEditorIsolateSelectSet main
f 85/160/89 92/161/96 69/129/70 87/98/92
g main
f 107/164/110 89/155/93 105/158/109
f 102/149/104 91/134/87 109/165/112
f 109/165/112 91/134/87 104/151/95
f 106/159/111 97/141/99 110/166/107 125/190/113
f 107/162/110 102/156/104 109/168/112 123/188/114
f 101/169/103 90/457/85 112/172/115
f 112/170/115 90/458/85 113/459/116
f 108/173/105 101/169/103 112/172/115
f 84/124/88 100/144/102 92/145/96 85/125/89
g textureEditorIsolateSelectSet main
f 86/174/90 85/160/89 87/98/92 94/130/97
g main
f 110/166/107 103/150/106 114/175/117 119/180/118
f 89/155/93 107/164/110 115/176/119
f 115/176/119 107/164/110 123/203/114
f 114/175/117 117/178/120 116/177/121 119/180/118
f 104/151/95 111/167/108 118/179/122 109/165/112
f 118/179/122 111/167/108 106/159/111 121/185/123
f 114/183/117 103/184/106 120/182/124 122/186/125
f 117/187/120 114/183/117 122/186/125 130/197/126
f 125/190/113 110/166/107 119/180/118 142/215/127
f 127/192/128 128/193/129 126/191/130 135/204/131
f 129/194/132 128/195/129 117/187/120 130/197/126
f 109/168/112 118/196/122 123/188/114
f 123/188/114 118/196/122 131/199/133
f 118/196/122 121/198/123 131/199/133
f 131/199/133 121/198/123 143/216/134
f 126/191/130 133/201/135 132/200/136 135/204/131
f 119/180/118 116/177/121 134/202/137 142/215/127
f 121/185/123 106/159/111 125/190/113 144/217/138
f 122/205/125 120/181/124 139/211/139
f 136/207/140 126/206/130 128/195/129 129/194/132
f 138/209/141 133/210/135 126/206/130 136/207/140
f 130/212/126 122/205/125 139/211/139
f 140/213/142 141/214/143 64/88/67 63/87/66
f 145/218/144 127/192/128 135/204/131 150/230/145
f 135/204/131 132/200/136 146/219/146 150/230/145
f 123/203/114 131/220/133 115/176/119
f 146/223/146 132/221/136 147/222/147 155/237/148
f 143/224/134 115/176/119 131/220/133
f 136/226/140 129/225/132 148/228/149
f 138/227/141 136/226/140 148/228/149
f 125/190/113 142/215/127 149/229/150 144/217/138
f 80/120/81 78/116/78 93/154/91 96/157/94
f 149/229/150 142/215/127 134/202/137 151/231/151
f 152/232/152 115/176/119 143/224/134 158/241/153
f 153/233/154 140/213/142 63/87/66 100/144/102
f 144/236/138 149/234/150 154/235/155 158/245/153
f 149/234/150 151/239/151 156/238/156 154/235/155
f 145/218/144 150/230/145 159/242/157 160/244/158
f 159/242/157 150/230/145 146/219/146 161/246/159
f 161/248/159 146/223/146 155/237/148 163/255/160
f 154/454/155 152/232/152 158/241/153
f 159/251/157 162/252/161 160/253/158
f 160/253/158 162/252/161 169/262/162
f 156/254/156 152/250/152 154/249/155
f 161/257/159 164/256/163 159/251/157
f 159/251/157 164/256/163 162/252/161
f 165/258/164 153/233/154 100/144/102 84/124/88
f 166/259/165 167/260/166 168/261/167
f 169/266/162 162/453/161 170/263/168
f 164/268/163 170/264/168 162/265/161
f 165/258/164 84/124/88 86/126/90 171/269/169
f 173/273/170 170/267/168 164/272/163 174/274/171
f 66/91/60 42/59/40 55/112/56
f 42/59/40 48/66/71 55/112/56
f 175/275/172 176/276/173 177/277/174
f 120/182/124 103/184/106 98/148/98 108/163/105
f 59/81/64 64/128/67 141/279/143 178/278/175 55/76/56
f 108/173/105 112/172/115 179/280/176
f 128/193/129 127/192/128 116/177/121 117/178/120
f 180/281/177 181/282/178 141/214/143 140/213/142
g textureEditorIsolateSelectSet main
f 79/247/82 89/270/93 94/130/97 70/90/72
g main
f 182/283/179 180/281/177 140/213/142 153/233/154
f 183/284/180 147/222/147 132/221/136 133/285/135
f 139/211/139 120/181/124 137/208/181
f 130/212/126 139/211/139 184/286/182
f 116/177/121 127/192/128 145/218/144 134/202/137
f 133/210/135 138/209/141 185/287/183 183/288/180
f 186/289/184 129/225/132 130/212/126 184/286/182
f 187/290/185 182/283/179 153/233/154 165/258/164
f 157/243/186 147/222/147 183/284/180 185/291/183
f 143/216/134 121/198/123 144/236/138 158/245/153
f 148/228/149 129/225/132 186/289/184
f 181/293/178 168/292/167 157/240/187 124/189/188 179/322/176
f 188/294/189 187/290/185 165/258/164 171/269/169
f 138/227/141 148/228/149 189/295/190
g textureEditorIsolateSelectSet main
f 171/271/169 89/270/93 115/296/191
g main
f 138/298/141 157/243/186 185/291/183
f 166/259/165 168/261/167 181/282/178 180/281/177
f 134/202/137 145/218/144 160/244/158 151/231/151
f 190/299/192 166/259/165 180/281/177 182/283/179
f 55/76/56 48/300/71 24/27/26
f 48/300/71 34/301/34 24/27/26
g textureEditorIsolateSelectSet main
f 79/247/82 70/90/72 46/64/46 56/138/57
g main
f 167/303/166 157/240/187 168/292/167
f 160/253/158 169/262/162 156/238/156 151/239/151
f 192/305/193 191/304/194 157/240/187 167/303/166
f 169/266/162 170/263/168 152/250/152 156/254/156
f 177/277/174 190/299/192 182/283/179 187/290/185
f 163/306/160 174/307/171 164/256/163 161/257/159
f 190/299/192 192/308/193 167/260/166 166/259/165
f 175/275/172 177/277/174 187/290/185 188/294/189
f 174/274/171 163/255/160 155/237/148 173/273/170
g textureEditorIsolateSelectSet main
f 176/297/173 193/302/195 191/309/194 192/310/193
g main
f 177/277/174 176/276/173 192/308/193 190/299/192
g textureEditorIsolateSelectSet main
f 175/311/172 172/312/196 193/302/195 176/297/173
g main
f 90/133/85 76/113/77 113/171/116
f 113/171/116 76/113/77 178/314/175
f 76/113/77 55/111/56 178/314/175
g textureEditorIsolateSelectSet main
f 56/138/57 74/313/80 79/247/82
g main
f 120/181/124 108/173/105 137/208/181
f 124/316/197 137/208/181 108/173/105
f 108/173/105 179/280/176 124/316/197
f 138/298/141 189/317/190 157/243/186
f 191/319/198 193/320/199 173/273/170
f 193/320/199 172/321/200 173/273/170
f 173/273/170 172/321/200 170/267/168
f 173/273/170 155/237/148 191/319/198
f 155/237/148 147/222/147 191/319/198
f 191/319/198 147/222/147 157/243/186
f 113/324/116 178/278/175 141/279/143 181/293/178
f 113/324/116 181/293/178 112/323/115
f 112/323/115 181/293/178 179/322/176
g textureEditorIsolateSelectSet main
f 171/271/169 115/296/191 188/315/189
f 188/315/189 115/296/191 152/318/201
g main
f 148/328/149 186/329/184 189/327/190
f 139/331/139 137/332/181 184/330/182
f 189/327/190 186/329/184 157/240/186
f 186/329/184 184/330/182 157/240/186
f 157/240/187 184/330/202 124/189/188
f 184/330/182 137/332/181 124/189/197
g textureEditorIsolateSelectSet main
f 172/312/196 175/311/172 188/315/189 152/318/201 170/325/203
g main
f 12/12/15 14/14/17 194/333/204 199/341/205
f 28/38/30 18/20/22 195/334/206 29/335/31
f 194/337/204 14/42/17 196/338/207
f 196/338/207 14/42/17 4/41/7
f 194/333/204 198/340/208 197/339/209 199/341/205
f 198/343/208 194/337/204 200/342/210
f 200/342/210 194/337/204 196/338/207
f 197/339/209 198/340/208 201/344/211 204/348/212
f 196/456/207 4/4/7 6/6/6 54/355/55
f 201/344/211 203/347/213 202/346/214 204/348/212
f 202/350/214 203/351/213 205/349/215 210/361/216
f 1/1/3 3/3/2 206/352/217 9/336/11
f 207/354/218 201/353/211 198/343/208 200/342/210
f 200/357/210 196/345/207 54/367/55 53/356/54
f 206/352/217 3/3/2 13/13/13 212/364/219
f 208/358/220 203/359/213 201/353/211 207/354/218
f 18/20/22 17/19/21 23/26/25 195/334/206
f 9/9/11 206/362/217 211/363/221 10/10/12
f 213/365/16 12/12/15 199/341/205 215/371/222
f 211/366/221 209/360/223 10/16/12
f 207/368/218 200/357/210 53/356/54 52/374/53
f 209/360/223 211/366/221 221/382/224 228/392/225
f 212/370/219 214/369/226 206/362/217
f 206/362/217 214/369/226 211/363/221
f 215/371/222 199/341/205 197/339/209 216/373/227
f 216/373/227 197/339/209 204/348/212 217/375/228
f 212/364/219 13/13/13 213/365/16 222/383/229
f 39/49/38 10/16/12 209/360/223
f 217/375/228 204/348/212 202/346/214 219/387/230
g textureEditorIsolateSelectSet main
f 47/65/47 30/33/32 218/326/231 51/70/52
g main
f 219/377/230 202/350/214 210/361/216 224/388/232
f 52/374/53 208/378/220 207/368/218
f 223/384/233 52/380/53 254/436/234
f 221/382/224 211/366/221 214/372/226 226/390/235
f 220/385/236 205/386/215 203/359/213 208/358/220
g textureEditorIsolateSelectSet main
f 30/33/32 29/32/31 225/376/237 218/326/231
g main
f 213/365/16 215/371/222 227/391/238 222/383/229
f 227/391/238 215/371/222 216/373/227 229/393/239
f 230/395/240 222/396/229 227/394/238 235/403/241
f 222/396/229 230/395/240 226/399/235
f 220/381/236 223/384/233 210/361/216 205/349/215
f 232/398/242 229/393/239 216/373/227 217/375/228
f 230/400/240 231/397/243 221/382/224 226/390/235
f 232/398/242 217/375/228 219/387/230 236/405/244
f 235/403/241 227/394/238 229/404/239 240/410/245
f 236/406/244 219/377/230 224/388/232 239/409/246
f 237/407/247 231/397/243 230/400/240 235/412/241
f 232/411/242 240/410/245 229/404/239
f 232/411/242 236/414/244 241/413/248 240/410/245
f 237/407/247 235/412/241 240/415/245 243/417/249
f 214/369/226 212/370/219 222/396/229 226/399/235
f 29/335/31 195/334/206 244/418/250 225/419/237
f 245/420/251 243/417/249 240/415/245 241/423/248
f 249/426/252 247/424/253 248/425/254 251/429/255
f 250/428/256 245/422/251 241/427/248 253/431/257
f 195/334/206 23/26/25 252/430/258 244/418/250
g textureEditorIsolateSelectSet main
f 51/70/52 218/326/231 234/389/259 233/401/260
g main
f 210/361/216 223/384/233 250/428/256 224/388/232
f 228/392/225 221/382/224 231/397/243
f 231/397/243 237/407/247 238/408/261
g textureEditorIsolateSelectSet main
f 254/402/234 233/401/260 249/432/252 255/433/262
f 218/326/231 225/376/237 247/434/253 234/389/259
f 234/389/259 247/434/253 249/432/252 233/401/260
g main
f 242/416/263 243/417/249 245/420/251 246/437/264
f 241/413/248 236/414/244 239/438/246 253/439/257
f 255/440/262 249/426/252 251/429/255 256/441/265
f 224/388/232 250/428/256 253/431/257 239/409/246
f 225/419/237 244/418/250 248/425/254 247/424/253
f 244/418/250 252/430/258 251/429/255 248/425/254
f 238/408/261 237/407/247 243/417/249 242/416/263
g textureEditorIsolateSelectSet main
f 51/70/52 233/401/260 52/72/53
f 233/401/260 254/402/234 52/72/53
g main
f 242/443/263 252/430/258 238/451/261
f 242/443/263 246/444/264 252/430/258
f 251/429/255 252/430/258 246/444/264 256/441/265
f 246/421/264 245/422/251 250/428/256 256/446/265
f 250/428/256 223/384/233 256/446/265
f 256/446/265 223/384/233 255/445/262
f 255/445/262 223/384/233 254/436/234
f 23/26/25 22/25/28 39/447/38 252/430/258
f 39/447/38 209/448/223 252/430/258
f 252/430/258 209/448/223 228/449/225
f 238/451/261 252/430/258 231/450/243
f 231/450/243 252/430/258 228/449/225
f 55/76/56 16/18/20 59/81/64
g textureEditorIsolateSelectSet main
f 37/435/43 44/442/45 36/69/51 5/71/5
g main
f 223/384/233 220/381/236 208/379/220 52/380/53
g textureEditorIsolateSelectSet main
f 171/271/169 86/174/90 94/130/97 89/270/93
