# This file uses centimeters as units for non-parametric coordinates.

mtllib bal_arrow_low.mtl
g default
v 0.034540 -0.028883 -0.589340
v -0.019219 -0.049922 -0.589340
v -0.072978 -0.028883 -0.589340
v -0.095245 0.021909 -0.589340
v -0.072978 0.072701 -0.589340
v -0.019219 0.093740 -0.589340
v 0.034540 0.072701 -0.589340
v 0.056808 0.021909 -0.589340
v -0.019219 0.021909 -0.760139
v 0.029449 0.021909 -0.540353
v 0.015195 -0.020502 -0.540353
v 0.015195 0.064320 -0.540353
v -0.019219 0.081886 -0.540353
v -0.053633 0.064320 -0.540353
v -0.067887 0.021909 -0.540353
v -0.053633 -0.020502 -0.540353
v -0.019219 -0.038069 -0.540353
v 0.004594 0.021909 -0.543132
v -0.002380 0.001158 -0.543132
v -0.002380 0.042660 -0.543132
v -0.019219 0.051255 -0.543132
v -0.036057 0.042660 -0.543132
v -0.043032 0.021909 -0.543132
v -0.036057 0.001158 -0.543132
v -0.019219 -0.007437 -0.543132
v 0.005298 0.021909 0.643991
v -0.001883 0.000544 0.643991
v -0.001883 0.043273 0.643991
v -0.019219 0.052123 0.643991
v -0.036555 0.043273 0.643991
v -0.043736 0.021909 0.643991
v -0.036555 0.000544 0.643991
v -0.019219 -0.008306 0.643991
v 0.022279 0.021909 0.721733
v 0.010125 -0.014254 0.721733
v 0.010125 0.058072 0.721733
v -0.019219 0.073050 0.721733
v -0.048564 0.058072 0.721733
v -0.060718 0.021909 0.721733
v -0.048564 -0.014254 0.721733
v -0.019219 -0.029233 0.721733
v 0.009768 0.021909 0.738526
v 0.001278 -0.003351 0.738526
v 0.001278 0.047169 0.738526
v -0.019219 0.057631 0.738526
v -0.039716 0.047169 0.738526
v -0.048206 0.021909 0.738526
v -0.039716 -0.003351 0.738526
v -0.019219 -0.013813 0.738526
vt 0.933146 0.974587
vt 0.936112 0.969887
vt 0.940604 0.969615
vt 0.945360 0.971714
vt 0.947862 0.973570
vt 0.946922 0.978508
vt 0.939942 0.986953
vt 0.933124 0.982024
vt 0.729368 0.959298
vt 0.699399 0.978402
vt 0.695478 0.931048
vt 0.666237 0.966195
vt 0.653263 0.935786
vt 0.659173 0.903257
vt 0.688804 0.884004
vt 0.722263 0.895989
vt 0.736434 0.926451
vt 0.748125 0.925139
vt 0.733700 0.969680
vt 0.724186 0.884905
vt 0.688387 0.879153
vt 0.654828 0.892736
vt 0.640679 0.937198
vt 0.664332 0.977418
vt 0.700068 0.983224
vt 0.748431 0.925105
vt 0.738913 0.967988
vt 0.729644 0.885399
vt 0.687801 0.873163
vt 0.649729 0.894314
vt 0.640145 0.937258
vt 0.659010 0.977010
vt 0.700824 0.989195
vt 0.928006 0.496572
vt 0.936308 0.496646
vt 0.931737 0.942874
vt 0.923074 0.943658
vt 0.944623 0.496722
vt 0.940428 0.942255
vt 0.951812 0.498004
vt 0.947961 0.943592
vt 0.959000 0.498078
vt 0.955379 0.944611
vt 0.967310 0.498166
vt 0.963797 0.946164
vt 0.975599 0.498252
vt 0.972251 0.947579
vt 0.913713 0.497664
vt 0.920853 0.497729
vt 0.915697 0.946016
vt 0.908433 0.946893
vt 0.933365 0.964592
vt 0.928419 0.970616
vt 0.940423 0.963615
vt 0.946314 0.965361
vt 0.951504 0.968434
vt 0.954824 0.976578
vt 0.956192 0.987111
vt 0.925129 0.977131
vt 0.922521 0.987321
vn 0.159413 -0.123107 0.979506
vn 0.205507 -0.000000 0.978656
vn 0.159413 0.123108 0.979506
vn -0.000001 0.196059 0.980592
vn -0.159409 0.123106 0.979507
vn -0.205513 -0.000000 0.978654
vn -0.159409 -0.123105 0.979507
vn -0.000001 -0.196059 0.980592
vn 0.700492 -0.698146 -0.147997
vn 0.000000 -0.983100 -0.183070
vn 0.000002 0.000000 -1.000000
vn -0.700495 -0.698143 -0.147997
vn -0.992848 0.000000 -0.119389
vn -0.700495 0.698143 -0.147997
vn 0.000000 0.983100 -0.183070
vn 0.700492 0.698146 -0.147997
vn 0.992848 0.000000 -0.119387
vn 0.785553 0.000000 0.618795
vn 0.593056 -0.586129 0.552030
vn 0.593055 0.586129 0.552030
vn 0.000000 0.880646 0.473775
vn -0.593063 0.586127 0.552025
vn -0.785560 0.000000 0.618785
vn -0.593063 -0.586127 0.552025
vn 0.000000 -0.880646 0.473775
vn 0.999314 0.000000 0.037031
vn 0.775714 -0.629662 0.042350
vn 0.775714 0.629662 0.042349
vn 0.000000 0.998736 0.050265
vn -0.775715 0.629661 0.042349
vn -0.999314 0.000000 0.037031
vn -0.775715 -0.629661 0.042349
vn 0.000000 -0.998736 0.050265
vn 0.999818 0.000000 -0.019083
vn 0.776936 -0.629222 -0.021214
vn 0.776936 0.629222 -0.021214
vn 0.000000 0.999705 -0.024279
vn -0.776937 0.629221 -0.021215
vn -0.999818 0.000000 -0.019084
vn -0.776937 -0.629221 -0.021215
vn 0.000000 -0.999705 -0.024279
vn 0.998814 0.000000 -0.048682
vn 0.764271 -0.642298 -0.057826
vn 0.764270 0.642299 -0.057826
vn -0.000001 0.997407 -0.071965
vn -0.764272 0.642296 -0.057831
vn -0.998814 0.000000 -0.048688
vn -0.764272 -0.642295 -0.057831
vn -0.000001 -0.997407 -0.071964
s 1
g Ballista_lowpoly_baking__1_:pCone2
usemtl initialShadingGroup
f 43/1/1 42/2/2 44/3/3 45/4/4 46/5/5 47/6/6 48/7/7 49/8/8
f 1/9/9 2/10/10 9/11/11
f 2/10/10 3/12/12 9/11/11
f 3/12/12 4/13/13 9/11/11
f 4/13/13 5/14/14 9/11/11
f 5/14/14 6/15/15 9/11/11
f 6/15/15 7/16/16 9/11/11
f 7/16/16 8/17/17 9/11/11
f 8/17/17 1/9/9 9/11/11
f 1/9/9 8/17/17 10/18/18 11/19/19
f 8/17/17 7/16/16 12/20/20 10/18/18
f 7/16/16 6/15/15 13/21/21 12/20/20
f 6/15/15 5/14/14 14/22/22 13/21/21
f 5/14/14 4/13/13 15/23/23 14/22/22
f 4/13/13 3/12/12 16/24/24 15/23/23
f 3/12/12 2/10/10 17/25/25 16/24/24
f 2/10/10 1/9/9 11/19/19 17/25/25
f 11/19/19 10/18/18 18/26/26 19/27/27
f 10/18/18 12/20/20 20/28/28 18/26/26
f 12/20/20 13/21/21 21/29/29 20/28/28
f 13/21/21 14/22/22 22/30/30 21/29/29
f 14/22/22 15/23/23 23/31/31 22/30/30
f 15/23/23 16/24/24 24/32/32 23/31/31
f 16/24/24 17/25/25 25/33/33 24/32/32
f 17/25/25 11/19/19 19/27/27 25/33/33
f 19/34/27 18/35/26 26/36/34 27/37/35
f 18/35/26 20/38/28 28/39/36 26/36/34
f 20/38/28 21/40/29 29/41/37 28/39/36
f 21/40/29 22/42/30 30/43/38 29/41/37
f 22/42/30 23/44/31 31/45/39 30/43/38
f 23/44/31 24/46/32 32/47/40 31/45/39
f 24/48/32 25/49/33 33/50/41 32/51/40
f 25/49/33 19/34/27 27/37/35 33/50/41
f 27/37/35 26/36/34 34/52/42 35/53/43
f 26/36/34 28/39/36 36/54/44 34/52/42
f 28/39/36 29/41/37 37/55/45 36/54/44
f 29/41/37 30/43/38 38/56/46 37/55/45
f 30/43/38 31/45/39 39/57/47 38/56/46
f 31/45/39 32/47/40 40/58/48 39/57/47
f 32/51/40 33/50/41 41/59/49 40/60/48
f 33/50/41 27/37/35 35/53/43 41/59/49
f 35/53/43 34/52/42 42/2/2 43/1/1
f 34/52/42 36/54/44 44/3/3 42/2/2
f 36/54/44 37/55/45 45/4/4 44/3/3
f 37/55/45 38/56/46 46/5/5 45/4/4
f 38/56/46 39/57/47 47/6/6 46/5/5
f 39/57/47 40/58/48 48/7/7 47/6/6
f 40/60/48 41/59/49 49/8/8 48/7/7
f 41/59/49 35/53/43 43/1/1 49/8/8
