# This file uses centimeters as units for non-parametric coordinates.

mtllib Ballista_low.mtl
g default
v 0.270294 0.407905 -0.153403
v 0.270294 0.427118 -0.136850
v -0.351395 0.427118 -0.136850
v -0.351395 0.407905 -0.153403
v 0.286301 0.427118 -0.153403
v 0.270294 0.407905 -0.285838
v 0.286301 0.427118 -0.285838
v 0.286301 0.580837 -0.153403
v 0.270294 0.580837 -0.136850
v 0.270294 0.427118 -0.302390
v -0.351395 0.407905 -0.285838
v -0.351395 0.427118 -0.302390
v 0.270294 0.580837 -0.302390
v 0.286301 0.580837 -0.285838
v 0.270294 0.600049 -0.153403
v -0.351395 0.600049 -0.153403
v -0.351395 0.580837 -0.136850
v 0.270294 0.600049 -0.285838
v -0.351395 0.580837 -0.302390
v -0.351395 0.600049 -0.285838
v -0.367402 0.580837 -0.153403
v -0.367402 0.427118 -0.153403
v -0.367402 0.580837 -0.285838
v -0.367402 0.427118 -0.285838
v -0.319093 0.414184 -0.227118
v -0.196119 0.414184 -0.227118
v -0.196119 0.414184 -0.117635
v -0.208415 0.414184 -0.105651
v -0.306797 0.414184 -0.105651
v -0.319093 0.414184 -0.117635
v -0.208415 0.414184 -0.367151
v -0.196119 0.414184 -0.355167
v -0.319093 0.414184 -0.355167
v -0.306797 0.414184 -0.367151
v -0.319093 0.625323 -0.355167
v -0.306797 0.631075 -0.367151
v -0.319093 0.780081 -0.222145
v -0.306797 0.793992 -0.227118
v -0.306797 0.631075 -0.105651
v -0.319093 0.631075 -0.117635
v -0.306797 0.793992 -0.105651
v -0.319093 0.780081 -0.117635
v -0.208415 0.793992 -0.227118
v -0.196119 0.780081 -0.222145
v -0.196119 0.625323 -0.355167
v -0.208415 0.631075 -0.367151
v -0.208415 0.793992 -0.105651
v -0.196119 0.780081 -0.117635
v -0.208415 0.631075 -0.105651
v -0.196119 0.631075 -0.117635
v -0.319093 0.631075 -0.227118
v -0.196119 0.631075 -0.227118
v -0.264609 1.096193 -0.118227
v -0.264609 1.150115 -0.069003
v -0.206473 1.150115 -0.069003
v -0.206473 1.096193 -0.118227
v -0.264609 1.169851 -0.001761
v -0.206473 1.169851 -0.001761
v -0.264609 1.150115 0.065480
v -0.206473 1.150115 0.065480
v -0.264609 1.096193 0.114704
v -0.206473 1.096193 0.114704
v -0.264609 1.022535 0.132721
v -0.206473 1.022535 0.132721
v -0.264609 1.022535 -0.136244
v -0.206473 1.022535 -0.136244
v -0.264609 1.022535 -0.001761
v -0.129334 1.096193 -0.118227
v -0.129334 1.150115 -0.069003
v -0.129334 1.022535 -0.001761
v -0.129334 1.169851 -0.001761
v -0.129334 1.150115 0.065480
v -0.129334 1.096193 0.114704
v -0.129334 1.022535 0.132721
v -0.129334 1.022535 -0.136244
v -0.206473 0.419571 0.132721
v -0.264609 0.419571 0.132721
v -0.206473 0.419571 -0.136244
v -0.264609 0.419571 -0.136244
v -0.264609 0.419571 -0.001761
v -0.129334 0.419571 0.132721
v -0.129334 0.419571 -0.001761
v -0.129334 0.419571 -0.136244
v -0.206473 0.403099 0.132721
v -0.264609 0.403099 0.132721
v -0.206473 0.403099 -0.136244
v -0.264609 0.403099 -0.136244
v -0.264609 0.403099 -0.001761
v -0.264609 0.403099 -0.001972
v -0.129334 0.403099 0.132721
v -0.129334 0.403099 -0.001761
v -0.129334 0.403099 -0.136244
v -0.206473 0.403099 -0.001881
v -0.196119 0.414184 0.226266
v -0.319093 0.414184 0.226266
v -0.319093 0.414184 0.116783
v -0.306797 0.414184 0.104798
v -0.208415 0.414184 0.104798
v -0.196119 0.414184 0.116783
v -0.306797 0.414184 0.366299
v -0.319093 0.414184 0.354315
v -0.196119 0.414184 0.354315
v -0.208415 0.414184 0.366299
v -0.196119 0.625323 0.354315
v -0.208415 0.631075 0.366299
v -0.196119 0.780081 0.221293
v -0.208415 0.793992 0.226266
v -0.208415 0.631075 0.104798
v -0.196119 0.631075 0.116783
v -0.208415 0.793992 0.104798
v -0.196119 0.780081 0.116783
v -0.306797 0.793992 0.226266
v -0.319093 0.780081 0.221293
v -0.319093 0.625323 0.354315
v -0.306797 0.631075 0.366299
v -0.306797 0.793992 0.104798
v -0.319093 0.780081 0.116783
v -0.306797 0.631075 0.104798
v -0.319093 0.631075 0.116783
v -0.196119 0.631075 0.226266
v -0.319093 0.631075 0.226266
v 0.232759 0.414184 0.226266
v 0.109785 0.414184 0.226266
v 0.109785 0.414184 0.116783
v 0.122081 0.414184 0.104798
v 0.220463 0.414184 0.104798
v 0.232759 0.414184 0.116783
v 0.122081 0.414184 0.366299
v 0.109785 0.414184 0.354315
v 0.232759 0.414184 0.354315
v 0.220463 0.414184 0.366299
v 0.232759 0.625323 0.354315
v 0.220463 0.631075 0.366299
v 0.232759 0.780081 0.221293
v 0.220463 0.793992 0.226266
v 0.220463 0.631075 0.104798
v 0.232759 0.631075 0.116783
v 0.220463 0.793992 0.104798
v 0.232759 0.780081 0.116783
v 0.122081 0.793992 0.226266
v 0.109785 0.780081 0.221293
v 0.109785 0.625323 0.354315
v 0.122081 0.631075 0.366299
v 0.122081 0.793992 0.104798
v 0.109785 0.780081 0.116783
v 0.122081 0.631075 0.104798
v 0.109785 0.631075 0.116783
v 0.232759 0.631075 0.226266
v 0.109785 0.631075 0.226266
v 0.270294 0.407905 0.306295
v 0.270294 0.427118 0.322847
v -0.351395 0.427118 0.322847
v -0.351395 0.407905 0.306295
v 0.286301 0.427118 0.306295
v 0.270294 0.407905 0.173860
v 0.286301 0.427118 0.173860
v 0.286301 0.580837 0.306295
v 0.270294 0.580837 0.322847
v 0.270294 0.427118 0.157307
v -0.351395 0.407905 0.173860
v -0.351395 0.427118 0.157307
v 0.270294 0.580837 0.157307
v 0.286301 0.580837 0.173860
v 0.270294 0.600049 0.306295
v -0.351395 0.600049 0.306295
v -0.351395 0.580837 0.322847
v 0.270294 0.600049 0.173860
v -0.351395 0.580837 0.157307
v -0.351395 0.600049 0.173860
v -0.367402 0.580837 0.306295
v -0.367402 0.427118 0.306295
v -0.367402 0.580837 0.173860
v -0.367402 0.427118 0.173860
v 0.109785 0.414184 -0.227118
v 0.232759 0.414184 -0.227118
v 0.232759 0.414184 -0.117635
v 0.220463 0.414184 -0.105651
v 0.122081 0.414184 -0.105651
v 0.109785 0.414184 -0.117635
v 0.220463 0.414184 -0.367151
v 0.232759 0.414184 -0.355167
v 0.109785 0.414184 -0.355167
v 0.122081 0.414184 -0.367151
v 0.109785 0.625323 -0.355167
v 0.122081 0.631075 -0.367151
v 0.109785 0.780081 -0.222145
v 0.122081 0.793992 -0.227118
v 0.122081 0.631075 -0.105651
v 0.109785 0.631075 -0.117635
v 0.122081 0.793992 -0.105651
v 0.109785 0.780081 -0.117635
v 0.220463 0.793992 -0.227118
v 0.232759 0.780081 -0.222145
v 0.232759 0.625323 -0.355167
v 0.220463 0.631075 -0.367151
v 0.220463 0.793992 -0.105651
v 0.232759 0.780081 -0.117635
v 0.220463 0.631075 -0.105651
v 0.232759 0.631075 -0.117635
v 0.109785 0.631075 -0.227118
v 0.232759 0.631075 -0.227118
v -0.314369 0.276862 -0.429107
v -0.529399 0.276862 -0.193244
v -0.529399 0.432853 -0.193244
v -0.314369 0.432853 -0.429107
v -0.561123 0.276862 0.120765
v -0.561123 0.432853 0.120765
v -0.397423 0.276862 0.392978
v -0.397423 0.432853 0.392978
v -0.100828 0.276862 0.519419
v -0.100828 0.432853 0.519419
v 0.215374 0.276862 0.451792
v 0.272425 0.432853 0.451792
v 0.430404 0.276862 0.215929
v 0.430404 0.432853 0.215929
v 0.462127 0.276862 -0.098080
v 0.462127 0.432853 -0.098080
v 0.298428 0.276862 -0.370293
v 0.298428 0.432853 -0.370293
v 0.001833 0.276862 -0.496734
v 0.001833 0.432853 -0.496734
v -0.049498 0.276862 0.011342
v -0.049498 0.432853 0.011342
v -0.249171 -0.004035 -0.322142
v -0.394387 -0.004035 -0.180602
v -0.394387 0.261168 -0.180602
v -0.249171 0.261168 -0.322142
v -0.582846 0.048367 -0.232093
v -0.637164 0.048367 -0.034507
v -0.637164 0.208766 -0.034507
v -0.582846 0.208766 -0.232093
v -0.447541 -0.004035 0.012744
v -0.394387 -0.004035 0.206091
v -0.394387 0.261168 0.206091
v -0.447541 0.261168 0.012744
v -0.529653 0.053462 0.344017
v -0.390681 0.053462 0.479471
v -0.390681 0.203671 0.479471
v -0.529653 0.203671 0.344017
v -0.249171 -0.004035 0.347631
v -0.050801 -0.004035 0.399438
v -0.050801 0.261168 0.399438
v -0.249171 0.261168 0.347631
v -0.009220 0.042909 0.586061
v 0.207296 0.042909 0.529515
v 0.207296 0.214225 0.529515
v -0.009220 0.214225 0.586061
v 0.147569 -0.004035 0.347631
v 0.292786 -0.004035 0.206091
v 0.292786 0.261168 0.206091
v 0.147569 0.261168 0.347631
v 0.477862 0.038380 0.269885
v 0.538945 0.038380 0.047692
v 0.538945 0.218754 0.047692
v 0.477862 0.218754 0.269885
v 0.345939 -0.004035 0.012744
v 0.292786 -0.004035 -0.180602
v 0.292786 0.261168 -0.180602
v 0.345939 0.261168 0.012744
v 0.434395 0.046607 -0.312346
v 0.282736 0.046607 -0.460165
v 0.282736 0.210527 -0.460165
v 0.434395 0.210527 -0.312346
v 0.147569 -0.004035 -0.322142
v -0.050801 -0.004035 -0.373949
v -0.050801 0.261168 -0.373949
v 0.147569 0.261168 -0.322142
v -0.095161 0.045108 -0.559847
v -0.306118 0.045108 -0.504753
v -0.306118 0.212025 -0.504753
v -0.095161 0.212025 -0.559847
v -0.050801 -0.004035 0.012744
v -0.050801 0.261168 0.012744
v -0.566085 0.006357 0.012744
v -0.497050 0.006357 -0.238374
v -0.566085 0.250777 0.012744
v -0.497050 0.250777 -0.238374
v -0.308443 0.006357 0.447693
v -0.497050 0.006357 0.263862
v -0.308443 0.250777 0.447693
v -0.497050 0.250777 0.263862
v 0.206841 0.006357 0.447693
v -0.050801 0.006357 0.514980
v 0.206841 0.250777 0.447693
v -0.050801 0.250777 0.514980
v 0.464483 0.006357 0.012744
v 0.395448 0.006357 0.263862
v 0.464483 0.250777 0.012744
v 0.395448 0.250777 0.263862
v 0.206841 0.006357 -0.422205
v 0.395448 0.006357 -0.238374
v 0.206841 0.250777 -0.422205
v 0.395448 0.250777 -0.238374
v -0.308443 0.006357 -0.422205
v -0.050801 0.006357 -0.489492
v -0.308443 0.250777 -0.422205
v -0.050801 0.250777 -0.489492
v -0.046883 1.041698 -0.828889
v -0.041617 1.041698 -0.982491
v 0.116025 1.041698 -0.828889
v -0.039629 1.178603 -0.982491
v -0.658164 1.123922 0.003990
v -0.685969 1.123922 -0.007422
v -0.709755 1.123922 0.010952
v -0.705736 1.123922 0.040739
v -0.677930 1.123922 0.052151
v -0.654145 1.123922 0.033777
v -0.658164 1.234003 0.003990
v -0.685969 1.234003 -0.007422
v -0.709755 1.234003 0.010952
v -0.705736 1.234003 0.040739
v -0.677930 1.234003 0.052151
v -0.654145 1.234003 0.033777
v -0.681950 1.123922 0.022364
v -0.681950 1.234003 0.022364
v 0.625000 1.123922 0.000294
v 0.597194 1.123922 -0.011118
v 0.573409 1.123922 0.007256
v 0.577428 1.123922 0.037043
v 0.605233 1.123922 0.048455
v 0.629019 1.123922 0.030081
v 0.625000 1.234003 0.000294
v 0.597194 1.234003 -0.011118
v 0.573409 1.234003 0.007256
v 0.577428 1.234003 0.037043
v 0.605233 1.234003 0.048455
v 0.629019 1.234003 0.030081
v 0.601214 1.123922 0.018668
v 0.601214 1.234003 0.018668
v 0.293716 1.128260 -0.419882
v 0.241180 1.128168 -0.375773
v 0.134864 1.128082 -0.403556
v 0.085632 1.128065 -0.553568
v 0.176202 1.151901 -0.705441
v 0.222199 1.151932 -0.723036
v 0.424231 1.152362 -0.687930
v 0.557874 1.162620 -0.595245
v 0.626927 1.174600 -0.482662
v 0.651772 1.177704 -0.356270
v 0.647857 1.177575 -0.268216
v 0.593716 1.177160 -0.129411
v 0.557677 1.176829 -0.053659
v 0.572570 1.176677 -0.024451
v 0.605069 1.176672 -0.033722
v 0.645016 1.176585 -0.027412
v 0.650258 1.176479 0.020129
v 0.623078 1.176462 0.065978
v 0.560574 1.176462 0.088577
v 0.509157 1.176475 0.056885
v 0.486651 1.176617 -0.001705
v 0.502419 1.177130 -0.103264
v 0.518902 1.176257 -0.197540
v 0.515846 1.172602 -0.280648
v 0.479998 1.165298 -0.388833
v 0.437654 1.158460 -0.500976
v 0.363070 1.152492 -0.594915
v 0.279795 1.148352 -0.614007
v 0.219707 1.135142 -0.574836
v 0.209413 1.128174 -0.516476
v 0.241374 1.128212 -0.460922
v 0.290125 1.128272 -0.447248
v 0.097463 1.128069 -0.465491
v 0.224782 1.128195 -0.488477
v 0.319923 1.152058 -0.725370
v 0.250496 1.144280 -0.607455
v 0.290125 1.055723 -0.447248
v 0.241180 1.094371 -0.375773
v 0.134864 1.094457 -0.403556
v 0.241374 1.055782 -0.460922
v 0.219707 1.048852 -0.574836
v 0.176202 1.070637 -0.705441
v 0.222199 1.070607 -0.723036
v 0.250496 1.039713 -0.607455
v 0.319923 1.070481 -0.725370
v 0.279795 1.035643 -0.614007
v 0.424231 1.070177 -0.687930
v 0.363070 1.031502 -0.594915
v 0.097463 1.094469 -0.465491
v 0.224782 1.055799 -0.488477
v 0.085632 1.094473 -0.553568
v 0.209413 1.055820 -0.516476
v 0.293716 1.055734 -0.419882
v 0.557874 1.059918 -0.595245
v 0.437654 1.025535 -0.500976
v 0.515846 1.011392 -0.280648
v 0.651772 1.044834 -0.356270
v 0.647857 1.044963 -0.268216
v 0.518948 1.007671 -0.195464
v 0.626927 1.047939 -0.482662
v 0.479998 1.018697 -0.388833
v 0.502419 1.006864 -0.103264
v 0.593716 1.045379 -0.129411
v 0.557677 1.045710 -0.053659
v 0.486651 1.007378 -0.001705
v 0.560574 1.007532 0.088577
v 0.605069 1.045866 -0.033722
v 0.645016 1.045953 -0.027412
v 0.623078 1.007532 0.065978
v 0.572570 1.045861 -0.024451
v 0.509157 1.007519 0.056885
v 0.650258 1.007514 0.020129
v -0.377902 1.128260 -0.419882
v -0.325366 1.128168 -0.375773
v -0.219051 1.128082 -0.403556
v -0.169818 1.128065 -0.553568
v -0.260388 1.151901 -0.705441
v -0.306386 1.151932 -0.723036
v -0.508421 1.157373 -0.687932
v -0.642060 1.166013 -0.595245
v -0.711114 1.174600 -0.482662
v -0.735959 1.177704 -0.356270
v -0.732043 1.177575 -0.268216
v -0.677903 1.177160 -0.129411
v -0.641863 1.176829 -0.053659
v -0.656756 1.176677 -0.024451
v -0.689255 1.176672 -0.033722
v -0.729203 1.176585 -0.027412
v -0.734445 1.176479 0.020129
v -0.707265 1.176462 0.065978
v -0.644760 1.176462 0.088577
v -0.593343 1.176475 0.056885
v -0.570838 1.176617 -0.001705
v -0.586606 1.177130 -0.103264
v -0.603088 1.176257 -0.197540
v -0.600033 1.172602 -0.280648
v -0.564185 1.165298 -0.388833
v -0.521841 1.158460 -0.500976
v -0.447257 1.152492 -0.594915
v -0.363981 1.148352 -0.614007
v -0.303893 1.135142 -0.574836
v -0.293599 1.128174 -0.516476
v -0.325560 1.128212 -0.460922
v -0.374311 1.128272 -0.447248
v -0.181649 1.128069 -0.465491
v -0.308968 1.128195 -0.488477
v -0.404109 1.152058 -0.725370
v -0.334682 1.144280 -0.607455
v -0.374311 1.055723 -0.447248
v -0.325366 1.094371 -0.375773
v -0.219051 1.094457 -0.403556
v -0.325560 1.055782 -0.460922
v -0.303893 1.048852 -0.574836
v -0.260388 1.070637 -0.705441
v -0.306386 1.070607 -0.723036
v -0.334682 1.039713 -0.607455
v -0.404109 1.070481 -0.725370
v -0.363981 1.035643 -0.614007
v -0.508418 1.070177 -0.687930
v -0.447257 1.031502 -0.594915
v -0.181649 1.094469 -0.465491
v -0.308968 1.055799 -0.488477
v -0.169818 1.094473 -0.553568
v -0.293599 1.055820 -0.516476
v -0.377902 1.055734 -0.419882
v -0.642060 1.059918 -0.595245
v -0.521841 1.025535 -0.500976
v -0.600033 1.011392 -0.280648
v -0.735959 1.044834 -0.356270
v -0.732043 1.044963 -0.268216
v -0.603088 1.007737 -0.197540
v -0.711114 1.047939 -0.482662
v -0.564185 1.018697 -0.388833
v -0.586606 1.006864 -0.103264
v -0.677903 1.045379 -0.129411
v -0.641863 1.045710 -0.053659
v -0.570838 1.007378 -0.001705
v -0.644760 1.007532 0.088577
v -0.689255 1.045866 -0.033722
v -0.729203 1.045953 -0.027412
v -0.707265 1.007532 0.065978
v -0.656756 1.045861 -0.024451
v -0.593343 1.007519 0.056885
v -0.734445 1.007514 0.020129
v 0.025748 1.130403 -0.389539
v 0.025748 1.088676 -0.389539
v 0.056403 1.136291 -0.508497
v 0.056403 1.082788 -0.508497
v 0.173017 1.175817 -0.706984
v 0.173017 1.043261 -0.706984
v 0.039649 1.175056 -0.729686
v 0.039649 1.044023 -0.729686
v 0.041616 1.176092 -0.753758
v 0.041616 1.042239 -0.753758
v 0.116025 1.177381 -0.828889
v 0.173097 1.177101 -0.731683
v 0.173097 1.041978 -0.731683
v 0.081814 1.042059 -0.756924
v 0.081814 1.177020 -0.756924
v 0.159067 1.177317 -0.747454
v 0.159067 1.041762 -0.747454
v 0.111381 1.041698 -0.768871
v 0.111381 1.177381 -0.768871
v -0.042093 1.130075 -0.389539
v -0.042093 1.135729 -0.508497
v -0.042093 1.172221 -0.706984
v -0.042093 1.171791 -0.729686
v -0.042093 1.165720 -0.753758
v -0.042093 1.144782 -0.828889
v -0.042093 1.042258 -0.753758
v -0.042093 1.044078 -0.729686
v -0.042093 1.046825 -0.706984
v -0.042093 1.083350 -0.508497
v -0.042093 1.089004 -0.389539
v -0.042093 1.046101 -0.217072
v -0.042093 1.172978 -0.217072
v 0.020472 1.046094 -0.217072
v 0.020472 1.172985 -0.217072
v -0.042093 1.041698 -0.008369
v -0.042093 1.177381 -0.008369
v 0.059826 1.041698 -0.008369
v 0.059826 1.177381 -0.008369
v -0.042093 1.041698 0.056828
v -0.042093 1.177381 0.056828
v 0.044324 1.041698 0.056828
v 0.044324 1.177381 0.056828
v -0.042093 1.041698 0.200835
v -0.042093 1.165131 0.200835
v 0.044324 1.041698 0.200835
v 0.044324 1.175087 0.200835
v -0.042093 1.039201 0.330499
v -0.042093 1.147560 0.330499
v 0.089314 1.041698 0.330499
v 0.089314 1.175629 0.330499
v -0.042093 1.039201 0.415985
v -0.042093 1.147560 0.415985
v 0.133036 1.041698 0.415985
v 0.133036 1.177381 0.415985
v -0.042093 1.039201 0.482538
v -0.042093 1.147560 0.482538
v 0.133036 1.041698 0.482538
v 0.133036 1.177381 0.482538
v -0.042093 1.040339 0.908247
v -0.042093 1.157820 0.908247
v 0.037123 1.041626 0.908247
v 0.037123 1.167130 0.908247
v -0.042093 1.040429 0.924312
v -0.042093 1.158283 0.924312
v 0.013358 1.041240 0.924312
v 0.013358 1.163249 0.924312
v 0.030387 1.049613 -0.237245
v 0.030387 1.169466 -0.237245
v 0.107603 1.177381 -0.124260
v 0.107603 1.041698 -0.124260
v 0.095544 1.050004 -0.255419
v 0.095544 1.169075 -0.255419
v 0.127663 1.175317 -0.216542
v 0.127663 1.043762 -0.216542
v -0.109935 1.130403 -0.389539
v -0.109935 1.088676 -0.389539
v -0.140589 1.136291 -0.508497
v -0.140589 1.082788 -0.508497
v -0.257203 1.175817 -0.706984
v -0.257203 1.043261 -0.706984
v -0.123835 1.175056 -0.729686
v -0.123835 1.044023 -0.729686
v -0.125803 1.176092 -0.753758
v -0.125803 1.042239 -0.753758
v -0.200211 1.177381 -0.828889
v -0.200211 1.041698 -0.828889
v -0.257284 1.177101 -0.731683
v -0.257284 1.041978 -0.731683
v -0.166001 1.042059 -0.756924
v -0.166001 1.177020 -0.756924
v -0.243253 1.177317 -0.747454
v -0.243253 1.041762 -0.747454
v -0.195568 1.041698 -0.768871
v -0.195568 1.177381 -0.768871
v -0.104658 1.046094 -0.217072
v -0.104658 1.172985 -0.217072
v -0.144012 1.041698 -0.008369
v -0.144012 1.177381 -0.008369
v -0.128510 1.041698 0.056828
v -0.128510 1.177381 0.056828
v -0.128510 1.041698 0.200835
v -0.128510 1.175087 0.200835
v -0.173501 1.041698 0.330499
v -0.173501 1.175629 0.330499
v -0.217222 1.041698 0.415985
v -0.217222 1.177381 0.415985
v -0.217222 1.041698 0.482538
v -0.217222 1.177381 0.482538
v -0.121309 1.041626 0.908247
v -0.121309 1.167130 0.908247
v -0.097544 1.041240 0.924312
v -0.097544 1.163249 0.924312
v -0.114574 1.049613 -0.237245
v -0.114574 1.169466 -0.237245
v -0.191789 1.177381 -0.124260
v -0.191789 1.041698 -0.124260
v -0.179730 1.050004 -0.255419
v -0.179730 1.169075 -0.255419
v -0.211849 1.175317 -0.216542
v -0.211849 1.043762 -0.216542
v 0.025748 1.127401 -0.389539
v 0.020472 1.163856 -0.217072
v 0.030387 1.160843 -0.237245
v 0.095544 1.160509 -0.255419
v 0.127663 1.165853 -0.216542
v 0.107603 1.167620 -0.124260
v 0.059826 1.167620 -0.008369
v 0.044324 1.167620 0.056828
v 0.044324 1.165484 0.200835
v 0.089314 1.165824 0.330499
v 0.133036 1.167620 0.415985
v 0.133036 1.167620 0.482538
v 0.037123 1.157482 0.908247
v 0.013358 1.153626 0.924312
v -0.042093 1.148691 0.924312
v -0.097544 1.153626 0.924312
v -0.121309 1.157482 0.908247
v -0.217222 1.167620 0.482538
v -0.217222 1.167620 0.415985
v -0.173501 1.165824 0.330499
v -0.128510 1.165484 0.200835
v -0.128510 1.167620 0.056828
v -0.144012 1.167620 -0.008369
v -0.191789 1.167620 -0.124260
v -0.211849 1.165853 -0.216542
v -0.179730 1.160509 -0.255419
v -0.114574 1.160843 -0.237245
v -0.104658 1.163856 -0.217072
v -0.109935 1.127401 -0.389539
v -0.140589 1.132441 -0.508497
v -0.257203 1.166281 -0.706984
v -0.257284 1.167380 -0.731683
v -0.243253 1.167565 -0.747454
v -0.195568 1.167620 -0.768871
v -0.166001 1.167311 -0.756924
v -0.123835 1.165629 -0.729686
v -0.125803 1.166465 -0.753758
v -0.200211 1.167620 -0.828889
v -0.040105 1.152588 -0.982491
v 0.116025 1.167620 -0.828889
v 0.041616 1.166465 -0.753758
v 0.039649 1.165629 -0.729686
v 0.081814 1.167311 -0.756924
v 0.111381 1.167620 -0.768871
v 0.159067 1.167565 -0.747454
v 0.173097 1.167380 -0.731683
v 0.173017 1.166281 -0.706984
v 0.056403 1.132441 -0.508497
v 0.032382 1.096193 -0.118227
v 0.032382 1.150115 -0.069003
v 0.091670 1.150115 -0.069003
v 0.091670 1.096193 -0.118227
v 0.032382 1.169851 -0.001761
v 0.091670 1.169851 -0.001761
v 0.032382 1.150115 0.065480
v 0.091670 1.150115 0.065480
v 0.032382 1.096193 0.114704
v 0.091670 1.096193 0.114704
v 0.032382 1.022535 0.132721
v 0.091670 1.022535 0.132721
v 0.032382 1.022535 -0.136244
v 0.091670 1.022535 -0.136244
v 0.032382 1.022535 -0.001761
v 0.170336 1.096193 -0.118227
v 0.170336 1.150115 -0.069003
v 0.170336 1.022535 -0.001761
v 0.170336 1.169851 -0.001761
v 0.170336 1.150115 0.065480
v 0.170336 1.096193 0.114704
v 0.170336 1.022535 0.132721
v 0.170336 1.022535 -0.136244
v 0.091670 0.419571 0.132721
v 0.032382 0.419571 0.132721
v 0.091670 0.419571 -0.136244
v 0.032382 0.419571 -0.136244
v 0.032382 0.419571 -0.001761
v 0.170336 0.419571 0.132721
v 0.170336 0.419571 -0.001761
v 0.170336 0.419571 -0.136244
v 0.091670 0.403099 0.132721
v 0.032382 0.403099 0.132721
v 0.091670 0.403099 -0.136244
v 0.032382 0.403099 -0.136244
v 0.032382 0.403099 -0.001761
v 0.170336 0.403099 0.132721
v 0.170336 0.403099 -0.001761
v 0.170336 0.403099 -0.136244
v 0.091670 0.403099 -0.001881
vt 0.788290 0.306244
vt 0.788342 0.301651
vt 0.900923 0.302935
vt 0.900870 0.307527
vt 0.935440 0.417551
vt 0.934387 0.408227
vt 0.985629 0.407806
vt 0.984755 0.416907
vt 0.927033 0.416749
vt 0.936242 0.474823
vt 0.927675 0.475854
vt 0.787964 0.334818
vt 0.788017 0.330226
vt 0.900597 0.331510
vt 0.900545 0.336102
vt 0.993321 0.415877
vt 0.993963 0.474981
vt 0.985557 0.474180
vt 0.787269 0.395822
vt 0.787321 0.391230
vt 0.899901 0.392513
vt 0.899849 0.397105
vt 0.935367 0.483925
vt 0.986609 0.483504
vt 0.787594 0.367247
vt 0.787647 0.362655
vt 0.900227 0.363938
vt 0.900175 0.368531
vt 0.823075 0.408991
vt 0.822422 0.418539
vt 0.757561 0.421195
vt 0.756132 0.411522
vt 0.832954 0.417062
vt 0.834995 0.475103
vt 0.824656 0.474391
vt 0.826086 0.484064
vt 0.759143 0.486595
vt 0.759795 0.477047
vt 0.747222 0.420483
vt 0.749264 0.478524
vt 0.788660 0.273815
vt 0.901240 0.275098
vt 0.595872 0.080458
vt 0.596839 0.098414
vt 0.574645 0.095450
vt 0.571945 0.093341
vt 0.577304 0.081191
vt 0.579685 0.080350
vt 0.626428 0.092603
vt 0.623075 0.094409
vt 0.613191 0.078168
vt 0.615287 0.078341
vt 0.615835 0.044829
vt 0.619131 0.043902
vt 0.592034 0.021716
vt 0.592854 0.018525
vt 0.569689 0.046807
vt 0.572914 0.046678
vt 0.573927 0.020735
vt 0.576091 0.023162
vt 0.589901 0.166752
vt 0.589049 0.163202
vt 0.618460 0.136565
vt 0.621433 0.138188
vt 0.566498 0.163411
vt 0.569728 0.160642
vt 0.568815 0.132449
vt 0.572015 0.133035
vt 0.592893 0.045182
vt 0.593170 0.136246
vt 0.550367 0.047025
vt 0.633055 0.038909
vt 0.598125 0.003525
vt 0.565928 0.008547
vt 0.753633 0.221587
vt 0.766519 0.231852
vt 0.761796 0.243497
vt 0.743602 0.230338
vt 0.781870 0.235126
vt 0.782752 0.247466
vt 0.797009 0.231076
vt 0.803229 0.242033
vt 0.809363 0.220269
vt 0.820219 0.228001
vt 0.816305 0.204562
vt 0.831389 0.207952
vt 0.746216 0.206173
vt 0.731091 0.210237
vt 0.781051 0.202727
vt 0.173112 0.151829
vt 0.171732 0.160180
vt 0.157139 0.152024
vt 0.166441 0.166345
vt 0.158658 0.168673
vt 0.150467 0.166539
vt 0.144064 0.160516
vt 0.170213 0.143531
vt 0.823774 0.047854
vt 0.811545 0.053882
vt 0.736455 0.047776
vt 0.748584 0.053830
vt 0.780106 0.051040
vt 0.105988 0.101897
vt 0.119062 0.093405
vt 0.132136 0.084912
vt 0.820583 0.043539
vt 0.810971 0.051252
vt 0.739975 0.043849
vt 0.749143 0.051230
vt 0.780166 0.046513
vt 0.780123 0.046491
vt 0.104948 0.100296
vt 0.118022 0.091803
vt 0.131096 0.083311
vt 0.780265 0.032997
vt 0.730298 0.243237
vt 0.712317 0.216138
vt 0.719516 0.036769
vt 0.725937 0.030540
vt 0.781068 0.014132
vt 0.834460 0.032562
vt 0.840910 0.038101
vt 0.850298 0.212418
vt 0.834985 0.239190
vt 0.812056 0.257788
vt 0.784322 0.265268
vt 0.755643 0.260407
vt 0.517614 0.129897
vt 0.516234 0.112319
vt 0.530168 0.109555
vt 0.532219 0.109813
vt 0.542764 0.124225
vt 0.539597 0.126021
vt 0.495041 0.113518
vt 0.497451 0.112807
vt 0.492653 0.126812
vt 0.489920 0.124925
vt 0.491077 0.163332
vt 0.487961 0.164207
vt 0.512846 0.192807
vt 0.511233 0.195905
vt 0.538500 0.167732
vt 0.535412 0.167544
vt 0.533751 0.198041
vt 0.531369 0.194649
vt 0.507260 0.052691
vt 0.508923 0.055424
vt 0.491666 0.081441
vt 0.488647 0.080763
vt 0.525367 0.051030
vt 0.524003 0.053842
vt 0.535932 0.076189
vt 0.532634 0.076337
vt 0.515066 0.166752
vt 0.512985 0.078035
vt 0.550711 0.073781
vt 0.470674 0.078278
vt 0.501345 0.038690
vt 0.533377 0.039702
vt 0.636238 0.182422
vt 0.621698 0.191891
vt 0.613471 0.171914
vt 0.613931 0.168640
vt 0.626670 0.167259
vt 0.628521 0.168842
vt 0.640827 0.213816
vt 0.637700 0.211885
vt 0.646505 0.195791
vt 0.647372 0.197627
vt 0.675643 0.181920
vt 0.678008 0.184227
vt 0.683479 0.150881
vt 0.686541 0.150027
vt 0.651732 0.144309
vt 0.653395 0.146942
vt 0.675565 0.135275
vt 0.674581 0.138255
vt 0.561240 0.219056
vt 0.563796 0.216632
vt 0.600244 0.228363
vt 0.600321 0.231630
vt 0.552744 0.197886
vt 0.556617 0.199250
vt 0.579738 0.184888
vt 0.580791 0.187845
vt 0.664282 0.162918
vt 0.588312 0.207073
vt 0.642230 0.128266
vt 0.688897 0.193457
vt 0.701620 0.147198
vt 0.681892 0.122711
vt 0.853452 0.415224
vt 0.853007 0.405936
vt 0.903921 0.407052
vt 0.902763 0.416121
vt 0.845074 0.414160
vt 0.852464 0.472493
vt 0.843869 0.473255
vt 0.911299 0.415659
vt 0.910152 0.474455
vt 0.901775 0.473391
vt 0.851306 0.481563
vt 0.902535 0.482743
vt 0.723476 0.404767
vt 0.721959 0.414216
vt 0.657125 0.410967
vt 0.656581 0.401203
vt 0.732581 0.413703
vt 0.729339 0.471690
vt 0.719108 0.470040
vt 0.719652 0.479804
vt 0.653096 0.476268
vt 0.654273 0.466790
vt 0.646849 0.409674
vt 0.643651 0.467304
vt 0.436437 0.111151
vt 0.433726 0.092991
vt 0.447998 0.089112
vt 0.450156 0.089248
vt 0.462189 0.103315
vt 0.459041 0.105452
vt 0.411841 0.095705
vt 0.414289 0.094808
vt 0.410208 0.109609
vt 0.407247 0.107780
vt 0.411186 0.147648
vt 0.408010 0.148765
vt 0.435936 0.176715
vt 0.434478 0.180044
vt 0.460852 0.148830
vt 0.457633 0.148849
vt 0.458011 0.180671
vt 0.455304 0.177312
vt 0.420135 0.031691
vt 0.422056 0.034412
vt 0.406154 0.062662
vt 0.402969 0.062116
vt 0.438744 0.028601
vt 0.437547 0.031628
vt 0.451595 0.053926
vt 0.448191 0.054342
vt 0.436410 0.149527
vt 0.427984 0.057576
vt 0.466703 0.050198
vt 0.384136 0.060658
vt 0.412962 0.017563
vt 0.446163 0.016201
vt 0.624400 0.439691
vt 0.555978 0.509756
vt 0.538561 0.477904
vt 0.591500 0.424110
vt 0.460054 0.525618
vt 0.464859 0.489650
vt 0.372694 0.481144
vt 0.397923 0.454929
vt 0.327248 0.392563
vt 0.363318 0.386263
vt 0.340291 0.293636
vt 0.377774 0.299406
vt 0.412532 0.223960
vt 0.428761 0.257092
vt 0.507589 0.209751
vt 0.502421 0.245732
vt 0.594140 0.254065
vt 0.568899 0.280301
vt 0.483781 0.368072
vt 0.603167 0.348433
vt 0.639031 0.341868
vt 0.375541 0.178023
vt 0.359659 0.196686
vt 0.324034 0.173357
vt 0.342760 0.148714
vt 0.338826 0.216658
vt 0.309184 0.230178
vt 0.308603 0.207290
vt 0.327076 0.200512
vt 0.281089 0.226788
vt 0.256548 0.221611
vt 0.261869 0.178712
vt 0.291515 0.184136
vt 0.228885 0.211423
vt 0.205415 0.191930
vt 0.224437 0.180947
vt 0.237401 0.194939
vt 0.194192 0.167191
vt 0.187121 0.144364
vt 0.225094 0.126312
vt 0.236004 0.155962
vt 0.179739 0.118273
vt 0.182798 0.083941
vt 0.204423 0.095242
vt 0.200946 0.115952
vt 0.198984 0.062844
vt 0.214600 0.044298
vt 0.250636 0.066943
vt 0.232117 0.091790
vt 0.233351 0.023167
vt 0.266372 0.007910
vt 0.266915 0.033498
vt 0.246858 0.040771
vt 0.293784 0.013118
vt 0.318264 0.018412
vt 0.313127 0.061422
vt 0.283390 0.056049
vt 0.345981 0.027278
vt 0.371370 0.048651
vt 0.350565 0.060334
vt 0.336895 0.045175
vt 0.381159 0.073483
vt 0.388070 0.096473
vt 0.349922 0.114217
vt 0.339111 0.084436
vt 0.394882 0.122942
vt 0.391670 0.156543
vt 0.370638 0.145381
vt 0.374147 0.125000
vt 0.057639 0.101259
vt 0.075448 0.104531
vt 0.061291 0.136272
vt 0.040809 0.107368
vt 0.029467 0.121222
vt 0.026652 0.139109
vt 0.033119 0.156235
vt 0.047134 0.168013
vt 0.064943 0.171285
vt 0.081773 0.165176
vt 0.093115 0.151322
vt 0.095930 0.133435
vt 0.089463 0.116309
vt 0.287513 0.120102
vt 0.034675 0.098692
vt 0.056534 0.090757
vt 0.300497 0.198415
vt 0.295247 0.231622
vt 0.326900 0.187546
vt 0.351226 0.210619
vt 0.016260 0.139950
vt 0.019916 0.116719
vt 0.228455 0.169006
vt 0.196630 0.180818
vt 0.249211 0.188585
vt 0.239921 0.220494
vt 0.042876 0.177530
vt 0.024673 0.162233
vt 0.215646 0.092694
vt 0.188441 0.072370
vt 0.211702 0.121770
vt 0.179504 0.130927
vt 0.087907 0.173852
vt 0.066048 0.181787
vt 0.274518 0.041835
vt 0.279617 0.008044
vt 0.247459 0.052707
vt 0.222504 0.030259
vt 0.106322 0.132594
vt 0.102666 0.155825
vt 0.346769 0.071502
vt 0.378889 0.059772
vt 0.325750 0.051473
vt 0.334867 0.019380
vt 0.079705 0.095014
vt 0.097908 0.110310
vt 0.359246 0.147911
vt 0.386153 0.168456
vt 0.363265 0.118904
vt 0.395544 0.110075
vt 0.034136 0.090215
vt 0.051335 0.083972
vt 0.008569 0.135421
vt 0.011262 0.118304
vt 0.036478 0.182335
vt 0.021181 0.169480
vt 0.089391 0.181593
vt 0.070050 0.188613
vt 0.113847 0.136296
vt 0.110907 0.154977
vt 0.086354 0.090310
vt 0.101259 0.102834
vt 0.283164 0.610948
vt 0.281528 0.642308
vt 0.452738 0.589193
vt 0.506919 0.594338
vt 0.502829 0.633611
vt 0.484406 0.612706
vt 0.529840 0.643795
vt 0.493990 0.660038
vt 0.498080 0.688250
vt 0.466428 0.664816
vt 0.443901 0.683105
vt 0.448011 0.643856
vt 0.420984 0.633648
vt 0.456913 0.617482
vt 0.535464 0.569601
vt 0.558584 0.579090
vt 0.538807 0.594367
vt 0.515687 0.584878
vt 0.519029 0.609645
vt 0.542149 0.619134
vt 0.561926 0.603856
vt 0.475411 0.638817
vt 0.368592 0.514743
vt 0.422775 0.519887
vt 0.418684 0.559160
vt 0.400261 0.538255
vt 0.445694 0.569344
vt 0.409845 0.585587
vt 0.413934 0.613799
vt 0.382283 0.590366
vt 0.359756 0.608654
vt 0.363865 0.569405
vt 0.336839 0.559197
vt 0.372767 0.543031
vt 0.469481 0.538661
vt 0.492601 0.548150
vt 0.472824 0.563428
vt 0.449705 0.553939
vt 0.453047 0.578705
vt 0.476166 0.588194
vt 0.495943 0.572917
vt 0.391266 0.564366
vt 0.462178 0.872305
vt 0.478431 0.866773
vt 0.490344 0.882698
vt 0.467550 0.879730
vt 0.458602 0.898781
vt 0.452454 0.923245
vt 0.443699 0.921576
vt 0.450473 0.900382
vt 0.445346 0.898438
vt 0.428299 0.912866
vt 0.415301 0.897590
vt 0.434197 0.887697
vt 0.467063 0.885531
vt 0.489264 0.895748
vt 0.481936 0.910066
vt 0.466361 0.891269
vt 0.464214 0.867744
vt 0.402661 0.870942
vt 0.430613 0.866259
vt 0.437614 0.824451
vt 0.408820 0.824705
vt 0.416874 0.810935
vt 0.444499 0.810629
vt 0.401834 0.846954
vt 0.433751 0.844756
vt 0.454928 0.797262
vt 0.436905 0.792882
vt 0.448765 0.783403
vt 0.466108 0.782395
vt 0.463694 0.761258
vt 0.443562 0.775316
vt 0.438298 0.770230
vt 0.452198 0.757716
vt 0.449278 0.777491
vt 0.468182 0.771226
vt 0.442851 0.760100
vt 0.511723 0.986907
vt 0.487969 0.974964
vt 0.488420 0.955527
vt 0.501910 0.952403
vt 0.584629 0.935227
vt 0.578115 0.944219
vt 0.539104 0.930581
vt 0.551768 0.918728
vt 0.606266 0.888874
vt 0.595191 0.914541
vt 0.558167 0.909119
vt 0.571152 0.880380
vt 0.548193 0.973728
vt 0.529326 0.983431
vt 0.511409 0.947774
vt 0.521382 0.943651
vt 0.483868 0.960939
vt 0.623132 0.847387
vt 0.575714 0.839948
vt 0.622892 0.754782
vt 0.626747 0.778081
vt 0.582645 0.763689
vt 0.583726 0.737781
vt 0.628005 0.812807
vt 0.578399 0.800244
vt 0.601642 0.692800
vt 0.609711 0.715582
vt 0.581505 0.710883
vt 0.575019 0.685749
vt 0.605403 0.664509
vt 0.605943 0.675123
vt 0.579977 0.663595
vt 0.590051 0.658487
vt 0.602207 0.683030
vt 0.574828 0.672741
vt 0.599520 0.657501
vt 0.509861 0.996657
vt 0.479446 0.981623
vt 0.472964 0.945882
vt 0.487847 0.934574
vt 0.605170 0.948994
vt 0.596203 0.960700
vt 0.518095 0.913007
vt 0.523551 0.901101
vt 0.630639 0.897722
vt 0.617955 0.925100
vt 0.526547 0.892950
vt 0.534506 0.869704
vt 0.553659 0.982892
vt 0.531788 0.993385
vt 0.497399 0.929729
vt 0.506195 0.925092
vt 0.467623 0.955138
vt 0.653841 0.854472
vt 0.536323 0.834713
vt 0.661788 0.744035
vt 0.666383 0.772436
vt 0.532367 0.761026
vt 0.530664 0.733816
vt 0.666122 0.813885
vt 0.534470 0.797136
vt 0.638481 0.672482
vt 0.647518 0.698799
vt 0.530743 0.702956
vt 0.533062 0.669489
vt 0.617581 0.636976
vt 0.628815 0.649581
vt 0.556420 0.629796
vt 0.579642 0.617569
vt 0.634607 0.661431
vt 0.541527 0.647872
vt 0.600645 0.619793
vt 0.473194 0.808561
vt 0.471413 0.817284
vt 0.452423 0.829039
vt 0.456592 0.810171
vt 0.486961 0.830565
vt 0.494799 0.828728
vt 0.509282 0.844777
vt 0.502200 0.849760
vt 0.498559 0.824954
vt 0.504128 0.810981
vt 0.524816 0.812172
vt 0.519426 0.830900
vt 0.474166 0.822225
vt 0.477085 0.827023
vt 0.470825 0.849899
vt 0.458604 0.840159
vt 0.469566 0.805338
vt 0.498716 0.790569
vt 0.525335 0.783521
vt 0.475778 0.756362
vt 0.464433 0.747112
vt 0.488725 0.736093
vt 0.501369 0.745058
vt 0.487328 0.772790
vt 0.516462 0.761955
vt 0.449561 0.739233
vt 0.433712 0.730548
vt 0.449468 0.724496
vt 0.463763 0.728139
vt 0.427386 0.710871
vt 0.436144 0.703132
vt 0.453459 0.708644
vt 0.450836 0.715254
vt 0.427404 0.721492
vt 0.446647 0.719469
vt 0.445373 0.701500
vt 0.435452 0.953437
vt 0.435322 0.972884
vt 0.411225 0.984126
vt 0.422056 0.949919
vt 0.346055 0.939547
vt 0.339743 0.930360
vt 0.373125 0.914852
vt 0.385470 0.927052
vt 0.329468 0.909332
vt 0.319842 0.883091
vt 0.355064 0.875965
vt 0.366994 0.905071
vt 0.393737 0.980134
vt 0.375171 0.969891
vt 0.402836 0.940612
vt 0.412693 0.945018
vt 0.439842 0.958984
vt 0.304131 0.841198
vt 0.351757 0.835412
vt 0.302857 0.771600
vt 0.307796 0.748374
vt 0.347740 0.733347
vt 0.347526 0.759314
vt 0.300133 0.806406
vt 0.350342 0.795806
vt 0.359202 0.681602
vt 0.351211 0.706024
vt 0.322927 0.709628
vt 0.332196 0.687149
vt 0.345849 0.653587
vt 0.355607 0.659266
vt 0.328962 0.669258
vt 0.330142 0.658697
vt 0.360193 0.668680
vt 0.332217 0.677364
vt 0.336445 0.652047
vt 0.443639 0.979799
vt 0.412786 0.993929
vt 0.436618 0.932489
vt 0.451176 0.944237
vt 0.327570 0.955552
vt 0.318964 0.943652
vt 0.401871 0.898048
vt 0.406981 0.910069
vt 0.306747 0.919651
vt 0.293517 0.891736
vt 0.391977 0.866425
vt 0.399125 0.889843
vt 0.390975 0.990008
vt 0.369444 0.978890
vt 0.418535 0.922477
vt 0.427202 0.927364
vt 0.456246 0.953655
vt 0.272180 0.847081
vt 0.391311 0.831430
vt 0.263547 0.764044
vt 0.269497 0.735690
vt 0.400279 0.732177
vt 0.397688 0.758155
vt 0.261935 0.805698
vt 0.394390 0.794053
vt 0.286102 0.690857
vt 0.296642 0.664881
vt 0.402282 0.668142
vt 0.402656 0.701954
vt 0.307671 0.642491
vt 0.319658 0.630540
vt 0.358761 0.613415
vt 0.381252 0.627028
vt 0.301172 0.654020
vt 0.395077 0.645997
vt 0.337630 0.614389
vt 0.164662 0.727709
vt 0.178076 0.728318
vt 0.198407 0.765735
vt 0.179175 0.772172
vt 0.256972 0.843373
vt 0.216159 0.840817
vt 0.253260 0.863249
vt 0.244211 0.882585
vt 0.206946 0.861102
vt 0.216616 0.852210
vt 0.224582 0.902689
vt 0.221832 0.909536
vt 0.180606 0.874584
vt 0.181919 0.867250
vt 0.212788 0.943353
vt 0.183281 0.910429
vt 0.142220 0.952325
vt 0.255405 0.854385
vt 0.217612 0.846930
vt 0.249884 0.610357
vt 0.238672 0.585283
vt 0.265846 0.590356
vt 0.257137 0.595792
vt 0.236382 0.891579
vt 0.197301 0.863200
vt 0.175765 0.862249
vt 0.213356 0.842118
vt 0.215183 0.847274
vt 0.196202 0.860106
vt 0.238571 0.590335
vt 0.251056 0.598136
vt 0.214054 0.851305
vt 0.205680 0.859045
vt 0.138916 0.773850
vt 0.138129 0.727448
vt 0.163577 0.727720
vt 0.177670 0.772636
vt 0.140366 0.857302
vt 0.140503 0.863972
vt 0.140642 0.871001
vt 0.176461 0.873437
vt 0.140954 0.891188
vt 0.181205 0.908173
vt 0.142132 0.943568
vt 0.241385 0.593603
vt 0.282460 0.595579
vt 0.265358 0.595279
vt 0.282548 0.590645
vt 0.282631 0.585971
vt 0.283368 0.544736
vt 0.263251 0.544388
vt 0.283802 0.520414
vt 0.269944 0.520161
vt 0.284451 0.484112
vt 0.144699 0.235608
vt 0.125823 0.232398
vt 0.125121 0.201107
vt 0.156170 0.204062
vt 0.271668 0.483884
vt 0.285212 0.441466
vt 0.210338 0.683107
vt 0.166305 0.661121
vt 0.136555 0.658481
vt 0.162882 0.658043
vt 0.264391 0.441094
vt 0.285450 0.428147
vt 0.236603 0.634136
vt 0.229406 0.654244
vt 0.193618 0.647252
vt 0.196275 0.633407
vt 0.134177 0.572250
vt 0.169818 0.569435
vt 0.267796 0.427832
vt 0.285976 0.398728
vt 0.217264 0.536802
vt 0.220531 0.558199
vt 0.173661 0.568086
vt 0.170219 0.543725
vt 0.133576 0.545879
vt 0.166459 0.544297
vt 0.268321 0.398412
vt 0.286449 0.372235
vt 0.220060 0.487892
vt 0.171813 0.489137
vt 0.132387 0.490460
vt 0.167964 0.489011
vt 0.131317 0.443295
vt 0.182413 0.437541
vt 0.259599 0.371758
vt 0.286761 0.354772
vt 0.231835 0.438544
vt 0.186087 0.437967
vt 0.250980 0.354133
vt 0.287004 0.341176
vt 0.240857 0.399478
vt 0.195331 0.404034
vt 0.130639 0.413089
vt 0.192158 0.404160
vt 0.251223 0.340537
vt 0.288557 0.254207
vt 0.242173 0.369352
vt 0.195879 0.380690
vt 0.129860 0.388934
vt 0.192531 0.381907
vt 0.126049 0.241479
vt 0.149800 0.242582
vt 0.272372 0.253917
vt 0.288616 0.250925
vt 0.172039 0.209903
vt 0.152462 0.241137
vt 0.277286 0.250722
vt 0.269547 0.488020
vt 0.125908 0.235777
vt 0.143691 0.237913
vt 0.214024 0.676971
vt 0.173515 0.659092
vt 0.184959 0.608066
vt 0.170367 0.657548
vt 0.232682 0.599216
vt 0.188444 0.607226
vt 0.254199 0.464592
vt 0.256173 0.491509
vt 0.193548 0.633814
vt 0.191655 0.646302
vt 0.249730 0.483368
vt 0.326588 0.586853
vt 0.079059 0.767742
vt 0.098215 0.729859
vt 0.111596 0.728737
vt 0.098566 0.773511
vt 0.022763 0.848007
vt 0.064100 0.843019
vt 0.038984 0.885599
vt 0.027298 0.868096
vt 0.064297 0.853992
vt 0.073331 0.863269
vt 0.061129 0.911474
vt 0.058354 0.904688
vt 0.099320 0.868483
vt 0.100931 0.875719
vt 0.070804 0.945073
vt 0.099379 0.911450
vt 0.024588 0.859178
vt 0.063110 0.848979
vt 0.046686 0.893701
vt 0.083628 0.865241
vt 0.326508 0.591905
vt 0.307759 0.596696
vt 0.299249 0.590953
vt 0.323579 0.595071
vt 0.105238 0.863298
vt 0.084622 0.862086
vt 0.065466 0.849273
vt 0.066952 0.844230
vt 0.074813 0.861112
vt 0.066670 0.853229
vt 0.313752 0.599256
vt 0.314487 0.611510
vt 0.100093 0.773908
vt 0.112681 0.728710
vt 0.105005 0.874444
vt 0.101393 0.909137
vt 0.094212 0.205527
vt 0.107122 0.236488
vt 0.299562 0.595890
vt 0.303484 0.545107
vt 0.297661 0.520656
vt 0.297233 0.484340
vt 0.064501 0.685793
vt 0.107054 0.662653
vt 0.306034 0.441838
vt 0.110261 0.659391
vt 0.043345 0.660244
vt 0.035047 0.640165
vt 0.303105 0.428462
vt 0.075451 0.635984
vt 0.078916 0.649202
vt 0.098467 0.571274
vt 0.046617 0.561850
vt 0.049724 0.540578
vt 0.303631 0.399043
vt 0.096817 0.545468
vt 0.094570 0.570129
vt 0.100600 0.545871
vt 0.044740 0.491914
vt 0.092962 0.491038
vt 0.313298 0.372717
vt 0.096798 0.490723
vt 0.030830 0.443444
vt 0.076261 0.440641
vt 0.322542 0.355411
vt 0.079901 0.440035
vt 0.020281 0.405136
vt 0.065037 0.407162
vt 0.322785 0.341815
vt 0.068194 0.407151
vt 0.016501 0.375202
vt 0.063755 0.384058
vt 0.304742 0.254495
vt 0.067170 0.385111
vt 0.078597 0.212117
vt 0.099637 0.242374
vt 0.299945 0.251127
vt 0.102365 0.243695
vt 0.108242 0.238744
vt 0.060793 0.679688
vt 0.315381 0.465685
vt 0.099657 0.661211
vt 0.102719 0.659372
vt 0.085262 0.610283
vt 0.037077 0.604775
vt 0.081694 0.609602
vt 0.080820 0.648298
vt 0.078216 0.636255
vt 0.299205 0.488550
vt 0.319176 0.484608
vt 0.913552 0.016792
vt 0.913948 0.030814
vt 0.312446 0.492514
vt 0.082327 0.021544
vt 0.978717 0.229235
vt 0.957628 0.248220
vt 0.950314 0.236705
vt 0.967119 0.221463
vt 0.931385 0.256848
vt 0.929503 0.243461
vt 0.903598 0.253724
vt 0.907627 0.240735
vt 0.878359 0.238685
vt 0.887910 0.228559
vt 0.859578 0.213716
vt 0.873342 0.209088
vt 0.992094 0.202648
vt 0.977870 0.200623
vt 0.160551 0.102478
vt 0.151837 0.100012
vt 0.159298 0.084633
vt 0.168930 0.100163
vt 0.174727 0.093686
vt 0.176391 0.084783
vt 0.173475 0.075841
vt 0.145122 0.093426
vt 0.952734 0.212218
vt 0.941583 0.223152
vt 0.925123 0.196989
vt 0.927429 0.227770
vt 0.912730 0.225423
vt 0.900072 0.216305
vt 0.892282 0.202028
vt 0.958437 0.196810
vt 0.869955 0.049567
vt 0.856829 0.043276
vt 0.960235 0.044796
vt 0.972703 0.037058
vt 0.119877 0.021072
vt 0.134053 0.012280
vt 0.105700 0.029864
vt 0.885503 0.057513
vt 0.915520 0.053524
vt 0.945448 0.053090
vt 0.873366 0.045107
vt 0.863025 0.037071
vt 0.956134 0.041405
vt 0.966409 0.031184
vt 0.118800 0.019336
vt 0.132976 0.010543
vt 0.104623 0.028128
vt 0.886059 0.054948
vt 0.915076 0.049325
vt 0.944648 0.050200
vt 0.142186 0.986123
vt 0.064112 0.006551
vt 0.037491 0.078933
vt 0.019276 0.063940
vt 0.050802 0.042742
vt 0.013103 0.040850
vt 0.060790 0.080102
vt 0.021330 0.018483
vt 0.080274 0.067001
vt 0.040813 0.005382
vt 0.088501 0.044634
vt 0.655233 0.367678
vt 0.655334 0.362954
vt 0.771145 0.365433
vt 0.771043 0.370157
vt 0.657290 0.271565
vt 0.654705 0.392349
vt 0.770515 0.394828
vt 0.773101 0.274044
vt 0.655947 0.334319
vt 0.656048 0.329595
vt 0.771859 0.332074
vt 0.771757 0.336798
vt 0.656576 0.304924
vt 0.656677 0.300200
vt 0.772488 0.302679
vt 0.772387 0.307403
vt 0.657391 0.266841
vt 0.773202 0.269320
vn 0.027615 -0.991661 0.125884
vn 0.023997 -0.093870 0.995295
vn -0.023997 -0.093870 0.995295
vn -0.027615 -0.991661 0.125884
vn 0.991313 -0.085849 0.099646
vn 0.027614 -0.991661 -0.125884
vn 0.991313 -0.085849 -0.099646
vn 0.991313 0.085849 0.099646
vn 0.023997 0.093870 0.995295
vn 0.023997 -0.093869 -0.995295
vn -0.027614 -0.991661 -0.125884
vn -0.023997 -0.093869 -0.995295
vn 0.023997 0.093869 -0.995295
vn 0.991313 0.085849 -0.099646
vn 0.027614 0.991661 0.125884
vn -0.027614 0.991661 0.125884
vn -0.023997 0.093870 0.995295
vn 0.027614 0.991661 -0.125884
vn -0.023997 0.093869 -0.995295
vn -0.027614 0.991661 -0.125884
vn -0.991313 0.085849 0.099646
vn -0.991313 -0.085849 0.099646
vn -0.991313 0.085849 -0.099646
vn -0.991313 -0.085849 -0.099646
vn -0.848786 -0.528736 0.000000
vn 0.848786 -0.528736 0.000000
vn 0.764348 -0.640144 0.077375
vn 0.079077 -0.678570 0.730266
vn -0.079077 -0.678570 0.730266
vn -0.764348 -0.640144 0.077375
vn 0.072718 -0.730007 -0.679560
vn 0.760284 -0.646151 -0.066760
vn -0.760284 -0.646151 -0.066760
vn -0.072718 -0.730007 -0.679560
vn -0.989668 0.047500 -0.135281
vn -0.099672 0.345628 -0.933063
vn -0.985232 0.143165 -0.093921
vn -0.100013 0.845033 -0.525277
vn -0.105920 0.000000 0.994375
vn -0.994653 0.000000 0.103270
vn -0.095726 0.597146 0.796400
vn -0.987316 0.090153 0.130690
vn 0.100013 0.845033 -0.525277
vn 0.985232 0.143166 -0.093920
vn 0.989668 0.047500 -0.135281
vn 0.099672 0.345628 -0.933063
vn 0.095726 0.597146 0.796400
vn 0.987316 0.090152 0.130690
vn 0.105920 0.000000 0.994375
vn 0.994653 0.000000 0.103270
vn -1.000000 0.000000 0.000000
vn 1.000000 0.000000 0.000000
vn -0.704777 0.330777 -0.627595
vn -0.714687 0.591141 -0.373864
vn 0.000000 0.845158 -0.534516
vn 0.000000 0.466258 -0.884649
vn -0.719731 0.694253 0.000000
vn 0.000000 1.000000 0.000000
vn -0.714687 0.591141 0.373864
vn 0.000000 0.845159 0.534516
vn -0.704778 0.330776 0.627595
vn 0.000000 0.466258 0.884649
vn -0.908007 0.011152 0.418807
vn 0.000000 0.026619 0.999646
vn -0.908006 0.011152 -0.418808
vn 0.000000 0.026619 -0.999646
vn -1.000000 0.000000 0.000000
vn 0.599345 0.373235 -0.708153
vn 0.610137 0.669615 -0.423495
vn 1.000000 0.000000 0.000000
vn 0.615679 0.787997 0.000000
vn 0.610137 0.669616 0.423494
vn 0.599345 0.373235 0.708153
vn 0.852864 0.013899 0.521949
vn 0.852863 0.013899 -0.521949
vn 0.000000 0.000000 1.000000
vn -0.917902 0.000000 0.396808
vn 0.000000 0.000000 -1.000000
vn -0.917899 0.000000 -0.396815
vn -1.000000 0.000000 0.000000
vn 0.867432 0.000000 0.497556
vn 1.000000 0.000000 0.000000
vn 0.867432 0.000000 -0.497556
vn 0.000000 -0.992593 0.121486
vn -0.270433 -0.955614 0.116908
vn 0.000000 -0.992570 -0.121673
vn -0.270844 -0.955465 -0.117177
vn -0.140209 -0.990122 0.000000
vn -0.141386 -0.989955 0.000000
vn 0.207266 -0.971034 0.118887
vn 0.208835 -0.977951 0.000000
vn 0.207440 -0.970984 -0.118987
vn 0.000000 -1.000000 0.000000
vn 0.848786 -0.528737 0.000000
vn -0.848786 -0.528737 0.000000
vn -0.764348 -0.640144 -0.077375
vn -0.079077 -0.678571 -0.730266
vn 0.079077 -0.678571 -0.730266
vn 0.764348 -0.640144 -0.077375
vn -0.072718 -0.730007 0.679560
vn -0.760284 -0.646151 0.066760
vn 0.760284 -0.646152 0.066760
vn 0.072718 -0.730007 0.679560
vn 0.989668 0.047500 0.135281
vn 0.099672 0.345628 0.933063
vn 0.985232 0.143165 0.093921
vn 0.100013 0.845034 0.525277
vn 0.105920 0.000000 -0.994375
vn 0.994653 0.000000 -0.103270
vn 0.095726 0.597146 -0.796400
vn 0.987316 0.090153 -0.130690
vn -0.100013 0.845034 0.525277
vn -0.985232 0.143166 0.093921
vn -0.989668 0.047500 0.135281
vn -0.099672 0.345628 0.933063
vn -0.095726 0.597146 -0.796400
vn -0.987316 0.090153 -0.130690
vn -0.105920 0.000000 -0.994375
vn -0.994653 0.000000 -0.103270
vn 1.000000 0.000000 0.000000
vn -1.000000 0.000000 0.000000
vn 0.848786 -0.528736 0.000000
vn -0.848786 -0.528736 0.000000
vn -0.764348 -0.640145 -0.077375
vn -0.079077 -0.678570 -0.730266
vn 0.079077 -0.678570 -0.730266
vn 0.764348 -0.640145 -0.077375
vn -0.072718 -0.730007 0.679561
vn -0.760284 -0.646151 0.066760
vn 0.760284 -0.646151 0.066760
vn 0.072718 -0.730007 0.679561
vn 0.989668 0.047500 0.135281
vn 0.099672 0.345628 0.933063
vn 0.985232 0.143165 0.093921
vn 0.100013 0.845034 0.525277
vn 0.105920 0.000000 -0.994375
vn 0.994653 0.000000 -0.103270
vn 0.095726 0.597146 -0.796400
vn 0.987316 0.090153 -0.130690
vn -0.100013 0.845034 0.525277
vn -0.985232 0.143165 0.093920
vn -0.989668 0.047500 0.135281
vn -0.099672 0.345628 0.933063
vn -0.095726 0.597146 -0.796400
vn -0.987316 0.090152 -0.130690
vn -0.105920 0.000000 -0.994375
vn -0.994653 0.000000 -0.103270
vn 1.000000 0.000000 0.000000
vn -1.000000 0.000000 0.000000
vn 0.027614 -0.991661 0.125884
vn 0.023997 -0.093870 0.995295
vn -0.023997 -0.093870 0.995295
vn -0.027614 -0.991661 0.125884
vn 0.991313 -0.085849 0.099646
vn 0.027614 -0.991661 -0.125884
vn 0.991313 -0.085849 -0.099646
vn 0.991313 0.085849 0.099646
vn 0.023997 0.093870 0.995295
vn 0.023997 -0.093870 -0.995295
vn -0.027614 -0.991661 -0.125884
vn -0.023997 -0.093870 -0.995295
vn 0.023997 0.093870 -0.995295
vn 0.991313 0.085849 -0.099646
vn 0.027614 0.991661 0.125884
vn -0.027614 0.991661 0.125884
vn -0.023997 0.093870 0.995295
vn 0.027614 0.991661 -0.125884
vn -0.023997 0.093870 -0.995295
vn -0.027614 0.991661 -0.125884
vn -0.991313 0.085849 0.099646
vn -0.991313 -0.085849 0.099646
vn -0.991313 0.085849 -0.099646
vn -0.991313 -0.085849 -0.099646
vn -0.848786 -0.528736 0.000000
vn 0.848786 -0.528736 0.000000
vn 0.764348 -0.640144 0.077375
vn 0.079077 -0.678570 0.730267
vn -0.079077 -0.678570 0.730267
vn -0.764348 -0.640144 0.077375
vn 0.072718 -0.730007 -0.679560
vn 0.760284 -0.646151 -0.066760
vn -0.760284 -0.646151 -0.066760
vn -0.072718 -0.730007 -0.679560
vn -0.989668 0.047500 -0.135281
vn -0.099672 0.345628 -0.933063
vn -0.985232 0.143165 -0.093920
vn -0.100013 0.845033 -0.525277
vn -0.105920 0.000000 0.994375
vn -0.994653 0.000000 0.103270
vn -0.095726 0.597146 0.796400
vn -0.987316 0.090152 0.130690
vn 0.100013 0.845033 -0.525277
vn 0.985232 0.143166 -0.093920
vn 0.989668 0.047500 -0.135281
vn 0.099672 0.345628 -0.933063
vn 0.095726 0.597146 0.796400
vn 0.987316 0.090152 0.130690
vn 0.105920 0.000000 0.994375
vn 0.994653 0.000000 0.103270
vn -1.000000 0.000000 0.000000
vn 1.000000 0.000000 0.000000
vn -0.299329 -0.797421 -0.523948
vn -0.547740 -0.799728 -0.245797
vn -0.547740 0.799728 -0.245797
vn -0.299329 0.797421 -0.523948
vn -0.585114 -0.800181 0.131726
vn -0.585114 0.800181 0.131726
vn -0.394414 -0.798154 0.455398
vn -0.394414 0.798154 0.455398
vn -0.057772 -0.796449 0.601939
vn -0.057772 0.796449 0.601939
vn 0.299329 -0.797421 0.523948
vn 0.299329 0.797421 0.523948
vn 0.547740 -0.799728 0.245797
vn 0.547740 0.799728 0.245797
vn 0.585114 -0.800181 -0.131726
vn 0.585114 0.800181 -0.131726
vn 0.394414 -0.798154 -0.455398
vn 0.394414 0.798154 -0.455398
vn 0.057773 -0.796449 -0.601940
vn 0.057773 0.796449 -0.601939
vn 0.000000 -1.000000 0.000000
vn 0.000000 1.000000 0.000000
vn -0.533225 -0.813683 -0.231499
vn -0.225147 -0.806142 -0.547214
vn -0.225147 0.806142 -0.547214
vn -0.533225 0.813683 -0.231499
vn -0.736524 -0.372142 -0.564839
vn -0.921255 -0.372002 0.113593
vn -0.921255 0.372002 0.113593
vn -0.736524 0.372142 -0.564839
vn -0.463114 -0.810202 0.359303
vn -0.576225 -0.813994 -0.073343
vn -0.576225 0.813993 -0.073343
vn -0.463114 0.810202 0.359303
vn -0.850295 -0.376334 0.367928
vn -0.354732 -0.375994 0.856034
vn -0.354732 0.375994 0.856034
vn -0.850295 0.376334 0.367928
vn 0.071419 -0.805869 0.587770
vn -0.348117 -0.809619 0.472579
vn -0.348117 0.809619 0.472579
vn 0.071419 0.805869 0.587771
vn -0.102124 -0.359571 0.927513
vn 0.546109 -0.359006 0.756888
vn 0.546109 0.359006 0.756888
vn -0.102124 0.359571 0.927513
vn 0.533225 -0.813683 0.231499
vn 0.225148 -0.806142 0.547214
vn 0.225148 0.806142 0.547214
vn 0.533225 0.813683 0.231499
vn 0.749924 -0.354574 0.558473
vn 0.929923 -0.353680 -0.100769
vn 0.929923 0.353680 -0.100769
vn 0.749924 0.354574 0.558473
vn 0.463113 -0.810202 -0.359303
vn 0.576225 -0.813993 0.073343
vn 0.576225 0.813994 0.073343
vn 0.463113 0.810202 -0.359303
vn 0.851430 -0.367260 -0.374416
vn 0.360598 -0.367812 -0.857137
vn 0.360598 0.367812 -0.857137
vn 0.851430 0.367260 -0.374416
vn -0.071419 -0.805869 -0.587770
vn 0.348117 -0.809619 -0.472579
vn 0.348117 0.809619 -0.472579
vn -0.071419 0.805869 -0.587770
vn 0.104554 -0.363387 -0.925753
vn -0.547415 -0.362989 -0.754040
vn -0.547415 0.362989 -0.754040
vn 0.104554 0.363387 -0.925753
vn 0.000000 -1.000000 0.000000
vn 0.000000 1.000000 0.000000
vn -0.289397 -0.657790 0.695386
vn 0.089527 -0.657728 -0.747917
vn -0.289396 0.657790 0.695386
vn 0.089527 0.657727 -0.747917
vn 0.433747 -0.653626 0.620191
vn -0.611283 -0.653785 -0.445980
vn 0.433747 0.653626 0.620191
vn -0.611283 0.653785 -0.445980
vn 0.732730 -0.670422 -0.116795
vn -0.690139 -0.670390 0.272554
vn 0.732730 0.670422 -0.116795
vn -0.690139 0.670390 0.272554
vn 0.242843 -0.670425 -0.701112
vn -0.132432 -0.670521 0.729975
vn 0.242843 0.670425 -0.701112
vn -0.132432 0.670521 0.729975
vn -0.450559 -0.662651 -0.598240
vn 0.588757 -0.662777 0.462700
vn -0.450559 0.662651 -0.598240
vn 0.588757 0.662777 0.462700
vn -0.736875 -0.667463 0.107273
vn 0.688920 -0.667401 -0.282783
vn -0.736875 0.667464 0.107273
vn 0.688919 0.667401 -0.282783
vn 0.000001 -0.999995 0.003168
vn 0.688092 -0.259463 -0.677649
vn 0.890657 -0.339819 -0.302083
vn 0.788126 -0.090638 -0.608804
vn -0.133180 -0.090638 -0.986939
vn -0.133180 0.090638 -0.986939
vn 0.788126 0.090638 -0.608804
vn -0.921304 -0.090638 -0.378131
vn -0.921304 0.090638 -0.378131
vn -0.788124 -0.090638 0.608807
vn -0.788123 0.090638 0.608807
vn 0.133181 -0.090638 0.986939
vn 0.133181 0.090638 0.986939
vn 0.921304 -0.090638 0.378131
vn 0.921304 0.090638 0.378131
vn 0.000000 -1.000000 0.000000
vn 0.000000 1.000000 0.000000
vn 0.788124 -0.090638 -0.608807
vn -0.133181 -0.090638 -0.986939
vn -0.133181 0.090638 -0.986939
vn 0.788123 0.090638 -0.608807
vn -0.921304 -0.090638 -0.378131
vn -0.921304 0.090638 -0.378131
vn -0.788124 -0.090638 0.608807
vn -0.788124 0.090638 0.608807
vn 0.133180 -0.090639 0.986939
vn 0.133180 0.090638 0.986939
vn 0.921304 -0.090639 0.378131
vn 0.921304 0.090638 0.378131
vn 0.000000 -1.000000 0.000000
vn 0.000000 1.000000 0.000000
vn 0.326451 -0.921016 -0.212505
vn 0.082379 -0.592886 0.801062
vn -0.388647 -0.735695 0.554713
vn 0.007045 -0.998994 0.044286
vn -0.016186 -0.992628 0.120114
vn -0.629825 -0.631604 -0.452103
vn -0.166174 -0.615096 -0.770742
vn 0.098445 -0.978473 0.181380
vn -0.066593 -0.942515 0.327462
vn 0.123386 -0.602605 -0.788443
vn 0.359122 -0.639766 -0.679507
vn -0.272535 -0.929033 0.250246
vn 0.007846 -0.998915 -0.045910
vn -0.572509 -0.795438 0.198777
vn -0.725565 -0.656525 -0.206228
vn -0.024509 -0.999606 0.013707
vn 0.819845 -0.298568 0.488581
vn 0.525813 -0.665122 -0.530221
vn -0.454503 -0.878323 0.148241
vn -0.594974 -0.797238 0.102071
vn 0.736806 -0.667792 -0.105690
vn 0.853966 -0.484680 0.189279
vn -0.665729 -0.745937 -0.019580
vn 0.663459 -0.687748 -0.294659
vn -0.546723 -0.825100 0.142493
vn -0.844858 -0.524329 -0.106276
vn 0.838982 -0.432288 0.330510
vn 0.825875 -0.543221 0.151137
vn -0.942157 -0.333334 0.035044
vn -0.073193 -0.399887 0.913637
vn -0.030139 -0.574634 -0.817856
vn 0.968742 -0.234574 -0.080706
vn 0.796487 -0.321498 0.512102
vn 0.320680 -0.758744 -0.566985
vn -0.729630 -0.393911 0.558993
vn 0.972135 -0.053260 0.228290
vn -0.269698 0.860822 0.431565
vn 0.133770 0.781865 0.608928
vn 0.401963 0.758481 -0.512965
vn 0.174196 0.944803 -0.277495
vn -0.128933 0.718453 -0.683521
vn -0.561437 0.728501 -0.392524
vn 0.249862 0.930878 0.266526
vn 0.173479 0.886163 0.429676
vn 0.295336 0.745722 -0.597223
vn 0.104940 0.710239 -0.696095
vn -0.090881 0.825107 0.557619
vn -0.370214 0.822047 0.432643
vn -0.608204 0.772853 -0.181069
vn -0.389434 0.912166 0.127650
vn 0.281117 0.945881 -0.162118
vn 0.276895 0.959240 0.056464
vn 0.843624 0.211844 0.493376
vn 0.441382 0.755614 -0.483973
vn -0.567015 0.783746 0.253451
vn 0.808027 0.553747 0.201137
vn 0.649130 0.755856 -0.085509
vn -0.706160 0.699158 0.111875
vn -0.778805 0.623768 -0.066157
vn 0.577229 0.772389 -0.264995
vn -0.652824 0.734278 0.186164
vn 0.690212 0.709248 0.143439
vn 0.782267 0.529211 0.328624
vn -0.891910 0.427528 -0.147363
vn -0.958576 0.281951 0.040434
vn 0.946177 0.312135 -0.085561
vn -0.029621 0.682355 -0.730420
vn -0.074483 0.347983 0.934537
vn 0.756917 0.296923 0.582162
vn 0.177543 0.890919 -0.418021
vn -0.725763 0.346121 0.594532
vn 0.967530 0.049858 0.247791
vn -0.326451 -0.921016 -0.212506
vn -0.007045 -0.998994 0.044287
vn 0.388647 -0.735694 0.554714
vn -0.082379 -0.592886 0.801062
vn 0.016186 -0.992628 0.120114
vn -0.098445 -0.978473 0.181380
vn 0.166174 -0.615096 -0.770742
vn 0.629825 -0.631604 -0.452103
vn 0.066593 -0.942515 0.327462
vn 0.272535 -0.929033 0.250246
vn -0.364363 -0.628550 -0.687142
vn -0.125798 -0.597858 -0.791670
vn -0.007847 -0.998915 -0.045909
vn 0.024508 -0.999606 0.013706
vn 0.725565 -0.656525 -0.206228
vn 0.572509 -0.795438 0.198777
vn -0.819845 -0.298568 0.488581
vn 0.454503 -0.878323 0.148242
vn -0.530315 -0.656565 -0.536366
vn 0.594988 -0.797145 0.102710
vn 0.664311 -0.747206 -0.019372
vn -0.854906 -0.482748 0.189974
vn -0.737549 -0.666955 -0.105795
vn 0.546723 -0.825100 0.142493
vn -0.664996 -0.685714 -0.295934
vn 0.844353 -0.525292 -0.105526
vn 0.942157 -0.333335 0.035045
vn -0.825874 -0.543221 0.151137
vn -0.837564 -0.435912 0.329344
vn 0.073193 -0.399887 0.913637
vn -0.796487 -0.321497 0.512102
vn -0.968742 -0.234574 -0.080706
vn 0.030139 -0.574633 -0.817856
vn 0.729631 -0.393911 0.558993
vn -0.320680 -0.758743 -0.566986
vn -0.972135 -0.053260 0.228290
vn -0.401963 0.758481 -0.512965
vn -0.133770 0.781865 0.608928
vn 0.269698 0.860822 0.431566
vn -0.174196 0.944803 -0.277494
vn 0.561437 0.728501 -0.392524
vn 0.128933 0.718453 -0.683521
vn -0.173479 0.886163 0.429675
vn -0.249862 0.930878 0.266526
vn -0.097627 0.702288 -0.705167
vn -0.289664 0.748370 -0.596688
vn 0.382921 0.810232 0.443730
vn 0.103006 0.822218 0.559774
vn 0.389434 0.912166 0.127651
vn 0.608204 0.772853 -0.181069
vn -0.276895 0.959240 0.056464
vn -0.281118 0.945881 -0.162117
vn -0.843624 0.211844 0.493376
vn -0.444308 0.755379 -0.481656
vn 0.569046 0.777446 0.267889
vn -0.649130 0.755856 -0.085510
vn -0.808027 0.553747 0.201137
vn 0.778722 0.623807 -0.066760
vn 0.704189 0.701106 0.112103
vn -0.582588 0.769375 -0.262020
vn 0.652475 0.733325 0.191078
vn 0.958576 0.281952 0.040434
vn 0.892674 0.426193 -0.146606
vn -0.782267 0.529211 0.328624
vn -0.690211 0.709248 0.143440
vn -0.756917 0.296923 0.582163
vn 0.074483 0.347983 0.934537
vn 0.029621 0.682356 -0.730420
vn -0.946177 0.312135 -0.085561
vn 0.725763 0.346121 0.594533
vn -0.177543 0.890919 -0.418021
vn -0.967530 0.049858 0.247791
vn 0.995937 0.000000 0.090053
vn 0.680172 -0.732981 -0.010262
vn 0.399490 -0.846786 0.351228
vn 0.888736 0.000000 0.458420
vn 0.551288 -0.733752 0.397101
vn 0.897826 0.000000 0.440350
vn 0.504117 -0.214617 -0.836544
vn 0.120887 -0.172268 -0.977604
vn 0.123039 0.000000 -0.992402
vn 0.515560 0.000000 -0.856854
vn -0.040954 -0.918032 -0.394385
vn 0.550709 -0.708586 0.441165
vn 0.789692 0.000000 0.613504
vn -0.080619 0.000000 -0.996745
vn 0.946386 0.000002 -0.323038
vn 0.712493 -0.000020 -0.701680
vn 0.722644 -0.652118 -0.229189
vn 0.942881 0.000000 -0.333131
vn -0.431905 -0.486800 -0.759266
vn -0.477768 0.000000 -0.878486
vn -0.037157 0.998943 -0.027069
vn 0.044799 0.980177 0.192995
vn 0.073011 0.997194 0.016554
vn -0.081018 0.993784 -0.076349
vn 0.167358 0.947882 -0.271129
vn 0.044953 0.919800 -0.389805
vn 0.000000 0.988369 0.152076
vn 0.000000 0.994065 -0.108784
vn 0.067826 0.993620 -0.090108
vn 0.025124 0.983231 0.180624
vn 0.000000 0.985303 0.170818
vn 0.000000 0.999900 -0.014159
vn 0.000000 0.980678 -0.195631
vn -0.102340 0.982708 -0.154311
vn 0.000097 0.999788 0.020575
vn 0.006427 0.999011 -0.044007
vn 0.014501 0.999892 0.002507
vn -0.000003 -0.999811 0.019422
vn 0.000000 -0.996988 0.077554
vn 0.000000 -0.984664 0.174460
vn 0.000000 -0.988356 0.152159
vn 0.000000 -0.994065 -0.108784
vn 0.219151 0.000000 0.975691
vn 0.000000 0.000000 1.000000
vn 0.000000 -0.175642 0.984454
vn 0.199981 -0.190131 0.961175
vn 0.000000 -0.993912 -0.110174
vn 0.200124 -0.975052 -0.096044
vn 0.997563 0.000000 -0.069770
vn 0.000000 0.993912 -0.110174
vn 0.010764 0.996394 -0.084160
vn 0.000000 -0.999880 -0.015522
vn 0.677499 -0.700358 0.224707
vn 0.862281 -0.499880 -0.081183
vn 0.172369 -0.549982 -0.817196
vn 0.239496 0.000000 -0.970897
vn 0.997978 0.000000 -0.063554
vn 0.000000 0.999880 -0.015522
vn 0.072811 0.997311 0.008303
vn 0.000000 -1.000000 0.000000
vn 0.800706 -0.596078 0.059680
vn 0.944024 0.000000 0.329878
vn 0.997203 0.000000 0.074739
vn 0.000000 0.999429 0.033794
vn 0.066463 0.996992 0.039872
vn 0.000000 -0.999981 -0.006175
vn 0.750831 -0.648244 -0.126621
vn 0.986935 0.000000 -0.161118
vn 0.000000 0.997211 0.074632
vn -0.034897 0.997476 0.061840
vn 0.000000 0.997708 0.067669
vn -0.107905 0.993708 0.030019
vn 0.000000 -0.999968 -0.008030
vn 0.667227 -0.691772 -0.276150
vn 0.924238 0.000000 -0.381816
vn 0.000000 -0.999998 -0.002205
vn 0.669088 -0.718486 -0.190001
vn 0.961588 0.000000 -0.274497
vn 0.000000 0.999797 0.020130
vn -0.107037 0.994249 -0.003485
vn 0.000000 -0.999997 0.002409
vn 0.715181 -0.685137 0.138214
vn 0.981793 0.000000 0.189952
vn 0.000000 0.999898 -0.014263
vn -0.075740 0.997126 0.001902
vn 0.000000 0.999865 -0.016457
vn -0.083581 0.996500 0.001495
vn 0.000000 -0.999996 0.002915
vn 0.647340 -0.742260 0.173205
vn 0.966610 0.000000 0.256251
vn 0.000000 0.877079 0.480347
vn -0.009362 0.909892 0.414740
vn -0.329656 -0.725765 -0.603815
vn -0.470191 0.000000 -0.882565
vn 0.110251 0.993889 0.005438
vn -0.062852 0.992487 -0.104974
vn 0.832935 -0.489810 0.257498
vn 0.950447 0.000000 0.310887
vn 0.089246 0.993784 -0.066553
vn -0.019340 0.985743 -0.167145
vn -0.399490 -0.846786 0.351228
vn -0.680172 -0.732981 -0.010262
vn -0.995937 0.000000 0.090053
vn -0.888736 0.000000 0.458419
vn -0.551288 -0.733752 0.397101
vn -0.897826 0.000000 0.440350
vn -0.120887 -0.172268 -0.977604
vn -0.504116 -0.214617 -0.836544
vn -0.515560 0.000000 -0.856854
vn -0.123039 0.000000 -0.992402
vn -0.560290 -0.696264 0.448656
vn 0.040954 -0.918032 -0.394385
vn 0.080619 0.000000 -0.996745
vn -0.789691 0.000000 0.613504
vn -0.895617 -0.325051 -0.303664
vn -0.946430 0.000928 -0.322909
vn -0.722644 -0.652118 -0.229189
vn -0.942881 0.000000 -0.333131
vn 0.431905 -0.486800 -0.759266
vn 0.477768 0.000000 -0.878486
vn 0.037157 0.998943 -0.027069
vn 0.081018 0.993784 -0.076349
vn -0.073011 0.997194 0.016554
vn -0.044799 0.980177 0.192995
vn -0.044953 0.919800 -0.389804
vn -0.167358 0.947883 -0.271127
vn -0.025124 0.983231 0.180624
vn -0.067826 0.993620 -0.090108
vn 0.102340 0.982708 -0.154312
vn -0.006198 0.999043 -0.043299
vn -0.199981 -0.190130 0.961175
vn -0.219151 0.000000 0.975691
vn -0.200124 -0.975052 -0.096044
vn -0.997563 0.000000 -0.069770
vn -0.010764 0.996394 -0.084160
vn -0.677499 -0.700358 0.224708
vn -0.172369 -0.549982 -0.817196
vn -0.862281 -0.499880 -0.081183
vn -0.997978 0.000000 -0.063554
vn -0.239496 0.000000 -0.970897
vn -0.072811 0.997311 0.008303
vn -0.800706 -0.596078 0.059680
vn -0.997203 0.000000 0.074739
vn -0.944024 0.000000 0.329878
vn -0.066463 0.996992 0.039872
vn -0.750831 -0.648244 -0.126621
vn -0.986935 0.000000 -0.161118
vn 0.034897 0.997476 0.061841
vn -0.667227 -0.691772 -0.276151
vn -0.924238 0.000000 -0.381816
vn 0.107905 0.993708 0.030019
vn -0.669088 -0.718486 -0.190001
vn -0.961588 0.000000 -0.274497
vn 0.107037 0.994249 -0.003485
vn -0.715181 -0.685137 0.138214
vn -0.981793 0.000000 0.189952
vn 0.075740 0.997126 0.001902
vn -0.647340 -0.742260 0.173205
vn -0.966610 0.000000 0.256251
vn 0.083581 0.996500 0.001495
vn 0.009362 0.909893 0.414738
vn 0.329656 -0.725764 -0.603815
vn 0.470191 0.000000 -0.882565
vn 0.062852 0.992487 -0.104973
vn -0.110251 0.993889 0.005438
vn -0.832935 -0.489810 0.257498
vn -0.950447 0.000000 0.310887
vn 0.019340 0.985743 -0.167145
vn -0.089246 0.993784 -0.066553
vn -0.697790 0.333981 -0.633677
vn -0.707795 0.597035 -0.377592
vn 0.000000 0.845159 -0.534516
vn 0.000000 0.466257 -0.884649
vn -0.712893 0.701273 0.000000
vn 0.000000 1.000000 0.000000
vn -0.707796 0.597034 0.377591
vn 0.000000 0.845159 0.534516
vn -0.697790 0.333982 0.633676
vn 0.000000 0.466258 0.884649
vn -0.904836 0.011333 0.425609
vn 0.000000 0.026619 0.999646
vn -0.904836 0.011333 -0.425610
vn 0.000000 0.026619 -0.999646
vn -1.000000 0.000000 0.000000
vn 0.591809 0.375840 -0.713096
vn 0.602619 0.674461 -0.426559
vn 1.000000 0.000000 0.000000
vn 0.608174 0.793804 0.000000
vn 0.602619 0.674461 0.426559
vn 0.591810 0.375840 0.713096
vn 0.848252 0.014097 0.529406
vn 0.848251 0.014097 -0.529406
vn 0.000000 0.000000 1.000000
vn -0.915025 0.000000 0.403397
vn 0.000000 0.000000 -1.000000
vn -0.915025 0.000000 -0.403397
vn -1.000000 0.000000 0.000000
vn 0.863169 0.000000 0.504915
vn 1.000000 0.000000 0.000000
vn 0.863169 0.000000 -0.504915
vn 0.000000 -0.992588 0.121526
vn -0.265746 -0.956898 0.117156
vn 0.000000 -0.992575 -0.121633
vn -0.265963 -0.956826 -0.117252
vn -0.267699 -0.963503 0.000000
vn 0.203409 -0.971837 0.118985
vn 0.204952 -0.978772 0.000000
vn 0.203581 -0.971789 -0.119086
vn 0.000000 -1.000000 0.000000
s 1
g Ballista_lowpoly_baking__1_:pCylinder24
usemtl initialShadingGroup
f 1/1/1 2/2/2 3/3/3 4/4/4
f 5/5/5 1/6/1 6/7/6 7/8/7
f 2/9/2 5/5/5 8/10/8 9/11/9
f 10/12/10 6/13/6 11/14/11 12/15/12
f 7/8/7 10/16/10 13/17/13 14/18/14
f 9/19/9 15/20/15 16/21/16 17/22/17
f 15/23/15 8/10/8 14/18/14 18/24/18
f 18/25/18 13/26/13 19/27/19 20/28/20
f 17/29/17 21/30/21 22/31/22 3/32/3
f 21/30/21 16/33/16 20/34/20 23/35/23
f 23/35/23 19/36/19 12/37/12 24/38/24
f 4/39/4 22/31/22 24/38/24 11/40/11
f 5/5/5 7/8/7 14/18/14 8/10/8
f 15/20/15 18/25/18 20/28/20 16/21/16
f 21/30/21 23/35/23 24/38/24 22/31/22
f 4/4/4 11/14/11 6/13/6 1/1/1
f 10/12/10 12/15/12 19/27/19 13/26/13
f 3/3/3 2/2/2 9/41/9 17/42/17
f 1/6/1 5/5/5 2/9/2
f 10/16/10 7/8/7 6/7/6
f 9/11/9 8/10/8 15/23/15
f 18/24/18 14/18/14 13/17/13
f 17/29/17 16/33/16 21/30/21
f 23/35/23 20/34/20 19/36/19
f 3/32/3 22/31/22 4/39/4
f 11/40/11 24/38/24 12/37/12
s 2
f 25/43/25 26/44/26 27/45/27 28/46/28 29/47/29 30/48/30
f 31/49/31 32/50/32 26/44/26 25/43/25 33/51/33 34/52/34
f 34/52/34 33/51/33 35/53/35 36/54/36
f 36/54/36 35/53/35 37/55/37 38/56/38
f 30/48/30 29/47/29 39/57/39 40/58/40
f 40/58/40 39/57/39 41/59/41 42/60/42
f 43/61/43 44/62/44 45/63/45 46/64/46
f 44/62/44 43/61/43 47/65/47 48/66/48
f 46/64/46 45/63/45 32/50/32 31/49/31
f 48/66/48 47/65/47 49/67/49 50/68/50
f 50/68/50 49/67/49 28/46/28 27/45/27
f 38/56/38 37/55/37 42/60/42 41/59/41
f 35/53/35 33/51/33 25/43/25 51/69/51
f 45/63/45 52/70/52 26/44/26 32/50/32
f 39/57/39 29/47/29 28/46/28 49/71/49
f 46/72/46 31/49/31 34/52/34 36/54/36
f 40/58/40 51/69/51 25/43/25 30/48/30
f 43/73/43 38/56/38 41/59/41 47/74/47
f 26/44/26 52/70/52 50/68/50 27/45/27
f 46/72/46 36/54/36 38/56/38 43/73/43
f 44/62/44 52/70/52 45/63/45
f 50/68/50 52/70/52 44/62/44 48/66/48
f 39/57/39 49/71/49 47/74/47 41/59/41
f 37/55/37 51/69/51 40/58/40 42/60/42
f 35/53/35 51/69/51 37/55/37
s 4
f 53/75/53 54/76/54 55/77/55 56/78/56
f 54/76/54 57/79/57 58/80/58 55/77/55
f 57/79/57 59/81/59 60/82/60 58/80/58
f 59/81/59 61/83/61 62/84/62 60/82/60
f 61/83/61 63/85/63 64/86/64 62/84/62
f 65/87/65 53/75/53 56/78/56 66/88/66
f 54/76/54 53/75/53 67/89/67
f 57/79/57 54/76/54 67/89/67
f 59/81/59 57/79/57 67/89/67
f 61/83/61 59/81/59 67/89/67
f 63/85/63 61/83/61 67/89/67
f 53/75/53 65/87/65 67/89/67
f 68/90/68 69/91/69 70/92/70
f 69/91/69 71/93/71 70/92/70
f 71/93/71 72/94/72 70/92/70
f 72/94/72 73/95/73 70/92/70
f 73/95/73 74/96/74 70/92/70
f 75/97/75 68/90/68 70/92/70
f 76/98/76 64/86/64 63/85/63 77/99/77
f 65/87/65 66/88/66 78/100/78 79/101/79
f 63/85/63 67/89/67 80/102/80 77/99/77
f 67/89/67 65/87/65 79/101/79 80/102/80
f 70/92/70 74/96/74 81/103/81 82/104/82
f 75/97/75 70/92/70 82/104/82 83/105/83
f 84/106/84 76/98/76 77/99/77 85/107/85
f 79/101/79 78/100/78 86/108/86 87/109/87
f 77/99/77 80/102/80 88/110/88 85/107/85
f 80/102/80 79/101/79 87/109/87 89/111/89
f 82/104/82 81/103/81 90/112/90 91/113/91
f 83/105/83 82/104/82 91/113/91 92/114/92
f 86/108/86 93/115/93 89/111/89 87/109/87
f 93/115/93 84/106/84 85/107/85 88/110/88 89/111/89
f 80/102/80 89/111/89 88/110/88
f 66/88/66 56/78/56 68/116/68 75/117/75
f 78/100/78 66/88/66 75/117/75 83/118/83
f 86/108/86 78/100/78 83/118/83 92/119/92
f 91/120/91 93/115/93 86/108/86 92/119/92
f 90/121/90 84/106/84 93/115/93 91/120/91
f 81/122/81 76/98/76 84/106/84 90/121/90
f 74/123/74 64/86/64 76/98/76 81/122/81
f 62/84/62 64/86/64 74/123/74 73/124/73
f 60/82/60 62/84/62 73/124/73 72/125/72
f 58/80/58 60/82/60 72/125/72 71/126/71
f 55/77/55 58/80/58 71/126/71 69/127/69
f 56/78/56 55/77/55 69/127/69 68/116/68
s 5
f 94/128/94 95/129/95 96/130/96 97/131/97 98/132/98 99/133/99
f 100/134/100 101/135/101 95/129/95 94/128/94 102/136/102 103/137/103
f 103/137/103 102/136/102 104/138/104 105/139/105
f 105/139/105 104/138/104 106/140/106 107/141/107
f 99/133/99 98/132/98 108/142/108 109/143/109
f 109/143/109 108/142/108 110/144/110 111/145/111
f 112/146/112 113/147/113 114/148/114 115/149/115
f 113/147/113 112/146/112 116/150/116 117/151/117
f 115/149/115 114/148/114 101/135/101 100/134/100
f 117/151/117 116/150/116 118/152/118 119/153/119
f 119/153/119 118/152/118 97/131/97 96/130/96
f 107/141/107 106/140/106 111/145/111 110/144/110
f 104/138/104 102/136/102 94/128/94 120/154/120
f 114/148/114 121/155/121 95/129/95 101/135/101
f 108/156/108 98/132/98 97/131/97 118/152/118
f 115/149/115 100/134/100 103/137/103 105/157/105
f 109/143/109 120/154/120 94/128/94 99/133/99
f 112/146/112 107/158/107 110/159/110 116/150/116
f 95/129/95 121/155/121 119/153/119 96/130/96
f 115/149/115 105/157/105 107/158/107 112/146/112
f 113/147/113 121/155/121 114/148/114
f 119/153/119 121/155/121 113/147/113 117/151/117
f 108/156/108 118/152/118 116/150/116 110/159/110
f 106/140/106 120/154/120 109/143/109 111/145/111
f 104/138/104 120/154/120 106/140/106
s 7
f 122/160/122 123/161/123 124/162/124 125/163/125 126/164/126 127/165/127
f 128/166/128 129/167/129 123/161/123 122/160/122 130/168/130 131/169/131
f 131/169/131 130/168/130 132/170/132 133/171/133
f 133/171/133 132/170/132 134/172/134 135/173/135
f 127/165/127 126/164/126 136/174/136 137/175/137
f 137/175/137 136/174/136 138/176/138 139/177/139
f 140/178/140 141/179/141 142/180/142 143/181/143
f 141/179/141 140/178/140 144/182/144 145/183/145
f 143/181/143 142/180/142 129/167/129 128/166/128
f 145/183/145 144/182/144 146/184/146 147/185/147
f 147/185/147 146/184/146 125/163/125 124/162/124
f 135/173/135 134/172/134 139/177/139 138/176/138
f 132/170/132 130/168/130 122/160/122 148/186/148
f 142/180/142 149/187/149 123/161/123 129/167/129
f 136/174/136 126/164/126 125/163/125 146/188/146
f 143/189/143 128/166/128 131/169/131 133/171/133
f 137/175/137 148/186/148 122/160/122 127/165/127
f 140/190/140 135/173/135 138/176/138 144/191/144
f 123/161/123 149/187/149 147/185/147 124/162/124
f 143/189/143 133/171/133 135/173/135 140/190/140
f 141/179/141 149/187/149 142/180/142
f 147/185/147 149/187/149 141/179/141 145/183/145
f 136/174/136 146/188/146 144/191/144 138/176/138
f 134/172/134 148/186/148 137/175/137 139/177/139
f 132/170/132 148/186/148 134/172/134
s 9
f 150/918/150 151/919/151 152/920/152 153/921/153
f 154/192/154 150/193/150 155/194/155 156/195/156
f 151/196/151 154/192/154 157/197/157 158/198/158
f 159/922/159 155/934/155 160/935/160 161/925/161
f 156/195/156 159/199/159 162/200/162 163/201/163
f 158/926/158 164/927/164 165/928/165 166/929/166
f 164/202/164 157/197/157 163/201/163 167/203/167
f 167/930/167 162/931/162 168/932/168 169/933/169
f 166/204/166 170/205/170 171/206/171 152/207/152
f 170/205/170 165/208/165 169/209/169 172/210/172
f 172/210/172 168/211/168 161/212/161 173/213/173
f 153/214/153 171/206/171 173/213/173 160/215/160
f 154/192/154 156/195/156 163/201/163 157/197/157
f 164/927/164 167/930/167 169/933/169 165/928/165
f 170/205/170 172/210/172 173/213/173 171/206/171
f 152/920/152 151/919/151 158/926/158 166/929/166
f 150/193/150 154/192/154 151/196/151
f 159/199/159 156/195/156 155/194/155
f 158/198/158 157/197/157 164/202/164
f 167/203/167 163/201/163 162/200/162
f 166/204/166 165/208/165 170/205/170
f 172/210/172 169/209/169 168/211/168
f 152/207/152 171/206/171 153/214/153
f 160/215/160 173/213/173 161/212/161
s 10
f 174/216/174 175/217/175 176/218/176 177/219/177 178/220/178 179/221/179
f 180/222/180 181/223/181 175/217/175 174/216/174 182/224/182 183/225/183
f 183/225/183 182/224/182 184/226/184 185/227/185
f 185/227/185 184/226/184 186/228/186 187/229/187
f 179/221/179 178/220/178 188/230/188 189/231/189
f 189/231/189 188/230/188 190/232/190 191/233/191
f 192/234/192 193/235/193 194/236/194 195/237/195
f 193/235/193 192/234/192 196/238/196 197/239/197
f 195/237/195 194/236/194 181/223/181 180/222/180
f 197/239/197 196/238/196 198/240/198 199/241/199
f 199/241/199 198/240/198 177/219/177 176/218/176
f 187/229/187 186/228/186 191/233/191 190/232/190
f 184/226/184 182/224/182 174/216/174 200/242/200
f 194/236/194 201/243/201 175/217/175 181/223/181
f 188/244/188 178/220/178 177/219/177 198/240/198
f 195/237/195 180/222/180 183/225/183 185/245/185
f 189/231/189 200/242/200 174/216/174 179/221/179
f 192/234/192 187/246/187 190/247/190 196/238/196
f 175/217/175 201/243/201 199/241/199 176/218/176
f 195/237/195 185/245/185 187/246/187 192/234/192
f 193/235/193 201/243/201 194/236/194
f 199/241/199 201/243/201 193/235/193 197/239/197
f 188/244/188 198/240/198 196/238/196 190/247/190
f 186/228/186 200/242/200 189/231/189 191/233/191
f 184/226/184 200/242/200 186/228/186
s 12
f 202/248/202 203/249/203 204/250/204 205/251/205
f 203/249/203 206/252/206 207/253/207 204/250/204
f 206/252/206 208/254/208 209/255/209 207/253/207
f 208/254/208 210/256/210 211/257/211 209/255/209
f 210/256/210 212/258/212 213/259/213 211/257/211
f 212/258/212 214/260/214 215/261/215 213/259/213
f 214/260/214 216/262/216 217/263/217 215/261/215
f 216/262/216 218/264/218 219/265/219 217/263/217
f 218/264/218 220/268/220 221/267/221 219/265/219
f 220/268/220 202/248/202 205/251/205 221/267/221
f 203/909/203 202/910/202 222/911/222
f 206/913/206 203/909/203 222/911/222
f 208/915/208 206/913/206 222/911/222
f 210/917/210 208/915/208 222/911/222
f 214/908/214 212/856/212 222/911/222
f 216/916/216 214/908/214 222/911/222
f 218/914/218 216/916/216 222/911/222
f 220/912/220 218/914/218 222/911/222
f 202/910/202 220/912/220 222/911/222
f 205/251/205 204/250/204 223/266/223
f 204/250/204 207/253/207 223/266/223
f 207/253/207 209/255/209 223/266/223
f 209/255/209 211/257/211 223/266/223
f 213/259/213 215/261/215 223/266/223
f 215/261/215 217/263/217 223/266/223
f 217/263/217 219/265/219 223/266/223
f 219/265/219 221/267/221 223/266/223
f 221/267/221 205/251/205 223/266/223
s 13
f 224/269/224 225/270/225 226/271/226 227/272/227
f 228/273/228 229/274/229 230/275/230 231/276/231
f 232/277/232 233/278/233 234/279/234 235/280/235
f 236/281/236 237/282/237 238/283/238 239/284/239
f 240/285/240 241/286/241 242/287/242 243/288/243
f 244/289/244 245/290/245 246/291/246 247/292/247
f 248/293/248 249/294/249 250/295/250 251/296/251
f 252/297/252 253/298/253 254/299/254 255/300/255
f 256/301/256 257/302/257 258/303/258 259/304/259
f 260/305/260 261/306/261 262/307/262 263/308/263
f 264/309/264 265/310/265 266/311/266 267/312/267
f 268/313/268 269/314/269 270/315/270 271/316/271
f 225/317/225 224/318/224 272/319/272
f 232/320/232 225/317/225 272/319/272
f 233/321/233 232/320/232 272/319/272
f 240/322/240 233/321/233 272/319/272
f 241/323/241 240/322/240 272/319/272
f 248/324/248 241/323/241 272/319/272
f 249/325/249 248/324/248 272/319/272
f 256/326/256 249/325/249 272/319/272
f 257/327/257 256/326/256 272/319/272
f 264/328/264 257/327/257 272/319/272
f 265/329/265 264/328/264 272/319/272
f 224/318/224 265/329/265 272/319/272
f 227/272/227 226/271/226 273/330/273
f 226/271/226 235/280/235 273/330/273
f 235/280/235 234/279/234 273/330/273
f 234/279/234 243/288/243 273/330/273
f 243/288/243 242/287/242 273/330/273
f 242/287/242 251/296/251 273/330/273
f 251/296/251 250/295/250 273/330/273
f 250/295/250 259/304/259 273/330/273
f 259/304/259 258/303/258 273/330/273
f 258/303/258 267/312/267 273/330/273
f 267/312/267 266/311/266 273/330/273
f 266/311/266 227/272/227 273/330/273
f 225/317/225 232/320/232 274/331/274 275/332/275
f 232/277/232 235/280/235 276/333/276 274/334/274
f 235/280/235 226/271/226 277/335/277 276/333/276
f 226/271/226 225/270/225 275/336/275 277/335/277
f 233/321/233 240/322/240 278/337/278 279/338/279
f 240/285/240 243/288/243 280/339/280 278/340/278
f 243/288/243 234/279/234 281/341/281 280/339/280
f 234/279/234 233/278/233 279/342/279 281/341/281
f 241/323/241 248/324/248 282/343/282 283/344/283
f 248/293/248 251/296/251 284/345/284 282/346/282
f 251/296/251 242/287/242 285/347/285 284/345/284
f 242/287/242 241/286/241 283/348/283 285/347/285
f 249/325/249 256/326/256 286/349/286 287/350/287
f 256/301/256 259/304/259 288/351/288 286/352/286
f 259/304/259 250/295/250 289/353/289 288/351/288
f 250/295/250 249/294/249 287/354/287 289/353/289
f 257/327/257 264/328/264 290/355/290 291/356/291
f 264/309/264 267/312/267 292/357/292 290/358/290
f 267/312/267 258/303/258 293/359/293 292/357/292
f 258/303/258 257/302/257 291/360/291 293/359/293
f 265/329/265 224/318/224 294/361/294 295/362/295
f 224/269/224 227/272/227 296/363/296 294/364/294
f 227/272/227 266/311/266 297/365/297 296/363/296
f 266/311/266 265/310/265 295/366/295 297/365/297
f 275/332/275 274/331/274 229/367/229 228/368/228
f 274/334/274 276/333/276 230/275/230 229/274/229
f 276/333/276 277/335/277 231/276/231 230/275/230
f 277/335/277 275/336/275 228/273/228 231/276/231
f 279/338/279 278/337/278 237/369/237 236/370/236
f 278/340/278 280/339/280 238/283/238 237/282/237
f 280/339/280 281/341/281 239/284/239 238/283/238
f 281/341/281 279/342/279 236/281/236 239/284/239
f 283/344/283 282/343/282 245/371/245 244/372/244
f 282/346/282 284/345/284 246/291/246 245/290/245
f 284/345/284 285/347/285 247/292/247 246/291/246
f 285/347/285 283/348/283 244/289/244 247/292/247
f 287/350/287 286/349/286 253/373/253 252/374/252
f 286/352/286 288/351/288 254/299/254 253/298/253
f 288/351/288 289/353/289 255/300/255 254/299/254
f 289/353/289 287/354/287 252/297/252 255/300/255
f 291/356/291 290/355/290 261/375/261 260/376/260
f 290/358/290 292/357/292 262/307/262 261/306/261
f 292/357/292 293/359/293 263/308/263 262/307/262
f 293/359/293 291/360/291 260/305/260 263/308/263
f 295/362/295 294/361/294 269/377/269 268/378/268
f 294/364/294 296/363/296 270/315/270 269/314/269
f 296/363/296 297/365/297 271/316/271 270/315/270
f 297/365/297 295/366/295 268/313/268 271/316/271
s 25
f 298/379/298 299/380/299 300/656/300
s 26
f 302/381/301 303/382/302 309/383/303 308/384/304
f 303/382/302 304/385/305 310/386/306 309/383/303
f 304/385/305 305/387/307 311/388/308 310/386/306
f 305/387/307 306/389/309 312/390/310 311/388/308
f 306/389/309 307/391/311 313/392/312 312/390/310
f 307/391/311 302/381/301 308/384/304 313/392/312
f 303/393/302 302/394/301 314/395/313
f 304/396/305 303/393/302 314/395/313
f 305/397/307 304/396/305 314/395/313
f 306/398/309 305/397/307 314/395/313
f 307/399/311 306/398/309 314/395/313
f 302/394/301 307/399/311 314/395/313
f 308/384/304 309/383/303 315/400/314
f 309/383/303 310/386/306 315/400/314
f 310/386/306 311/388/308 315/400/314
f 311/388/308 312/390/310 315/400/314
f 312/390/310 313/392/312 315/400/314
f 313/392/312 308/384/304 315/400/314
s 27
f 316/401/315 317/402/316 323/403/317 322/404/318
f 317/402/316 318/405/319 324/406/320 323/403/317
f 318/405/319 319/407/321 325/408/322 324/406/320
f 319/407/321 320/409/323 326/410/324 325/408/322
f 320/409/323 321/411/325 327/412/326 326/410/324
f 321/411/325 316/401/315 322/404/318 327/412/326
f 317/413/316 316/414/315 328/415/327
f 318/416/319 317/413/316 328/415/327
f 319/417/321 318/416/319 328/415/327
f 320/418/323 319/417/321 328/415/327
f 321/419/325 320/418/323 328/415/327
f 316/414/315 321/419/325 328/415/327
f 322/404/318 323/403/317 329/420/328
f 323/403/317 324/406/320 329/420/328
f 324/406/320 325/408/322 329/420/328
f 325/408/322 326/410/324 329/420/328
f 326/410/324 327/412/326 329/420/328
f 327/412/326 322/404/318 329/420/328
s 28
f 366/421/329 367/422/330 368/423/331 369/424/332
f 370/425/333 371/426/334 372/427/335 373/428/336
f 375/429/337 374/430/338 376/431/339 377/432/340
f 379/433/341 378/434/342 380/435/343 381/436/344
f 369/424/332 368/423/331 378/434/342 379/433/341
f 382/437/345 367/422/330 366/421/329
f 381/436/344 380/435/343 371/426/334 370/425/333
f 373/428/336 372/427/335 374/430/338 375/429/337
f 377/432/340 376/431/339 383/438/346 384/439/347
f 385/440/348 386/441/349 387/442/350 388/443/351
f 384/439/347 383/438/346 389/444/352 390/445/353
f 390/445/353 389/444/352 386/441/349 385/440/348
f 391/446/354 392/447/355 393/448/356 394/449/357
f 388/443/351 387/442/350 392/447/355 391/446/354
f 395/450/358 396/451/359 397/452/360 398/453/361
f 394/449/357 393/448/356 399/454/362 400/455/363
f 400/455/363 399/454/362 396/451/359 395/450/358
f 398/453/361 397/452/360 401/456/364
f 332/457/365 331/458/366 361/459/367 360/460/368
f 335/461/369 334/462/370 358/463/371 365/464/372
f 336/465/373 364/466/374 357/467/375 356/468/376
f 333/469/377 362/470/378 363/471/379 359/472/380
f 362/470/378 332/457/365 360/460/368 363/471/379
f 330/473/381 361/459/367 331/458/366
f 334/462/370 333/469/377 359/472/380 358/463/371
f 364/466/374 335/461/369 365/464/372 357/467/375
f 337/474/382 336/465/373 356/468/376 355/475/383
f 340/476/384 339/477/385 353/478/386 352/479/387
f 338/480/388 337/474/382 355/475/383 354/481/389
f 339/477/385 338/480/388 354/481/389 353/478/386
f 342/482/390 341/483/391 351/484/392 350/485/393
f 341/483/391 340/476/384 352/479/387 351/484/392
f 345/486/394 344/487/395 348/488/396 347/489/397
f 343/490/398 342/482/390 350/485/393 349/491/399
f 344/487/395 343/490/398 349/491/399 348/488/396
f 346/492/400 345/486/394 347/489/397
f 331/458/366 332/457/365 368/493/331 367/494/330
f 360/460/368 361/459/367 366/495/329 369/496/332
f 334/462/370 335/461/369 372/497/335 371/498/334
f 365/464/372 358/463/371 370/499/333 373/500/336
f 364/466/374 336/465/373 376/501/339 374/502/338
f 356/468/376 357/467/375 375/503/337 377/504/340
f 362/470/378 333/469/377 380/505/343 378/506/342
f 359/472/380 363/471/379 379/507/341 381/508/344
f 332/457/365 362/470/378 378/506/342 368/493/331
f 363/471/379 360/460/368 369/496/332 379/507/341
f 330/473/381 331/458/366 367/494/330 382/509/345
f 361/459/367 330/473/381 382/509/345 366/495/329
f 333/469/377 334/462/370 371/498/334 380/505/343
f 358/463/371 359/472/380 381/508/344 370/499/333
f 335/461/369 364/466/374 374/502/338 372/497/335
f 357/467/375 365/464/372 373/500/336 375/503/337
f 336/465/373 337/474/382 383/510/346 376/501/339
f 355/475/383 356/468/376 377/504/340 384/511/347
f 339/477/385 340/476/384 387/512/350 386/513/349
f 352/479/387 353/478/386 385/514/348 388/515/351
f 337/474/382 338/480/388 389/516/352 383/510/346
f 354/481/389 355/475/383 384/511/347 390/517/353
f 338/480/388 339/477/385 386/513/349 389/516/352
f 353/478/386 354/481/389 390/517/353 385/514/348
f 341/483/391 342/482/390 393/518/356 392/519/355
f 350/485/393 351/484/392 391/520/354 394/521/357
f 340/476/384 341/483/391 392/519/355 387/512/350
f 351/484/392 352/479/387 388/515/351 391/520/354
f 344/487/395 345/486/394 397/522/360 396/523/359
f 347/489/397 348/488/396 395/524/358 398/525/361
f 342/482/390 343/490/398 399/526/362 393/518/356
f 349/491/399 350/485/393 394/521/357 400/527/363
f 343/490/398 344/487/395 396/523/359 399/526/362
f 348/488/396 349/491/399 400/527/363 395/524/358
f 401/528/364 397/522/360 345/486/394 346/492/400 347/489/397 398/525/361
s 32
f 438/529/401 441/530/402 440/531/403 439/532/404
f 442/533/405 445/534/406 444/535/407 443/536/408
f 447/537/409 449/538/410 448/539/411 446/540/412
f 451/541/413 453/542/414 452/543/415 450/544/416
f 441/530/402 451/541/413 450/544/416 440/531/403
f 454/545/417 438/529/401 439/532/404
f 453/542/414 442/533/405 443/536/408 452/543/415
f 445/534/406 447/537/409 446/540/412 444/535/407
f 449/538/410 456/546/418 455/547/419 448/539/411
f 457/548/420 460/549/421 459/550/422 458/551/423
f 456/546/418 462/552/424 461/553/425 455/547/419
f 462/552/424 457/548/420 458/551/423 461/553/425
f 463/554/426 466/555/427 465/556/428 464/557/429
f 460/549/421 463/554/426 464/557/429 459/550/422
f 467/558/430 470/559/431 469/560/432 468/561/433
f 466/555/427 472/562/434 471/563/435 465/556/428
f 472/562/434 467/558/430 468/561/433 471/563/435
f 470/559/431 473/564/436 469/560/432
f 433/565/437 403/566/438 404/567/439 432/568/440
f 406/569/441 407/570/442 437/571/443 430/572/444
f 436/573/445 408/574/446 428/575/447 429/576/448
f 434/577/449 405/578/450 431/579/451 435/580/452
f 404/567/439 434/577/449 435/580/452 432/568/440
f 402/581/453 403/566/438 433/565/437
f 405/578/450 406/569/441 430/572/444 431/579/451
f 407/570/442 436/573/445 429/576/448 437/571/443
f 408/574/446 409/582/454 427/583/455 428/575/447
f 411/584/456 412/585/457 424/586/458 425/587/459
f 409/582/454 410/588/460 426/589/461 427/583/455
f 410/588/460 411/584/456 425/587/459 426/589/461
f 422/590/462 423/591/463 413/592/464 414/593/465
f 423/591/463 424/586/458 412/585/457 413/592/464
f 419/594/466 420/595/467 416/596/468 417/597/469
f 421/598/470 422/590/462 414/593/465 415/599/471
f 420/595/467 421/598/470 415/599/471 416/596/468
f 418/600/472 419/594/466 417/597/469
f 403/566/438 439/601/404 440/602/403 404/567/439
f 432/568/440 441/603/402 438/604/401 433/565/437
f 406/569/441 443/605/408 444/606/407 407/570/442
f 437/571/443 445/607/406 442/608/405 430/572/444
f 436/573/445 446/609/412 448/610/411 408/574/446
f 428/575/447 449/611/410 447/612/409 429/576/448
f 434/577/449 450/613/416 452/614/415 405/578/450
f 431/579/451 453/615/414 451/616/413 435/580/452
f 404/567/439 440/602/403 450/613/416 434/577/449
f 435/580/452 451/616/413 441/603/402 432/568/440
f 402/581/453 454/617/417 439/601/404 403/566/438
f 433/565/437 438/604/401 454/617/417 402/581/453
f 405/578/450 452/614/415 443/605/408 406/569/441
f 430/572/444 442/608/405 453/615/414 431/579/451
f 407/570/442 444/606/407 446/609/412 436/573/445
f 429/576/448 447/612/409 445/607/406 437/571/443
f 408/574/446 448/610/411 455/618/419 409/582/454
f 427/583/455 456/619/418 449/611/410 428/575/447
f 411/584/456 458/620/423 459/621/422 412/585/457
f 424/586/458 460/622/421 457/623/420 425/587/459
f 409/582/454 455/618/419 461/624/425 410/588/460
f 426/589/461 462/625/424 456/619/418 427/583/455
f 410/588/460 461/624/425 458/620/423 411/584/456
f 425/587/459 457/623/420 462/625/424 426/589/461
f 413/592/464 464/626/429 465/627/428 414/593/465
f 422/590/462 466/628/427 463/629/426 423/591/463
f 412/585/457 459/621/422 464/626/429 413/592/464
f 423/591/463 463/629/426 460/622/421 424/586/458
f 416/596/468 468/630/433 469/631/432 417/597/469
f 419/594/466 470/632/431 467/633/430 420/595/467
f 414/593/465 465/627/428 471/634/435 415/599/471
f 421/598/470 472/635/434 466/628/427 422/590/462
f 415/599/471 471/634/435 468/630/433 416/596/468
f 420/595/467 467/633/430 472/635/434 421/598/470
f 473/636/436 470/632/431 419/594/466 418/600/472 417/597/469 469/631/432
s 25
f 594/637/473 475/638/474 477/639/475 641/640/476
f 477/639/475 479/641/477 640/642/478 641/640/476
f 490/643/479 491/644/480 637/645/481 638/646/482
f 481/647/483 483/648/484 634/649/485 635/650/486
f 483/648/484 300/651/300 633/652/487 634/649/485
f 300/651/300 299/907/299 632/653/488 633/652/487
f 479/641/477 486/654/489 639/655/490 640/642/478
f 479/657/477 481/658/483 487/659/491 486/666/489
f 487/660/491 481/647/483 635/650/486 636/661/492
f 480/662/493 478/663/494 485/664/495 488/665/496
f 486/654/489 490/643/479 638/646/482 639/655/490
f 486/666/489 487/659/491 491/667/480 490/681/479
f 491/644/480 487/660/491 636/661/492 637/645/481
f 488/665/496 485/664/495 489/668/497 492/669/498
f 494/670/499 493/671/500 474/672/501 476/673/502
f 495/674/503 494/670/499 476/673/502 478/663/494
f 496/675/504 495/674/503 478/663/494 480/662/493
f 497/676/505 496/675/504 480/662/493 482/677/506
f 498/678/507 497/676/505 482/677/506 484/679/508
f 301/680/509 498/678/507 484/679/508
f 499/682/510 298/379/298 300/656/300 483/683/484
f 500/684/511 499/682/510 483/683/484 481/658/483
f 501/685/512 500/684/511 481/658/483 479/657/477
f 502/686/513 501/685/512 479/657/477 477/687/475
f 503/688/514 502/686/513 477/687/475 475/689/474
f 607/691/515 608/692/516 536/693/517 538/694/518
f 504/690/519 503/688/514 475/689/474 506/695/520
f 506/697/520 475/638/474 594/637/473 595/698/521
f 474/672/501 493/671/500 505/699/522 507/700/523
f 508/696/524 504/690/519 506/695/520 510/701/525
f 547/703/526 544/704/527 597/705/528 598/706/529
f 505/699/522 509/707/530 511/708/531 507/700/523
f 512/702/532 508/696/524 510/701/525 514/709/533
f 514/711/533 510/712/525 600/713/534 601/714/535
f 509/707/530 513/715/536 515/716/537 511/708/531
f 516/710/538 512/702/532 514/709/533 518/717/539
f 518/719/539 514/711/533 601/714/535 602/720/540
f 513/715/536 517/721/541 519/722/542 515/716/537
f 517/721/541 521/723/543 523/724/544 519/722/542
f 520/718/545 516/710/538 518/717/539 522/725/546
f 522/727/546 518/719/539 602/720/540 603/728/547
f 524/726/548 520/718/545 522/725/546 526/729/549
f 526/731/549 522/727/546 603/728/547 604/732/550
f 521/723/543 525/733/551 527/734/552 523/724/544
f 528/730/553 524/726/548 526/729/549 530/735/554
f 530/737/554 526/731/549 604/732/550 605/738/555
f 525/733/551 529/739/556 531/740/557 527/734/552
f 529/739/556 533/741/558 535/742/559 531/740/557
f 532/736/560 528/730/553 530/735/554 534/743/561
f 534/745/561 530/737/554 605/738/555 606/746/562
f 536/744/517 532/736/560 534/743/561 538/747/518
f 538/694/518 534/745/561 606/746/562 607/691/515
f 533/741/558 537/749/563 539/750/564 535/742/559
f 540/751/565 506/697/520 595/698/521 596/752/566
f 507/700/523 511/708/531 542/753/567 541/754/568
f 510/712/525 543/755/569 599/756/570 600/713/534
f 510/701/525 506/695/520 540/748/565 543/757/569
f 544/704/527 540/751/565 596/752/566 597/705/528
f 541/754/568 542/753/567 546/759/571 545/760/572
f 543/755/569 547/703/526 598/706/529 599/756/570
f 543/757/569 540/748/565 544/758/527 547/761/526
f 551/763/573 549/764/574 622/765/575 623/766/576
f 553/767/577 551/763/573 623/766/576 624/768/578
f 566/769/579 565/770/580 626/771/581 627/772/582
f 557/773/583 555/774/584 629/775/585 630/776/586
f 559/777/587 557/773/583 630/776/586 631/778/588
f 299/907/299 559/777/587 631/778/588 632/653/488
f 561/779/589 553/767/577 624/768/578 625/780/590
f 553/762/577 561/783/589 562/784/591 555/785/584
f 555/774/584 562/781/591 628/782/592 629/775/585
f 554/787/593 563/788/594 560/789/595 552/790/596
f 565/770/580 561/779/589 625/780/590 626/771/581
f 561/783/589 565/786/580 566/793/579 562/784/591
f 562/781/591 566/769/579 627/772/582 628/782/592
f 563/788/594 567/791/597 564/792/598 560/789/595
f 550/795/599 548/796/600 493/671/500 494/670/499
f 552/790/596 550/795/599 494/670/499 495/674/503
f 496/675/504 554/787/593 552/790/596 495/674/503
f 497/676/505 556/797/601 554/787/593 496/675/504
f 498/678/507 558/798/602 556/797/601 497/676/505
f 559/794/587 299/380/299 298/379/298
f 557/801/583 559/794/587 298/379/298 499/682/510
f 555/785/584 557/801/583 499/682/510 500/684/511
f 553/762/577 555/785/584 500/684/511 501/685/512
f 551/802/573 553/762/577 501/685/512 502/686/513
f 549/803/574 551/802/573 502/686/513 503/688/514
f 584/799/603 536/693/517 608/692/516 609/800/604
f 503/688/514 504/690/519 568/804/605 549/803/574
f 549/764/574 568/805/605 621/806/606 622/765/575
f 548/796/600 569/808/607 505/699/522 493/671/500
f 504/690/519 508/696/524 570/807/608 568/804/605
f 590/809/609 593/810/610 618/812/611 619/813/612
f 569/808/607 571/814/613 509/707/530 505/699/522
f 508/696/524 512/702/532 572/811/614 570/807/608
f 570/815/608 572/816/614 615/818/615 616/819/616
f 571/814/613 573/820/617 513/715/536 509/707/530
f 512/702/532 516/710/538 574/817/618 572/811/614
f 572/816/614 574/821/618 614/822/619 615/818/615
f 573/820/617 575/824/620 517/721/541 513/715/536
f 574/817/618 516/710/538 520/718/545 576/823/621
f 574/821/618 576/825/621 613/826/622 614/822/619
f 575/824/620 577/828/623 521/723/543 517/721/541
f 520/718/545 524/726/548 578/827/624 576/823/621
f 576/825/621 578/829/624 612/830/625 613/826/622
f 577/828/623 579/832/626 525/733/551 521/723/543
f 524/726/548 528/730/553 580/831/627 578/827/624
f 578/829/624 580/833/627 611/834/628 612/830/625
f 579/832/626 581/836/629 529/739/556 525/733/551
f 580/831/627 528/730/553 532/736/560 582/835/630
f 580/833/627 582/837/630 610/838/631 611/834/628
f 581/836/629 583/840/632 533/741/558 529/739/556
f 532/736/560 536/744/517 584/839/603 582/835/630
f 582/837/630 584/799/603 609/800/604 610/838/631
f 583/840/632 585/841/633 537/749/563 533/741/558
f 568/805/605 586/842/634 620/844/635 621/806/606
f 569/808/607 587/845/636 588/846/637 571/814/613
f 589/847/638 570/815/608 616/819/616 617/848/639
f 570/807/608 589/843/638 586/851/634 568/804/605
f 586/842/634 590/809/609 619/813/612 620/844/635
f 587/845/636 591/849/640 592/850/641 588/846/637
f 593/810/610 589/847/638 617/848/639 618/812/611
f 589/843/638 593/852/610 590/855/609 586/851/634
f 595/698/521 594/637/473 474/672/501 507/700/523
f 596/752/566 595/698/521 507/700/523 541/754/568
f 597/705/528 596/752/566 541/754/568 545/760/572
f 598/706/529 597/705/528 545/760/572 546/759/571
f 542/753/567 599/756/570 598/706/529 546/759/571
f 511/708/531 600/713/534 599/756/570 542/753/567
f 601/714/535 600/713/534 511/708/531 515/716/537
f 602/720/540 601/714/535 515/716/537 519/722/542
f 519/722/542 523/724/544 603/728/547 602/720/540
f 604/732/550 603/728/547 523/724/544 527/734/552
f 605/738/555 604/732/550 527/734/552 531/740/557
f 531/740/557 535/742/559 606/746/562 605/738/555
f 607/691/515 606/746/562 535/742/559 539/750/564
f 539/750/564 537/749/563 608/692/516 607/691/515
f 537/749/563 585/841/633 609/800/604 608/692/516
f 610/838/631 609/800/604 585/841/633 583/840/632
f 581/836/629 611/834/628 610/838/631 583/840/632
f 612/830/625 611/834/628 581/836/629 579/832/626
f 613/826/622 612/830/625 579/832/626 577/828/623
f 575/824/620 614/822/619 613/826/622 577/828/623
f 615/818/615 614/822/619 575/824/620 573/820/617
f 616/819/616 615/818/615 573/820/617 571/814/613
f 571/814/613 588/846/637 617/848/639 616/819/616
f 588/846/637 592/850/641 618/812/611 617/848/639
f 619/813/612 618/812/611 592/850/641 591/849/640
f 620/844/635 619/813/612 591/849/640 587/845/636
f 621/806/606 620/844/635 587/845/636 569/808/607
f 622/765/575 621/806/606 569/808/607 548/796/600
f 623/766/576 622/765/575 548/796/600 550/795/599
f 624/768/578 623/766/576 550/795/599 552/790/596
f 552/790/596 560/789/595 625/780/590 624/768/578
f 560/789/595 564/792/598 626/771/581 625/780/590
f 564/792/598 567/791/597 627/772/582 626/771/581
f 628/782/592 627/772/582 567/791/597 563/788/594
f 629/775/585 628/782/592 563/788/594 554/787/593
f 554/787/593 556/797/601 630/776/586 629/775/585
f 556/797/601 558/798/602 631/778/588 630/776/586
f 484/679/508 633/652/487 632/653/488 301/680/509
f 482/677/506 634/649/485 633/652/487 484/679/508
f 480/662/493 635/650/486 634/649/485 482/677/506
f 636/661/492 635/650/486 480/662/493 488/665/496
f 637/645/481 636/661/492 488/665/496 492/669/498
f 489/668/497 638/646/482 637/645/481 492/669/498
f 485/664/495 639/655/490 638/646/482 489/668/497
f 478/663/494 640/642/478 639/655/490 485/664/495
f 641/640/476 640/642/478 478/663/494 476/673/502
f 594/637/473 641/640/476 476/673/502 474/672/501
s 49
f 642/857/642 643/858/643 644/859/644 645/860/645
f 643/858/643 646/861/646 647/862/647 644/859/644
f 646/861/646 648/863/648 649/864/649 647/862/647
f 648/863/648 650/865/650 651/866/651 649/864/649
f 650/865/650 652/867/652 653/868/653 651/866/651
f 654/869/654 642/857/642 645/860/645 655/870/655
f 643/871/643 642/872/642 656/873/656
f 646/874/646 643/871/643 656/873/656
f 648/875/648 646/874/646 656/873/656
f 650/876/650 648/875/648 656/873/656
f 652/877/652 650/876/650 656/873/656
f 642/872/642 654/878/654 656/873/656
f 657/879/657 658/880/658 659/881/659
f 658/880/658 660/882/660 659/881/659
f 660/882/660 661/883/661 659/881/659
f 661/883/661 662/884/662 659/881/659
f 662/884/662 663/885/663 659/881/659
f 664/886/664 657/879/657 659/881/659
f 665/887/665 653/868/653 652/867/652 666/888/666
f 654/869/654 655/870/655 667/889/667 668/890/668
f 652/877/652 656/873/656 669/891/669 666/892/666
f 656/873/656 654/878/654 668/893/668 669/891/669
f 659/881/659 663/885/663 670/894/670 671/895/671
f 664/886/664 659/881/659 671/895/671 672/896/672
f 673/897/673 665/887/665 666/888/666 674/898/674
f 668/890/668 667/889/667 675/899/675 676/900/676
f 666/892/666 669/891/669 677/901/677 674/902/674
f 669/891/669 668/893/668 676/903/676 677/901/677
f 671/895/671 670/894/670 678/904/678 679/905/679
f 672/896/672 671/895/671 679/905/679 680/906/680
f 675/899/675 681/854/681 677/853/677 676/900/676
f 681/854/681 673/897/673 674/898/674 677/853/677
f 655/870/655 645/860/645 657/879/657 664/886/664
f 667/889/667 655/870/655 664/886/664 672/896/672
f 675/899/675 667/889/667 672/896/672 680/906/680
f 679/905/679 681/854/681 675/899/675 680/906/680
f 678/904/678 673/897/673 681/854/681 679/905/679
f 670/894/670 665/887/665 673/897/673 678/904/678
f 663/885/663 653/868/653 665/887/665 670/894/670
f 651/866/651 653/868/653 663/885/663 662/884/662
f 649/864/649 651/866/651 662/884/662 661/883/661
f 647/862/647 649/864/649 661/883/661 660/882/660
f 644/859/644 647/862/647 660/882/660 658/880/658
f 645/860/645 644/859/644 658/880/658 657/879/657
s 25
f 498/678/507 301/680/509 558/798/602
f 558/798/602 301/680/509 632/653/488 631/778/588
s 12
f 211/257/211 213/259/213 223/266/223
f 212/856/212 210/917/210 222/911/222
s 9
f 168/932/168 162/931/162 159/922/159 161/925/161
f 160/924/160 155/923/155 150/918/150 153/921/153
