# This file uses centimeters as units for non-parametric coordinates.

mtllib Rock_3_low.mtl
g default
v -0.023464 0.011872 -0.694123
v -0.713044 0.012483 -0.546465
v -0.529621 0.042762 0.196789
v -0.173787 0.007376 0.451144
v 0.167325 0.013577 0.534034
v 0.542902 0.013026 0.018716
v 0.042925 0.012905 -0.887450
v -0.869004 0.016612 -0.682802
v -0.709655 0.014449 0.338463
v -0.192618 0.009274 0.649370
v 0.266439 0.018670 0.729684
v 0.781030 0.011353 0.012161
v 0.331690 0.150028 -0.933959
v -0.802197 0.349081 -0.477725
v -0.783782 0.359774 0.447700
v -0.235096 0.359276 0.546862
v 0.236632 0.338859 0.732582
v 0.793433 0.331674 -0.189667
v 0.359680 0.409707 -0.750827
v -0.658992 0.569466 -0.312505
v -0.682325 0.641948 0.440001
v -0.294499 0.566579 0.558415
v 0.217202 0.554218 0.641480
v 0.692368 0.547566 -0.274066
v 0.218213 0.679229 -0.444797
v -0.507040 0.749461 -0.231945
v -0.592059 0.746130 0.415326
v -0.364779 0.744417 0.478658
v 0.158724 0.738437 0.471360
v 0.484488 0.735131 -0.215448
v 0.005592 0.860351 -0.325433
v -0.339381 0.867510 -0.206097
v -0.544767 0.865047 0.265693
v -0.339422 0.862365 0.398745
v 0.003472 0.863143 0.269243
v 0.184739 0.863458 -0.066373
v -0.198510 0.046130 -0.046840
v -0.194013 0.909297 -0.005361
vt 0.965596 0.845754
vt 0.980410 0.831770
vt 0.991865 0.923006
vt 0.973565 0.914694
vt 0.891180 0.856834
vt 0.878925 0.837705
vt 0.862710 0.889152
vt 0.843504 0.885421
vt 0.851436 0.921781
vt 0.831351 0.929635
vt 0.898380 0.963438
vt 0.896772 0.986807
vt 0.862093 0.515624
vt 0.990432 0.712526
vt 0.915221 0.731089
vt 0.806121 0.515340
vt 0.780518 0.922334
vt 0.758869 0.865095
vt 0.575383 0.871734
vt 0.631291 0.837345
vt 0.500286 0.731637
vt 0.549347 0.740552
vt 0.587254 0.501056
vt 0.640172 0.543892
vt 0.855878 0.733924
vt 0.775665 0.556575
vt 0.739683 0.824736
vt 0.659805 0.811937
vt 0.588345 0.737114
vt 0.671302 0.575712
vt 0.811047 0.726729
vt 0.752163 0.620219
vt 0.731205 0.805639
vt 0.689578 0.794290
vt 0.632063 0.729613
vt 0.689973 0.619115
vt 0.777556 0.713404
vt 0.751507 0.667130
vt 0.738706 0.777044
vt 0.701940 0.774584
vt 0.678634 0.726505
vt 0.703147 0.671703
vt 0.911815 0.891488
vt 0.734763 0.718274
vn -0.005794 -0.999884 -0.014085
vn -0.005794 -0.999884 -0.014085
vn -0.005794 -0.999884 -0.014085
vn -0.005794 -0.999884 -0.014085
vn -0.689864 -0.045849 -0.722486
vn -0.103308 -0.993473 0.048370
vn -0.070770 -0.996332 0.048115
vn -0.823306 -0.408666 0.393902
vn -0.053962 -0.997106 0.053548
vn -0.298028 -0.408705 0.862635
vn -0.823306 -0.408666 0.393902
vn -0.070770 -0.996332 0.048115
vn 0.004311 -0.998929 0.046075
vn 0.583182 -0.173683 0.793557
vn -0.298028 -0.408705 0.862635
vn -0.053962 -0.997106 0.053548
vn 0.032048 -0.997827 0.057572
vn 0.865378 -0.459086 0.200902
vn 0.583182 -0.173683 0.793557
vn 0.004311 -0.998929 0.046075
vn 0.865378 -0.459086 0.200902
vn 0.032048 -0.997827 0.057572
vn -0.029752 -0.997236 0.068080
vn 0.076724 -0.247677 -0.965800
vn 0.076724 -0.247677 -0.965800
vn -0.689864 -0.045849 -0.722486
vn -0.736318 0.416045 -0.533612
vn 0.395164 0.043066 -0.917601
vn -0.736318 0.416045 -0.533612
vn -0.689864 -0.045849 -0.722486
vn -0.823306 -0.408666 0.393902
vn -0.890281 0.136976 0.434324
vn -0.823306 -0.408666 0.393902
vn -0.298028 -0.408705 0.862635
vn -0.291526 0.033219 0.955986
vn -0.890281 0.136976 0.434324
vn -0.298028 -0.408705 0.862635
vn 0.583182 -0.173683 0.793557
vn 0.544247 0.284264 0.789297
vn -0.291526 0.033219 0.955986
vn 0.583182 -0.173683 0.793557
vn 0.865378 -0.459086 0.200902
vn 0.997088 -0.074343 -0.017009
vn 0.544247 0.284264 0.789297
vn 0.997088 -0.074343 -0.017009
vn 0.865378 -0.459086 0.200902
vn 0.076724 -0.247677 -0.965800
vn 0.395164 0.043066 -0.917601
vn 0.395164 0.043066 -0.917601
vn -0.736318 0.416045 -0.533612
vn -0.545288 0.656138 -0.521673
vn 0.159110 0.608322 -0.777578
vn -0.545288 0.656138 -0.521673
vn -0.736318 0.416045 -0.533612
vn -0.890281 0.136976 0.434324
vn -0.808684 0.474742 0.347348
vn -0.890281 0.136976 0.434324
vn -0.291526 0.033219 0.955986
vn -0.177713 0.259503 0.949250
vn -0.808684 0.474742 0.347348
vn -0.291526 0.033219 0.955986
vn 0.544247 0.284264 0.789297
vn 0.552694 0.494766 0.670624
vn -0.177713 0.259503 0.949250
vn 0.544247 0.284264 0.789297
vn 0.997088 -0.074343 -0.017009
vn 0.828977 0.553628 -0.079329
vn 0.552694 0.494766 0.670624
vn 0.828977 0.553628 -0.079329
vn 0.997088 -0.074343 -0.017009
vn 0.395164 0.043066 -0.917601
vn 0.159110 0.608322 -0.777578
vn 0.159110 0.608322 -0.777578
vn -0.545288 0.656138 -0.521673
vn -0.452698 0.683952 -0.572079
vn 0.051654 0.735730 -0.675302
vn -0.452698 0.683952 -0.572079
vn -0.545288 0.656138 -0.521673
vn -0.808684 0.474742 0.347348
vn -0.673661 0.692441 0.258276
vn -0.808684 0.474742 0.347348
vn -0.177713 0.259503 0.949250
vn -0.086356 0.613182 0.785207
vn -0.673661 0.692441 0.258276
vn -0.177713 0.259503 0.949250
vn 0.552694 0.494766 0.670624
vn 0.472517 0.722901 0.504124
vn -0.086356 0.613182 0.785207
vn 0.552694 0.494766 0.670624
vn 0.828977 0.553628 -0.079329
vn 0.598612 0.799979 -0.041188
vn 0.472517 0.722901 0.504124
vn 0.598612 0.799979 -0.041188
vn 0.828977 0.553628 -0.079329
vn 0.159110 0.608322 -0.777578
vn 0.051654 0.735730 -0.675302
vn 0.051654 0.735730 -0.675302
vn -0.452698 0.683952 -0.572079
vn -0.406493 0.697754 -0.589832
vn 0.003042 0.761997 -0.647574
vn -0.406493 0.697754 -0.589832
vn -0.452698 0.683952 -0.572079
vn -0.673661 0.692441 0.258276
vn -0.591183 0.806473 -0.010249
vn -0.673661 0.692441 0.258276
vn -0.086356 0.613182 0.785207
vn -0.011475 0.880506 0.473896
vn -0.591183 0.806473 -0.010249
vn -0.086356 0.613182 0.785207
vn 0.472517 0.722901 0.504124
vn 0.278460 0.908274 0.312248
vn -0.011475 0.880506 0.473896
vn 0.472517 0.722901 0.504124
vn 0.598612 0.799979 -0.041188
vn 0.371529 0.928393 0.007270
vn 0.278460 0.908274 0.312248
vn 0.371529 0.928393 0.007270
vn 0.598612 0.799979 -0.041188
vn 0.051654 0.735730 -0.675302
vn 0.003042 0.761997 -0.647574
vn -0.103308 -0.993473 0.048370
vn -0.029752 -0.997236 0.068080
vn -0.033883 -0.997076 0.068499
vn -0.070770 -0.996332 0.048115
vn -0.103308 -0.993473 0.048370
vn -0.033883 -0.997076 0.068499
vn -0.053962 -0.997106 0.053548
vn -0.070770 -0.996332 0.048115
vn -0.033883 -0.997076 0.068499
vn 0.004311 -0.998929 0.046075
vn -0.053962 -0.997106 0.053548
vn -0.033883 -0.997076 0.068499
vn 0.032048 -0.997827 0.057572
vn 0.004311 -0.998929 0.046075
vn -0.033883 -0.997076 0.068499
vn -0.029752 -0.997236 0.068080
vn 0.032048 -0.997827 0.057572
vn -0.033883 -0.997076 0.068499
vn 0.003042 0.761997 -0.647574
vn -0.406493 0.697754 -0.589832
vn -0.010122 0.999862 -0.013175
vn -0.010122 0.999862 -0.013175
vn -0.406493 0.697754 -0.589832
vn -0.591183 0.806473 -0.010249
vn -0.591183 0.806473 -0.010249
vn -0.011475 0.880506 0.473896
vn -0.010122 0.999862 -0.013175
vn -0.011475 0.880506 0.473896
vn 0.278460 0.908274 0.312248
vn -0.010122 0.999862 -0.013175
vn 0.278460 0.908274 0.312248
vn 0.371529 0.928393 0.007270
vn -0.010122 0.999862 -0.013175
vn -0.010122 0.999862 -0.013175
vn 0.371529 0.928393 0.007270
vn 0.003042 0.761997 -0.647574
s off
g Rock_low_3:polySurface17
usemtl initialShadingGroup
f 2/1/1 8/2/2 7/3/3 1/4/4
f 8/2/5 2/1/6 3/5/7 9/6/8
f 4/7/9 10/8/10 9/6/11 3/5/12
f 5/9/13 11/10/14 10/8/15 4/7/16
f 6/11/17 12/12/18 11/10/19 5/9/20
f 12/12/21 6/11/22 1/4/23 7/3/24
f 7/13/25 8/14/26 14/15/27 13/16/28
f 14/15/29 8/14/30 9/17/31 15/18/32
f 9/17/33 10/19/34 16/20/35 15/18/36
f 10/19/37 11/21/38 17/22/39 16/20/40
f 11/21/41 12/23/42 18/24/43 17/22/44
f 18/24/45 12/23/46 7/13/47 13/16/48
f 13/16/49 14/15/50 20/25/51 19/26/52
f 20/25/53 14/15/54 15/18/55 21/27/56
f 15/18/57 16/20/58 22/28/59 21/27/60
f 16/20/61 17/22/62 23/29/63 22/28/64
f 17/22/65 18/24/66 24/30/67 23/29/68
f 24/30/69 18/24/70 13/16/71 19/26/72
f 19/26/73 20/25/74 26/31/75 25/32/76
f 26/31/77 20/25/78 21/27/79 27/33/80
f 21/27/81 22/28/82 28/34/83 27/33/84
f 22/28/85 23/29/86 29/35/87 28/34/88
f 23/29/89 24/30/90 30/36/91 29/35/92
f 30/36/93 24/30/94 19/26/95 25/32/96
f 25/32/97 26/31/98 32/37/99 31/38/100
f 32/37/101 26/31/102 27/33/103 33/39/104
f 27/33/105 28/34/106 34/40/107 33/39/108
f 28/34/109 29/35/110 35/41/111 34/40/112
f 29/35/113 30/36/114 36/42/115 35/41/116
f 36/42/117 30/36/118 25/32/119 31/38/120
f 2/1/121 1/4/122 37/43/123
f 3/5/124 2/1/125 37/43/126
f 4/7/127 3/5/128 37/43/129
f 5/9/130 4/7/131 37/43/132
f 6/11/133 5/9/134 37/43/135
f 1/4/136 6/11/137 37/43/138
f 31/38/139 32/37/140 38/44/141
f 38/44/142 32/37/143 33/39/144
f 33/39/145 34/40/146 38/44/147
f 34/40/148 35/41/149 38/44/150
f 35/41/151 36/42/152 38/44/153
f 38/44/154 36/42/155 31/38/156
