# This file uses centimeters as units for non-parametric coordinates.

mtllib cobl_pillar_low.mtl
g default
v -0.752767 2.558346 0.755975
v 0.699156 2.795701 0.755975
v -0.752767 2.801988 -0.695951
v 0.699156 3.039344 -0.695951
v -0.752767 2.010673 0.755975
v 0.699156 2.115882 0.755975
v -0.752767 1.937890 -0.695951
v 0.699156 2.043099 -0.695951
v -0.752767 1.045904 0.755975
v 0.699156 0.992016 0.755973
v -0.752767 0.781329 -0.695951
v 0.699156 0.727441 -0.695951
v 0.805661 2.901345 -0.802455
v -0.859273 2.709800 -0.802455
v 0.805661 2.097378 -0.802455
v -0.859273 2.012475 -0.802455
v 0.805661 2.156114 0.862479
v -0.859273 2.071210 0.862479
v 0.805661 2.704726 0.862479
v -0.859273 2.513180 0.862479
v 0.788442 1.957864 -0.785234
v -0.842054 1.867085 -0.785234
v 0.788442 0.822659 -0.785234
v -0.842054 0.869156 -0.785234
v 0.788442 1.050946 0.845259
v -0.842054 1.097442 0.845261
v 0.788442 2.020664 0.845261
v -0.842054 1.929885 0.845261
v -0.742723 3.240967 0.828215
v -0.742723 3.299536 0.745930
v -0.825009 3.240967 0.745930
v 0.771397 3.240967 0.745930
v 0.689111 3.299536 0.745930
v 0.689111 3.240967 0.828215
v 0.689111 3.240967 -0.768186
v 0.689111 3.299536 -0.685899
v 0.771397 3.240967 -0.685899
v -0.825009 3.240967 -0.685899
v -0.742723 3.299536 -0.685899
v -0.742723 3.240967 -0.768186
v 0.771397 3.113075 -0.685899
v 0.745107 3.095026 -0.741896
v 0.689111 3.113432 -0.768186
v -0.825009 2.852100 -0.685899
v -0.742723 2.879360 -0.768186
v -0.794106 2.838566 -0.737281
v 0.771397 2.872804 0.745930
v 0.689111 2.845544 0.828215
v 0.740363 2.831805 0.797182
v -0.825009 2.611829 0.745930
v -0.788892 2.578185 0.792099
v -0.742723 2.611472 0.828215
v -0.751765 0.068897 0.754972
v -0.751765 0.141025 0.856307
v -0.853101 0.141025 0.754972
v 0.799489 0.141025 0.754972
v 0.698153 0.141025 0.856307
v 0.698153 0.068897 0.754972
v 0.799489 0.942522 0.754971
v 0.751542 0.974001 0.808359
v 0.698153 0.960565 0.856306
v -0.853101 0.992313 0.754972
v -0.751765 1.004251 0.856307
v -0.805772 1.025512 0.808980
v -0.751765 0.141025 -0.796283
v -0.751765 0.068897 -0.694947
v -0.853101 0.141025 -0.694947
v 0.799489 0.141025 -0.694947
v 0.698153 0.068897 -0.694947
v 0.698153 0.141025 -0.796283
v 0.698153 0.716102 -0.796283
v 0.749328 0.720244 -0.746119
v 0.799489 0.728039 -0.694947
v -0.751765 0.759787 -0.796283
v -0.853101 0.777831 -0.694947
v -0.803261 0.772025 -0.746440
vt 0.360296 0.801386
vt 0.247331 0.824501
vt 0.247487 0.740220
vt 0.360873 0.728299
vt 0.017831 0.727949
vt 0.132744 0.745156
vt 0.133121 0.802269
vt 0.014941 0.778965
vt 0.475819 0.732227
vt 0.476621 0.782373
vt 0.360429 0.708656
vt 0.247504 0.721143
vt 0.248532 0.602024
vt 0.357706 0.602487
vt 0.027938 0.612727
vt 0.138690 0.624661
vt 0.133433 0.725570
vt 0.019493 0.706105
vt 0.471453 0.618380
vt 0.473421 0.710621
vt 0.247443 0.840488
vt 0.359540 0.813680
vt 0.359568 0.819693
vt 0.355996 0.823695
vt 0.250621 0.849267
vt 0.247499 0.847500
vt 0.022693 0.789438
vt 0.133789 0.814248
vt 0.133724 0.820153
vt 0.130595 0.821293
vt 0.023594 0.797502
vt 0.020145 0.792882
vt 0.244412 0.849290
vt 0.137365 0.824180
vt 0.468888 0.792356
vt 0.471350 0.796328
vt 0.467598 0.800253
vt 0.362622 0.820867
vt 0.247320 0.731476
vt 0.360445 0.718136
vt 0.025644 0.718241
vt 0.133254 0.736788
vt 0.467672 0.721724
vt 0.248815 0.590599
vt 0.356715 0.591076
vt 0.035457 0.605053
vt 0.139541 0.615909
vt 0.464814 0.609576
vt 0.032178 0.599911
vt 0.036366 0.596531
vt 0.136216 0.608165
vt 0.139777 0.609707
vt 0.143867 0.606848
vt 0.244399 0.584899
vt 0.248225 0.584534
vt 0.357017 0.584569
vt 0.360888 0.584618
vt 0.464161 0.600199
vt 0.468698 0.604126
vt 0.251996 0.583714
vt 0.353081 0.583670
vt 0.471939 0.868272
vt 0.463581 0.867918
vt 0.475830 0.800157
vt 0.300823 0.880916
vt 0.309187 0.879841
vt 0.309803 0.982036
vt 0.301569 0.981035
vt 0.301778 0.872676
vt 0.200706 0.881750
vt 0.199583 0.873393
vt 0.139806 0.863409
vt 0.131879 0.863650
vt 0.302692 0.989392
vt 0.200498 0.990109
vt 0.201451 0.981870
vt 0.251176 0.862913
vt 0.244255 0.862997
vt 0.193088 0.982944
vt 0.192472 0.880749
vt 0.361469 0.862571
vt 0.353883 0.862270
vt 0.028479 0.866316
vt 0.049194 0.889049
vt 0.047904 0.879834
vt 0.141013 0.878873
vt 0.139972 0.887939
vt 0.040134 0.887957
vt 0.050209 0.979828
vt 0.040986 0.981067
vt 0.459022 0.508409
vt 0.469324 0.507930
vt 0.474320 0.601737
vt 0.049167 0.988894
vt 0.140987 0.978718
vt 0.142276 0.987934
vt 0.142085 0.520557
vt 0.150755 0.521526
vt 0.347484 0.517557
vt 0.356937 0.516783
vt 0.149195 0.886701
vt 0.150047 0.979811
vt 0.242113 0.522055
vt 0.250897 0.522005
vt 0.047875 0.506629
vn -0.532484 0.123753 -0.837344
vn 0.663774 0.161130 -0.730371
vn 0.637624 -0.105855 -0.763040
vn -0.610407 -0.133918 -0.780685
vn -0.768775 -0.146015 0.622627
vn 0.793696 -0.114466 0.597449
vn 0.842465 0.136133 0.521268
vn -0.747948 0.111154 0.654385
vn -0.646850 0.066029 -0.759753
vn 0.729350 0.072879 -0.680248
vn 0.662916 -0.087409 -0.743574
vn -0.594262 -0.085017 -0.799765
vn -0.742339 -0.063124 0.667044
vn 0.799729 -0.063014 0.597044
vn 0.758662 0.087016 0.645647
vn -0.681319 0.080377 0.727561
vn 0.698410 0.136689 -0.702524
vn -0.512320 0.315223 -0.798850
vn -0.199636 -0.819211 -0.537623
vn -0.020093 -0.310060 -0.950505
vn 0.061293 -0.265428 -0.962180
vn 0.461564 -0.754854 -0.465998
vn -0.615708 0.496176 0.612138
vn 0.797505 0.319886 0.511526
vn 0.535145 -0.821479 0.196955
vn 0.051418 -0.160665 0.985669
vn -0.031521 -0.202741 0.978725
vn -0.263537 -0.929247 0.258935
vn 0.962863 -0.262838 -0.061728
vn 0.950953 -0.308700 0.019838
vn -0.978394 -0.204381 0.031207
vn -0.985570 -0.161137 -0.051827
vn 0.681341 -0.256140 -0.685687
vn -0.702370 -0.133236 -0.699232
vn -0.694039 -0.219238 0.685744
vn 0.666737 -0.334604 0.665959
vn 0.604807 0.361215 -0.709740
vn -0.591201 0.315636 -0.742196
vn -0.737320 0.053703 0.673406
vn 0.755225 0.113990 0.645478
vn -0.132650 0.986186 0.099203
vn -0.053267 0.165123 0.984834
vn 0.056123 0.157864 0.985865
vn 0.144866 0.984802 0.095807
vn 0.974194 0.219549 0.052388
vn 0.981354 0.178340 -0.071685
vn 0.133911 0.977990 -0.160009
vn -0.120684 0.979408 -0.161849
vn -0.983695 0.166401 -0.068228
vn -0.977335 0.205523 0.050762
vn 0.069792 0.221788 -0.972594
vn -0.065083 0.231155 -0.970738
vn -0.060641 0.136356 0.988802
vn -0.988676 0.137119 0.060981
vn -0.037277 0.998609 0.037278
vn 0.038444 0.139713 0.989446
vn 0.037277 0.998609 0.037278
vn -0.037277 0.998609 -0.037277
vn -0.989334 0.140604 -0.038057
vn 0.966893 0.246036 0.067700
vn 0.966008 0.257203 -0.026006
vn 0.037277 0.998609 -0.037277
vn 0.026275 0.259867 -0.965287
vn -0.067333 0.248764 -0.966221
vn -0.044476 -0.998020 0.044476
vn -0.990684 -0.117080 0.069550
vn -0.991466 -0.119352 -0.052448
vn -0.044476 -0.998020 -0.044476
vn -0.062718 -0.105578 0.992431
vn 0.044476 -0.998020 0.044476
vn 0.059602 -0.105949 0.992584
vn 0.989746 -0.124495 0.070035
vn 0.044476 -0.998020 -0.044476
vn 0.990539 -0.127066 -0.051836
vn -0.063003 -0.143372 -0.987661
vn 0.058767 -0.144055 -0.987823
s 1
g pillar_low:pillar_low
usemtl initialShadingGroup
f 14/1/1 13/2/2 15/3/3 16/4/4
f 18/5/5 17/6/6 19/7/7 20/8/8
f 17/6/6 15/3/3 13/2/2 19/7/7
f 16/4/4 18/9/5 20/10/8 14/1/1
f 22/11/9 21/12/10 23/13/11 24/14/12
f 26/15/13 25/16/14 27/17/15 28/18/16
f 25/16/14 23/13/11 21/12/10 27/17/15
f 24/14/12 26/19/13 28/20/16 22/11/9
f 4/21/17 3/22/18 46/23/19 45/24/20 43/25/21 42/26/22
f 1/27/23 2/28/24 49/29/25 48/30/26 52/31/27 51/32/28
f 2/28/24 4/21/17 42/26/22 41/33/29 47/34/30 49/29/25
f 3/22/18 1/35/23 51/36/28 50/37/31 44/38/32 46/23/19
f 3/22/18 4/21/17 13/2/2 14/1/1
f 8/39/33 7/40/34 16/4/4 15/3/3
f 5/41/35 6/42/36 17/6/6 18/5/5
f 2/28/24 1/27/23 20/8/8 19/7/7
f 6/42/36 8/39/33 15/3/3 17/6/6
f 4/21/17 2/28/24 19/7/7 13/2/2
f 7/40/34 5/43/35 18/9/5 16/4/4
f 1/35/23 3/22/18 14/1/1 20/10/8
f 7/40/34 8/39/33 21/12/10 22/11/9
f 12/44/37 11/45/38 24/14/12 23/13/11
f 9/46/39 10/47/40 25/16/14 26/15/13
f 6/42/36 5/41/35 28/18/16 27/17/15
f 10/47/40 12/44/37 23/13/11 25/16/14
f 8/39/33 6/42/36 27/17/15 21/12/10
f 11/45/38 9/48/39 26/19/13 24/14/12
f 5/43/35 7/40/34 22/11/9 28/20/16
f 10/47/40 9/46/39 64/49/41 63/50/42 61/51/43 60/52/44
f 12/44/37 10/47/40 60/52/44 59/53/45 73/54/46 72/55/47
f 9/48/39 11/45/38 76/56/48 75/57/49 62/58/50 64/59/41
f 11/45/38 12/44/37 72/55/47 71/60/51 74/61/52 76/56/48
f 29/62/53 31/63/54 50/37/31 52/64/27
f 30/65/55 29/66/53 34/67/56 33/68/57
f 31/69/54 30/65/55 39/70/58 38/71/59
f 32/72/60 34/73/56 48/30/26 47/34/30
f 33/68/57 32/74/60 37/75/61 36/76/62
f 35/77/63 37/78/61 41/33/29 43/25/21
f 36/76/62 35/79/63 40/80/64 39/70/58
f 38/81/59 40/82/64 45/24/20 44/38/32
f 30/65/55 33/68/57 36/76/62 39/70/58
f 40/82/64 35/77/63 43/25/21 45/24/20
f 29/83/53 52/31/27 48/30/26 34/73/56
f 32/72/60 47/34/30 41/33/29 37/78/61
f 38/81/59 44/38/32 50/37/31 31/63/54
f 29/66/53 30/65/55 31/69/54
f 32/74/60 33/68/57 34/67/56
f 35/79/63 36/76/62 37/75/61
f 38/71/59 39/70/58 40/80/64
f 41/33/29 42/26/22 43/25/21
f 44/38/32 45/24/20 46/23/19
f 47/34/30 48/30/26 49/29/25
f 50/37/31 51/36/28 52/64/27
f 53/84/65 55/85/66 67/86/67 66/87/68
f 54/88/69 53/84/65 58/89/70 57/90/71
f 55/91/66 54/92/69 63/93/42 62/58/50
f 56/94/72 58/89/70 69/95/73 68/96/74
f 57/97/71 56/98/72 59/53/45 61/51/43
f 65/99/75 67/100/67 75/57/49 74/61/52
f 66/87/68 65/101/75 70/102/76 69/95/73
f 68/103/74 70/104/76 71/60/51 73/54/46
f 54/105/69 57/97/71 61/51/43 63/50/42
f 66/87/68 69/95/73 58/89/70 53/84/65
f 56/98/72 68/103/74 73/54/46 59/53/45
f 67/100/67 55/91/66 62/58/50 75/57/49
f 65/99/75 74/61/52 71/60/51 70/104/76
f 53/84/65 54/88/69 55/85/66
f 56/94/72 57/90/71 58/89/70
f 59/53/45 60/52/44 61/51/43
f 62/58/50 63/93/42 64/59/41
f 65/101/75 66/87/68 67/86/67
f 68/96/74 69/95/73 70/102/76
f 71/60/51 72/55/47 73/54/46
f 74/61/52 75/57/49 76/56/48
