# This file uses centimeters as units for non-parametric coordinates.

mtllib cobl_wall_low.mtl
g default
v -0.692809 0.107569 1.684419
v -0.692809 0.157564 1.734414
v -0.767801 0.157564 1.684419
v 0.732199 0.157564 1.684419
v 0.657206 0.157564 1.734414
v 0.657206 0.107569 1.684419
v -0.767801 3.257574 1.684419
v -0.692809 3.257574 1.734414
v -0.692809 3.307569 1.684419
v 0.657206 3.307569 1.684419
v 0.657206 3.257574 1.734414
v 0.732199 3.257574 1.684419
v -0.767801 3.257574 -1.615591
v -0.692809 3.307569 -1.615591
v -0.692809 3.257574 -1.665586
v 0.657206 3.257574 -1.665586
v 0.657206 3.307569 -1.615591
v 0.732199 3.257574 -1.615591
v -0.767801 0.157564 -1.615591
v -0.692809 0.157564 -1.665586
v -0.692809 0.107569 -1.615591
v 0.657206 0.107569 -1.615591
v 0.657206 0.157564 -1.665586
v 0.732199 0.157564 -1.615591
v -0.767801 0.157564 -0.001570
v -0.692809 0.107569 -0.001570
v 0.657206 0.107569 -0.001570
v 0.732199 0.157564 -0.001570
v 0.732199 3.257574 -0.001570
v 0.657206 3.307569 -0.001570
v -0.692809 3.307569 -0.001570
v -0.767801 3.257574 -0.001570
v -0.692809 1.700501 1.734414
v -0.767801 1.700501 1.684419
v -0.767801 1.700501 -0.001570
v -0.767801 1.700501 -1.615591
v -0.692809 1.700501 -1.665586
v 0.657206 1.700501 -1.665586
v 0.732199 1.700501 -1.615591
v 0.732199 1.700501 -0.001570
v 0.732199 1.700501 1.684419
v 0.657206 1.700501 1.734414
v -0.767801 2.988270 1.684419
v -0.692809 2.988270 1.734414
v 0.657206 2.988270 1.734414
v 0.732199 2.988270 1.684419
v 0.732199 2.988270 -0.001570
v 0.732199 2.988270 -1.615591
v 0.657206 2.988270 -1.665586
v -0.692809 2.988270 -1.665586
v -0.767801 2.988270 -1.615591
v -0.767801 2.988270 -0.001570
v -0.692809 0.377852 1.734414
v -0.767801 0.377852 1.684419
v -0.767801 0.377852 -0.001570
v -0.767801 0.377852 -1.615591
v -0.692809 0.377852 -1.665586
v 0.657206 0.377852 -1.665586
v 0.732199 0.377852 -1.615591
v 0.732199 0.377852 -0.001570
v 0.732199 0.377852 1.684419
v 0.657206 0.377852 1.734414
v -0.015383 0.107569 1.684419
v -0.015383 0.157564 1.734414
v -0.015383 0.377852 1.734414
v -0.015383 1.700501 1.734414
v -0.015383 2.988270 1.734414
v -0.015383 3.257574 1.734414
v -0.015383 3.307569 1.684419
v -0.015383 3.307569 -0.001570
v -0.015383 3.307569 -1.615591
v -0.015383 3.257574 -1.665586
v -0.015383 2.988270 -1.665586
v -0.015383 1.700501 -1.665586
v -0.015383 0.377852 -1.665586
v -0.015383 0.157564 -1.665586
v -0.015383 0.107569 -1.615591
v -0.015383 0.107569 -0.001570
vt 0.970308 0.504412
vt 0.969775 0.509538
vt 0.847436 0.509544
vt 0.847448 0.504345
vt 0.549922 0.529487
vt 0.549907 0.533442
vt 0.524642 0.533345
vt 0.524658 0.529389
vt 0.974729 0.508523
vt 0.975807 0.525273
vt 0.970624 0.525561
vt 0.500965 0.755823
vt 0.500464 0.750674
vt 0.623797 0.750608
vt 0.623787 0.755805
vt 0.496117 0.754806
vt 0.500178 0.771954
vt 0.494980 0.771703
vt 0.970347 0.736691
vt 0.970866 0.741837
vt 0.847701 0.742054
vt 0.847693 0.736855
vt 0.810381 0.966561
vt 0.807113 0.969761
vt 0.786670 0.948889
vt 0.789938 0.945689
vt 0.501404 0.988532
vt 0.501917 0.983404
vt 0.624226 0.983113
vt 0.624241 0.988311
vt 0.729080 0.525607
vt 0.723882 0.525355
vt 0.725026 0.508461
vt 0.729874 0.509478
vt 0.966165 0.813979
vt 0.962897 0.817180
vt 0.942454 0.796308
vt 0.945722 0.793107
vt 0.746907 0.771459
vt 0.741724 0.771749
vt 0.740868 0.755733
vt 0.745822 0.754716
vt 0.549196 0.718050
vt 0.549181 0.722005
vt 0.523916 0.721908
vt 0.523931 0.717953
vt 0.559167 0.510124
vt 0.595800 0.510090
vt 0.595816 0.527959
vt 0.559183 0.527993
vt 0.867859 0.869369
vt 0.888302 0.890241
vt 0.712665 0.525737
vt 0.675774 0.525982
vt 0.675655 0.507988
vt 0.712545 0.507743
vt 0.549543 0.627759
vt 0.524279 0.627662
vt 0.623746 0.771995
vt 0.847385 0.525733
vt 0.975229 0.737703
vt 0.496945 0.984431
vt 0.730644 0.737019
vt 0.730122 0.742145
vt 0.725671 0.738040
vt 0.746501 0.983839
vt 0.742145 0.987978
vt 0.741617 0.982834
vt 0.729373 0.504330
vt 0.741401 0.750608
vt 0.971319 0.717091
vt 0.976518 0.717330
vt 0.847667 0.716994
vt 0.729567 0.717434
vt 0.724383 0.717717
vt 0.958168 0.780916
vt 0.978611 0.801789
vt 0.742567 0.963240
vt 0.747767 0.963472
vt 0.624180 0.963252
vt 0.500817 0.963812
vt 0.495634 0.964102
vt 0.794667 0.981952
vt 0.774224 0.961079
vt 0.971655 0.622258
vt 0.976846 0.622230
vt 0.559282 0.635279
vt 0.595915 0.635245
vt 0.596012 0.739702
vt 0.559379 0.739736
vt 0.494510 0.869484
vt 0.499702 0.869461
vt 0.623884 0.868923
vt 0.742800 0.868423
vt 0.747992 0.868391
vt 0.714081 0.738972
vt 0.677191 0.739217
vt 0.676492 0.634024
vt 0.713383 0.633779
vt 0.723364 0.623119
vt 0.728556 0.623101
vt 0.847437 0.622674
vt 0.499559 0.533248
vt 0.499574 0.529293
vt 0.632171 0.510057
vt 0.632187 0.527925
vt 0.632286 0.635212
vt 0.632383 0.739669
vt 0.753926 0.940356
vt 0.766372 0.928166
vt 0.769640 0.924965
vt 0.847561 0.848646
vt 0.922156 0.775584
vt 0.925424 0.772384
vt 0.937870 0.760193
vt 0.640563 0.739460
vt 0.639864 0.634268
vt 0.639147 0.526226
vt 0.639027 0.508231
vt 0.498832 0.721811
vt 0.498847 0.717856
vt 0.499195 0.627565
vn -0.554701 -0.832050 0.000000
vn -0.554701 -0.832050 0.000000
vn -0.963598 -0.267357 0.000000
vn -0.066299 -0.997800 0.000000
vn 0.000000 -0.707109 0.707105
vn 0.000000 -0.999586 0.028787
vn 0.000000 -0.181888 0.983319
vn -0.066300 0.000000 0.997800
vn -0.999068 0.000000 0.043158
vn 0.554699 -0.832052 0.000000
vn 0.000000 -0.707109 0.707105
vn 0.066727 -0.997771 0.000000
vn 0.963597 -0.267358 0.000000
vn 0.000000 -0.707109 0.707105
vn 0.999068 0.000000 0.043158
vn 0.066727 0.000000 0.997771
vn -0.554704 0.000000 0.832048
vn -0.554701 0.832050 0.000000
vn -0.066299 0.997800 0.000000
vn -0.973510 0.228644 0.000000
vn -0.554704 0.000000 0.832048
vn 0.000000 0.154694 0.987963
vn 0.000000 0.999586 0.028787
vn 0.000000 0.707109 0.707105
vn 0.554702 0.000000 0.832049
vn 0.973510 0.228645 0.000000
vn 0.066727 0.997771 0.000000
vn -0.998986 0.000000 -0.045021
vn -0.066299 0.000000 -0.997800
vn -0.554703 0.000000 -0.832049
vn -0.554701 -0.832050 0.000000
vn -0.554703 0.000000 -0.832049
vn -0.554701 0.832050 0.000000
vn 0.000000 0.999549 -0.030031
vn 0.000000 0.154693 -0.987963
vn 0.066726 0.000000 -0.997771
vn 0.998986 0.000000 -0.045021
vn 0.554699 -0.832052 0.000000
vn 0.554701 0.000000 -0.832050
vn -0.554701 -0.832050 0.000000
vn 0.000000 -0.181887 -0.983320
vn 0.000000 -0.999549 -0.030031
vn 0.000000 0.000000 1.000000
vn 0.000000 1.000000 0.000000
vn 0.000000 0.000000 -1.000000
vn 0.000000 -1.000000 0.000000
vn 1.000000 0.000000 0.000000
vn -1.000000 0.000000 0.000000
vn 0.554702 0.000000 0.832049
vn -0.554701 0.832050 0.000000
vn 0.000000 0.707108 -0.707105
vn 0.554699 0.832052 0.000000
vn 0.554699 0.832052 0.000000
vn 0.554699 -0.832052 0.000000
vn -0.999068 0.000000 0.043158
vn -0.066300 0.000000 0.997800
vn -1.000000 0.000000 0.000000
vn -0.998986 0.000000 -0.045021
vn -0.066299 0.000000 -0.997800
vn 0.000000 0.000000 -1.000000
vn 0.998986 0.000000 -0.045021
vn 0.066726 0.000000 -0.997771
vn 1.000000 0.000000 0.000000
vn 0.999068 0.000000 0.043158
vn 0.066727 0.000000 0.997771
vn 0.000000 0.000000 1.000000
vn -0.999068 0.000000 0.043158
vn -0.066300 0.000000 0.997800
vn 0.000000 0.000000 1.000000
vn 0.066727 0.000000 0.997771
vn 0.999068 0.000000 0.043158
vn 1.000000 0.000000 0.000000
vn 0.998986 0.000000 -0.045021
vn 0.066726 0.000000 -0.997771
vn 0.000000 0.000000 -1.000000
vn -0.066299 0.000000 -0.997800
vn -0.998986 0.000000 -0.045021
vn -1.000000 0.000000 0.000000
s 1
g brickwall_low:cobnblewall_low
usemtl initialShadingGroup
f 1/1/1 3/2/2 25/3/3 26/4/4
f 2/5/5 1/6/1 63/7/6 64/8/7
f 3/2/2 2/9/5 53/10/8 54/11/9
f 4/12/10 6/13/11 27/14/12 28/15/13
f 5/16/14 4/12/10 61/17/15 62/18/16
f 7/19/17 9/20/18 31/21/19 32/22/20
f 9/23/18 8/24/21 68/25/22 69/26/23
f 10/27/24 12/28/25 29/29/26 30/30/27
f 56/31/28 57/32/29 20/33/30 19/34/31
f 15/35/32 14/36/33 71/37/34 72/38/35
f 58/39/36 59/40/37 24/41/38 23/42/39
f 21/43/40 20/44/30 76/45/41 77/46/42
f 2/47/5 64/48/7 65/49/43 53/50/8
f 9/23/18 69/26/23 70/51/44 31/52/19
f 57/53/29 75/54/45 76/55/41 20/56/30
f 26/57/4 78/58/46 63/7/6 1/6/1
f 4/12/10 28/15/13 60/59/47 61/17/15
f 54/11/9 55/60/48 25/3/3 3/2/2
f 1/1/1 2/9/5 3/2/2
f 4/12/10 5/16/14 6/13/11
f 7/19/17 8/61/21 9/20/18
f 10/27/24 11/62/49 12/28/25
f 13/63/50 14/64/33 15/65/32
f 16/66/51 17/67/52 18/68/53
f 19/34/31 20/33/30 21/69/40
f 22/70/54 23/42/39 24/41/38
f 26/4/4 25/3/3 19/34/31 21/69/40
f 21/43/40 77/46/42 78/58/46 26/57/4
f 28/15/13 27/14/12 22/70/54 24/41/38
f 59/40/37 60/59/47 28/15/13 24/41/38
f 30/30/27 29/29/26 18/68/53 17/67/52
f 31/52/19 70/51/44 71/37/34 14/36/33
f 32/22/20 31/21/19 14/64/33 13/63/50
f 19/34/31 25/3/3 55/60/48 56/31/28
f 43/71/55 44/72/56 8/61/21 7/19/17
f 32/22/20 52/73/57 43/71/55 7/19/17
f 51/74/58 52/73/57 32/22/20 13/63/50
f 13/63/50 15/65/32 50/75/59 51/74/58
f 15/35/32 72/38/35 73/76/60 50/77/59
f 16/66/51 18/68/53 48/78/61 49/79/62
f 29/29/26 47/80/63 48/78/61 18/68/53
f 46/81/64 47/80/63 29/29/26 12/28/25
f 45/82/65 46/81/64 12/28/25 11/62/49
f 44/83/56 67/84/66 68/25/22 8/24/21
f 34/85/67 33/86/68 44/72/56 43/71/55
f 33/87/68 66/88/69 67/89/66 44/90/56
f 42/91/70 41/92/71 46/81/64 45/82/65
f 41/92/71 40/93/72 47/80/63 46/81/64
f 48/78/61 47/80/63 40/93/72 39/94/73
f 49/79/62 48/78/61 39/94/73 38/95/74
f 50/96/59 73/97/60 74/98/75 37/99/76
f 51/74/58 50/75/59 37/100/76 36/101/77
f 36/101/77 35/102/78 52/73/57 51/74/58
f 43/71/55 52/73/57 35/102/78 34/85/67
f 54/11/9 53/10/8 33/86/68 34/85/67
f 34/85/67 35/102/78 55/60/48 54/11/9
f 56/31/28 55/60/48 35/102/78 36/101/77
f 36/101/77 37/100/76 57/32/29 56/31/28
f 37/99/76 74/98/75 75/54/45 57/53/29
f 38/95/74 39/94/73 59/40/37 58/39/36
f 39/94/73 40/93/72 60/59/47 59/40/37
f 61/17/15 60/59/47 40/93/72 41/92/71
f 62/18/16 61/17/15 41/92/71 42/91/70
f 53/50/8 65/49/43 66/88/69 33/87/68
f 64/8/7 63/7/6 6/103/11 5/104/14
f 65/49/43 64/48/7 5/105/14 62/106/16
f 66/88/69 65/49/43 62/106/16 42/107/70
f 67/89/66 66/88/69 42/107/70 45/108/65
f 68/25/22 67/84/66 45/109/65 11/110/49
f 69/26/23 68/25/22 11/110/49 10/111/24
f 70/51/44 69/26/23 10/111/24 30/112/27
f 71/37/34 70/51/44 30/112/27 17/113/52
f 72/38/35 71/37/34 17/113/52 16/114/51
f 73/76/60 72/38/35 16/114/51 49/115/62
f 74/98/75 73/97/60 49/116/62 38/117/74
f 75/54/45 74/98/75 38/117/74 58/118/36
f 76/55/41 75/54/45 58/118/36 23/119/39
f 77/46/42 76/45/41 23/120/39 22/121/54
f 78/58/46 77/46/42 22/121/54 27/122/12
f 63/7/6 78/58/46 27/122/12 6/103/11
