# This file uses centimeters as units for non-parametric coordinates.

mtllib Cobble_pillar_low.mtl
g default
v 0.529424 2.464280 0.468320
v 0.529424 2.698073 -0.485099
v -0.423998 2.704265 0.468320
v -0.423998 2.938059 -0.485099
v 0.529424 1.924828 0.468320
v 0.529424 2.028458 -0.485099
v -0.423998 1.853138 0.468320
v -0.423998 1.956768 -0.485099
v 0.529424 0.974540 0.468320
v 0.529423 0.921462 -0.485099
v -0.423998 0.713937 0.468320
v -0.423998 0.660858 -0.485099
v -0.493934 2.802132 -0.555037
v -0.493934 2.613461 0.538258
v -0.493934 2.010231 -0.555037
v -0.493934 1.926602 0.538258
v 0.599361 2.068086 -0.555037
v 0.599361 1.984457 0.538258
v 0.599361 2.608463 -0.555037
v 0.599361 2.419792 0.538258
v -0.482626 1.872812 -0.543730
v -0.482626 1.783396 0.526951
v -0.482626 0.754647 -0.543730
v -0.482626 0.800446 0.526951
v 0.588053 0.979506 -0.543730
v 0.588054 1.025305 0.526951
v 0.588054 1.934669 -0.543730
v 0.588054 1.845253 0.526951
v 0.576861 3.136655 0.461725
v 0.522828 3.194345 0.461725
v 0.522828 3.136655 0.515758
v 0.522828 3.136655 -0.532537
v 0.522828 3.194345 -0.478503
v 0.576861 3.136655 -0.478503
v -0.471431 3.136655 -0.478503
v -0.417397 3.194345 -0.478503
v -0.417397 3.136655 -0.532537
v -0.417397 3.136655 0.515758
v -0.417396 3.194345 0.461725
v -0.471431 3.136655 0.461725
v -0.417397 3.010683 -0.532537
v -0.454167 2.992905 -0.515273
v -0.471431 3.011034 -0.478503
v -0.417397 2.753625 0.515758
v -0.471431 2.780476 0.461725
v -0.451137 2.740294 0.495466
v 0.522828 2.774017 -0.532537
v 0.576861 2.747167 -0.478503
v 0.556483 2.733635 -0.512158
v 0.522828 2.516960 0.515758
v 0.553145 2.483822 0.492042
v 0.576861 2.516609 0.461725
v 0.528765 0.012199 0.467662
v 0.595308 0.083244 0.467662
v 0.528765 0.083244 0.534205
v 0.528765 0.083244 -0.550984
v 0.595308 0.083244 -0.484441
v 0.528766 0.012199 -0.484441
v 0.528765 0.872710 -0.550984
v 0.563823 0.903717 -0.519499
v 0.595307 0.890483 -0.484441
v 0.528765 0.921755 0.534205
v 0.595308 0.933513 0.467662
v 0.564230 0.954455 0.503126
v -0.489881 0.083244 0.467662
v -0.423338 0.012199 0.467662
v -0.423338 0.083244 0.534205
v -0.423338 0.083244 -0.550984
v -0.423338 0.012199 -0.484441
v -0.489881 0.083244 -0.484441
v -0.489881 0.649689 -0.484441
v -0.456941 0.653769 -0.518045
v -0.423338 0.661447 -0.550984
v -0.489881 0.692719 0.467662
v -0.423338 0.710491 0.534205
v -0.457152 0.704772 0.501477
vt 0.732219 0.609817
vt 0.501640 0.657000
vt 0.501957 0.484968
vt 0.733397 0.460634
vt 0.033190 0.459921
vt 0.267747 0.495043
vt 0.268518 0.611620
vt 0.027291 0.564053
vt 0.968021 0.468652
vt 0.969659 0.571009
vt 0.732490 0.420540
vt 0.501992 0.446028
vt 0.504091 0.202886
vt 0.726932 0.203832
vt 0.053820 0.224732
vt 0.279884 0.249092
vt 0.269155 0.455064
vt 0.036583 0.415334
vt 0.959110 0.236271
vt 0.963126 0.424552
vt 0.501867 0.689631
vt 0.730676 0.634911
vt 0.730733 0.647186
vt 0.723443 0.655354
vt 0.508354 0.707550
vt 0.501981 0.703945
vt 0.043114 0.585431
vt 0.269880 0.636072
vt 0.269749 0.648125
vt 0.263362 0.650451
vt 0.044954 0.601889
vt 0.037914 0.592460
vt 0.495680 0.707597
vt 0.277179 0.656344
vt 0.953875 0.591387
vt 0.958899 0.599494
vt 0.951241 0.607506
vt 0.736968 0.649582
vt 0.501617 0.467119
vt 0.732524 0.439890
vt 0.049138 0.440104
vt 0.268789 0.477962
vt 0.951393 0.447214
vt 0.504668 0.179566
vt 0.724910 0.180539
vt 0.069168 0.209070
vt 0.281621 0.231228
vt 0.945558 0.218302
vt 0.062475 0.198574
vt 0.071023 0.191674
vt 0.274834 0.215421
vt 0.282103 0.218568
vt 0.290451 0.212732
vt 0.495655 0.167931
vt 0.503464 0.167187
vt 0.725526 0.167257
vt 0.733428 0.167358
vt 0.944225 0.199162
vt 0.953486 0.207177
vt 0.511160 0.165512
vt 0.717492 0.165422
vt 0.960102 0.746344
vt 0.943041 0.745621
vt 0.968044 0.607309
vt 0.610826 0.772152
vt 0.627898 0.769958
vt 0.629156 0.978554
vt 0.612348 0.976511
vt 0.612774 0.755332
vt 0.406470 0.773855
vt 0.404178 0.756797
vt 0.282163 0.736416
vt 0.265982 0.736910
vt 0.614640 0.993569
vt 0.406044 0.995034
vt 0.407991 0.978215
vt 0.509487 0.735404
vt 0.495361 0.735576
vt 0.390920 0.980408
vt 0.389662 0.771812
vt 0.734614 0.734707
vt 0.719130 0.734093
vt 0.054926 0.742350
vt 0.097208 0.788753
vt 0.094575 0.769943
vt 0.284627 0.767982
vt 0.282501 0.786488
vt 0.078715 0.786523
vt 0.099279 0.974048
vt 0.080454 0.976576
vt 0.933736 0.011803
vt 0.954764 0.010824
vt 0.964962 0.202300
vt 0.097153 0.992554
vt 0.284572 0.971783
vt 0.287205 0.990593
vt 0.286814 0.036599
vt 0.304511 0.038577
vt 0.706068 0.030475
vt 0.725363 0.028895
vt 0.301326 0.783961
vt 0.303065 0.974013
vt 0.490989 0.039657
vt 0.508917 0.039554
vt 0.094516 0.008168
vn -0.840929 0.082855 0.534764
vn -0.735696 0.108203 -0.668613
vn -0.765426 -0.070791 -0.639618
vn -0.784603 -0.089727 0.613471
vn 0.626348 -0.097925 0.773369
vn 0.599635 -0.076590 -0.796600
vn 0.523972 0.091226 -0.846836
vn 0.656642 0.074358 0.750528
vn 0.599635 -0.076590 -0.796600
vn -0.765426 -0.070791 -0.639618
vn -0.735696 0.108203 -0.668613
vn 0.523972 0.091226 -0.846836
vn -0.784603 -0.089727 0.613471
vn 0.626348 -0.097925 0.773369
vn 0.656642 0.074358 0.750528
vn -0.840929 0.082855 0.534764
vn -0.760675 0.044073 0.647635
vn -0.681254 0.048658 -0.730429
vn -0.745157 -0.058397 -0.664327
vn -0.801376 -0.056792 0.595459
vn 0.667784 -0.042129 0.743162
vn 0.597704 -0.042056 -0.800613
vn 0.647009 0.058133 -0.760263
vn 0.728870 0.053681 0.682545
vn 0.597704 -0.042056 -0.800613
vn -0.745157 -0.058397 -0.664327
vn -0.681254 0.048658 -0.730429
vn 0.647009 0.058133 -0.760263
vn -0.801376 -0.056792 0.595459
vn 0.667784 -0.042129 0.743162
vn 0.728870 0.053681 0.682545
vn -0.760675 0.044073 0.647635
vn -0.706199 0.091603 -0.702063
vn -0.821857 0.216201 0.527075
vn -0.678872 -0.689627 0.252086
vn -0.976952 -0.212458 0.020652
vn -0.981582 -0.180520 -0.062529
vn -0.563681 -0.608725 -0.558317
vn 0.658850 0.356026 0.662693
vn 0.526717 0.219590 -0.821188
vn 0.249112 -0.692679 -0.676859
vn 0.992813 -0.107886 -0.051791
vn 0.990095 -0.136731 0.031887
vn 0.358983 -0.858860 0.365363
vn 0.526717 0.219590 -0.821188
vn -0.706199 0.091603 -0.702063
vn -0.563681 -0.608725 -0.558317
vn -0.062948 -0.178688 -0.981890
vn 0.020385 -0.211474 -0.977171
vn 0.249112 -0.692679 -0.676859
vn -0.821857 0.216201 0.527075
vn 0.658850 0.356026 0.662693
vn 0.358983 -0.858860 0.365363
vn 0.031576 -0.137863 0.989948
vn -0.052205 -0.108208 0.992757
vn -0.678872 -0.689627 0.252086
vn -0.821857 0.216201 0.527075
vn -0.706199 0.091603 -0.702063
vn -0.735696 0.108203 -0.668613
vn -0.840929 0.082855 0.534764
vn -0.698536 -0.173960 -0.694108
vn -0.702705 -0.089265 0.705859
vn -0.784603 -0.089727 0.613471
vn -0.765426 -0.070791 -0.639618
vn 0.695087 -0.148150 0.703496
vn 0.687690 -0.230348 -0.688493
vn 0.599635 -0.076590 -0.796600
vn 0.626348 -0.097925 0.773369
vn 0.526717 0.219590 -0.821188
vn 0.658850 0.356026 0.662693
vn 0.656642 0.074358 0.750528
vn 0.523972 0.091226 -0.846836
vn 0.687690 -0.230348 -0.688493
vn -0.698536 -0.173960 -0.694108
vn -0.765426 -0.070791 -0.639618
vn 0.599635 -0.076590 -0.796600
vn -0.706199 0.091603 -0.702063
vn 0.526717 0.219590 -0.821188
vn 0.523972 0.091226 -0.846836
vn -0.735696 0.108203 -0.668613
vn -0.702705 -0.089265 0.705859
vn 0.695087 -0.148150 0.703496
vn 0.626348 -0.097925 0.773369
vn -0.784603 -0.089727 0.613471
vn 0.658850 0.356026 0.662693
vn -0.821857 0.216201 0.527075
vn -0.840929 0.082855 0.534764
vn 0.656642 0.074358 0.750528
vn -0.702705 -0.089265 0.705859
vn -0.698536 -0.173960 -0.694108
vn -0.681254 0.048658 -0.730429
vn -0.760675 0.044073 0.647635
vn -0.736952 0.250043 -0.627996
vn -0.763630 0.216501 0.608274
vn -0.801376 -0.056792 0.595459
vn -0.745157 -0.058397 -0.664327
vn 0.673946 0.035831 0.737912
vn 0.647820 0.076269 -0.757966
vn 0.597704 -0.042056 -0.800613
vn 0.667784 -0.042129 0.743162
vn 0.687690 -0.230348 -0.688493
vn 0.695087 -0.148150 0.703496
vn 0.728870 0.053681 0.682545
vn 0.647009 0.058133 -0.760263
vn 0.647820 0.076269 -0.757966
vn -0.736952 0.250043 -0.627996
vn -0.745157 -0.058397 -0.664327
vn 0.597704 -0.042056 -0.800613
vn -0.698536 -0.173960 -0.694108
vn 0.687690 -0.230348 -0.688493
vn 0.647009 0.058133 -0.760263
vn -0.681254 0.048658 -0.730429
vn -0.763630 0.216501 0.608274
vn 0.673946 0.035831 0.737912
vn 0.667784 -0.042129 0.743162
vn -0.801376 -0.056792 0.595459
vn 0.695087 -0.148150 0.703496
vn -0.702705 -0.089265 0.705859
vn -0.760675 0.044073 0.647635
vn 0.728870 0.053681 0.682545
vn 0.647820 0.076269 -0.757966
vn 0.673946 0.035831 0.737912
vn 0.146317 0.969697 0.195648
vn 0.992378 0.110925 0.053675
vn 0.992761 0.105979 -0.056516
vn 0.141076 0.966744 -0.213315
vn -0.736952 0.250043 -0.627996
vn 0.647820 0.076269 -0.757966
vn 0.141076 0.966744 -0.213315
vn 0.053104 0.148366 -0.987506
vn -0.072327 0.119958 -0.990141
vn -0.233738 0.952419 -0.195614
vn 0.673946 0.035831 0.737912
vn -0.763630 0.216501 0.608274
vn -0.236815 0.955373 0.176584
vn -0.068759 0.111797 0.991349
vn 0.051368 0.138652 0.989008
vn 0.146317 0.969697 0.195648
vn -0.763630 0.216501 0.608274
vn -0.736952 0.250043 -0.627996
vn -0.233738 0.952419 -0.195614
vn -0.986162 0.149921 -0.070766
vn -0.985475 0.156443 0.066071
vn -0.236815 0.955373 0.176584
vn 0.993949 0.091377 0.060957
vn 0.061302 0.091894 0.993880
vn 0.031576 -0.137863 0.989948
vn 0.990095 -0.136731 0.031887
vn 0.055820 0.996879 0.055819
vn 0.993949 0.091377 0.060957
vn 0.994854 0.093651 -0.038654
vn 0.055820 0.996879 -0.055819
vn 0.061302 0.091894 0.993880
vn 0.055820 0.996879 0.055819
vn -0.055819 0.996879 0.055819
vn -0.038268 0.094255 0.994812
vn 0.068868 0.166854 -0.983574
vn 0.994854 0.093651 -0.038654
vn 0.992813 -0.107886 -0.051791
vn 0.020385 -0.211474 -0.977171
vn 0.055820 0.996879 -0.055819
vn 0.068868 0.166854 -0.983574
vn -0.026497 0.174709 -0.984264
vn -0.055819 0.996879 -0.055819
vn -0.983920 0.176589 -0.026782
vn -0.026497 0.174709 -0.984264
vn -0.062948 -0.178688 -0.981890
vn -0.981582 -0.180520 -0.062529
vn -0.055819 0.996879 -0.055819
vn -0.983920 0.176589 -0.026782
vn -0.983271 0.168769 0.068521
vn -0.055819 0.996879 0.055819
vn -0.038268 0.094255 0.994812
vn -0.983271 0.168769 0.068521
vn -0.976952 -0.212458 0.020652
vn -0.052205 -0.108208 0.992757
vn 0.055820 0.996879 0.055819
vn 0.055820 0.996879 -0.055819
vn -0.055819 0.996879 -0.055819
vn -0.055819 0.996879 0.055819
vn -0.983271 0.168769 0.068521
vn -0.983920 0.176589 -0.026782
vn -0.981582 -0.180520 -0.062529
vn -0.976952 -0.212458 0.020652
vn 0.993949 0.091377 0.060957
vn 0.990095 -0.136731 0.031887
vn 0.992813 -0.107886 -0.051791
vn 0.994854 0.093651 -0.038654
vn 0.068868 0.166854 -0.983574
vn 0.020385 -0.211474 -0.977171
vn -0.062948 -0.178688 -0.981890
vn -0.026497 0.174709 -0.984264
vn -0.038268 0.094255 0.994812
vn -0.052205 -0.108208 0.992757
vn 0.031576 -0.137863 0.989948
vn 0.061302 0.091894 0.993880
vn 0.993949 0.091377 0.060957
vn 0.055820 0.996879 0.055819
vn 0.061302 0.091894 0.993880
vn 0.068868 0.166854 -0.983574
vn 0.055820 0.996879 -0.055819
vn 0.994854 0.093651 -0.038654
vn -0.983920 0.176589 -0.026782
vn -0.055819 0.996879 -0.055819
vn -0.026497 0.174709 -0.984264
vn -0.038268 0.094255 0.994812
vn -0.055819 0.996879 0.055819
vn -0.983271 0.168769 0.068521
vn -0.062948 -0.178688 -0.981890
vn -0.563681 -0.608725 -0.558317
vn -0.981582 -0.180520 -0.062529
vn -0.052205 -0.108208 0.992757
vn -0.976952 -0.212458 0.020652
vn -0.678872 -0.689627 0.252086
vn 0.020385 -0.211474 -0.977171
vn 0.992813 -0.107886 -0.051791
vn 0.249112 -0.692679 -0.676859
vn 0.031576 -0.137863 0.989948
vn 0.358983 -0.858860 0.365363
vn 0.990095 -0.136731 0.031887
vn 0.066549 -0.995561 0.066549
vn 0.069816 -0.078352 0.994478
vn -0.052657 -0.079885 0.995412
vn -0.066549 -0.995561 0.066549
vn 0.995519 -0.070604 0.062913
vn 0.066549 -0.995561 0.066549
vn 0.066549 -0.995561 -0.066549
vn 0.995693 -0.070854 -0.059789
vn 0.069816 -0.078352 0.994478
vn 0.995519 -0.070604 0.062913
vn 0.992378 0.110925 0.053675
vn 0.051368 0.138652 0.989008
vn 0.070338 -0.083356 -0.994034
vn 0.066549 -0.995561 -0.066549
vn -0.066549 -0.995561 -0.066549
vn -0.052070 -0.085093 -0.995012
vn 0.995693 -0.070854 -0.059789
vn 0.070338 -0.083356 -0.994034
vn 0.053104 0.148366 -0.987506
vn 0.992761 0.105979 -0.056516
vn -0.993350 -0.096132 0.063366
vn -0.052657 -0.079885 0.995412
vn -0.068759 0.111797 0.991349
vn -0.985475 0.156443 0.066071
vn -0.066549 -0.995561 0.066549
vn -0.993350 -0.096132 0.063366
vn -0.993567 -0.096595 -0.059109
vn -0.066549 -0.995561 -0.066549
vn -0.052070 -0.085093 -0.995012
vn -0.993567 -0.096595 -0.059109
vn -0.986162 0.149921 -0.070766
vn -0.072327 0.119958 -0.990141
vn 0.995519 -0.070604 0.062913
vn 0.995693 -0.070854 -0.059789
vn 0.992761 0.105979 -0.056516
vn 0.992378 0.110925 0.053675
vn -0.066549 -0.995561 0.066549
vn -0.066549 -0.995561 -0.066549
vn 0.066549 -0.995561 -0.066549
vn 0.066549 -0.995561 0.066549
vn 0.070338 -0.083356 -0.994034
vn -0.052070 -0.085093 -0.995012
vn -0.072327 0.119958 -0.990141
vn 0.053104 0.148366 -0.987506
vn -0.052657 -0.079885 0.995412
vn 0.069816 -0.078352 0.994478
vn 0.051368 0.138652 0.989008
vn -0.068759 0.111797 0.991349
vn -0.993350 -0.096132 0.063366
vn -0.985475 0.156443 0.066071
vn -0.986162 0.149921 -0.070766
vn -0.993567 -0.096595 -0.059109
vn 0.066549 -0.995561 0.066549
vn 0.995519 -0.070604 0.062913
vn 0.069816 -0.078352 0.994478
vn 0.070338 -0.083356 -0.994034
vn 0.995693 -0.070854 -0.059789
vn 0.066549 -0.995561 -0.066549
vn 0.053104 0.148366 -0.987506
vn 0.141076 0.966744 -0.213315
vn 0.992761 0.105979 -0.056516
vn 0.051368 0.138652 0.989008
vn 0.992378 0.110925 0.053675
vn 0.146317 0.969697 0.195648
vn -0.993350 -0.096132 0.063366
vn -0.066549 -0.995561 0.066549
vn -0.052657 -0.079885 0.995412
vn -0.052070 -0.085093 -0.995012
vn -0.066549 -0.995561 -0.066549
vn -0.993567 -0.096595 -0.059109
vn -0.986162 0.149921 -0.070766
vn -0.233738 0.952419 -0.195614
vn -0.072327 0.119958 -0.990141
vn -0.985475 0.156443 0.066071
vn -0.068759 0.111797 0.991349
vn -0.236815 0.955373 0.176584
s off
g pillar_low:pillar_low
usemtl initialShadingGroup
f 14/1/1 13/2/2 15/3/3 16/4/4
f 18/5/5 17/6/6 19/7/7 20/8/8
f 17/6/9 15/3/10 13/2/11 19/7/12
f 16/4/13 18/9/14 20/10/15 14/1/16
f 22/11/17 21/12/18 23/13/19 24/14/20
f 26/15/21 25/16/22 27/17/23 28/18/24
f 25/16/25 23/13/26 21/12/27 27/17/28
f 24/14/29 26/19/30 28/20/31 22/11/32
f 4/21/33 3/22/34 46/23/35 45/24/36 43/25/37 42/26/38
f 1/27/39 2/28/40 49/29/41 48/30/42 52/31/43 51/32/44
f 2/28/45 4/21/46 42/26/47 41/33/48 47/34/49 49/29/50
f 3/22/51 1/35/52 51/36/53 50/37/54 44/38/55 46/23/56
f 3/22/57 4/21/58 13/2/59 14/1/60
f 8/39/61 7/40/62 16/4/63 15/3/64
f 5/41/65 6/42/66 17/6/67 18/5/68
f 2/28/69 1/27/70 20/8/71 19/7/72
f 6/42/73 8/39/74 15/3/75 17/6/76
f 4/21/77 2/28/78 19/7/79 13/2/80
f 7/40/81 5/43/82 18/9/83 16/4/84
f 1/35/85 3/22/86 14/1/87 20/10/88
f 7/40/89 8/39/90 21/12/91 22/11/92
f 12/44/93 11/45/94 24/14/95 23/13/96
f 9/46/97 10/47/98 25/16/99 26/15/100
f 6/42/101 5/41/102 28/18/103 27/17/104
f 10/47/105 12/44/106 23/13/107 25/16/108
f 8/39/109 6/42/110 27/17/111 21/12/112
f 11/45/113 9/48/114 26/19/115 24/14/116
f 5/43/117 7/40/118 22/11/119 28/20/120
f 10/47/121 9/46/122 64/49/123 63/50/124 61/51/125 60/52/126
f 12/44/127 10/47/128 60/52/129 59/53/130 73/54/131 72/55/132
f 9/48/133 11/45/134 76/56/135 75/57/136 62/58/137 64/59/138
f 11/45/139 12/44/140 72/55/141 71/60/142 74/61/143 76/56/144
f 29/62/145 31/63/146 50/37/147 52/64/148
f 30/65/149 29/66/150 34/67/151 33/68/152
f 31/69/153 30/65/154 39/70/155 38/71/156
f 32/72/157 34/73/158 48/30/159 47/34/160
f 33/68/161 32/74/162 37/75/163 36/76/164
f 35/77/165 37/78/166 41/33/167 43/25/168
f 36/76/169 35/79/170 40/80/171 39/70/172
f 38/81/173 40/82/174 45/24/175 44/38/176
f 30/65/177 33/68/178 36/76/179 39/70/180
f 40/82/181 35/77/182 43/25/183 45/24/184
f 29/83/185 52/31/186 48/30/187 34/73/188
f 32/72/189 47/34/190 41/33/191 37/78/192
f 38/81/193 44/38/194 50/37/195 31/63/196
f 29/66/197 30/65/198 31/69/199
f 32/74/200 33/68/201 34/67/202
f 35/79/203 36/76/204 37/75/205
f 38/71/206 39/70/207 40/80/208
f 41/33/209 42/26/210 43/25/211
f 44/38/212 45/24/213 46/23/214
f 47/34/215 48/30/216 49/29/217
f 50/37/218 51/36/219 52/64/220
f 53/84/221 55/85/222 67/86/223 66/87/224
f 54/88/225 53/84/226 58/89/227 57/90/228
f 55/91/229 54/92/230 63/93/231 62/58/232
f 56/94/233 58/89/234 69/95/235 68/96/236
f 57/97/237 56/98/238 59/53/239 61/51/240
f 65/99/241 67/100/242 75/57/243 74/61/244
f 66/87/245 65/101/246 70/102/247 69/95/248
f 68/103/249 70/104/250 71/60/251 73/54/252
f 54/105/253 57/97/254 61/51/255 63/50/256
f 66/87/257 69/95/258 58/89/259 53/84/260
f 56/98/261 68/103/262 73/54/263 59/53/264
f 67/100/265 55/91/266 62/58/267 75/57/268
f 65/99/269 74/61/270 71/60/271 70/104/272
f 53/84/273 54/88/274 55/85/275
f 56/94/276 57/90/277 58/89/278
f 59/53/279 60/52/280 61/51/281
f 62/58/282 63/93/283 64/59/284
f 65/101/285 66/87/286 67/86/287
f 68/96/288 69/95/289 70/102/290
f 71/60/291 72/55/292 73/54/293
f 74/61/294 75/57/295 76/56/296
