# This file uses centimeters as units for non-parametric coordinates.

mtllib Cobble_arch_Faceremoved.mtl
g default
v -0.751999 3.262577 1.696647
v -0.677626 3.312572 1.696647
v -0.677626 3.312572 0.010658
v -0.751999 3.262577 0.010658
v -0.751999 2.706918 0.006681
v -0.751999 2.993274 1.696647
v -0.677626 3.262577 1.754042
v -0.005791 3.312572 1.696647
v -0.005791 3.312572 0.010658
v -0.677626 3.312572 -1.603363
v -0.751999 3.262577 -1.603363
v -0.751999 2.993274 -1.603363
v -0.751999 2.676214 0.127442
v -0.751999 2.852366 0.897369
v -0.751999 2.909209 1.696647
v -0.677626 2.993274 1.754042
v -0.005791 3.262577 1.754042
v 0.661247 3.312572 1.696647
v 0.661247 3.312572 0.010658
v -0.005791 3.312572 -1.603363
v -0.677626 3.262577 -1.653358
v -0.677626 2.993274 -1.653358
v -0.751999 1.705504 -1.603363
v -0.751999 1.672899 -1.011051
v -0.751999 2.056131 -0.875874
v -0.751999 2.401850 -0.483577
v -0.677626 2.912765 1.746642
v -0.005791 2.993274 1.754042
v 0.661247 3.262577 1.754042
v 0.661247 3.312572 -1.603363
v 0.735620 3.262577 1.696647
v 0.735620 3.262577 0.010658
v -0.005791 3.262577 -1.653358
v -0.005791 2.993274 -1.653358
v -0.677626 1.705504 -1.653358
v -0.751999 0.382856 -1.603363
v -0.751999 0.382856 -1.011051
v -0.005791 2.912765 1.746642
v 0.661246 2.993274 1.754042
v 0.661247 3.262577 -1.653358
v 0.735620 3.262577 -1.603363
v 0.735620 2.993274 1.696647
v 0.661247 2.993274 -1.653358
v -0.005791 1.705504 -1.653358
v -0.677626 0.382856 -1.653358
v -0.751999 0.162567 -1.603363
v -0.751999 0.162567 -1.011051
v 0.661246 2.912765 1.746642
v 0.735620 2.993274 -1.603363
v 0.735620 2.909209 1.696647
v 0.661247 1.705504 -1.653358
v -0.005791 0.382856 -1.653358
v -0.677626 0.177974 -1.653358
v -0.677626 0.140629 -1.603363
v -0.677626 0.140629 -1.011051
v 0.735620 1.705504 -1.603363
v 0.661246 0.382856 -1.653358
v -0.005791 0.177974 -1.653358
v -0.005791 0.140629 -1.603363
v -0.005791 0.140629 -1.011051
v 0.735620 0.382856 -1.603363
v 0.661247 0.177974 -1.653358
v 0.661247 0.127979 -1.603363
v 0.735620 0.162567 -1.603363
v -0.882539 2.513176 1.191215
v -0.882539 2.930384 1.191955
v -0.897072 2.457310 0.437006
v -0.893633 2.908800 0.572226
v -0.979297 2.293732 -0.037953
v -0.979297 2.639867 -0.237240
v -0.979297 1.848874 -0.591130
v -0.979297 2.153589 -0.821793
v -0.979297 1.289962 -0.871749
v -0.979297 1.505275 -1.163100
v -0.979297 0.528515 -0.955051
v -0.979297 0.685847 -1.275349
v -1.013422 2.961737 1.120318
v -1.013422 2.945553 0.608578
v -1.013422 2.442558 0.506153
v -1.013422 2.481824 1.119712
v -1.013675 2.930155 0.527470
v -1.111466 2.680034 -0.226998
v -1.111466 2.276947 -0.021107
v -1.014378 2.424255 0.423124
v -1.140824 2.637220 -0.323493
v -1.140824 2.227945 -0.798301
v -1.140824 1.864839 -0.535803
v -1.140824 2.230615 -0.101599
v -1.113240 2.096998 -0.901421
v -1.113240 1.570436 -1.172960
v -1.113240 1.319963 -0.836955
v -1.113240 1.763731 -0.627518
v -1.111569 1.433197 -1.200487
v -1.111569 0.750551 -1.290511
v -1.111569 0.585506 -0.924995
v -1.111569 1.205457 -0.863737
v -1.113975 0.606262 -1.307120
v -1.113975 0.461644 -0.936571
v -0.882539 2.513176 1.499274
v -0.882539 2.930384 1.490992
v -1.068686 2.974975 1.452256
v -1.068686 2.974975 1.226748
v -1.068686 2.468585 1.458502
v -1.068686 2.468585 1.226190
v -1.085580 2.979036 1.754897
v -1.085580 2.979022 1.521032
v -1.085580 2.464535 1.755452
v -1.085580 2.464538 1.526671
v -1.018115 0.368631 -1.341117
v -1.018115 0.318225 -0.930454
v -1.113975 0.141414 -1.393915
v -1.113975 0.141486 -0.890095
v -1.113975 0.347547 -1.384519
v -1.113975 0.285604 -0.882481
v -0.751999 2.398311 -1.603363
v -0.677626 2.403135 -1.653358
v -0.005791 2.382084 -1.653358
v 0.661247 2.361185 -1.653358
v 0.735620 2.351700 -1.603363
v -0.751999 0.168566 -1.011051
v 0.595931 3.312572 1.696647
v 0.595931 3.312572 0.010658
v 0.595931 3.312572 -1.603363
v 0.595931 3.262577 -1.653358
v 0.595931 2.993274 -1.653358
v 0.595932 2.363231 -1.653358
v 0.595931 1.705504 -1.653358
v 0.595930 0.382856 -1.653358
v 0.595931 0.177974 -1.653358
v 0.595931 0.129218 -1.603363
v 0.595931 2.912765 1.746642
v 0.595931 2.993274 1.754042
v 0.595931 3.262577 1.754042
v -0.626413 0.168059 -1.011051
v -0.626799 0.382855 -1.011051
v -0.629089 1.672899 -1.011051
v -0.627469 2.056131 -0.875874
v -0.625107 2.401850 -0.483577
v -0.622236 2.676214 0.127442
v -0.652135 2.852366 0.897369
v -0.751999 2.919843 0.892353
v -0.751999 3.262577 0.901208
v -0.677626 3.312572 0.899566
v -0.005791 3.312572 0.904895
v 0.595931 3.312572 0.897478
v 0.661247 3.312572 0.862711
v 0.735620 3.262577 0.861951
v 0.735620 2.032712 -1.603363
v 0.661247 2.035375 -1.653358
v 0.595931 2.039128 -1.653358
v -0.005791 2.073699 -1.653358
v -0.677626 2.061883 -1.653358
v -0.751999 2.055459 -1.603363
v -0.751999 2.400747 -0.584995
v -0.751999 2.055942 -0.971294
v -0.751999 1.683840 -1.082851
v -0.689450 2.961737 1.117193
v -0.689450 2.945545 0.608519
v -0.608403 2.908789 0.572155
v -0.689621 2.930144 0.527405
v -0.755785 2.665871 -0.249714
v -0.666362 2.624017 -0.264268
v -0.775648 2.623413 -0.343281
v -0.775648 2.219875 -0.805349
v -0.666362 2.143698 -0.829962
v -0.756986 2.088747 -0.907768
v -0.756986 1.543132 -1.185637
v -0.666362 1.470848 -1.171361
v -0.755855 1.404238 -1.205664
v -0.755855 0.734107 -1.293421
v -0.666362 0.665934 -1.278208
v -0.757483 0.588852 -1.309351
v -0.692626 0.356187 -1.336570
v -0.757483 0.336975 -1.386126
v -0.757483 0.136861 -1.394875
v -0.757483 0.136933 -0.891010
v -0.757483 0.276252 -0.883767
v -0.816244 0.307989 -0.936966
v -0.757483 0.447079 -0.938123
v -0.789980 0.511455 -0.957094
v -0.755855 0.571728 -0.927138
v -0.755855 1.181273 -0.868595
v -0.789980 1.260559 -0.879522
v -0.756986 1.297163 -0.847434
v -0.756986 1.756846 -0.632802
v -0.789980 1.840432 -0.598082
v -0.775648 1.858135 -0.541644
v -0.775648 2.219620 -0.118222
v -0.789980 2.280911 -0.062111
v -0.755785 2.265706 -0.040223
v -0.690097 2.424240 0.423070
v -0.734348 2.457294 0.436947
v -0.689450 2.442547 0.506104
v -0.689450 2.481824 1.116587
v -0.724515 2.513176 1.187403
v -0.726841 2.468585 1.223315
v -0.726841 2.468585 1.457482
v -0.724515 2.513176 1.497922
v -0.738271 2.464538 1.525750
v -0.738271 2.464533 1.754401
v -0.738271 2.979034 1.753845
v -0.738271 2.979022 1.520111
v -0.600897 2.930384 1.489639
v -0.726841 2.974975 1.451236
v -0.726841 2.974975 1.223873
v -0.600897 2.930384 1.188143
v 0.671002 2.912299 1.740084
vt 0.247564 0.442827
vt 0.247798 0.437878
vt 0.320010 0.438092
vt 0.320030 0.443040
vt 0.217904 0.463844
vt 0.218184 0.486642
vt 0.158980 0.485826
vt 0.159245 0.448882
vt 0.247682 0.412279
vt 0.320002 0.412539
vt 0.449721 0.438856
vt 0.450324 0.443710
vt 0.051545 0.484395
vt 0.051801 0.466498
vt 0.271124 0.487301
vt 0.271247 0.469419
vt 0.275662 0.469498
vt 0.275621 0.487325
vt 0.183981 0.436909
vt 0.178001 0.437988
vt 0.176838 0.411960
vt 0.183048 0.411879
vt 0.248296 0.389426
vt 0.320101 0.389764
vt 0.451189 0.413678
vt 0.047494 0.484339
vt 0.047747 0.466442
vt 0.271361 0.463832
vt 0.275459 0.464140
vt 0.296433 0.469171
vt 0.296623 0.487164
vt 0.177802 0.388556
vt 0.183822 0.389331
vt 0.450722 0.390920
vt 0.251126 0.386951
vt 0.251180 0.382018
vt 0.320154 0.382334
vt 0.320119 0.387283
vt 0.456960 0.413870
vt 0.455199 0.440109
vt 0.026605 0.484041
vt 0.026854 0.466146
vt 0.052299 0.426985
vt 0.048227 0.427252
vt 0.048397 0.404635
vt 0.052500 0.404271
vt 0.296322 0.463792
vt 0.296088 0.249649
vt 0.296177 0.231726
vt 0.277516 0.231740
vt 0.277362 0.249611
vt 0.456283 0.390202
vt 0.451312 0.383639
vt 0.450588 0.388475
vt 0.026599 0.244274
vt 0.045297 0.244673
vt 0.045688 0.226785
vt 0.026985 0.226390
vt 0.027303 0.425535
vt 0.027373 0.405008
vt 0.052585 0.381166
vt 0.048434 0.381063
vt 0.049527 0.296389
vt 0.053595 0.296814
vt 0.053274 0.284878
vt 0.087051 0.273887
vt 0.087202 0.274272
vt 0.091056 0.289697
vt 0.296152 0.226336
vt 0.277424 0.226375
vt 0.275316 0.249592
vt 0.275508 0.231748
vt 0.271097 0.231629
vt 0.270813 0.249540
vt 0.051770 0.226899
vt 0.051374 0.244795
vt 0.027756 0.185878
vt 0.046506 0.185004
vt 0.046774 0.163588
vt 0.028003 0.165496
vt 0.047327 0.244713
vt 0.047719 0.226823
vt 0.027074 0.380337
vt 0.029587 0.291052
vt 0.050295 0.285383
vt 0.052415 0.282932
vt 0.085887 0.270908
vt 0.275358 0.226418
vt 0.271271 0.226049
vt 0.028061 0.141119
vt 0.046749 0.141610
vt 0.046800 0.056794
vt 0.028708 0.052662
vt 0.048545 0.184902
vt 0.052621 0.184339
vt 0.052924 0.163249
vt 0.048825 0.163371
vt 0.035946 0.274644
vt 0.038856 0.269970
vt 0.075953 0.252265
vt 0.048054 0.044941
vt 0.033665 0.036731
vt 0.048829 0.141650
vt 0.052979 0.141715
vt 0.052910 0.057443
vt 0.048833 0.057040
vt 0.036532 0.031993
vt 0.049976 0.041593
vt 0.052235 0.045228
vt 0.049378 0.045639
vt 0.051061 0.042886
vt 0.371555 0.455001
vt 0.371556 0.457440
vt 0.339729 0.456786
vt 0.339727 0.454899
vt 0.419637 0.455147
vt 0.419645 0.457492
vt 0.398552 0.457461
vt 0.398565 0.455081
vt 0.183262 0.441715
vt 0.183955 0.386906
vt 0.178302 0.385845
vt 0.183314 0.382051
vt 0.455810 0.387465
vt 0.167298 0.446952
vt 0.218301 0.459364
vt 0.436044 0.455195
vt 0.436015 0.457516
vt 0.126926 0.428155
vt 0.120189 0.427989
vt 0.094902 0.404698
vt 0.101228 0.404786
vt 0.305404 0.456200
vt 0.307444 0.454812
vt 0.088159 0.379825
vt 0.092909 0.379002
vt 0.488041 0.455314
vt 0.488015 0.457696
vt 0.209514 0.203207
vt 0.243760 0.203158
vt 0.354643 0.219513
vt 0.325645 0.219267
vt 0.192285 0.309037
vt 0.225769 0.336428
vt 0.183609 0.366550
vt 0.158004 0.335242
vt 0.250536 0.203156
vt 0.303706 0.206136
vt 0.381762 0.217581
vt 0.359669 0.219534
vt 0.263991 0.277011
vt 0.272596 0.314173
vt 0.235778 0.328829
vt 0.201645 0.301810
vt 0.312428 0.207229
vt 0.354355 0.206849
vt 0.414278 0.217233
vt 0.387501 0.216880
vt 0.331042 0.271971
vt 0.334996 0.309523
vt 0.287171 0.310996
vt 0.278223 0.272998
vt 0.366118 0.205921
vt 0.405744 0.205570
vt 0.444530 0.218248
vt 0.421387 0.217916
vt 0.396319 0.290892
vt 0.389871 0.325618
vt 0.351516 0.310155
vt 0.349384 0.273863
vt 0.415652 0.205691
vt 0.461708 0.205843
vt 0.480121 0.218560
vt 0.450738 0.218319
vt 0.455311 0.335158
vt 0.442512 0.366440
vt 0.402835 0.332059
vt 0.410239 0.298608
vt 0.471911 0.206005
vt 0.487976 0.203052
vt 0.204285 0.199114
vt 0.247213 0.199408
vt 0.357957 0.222106
vt 0.321943 0.222127
vt 0.198454 0.307254
vt 0.230562 0.330638
vt 0.175795 0.369517
vt 0.153525 0.342309
vt 0.306683 0.202149
vt 0.383200 0.220352
vt 0.270131 0.278280
vt 0.277296 0.311169
vt 0.359553 0.201781
vt 0.416978 0.220806
vt 0.339672 0.275002
vt 0.342614 0.307076
vt 0.410263 0.201502
vt 0.446705 0.221195
vt 0.402052 0.295972
vt 0.396406 0.325977
vt 0.466203 0.201762
vt 0.483151 0.221487
vt 0.460358 0.340906
vt 0.449593 0.368988
vt 0.486431 0.218526
vt 0.468511 0.344625
vt 0.454574 0.375113
vt 0.161389 0.027105
vt 0.159976 0.014297
vt 0.161039 0.058406
vt 0.159345 0.070885
vt 0.129323 0.412522
vt 0.102006 0.378849
vt 0.117299 0.366416
vt 0.144283 0.400358
vt 0.185367 0.204875
vt 0.200451 0.204900
vt 0.308305 0.217968
vt 0.319263 0.218027
vt 0.156887 0.389808
vt 0.130309 0.356414
vt 0.145032 0.344397
vt 0.172055 0.377428
vt 0.181438 0.199040
vt 0.305441 0.222062
vt 0.148223 0.391957
vt 0.126409 0.364372
vt 0.177582 0.205369
vt 0.302815 0.217582
vt 0.493189 0.220681
vt 0.484835 0.357157
vt 0.463138 0.384454
vt 0.100988 0.273423
vt 0.100641 0.306979
vt 0.100672 0.259682
vt 0.503126 0.369041
vt 0.472840 0.398800
vt 0.463869 0.390589
vt 0.490383 0.357207
vt 0.100329 0.316587
vt 0.490983 0.206270
vt 0.495797 0.218411
vt 0.496671 0.457746
vt 0.496666 0.455371
vt 0.209708 0.193078
vt 0.243749 0.193030
vt 0.247205 0.190491
vt 0.250526 0.193025
vt 0.305438 0.195007
vt 0.308613 0.192332
vt 0.313930 0.195797
vt 0.354967 0.195427
vt 0.360312 0.191989
vt 0.366705 0.194777
vt 0.407660 0.194415
vt 0.412670 0.191728
vt 0.417654 0.194576
vt 0.462861 0.194726
vt 0.467570 0.191982
vt 0.473116 0.194863
vt 0.488823 0.192873
vt 0.111784 0.260135
vt 0.492275 0.195177
vt 0.112091 0.273474
vt 0.111743 0.307033
vt 0.111442 0.316321
vt 0.496502 0.226251
vt 0.493644 0.227865
vt 0.487066 0.226390
vt 0.483888 0.228394
vt 0.480714 0.226407
vt 0.451831 0.226171
vt 0.447993 0.228123
vt 0.445602 0.226118
vt 0.421674 0.225775
vt 0.417375 0.227713
vt 0.414590 0.225288
vt 0.388328 0.224943
vt 0.384298 0.227284
vt 0.382723 0.225433
vt 0.359611 0.226683
vt 0.357906 0.228418
vt 0.354585 0.226655
vt 0.325732 0.226410
vt 0.322065 0.228337
vt 0.319358 0.225564
vt 0.308312 0.225504
vt 0.305463 0.228271
vt 0.149944 0.070772
vt 0.302824 0.225239
vt 0.151163 0.058295
vt 0.151513 0.026995
vt 0.150575 0.014199
vt 0.177669 0.194511
vt 0.181531 0.190235
vt 0.185453 0.194188
vt 0.200661 0.194213
vt 0.204521 0.190309
vt 0.274822 0.226370
vn -0.985380 0.170370 0.000000
vn -0.066868 0.997762 0.000000
vn -0.066805 0.997766 0.000000
vn -0.987926 0.154926 0.000000
vn -1.000000 0.000000 0.000000
vn -0.985380 0.170370 0.000000
vn -0.987926 0.154926 0.000000
vn -1.000000 0.000000 0.000000
vn -0.066868 0.997762 0.000000
vn 0.000000 1.000000 0.000000
vn 0.000000 1.000000 0.000000
vn -0.066805 0.997766 0.000000
vn -0.066805 0.997766 0.000000
vn -0.557885 0.829918 0.000000
vn -0.557885 0.829918 0.000000
vn -0.987926 0.154926 0.000000
vn -0.987926 0.154926 0.000000
vn -0.557885 0.829918 0.000000
vn -0.998868 0.000000 -0.047571
vn -1.000000 0.000000 0.000000
vn -0.557888 0.000000 0.829916
vn -0.996986 -0.000815 0.077581
vn -0.075094 -0.019999 0.996976
vn -0.557888 0.000000 0.829916
vn -0.557885 0.829918 0.000000
vn -0.557888 0.000000 0.829916
vn 0.000000 0.176917 0.984226
vn 0.000000 0.998284 0.058558
vn 0.000000 1.000000 0.000000
vn 0.000000 1.000000 0.000000
vn 0.000000 1.000000 0.000000
vn 0.000000 1.000000 0.000000
vn -0.066805 0.997766 0.000000
vn 0.000000 1.000000 0.000000
vn 0.000000 0.999549 -0.030031
vn -0.557885 0.829918 0.000000
vn -0.557885 0.829918 0.000000
vn -0.557887 0.000000 -0.829917
vn -0.066289 0.000000 -0.997800
vn -0.998868 0.000000 -0.047571
vn -0.996986 -0.000815 0.077581
vn -0.851353 0.000000 0.524593
vn -0.268239 0.000000 0.963352
vn -0.075094 -0.019999 0.996976
vn -0.557888 0.000000 0.829916
vn -0.075094 -0.019999 0.996976
vn 0.000000 -0.021148 0.999776
vn 0.000000 0.176917 0.984226
vn 0.000000 0.998284 0.058558
vn 0.000000 0.176917 0.984226
vn 0.000000 0.176917 0.984226
vn 0.000000 0.998294 0.058379
vn 0.000000 1.000000 0.000000
vn 0.000000 1.000000 0.000000
vn 0.000000 0.999549 -0.030031
vn 0.000000 0.999549 -0.030031
vn 0.334603 0.942359 0.000000
vn 0.983523 0.180782 0.000000
vn 0.987183 0.159595 0.000000
vn 0.335966 0.941874 0.000000
vn -0.557885 0.829918 0.000000
vn 0.000000 0.999549 -0.030031
vn 0.000000 0.154692 -0.987963
vn -0.557887 0.000000 -0.829917
vn -0.557887 0.000000 -0.829917
vn 0.000000 0.154692 -0.987963
vn 0.000000 0.000000 -1.000000
vn -0.066289 0.000000 -0.997800
vn -0.997475 0.000000 -0.071016
vn -0.067486 0.000000 -0.997720
vn -0.067412 0.000000 -0.997725
vn -0.995209 0.000000 -0.097773
vn -0.075094 -0.019999 0.996976
vn -0.268239 0.000000 0.963352
vn 0.000000 0.000000 1.000000
vn 0.000000 -0.021148 0.999776
vn 0.000000 0.176917 0.984226
vn 0.000000 -0.021148 0.999776
vn 0.000000 -0.021148 0.999776
vn 0.000000 0.176917 0.984226
vn 0.000000 0.999549 -0.030031
vn 0.000000 0.999549 -0.030031
vn 0.000000 0.154692 -0.987963
vn 0.000000 0.154692 -0.987963
vn 0.335966 0.941874 0.000000
vn 0.987183 0.159595 0.000000
vn 0.557882 0.829920 0.000000
vn 0.557882 0.829920 0.000000
vn 0.000000 0.154692 -0.987963
vn 0.000000 0.154692 -0.987963
vn 0.000000 0.000000 -1.000000
vn 0.000000 0.000000 -1.000000
vn -0.067486 0.000000 -0.997720
vn 0.000000 0.000000 -1.000000
vn 0.000000 0.000000 -1.000000
vn -0.067412 0.000000 -0.997725
vn -0.992445 0.000000 -0.122693
vn -0.066524 0.000000 -0.997785
vn -0.067151 0.000000 -0.997743
vn -0.992653 0.000000 -0.120995
vn -0.992653 0.000000 -0.120995
vn -0.557885 -0.829918 0.000000
vn -0.668657 -0.743571 0.000000
vn -0.984913 0.000000 0.173051
vn -0.935214 0.000000 -0.354084
vn 0.000000 -0.021148 0.999776
vn 0.000000 0.000000 1.000000
vn 0.000000 -0.988357 0.152151
vn 0.000000 -0.021148 0.999776
vn 0.557886 0.000000 0.829917
vn 0.374168 -0.014182 0.927252
vn 0.996996 -0.000815 0.077455
vn 0.557886 0.000000 0.829917
vn 0.000000 0.000000 -1.000000
vn 0.000000 0.000000 -1.000000
vn 0.000000 0.000000 -1.000000
vn 0.000000 0.000000 -1.000000
vn 0.000000 0.707108 -0.707105
vn 0.557882 0.829920 0.000000
vn 0.998769 0.000000 -0.049607
vn 0.337861 0.000000 -0.941196
vn -0.066524 0.000000 -0.997785
vn -0.000000 0.000000 -1.000000
vn 0.000000 0.000000 -1.000000
vn -0.067151 0.000000 -0.997743
vn -0.992653 0.000000 -0.120995
vn -0.067151 0.000000 -0.997743
vn -0.557887 0.000000 -0.829917
vn -0.557885 -0.829918 0.000000
vn -0.557885 -0.829918 0.000000
vn -0.557885 -0.829918 0.000000
vn -0.449002 -0.893531 0.000000
vn -0.668657 -0.743571 0.000000
vn 0.374168 -0.014182 0.927252
vn 0.268237 -0.000000 0.963353
vn 0.584388 -0.036452 0.810655
vn 0.851352 -0.000000 0.524594
vn 0.996996 -0.000815 0.077455
vn -0.000000 0.000000 -1.000000
vn 0.000000 0.000000 -1.000000
vn 0.000000 0.000000 -1.000000
vn 0.000000 0.000000 -1.000000
vn 0.343751 0.000000 -0.939061
vn 0.997360 0.000000 -0.072620
vn 0.994979 0.000000 -0.100085
vn 0.335589 0.000000 -0.942009
vn -0.067151 0.000000 -0.997743
vn 0.000000 0.000000 -1.000000
vn -0.000896 -0.200002 -0.979795
vn -0.557887 0.000000 -0.829917
vn -0.557885 -0.829918 0.000000
vn -0.008595 -0.997998 -0.062666
vn 0.000000 -0.969105 -0.246647
vn -0.449002 -0.893531 0.000000
vn 0.000000 0.000000 -1.000000
vn 0.000000 0.000000 -1.000000
vn -0.001870 -0.197196 -0.980362
vn -0.000896 -0.200002 -0.979795
vn 0.336699 0.000000 -0.941612
vn 0.992460 0.000000 -0.122573
vn 0.992640 0.000000 -0.121100
vn 0.337672 0.000000 -0.941264
vn -0.557887 0.000000 -0.829917
vn -0.000896 -0.200002 -0.979795
vn -0.008595 -0.997998 -0.062666
vn -0.557885 -0.829918 0.000000
vn -0.000896 -0.200002 -0.979795
vn -0.001870 -0.197196 -0.980362
vn -0.018192 -0.997590 -0.066950
vn -0.008595 -0.997998 -0.062666
vn 0.337672 0.000000 -0.941264
vn 0.992640 0.000000 -0.121100
vn 0.557882 -0.829920 0.000000
vn 0.557885 0.000000 -0.829918
vn -1.000000 0.000000 -0.000000
vn 0.000000 -0.950639 0.310300
vn 0.000000 -0.989471 0.144734
vn 0.000000 -0.989074 0.147420
vn 0.000000 -0.559486 0.828840
vn 0.000000 -0.587707 0.809074
vn 0.000000 -0.851388 0.524536
vn 0.000000 -0.840708 0.541488
vn -0.557888 0.000000 0.829916
vn -0.557888 0.000000 0.829916
vn -0.557885 0.829918 0.000000
vn -0.557885 0.829918 0.000000
vn -0.557887 0.000000 -0.829917
vn -0.557885 0.829918 0.000000
vn 0.000000 0.707109 0.707105
vn 0.557886 0.000000 0.829917
vn 0.557886 0.000000 0.829917
vn 0.557882 0.829920 0.000000
vn 0.557882 0.829920 0.000000
vn 0.000000 0.707108 -0.707105
vn -0.557885 -0.829918 0.000000
vn -0.557887 0.000000 -0.829917
vn -0.557885 -0.829918 0.000000
vn 0.557885 0.000000 -0.829918
vn 0.557882 -0.829920 0.000000
vn 0.557882 -0.829920 0.000000
vn -1.000000 0.000000 0.000000
vn -1.000000 0.000000 -0.000000
vn 0.000000 -0.989074 0.147420
vn -1.000000 0.000000 0.000000
vn -1.000000 0.000000 -0.000000
vn 0.000000 -0.840708 0.541488
vn 0.000000 -0.851388 0.524536
vn 0.000000 -0.950639 0.310300
vn 0.000000 -0.332641 0.943054
vn 0.000000 -0.080330 0.996768
vn 0.000000 -0.587707 0.809074
vn 0.000000 -0.559486 0.828840
vn 0.000000 -0.840708 0.541488
vn -1.000000 0.000000 0.000000
vn -1.000000 0.000000 0.000000
vn 0.000000 -0.559486 0.828840
vn 0.000000 -0.989074 0.147420
vn 0.000000 -0.989471 0.144734
vn -0.268239 0.000000 0.963352
vn -0.851353 0.000000 0.524593
vn -1.000000 0.000000 0.000000
vn -0.935214 0.000000 -0.354084
vn 0.000000 -0.332641 0.943054
vn -0.935214 0.000000 -0.354084
vn 0.000000 0.000000 1.000000
vn 0.000000 -0.080330 0.996768
vn 0.000000 -0.332641 0.943054
vn -0.265291 0.963146 0.044386
vn -0.000144 0.999497 -0.031713
vn -0.000144 0.999497 -0.031713
vn -0.299722 0.949708 -0.090675
vn -0.194359 -0.980918 0.004976
vn 0.000297 -0.997948 0.064035
vn 0.000297 -0.997948 0.064035
vn -0.236147 -0.964207 0.120580
vn -0.299722 0.949708 -0.090675
vn -0.194359 -0.980918 0.004976
vn -0.236147 -0.964207 0.120580
vn -0.265291 0.963146 0.044386
vn -0.096453 0.954312 -0.282817
vn 0.009061 0.947631 -0.319238
vn 0.009061 0.947631 -0.319238
vn -0.124179 0.930612 -0.344298
vn -0.264489 -0.908600 0.323252
vn -0.006648 -0.947251 0.320423
vn -0.006648 -0.947251 0.320423
vn -0.299145 -0.866187 0.400291
vn -0.124179 0.930612 -0.344298
vn -0.264489 -0.908600 0.323252
vn -0.299145 -0.866187 0.400291
vn -0.096453 0.954312 -0.282817
vn -0.201714 0.783728 -0.587437
vn -0.001453 0.755348 -0.655323
vn -0.001453 0.755348 -0.655323
vn -0.205208 0.686309 -0.697761
vn -0.208781 -0.771426 0.601092
vn 0.001411 -0.762693 0.646759
vn 0.001411 -0.762693 0.646759
vn -0.259547 -0.681603 0.684143
vn -0.205208 0.686309 -0.697761
vn -0.208781 -0.771426 0.601092
vn -0.259547 -0.681603 0.684143
vn -0.201714 0.783728 -0.587437
vn -0.132783 0.505002 -0.852843
vn -0.001005 0.456037 -0.889960
vn -0.001005 0.456037 -0.889960
vn -0.153466 0.393641 -0.906364
vn -0.150611 -0.443920 0.883319
vn 0.002324 -0.424907 0.905234
vn 0.002324 -0.424907 0.905234
vn -0.228142 -0.375164 0.898445
vn -0.153466 0.393641 -0.906364
vn -0.150611 -0.443920 0.883319
vn -0.228142 -0.375164 0.898445
vn -0.132783 0.505002 -0.852843
vn -0.150854 0.182989 -0.971472
vn -0.002953 0.130298 -0.991471
vn -0.002953 0.130298 -0.991471
vn -0.190512 0.090433 -0.977511
vn -0.145433 -0.136004 0.979976
vn 0.004621 -0.096979 0.995276
vn 0.004621 -0.096979 0.995276
vn -0.247141 -0.040489 0.968133
vn -0.190512 0.090433 -0.977511
vn -0.145433 -0.136004 0.979976
vn -0.247141 -0.040489 0.968133
vn -0.150854 0.182989 -0.971472
vn -0.180740 0.160629 -0.970325
vn 0.009150 0.132144 -0.991188
vn 0.009150 0.132144 -0.991188
vn -0.126036 0.384813 -0.914349
vn -0.185004 0.934494 -0.304129
vn 0.004544 0.917939 0.396696
vn 0.004544 0.917939 0.396696
vn -0.265291 0.963146 0.044386
vn -0.000130 0.703080 -0.711111
vn -0.000130 0.703080 -0.711111
vn -0.189700 0.949777 -0.248874
vn -0.299722 0.949708 -0.090675
vn -0.163207 -0.925898 0.340701
vn -0.000101 -0.977992 -0.208644
vn -0.000101 -0.977992 -0.208644
vn -0.194359 -0.980918 0.004976
vn 0.005756 -0.916526 0.399933
vn 0.005756 -0.916526 0.399933
vn -0.185102 -0.934772 -0.303215
vn -0.236147 -0.964207 0.120580
vn -0.189700 0.949777 -0.248874
vn -0.163207 -0.925898 0.340701
vn -0.194359 -0.980918 0.004976
vn -0.299722 0.949708 -0.090675
vn -0.185102 -0.934772 -0.303215
vn -0.185004 0.934494 -0.304129
vn -0.265291 0.963146 0.044386
vn -0.236147 -0.964207 0.120580
vn -0.189700 0.949777 -0.248874
vn 0.000129 0.902630 0.430418
vn 0.000129 0.902630 0.430418
vn -0.096453 0.954312 -0.282817
vn -0.068606 0.114265 -0.991079
vn -0.068606 0.114265 -0.991079
vn -0.169955 0.878673 -0.446149
vn -0.124179 0.930612 -0.344298
vn -0.190347 -0.859670 0.474063
vn -0.088718 -0.646144 -0.758042
vn -0.088718 -0.646144 -0.758042
vn -0.264489 -0.908600 0.323252
vn 0.000189 -0.387318 0.921946
vn 0.000189 -0.387318 0.921946
vn -0.163207 -0.925898 0.340701
vn -0.299145 -0.866187 0.400291
vn -0.169955 0.878673 -0.446149
vn -0.190347 -0.859670 0.474063
vn -0.264489 -0.908600 0.323252
vn -0.124179 0.930612 -0.344298
vn -0.163207 -0.925898 0.340701
vn -0.189700 0.949777 -0.248874
vn -0.096453 0.954312 -0.282817
vn -0.299145 -0.866187 0.400291
vn -0.169955 0.878673 -0.446149
vn 0.037915 0.995934 -0.081725
vn 0.037915 0.995934 -0.081725
vn -0.201714 0.783728 -0.587437
vn -0.014080 0.281296 -0.959518
vn -0.014080 0.281296 -0.959518
vn -0.135966 0.534456 -0.834189
vn -0.205208 0.686309 -0.697761
vn -0.180983 -0.697490 0.693363
vn -0.020254 -0.964357 0.263827
vn -0.020254 -0.964357 0.263827
vn -0.208781 -0.771426 0.601092
vn 0.021676 -0.706545 0.707336
vn 0.021676 -0.706545 0.707336
vn -0.190347 -0.859670 0.474063
vn -0.259547 -0.681603 0.684143
vn -0.135966 0.534456 -0.834189
vn -0.180983 -0.697490 0.693363
vn -0.208781 -0.771426 0.601092
vn -0.205208 0.686309 -0.697761
vn -0.190347 -0.859670 0.474063
vn -0.169955 0.878673 -0.446149
vn -0.201714 0.783728 -0.587437
vn -0.259547 -0.681603 0.684143
vn -0.135966 0.534456 -0.834189
vn 0.009223 0.809672 -0.586810
vn 0.009223 0.809672 -0.586810
vn -0.132783 0.505002 -0.852843
vn -0.053945 -0.257561 -0.964755
vn -0.053945 -0.257561 -0.964755
vn -0.135715 -0.052791 -0.989340
vn -0.153466 0.393641 -0.906364
vn -0.142576 -0.099450 0.984775
vn -0.048844 -0.743616 0.666820
vn -0.048844 -0.743616 0.666820
vn -0.150611 -0.443920 0.883319
vn 0.009574 -0.393194 0.919406
vn 0.009574 -0.393194 0.919406
vn -0.180983 -0.697490 0.693363
vn -0.228142 -0.375164 0.898445
vn -0.135715 -0.052791 -0.989340
vn -0.142576 -0.099450 0.984775
vn -0.150611 -0.443920 0.883319
vn -0.153466 0.393641 -0.906364
vn -0.180983 -0.697490 0.693363
vn -0.135966 0.534456 -0.834189
vn -0.132783 0.505002 -0.852843
vn -0.228142 -0.375164 0.898445
vn -0.135715 -0.052791 -0.989340
vn 0.022652 0.430254 -0.902424
vn 0.022652 0.430254 -0.902424
vn -0.150854 0.182989 -0.971472
vn -0.022368 -0.258114 -0.965856
vn -0.022368 -0.258114 -0.965856
vn -0.123789 0.038774 -0.991551
vn -0.190512 0.090433 -0.977511
vn -0.142593 -0.055215 0.988240
vn -0.019725 -0.468518 0.883234
vn -0.019725 -0.468518 0.883234
vn -0.145433 -0.136004 0.979976
vn 0.032456 0.095588 0.994892
vn 0.032456 0.095588 0.994892
vn -0.142576 -0.099450 0.984775
vn -0.247141 -0.040489 0.968133
vn -0.123789 0.038774 -0.991551
vn -0.142593 -0.055215 0.988240
vn -0.145433 -0.136004 0.979976
vn -0.190512 0.090433 -0.977511
vn -0.142576 -0.099450 0.984775
vn -0.135715 -0.052791 -0.989340
vn -0.150854 0.182989 -0.971472
vn -0.247141 -0.040489 0.968133
vn -0.123789 0.038774 -0.991551
vn 0.012784 0.356701 -0.934131
vn 0.012784 0.356701 -0.934131
vn -0.180740 0.160629 -0.970325
vn 0.021362 0.258917 0.965663
vn 0.021362 0.258917 0.965663
vn -0.142593 -0.055215 0.988240
vn -0.365231 -0.014686 0.930801
vn -0.142593 -0.055215 0.988240
vn -0.123789 0.038774 -0.991551
vn -0.180740 0.160629 -0.970325
vn -0.365231 -0.014686 0.930801
vn -0.094983 0.410755 0.906785
vn 0.000003 1.000000 -0.000056
vn 0.000003 1.000000 -0.000056
vn -0.233393 0.955123 -0.182397
vn -0.000002 -1.000000 -0.000017
vn -0.000002 -1.000000 -0.000017
vn -0.095275 -0.401652 0.910823
vn -0.240853 -0.953013 -0.183729
vn -0.095275 -0.401652 0.910823
vn -0.094983 0.410755 0.906785
vn -0.233393 0.955123 -0.182397
vn -0.240853 -0.953013 -0.183729
vn -0.240493 0.954717 0.175151
vn 0.000000 1.000000 -0.000002
vn 0.000000 1.000000 -0.000002
vn -0.235035 0.956977 -0.170157
vn 0.000000 -1.000000 0.000000
vn 0.000000 -1.000000 0.000000
vn -0.231582 -0.957263 0.173254
vn -0.228903 -0.959173 -0.166106
vn -0.231582 -0.957263 0.173254
vn -0.240493 0.954717 0.175151
vn -0.235035 0.956977 -0.170157
vn -0.228903 -0.959173 -0.166106
vn -0.181965 0.974672 -0.130013
vn 0.002859 0.659894 0.751353
vn 0.002859 0.659895 0.751353
vn -0.240493 0.954717 0.175151
vn -0.008567 0.601636 -0.798725
vn -0.008567 0.601636 -0.798725
vn -0.185004 0.934494 -0.304129
vn -0.235035 0.956977 -0.170157
vn 0.003491 -0.677312 0.735687
vn 0.003491 -0.677312 0.735687
vn -0.182873 -0.972356 -0.145197
vn -0.231582 -0.957263 0.173254
vn -0.185102 -0.934772 -0.303215
vn -0.010617 -0.608359 -0.793591
vn -0.010617 -0.608359 -0.793591
vn -0.228903 -0.959173 -0.166106
vn -0.182873 -0.972356 -0.145197
vn -0.181965 0.974672 -0.130013
vn -0.240493 0.954717 0.175151
vn -0.231582 -0.957263 0.173254
vn -0.185004 0.934494 -0.304129
vn -0.185102 -0.934772 -0.303215
vn -0.228903 -0.959173 -0.166106
vn -0.235035 0.956977 -0.170157
vn -0.003086 0.520396 -0.853919
vn -0.003086 0.520396 -0.853920
vn -0.181965 0.974672 -0.130013
vn -0.233393 0.955123 -0.182397
vn -0.182873 -0.972356 -0.145197
vn -0.003928 -0.487070 -0.873354
vn -0.003928 -0.487071 -0.873354
vn -0.240853 -0.953013 -0.183729
vn -0.181965 0.974672 -0.130013
vn -0.182873 -0.972356 -0.145197
vn -0.240853 -0.953013 -0.183729
vn -0.233393 0.955123 -0.182397
vn -0.094983 0.410755 0.906785
vn -0.095275 -0.401652 0.910823
vn 0.003027 0.001079 0.999995
vn 0.003027 0.001079 0.999995
vn -0.160603 0.417169 0.894526
vn 0.015669 0.027792 0.999491
vn 0.015669 0.027792 0.999491
vn -0.365231 -0.014686 0.930801
vn -0.126036 0.384813 -0.914349
vn -0.160603 0.417169 0.894526
vn -0.365231 -0.014686 0.930801
vn -0.180740 0.160629 -0.970325
vn -0.085699 -0.930479 -0.356181
vn -0.012770 -0.999918 0.000143
vn -0.012770 -0.999919 0.000143
vn -0.090127 -0.964188 0.249435
vn -0.205623 0.259373 -0.943634
vn -0.002649 0.044621 -0.999001
vn -0.002649 0.044621 -0.999000
vn -0.085699 -0.930479 -0.356181
vn -0.085699 -0.930479 -0.356181
vn -0.090127 -0.964188 0.249435
vn -0.278678 0.261317 0.924149
vn -0.205623 0.259373 -0.943634
vn -0.090127 -0.964188 0.249435
vn 0.002062 -0.052343 0.998627
vn 0.002062 -0.052343 0.998627
vn -0.278678 0.261317 0.924149
vn -0.126036 0.384813 -0.914349
vn 0.032138 0.895562 -0.443775
vn 0.032138 0.895562 -0.443775
vn -0.205623 0.259373 -0.943634
vn -0.160603 0.417169 0.894526
vn -0.126036 0.384813 -0.914349
vn -0.205623 0.259373 -0.943634
vn -0.278678 0.261317 0.924149
vn 0.036988 0.836977 0.545987
vn 0.036988 0.836977 0.545987
vn -0.160603 0.417169 0.894526
vn -0.278678 0.261317 0.924149
vn -1.000000 0.000000 0.000000
vn -0.998868 0.000000 -0.047571
vn -0.997475 0.000000 -0.071016
vn -1.000000 0.000000 0.000000
vn -0.998868 0.000000 -0.047571
vn -0.066289 0.000000 -0.997800
vn -0.067486 0.000000 -0.997720
vn -0.997475 0.000000 -0.071016
vn -0.066289 0.000000 -0.997800
vn 0.000000 0.000000 -1.000000
vn 0.000000 0.000000 -1.000000
vn -0.067486 0.000000 -0.997720
vn 0.000000 0.000000 -1.000000
vn 0.000000 0.000000 -1.000000
vn 0.000000 0.000000 -1.000000
vn 0.000000 0.000000 -1.000000
vn 0.337861 0.000000 -0.941196
vn 0.998769 0.000000 -0.049607
vn 0.997360 0.000000 -0.072620
vn 0.343751 0.000000 -0.939061
vn -0.935214 0.000000 -0.354084
vn -0.984913 0.000000 0.173051
vn 0.000000 0.000000 1.000000
vn 0.000000 0.000000 1.000000
vn 0.000000 1.000000 0.000000
vn 0.000000 1.000000 0.000000
vn 0.334603 0.942359 0.000000
vn 0.335966 0.941874 0.000000
vn 0.000000 0.999549 -0.030031
vn 0.000000 1.000000 0.000000
vn 0.335966 0.941874 0.000000
vn 0.557882 0.829920 0.000000
vn 0.000000 0.154692 -0.987963
vn 0.000000 0.999549 -0.030031
vn 0.557882 0.829920 0.000000
vn 0.000000 0.707108 -0.707105
vn 0.000000 0.000000 -1.000000
vn 0.000000 0.154692 -0.987963
vn 0.000000 0.707108 -0.707105
vn 0.337861 0.000000 -0.941196
vn 0.000000 0.000000 -1.000000
vn 0.000000 0.000000 -1.000000
vn 0.337861 0.000000 -0.941196
vn 0.343751 0.000000 -0.939061
vn 0.335589 0.000000 -0.942009
vn 0.000000 0.000000 -1.000000
vn 0.000000 0.000000 -1.000000
vn 0.343751 0.000000 -0.939061
vn 0.000000 0.000000 -1.000000
vn 0.000000 0.000000 -1.000000
vn 0.336699 0.000000 -0.941612
vn 0.337672 0.000000 -0.941264
vn -0.001870 -0.197196 -0.980362
vn 0.000000 0.000000 -1.000000
vn 0.337672 0.000000 -0.941264
vn 0.557885 0.000000 -0.829918
vn -0.018192 -0.997590 -0.066950
vn -0.001870 -0.197196 -0.980362
vn 0.557885 0.000000 -0.829918
vn 0.557882 -0.829920 0.000000
vn 0.000000 -0.021148 0.999776
vn 0.000000 -0.988357 0.152151
vn 0.268237 -0.000000 0.963353
vn 0.374168 -0.014182 0.927252
vn 0.000000 0.176917 0.984226
vn 0.000000 -0.021148 0.999776
vn 0.374168 -0.014182 0.927252
vn 0.557886 0.000000 0.829917
vn 0.000000 0.998294 0.058379
vn 0.000000 0.176917 0.984226
vn 0.557886 0.000000 0.829917
vn 0.000000 0.707109 0.707105
vn -1.000000 0.000000 0.000000
vn 0.000000 -0.989074 0.147420
vn -0.851353 0.000000 0.524593
vn -0.996986 -0.000815 0.077581
vn -0.557888 0.000000 0.829916
vn -0.985380 0.170370 0.000000
vn -1.000000 0.000000 0.000000
vn -0.996986 -0.000815 0.077581
vn -0.557888 0.000000 0.829916
vn -0.557885 0.829918 0.000000
vn -0.066868 0.997762 0.000000
vn -0.985380 0.170370 0.000000
vn -0.557885 0.829918 0.000000
vn 0.000000 0.998284 0.058558
vn 0.000000 1.000000 0.000000
vn -0.066868 0.997762 0.000000
vn 0.000000 0.998284 0.058558
vn 0.000000 0.998294 0.058379
vn 0.000000 1.000000 0.000000
vn 0.000000 1.000000 0.000000
vn 0.334603 0.942359 0.000000
vn 0.000000 1.000000 0.000000
vn 0.000000 0.998294 0.058379
vn 0.000000 0.707109 0.707105
vn 0.000000 0.707109 0.707105
vn 0.557886 0.000000 0.829917
vn 0.983523 0.180782 0.000000
vn 0.334603 0.942359 0.000000
vn 0.335589 0.000000 -0.942009
vn 0.994979 0.000000 -0.100085
vn 0.992460 0.000000 -0.122573
vn 0.336699 0.000000 -0.941612
vn 0.000000 0.000000 -1.000000
vn 0.000000 0.000000 -1.000000
vn 0.335589 0.000000 -0.942009
vn 0.336699 0.000000 -0.941612
vn 0.000000 0.000000 -1.000000
vn 0.000000 0.000000 -1.000000
vn 0.000000 0.000000 -1.000000
vn -0.000000 0.000000 -1.000000
vn -0.067412 0.000000 -0.997725
vn 0.000000 0.000000 -1.000000
vn -0.000000 0.000000 -1.000000
vn -0.066524 0.000000 -0.997785
vn -0.995209 0.000000 -0.097773
vn -0.067412 0.000000 -0.997725
vn -0.066524 0.000000 -0.997785
vn -0.992445 0.000000 -0.122693
vn 0.000000 -0.559486 0.828840
vn -1.000000 0.000000 0.000000
vn -1.000000 0.000000 0.000000
vn 0.000000 -0.332641 0.943054
vn -1.000000 0.000000 0.000000
vn -1.000000 0.000000 0.000000
vn -0.997475 0.000000 -0.071016
vn -0.995209 0.000000 -0.097773
vn -1.000000 0.000000 0.000000
vn -1.000000 0.000000 0.000000
vn -0.995209 0.000000 -0.097773
vn -0.992445 0.000000 -0.122693
vn -1.000000 0.000000 0.000000
vn -1.000000 0.000000 0.000000
vn 0.000000 -0.840708 0.541488
vn -1.000000 0.000000 -0.000000
vn -0.992445 0.000000 -0.122693
vn -0.992653 0.000000 -0.120995
vn -0.935214 0.000000 -0.354084
vn -1.000000 0.000000 0.000000
s off
g cobl_archway_low:archway_low
usemtl initialShadingGroup
f 142/1/1 143/2/2 3/3/3 4/4/4
f 141/5/5 142/6/6 4/7/7 5/8/8
f 143/2/9 144/9/10 9/10/11 3/3/12
f 3/3/13 10/11/14 11/12/15 4/4/16
f 4/7/17 11/13/18 12/14/19 5/8/20
f 1/15/21 6/16/22 16/17/23 7/18/24
f 2/19/25 7/20/26 17/21/27 8/22/28
f 144/9/29 145/23/30 122/24/31 9/10/32
f 3/3/33 9/10/34 20/25/35 10/11/36
f 11/13/37 21/26/38 22/27/39 12/14/40
f 6/16/41 15/28/42 27/29/43 16/17/44
f 7/18/45 16/17/46 28/30/47 17/31/48
f 8/22/49 17/21/50 133/32/51 121/33/52
f 9/10/53 122/24/54 123/34/55 20/25/56
f 146/35/57 147/36/58 32/37/59 19/38/60
f 10/11/61 20/25/62 33/39/63 21/40/64
f 21/26/65 33/41/66 34/42/67 22/27/68
f 115/43/69 116/44/70 152/45/71 153/46/72
f 16/17/73 27/29/74 38/47/75 28/30/76
f 17/48/77 28/49/78 132/50/79 133/51/80
f 20/25/81 123/34/82 124/52/83 33/39/84
f 19/38/85 32/37/86 41/53/87 30/54/88
f 33/55/89 124/56/90 125/57/91 34/58/92
f 116/44/93 117/59/94 151/60/95 152/45/96
f 23/61/97 35/62/98 45/63/99 36/64/100
f 36/64/101 46/65/102 47/66/103 120/67/104 37/68/105
f 28/49/106 38/69/107 131/70/108 132/50/109
f 29/71/110 39/72/111 42/73/112 31/74/113
f 117/77/114 126/78/115 150/79/116 151/80/117
f 40/81/118 41/76/119 49/75/120 43/82/121
f 35/62/122 44/83/123 52/84/124 45/63/125
f 36/64/126 45/63/127 53/85/128 46/65/129
f 46/65/130 54/86/131 55/87/132 47/66/133
f 39/72/134 48/88/135 207/299/136 50/89/137 42/73/138
f 44/90/139 127/91/140 128/92/141 52/93/142
f 118/94/143 119/95/144 148/96/145 149/97/146
f 45/63/147 52/84/148 58/98/149 53/85/150
f 54/86/151 59/99/152 60/100/153 55/87/154
f 52/93/155 128/92/156 129/101/157 58/102/158
f 51/103/159 56/104/160 61/105/161 57/106/162
f 53/85/163 58/98/164 59/99/165 54/86/166
f 58/102/167 129/101/168 130/108/169 59/107/170
f 57/106/171 61/105/172 64/109/173 62/110/174
f 13/112/175 139/113/176 140/114/177 14/115/178
f 25/116/179 137/117/180 138/118/181 26/119/182
f 1/120/183 7/20/184 2/19/185
f 10/11/186 21/40/187 11/12/188
f 18/121/189 29/122/190 31/123/191
f 30/54/192 41/53/193 40/124/194
f 46/65/195 53/85/196 54/86/197
f 62/110/198 64/109/199 63/111/200
f 5/8/201 13/125/202 14/126/203 141/5/204
f 13/112/205 26/119/206 138/118/207 139/113/208
f 24/127/209 136/128/210 137/117/211 25/116/212
f 26/129/213 154/130/214 155/131/215 25/132/216
f 14/115/217 140/114/218 27/133/219 15/134/220
f 156/135/221 37/68/222 24/136/223
f 37/137/224 135/138/225 136/128/226 24/127/227
f 77/139/228 157/245/229 158/246/230 78/140/231
f 79/141/232 193/283/233 194/284/234 80/142/235
f 78/143/236 79/144/237 80/145/238 77/146/239
f 81/147/240 160/248/241 161/249/242 82/148/243
f 83/149/244 190/280/245 191/281/246 84/150/247
f 82/151/248 83/152/249 84/153/250 81/154/251
f 85/155/252 163/251/253 164/252/254 86/156/255
f 87/157/256 187/277/257 188/278/258 88/158/259
f 86/159/260 87/160/261 88/161/262 85/162/263
f 89/163/264 166/254/265 167/255/266 90/164/267
f 91/165/268 184/274/269 185/275/270 92/166/271
f 90/167/272 91/168/273 92/169/274 89/170/275
f 93/171/276 169/257/277 170/258/278 94/172/279
f 95/173/280 181/271/281 182/272/282 96/174/283
f 94/175/284 95/176/285 96/177/286 93/178/287
f 97/179/288 172/260/289 173/261/290 109/180/291
f 66/181/292 206/298/293 157/245/294 77/139/295
f 158/246/296 159/247/297 68/182/298 78/140/299
f 67/183/300 192/282/301 193/283/302 79/141/303
f 194/284/304 195/285/305 65/184/306 80/142/307
f 68/185/308 67/186/309 79/144/310 78/143/311
f 65/187/312 66/188/313 77/146/314 80/145/315
f 68/182/316 159/247/317 160/248/318 81/147/319
f 161/249/320 162/250/321 70/189/322 82/148/323
f 69/190/324 189/279/325 190/280/326 83/149/327
f 191/281/328 192/282/329 67/183/330 84/150/331
f 70/191/332 69/192/333 83/152/334 82/151/335
f 67/186/336 68/185/337 81/154/338 84/153/339
f 70/189/340 162/250/341 163/251/342 85/155/343
f 164/252/344 165/253/345 72/193/346 86/156/347
f 71/194/348 186/276/349 187/277/350 87/157/351
f 188/278/352 189/279/353 69/190/354 88/158/355
f 72/195/356 71/196/357 87/160/358 86/159/359
f 69/192/360 70/191/361 85/162/362 88/161/363
f 72/193/364 165/253/365 166/254/366 89/163/367
f 167/255/368 168/256/369 74/197/370 90/164/371
f 73/198/372 183/273/373 184/274/374 91/165/375
f 185/275/376 186/276/377 71/194/378 92/166/379
f 74/199/380 73/200/381 91/168/382 90/167/383
f 71/196/384 72/195/385 89/170/386 92/169/387
f 74/197/388 168/256/389 169/257/390 93/171/391
f 170/258/392 171/259/393 76/201/394 94/172/395
f 75/202/396 180/270/397 181/271/398 95/173/399
f 182/272/400 183/273/401 73/198/402 96/174/403
f 76/203/404 75/204/405 95/176/406 94/175/407
f 73/200/408 74/199/409 93/178/410 96/177/411
f 76/201/412 171/259/413 172/260/414 97/179/415
f 179/269/416 180/270/417 75/202/418 98/205/419
f 75/204/420 76/203/421 97/206/422 98/207/423
f 105/208/424 201/292/425 202/293/426 106/209/427
f 199/289/428 200/291/429 107/210/430 108/211/431
f 107/212/432 105/213/433 106/214/434 108/215/435
f 101/216/436 204/296/437 205/297/438 102/217/439
f 196/286/440 197/287/441 103/218/442 104/219/443
f 103/220/444 101/221/445 102/222/446 104/223/447
f 100/224/448 203/295/449 204/296/450 101/216/451
f 205/297/452 206/298/453 66/181/454 102/217/455
f 197/287/456 198/288/457 99/225/458 103/218/459
f 65/184/460 195/285/461 196/286/462 104/219/463
f 99/226/464 100/227/465 101/221/466 103/220/467
f 66/188/468 65/187/469 104/223/470 102/222/471
f 202/294/472 203/295/473 100/224/474 106/228/475
f 99/225/476 198/288/477 199/290/478 108/229/479
f 100/227/480 99/226/481 108/215/482 106/214/483
f 105/208/484 107/210/485 200/291/486 201/292/487
f 110/230/488 178/268/489 179/269/490 98/205/491
f 109/231/492 110/232/493 98/207/494 97/206/495
f 111/233/496 175/264/497 176/265/498 112/234/499
f 113/235/500 174/262/501 175/264/502 111/233/503
f 111/236/504 112/237/505 114/238/506 113/239/507
f 112/234/508 176/265/509 177/266/510 114/240/511
f 109/180/512 173/261/513 174/263/514 113/241/515
f 110/232/516 109/231/517 113/239/518 114/238/519
f 177/267/520 178/268/521 110/230/522 114/242/523
f 5/8/524 12/14/525 115/43/526 154/130/527
f 12/14/528 22/27/529 116/44/530 115/43/531
f 22/27/532 34/42/533 117/59/534 116/44/535
f 34/58/536 125/57/537 126/78/538 117/77/539
f 43/82/540 49/75/541 119/95/542 118/94/543
f 37/137/544 120/244/545 134/243/546 135/138/547
f 122/24/548 145/23/549 146/35/550 19/38/551
f 123/34/552 122/24/553 19/38/554 30/54/555
f 124/52/556 123/34/557 30/54/558 40/124/559
f 125/57/560 124/56/561 40/81/562 43/82/563
f 126/78/564 125/57/565 43/82/566 118/94/567
f 149/97/568 150/79/569 126/78/570 118/94/571
f 128/92/572 127/91/573 51/103/574 57/106/575
f 129/101/576 128/92/577 57/106/578 62/110/579
f 130/108/580 129/101/581 62/110/582 63/111/583
f 132/50/584 131/70/585 48/88/586 39/72/587
f 133/51/588 132/50/589 39/72/590 29/71/591
f 121/33/592 133/32/593 29/122/594 18/121/595
f 141/5/596 14/126/597 15/28/598 6/16/599
f 1/15/600 142/6/601 141/5/602 6/16/603
f 1/120/604 2/19/605 143/2/606 142/1/607
f 2/19/608 8/22/609 144/9/610 143/2/611
f 8/22/612 121/33/613 145/23/614 144/9/615
f 146/35/616 145/23/617 121/33/618 18/121/619
f 18/121/620 31/123/621 147/36/622 146/35/623
f 149/97/624 148/96/625 56/104/626 51/103/627
f 127/91/628 150/79/629 149/97/630 51/103/631
f 151/80/632 150/79/633 127/91/634 44/90/635
f 152/45/636 151/60/637 44/83/638 35/62/639
f 153/46/640 152/45/641 35/62/642 23/61/643
f 25/132/644 155/131/645 156/135/646 24/136/647
f 155/131/648 154/130/649 115/43/650 153/46/651
f 156/135/652 155/131/653 153/46/654 23/61/655
f 5/8/656 154/130/657 26/129/658 13/125/659
f 23/61/660 36/64/661 37/68/662 156/135/663
