# This file uses centimeters as units for non-parametric coordinates.

mtllib Cobble_wall_low.mtl
g default
v 1.701158 -0.003926 0.459724
v 1.751153 0.046069 0.459724
v 1.701158 0.046069 0.509719
v 1.701158 0.046069 -0.490281
v 1.751153 0.046069 -0.440286
v 1.701158 -0.003926 -0.440286
v 1.701158 3.146079 0.509719
v 1.751153 3.146079 0.459724
v 1.701158 3.196074 0.459724
v 1.701158 3.196074 -0.440286
v 1.751153 3.146079 -0.440286
v 1.701158 3.146079 -0.490281
v -1.598852 3.146079 0.509719
v -1.598852 3.196074 0.459724
v -1.648847 3.146079 0.459724
v -1.648847 3.146079 -0.440286
v -1.598852 3.196074 -0.440286
v -1.598852 3.146079 -0.490281
v -1.598852 0.046069 0.509719
v -1.648847 0.046069 0.459724
v -1.598852 -0.003926 0.459724
v -1.598852 -0.003926 -0.440286
v -1.648847 0.046069 -0.440286
v -1.598852 0.046069 -0.490281
v 0.015170 0.046069 0.509719
v 0.015170 -0.003926 0.459724
v 0.015170 -0.003926 -0.440286
v 0.015170 0.046069 -0.490281
v 0.015170 3.146079 -0.490281
v 0.015170 3.196074 -0.440286
v 0.015170 3.196074 0.459724
v 0.015170 3.146079 0.509719
v 1.751153 1.589006 0.459724
v 1.701158 1.589006 0.509719
v 0.015170 1.589006 0.509719
v -1.598852 1.589006 0.509719
v -1.648847 1.589006 0.459724
v -1.648847 1.589006 -0.440286
v -1.598852 1.589006 -0.490281
v 0.015170 1.589006 -0.490281
v 1.701158 1.589006 -0.490281
v 1.751153 1.589006 -0.440286
v 1.701158 2.876776 0.509719
v 1.751153 2.876776 0.459724
v 1.751153 2.876776 -0.440286
v 1.701158 2.876776 -0.490281
v 0.015170 2.876776 -0.490281
v -1.598852 2.876776 -0.490281
v -1.648847 2.876776 -0.440286
v -1.648847 2.876776 0.459724
v -1.598852 2.876776 0.509719
v 0.015170 2.876776 0.509719
v 1.751153 0.266357 0.459724
v 1.701158 0.266357 0.509719
v 0.015170 0.266357 0.509719
v -1.598852 0.266357 0.509719
v -1.648847 0.266357 0.459724
v -1.648847 0.266357 -0.440286
v -1.598852 0.266357 -0.490281
v 0.015170 0.266357 -0.490281
v 1.701158 0.266357 -0.490281
v 1.751153 0.266357 -0.440286
v 1.701158 -0.003926 0.008107
v 1.751153 0.046069 0.008107
v 1.751153 0.266357 0.008107
v 1.751153 1.589006 0.008107
v 1.751153 2.876776 0.008107
v 1.751153 3.146079 0.008107
v 1.701158 3.196074 0.008107
v 0.015170 3.196074 0.008107
v -1.598852 3.196074 0.008107
v -1.648847 3.146079 0.008107
v -1.648847 2.876776 0.008107
v -1.648847 1.589006 0.008107
v -1.648847 0.266357 0.008107
v -1.648847 0.046069 0.008107
v -1.598852 -0.003926 0.008107
v 0.015170 -0.003926 0.008107
vt 0.976157 0.007506
vt 0.975073 0.017938
vt 0.726114 0.017949
vt 0.726137 0.007371
vt 0.120673 0.058533
vt 0.120642 0.066582
vt 0.069229 0.066384
vt 0.069260 0.058335
vt 0.985154 0.015872
vt 0.987349 0.049958
vt 0.976801 0.050544
vt 0.021046 0.519126
vt 0.020027 0.508649
vt 0.271008 0.508514
vt 0.270989 0.519091
vt 0.011180 0.517058
vt 0.019444 0.551953
vt 0.008867 0.551443
vt 0.976236 0.480193
vt 0.977292 0.490665
vt 0.726652 0.491106
vt 0.726636 0.480528
vt 0.650706 0.947978
vt 0.644056 0.954491
vt 0.602454 0.912016
vt 0.609104 0.905503
vt 0.021938 0.992689
vt 0.022982 0.982253
vt 0.271882 0.981661
vt 0.271911 0.992239
vt 0.485259 0.050638
vt 0.474682 0.050125
vt 0.477009 0.015745
vt 0.486874 0.017815
vt 0.967726 0.637475
vt 0.961076 0.643988
vt 0.919474 0.601513
vt 0.926124 0.595000
vt 0.521537 0.550946
vt 0.510989 0.551536
vt 0.509247 0.518943
vt 0.519329 0.516874
vt 0.119195 0.442259
vt 0.119164 0.450308
vt 0.067751 0.450110
vt 0.067782 0.442061
vt 0.139486 0.019130
vt 0.214034 0.019061
vt 0.214067 0.055424
vt 0.139519 0.055493
vt 0.767673 0.750193
vt 0.809275 0.792668
vt 0.451854 0.050903
vt 0.376782 0.051402
vt 0.376539 0.014783
vt 0.451611 0.014284
vt 0.119902 0.258517
vt 0.068490 0.258319
vt 0.270904 0.552037
vt 0.726010 0.050895
vt 0.986171 0.482252
vt 0.012865 0.984343
vt 0.488442 0.480861
vt 0.487380 0.491292
vt 0.478321 0.482938
vt 0.520711 0.983140
vt 0.511846 0.991562
vt 0.510771 0.981094
vt 0.485856 0.007340
vt 0.510333 0.508514
vt 0.978214 0.440307
vt 0.988794 0.440794
vt 0.726584 0.440111
vt 0.486250 0.441005
vt 0.475701 0.441582
vt 0.951452 0.570192
vt 0.993054 0.612667
vt 0.512705 0.941220
vt 0.523286 0.941693
vt 0.271788 0.941245
vt 0.020744 0.942384
vt 0.010196 0.942974
vt 0.618728 0.979299
vt 0.577126 0.936823
vt 0.978898 0.247322
vt 0.989463 0.247266
vt 0.139721 0.273820
vt 0.214269 0.273751
vt 0.214465 0.486321
vt 0.139918 0.486390
vt 0.007910 0.750426
vt 0.018475 0.750380
vt 0.271186 0.749286
vt 0.513179 0.748268
vt 0.523744 0.748203
vt 0.454737 0.484835
vt 0.379664 0.485333
vt 0.378242 0.271267
vt 0.453315 0.270768
vt 0.473626 0.249075
vt 0.484192 0.249038
vt 0.726115 0.248170
vt 0.018184 0.066187
vt 0.018215 0.058138
vt 0.288049 0.018993
vt 0.288083 0.055355
vt 0.288284 0.273683
vt 0.288481 0.486253
vt 0.535821 0.894651
vt 0.561149 0.869844
vt 0.567799 0.863331
vt 0.726368 0.708021
vt 0.878169 0.559341
vt 0.884819 0.552828
vt 0.910147 0.528020
vt 0.305127 0.485829
vt 0.303705 0.271762
vt 0.302245 0.051897
vt 0.302002 0.015278
vt 0.016705 0.449913
vt 0.016736 0.441864
vt 0.017444 0.258122
vn 0.000000 -0.707106 0.707108
vn 0.000000 -0.707106 0.707108
vn 0.000000 -0.181886 0.983320
vn 0.000000 -0.995070 0.099177
vn 0.707105 -0.707109 0.000000
vn 0.000000 -0.707106 0.707108
vn 0.028787 -0.999586 0.000000
vn 0.983319 -0.181888 0.000000
vn 0.000000 -0.707106 0.707108
vn 0.707105 -0.707109 0.000000
vn 0.995070 0.000000 0.099178
vn 0.028787 0.000000 0.999586
vn 0.000000 -0.707108 -0.707105
vn 0.707105 -0.707109 0.000000
vn 0.000000 -0.995006 -0.099813
vn 0.000000 -0.181887 -0.983319
vn 0.707105 -0.707109 0.000000
vn 0.000000 -0.707108 -0.707105
vn 0.028787 0.000000 -0.999586
vn 0.995006 0.000000 -0.099813
vn 0.707103 0.000000 0.707110
vn 0.000000 0.707106 0.707108
vn 0.000000 0.995070 0.099177
vn 0.000000 0.154692 0.987963
vn 0.000000 0.707106 0.707108
vn 0.707103 0.000000 0.707110
vn 0.987963 0.154694 0.000000
vn 0.028787 0.999586 0.000000
vn 0.707105 0.707109 0.000000
vn 0.707105 0.000000 -0.707109
vn 0.000000 0.154693 -0.987963
vn 0.000000 0.995006 -0.099813
vn -0.030031 0.000000 0.999549
vn -0.995070 0.000000 0.099177
vn -0.707104 0.000000 0.707109
vn 0.000000 -0.707106 0.707108
vn -0.707104 0.000000 0.707109
vn 0.000000 0.707106 0.707108
vn -0.030031 0.999549 0.000000
vn -0.987963 0.154693 0.000000
vn -0.995006 0.000000 -0.099812
vn -0.030031 0.000000 -0.999549
vn 0.000000 -0.707108 -0.707105
vn -0.707106 0.000000 -0.707108
vn 0.000000 -0.707106 0.707108
vn -0.707104 0.000000 0.707109
vn -0.983320 -0.181887 0.000000
vn -0.030031 -0.999549 0.000000
vn 0.707105 -0.707109 0.000000
vn 0.983319 -0.181888 0.000000
vn 1.000000 0.000000 0.000000
vn 0.995070 0.000000 0.099178
vn 0.000000 0.707106 0.707108
vn 0.028787 0.999586 0.000000
vn 0.000000 1.000000 0.000000
vn 0.000000 0.995070 0.099177
vn -0.995070 0.000000 0.099177
vn -1.000000 0.000000 0.000000
vn -0.983320 -0.181887 0.000000
vn -0.707104 0.000000 0.707109
vn 0.000000 -0.995070 0.099177
vn 0.000000 -1.000000 0.000000
vn 0.028787 -0.999586 0.000000
vn 0.000000 -0.707106 0.707108
vn 0.000000 -0.707108 -0.707105
vn 0.000000 -0.181887 -0.983319
vn 0.000000 0.000000 -1.000000
vn 0.028787 0.000000 -0.999586
vn 0.028787 0.000000 0.999586
vn 0.000000 0.000000 1.000000
vn 0.000000 -0.181886 0.983320
vn 0.000000 -0.707106 0.707108
vn 0.000000 -0.707106 0.707108
vn 0.707105 -0.707109 0.000000
vn 0.000000 -0.707106 0.707108
vn 0.000000 -0.707108 -0.707105
vn 0.707105 -0.707109 0.000000
vn 0.707105 -0.707109 0.000000
vn 0.707103 0.000000 0.707110
vn 0.707103 0.000000 0.707110
vn 0.000000 0.707106 0.707108
vn 0.707105 0.707109 0.000000
vn 0.707105 0.000000 -0.707109
vn 0.707105 0.000000 -0.707109
vn 0.000000 0.707106 0.707108
vn 0.000000 0.707106 0.707108
vn -0.707104 0.000000 0.707109
vn -0.707105 0.707108 0.000000
vn 0.000000 0.707108 -0.707105
vn 0.000000 0.707108 -0.707105
vn 0.000000 -0.707106 0.707108
vn -0.707104 0.000000 0.707109
vn 0.000000 -0.707106 0.707108
vn 0.000000 -0.707108 -0.707105
vn -0.707106 0.000000 -0.707108
vn 0.000000 -0.707108 -0.707105
vn 0.000000 -0.995070 0.099177
vn 0.000000 -0.181886 0.983320
vn 0.000000 -0.707106 0.707108
vn 0.000000 -0.707106 0.707108
vn 0.000000 -0.707106 0.707108
vn -0.030031 -0.999549 0.000000
vn 0.000000 -1.000000 0.000000
vn 0.000000 -0.995070 0.099177
vn 0.000000 -0.181887 -0.983319
vn 0.000000 -0.995006 -0.099813
vn 0.000000 -0.707108 -0.707105
vn 0.000000 -0.707108 -0.707105
vn -0.030031 0.000000 -0.999549
vn 0.000000 0.000000 -1.000000
vn 0.000000 -0.181887 -0.983319
vn 0.000000 -0.707108 -0.707105
vn 0.000000 0.995006 -0.099813
vn 0.000000 0.154693 -0.987963
vn 0.000000 0.707108 -0.707105
vn 0.000000 0.707108 -0.707105
vn 0.000000 0.995070 0.099177
vn 0.000000 1.000000 0.000000
vn -0.030031 0.999549 0.000000
vn 0.000000 0.707106 0.707108
vn 0.000000 0.154692 0.987963
vn 0.000000 0.995070 0.099177
vn 0.000000 0.707106 0.707108
vn 0.000000 0.707106 0.707108
vn 0.000000 -0.707106 0.707108
vn 0.000000 -0.181886 0.983320
vn 0.000000 0.000000 1.000000
vn -0.030031 0.000000 0.999549
vn 0.028787 0.000000 0.999586
vn 0.995070 0.000000 0.099178
vn 0.707103 0.000000 0.707110
vn 0.707103 0.000000 0.707110
vn 0.000000 0.154692 0.987963
vn 0.000000 0.000000 1.000000
vn 0.028787 0.000000 0.999586
vn 0.707103 0.000000 0.707110
vn -0.030031 0.000000 0.999549
vn 0.000000 0.000000 1.000000
vn 0.000000 0.154692 0.987963
vn 0.000000 0.707106 0.707108
vn 0.000000 0.707106 0.707108
vn -0.707104 0.000000 0.707109
vn -0.995070 0.000000 0.099177
vn -0.030031 0.000000 0.999549
vn -0.707104 0.000000 0.707109
vn -0.987963 0.154693 0.000000
vn -1.000000 0.000000 -0.000000
vn -0.995070 0.000000 0.099177
vn -0.707105 0.707108 0.000000
vn 0.000000 0.707108 -0.707105
vn -0.030031 0.000000 -0.999549
vn -0.995006 0.000000 -0.099812
vn 0.000000 0.154693 -0.987963
vn 0.000000 0.000000 -1.000000
vn -0.030031 0.000000 -0.999549
vn 0.000000 0.707108 -0.707105
vn 0.028787 0.000000 -0.999586
vn 0.000000 0.000000 -1.000000
vn 0.000000 0.154693 -0.987963
vn 0.707105 0.000000 -0.707109
vn 0.995006 0.000000 -0.099813
vn 0.028787 0.000000 -0.999586
vn 0.707105 0.000000 -0.707109
vn 0.707105 0.000000 -0.707109
vn 0.995070 0.000000 0.099178
vn 1.000000 0.000000 0.000000
vn 0.987963 0.154694 0.000000
vn 0.707103 0.000000 0.707110
vn 0.028787 0.000000 0.999586
vn 0.995070 0.000000 0.099178
vn 0.995070 0.000000 0.099178
vn 0.028787 0.000000 0.999586
vn 0.995070 0.000000 0.099178
vn 1.000000 0.000000 0.000000
vn 1.000000 0.000000 0.000000
vn 0.995070 0.000000 0.099178
vn 0.995006 0.000000 -0.099813
vn 0.028787 0.000000 -0.999586
vn 0.028787 0.000000 -0.999586
vn 0.995006 0.000000 -0.099813
vn 0.028787 0.000000 -0.999586
vn 0.000000 0.000000 -1.000000
vn 0.000000 0.000000 -1.000000
vn 0.028787 0.000000 -0.999586
vn -0.030031 0.000000 -0.999549
vn 0.000000 0.000000 -1.000000
vn 0.000000 0.000000 -1.000000
vn -0.030031 0.000000 -0.999549
vn -0.995006 0.000000 -0.099812
vn -0.030031 0.000000 -0.999549
vn -0.030031 0.000000 -0.999549
vn -0.995006 0.000000 -0.099812
vn -0.995070 0.000000 0.099177
vn -1.000000 0.000000 -0.000000
vn -1.000000 0.000000 0.000000
vn -0.995070 0.000000 0.099177
vn -0.030031 0.000000 0.999549
vn -0.995070 0.000000 0.099177
vn -0.995070 0.000000 0.099177
vn -0.030031 0.000000 0.999549
vn -0.030031 0.000000 0.999549
vn 0.000000 0.000000 1.000000
vn 0.000000 0.000000 1.000000
vn -0.030031 0.000000 0.999549
vn 0.028787 0.000000 0.999586
vn 0.000000 0.000000 1.000000
vn 0.000000 0.000000 1.000000
vn 0.028787 0.000000 0.999586
vn 0.028787 0.000000 0.999586
vn 0.995070 0.000000 0.099178
vn 0.995070 0.000000 0.099178
vn 0.028787 0.000000 0.999586
vn 0.028787 0.000000 0.999586
vn 0.000000 0.000000 1.000000
vn 0.000000 0.000000 1.000000
vn 0.028787 0.000000 0.999586
vn -0.030031 0.000000 0.999549
vn 0.000000 0.000000 1.000000
vn 0.000000 0.000000 1.000000
vn -0.030031 0.000000 0.999549
vn -0.030031 0.000000 0.999549
vn -0.995070 0.000000 0.099177
vn -0.995070 0.000000 0.099177
vn -0.030031 0.000000 0.999549
vn -0.995070 0.000000 0.099177
vn -1.000000 0.000000 0.000000
vn -1.000000 0.000000 0.000000
vn -0.995070 0.000000 0.099177
vn -0.995006 0.000000 -0.099812
vn -0.030031 0.000000 -0.999549
vn -0.030031 0.000000 -0.999549
vn -0.995006 0.000000 -0.099812
vn -0.030031 0.000000 -0.999549
vn 0.000000 0.000000 -1.000000
vn 0.000000 0.000000 -1.000000
vn -0.030031 0.000000 -0.999549
vn 0.028787 0.000000 -0.999586
vn 0.000000 0.000000 -1.000000
vn 0.000000 0.000000 -1.000000
vn 0.028787 0.000000 -0.999586
vn 0.995006 0.000000 -0.099813
vn 0.028787 0.000000 -0.999586
vn 0.028787 0.000000 -0.999586
vn 0.995006 0.000000 -0.099813
vn 0.995070 0.000000 0.099178
vn 1.000000 0.000000 0.000000
vn 1.000000 0.000000 0.000000
vn 0.995070 0.000000 0.099178
vn 0.983319 -0.181888 0.000000
vn 0.028787 -0.999586 0.000000
vn 0.707105 -0.707109 0.000000
vn 0.707105 -0.707109 0.000000
vn 1.000000 0.000000 0.000000
vn 0.983319 -0.181888 0.000000
vn 0.707105 -0.707109 0.000000
vn 0.995006 0.000000 -0.099813
vn 1.000000 0.000000 0.000000
vn 1.000000 0.000000 0.000000
vn 0.995006 0.000000 -0.099813
vn 0.995006 0.000000 -0.099813
vn 1.000000 0.000000 0.000000
vn 1.000000 0.000000 0.000000
vn 0.995006 0.000000 -0.099813
vn 0.995006 0.000000 -0.099813
vn 0.987963 0.154694 0.000000
vn 1.000000 0.000000 0.000000
vn 0.995006 0.000000 -0.099813
vn 0.707105 0.000000 -0.707109
vn 0.028787 0.999586 0.000000
vn 0.987963 0.154694 0.000000
vn 0.707105 0.000000 -0.707109
vn 0.707105 0.707109 0.000000
vn 0.000000 1.000000 0.000000
vn 0.028787 0.999586 0.000000
vn 0.707105 0.707109 0.000000
vn 0.000000 0.995006 -0.099813
vn -0.030031 0.999549 0.000000
vn 0.000000 1.000000 0.000000
vn 0.000000 0.995006 -0.099813
vn 0.000000 0.707108 -0.707105
vn -0.987963 0.154693 0.000000
vn -0.030031 0.999549 0.000000
vn 0.000000 0.707108 -0.707105
vn -0.707105 0.707108 0.000000
vn -1.000000 0.000000 -0.000000
vn -0.987963 0.154693 0.000000
vn -0.707105 0.707108 0.000000
vn -0.995006 0.000000 -0.099812
vn -1.000000 0.000000 0.000000
vn -1.000000 0.000000 -0.000000
vn -0.995006 0.000000 -0.099812
vn -0.995006 0.000000 -0.099812
vn -1.000000 0.000000 0.000000
vn -1.000000 0.000000 0.000000
vn -0.995006 0.000000 -0.099812
vn -0.995006 0.000000 -0.099812
vn -0.983320 -0.181887 0.000000
vn -1.000000 0.000000 0.000000
vn -0.995006 0.000000 -0.099812
vn -0.707106 0.000000 -0.707108
vn -0.030031 -0.999549 0.000000
vn -0.983320 -0.181887 0.000000
vn -0.707106 0.000000 -0.707108
vn 0.000000 -0.707108 -0.707105
vn 0.000000 -1.000000 0.000000
vn -0.030031 -0.999549 0.000000
vn 0.000000 -0.707108 -0.707105
vn 0.000000 -0.995006 -0.099813
vn 0.028787 -0.999586 0.000000
vn 0.000000 -1.000000 0.000000
vn 0.000000 -0.995006 -0.099813
vn 0.707105 -0.707109 0.000000
s off
g brickwall_low:cobnblewall_low
usemtl initialShadingGroup
f 1/1/1 3/2/2 25/3/3 26/4/4
f 2/5/5 1/6/6 63/7/7 64/8/8
f 3/2/9 2/9/10 53/10/11 54/11/12
f 4/12/13 6/13/14 27/14/15 28/15/16
f 5/16/17 4/12/18 61/17/19 62/18/20
f 7/19/21 9/20/22 31/21/23 32/22/24
f 9/23/25 8/24/26 68/25/27 69/26/28
f 10/27/29 12/28/30 29/29/31 30/30/32
f 56/31/33 57/32/34 20/33/35 19/34/36
f 15/35/37 14/36/38 71/37/39 72/38/40
f 58/39/41 59/40/42 24/41/43 23/42/44
f 21/43/45 20/44/46 76/45/47 77/46/48
f 2/47/49 64/48/50 65/49/51 53/50/52
f 9/23/53 69/26/54 70/51/55 31/52/56
f 57/53/57 75/54/58 76/55/59 20/56/60
f 26/57/61 78/58/62 63/7/63 1/6/64
f 4/12/65 28/15/66 60/59/67 61/17/68
f 54/11/69 55/60/70 25/3/71 3/2/72
f 1/1/73 2/9/74 3/2/75
f 4/12/76 5/16/77 6/13/78
f 7/19/79 8/61/80 9/20/81
f 10/27/82 11/62/83 12/28/84
f 13/63/85 14/64/86 15/65/87
f 16/66/88 17/67/89 18/68/90
f 19/34/91 20/33/92 21/69/93
f 22/70/94 23/42/95 24/41/96
f 26/4/97 25/3/98 19/34/99 21/69/100
f 21/43/101 77/46/102 78/58/103 26/57/104
f 28/15/105 27/14/106 22/70/107 24/41/108
f 59/40/109 60/59/110 28/15/111 24/41/112
f 30/30/113 29/29/114 18/68/115 17/67/116
f 31/52/117 70/51/118 71/37/119 14/36/120
f 32/22/121 31/21/122 14/64/123 13/63/124
f 19/34/125 25/3/126 55/60/127 56/31/128
f 43/71/129 44/72/130 8/61/131 7/19/132
f 32/22/133 52/73/134 43/71/135 7/19/136
f 51/74/137 52/73/138 32/22/139 13/63/140
f 13/63/141 15/65/142 50/75/143 51/74/144
f 15/35/145 72/38/146 73/76/147 50/77/148
f 16/66/149 18/68/150 48/78/151 49/79/152
f 29/29/153 47/80/154 48/78/155 18/68/156
f 46/81/157 47/80/158 29/29/159 12/28/160
f 45/82/161 46/81/162 12/28/163 11/62/164
f 44/83/165 67/84/166 68/25/167 8/24/168
f 34/85/169 33/86/170 44/72/171 43/71/172
f 33/87/173 66/88/174 67/89/175 44/90/176
f 42/91/177 41/92/178 46/81/179 45/82/180
f 41/92/181 40/93/182 47/80/183 46/81/184
f 48/78/185 47/80/186 40/93/187 39/94/188
f 49/79/189 48/78/190 39/94/191 38/95/192
f 50/96/193 73/97/194 74/98/195 37/99/196
f 51/74/197 50/75/198 37/100/199 36/101/200
f 36/101/201 35/102/202 52/73/203 51/74/204
f 43/71/205 52/73/206 35/102/207 34/85/208
f 54/11/209 53/10/210 33/86/211 34/85/212
f 34/85/213 35/102/214 55/60/215 54/11/216
f 56/31/217 55/60/218 35/102/219 36/101/220
f 36/101/221 37/100/222 57/32/223 56/31/224
f 37/99/225 74/98/226 75/54/227 57/53/228
f 38/95/229 39/94/230 59/40/231 58/39/232
f 39/94/233 40/93/234 60/59/235 59/40/236
f 61/17/237 60/59/238 40/93/239 41/92/240
f 62/18/241 61/17/242 41/92/243 42/91/244
f 53/50/245 65/49/246 66/88/247 33/87/248
f 64/8/249 63/7/250 6/103/251 5/104/252
f 65/49/253 64/48/254 5/105/255 62/106/256
f 66/88/257 65/49/258 62/106/259 42/107/260
f 67/89/261 66/88/262 42/107/263 45/108/264
f 68/25/265 67/84/266 45/109/267 11/110/268
f 69/26/269 68/25/270 11/110/271 10/111/272
f 70/51/273 69/26/274 10/111/275 30/112/276
f 71/37/277 70/51/278 30/112/279 17/113/280
f 72/38/281 71/37/282 17/113/283 16/114/284
f 73/76/285 72/38/286 16/114/287 49/115/288
f 74/98/289 73/97/290 49/116/291 38/117/292
f 75/54/293 74/98/294 38/117/295 58/118/296
f 76/55/297 75/54/298 58/118/299 23/119/300
f 77/46/301 76/45/302 23/120/303 22/121/304
f 78/58/305 77/46/306 22/121/307 27/122/308
f 63/7/309 78/58/310 27/122/311 6/103/312
