# This file uses centimeters as units for non-parametric coordinates.

mtllib Cobble_archway_low.mtl
g default
v 1.678760 3.151877 0.361782
v 1.678761 3.201872 0.327021
v -0.007228 3.201872 0.327021
v -0.007228 3.151877 0.361782
v -0.011205 2.596218 0.361782
v 1.678760 2.882574 0.361782
v 1.736155 3.151877 0.327021
v 1.678761 3.201872 0.013012
v -0.007228 3.201872 0.013012
v -1.621250 3.201872 0.327021
v -1.621250 3.151877 0.361783
v -1.621250 2.882574 0.361783
v 0.109555 2.565514 0.361782
v 0.879483 2.741667 0.361783
v 1.678760 2.798510 0.361782
v 1.736155 2.882574 0.327021
v 1.736155 3.151877 0.013012
v 1.678761 3.201872 -0.298755
v -0.007228 3.201872 -0.298755
v -1.621250 3.201872 0.013012
v -1.671245 3.151877 0.327021
v -1.671245 2.882574 0.327021
v -1.621250 1.594804 0.361783
v -1.028937 1.562200 0.361783
v -0.893761 1.945431 0.361783
v -0.501463 2.291150 0.361782
v 1.728756 2.802065 0.327021
v 1.736155 2.882574 0.013012
v 1.736155 3.151877 -0.298755
v -1.621250 3.201872 -0.298755
v 1.678761 3.151877 -0.333517
v -0.007228 3.151877 -0.333517
v -1.671245 3.151877 0.013012
v -1.671245 2.882574 0.013012
v -1.671245 1.594804 0.327021
v -1.621250 0.272156 0.361783
v -1.028937 0.272156 0.361783
v 1.728756 2.802065 0.013012
v 1.736155 2.882574 -0.298755
v -1.671245 3.151877 -0.298755
v -1.621250 3.151877 -0.333517
v 1.678761 2.882574 -0.333517
v -0.007228 2.614096 -0.333517
v -1.671244 2.882574 -0.298755
v -1.671245 1.594804 0.013012
v -1.671245 0.272156 0.327021
v -1.621250 0.051867 0.361783
v -1.028937 0.051867 0.361783
v 1.728756 2.802065 -0.298755
v -1.621250 2.882574 -0.333517
v 0.109555 2.565514 -0.333517
v 1.678761 2.798510 -0.333517
v 0.879483 2.741667 -0.333517
v -1.671245 1.594804 -0.298755
v -1.671245 0.272156 0.013012
v -1.671245 0.067274 0.327021
v -1.621250 0.029929 0.327021
v -1.028937 0.029929 0.327021
v -0.501463 2.291150 -0.333517
v -0.893761 1.945431 -0.333517
v -1.028937 1.562200 -0.333517
v -1.621250 1.594804 -0.333517
v -1.671245 0.272156 -0.298755
v -1.671245 0.067274 0.013012
v -1.621250 0.029929 0.013012
v -1.028937 0.029929 0.013012
v -1.028937 0.272156 -0.333517
v -1.621250 0.272156 -0.333517
v -1.671245 0.067274 -0.298755
v -1.621250 0.017279 -0.298755
v -1.028937 0.017279 -0.298755
v -1.028937 0.051867 -0.333517
v -1.621250 0.051867 -0.333517
v 1.173329 2.402476 0.422795
v 1.149754 2.402476 -0.391244
v 1.174068 2.819684 0.422795
v 1.150494 2.819684 -0.391244
v 0.419120 2.346610 0.429588
v 0.418751 2.346510 -0.398037
v 0.554340 2.798100 0.427981
v 0.553900 2.798033 -0.396430
v -0.055840 2.183032 0.468019
v -0.205230 2.103746 -0.436468
v -0.255126 2.529167 0.468019
v -0.422270 2.431148 -0.436468
v -0.609016 1.738173 0.468019
v -0.652009 1.685971 -0.436468
v -0.839679 2.042890 0.468019
v -0.890193 1.981722 -0.436468
v -0.889635 1.179262 0.468019
v -0.937704 0.997434 -0.436468
v -1.180987 1.394575 0.468019
v -1.232070 1.181679 -0.436468
v -0.972937 0.417815 0.468019
v -0.985570 0.312319 -0.436468
v -1.293236 0.575147 0.468019
v -1.310918 0.452006 -0.436468
v 1.083106 2.851037 -0.452418
v 1.102432 2.851037 0.483969
v 0.590326 2.834805 -0.452418
v 0.590691 2.834853 0.483969
v 1.082499 2.371124 -0.452418
v 0.487967 2.331790 -0.452418
v 0.488267 2.331858 0.483969
v 1.101825 2.371124 0.483969
v 0.509179 2.819384 -0.452537
v 0.509583 2.819455 0.484087
v -0.385361 2.481753 -0.498243
v -0.244884 2.569334 0.529794
v 0.404907 2.313461 -0.452864
v -0.157204 2.096731 -0.498243
v -0.038993 2.166247 0.529794
v 0.405238 2.313555 0.484416
v -0.463746 2.441137 -0.511964
v -0.341379 2.526520 0.543515
v -0.859770 2.067340 -0.511964
v -0.816188 2.117246 0.543515
v -0.222284 2.051925 -0.511964
v -0.589811 1.712682 -0.511964
v -0.553689 1.754139 0.543515
v -0.119486 2.119915 0.543515
v -0.958554 1.935274 -0.499072
v -0.919308 1.986299 0.530623
v -1.269243 1.290889 -0.499072
v -1.190846 1.459736 0.530623
v -0.678079 1.610457 -0.499072
v -0.919644 1.068271 -0.499072
v -0.854842 1.209263 0.530623
v -0.645404 1.653031 0.530623
v -1.250386 1.143413 -0.498291
v -1.218374 1.322497 0.529842
v -1.326391 0.538163 -0.498291
v -1.308397 0.639851 0.529842
v -0.911669 0.945202 -0.498290
v -0.956137 0.389601 -0.498290
v -0.942882 0.474806 0.529842
v -0.881623 1.094757 0.529842
v -1.338804 0.387900 -0.499415
v -1.325007 0.495562 0.530967
v -0.964055 0.260876 -0.499416
v -0.954458 0.350944 0.530967
v 1.481388 2.402476 0.422795
v 1.473025 2.402476 -0.391244
v 1.464742 2.819684 -0.391244
v 1.473105 2.819684 0.422795
v 1.428064 2.864275 -0.478248
v 1.191083 2.864275 -0.478247
v 1.434310 2.357885 -0.478247
v 1.190526 2.357885 -0.478247
v 1.434370 2.864275 0.509799
v 1.208861 2.864275 0.509799
v 1.440616 2.357885 0.509799
v 1.208303 2.357885 0.509799
v 1.730509 2.868325 -0.486143
v 1.737010 2.868337 0.517695
v 1.497452 2.868322 -0.486143
v 1.503146 2.868322 0.517695
v 1.737566 2.353835 0.517695
v 1.731065 2.353825 -0.486143
v 1.508785 2.353839 0.517695
v 1.503092 2.353839 -0.486143
v -1.330884 0.180975 -0.454611
v -1.359003 0.257931 0.486163
v -0.948341 0.207525 0.486162
v -0.988610 0.144224 -0.454611
v -1.417736 0.002558 -0.499415
v -1.411801 0.030714 0.530967
v -0.913639 0.002631 -0.499416
v -0.907981 0.030786 0.530967
v -1.412342 0.171470 -0.499415
v -1.402406 0.236847 0.530967
v -0.900367 0.174904 0.530967
v -0.908323 0.117070 -0.499416
v -1.621250 2.287611 0.361783
v -1.671245 2.292436 0.327021
v -1.671245 2.271384 0.013012
v -1.671245 2.250485 -0.298755
v -1.621250 2.241000 -0.333517
v -1.028937 0.057866 0.361783
v -1.028937 0.054858 0.013135
v -1.028937 0.272156 0.014206
v -1.028937 1.562200 0.020564
v -0.893761 1.945431 0.016068
v -0.501463 2.291150 0.009512
v 0.109555 2.565514 0.001539
v 0.879483 2.741667 0.016712
v 1.678761 3.201872 -0.268228
v -0.007228 3.201872 -0.268227
v -1.621250 3.201872 -0.268227
v -1.671245 3.151877 -0.268227
v -1.671245 2.882574 -0.268227
v -1.671244 2.252531 -0.268228
v -1.671245 1.594804 -0.268227
v -1.671245 0.272156 -0.268227
v -1.671245 0.067274 -0.268227
v -1.621250 0.018518 -0.268228
v -1.028937 0.018518 -0.268227
v -1.028937 0.052160 -0.299573
v -1.028937 0.272156 -0.299468
v -1.028937 1.562200 -0.298846
v -0.893761 1.945431 -0.299286
v -0.501463 2.291150 -0.299928
v 0.109555 2.565514 -0.300708
v 0.879483 2.741667 -0.292581
v 1.728756 2.802065 -0.268228
v 1.736155 2.882574 -0.268228
v 1.736155 3.151877 -0.268228
v -1.028937 0.057359 0.303085
v -1.028937 0.272155 0.303265
v -1.028937 1.562200 0.304335
v -0.893760 1.945431 0.303578
v -0.501463 2.291150 0.302474
v 0.109555 2.565514 0.301132
v 0.879483 2.741667 0.315107
v 0.874467 2.809143 0.361783
v 0.883321 3.151877 0.361783
v 0.881679 3.201872 0.327021
v 0.887009 3.201872 0.013012
v 0.879592 3.201872 -0.268228
v 0.844825 3.201872 -0.298755
v 0.844065 3.151877 -0.333517
v 0.863479 2.856816 -0.333517
v -1.621250 1.922011 -0.333517
v -1.671245 1.924675 -0.298755
v -1.671245 1.928428 -0.268228
v -1.671245 1.962999 0.013012
v -1.671245 1.951183 0.327021
v -1.621250 1.944759 0.361783
v -0.602881 2.290048 0.361782
v -0.989181 1.945242 0.361783
v -1.100738 1.573140 0.361783
v -0.690245 2.278403 -0.333517
v -1.000322 1.939404 -0.333517
v -1.100869 1.570637 -0.333517
vt 0.464684 0.900872
vt 0.465167 0.890650
vt 0.614322 0.891092
vt 0.614365 0.901312
vt 0.403421 0.944284
vt 0.403999 0.991373
vt 0.281711 0.989688
vt 0.282259 0.913380
vt 0.464927 0.837776
vt 0.614306 0.838313
vt 0.882244 0.892670
vt 0.883489 0.902696
vt 0.059803 0.986733
vt 0.060331 0.949765
vt 0.513349 0.992734
vt 0.513602 0.955800
vt 0.522722 0.955963
vt 0.522636 0.992784
vt 0.333352 0.888649
vt 0.321001 0.890878
vt 0.318599 0.837116
vt 0.331425 0.836948
vt 0.466197 0.790572
vt 0.614511 0.791270
vt 0.885277 0.840665
vt 0.051434 0.986617
vt 0.051957 0.949651
vt 0.513837 0.944260
vt 0.522303 0.944896
vt 0.565624 0.955286
vt 0.566016 0.992451
vt 0.320589 0.788775
vt 0.333023 0.790376
vt 0.884312 0.793657
vt 0.472042 0.785460
vt 0.472153 0.775270
vt 0.614620 0.775924
vt 0.614548 0.786145
vt 0.897196 0.841061
vt 0.893559 0.895258
vt 0.008289 0.986002
vt 0.008802 0.949038
vt 0.061360 0.868151
vt 0.052950 0.868703
vt 0.053300 0.821987
vt 0.061774 0.821234
vt 0.565395 0.944176
vt 0.564911 0.501859
vt 0.565095 0.464839
vt 0.526550 0.464867
vt 0.526233 0.501780
vt 0.895797 0.792174
vt 0.885531 0.778618
vt 0.884035 0.788607
vt 0.398000 0.499127
vt 0.401565 0.458689
vt 0.282825 0.422659
vt 0.281130 0.496498
vt 0.008276 0.490757
vt 0.046898 0.491581
vt 0.047705 0.454633
vt 0.009073 0.453817
vt 0.009731 0.865156
vt 0.009874 0.822756
vt 0.061950 0.773511
vt 0.053376 0.773298
vt 0.055634 0.598402
vt 0.064036 0.599279
vt 0.063374 0.574625
vt 0.133141 0.551924
vt 0.133452 0.552718
vt 0.141413 0.584580
vt 0.565043 0.453705
vt 0.526360 0.453787
vt 0.522007 0.501741
vt 0.522403 0.464885
vt 0.513292 0.464639
vt 0.512705 0.501634
vt 0.060268 0.454868
vt 0.059449 0.491833
vt 0.010665 0.370139
vt 0.049395 0.368334
vt 0.049947 0.324099
vt 0.011176 0.328040
vt 0.051090 0.491664
vt 0.051900 0.454711
vt 0.009257 0.771799
vt 0.014447 0.587377
vt 0.057221 0.575668
vt 0.061599 0.570605
vt 0.130736 0.545771
vt 0.522094 0.453876
vt 0.513652 0.453113
vt 0.011296 0.277687
vt 0.049897 0.278703
vt 0.050001 0.103512
vt 0.012633 0.094978
vt 0.053606 0.368122
vt 0.062024 0.366960
vt 0.062650 0.323397
vt 0.054185 0.323649
vt 0.027583 0.553486
vt 0.033592 0.543832
vt 0.110217 0.507262
vt 0.052591 0.079029
vt 0.022870 0.062073
vt 0.054192 0.278785
vt 0.062764 0.278919
vt 0.062621 0.104854
vt 0.054200 0.104021
vt 0.028792 0.052286
vt 0.056562 0.072115
vt 0.124275 0.044556
vt 0.103000 0.007350
vt 0.139368 0.088347
vt 0.129845 0.055916
vt 0.061227 0.079623
vt 0.055326 0.080472
vt 0.058802 0.074786
vt 0.126503 0.048829
vt 0.720791 0.926019
vt 0.720793 0.931056
vt 0.655053 0.929706
vt 0.655050 0.925808
vt 0.820105 0.926320
vt 0.820121 0.931163
vt 0.776553 0.931100
vt 0.776581 0.926183
vt 0.331866 0.898576
vt 0.333298 0.785367
vt 0.321622 0.783175
vt 0.331974 0.775338
vt 0.894821 0.786521
vt 0.298893 0.909392
vt 0.404240 0.935030
vt 0.404123 0.442927
vt 0.299002 0.416352
vt 0.853993 0.926419
vt 0.853934 0.931213
vt 0.215503 0.870567
vt 0.201588 0.870224
vt 0.149357 0.822117
vt 0.162423 0.822299
vt 0.190106 0.374477
vt 0.148650 0.326847
vt 0.584153 0.928494
vt 0.588367 0.925628
vt 0.135430 0.770740
vt 0.145240 0.769041
vt 0.136413 0.275428
vt 0.961394 0.926664
vt 0.961342 0.931586
vt 0.250554 0.184766
vt 0.221358 0.213729
vt 0.282476 0.276877
vt 0.312510 0.247084
vt 0.386092 0.405932
vt 0.388574 0.276558
vt 0.456692 0.276459
vt 0.456828 0.405830
vt 0.275206 0.163530
vt 0.333918 0.222594
vt 0.411987 0.154800
vt 0.337914 0.105321
vt 0.685859 0.439612
vt 0.685115 0.530838
vt 0.627068 0.530346
vt 0.625962 0.439104
vt 0.350504 0.624527
vt 0.419666 0.681104
vt 0.332584 0.743320
vt 0.279696 0.678653
vt 0.470822 0.405827
vt 0.470690 0.276424
vt 0.602775 0.269832
vt 0.580646 0.411982
vt 0.355664 0.088648
vt 0.430996 0.137230
vt 0.526393 0.093748
vt 0.506337 0.018718
vt 0.741873 0.435621
vt 0.754153 0.535917
vt 0.695500 0.530969
vt 0.696240 0.439656
vt 0.498615 0.558375
vt 0.516388 0.635135
vt 0.440340 0.665408
vt 0.369838 0.609598
vt 0.598662 0.414239
vt 0.617848 0.268220
vt 0.693083 0.267554
vt 0.685264 0.413455
vt 0.534029 0.010539
vt 0.553161 0.087685
vt 0.639833 0.083090
vt 0.628448 0.006587
vt 0.809035 0.434904
vt 0.813021 0.537798
vt 0.764296 0.537163
vt 0.753727 0.434174
vt 0.637109 0.547966
vt 0.645276 0.625531
vt 0.546494 0.628573
vt 0.528010 0.550087
vt 0.709560 0.411537
vt 0.717052 0.269195
vt 0.815884 0.268332
vt 0.791409 0.410813
vt 0.665768 0.008916
vt 0.673399 0.082996
vt 0.770617 0.117028
vt 0.784118 0.046384
vt 0.871522 0.437000
vt 0.885214 0.537524
vt 0.827390 0.536703
vt 0.823719 0.436314
vt 0.771941 0.587048
vt 0.758623 0.658774
vt 0.679399 0.626836
vt 0.674995 0.551873
vt 0.811874 0.411063
vt 0.837449 0.269096
vt 0.921726 0.269377
vt 0.907003 0.411376
vt 0.810047 0.068164
vt 0.795854 0.134771
vt 0.872291 0.194038
vt 0.896539 0.129193
vt 0.945036 0.437645
vt 0.952613 0.537878
vt 0.898311 0.537444
vt 0.884345 0.437147
vt 0.893790 0.678480
vt 0.867354 0.743094
vt 0.785399 0.672079
vt 0.800694 0.602985
vt 0.928078 0.411711
vt 0.943469 0.269396
vt 0.972077 0.275594
vt 0.961260 0.405613
vt 0.924828 0.147986
vt 0.898667 0.211472
vt 0.917978 0.222217
vt 0.951797 0.172975
vt 0.375290 0.397478
vt 0.378301 0.285004
vt 0.463854 0.284185
vt 0.463960 0.398085
vt 0.267827 0.178516
vt 0.318886 0.229844
vt 0.420668 0.141975
vt 0.350212 0.100438
vt 0.692703 0.444969
vt 0.692054 0.525598
vt 0.619877 0.524338
vt 0.618315 0.445012
vt 0.363247 0.620844
vt 0.429566 0.669143
vt 0.316443 0.749450
vt 0.270444 0.693250
vt 0.611447 0.278348
vt 0.586795 0.403746
vt 0.537161 0.085387
vt 0.521600 0.019022
vt 0.744843 0.441346
vt 0.758870 0.529890
vt 0.511296 0.560997
vt 0.526097 0.628930
vt 0.705691 0.277918
vt 0.696000 0.402986
vt 0.656592 0.077729
vt 0.648112 0.012380
vt 0.814612 0.442284
vt 0.819686 0.530505
vt 0.654935 0.554227
vt 0.661012 0.620476
vt 0.831489 0.277569
vt 0.800742 0.402410
vt 0.785811 0.123963
vt 0.797468 0.064838
vt 0.876015 0.443087
vt 0.892464 0.531577
vt 0.783783 0.597541
vt 0.772120 0.659516
vt 0.933746 0.278022
vt 0.916288 0.402947
vt 0.888981 0.200557
vt 0.909414 0.142612
vt 0.951294 0.443689
vt 0.960714 0.531914
vt 0.904215 0.690353
vt 0.881980 0.748356
vt 0.958069 0.437573
vt 0.966176 0.538021
vt 0.921055 0.698034
vt 0.892269 0.761007
vt 0.286688 0.042190
vt 0.160544 0.040778
vt 0.163691 0.014487
vt 0.283770 0.015735
vt 0.159820 0.105430
vt 0.285964 0.106842
vt 0.282465 0.132617
vt 0.162388 0.131176
vt 0.220455 0.838276
vt 0.164030 0.768724
vt 0.195618 0.743044
vt 0.251354 0.813152
vt 0.258764 0.300997
vt 0.196683 0.236828
vt 0.167926 0.265266
vt 0.230636 0.328817
vt 0.336215 0.409378
vt 0.337313 0.272872
vt 0.370054 0.272926
vt 0.367371 0.409429
vt 0.590239 0.532685
vt 0.590147 0.436421
vt 0.612780 0.436544
vt 0.613990 0.532814
vt 0.277389 0.791361
vt 0.222492 0.722385
vt 0.252902 0.697563
vt 0.308718 0.765790
vt 0.215047 0.230714
vt 0.265251 0.282898
vt 0.328100 0.397326
vt 0.329288 0.284860
vt 0.584513 0.524190
vt 0.584231 0.444878
vt 0.259493 0.795800
vt 0.214436 0.738823
vt 0.320135 0.410397
vt 0.321252 0.271710
vt 0.578925 0.533426
vt 0.578806 0.435624
vt 0.972028 0.442025
vt 0.977839 0.533788
vt 0.954772 0.723920
vt 0.909958 0.780302
vt 0.161929 0.550964
vt 0.303743 0.551614
vt 0.303025 0.620964
vt 0.161211 0.620276
vt 0.161276 0.522582
vt 0.303210 0.528369
vt 0.992553 0.748466
vt 0.929998 0.809935
vt 0.911467 0.792973
vt 0.966233 0.724022
vt 0.302515 0.636718
vt 0.160568 0.640121
vt 0.966569 0.166283
vt 0.916780 0.238810
vt 0.932453 0.251041
vt 0.989424 0.184660
vt 0.983969 0.270567
vt 0.967472 0.412259
vt 0.977415 0.437337
vt 0.986418 0.537481
vt 0.215976 0.376811
vt 0.981471 0.955811
vt 0.979348 0.955790
vt 0.979220 0.931689
vt 0.979210 0.926783
vt 0.979687 0.926795
vt 0.981547 0.929687
vt 0.982314 0.979250
vt 0.979530 0.981831
vt 0.961270 0.955674
vt 0.961194 0.981777
vt 0.853848 0.954811
vt 0.853763 0.981412
vt 0.820055 0.955101
vt 0.819950 0.981360
vt 0.776473 0.955510
vt 0.776465 0.981277
vt 0.720719 0.956022
vt 0.720689 0.981171
vt 0.655001 0.954515
vt 0.654911 0.980302
vt 0.584081 0.954617
vt 0.584047 0.978073
vt 0.979526 0.984639
vt 0.982451 0.981746
vt 0.961191 0.984585
vt 0.853769 0.984258
vt 0.819942 0.984150
vt 0.776457 0.984065
vt 0.720667 0.983901
vt 0.654924 0.983709
vt 0.588148 0.983486
vt 0.584033 0.980584
vt 0.163235 0.328003
vt 0.146228 0.274168
vn 0.000000 0.080548 0.996751
vn 0.000000 0.989876 0.141937
vn 0.000000 0.989895 0.141804
vn 0.000000 0.073100 0.997325
vn 0.000000 0.000000 1.000000
vn 0.000000 0.080548 0.996751
vn 0.000000 0.073100 0.997325
vn 0.000000 0.000000 1.000000
vn 0.000000 0.989876 0.141937
vn 0.000000 1.000000 0.000000
vn 0.000000 1.000000 0.000000
vn 0.000000 0.989895 0.141804
vn 0.000000 0.989895 0.141804
vn 0.000000 0.570868 0.821042
vn 0.000000 0.570868 0.821042
vn 0.000000 0.073100 0.997325
vn 0.000000 0.073100 0.997325
vn 0.000000 0.570868 0.821042
vn -0.022254 0.000000 0.999752
vn 0.000000 0.000000 1.000000
vn 0.570865 0.000000 0.821044
vn 0.036346 -0.000382 0.999339
vn 0.987069 -0.019800 0.159070
vn 0.570865 0.000000 0.821044
vn 0.000000 0.570868 0.821042
vn 0.570865 0.000000 0.821044
vn 0.984226 0.176917 0.000000
vn 0.058558 0.998284 0.000000
vn 0.000000 1.000000 0.000000
vn 0.000000 1.000000 0.000000
vn 0.000000 1.000000 0.000000
vn 0.000000 1.000000 0.000000
vn 0.000000 0.989895 0.141804
vn 0.000000 1.000000 0.000000
vn -0.030031 0.999549 0.000000
vn 0.000000 0.570868 0.821042
vn 0.000000 0.570868 0.821042
vn -0.570866 0.000000 0.821043
vn -0.990048 0.000000 0.140727
vn -0.022254 0.000000 0.999752
vn 0.036346 -0.000382 0.999339
vn 0.276751 0.000000 0.960942
vn 0.859104 0.000000 0.511802
vn 0.987069 -0.019800 0.159070
vn 0.570865 0.000000 0.821044
vn 0.987069 -0.019800 0.159070
vn 0.999776 -0.021148 0.000000
vn 0.984226 0.176917 0.000000
vn 0.058558 0.998284 0.000000
vn 0.984226 0.176917 0.000000
vn 0.984226 0.176917 0.000000
vn 0.058379 0.998295 0.000000
vn 0.000000 1.000000 0.000000
vn 0.000000 1.000000 0.000000
vn -0.030031 0.999549 0.000000
vn -0.030031 0.999549 0.000000
vn 0.000000 0.796283 -0.604924
vn 0.000000 0.085596 -0.996330
vn 0.000000 0.075347 -0.997157
vn 0.000000 0.794945 -0.606681
vn 0.000000 0.570868 0.821042
vn -0.030031 0.999549 0.000000
vn -0.987963 0.154692 0.000000
vn -0.570866 0.000000 0.821043
vn -0.570866 0.000000 0.821043
vn -0.987963 0.154692 0.000000
vn -1.000000 0.000000 -0.000000
vn -0.990048 0.000000 0.140727
vn -0.033258 0.000000 0.999447
vn -0.989690 0.000000 0.143226
vn -0.989712 0.000000 0.143073
vn -0.045870 0.000000 0.998947
vn 0.987069 -0.019800 0.159070
vn 0.859104 0.000000 0.511802
vn 1.000000 0.000000 0.000000
vn 0.999776 -0.021148 0.000000
vn 0.984226 0.176917 0.000000
vn 0.999776 -0.021148 0.000000
vn 0.999776 -0.021148 0.000000
vn 0.984226 0.176917 0.000000
vn -0.030031 0.999549 0.000000
vn -0.030031 0.999549 0.000000
vn -0.987963 0.154692 0.000000
vn -0.987963 0.154692 0.000000
vn 0.000000 0.794945 -0.606681
vn 0.000000 0.075347 -0.997157
vn 0.000000 0.570871 -0.821040
vn 0.000000 0.570871 -0.821040
vn 0.000000 0.085596 -0.996330
vn 0.000000 0.000000 -1.000000
vn 0.000000 0.000000 -1.000000
vn 0.000000 0.075347 -0.997157
vn -0.987963 0.154692 0.000000
vn -0.987963 0.154692 0.000000
vn -1.000000 0.000000 -0.000000
vn -1.000000 0.000000 -0.000000
vn -0.989690 0.000000 0.143226
vn -1.000000 0.000000 0.000000
vn -1.000000 0.000000 0.000000
vn -0.989712 0.000000 0.143073
vn -0.057686 0.000000 0.998335
vn -0.989979 0.000000 0.141218
vn -0.989791 0.000000 0.142527
vn -0.056878 0.000000 0.998381
vn -0.056878 0.000000 0.998381
vn 0.000000 -0.570868 0.821042
vn 0.000000 -0.461182 0.887306
vn 0.081846 0.000000 0.996645
vn -0.174253 0.000000 0.984701
vn 0.999776 -0.021148 0.000000
vn 1.000000 0.000000 0.000000
vn 0.152151 -0.988357 0.000000
vn 0.999776 -0.021148 0.000000
vn 0.570867 0.000000 -0.821043
vn 0.756878 -0.011576 -0.653454
vn 0.036287 -0.000382 -0.999341
vn 0.570867 0.000000 -0.821043
vn 0.000000 0.075347 -0.997157
vn 0.000000 0.000000 -1.000000
vn -0.023208 0.000000 -0.999731
vn 0.000000 0.570871 -0.821040
vn -1.000000 0.000000 0.000000
vn -1.000000 0.000000 -0.000001
vn -1.000000 0.000000 0.000000
vn -1.000000 0.000000 0.000000
vn -0.707105 0.707108 0.000000
vn 0.000000 0.570871 -0.821040
vn -0.023208 0.000000 -0.999731
vn -0.793084 0.000000 -0.609113
vn -0.989979 0.000000 0.141218
vn -1.000000 0.000000 0.000000
vn -1.000000 0.000000 0.000000
vn -0.989791 0.000000 0.142527
vn -0.056878 0.000000 0.998381
vn -0.989791 0.000000 0.142527
vn -0.570866 0.000000 0.821043
vn 0.000000 -0.570868 0.821042
vn 0.000000 -0.570868 0.821042
vn 0.000000 -0.570868 0.821042
vn 0.000000 -0.681062 0.732226
vn 0.000000 -0.461182 0.887306
vn 0.756878 -0.011576 -0.653454
vn 0.859105 0.000000 -0.511800
vn 0.276752 0.000000 -0.960941
vn 0.036287 -0.000382 -0.999341
vn -1.000000 0.000000 0.000000
vn -1.000000 0.000000 0.000000
vn -1.000000 0.000000 0.000000
vn -1.000000 0.000000 0.000000
vn -0.787280 0.000000 -0.616595
vn -0.034012 0.000000 -0.999421
vn -0.046963 0.000000 -0.998897
vn -0.795316 0.000000 -0.606195
vn -0.989791 0.000000 0.142527
vn -1.000000 0.000000 0.000000
vn -0.979794 -0.200002 0.001917
vn -0.570866 0.000000 0.821043
vn 0.000000 -0.570868 0.821042
vn -0.062658 -0.997866 0.018386
vn -0.246647 -0.969105 0.000000
vn 0.000000 -0.681062 0.732226
vn -1.000000 0.000000 0.000000
vn -1.000000 0.000000 0.000000
vn -0.980356 -0.197195 0.004001
vn -0.979794 -0.200002 0.001917
vn -0.794226 0.000000 -0.607622
vn -0.057629 0.000000 -0.998338
vn -0.056928 0.000000 -0.998378
vn -0.793270 0.000000 -0.608870
vn -0.570866 0.000000 0.821043
vn -0.979794 -0.200002 0.001917
vn -0.062658 -0.997866 0.018386
vn 0.000000 -0.570868 0.821042
vn -0.062658 -0.997866 0.018386
vn -0.066910 -0.997001 0.038900
vn 0.072327 -0.996561 0.040436
vn -0.246647 -0.969105 0.000000
vn -0.174254 0.000000 -0.984701
vn 0.000000 -0.461184 -0.887305
vn 0.000000 -0.570871 -0.821040
vn -0.056928 0.000000 -0.998378
vn -0.979794 -0.200002 0.001917
vn -0.980356 -0.197195 0.004001
vn -0.066910 -0.997001 0.038900
vn -0.062658 -0.997866 0.018386
vn -0.793270 0.000000 -0.608870
vn -0.056928 0.000000 -0.998378
vn 0.000000 -0.570871 -0.821040
vn -0.570868 0.000000 -0.821042
vn 0.000000 -0.570871 -0.821040
vn 0.000000 -0.570871 -0.821040
vn 0.000000 -0.461184 -0.887305
vn 0.000000 -0.681064 -0.732224
vn 0.000000 0.000000 1.000000
vn 0.310300 -0.950639 0.000000
vn 0.144734 -0.989471 0.000000
vn 0.147420 -0.989074 0.000000
vn 0.828840 -0.559486 0.000000
vn 0.809074 -0.587707 0.000000
vn 0.524536 -0.851388 0.000000
vn 0.541488 -0.840708 0.000000
vn 0.570865 0.000000 0.821044
vn 0.570865 0.000000 0.821044
vn 0.000000 0.570868 0.821042
vn 0.000000 0.570868 0.821042
vn -0.570866 0.000000 0.821043
vn 0.000000 0.570868 0.821042
vn 0.707105 0.707109 0.000000
vn 0.570867 0.000000 -0.821043
vn 0.570867 0.000000 -0.821043
vn 0.000000 0.570871 -0.821040
vn 0.000000 0.570871 -0.821040
vn -0.707105 0.707108 0.000000
vn 0.000000 -0.570868 0.821042
vn -0.570866 0.000000 0.821043
vn 0.000000 -0.570868 0.821042
vn -0.570868 0.000000 -0.821042
vn 0.000000 -0.570871 -0.821040
vn 0.000000 -0.570871 -0.821040
vn 0.000000 0.000000 1.000000
vn 0.000000 0.000000 1.000000
vn 0.147420 -0.989074 0.000000
vn 0.000000 0.000000 1.000000
vn 0.000000 0.000000 -1.000000
vn 0.147420 -0.989074 0.000000
vn 0.000000 0.000000 -1.000000
vn 0.000000 0.000000 -1.000000
vn 0.000000 0.000000 1.000000
vn 0.541488 -0.840708 0.000000
vn 0.524536 -0.851388 0.000000
vn 0.310300 -0.950639 0.000000
vn 0.943053 -0.332641 0.000000
vn 0.996768 -0.080330 0.000000
vn 0.809074 -0.587707 0.000000
vn 0.828840 -0.559486 0.000000
vn 0.541488 -0.840708 0.000000
vn 0.000000 0.000000 1.000000
vn 0.000000 0.000000 1.000000
vn 0.828840 -0.559486 0.000000
vn -0.034012 0.000000 -0.999421
vn 0.000000 0.000000 -1.000000
vn 0.000000 0.000000 -1.000000
vn -0.046963 0.000000 -0.998897
vn 0.147420 -0.989074 0.000000
vn 0.144734 -0.989471 0.000000
vn 0.859104 0.000000 0.511802
vn 0.276751 0.000000 0.960942
vn 0.000000 0.000000 1.000000
vn -0.174253 0.000000 0.984701
vn 0.943053 -0.332641 0.000000
vn 0.000000 0.000000 -1.000000
vn -0.174254 0.000000 -0.984701
vn -0.056928 0.000000 -0.998378
vn -0.057629 0.000000 -0.998338
vn -0.174253 0.000000 0.984701
vn 1.000000 0.000000 0.000000
vn 0.996768 -0.080330 0.000000
vn 0.943053 -0.332641 0.000000
vn -0.161142 0.859510 -0.485053
vn 0.155328 0.862674 -0.481318
vn 0.154644 -0.870868 -0.466555
vn -0.158126 -0.865762 -0.474819
vn 0.039672 0.860848 0.507314
vn 0.036587 0.873022 -0.486306
vn -0.079736 0.834455 -0.545277
vn -0.078881 0.826179 0.557858
vn 0.036587 0.873022 -0.486306
vn 0.108573 -0.890033 -0.442779
vn 0.004642 -0.924685 -0.380704
vn -0.079736 0.834455 -0.545277
vn 0.004670 -0.920676 0.390300
vn 0.004642 -0.924685 -0.380704
vn 0.108573 -0.890033 -0.442779
vn 0.110097 -0.880377 0.461319
vn -0.078881 0.826179 0.557858
vn 0.004670 -0.920676 0.390300
vn 0.110097 -0.880377 0.461319
vn 0.039672 0.860848 0.507314
vn -0.278225 0.938816 0.203015
vn -0.274173 0.923397 -0.268640
vn -0.334029 0.854334 -0.398169
vn -0.335176 0.905957 0.258647
vn -0.274173 0.923397 -0.268640
vn 0.327194 -0.704867 -0.629370
vn 0.253698 -0.736462 -0.627106
vn -0.334029 0.854334 -0.398169
vn 0.289094 -0.812588 0.506088
vn 0.253698 -0.736462 -0.627106
vn 0.327194 -0.704867 -0.629370
vn 0.348388 -0.753875 0.557045
vn -0.335176 0.905957 0.258647
vn 0.289094 -0.812588 0.506088
vn 0.348388 -0.753875 0.557045
vn -0.278225 0.938816 0.203015
vn -0.548846 0.732242 0.403224
vn -0.598913 0.742950 -0.298880
vn -0.665926 0.639747 -0.383752
vn -0.650480 0.639804 0.409300
vn -0.598913 0.742950 -0.298880
vn 0.636205 -0.658740 -0.401627
vn 0.558144 -0.729246 -0.395822
vn -0.665926 0.639747 -0.383752
vn 0.559078 -0.717506 0.415473
vn 0.558144 -0.729246 -0.395822
vn 0.636205 -0.658740 -0.401627
vn 0.614130 -0.611850 0.498481
vn -0.650480 0.639804 0.409300
vn 0.559078 -0.717506 0.415473
vn 0.614130 -0.611850 0.498481
vn -0.548846 0.732242 0.403224
vn -0.827154 0.489791 0.275537
vn -0.829567 0.477884 -0.288870
vn -0.852027 0.334432 -0.402746
vn -0.870434 0.378036 0.315330
vn -0.829567 0.477884 -0.288870
vn 0.798872 -0.335809 -0.499035
vn 0.790664 -0.414885 -0.450245
vn -0.852027 0.334432 -0.402746
vn 0.849520 -0.426934 0.309908
vn 0.790664 -0.414885 -0.450245
vn 0.798872 -0.335809 -0.499035
vn 0.824918 -0.344461 0.448171
vn -0.870434 0.378036 0.315330
vn 0.849520 -0.426934 0.309908
vn 0.824918 -0.344461 0.448171
vn -0.827154 0.489791 0.275537
vn -0.934187 0.175966 0.310371
vn -0.961897 0.159530 -0.222047
vn -0.927584 0.075105 -0.365988
vn -0.919626 0.085078 0.383470
vn -0.961897 0.159530 -0.222047
vn 0.918806 -0.053822 -0.391023
vn 0.935513 -0.141734 -0.323617
vn -0.927584 0.075105 -0.365988
vn 0.944878 -0.131133 0.300016
vn 0.935513 -0.141734 -0.323617
vn 0.918806 -0.053822 -0.391023
vn 0.877040 -0.036679 0.479015
vn -0.919626 0.085078 0.383470
vn 0.944878 -0.131133 0.300016
vn 0.877040 -0.036679 0.479015
vn -0.934187 0.175966 0.310371
vn -0.918155 0.151993 0.365910
vn -0.948850 0.140553 -0.282715
vn -0.881459 0.369685 -0.293877
vn -0.889425 0.374323 0.262308
vn -0.948850 0.140553 -0.282715
vn 0.852494 -0.006839 -0.522692
vn 0.844172 0.382633 -0.375454
vn -0.881459 0.369685 -0.293877
vn -0.287061 0.882050 0.373610
vn -0.264531 0.889107 -0.373512
vn 0.036587 0.873022 -0.486306
vn 0.039672 0.860848 0.507314
vn -0.233879 0.893960 -0.382277
vn -0.234251 0.893972 0.382023
vn -0.078881 0.826179 0.557858
vn -0.079736 0.834455 -0.545277
vn -0.264531 0.889107 -0.373512
vn -0.263629 -0.889309 -0.373670
vn 0.108573 -0.890033 -0.442779
vn 0.036587 0.873022 -0.486306
vn 0.325850 -0.884548 -0.333761
vn -0.233879 0.893960 -0.382277
vn -0.079736 0.834455 -0.545277
vn 0.004642 -0.924685 -0.380704
vn 0.325543 -0.884703 0.333651
vn 0.325850 -0.884548 -0.333761
vn 0.004642 -0.924685 -0.380704
vn 0.004670 -0.920676 0.390300
vn -0.263629 -0.889309 -0.373670
vn -0.286182 -0.882261 0.373786
vn 0.110097 -0.880377 0.461319
vn 0.108573 -0.890033 -0.442779
vn -0.234251 0.893972 0.382023
vn 0.325543 -0.884703 0.333651
vn 0.004670 -0.920676 0.390300
vn -0.078881 0.826179 0.557858
vn -0.286182 -0.882261 0.373786
vn -0.287061 0.882050 0.373610
vn 0.039672 0.860848 0.507314
vn 0.110097 -0.880377 0.461319
vn -0.234251 0.893972 0.382023
vn -0.233879 0.893960 -0.382277
vn -0.274173 0.923397 -0.268640
vn -0.278225 0.938816 0.203015
vn -0.286402 0.912845 -0.291013
vn -0.424742 0.836513 0.346179
vn -0.335176 0.905957 0.258647
vn -0.334029 0.854334 -0.398169
vn -0.233879 0.893960 -0.382277
vn 0.325850 -0.884548 -0.333761
vn 0.327194 -0.704867 -0.629370
vn -0.274173 0.923397 -0.268640
vn 0.575660 -0.754213 -0.315876
vn -0.286402 0.912845 -0.291013
vn -0.334029 0.854334 -0.398169
vn 0.253698 -0.736462 -0.627106
vn 0.446035 -0.808844 0.383176
vn 0.575660 -0.754213 -0.315876
vn 0.253698 -0.736462 -0.627106
vn 0.289094 -0.812588 0.506088
vn 0.325850 -0.884548 -0.333761
vn 0.325543 -0.884703 0.333651
vn 0.348388 -0.753875 0.557045
vn 0.327194 -0.704867 -0.629370
vn -0.424742 0.836513 0.346179
vn 0.446035 -0.808844 0.383176
vn 0.289094 -0.812588 0.506088
vn -0.335176 0.905957 0.258647
vn 0.325543 -0.884703 0.333651
vn -0.234251 0.893972 0.382023
vn -0.278225 0.938816 0.203015
vn 0.348388 -0.753875 0.557045
vn -0.424742 0.836513 0.346179
vn -0.286402 0.912845 -0.291013
vn -0.598913 0.742950 -0.298880
vn -0.548846 0.732242 0.403224
vn -0.787848 0.548851 -0.279388
vn -0.807900 0.517613 0.281736
vn -0.650480 0.639804 0.409300
vn -0.665926 0.639747 -0.383752
vn -0.286402 0.912845 -0.291013
vn 0.575660 -0.754213 -0.315876
vn 0.636205 -0.658740 -0.401627
vn -0.598913 0.742950 -0.298880
vn 0.691559 -0.635014 -0.344243
vn -0.787848 0.548851 -0.279388
vn -0.665926 0.639747 -0.383752
vn 0.558144 -0.729246 -0.395822
vn 0.655992 -0.659896 0.366350
vn 0.691559 -0.635014 -0.344243
vn 0.558144 -0.729246 -0.395822
vn 0.559078 -0.717506 0.415473
vn 0.575660 -0.754213 -0.315876
vn 0.446035 -0.808844 0.383176
vn 0.614130 -0.611850 0.498481
vn 0.636205 -0.658740 -0.401627
vn -0.807900 0.517613 0.281736
vn 0.655992 -0.659896 0.366350
vn 0.559078 -0.717506 0.415473
vn -0.650480 0.639804 0.409300
vn 0.446035 -0.808844 0.383176
vn -0.424742 0.836513 0.346179
vn -0.548846 0.732242 0.403224
vn 0.614130 -0.611850 0.498481
vn -0.807900 0.517613 0.281736
vn -0.787848 0.548851 -0.279388
vn -0.829567 0.477884 -0.288870
vn -0.827154 0.489791 0.275537
vn -0.973329 0.045704 -0.224815
vn -0.958272 -0.051133 0.281248
vn -0.870434 0.378036 0.315330
vn -0.852027 0.334432 -0.402746
vn -0.787848 0.548851 -0.279388
vn 0.691559 -0.635014 -0.344243
vn 0.798872 -0.335809 -0.499035
vn -0.829567 0.477884 -0.288870
vn 0.963409 0.015961 -0.267561
vn -0.973329 0.045704 -0.224815
vn -0.852027 0.334432 -0.402746
vn 0.790664 -0.414885 -0.450245
vn 0.950808 -0.096020 0.294526
vn 0.963409 0.015961 -0.267561
vn 0.790664 -0.414885 -0.450245
vn 0.849520 -0.426934 0.309908
vn 0.691559 -0.635014 -0.344243
vn 0.655992 -0.659896 0.366350
vn 0.824918 -0.344461 0.448171
vn 0.798872 -0.335809 -0.499035
vn -0.958272 -0.051133 0.281248
vn 0.950808 -0.096020 0.294526
vn 0.849520 -0.426934 0.309908
vn -0.870434 0.378036 0.315330
vn 0.655992 -0.659896 0.366350
vn -0.807900 0.517613 0.281736
vn -0.827154 0.489791 0.275537
vn 0.824918 -0.344461 0.448171
vn -0.958272 -0.051133 0.281248
vn -0.973329 0.045704 -0.224815
vn -0.961897 0.159530 -0.222047
vn -0.934187 0.175966 0.310371
vn -0.958155 0.090867 -0.271445
vn -0.965440 0.037753 0.257878
vn -0.919626 0.085078 0.383470
vn -0.927584 0.075105 -0.365988
vn -0.973329 0.045704 -0.224815
vn 0.963409 0.015961 -0.267561
vn 0.918806 -0.053822 -0.391023
vn -0.961897 0.159530 -0.222047
vn 0.952856 0.002835 -0.303408
vn -0.958155 0.090867 -0.271445
vn -0.927584 0.075105 -0.365988
vn 0.935513 -0.141734 -0.323617
vn 0.954146 -0.053310 0.294558
vn 0.952856 0.002835 -0.303408
vn 0.935513 -0.141734 -0.323617
vn 0.944878 -0.131133 0.300016
vn 0.963409 0.015961 -0.267561
vn 0.950808 -0.096020 0.294526
vn 0.877040 -0.036679 0.479015
vn 0.918806 -0.053822 -0.391023
vn -0.965440 0.037753 0.257878
vn 0.954146 -0.053310 0.294558
vn 0.944878 -0.131133 0.300016
vn -0.919626 0.085078 0.383470
vn 0.950808 -0.096020 0.294526
vn -0.958272 -0.051133 0.281248
vn -0.934187 0.175966 0.310371
vn 0.877040 -0.036679 0.479015
vn -0.965440 0.037753 0.257878
vn -0.958155 0.090867 -0.271445
vn -0.948850 0.140553 -0.282715
vn -0.918155 0.151993 0.365910
vn -0.958155 0.090867 -0.271445
vn 0.952856 0.002835 -0.303408
vn 0.852494 -0.006839 -0.522692
vn -0.948850 0.140553 -0.282715
vn 0.952856 0.002835 -0.303408
vn 0.954146 -0.053310 0.294558
vn 0.765830 -0.012083 0.642930
vn 0.852494 -0.006839 -0.522692
vn 0.954146 -0.053310 0.294558
vn -0.965440 0.037753 0.257878
vn -0.918155 0.151993 0.365910
vn 0.765830 -0.012083 0.642930
vn 0.892496 0.404282 0.200017
vn 0.889314 0.406167 -0.210116
vn -0.169550 0.871902 -0.459391
vn -0.166861 0.873769 0.456821
vn 0.893223 -0.397162 -0.210748
vn 0.896384 -0.395285 0.200613
vn -0.167197 -0.867258 0.468944
vn -0.169755 -0.865345 -0.471552
vn 0.896384 -0.395285 0.200613
vn 0.892496 0.404282 0.200017
vn -0.166861 0.873769 0.456821
vn -0.167197 -0.867258 0.468944
vn -0.169755 -0.865345 -0.471552
vn -0.169550 0.871902 -0.459391
vn 0.889314 0.406167 -0.210116
vn 0.893223 -0.397162 -0.210748
vn 0.159431 0.869032 0.468365
vn 0.155328 0.862674 -0.481318
vn -0.161142 0.859510 -0.485053
vn -0.155485 0.874460 0.459505
vn 0.154644 -0.870868 -0.466555
vn 0.158697 -0.876834 0.453848
vn -0.152432 -0.880214 0.449431
vn -0.158126 -0.865762 -0.474819
vn 0.158697 -0.876834 0.453848
vn 0.159431 0.869032 0.468365
vn -0.155485 0.874460 0.459505
vn -0.152432 -0.880214 0.449431
vn -0.110105 0.922185 -0.370745
vn -0.124502 -0.919664 -0.372448
vn 0.154644 -0.870868 -0.466555
vn 0.155328 0.862674 -0.481318
vn -0.263629 -0.889309 -0.373670
vn -0.264531 0.889107 -0.373512
vn -0.161142 0.859510 -0.485053
vn -0.158126 -0.865762 -0.474819
vn -0.122935 0.921612 0.368128
vn -0.110105 0.922185 -0.370745
vn 0.155328 0.862674 -0.481318
vn 0.159431 0.869032 0.468365
vn -0.264531 0.889107 -0.373512
vn -0.287061 0.882050 0.373610
vn -0.155485 0.874460 0.459505
vn -0.161142 0.859510 -0.485053
vn -0.124502 -0.919664 -0.372448
vn -0.137220 -0.918935 0.369769
vn 0.158697 -0.876834 0.453848
vn 0.154644 -0.870868 -0.466555
vn -0.286182 -0.882261 0.373786
vn -0.263629 -0.889309 -0.373670
vn -0.158126 -0.865762 -0.474819
vn -0.152432 -0.880214 0.449431
vn -0.137220 -0.918935 0.369769
vn -0.122935 0.921612 0.368128
vn 0.159431 0.869032 0.468365
vn 0.158697 -0.876834 0.453848
vn -0.287061 0.882050 0.373610
vn -0.286182 -0.882261 0.373786
vn -0.152432 -0.880214 0.449431
vn -0.155485 0.874460 0.459505
vn -0.110105 0.922185 -0.370745
vn -0.122935 0.921612 0.368128
vn -0.166861 0.873769 0.456821
vn -0.169550 0.871902 -0.459391
vn -0.137220 -0.918935 0.369769
vn -0.124502 -0.919664 -0.372448
vn -0.169755 -0.865345 -0.471552
vn -0.167197 -0.867258 0.468944
vn -0.122935 0.921612 0.368128
vn -0.137220 -0.918935 0.369769
vn -0.167197 -0.867258 0.468944
vn -0.166861 0.873769 0.456821
vn -0.124502 -0.919664 -0.372448
vn -0.110105 0.922185 -0.370745
vn -0.169550 0.871902 -0.459391
vn -0.169755 -0.865345 -0.471552
vn 0.892496 0.404282 0.200017
vn 0.896384 -0.395285 0.200613
vn 0.893223 -0.397162 -0.210748
vn 0.889314 0.406167 -0.210116
vn 0.855906 0.399158 0.328782
vn 0.844172 0.382633 -0.375454
vn 0.852494 -0.006839 -0.522692
vn 0.765830 -0.012083 0.642930
vn -0.889425 0.374323 0.262308
vn 0.855906 0.399158 0.328782
vn 0.765830 -0.012083 0.642930
vn -0.918155 0.151993 0.365910
vn -0.351592 -0.918490 0.180994
vn -0.347043 -0.932472 -0.100288
vn 0.239414 -0.964694 -0.109760
vn 0.245888 -0.950477 0.190087
vn -0.879460 0.241734 0.410019
vn -0.916835 0.243147 -0.316691
vn -0.347043 -0.932472 -0.100288
vn -0.351592 -0.918490 0.180994
vn -0.351592 -0.918490 0.180994
vn 0.245888 -0.950477 0.190087
vn 0.817530 0.231169 0.527453
vn -0.879460 0.241734 0.410019
vn 0.245888 -0.950477 0.190087
vn 0.239414 -0.964694 -0.109760
vn 0.866847 0.233232 -0.440658
vn 0.817530 0.231169 0.527453
vn -0.916835 0.243147 -0.316691
vn 0.866847 0.233232 -0.440658
vn 0.239414 -0.964694 -0.109760
vn -0.347043 -0.932472 -0.100288
vn -0.889425 0.374323 0.262308
vn -0.881459 0.369685 -0.293877
vn -0.916835 0.243147 -0.316691
vn -0.879460 0.241734 0.410019
vn 0.855906 0.399158 0.328782
vn -0.889425 0.374323 0.262308
vn -0.879460 0.241734 0.410019
vn 0.817530 0.231169 0.527453
vn 0.844172 0.382633 -0.375454
vn 0.855906 0.399158 0.328782
vn 0.817530 0.231169 0.527453
vn 0.866847 0.233232 -0.440658
vn -0.881459 0.369685 -0.293877
vn 0.844172 0.382633 -0.375454
vn 0.866847 0.233232 -0.440658
vn -0.916835 0.243147 -0.316691
vn 0.000000 0.000000 1.000000
vn -0.022254 0.000000 0.999752
vn -0.033258 0.000000 0.999447
vn 0.000000 0.000000 1.000000
vn -0.022254 0.000000 0.999752
vn -0.990048 0.000000 0.140727
vn -0.989690 0.000000 0.143226
vn -0.033258 0.000000 0.999447
vn -0.990048 0.000000 0.140727
vn -1.000000 0.000000 -0.000000
vn -1.000000 0.000000 0.000000
vn -0.989690 0.000000 0.143226
vn -1.000000 0.000000 -0.000000
vn -1.000000 0.000000 -0.000000
vn -1.000000 0.000000 -0.000001
vn -1.000000 0.000000 0.000000
vn -0.793084 0.000000 -0.609113
vn -0.023208 0.000000 -0.999731
vn -0.034012 0.000000 -0.999421
vn -0.787280 0.000000 -0.616595
vn 0.000000 0.000000 -1.000000
vn 0.000000 0.000000 -1.000000
vn 0.541488 -0.840708 0.000000
vn 0.000000 0.000000 -1.000000
vn -0.246647 -0.969105 0.000000
vn 1.000000 0.000000 0.000000
vn 1.000000 0.000000 0.000000
vn 0.081846 0.000000 0.996645
vn 0.000000 -0.461182 0.887306
vn 0.000000 -0.681062 0.732226
vn -0.174253 0.000000 0.984701
vn 0.081846 0.000000 0.996645
vn 1.000000 0.000000 0.000000
vn 1.000000 0.000000 0.000000
vn 0.072327 -0.996561 0.040436
vn 1.000000 0.000000 0.000000
vn 1.000000 0.000000 0.000000
vn -0.246647 -0.969105 0.000000
vn 1.000000 0.000000 0.000000
vn 1.000000 0.000000 0.000000
vn 1.000000 0.000000 0.000000
vn 1.000000 0.000000 0.000000
vn 0.996753 -0.080517 0.000000
vn 1.000000 0.000000 0.000000
vn 1.000000 0.000000 0.000000
vn 0.996738 -0.080706 0.000000
vn 0.810245 -0.586092 0.000000
vn 0.996753 -0.080517 0.000000
vn 0.996738 -0.080706 0.000000
vn 0.811245 -0.584707 0.000000
vn 0.525811 -0.850602 0.000000
vn 0.810245 -0.586092 0.000000
vn 0.811245 -0.584707 0.000000
vn 0.526997 -0.849867 0.000000
vn 0.309945 -0.950755 0.000000
vn 0.525811 -0.850602 0.000000
vn 0.526997 -0.849867 0.000000
vn 0.309870 -0.950779 0.000000
vn 0.144758 -0.989467 0.000000
vn 0.309945 -0.950755 0.000000
vn 0.309870 -0.950779 0.000000
vn 0.144720 -0.989473 0.000000
vn 1.000000 0.000000 0.000000
vn 0.144758 -0.989467 0.000000
vn 0.144720 -0.989473 0.000000
vn 0.152151 -0.988357 0.000000
vn 0.000000 1.000000 0.000000
vn 0.000000 1.000000 0.000000
vn 0.000000 0.796283 -0.604924
vn 0.000000 0.794945 -0.606681
vn -0.030031 0.999549 0.000000
vn 0.000000 1.000000 0.000000
vn 0.000000 0.794945 -0.606681
vn 0.000000 0.570871 -0.821040
vn -0.987963 0.154692 0.000000
vn -0.030031 0.999549 0.000000
vn 0.000000 0.570871 -0.821040
vn -0.707105 0.707108 0.000000
vn -1.000000 0.000000 -0.000000
vn -0.987963 0.154692 0.000000
vn -0.707105 0.707108 0.000000
vn -0.793084 0.000000 -0.609113
vn -1.000000 0.000000 -0.000001
vn -1.000000 0.000000 -0.000000
vn -0.793084 0.000000 -0.609113
vn -0.787280 0.000000 -0.616595
vn -0.795316 0.000000 -0.606195
vn -1.000000 0.000000 0.000000
vn -1.000000 0.000000 -0.000001
vn -0.787280 0.000000 -0.616595
vn -1.000000 0.000000 0.000000
vn -1.000000 0.000000 0.000000
vn -0.794226 0.000000 -0.607622
vn -0.793270 0.000000 -0.608870
vn -0.980356 -0.197195 0.004001
vn -1.000000 0.000000 0.000000
vn -0.793270 0.000000 -0.608870
vn -0.570868 0.000000 -0.821042
vn -0.066910 -0.997001 0.038900
vn -0.980356 -0.197195 0.004001
vn -0.570868 0.000000 -0.821042
vn 0.000000 -0.570871 -0.821040
vn 0.072327 -0.996561 0.040436
vn -0.066910 -0.997001 0.038900
vn 0.000000 -0.570871 -0.821040
vn 0.000000 -0.681064 -0.732224
vn 0.000000 -0.461184 -0.887305
vn 1.000000 0.000000 0.000000
vn 0.072327 -0.996561 0.040436
vn 0.000000 -0.681064 -0.732224
vn 1.000000 0.000000 0.000000
vn 1.000000 0.000000 0.000000
vn 0.000000 -0.461184 -0.887305
vn -0.174254 0.000000 -0.984701
vn 0.996738 -0.080706 0.000000
vn 1.000000 0.000000 0.000000
vn -0.174254 0.000000 -0.984701
vn 0.935688 -0.352828 0.000000
vn 0.811245 -0.584707 0.000000
vn 0.996738 -0.080706 0.000000
vn 0.935688 -0.352828 0.000000
vn 0.828840 -0.559486 0.000000
vn 0.526997 -0.849867 0.000000
vn 0.811245 -0.584707 0.000000
vn 0.828840 -0.559486 0.000000
vn 0.541488 -0.840708 0.000000
vn 0.309870 -0.950779 0.000000
vn 0.526997 -0.849867 0.000000
vn 0.541488 -0.840708 0.000000
vn 0.000000 0.000000 -1.000000
vn 0.144720 -0.989473 0.000000
vn 0.309870 -0.950779 0.000000
vn 0.000000 0.000000 -1.000000
vn 0.147420 -0.989074 0.000000
vn 0.152151 -0.988357 0.000000
vn 0.144720 -0.989473 0.000000
vn 0.147420 -0.989074 0.000000
vn 0.276752 0.000000 -0.960941
vn 0.859105 0.000000 -0.511800
vn 0.999776 -0.021148 0.000000
vn 0.152151 -0.988357 0.000000
vn 0.859105 0.000000 -0.511800
vn 0.756878 -0.011576 -0.653454
vn 0.984226 0.176917 0.000000
vn 0.999776 -0.021148 0.000000
vn 0.756878 -0.011576 -0.653454
vn 0.570867 0.000000 -0.821043
vn 0.058379 0.998295 0.000000
vn 0.984226 0.176917 0.000000
vn 0.570867 0.000000 -0.821043
vn 0.707105 0.707109 0.000000
vn 1.000000 0.000000 0.000000
vn 1.000000 0.000000 0.000000
vn 1.000000 0.000000 0.000000
vn 1.000000 0.000000 0.000000
vn 0.996768 -0.080330 0.000000
vn 1.000000 0.000000 0.000000
vn 1.000000 0.000000 0.000000
vn 0.996753 -0.080517 0.000000
vn 0.809074 -0.587707 0.000000
vn 0.996768 -0.080330 0.000000
vn 0.996753 -0.080517 0.000000
vn 0.810245 -0.586092 0.000000
vn 0.524536 -0.851388 0.000000
vn 0.809074 -0.587707 0.000000
vn 0.810245 -0.586092 0.000000
vn 0.525811 -0.850602 0.000000
vn 0.310300 -0.950639 0.000000
vn 0.524536 -0.851388 0.000000
vn 0.525811 -0.850602 0.000000
vn 0.309945 -0.950755 0.000000
vn 0.144734 -0.989471 0.000000
vn 0.310300 -0.950639 0.000000
vn 0.309945 -0.950755 0.000000
vn 0.144758 -0.989467 0.000000
vn 0.859104 0.000000 0.511802
vn 0.144734 -0.989471 0.000000
vn 0.144758 -0.989467 0.000000
vn 1.000000 0.000000 0.000000
vn 0.000000 0.000000 1.000000
vn 0.147420 -0.989074 0.000000
vn 0.276751 0.000000 0.960942
vn 0.036346 -0.000382 0.999339
vn 0.570865 0.000000 0.821044
vn 0.000000 0.080548 0.996751
vn 0.000000 0.000000 1.000000
vn 0.036346 -0.000382 0.999339
vn 0.570865 0.000000 0.821044
vn 0.000000 0.570868 0.821042
vn 0.000000 0.989876 0.141937
vn 0.000000 0.080548 0.996751
vn 0.000000 0.570868 0.821042
vn 0.058558 0.998284 0.000000
vn 0.000000 1.000000 0.000000
vn 0.000000 0.989876 0.141937
vn 0.058558 0.998284 0.000000
vn 0.058379 0.998295 0.000000
vn 0.000000 1.000000 0.000000
vn 0.000000 1.000000 0.000000
vn 0.000000 0.796283 -0.604924
vn 0.000000 1.000000 0.000000
vn 0.058379 0.998295 0.000000
vn 0.707105 0.707109 0.000000
vn 0.707105 0.707109 0.000000
vn 0.570867 0.000000 -0.821043
vn 0.000000 0.085596 -0.996330
vn 0.000000 0.796283 -0.604924
vn 0.570867 0.000000 -0.821043
vn 0.036287 -0.000382 -0.999341
vn 0.000000 0.000000 -1.000000
vn 0.000000 0.085596 -0.996330
vn 0.036287 -0.000382 -0.999341
vn 0.276752 0.000000 -0.960941
vn 0.147420 -0.989074 0.000000
vn 0.000000 0.000000 -1.000000
vn -0.046963 0.000000 -0.998897
vn 0.000000 0.000000 -1.000000
vn 0.000000 0.000000 -1.000000
vn -0.057629 0.000000 -0.998338
vn -0.795316 0.000000 -0.606195
vn -0.046963 0.000000 -0.998897
vn -0.057629 0.000000 -0.998338
vn -0.794226 0.000000 -0.607622
vn -1.000000 0.000000 0.000000
vn -1.000000 0.000000 0.000000
vn -0.795316 0.000000 -0.606195
vn -0.794226 0.000000 -0.607622
vn -1.000000 0.000000 0.000000
vn -1.000000 0.000000 0.000000
vn -1.000000 0.000000 0.000000
vn -1.000000 0.000000 0.000000
vn -0.989712 0.000000 0.143073
vn -1.000000 0.000000 0.000000
vn -1.000000 0.000000 0.000000
vn -0.989979 0.000000 0.141218
vn -0.045870 0.000000 0.998947
vn -0.989712 0.000000 0.143073
vn -0.989979 0.000000 0.141218
vn -0.057686 0.000000 0.998335
vn 0.828840 -0.559486 0.000000
vn 0.000000 0.000000 1.000000
vn 0.000000 0.000000 1.000000
vn 0.943053 -0.332641 0.000000
vn 0.000000 0.000000 1.000000
vn 0.000000 0.000000 1.000000
vn -0.033258 0.000000 0.999447
vn -0.045870 0.000000 0.998947
vn 0.000000 0.000000 1.000000
vn 0.000000 0.000000 1.000000
vn -0.045870 0.000000 0.998947
vn -0.057686 0.000000 0.998335
vn 0.000000 0.000000 1.000000
vn 0.000000 0.000000 1.000000
vn 0.541488 -0.840708 0.000000
vn 0.000000 0.000000 1.000000
vn -0.057686 0.000000 0.998335
vn -0.056878 0.000000 0.998381
vn -0.174253 0.000000 0.984701
vn 0.000000 0.000000 1.000000
vn 0.000000 0.000000 -1.000000
vn 0.000000 0.000000 -1.000000
vn -0.034012 0.000000 -0.999421
vn -0.023208 0.000000 -0.999731
vn 0.000000 0.000000 -1.000000
vn 0.000000 0.000000 -1.000000
vn 0.541488 -0.840708 0.000000
vn 0.828840 -0.559486 0.000000
vn 0.000000 0.000000 -1.000000
vn 0.000000 0.000000 -1.000000
vn 0.828840 -0.559486 0.000000
vn 0.935688 -0.352828 0.000000
vn 0.935688 -0.352828 0.000000
vn -0.174254 0.000000 -0.984701
vn 0.000000 0.000000 -1.000000
s off
g archway_low:archway_low
usemtl initialShadingGroup
f 216/1/1 217/2/2 3/3/3 4/4/4
f 215/5/5 216/6/6 4/7/7 5/8/8
f 217/2/9 218/9/10 9/10/11 3/3/12
f 3/3/13 10/11/14 11/12/15 4/4/16
f 4/7/17 11/13/18 12/14/19 5/8/20
f 1/15/21 6/16/22 16/17/23 7/18/24
f 2/19/25 7/20/26 17/21/27 8/22/28
f 218/9/29 219/23/30 188/24/31 9/10/32
f 3/3/33 9/10/34 20/25/35 10/11/36
f 11/13/37 21/26/38 22/27/39 12/14/40
f 6/16/41 15/28/42 27/29/43 16/17/44
f 7/18/45 16/17/46 28/30/47 17/31/48
f 8/22/49 17/21/50 207/32/51 187/33/52
f 9/10/53 188/24/54 189/34/55 20/25/56
f 220/35/57 221/36/58 32/37/59 19/38/60
f 10/11/61 20/25/62 33/39/63 21/40/64
f 21/26/65 33/41/66 34/42/67 22/27/68
f 174/43/69 175/44/70 227/45/71 228/46/72
f 16/17/73 27/29/74 38/47/75 28/30/76
f 17/48/77 28/49/78 206/50/79 207/51/80
f 20/25/81 189/34/82 190/52/83 33/39/84
f 19/38/85 32/37/86 41/53/87 30/54/88
f 221/55/89 222/56/90 43/57/91 32/58/92
f 33/59/93 190/60/94 191/61/95 34/62/96
f 175/44/97 176/63/98 226/64/99 227/45/100
f 23/65/101 35/66/102 46/67/103 36/68/104
f 36/68/105 47/69/106 48/70/107 179/71/108 37/72/109
f 28/49/110 38/73/111 205/74/112 206/50/113
f 29/75/114 39/76/115 42/77/116 31/78/117
f 32/58/118 43/57/119 50/79/120 41/80/121
f 176/81/122 192/82/123 225/83/124 226/84/125
f 40/85/126 41/80/127 50/79/128 44/86/129
f 35/66/130 45/87/131 55/88/132 46/67/133
f 36/68/134 46/67/135 56/89/136 47/69/137
f 47/69/138 57/90/139 58/91/140 48/70/141
f 39/76/142 49/92/143 52/93/144 42/77/145
f 45/94/146 193/95/147 194/96/148 55/97/149
f 177/98/150 178/99/151 223/100/152 224/101/153
f 46/67/154 55/88/155 64/102/156 56/89/157
f 57/90/158 65/103/159 66/104/160 58/91/161
f 55/97/162 194/96/163 195/105/164 64/106/165
f 54/107/166 62/108/167 68/109/168 63/110/169
f 56/89/170 64/102/171 65/103/172 57/90/173
f 65/111/174 196/112/175 197/113/176 66/114/177
f 67/115/178 72/116/179 73/117/180 68/109/181
f 64/106/182 195/105/183 196/112/184 65/111/185
f 63/110/186 68/109/187 73/117/188 69/118/189
f 70/119/190 73/117/191 72/116/192 71/120/193
f 13/121/194 213/122/195 214/123/196 14/124/197
f 25/125/198 211/126/199 212/127/200 26/128/201
f 1/129/202 7/20/203 2/19/204
f 10/11/205 21/40/206 11/12/207
f 18/130/208 29/131/209 31/132/210
f 30/54/211 41/53/212 40/133/213
f 47/69/214 56/89/215 57/90/216
f 69/118/217 73/117/218 70/119/219
f 5/8/220 13/134/221 14/135/222 215/5/223
f 222/56/224 53/136/225 51/137/226 43/57/227
f 13/121/228 26/128/229 212/127/230 213/122/231
f 24/138/232 210/139/233 211/126/234 25/125/235
f 26/140/236 229/141/237 230/142/238 25/143/239
f 178/99/240 232/144/241 233/145/242 223/100/243
f 14/124/244 214/123/245 27/146/246 15/147/247
f 231/148/248 37/72/249 24/149/250
f 234/150/251 67/115/252 68/109/253 62/108/254
f 37/151/255 209/152/256 210/139/257 24/138/258
f 147/153/259 146/154/260 148/155/261 149/156/262
f 99/157/263 98/158/264 100/159/265 101/160/266
f 98/161/267 102/162/268 103/163/269 100/164/270
f 104/165/271 103/166/272 102/167/273 105/168/274
f 101/169/275 104/170/276 105/171/277 99/172/278
f 107/173/279 106/174/280 108/175/281 109/176/282
f 106/177/283 110/178/284 111/179/285 108/180/286
f 112/181/287 111/182/288 110/183/289 113/184/290
f 109/185/291 112/186/292 113/187/293 107/188/294
f 115/189/295 114/190/296 116/191/297 117/192/298
f 114/193/299 118/194/300 119/195/301 116/196/302
f 120/197/303 119/198/304 118/199/305 121/200/306
f 117/201/307 120/202/308 121/203/309 115/204/310
f 123/205/311 122/206/312 124/207/313 125/208/314
f 122/209/315 126/210/316 127/211/317 124/212/318
f 128/213/319 127/214/320 126/215/321 129/216/322
f 125/217/323 128/218/324 129/219/325 123/220/326
f 131/221/327 130/222/328 132/223/329 133/224/330
f 130/225/331 134/226/332 135/227/333 132/228/334
f 136/229/335 135/230/336 134/231/337 137/232/338
f 133/233/339 136/234/340 137/235/341 131/236/342
f 139/237/343 138/238/344 162/239/345 163/240/346
f 138/241/347 140/242/348 165/243/349 162/244/350
f 76/245/351 77/246/352 98/158/353 99/157/354
f 81/247/355 80/248/356 101/160/357 100/159/358
f 77/249/359 75/250/360 102/162/361 98/161/362
f 79/251/363 81/252/364 100/164/365 103/163/366
f 78/253/367 79/254/368 103/166/369 104/165/370
f 75/255/371 74/256/372 105/168/373 102/167/374
f 80/257/375 78/258/376 104/170/377 101/169/378
f 74/259/379 76/260/380 99/172/381 105/171/382
f 80/248/383 81/247/384 106/174/385 107/173/386
f 85/261/387 84/262/388 109/176/389 108/175/390
f 81/252/391 79/251/392 110/178/393 106/177/394
f 83/263/395 85/264/396 108/180/397 111/179/398
f 82/265/399 83/266/400 111/182/401 112/181/402
f 79/254/403 78/253/404 113/184/405 110/183/406
f 84/267/407 82/268/408 112/186/409 109/185/410
f 78/258/411 80/257/412 107/188/413 113/187/414
f 84/262/415 85/261/416 114/190/417 115/189/418
f 89/269/419 88/270/420 117/192/421 116/191/422
f 85/264/423 83/263/424 118/194/425 114/193/426
f 87/271/427 89/272/428 116/196/429 119/195/430
f 86/273/431 87/274/432 119/198/433 120/197/434
f 83/266/435 82/265/436 121/200/437 118/199/438
f 88/275/439 86/276/440 120/202/441 117/201/442
f 82/268/443 84/267/444 115/204/445 121/203/446
f 88/270/447 89/269/448 122/206/449 123/205/450
f 93/277/451 92/278/452 125/208/453 124/207/454
f 89/272/455 87/271/456 126/210/457 122/209/458
f 91/279/459 93/280/460 124/212/461 127/211/462
f 90/281/463 91/282/464 127/214/465 128/213/466
f 87/274/467 86/273/468 129/216/469 126/215/470
f 92/283/471 90/284/472 128/218/473 125/217/474
f 86/276/475 88/275/476 123/220/477 129/219/478
f 92/278/479 93/277/480 130/222/481 131/221/482
f 97/285/483 96/286/484 133/224/485 132/223/486
f 93/280/487 91/279/488 134/226/489 130/225/490
f 95/287/491 97/288/492 132/228/493 135/227/494
f 94/289/495 95/290/496 135/230/497 136/229/498
f 91/282/499 90/281/500 137/232/501 134/231/502
f 96/291/503 94/292/504 136/234/505 133/233/506
f 90/284/507 92/283/508 131/236/509 137/235/510
f 96/286/511 97/285/512 138/238/513 139/237/514
f 97/288/515 95/287/516 140/242/517 138/241/518
f 95/290/519 94/289/520 141/293/521 140/294/522
f 94/292/523 96/291/524 139/295/525 141/296/526
f 155/297/527 154/298/528 156/299/529 157/300/530
f 159/301/531 158/302/532 160/303/533 161/304/534
f 158/305/535 155/306/536 157/307/537 160/308/538
f 161/309/539 156/310/540 154/311/541 159/312/542
f 150/313/543 146/314/544 147/315/545 151/316/546
f 148/317/547 152/318/548 153/319/549 149/320/550
f 152/321/551 150/322/552 151/323/553 153/324/554
f 144/325/555 143/326/556 148/155/557 146/154/558
f 75/250/559 77/249/560 147/153/561 149/156/562
f 145/327/563 144/328/564 146/314/565 150/313/566
f 77/246/567 76/245/568 151/316/569 147/315/570
f 143/329/571 142/330/572 152/318/573 148/317/574
f 74/256/575 75/255/576 149/320/577 153/319/578
f 142/331/579 145/332/580 150/322/581 152/321/582
f 76/260/583 74/259/584 153/324/585 151/323/586
f 144/328/587 145/327/588 157/333/589 156/334/590
f 142/330/591 143/329/592 161/335/593 160/336/594
f 145/332/595 142/331/596 160/308/597 157/307/598
f 143/326/599 144/325/600 156/310/601 161/309/602
f 155/297/603 158/302/604 159/301/605 154/298/606
f 164/337/607 165/338/608 140/294/609 141/293/610
f 163/339/611 164/340/612 141/296/613 139/295/614
f 167/341/615 166/342/616 168/343/617 169/344/618
f 171/345/619 170/346/620 166/342/621 167/341/622
f 167/347/623 169/348/624 172/349/625 171/350/626
f 169/344/627 168/343/628 173/351/629 172/352/630
f 170/353/631 173/354/632 168/355/633 166/356/634
f 163/240/635 162/239/636 170/357/637 171/358/638
f 164/340/639 163/339/640 171/350/641 172/349/642
f 165/338/643 164/337/644 172/359/645 173/360/646
f 162/244/647 165/243/648 173/354/649 170/353/650
f 5/8/651 12/14/652 174/43/653 229/141/654
f 12/14/655 22/27/656 175/44/657 174/43/658
f 22/27/659 34/42/660 176/63/661 175/44/662
f 34/62/663 191/61/664 192/82/665 176/81/666
f 44/86/667 50/79/668 178/99/669 177/98/670
f 43/57/671 51/137/672 59/361/673 232/144/674
f 66/362/675 180/363/676 208/364/677 179/365/678 48/366/679 58/367/680
f 37/151/681 179/365/682 208/364/683 209/152/684
f 197/368/685 198/369/686 180/363/687 66/362/688
f 181/370/689 180/363/690 198/369/691 199/371/692
f 182/372/693 181/370/694 199/371/695 200/373/696
f 183/374/697 182/372/698 200/373/699 201/375/700
f 184/376/701 183/374/702 201/375/703 202/377/704
f 185/378/705 184/376/706 202/377/707 203/379/708
f 186/380/709 185/378/710 203/379/711 204/381/712
f 38/382/713 186/380/714 204/381/715 205/383/716
f 188/24/717 219/23/718 220/35/719 19/38/720
f 189/34/721 188/24/722 19/38/723 30/54/724
f 190/52/725 189/34/726 30/54/727 40/133/728
f 191/61/729 190/60/730 40/85/731 44/86/732
f 192/82/733 191/61/734 44/86/735 177/98/736
f 224/101/737 225/83/738 192/82/739 177/98/740
f 194/96/741 193/95/742 54/107/743 63/110/744
f 195/105/745 194/96/746 63/110/747 69/118/748
f 196/112/749 195/105/750 69/118/751 70/119/752
f 197/113/753 196/112/754 70/119/755 71/120/756
f 72/384/757 198/369/758 197/368/759 71/385/760
f 199/371/761 198/369/762 72/384/763 67/386/764
f 200/373/765 199/371/766 67/386/767 61/387/768
f 201/375/769 200/373/770 61/387/771 60/388/772
f 202/377/773 201/375/774 60/388/775 59/389/776
f 203/379/777 202/377/778 59/389/779 51/390/780
f 204/381/781 203/379/782 51/390/783 53/391/784
f 205/383/785 204/381/786 53/391/787 52/392/788 49/393/789
f 206/50/790 205/74/791 49/92/792 39/76/793
f 207/51/794 206/50/795 39/76/796 29/75/797
f 187/33/798 207/32/799 29/131/800 18/130/801
f 209/152/802 208/364/803 180/363/804 181/370/805
f 210/139/806 209/152/807 181/370/808 182/372/809
f 211/126/810 210/139/811 182/372/812 183/374/813
f 212/127/814 211/126/815 183/374/816 184/376/817
f 213/122/818 212/127/819 184/376/820 185/378/821
f 214/123/822 213/122/823 185/378/824 186/380/825
f 27/146/826 214/123/827 186/380/828 38/382/829
f 215/5/830 14/135/831 15/28/832 6/16/833
f 1/15/834 216/6/835 215/5/836 6/16/837
f 1/129/838 2/19/839 217/2/840 216/1/841
f 2/19/842 8/22/843 218/9/844 217/2/845
f 8/22/846 187/33/847 219/23/848 218/9/849
f 220/35/850 219/23/851 187/33/852 18/130/853
f 18/130/854 31/132/855 221/36/856 220/35/857
f 31/78/858 42/77/859 222/56/860 221/55/861
f 42/77/862 52/93/863 53/136/864 222/56/865
f 223/100/866 233/145/867 234/150/868 62/108/869
f 224/101/870 223/100/871 62/108/872 54/107/873
f 193/95/874 225/83/875 224/101/876 54/107/877
f 226/84/878 225/83/879 193/95/880 45/94/881
f 227/45/882 226/64/883 45/87/884 35/66/885
f 228/46/886 227/45/887 35/66/888 23/65/889
f 25/143/890 230/142/891 231/148/892 24/149/893
f 230/142/894 229/141/895 174/43/896 228/46/897
f 231/148/898 230/142/899 228/46/900 23/65/901
f 5/8/902 229/141/903 26/140/904 13/134/905
f 23/65/906 36/68/907 37/72/908 231/148/909
f 43/57/910 232/144/911 178/99/912 50/79/913
f 233/145/914 232/144/915 59/361/916 60/394/917
f 234/150/918 233/145/919 60/394/920 61/395/921
f 61/395/922 67/115/923 234/150/924
