# This file uses centimeters as units for non-parametric coordinates.

mtllib Cobble_halfwall_low.mtl
g default
v 1.691425 3.179846 0.336167
v 1.691425 3.229841 0.302036
v 0.005436 3.229841 0.302037
v 0.005436 3.179846 0.336167
v 0.005436 2.910542 0.336167
v 1.691425 2.910542 0.336167
v 1.741420 3.179846 0.302036
v 1.691425 3.229841 -0.006274
v 0.005436 3.229841 -0.006274
v -1.608585 3.229841 0.302037
v -1.608585 3.179846 0.336167
v -1.608585 2.910542 0.336167
v 1.691425 2.767538 0.336167
v 0.005436 2.767538 0.336167
v 1.741420 2.910542 0.302036
v 1.741420 3.179846 -0.006274
v 1.691425 3.229841 -0.312385
v 0.005436 3.229841 -0.312385
v -1.608585 3.229841 -0.006274
v -1.658580 3.179846 0.302037
v -1.658580 2.910542 0.302037
v -1.608585 2.767538 0.336167
v 1.741420 2.767538 0.302036
v 1.741420 2.910542 -0.006274
v 1.741420 3.179846 -0.312385
v -1.608585 3.229841 -0.312385
v 1.691425 3.179846 -0.346516
v 0.005436 3.179846 -0.346515
v -1.658580 3.179846 -0.006274
v -1.658580 2.910542 -0.006274
v -1.658580 2.767538 0.302037
v 1.741420 2.767538 -0.006274
v 1.741420 2.910542 -0.312385
v -1.658580 3.179846 -0.312385
v -1.608585 3.179846 -0.346516
v 1.691425 2.910542 -0.346516
v 0.005436 2.910542 -0.346515
v -1.658580 2.910542 -0.312385
v -1.658580 2.767538 -0.006274
v 1.741420 2.767538 -0.312385
v -1.608585 2.910542 -0.346516
v 0.005436 2.767538 -0.346515
v 1.691425 2.767538 -0.346516
v -1.658580 2.767538 -0.312385
v -1.608585 2.767538 -0.346516
v -1.608585 2.767538 -0.006275
v 0.005436 2.767538 -0.006275
v 1.691425 2.767538 -0.006274
v -0.107605 2.419060 0.423927
v -0.111746 2.419055 -0.435103
v -0.353025 2.859042 0.423927
v -0.305481 2.859038 -0.435103
v -1.358825 2.419061 0.423926
v -1.390005 2.419060 -0.435103
v -1.283276 2.859038 0.423926
v -1.314457 2.859037 -0.435103
v -0.750016 2.859040 0.423927
v -0.776764 2.859038 -0.435103
v -0.760956 2.419061 0.423927
v -0.787705 2.419058 -0.435103
v -0.301930 2.892471 0.489195
v -0.031768 2.385631 0.489195
v -0.249593 2.892467 -0.500371
v -0.036327 2.385626 -0.500371
v -0.408340 2.896610 0.497274
v -0.220016 2.381493 0.497274
v -0.712972 2.896608 0.497274
v -0.721366 2.381494 0.497274
v -0.371858 2.896605 -0.508451
v -0.733497 2.896605 -0.508451
v -0.223194 2.381487 -0.508451
v -0.741892 2.381491 -0.508451
v -1.278390 2.892261 -0.499969
v -1.344151 2.385837 -0.499969
v -0.810352 2.892262 -0.499970
v -0.819875 2.385835 -0.499970
v -0.787068 2.892264 0.488793
v -0.796592 2.385838 0.488793
v -1.251248 2.892262 0.488793
v -1.317010 2.385838 0.488793
v -1.650794 2.895037 -0.505389
v -1.648885 2.895037 0.494213
v -1.648903 2.383062 -0.505389
v -1.646994 2.383062 0.494213
v -1.388976 2.895037 -0.505389
v -1.445904 2.383060 -0.505389
v -1.365480 2.895038 0.494213
v -1.422409 2.383061 0.494213
v 0.035988 2.892473 0.489195
v 0.035988 2.385631 0.489194
v 0.035988 2.892467 -0.500371
v 0.035988 2.385625 -0.500371
v 0.179582 2.419060 0.423927
v 0.183723 2.419055 -0.435103
v 0.425002 2.859042 0.423927
v 0.377458 2.859038 -0.435103
v 1.430801 2.419061 0.423926
v 1.461981 2.419060 -0.435103
v 1.355253 2.859038 0.423926
v 1.386433 2.859037 -0.435103
v 0.821992 2.859040 0.423926
v 0.848741 2.859038 -0.435103
v 0.832933 2.419061 0.423926
v 0.859681 2.419058 -0.435103
v 0.373907 2.892471 0.489195
v 0.103745 2.385631 0.489195
v 0.321569 2.892467 -0.500371
v 0.108304 2.385626 -0.500371
v 0.480317 2.896610 0.497274
v 0.291993 2.381493 0.497274
v 0.784949 2.896608 0.497274
v 0.793343 2.381494 0.497274
v 0.443834 2.896605 -0.508451
v 0.805475 2.896605 -0.508451
v 0.295170 2.381487 -0.508451
v 0.813869 2.381491 -0.508451
v 1.350367 2.892261 -0.499969
v 1.416127 2.385837 -0.499969
v 0.882329 2.892262 -0.499969
v 0.891852 2.385835 -0.499969
v 0.859045 2.892264 0.488793
v 0.868568 2.385838 0.488793
v 1.323225 2.892262 0.488793
v 1.388987 2.385838 0.488793
v 1.733109 2.895037 -0.505389
v 1.731200 2.895037 0.494213
v 1.731218 2.383062 -0.505389
v 1.729309 2.383062 0.494213
v 1.460953 2.895037 -0.505389
v 1.517881 2.383060 -0.505389
v 1.437456 2.895038 0.494213
v 1.494385 2.383061 0.494213
v -1.648885 2.895037 0.494213
v -1.650794 2.895037 -0.505389
v -1.648903 2.383062 -0.505389
v -1.646994 2.383062 0.494213
v -1.388976 2.895037 -0.505389
v -1.445904 2.383060 -0.505389
v -0.220016 2.381493 0.497274
v -0.408340 2.896610 0.497274
v -0.712972 2.896608 0.497274
v -0.721366 2.381494 0.497274
v -0.371858 2.896605 -0.508451
v -0.733497 2.896605 -0.508451
v -0.223194 2.381487 -0.508451
v -0.741892 2.381491 -0.508451
v -0.036327 2.385626 -0.500371
v -0.249593 2.892467 -0.500371
v 0.035988 2.892467 -0.500371
v 0.035988 2.385625 -0.500371
v -1.344151 2.385837 -0.499969
v -1.278390 2.892261 -0.499969
v -0.810352 2.892262 -0.499970
v -0.819875 2.385835 -0.499970
v -1.422409 2.383061 0.494213
v -1.365480 2.895038 0.494213
v -0.796592 2.385838 0.488793
v -0.787068 2.892264 0.488793
v -1.251248 2.892262 0.488793
v -1.317010 2.385838 0.488793
v -0.353025 2.859042 0.423927
v -0.107605 2.419060 0.423927
v -0.031768 2.385631 0.489195
v -0.301930 2.892471 0.489195
v -0.305481 2.859038 -0.435103
v -0.111746 2.419055 -0.435103
v -0.750016 2.859040 0.423927
v -0.760956 2.419061 0.423927
v -0.776764 2.859038 -0.435103
v -0.787705 2.419058 -0.435103
v -1.390005 2.419060 -0.435103
v -1.314457 2.859037 -0.435103
v -1.283276 2.859038 0.423926
v -1.358825 2.419061 0.423926
v 0.035988 2.385631 0.489194
v 0.035988 2.892473 0.489195
v 1.731200 2.895037 0.494213
v 1.729309 2.383062 0.494213
v 1.731218 2.383062 -0.505389
v 1.733109 2.895037 -0.505389
v 1.517881 2.383060 -0.505389
v 1.460953 2.895037 -0.505389
v 0.291993 2.381493 0.497274
v 0.793343 2.381494 0.497274
v 0.784949 2.896608 0.497274
v 0.480317 2.896610 0.497274
v 0.805475 2.896605 -0.508451
v 0.443834 2.896605 -0.508451
v 0.295170 2.381487 -0.508451
v 0.813869 2.381491 -0.508451
v 0.108304 2.385626 -0.500371
v 0.321569 2.892467 -0.500371
v 1.416127 2.385837 -0.499969
v 0.891852 2.385835 -0.499969
v 0.882329 2.892262 -0.499969
v 1.350367 2.892261 -0.499969
v 1.494385 2.383061 0.494213
v 1.437456 2.895038 0.494213
v 0.868568 2.385838 0.488793
v 1.388987 2.385838 0.488793
v 1.323225 2.892262 0.488793
v 0.859045 2.892264 0.488793
v 0.425002 2.859042 0.423927
v 0.373907 2.892471 0.489195
v 0.103745 2.385631 0.489195
v 0.179582 2.419060 0.423927
v 0.377458 2.859038 -0.435103
v 0.183723 2.419055 -0.435103
v 0.821992 2.859040 0.423926
v 0.832933 2.419061 0.423926
v 0.848741 2.859038 -0.435103
v 0.859681 2.419058 -0.435103
v 1.461981 2.419060 -0.435103
v 1.386433 2.859037 -0.435103
v 1.355253 2.859038 0.423926
v 1.430801 2.419061 0.423926
vt 0.810452 0.389093
vt 0.809483 0.402137
vt 0.431771 0.399898
vt 0.431759 0.385936
vt 0.431660 0.324396
vt 0.816783 0.328710
vt 0.814478 0.471110
vt 0.431984 0.470569
vt 0.071141 0.402599
vt 0.070115 0.389580
vt 0.063545 0.330147
vt 0.431538 0.291923
vt 0.818203 0.296466
vt 0.830417 0.330560
vt 0.824078 0.395245
vt 0.830738 0.471205
vt 0.808955 0.538700
vt 0.432150 0.540765
vt 0.065936 0.470603
vt 0.056530 0.395737
vt 0.049921 0.332046
vt 0.061863 0.297927
vt 0.831993 0.297533
vt 0.978753 0.484061
vt 0.898092 0.484061
vt 0.898092 0.391716
vt 0.978753 0.391716
vt 0.822940 0.545729
vt 0.070897 0.538952
vt 0.809787 0.551767
vt 0.432146 0.554720
vt 0.049673 0.470665
vt 0.977202 0.501672
vt 0.977857 0.590038
vt 0.900671 0.590610
vt 0.900016 0.502244
vt 0.048076 0.299107
vt 0.855260 0.484061
vt 0.855260 0.391716
vt 0.898092 0.300031
vt 0.978753 0.300031
vt 0.056865 0.545816
vt 0.069977 0.551952
vt 0.816122 0.612127
vt 0.432087 0.616292
vt 0.978508 0.677774
vt 0.901322 0.678346
vt 0.859684 0.590915
vt 0.859029 0.502548
vt 0.855260 0.300031
vt 0.829931 0.610148
vt 0.063489 0.611371
vt 0.817656 0.644459
vt 0.431988 0.648715
vt 0.860335 0.678650
vt 0.049684 0.609354
vt 0.831615 0.643291
vt 0.061846 0.643587
vt 0.047889 0.642382
vt 0.057334 0.162920
vt 0.057389 0.215565
vt 0.049703 0.215573
vt 0.049654 0.168175
vt 0.572398 0.215031
vt 0.564712 0.215039
vt 0.564657 0.162394
vt 0.572348 0.167633
vt 0.316582 0.215296
vt 0.316528 0.162651
vt 0.564766 0.267346
vt 0.572446 0.262091
vt 0.316636 0.267603
vt 0.057443 0.267871
vt 0.049752 0.262632
vt 0.921605 0.143181
vt 0.922909 0.018524
vt 0.986756 0.019192
vt 0.985452 0.143849
vt 0.989190 0.699536
vt 0.990372 0.830853
vt 0.923216 0.831209
vt 0.937122 0.699812
vt 0.425535 0.850584
vt 0.371554 0.980496
vt 0.293490 0.977112
vt 0.297059 0.845016
vt 0.760567 0.141849
vt 0.757361 0.016380
vt 0.802460 0.016863
vt 0.798556 0.142256
vt 0.239092 0.130447
vt 0.239802 0.019453
vt 0.295131 0.019981
vt 0.296335 0.130994
vt 0.525366 0.703339
vt 0.576889 0.834637
vt 0.503659 0.832854
vt 0.506823 0.702888
vt 0.893770 0.698752
vt 0.877586 0.828736
vt 0.757536 0.829368
vt 0.759295 0.699458
vt 0.079398 0.837929
vt 0.087579 0.969807
vt 0.014972 0.966261
vt 0.021861 0.835120
vt 0.886262 0.142879
vt 0.890258 0.018244
vt 0.379436 0.131365
vt 0.377949 0.021024
vt 0.402734 0.021272
vt 0.401839 0.131589
vt 0.256682 0.844718
vt 0.253304 0.974596
vt 0.134362 0.969262
vt 0.123329 0.838739
vt 0.811370 0.141406
vt 0.815494 0.018129
vt 0.873861 0.018707
vt 0.869257 0.141979
vt 0.308002 0.130107
vt 0.306529 0.020963
vt 0.363962 0.021540
vt 0.365860 0.130689
vt 0.718526 0.698180
vt 0.716963 0.830315
vt 0.624203 0.830729
vt 0.585481 0.698773
vt 0.396579 0.975818
vt 0.459152 0.862753
vt 0.485807 0.858098
vt 0.416079 0.987872
vt 0.747788 0.025464
vt 0.752267 0.132666
vt 0.744611 0.140768
vt 0.739710 0.017281
vt 0.226646 0.027424
vt 0.226188 0.122230
vt 0.217018 0.129349
vt 0.217566 0.020137
vt 0.551614 0.709589
vt 0.597944 0.823867
vt 0.272756 0.966759
vt 0.275356 0.853899
vt 0.809466 0.026118
vt 0.805290 0.133222
vt 0.301123 0.028099
vt 0.302917 0.122934
vt 0.740679 0.707883
vt 0.738840 0.820757
vt 0.913752 0.708160
vt 0.897130 0.821453
vt 0.115555 0.961309
vt 0.103606 0.847428
vt 0.879842 0.026897
vt 0.875161 0.133997
vt 0.369828 0.028722
vt 0.372146 0.123562
vt 0.503186 0.858156
vt 0.502755 0.988160
vt 0.702472 0.140213
vt 0.704097 0.016812
vt 0.209037 0.129272
vt 0.210088 0.020065
vt 0.482048 0.137387
vt 0.418205 0.136374
vt 0.420184 0.011726
vt 0.484026 0.012739
vt 0.022541 0.675928
vt 0.077182 0.678879
vt 0.084679 0.810798
vt 0.014972 0.807032
vt 0.580887 0.851100
vt 0.709396 0.846386
vt 0.712088 0.978502
vt 0.634003 0.981368
vt 0.644354 0.140319
vt 0.606367 0.139725
vt 0.605766 0.014273
vt 0.650862 0.014978
vt 0.178965 0.129868
vt 0.121722 0.129313
vt 0.125064 0.018344
vt 0.180392 0.018880
vt 0.488279 0.702436
vt 0.430429 0.831072
vt 0.120535 0.679930
vt 0.254816 0.687179
vt 0.250252 0.817020
vt 0.130375 0.810548
vt 0.927099 0.840745
vt 0.987304 0.838206
vt 0.993321 0.969390
vt 0.918043 0.972565
vt 0.518676 0.138038
vt 0.517962 0.013342
vt 0.038629 0.128084
vt 0.015085 0.127866
vt 0.016315 0.017553
vt 0.042241 0.017792
vt 0.749774 0.846356
vt 0.883164 0.841263
vt 0.871265 0.971709
vt 0.752290 0.976253
vt 0.593580 0.138538
vt 0.535698 0.137587
vt 0.534341 0.014236
vt 0.592704 0.015196
vt 0.110075 0.128201
vt 0.052216 0.127669
vt 0.056215 0.018577
vt 0.113648 0.019106
vt 0.295599 0.687885
vt 0.428457 0.694951
vt 0.383361 0.824867
vt 0.290731 0.819940
vt 0.609010 0.976524
vt 0.589430 0.988447
vt 0.520566 0.858214
vt 0.547190 0.863045
vt 0.660193 0.024310
vt 0.668484 0.016343
vt 0.660333 0.139658
vt 0.652893 0.131358
vt 0.193392 0.027104
vt 0.202611 0.019993
vt 0.201056 0.129196
vt 0.192024 0.121901
vt 0.461758 0.707402
vt 0.409923 0.819290
vt 0.732891 0.968287
vt 0.731040 0.855412
vt 0.598519 0.023341
vt 0.599873 0.130517
vt 0.118916 0.026345
vt 0.115297 0.121128
vt 0.273000 0.696499
vt 0.269345 0.809329
vt 0.100119 0.688355
vt 0.111208 0.802323
vt 0.890124 0.963881
vt 0.902828 0.850083
vt 0.528147 0.022266
vt 0.530006 0.129453
vt 0.050212 0.025645
vt 0.046068 0.120423
vn 0.707103 0.000000 0.707110
vn 0.000000 0.707106 0.707108
vn 0.000000 0.989510 0.144464
vn 0.000000 0.106287 0.994336
vn 0.707103 0.000000 0.707110
vn 0.000000 0.106287 0.994336
vn 0.000000 0.000000 1.000000
vn 0.019657 0.000000 0.999807
vn 0.000000 0.707106 0.707108
vn 0.028787 0.999586 0.000000
vn 0.000000 1.000000 0.000000
vn 0.000000 0.989510 0.144464
vn 0.000000 0.989510 0.144464
vn 0.000000 0.707106 0.707108
vn 0.000000 0.707106 0.707108
vn 0.000000 0.106287 0.994336
vn 0.000000 0.106287 0.994336
vn 0.000000 0.707106 0.707108
vn -0.020507 0.000000 0.999790
vn 0.000000 0.000000 1.000000
vn 0.000000 0.000000 1.000000
vn 0.000000 0.000000 1.000000
vn 0.295048 0.000000 0.955482
vn 0.019657 0.000000 0.999807
vn 0.707103 0.000000 0.707110
vn 0.019657 0.000000 0.999807
vn 0.989510 0.000000 0.144463
vn 0.707103 0.000000 0.707110
vn 0.000000 0.707106 0.707108
vn 0.707103 0.000000 0.707110
vn 0.987963 0.154692 0.000000
vn 0.028787 0.999586 0.000000
vn 0.028787 0.999586 0.000000
vn 0.707105 0.707109 0.000000
vn 0.000000 0.989376 -0.145378
vn 0.000000 1.000000 0.000000
vn 0.000000 0.989510 0.144464
vn 0.000000 1.000000 0.000000
vn -0.030031 0.999549 0.000000
vn 0.000000 0.707106 0.707108
vn 0.000000 0.707106 0.707108
vn -0.707104 0.000000 0.707109
vn -0.989510 0.000000 0.144464
vn -0.020507 0.000000 0.999790
vn 0.000000 0.000000 1.000000
vn -0.020507 0.000000 0.999790
vn -0.295046 0.000000 0.955483
vn 0.000000 0.000000 1.000000
vn 0.019657 0.000000 0.999807
vn 0.295048 0.000000 0.955482
vn 0.884258 0.000000 0.466998
vn 0.989510 0.000000 0.144463
vn 0.707103 0.000000 0.707110
vn 0.989510 0.000000 0.144463
vn 1.000000 0.000000 0.000000
vn 0.987963 0.154692 0.000000
vn 0.028787 0.999586 0.000000
vn 0.987963 0.154692 0.000000
vn 0.707105 0.000000 -0.707109
vn 0.707105 0.707109 0.000000
vn 0.000000 1.000000 0.000000
vn 0.000000 0.989376 -0.145378
vn 0.000000 0.707108 -0.707105
vn -0.030031 0.999549 0.000000
vn 0.707105 0.707109 0.000000
vn 0.707105 0.000000 -0.707109
vn 0.000000 0.106288 -0.994335
vn 0.000000 0.989376 -0.145378
vn 0.000000 0.707106 0.707108
vn -0.030031 0.999549 0.000000
vn -0.987963 0.154693 0.000000
vn -0.707104 0.000000 0.707109
vn -0.707104 0.000000 0.707109
vn -0.987963 0.154693 0.000000
vn -1.000000 0.000000 0.000000
vn -0.989510 0.000000 0.144464
vn -0.020507 0.000000 0.999790
vn -0.989510 0.000000 0.144464
vn -0.884258 0.000000 0.466999
vn -0.295046 0.000000 0.955483
vn 0.989510 0.000000 0.144463
vn 0.884258 0.000000 0.466998
vn 1.000000 0.000000 0.000000
vn 1.000000 0.000000 0.000000
vn 0.987963 0.154692 0.000000
vn 1.000000 0.000000 0.000000
vn 0.989376 0.000000 -0.145378
vn 0.707105 0.000000 -0.707109
vn -0.030031 0.999549 0.000000
vn 0.000000 0.707108 -0.707105
vn -0.707105 0.707108 0.000000
vn -0.987963 0.154693 0.000000
vn 0.000000 0.989376 -0.145378
vn 0.000000 0.106288 -0.994335
vn 0.000000 0.707108 -0.707105
vn 0.000000 0.707108 -0.707105
vn 0.707105 0.000000 -0.707109
vn 0.019657 0.000000 -0.999807
vn 0.000000 0.000000 -1.000000
vn 0.000000 0.106288 -0.994335
vn -0.987963 0.154693 0.000000
vn -0.707105 0.707108 0.000000
vn -0.989376 0.000000 -0.145380
vn -1.000000 0.000000 0.000000
vn -0.989510 0.000000 0.144464
vn -1.000000 0.000000 0.000000
vn -1.000000 0.000000 0.000000
vn -0.884258 0.000000 0.466999
vn 1.000000 0.000000 0.000000
vn 1.000000 0.000000 0.000000
vn 0.884259 0.000000 -0.466997
vn 0.989376 0.000000 -0.145378
vn 0.707105 0.000000 -0.707109
vn 0.989376 0.000000 -0.145378
vn 0.019657 0.000000 -0.999807
vn 0.707105 0.000000 -0.707109
vn 0.000000 0.106288 -0.994335
vn 0.000000 0.000000 -1.000000
vn -0.020507 0.000000 -0.999790
vn 0.000000 0.707108 -0.707105
vn 0.019657 0.000000 -0.999807
vn 0.295049 0.000000 -0.955482
vn 0.000000 0.000000 -1.000000
vn 0.000000 0.000000 -1.000000
vn -1.000000 0.000000 0.000000
vn -0.989376 0.000000 -0.145380
vn -0.884257 0.000000 -0.467000
vn -1.000000 0.000000 0.000000
vn -0.707105 0.707108 0.000000
vn 0.000000 0.707108 -0.707105
vn -0.020507 0.000000 -0.999790
vn -0.989376 0.000000 -0.145380
vn 0.989376 0.000000 -0.145378
vn 0.884259 0.000000 -0.466997
vn 0.295049 0.000000 -0.955482
vn 0.019657 0.000000 -0.999807
vn 0.000000 0.000000 -1.000000
vn 0.000000 0.000000 -1.000000
vn -0.295046 0.000000 -0.955483
vn -0.020507 0.000000 -0.999790
vn -0.989376 0.000000 -0.145380
vn -0.020507 0.000000 -0.999790
vn -0.295046 0.000000 -0.955483
vn -0.884257 0.000000 -0.467000
vn 0.707103 0.000000 0.707110
vn 0.707103 0.000000 0.707110
vn 0.000000 0.707106 0.707108
vn 0.000000 0.707106 0.707108
vn -0.707104 0.000000 0.707109
vn 0.000000 0.707106 0.707108
vn 0.707105 0.707109 0.000000
vn 0.707105 0.000000 -0.707109
vn 0.707105 0.000000 -0.707109
vn 0.000000 0.707108 -0.707105
vn 0.000000 0.707108 -0.707105
vn -0.707105 0.707108 0.000000
vn 0.295048 0.000000 0.955482
vn 0.000000 -1.000000 0.000000
vn 1.000000 0.000000 0.000000
vn 0.884258 0.000000 0.466998
vn -1.000000 0.000000 0.000000
vn 0.000000 -1.000000 0.000000
vn -0.295046 0.000000 0.955483
vn -0.884258 0.000000 0.466999
vn 0.000000 -1.000000 0.000000
vn 0.000000 -1.000000 0.000000
vn 0.000000 0.000000 1.000000
vn -0.295046 0.000000 0.955483
vn -0.295046 0.000000 -0.955483
vn 0.000000 -1.000000 0.000000
vn -1.000000 0.000000 0.000000
vn -0.884257 0.000000 -0.467000
vn 0.000000 0.000000 -1.000000
vn 0.000000 -1.000000 0.000000
vn 0.000000 -1.000000 0.000000
vn -0.295046 0.000000 -0.955483
vn 1.000000 0.000000 0.000000
vn 0.000000 -1.000000 0.000000
vn 0.295049 0.000000 -0.955482
vn 0.884259 0.000000 -0.466997
vn 0.295048 0.000000 0.955482
vn 0.000000 0.000000 1.000000
vn 0.000000 -1.000000 0.000000
vn 0.000000 -1.000000 0.000000
vn 0.295049 0.000000 -0.955482
vn 0.000000 -1.000000 0.000000
vn 0.000000 -1.000000 0.000000
vn 0.000000 0.000000 -1.000000
vn -0.999991 -0.003694 0.001910
vn -0.999991 -0.003694 0.001910
vn -0.999991 -0.003694 0.001910
vn -0.999991 -0.003694 0.001910
vn -0.901497 -0.379321 -0.208370
vn -0.866509 0.457632 -0.199337
vn 0.133807 0.907225 -0.398797
vn 0.136094 -0.846125 -0.515317
vn 0.096929 -0.937000 0.335613
vn 0.080348 0.801381 0.592733
vn -0.092443 0.842457 0.530773
vn -0.068506 -0.923124 0.378351
vn 0.080348 0.801381 0.592733
vn 0.088305 0.776071 -0.624432
vn -0.095439 0.814311 -0.572529
vn -0.092443 0.842457 0.530773
vn 0.092170 -0.924423 -0.370064
vn 0.096929 -0.937000 0.335613
vn -0.068506 -0.923124 0.378351
vn -0.072051 -0.906736 -0.415499
vn -0.203066 -0.649355 -0.732873
vn -0.125482 0.951285 -0.281621
vn 0.000000 0.959395 -0.282068
vn 0.000000 -0.607163 -0.794578
vn -0.067211 -0.903084 -0.424172
vn -0.062440 0.853129 -0.517950
vn 0.063071 0.877551 -0.475317
vn 0.056530 -0.894695 -0.443087
vn 0.141029 -0.821029 0.553193
vn 0.139497 0.890244 0.433596
vn -0.862094 0.456412 0.220186
vn -0.896672 -0.378204 0.230091
vn 0.139497 0.890244 0.433596
vn 0.133807 0.907225 -0.398797
vn -0.866509 0.457632 -0.199337
vn -0.862094 0.456412 0.220186
vn 0.136094 -0.846125 -0.515317
vn 0.141029 -0.821029 0.553193
vn -0.896672 -0.378204 0.230091
vn -0.901497 -0.379321 -0.208370
vn 0.060010 -0.890607 0.450798
vn 0.066923 0.872986 0.483132
vn -0.058692 0.862391 0.502830
vn -0.062800 -0.909876 0.410099
vn 0.066923 0.872986 0.483132
vn 0.063071 0.877551 -0.475317
vn -0.062440 0.853129 -0.517950
vn -0.058692 0.862391 0.502830
vn 0.056530 -0.894695 -0.443087
vn 0.060010 -0.890607 0.450798
vn -0.062800 -0.909876 0.410099
vn -0.067211 -0.903084 -0.424172
vn -0.072051 -0.906736 -0.415499
vn -0.095439 0.814311 -0.572529
vn 0.088305 0.776071 -0.624432
vn 0.092170 -0.924423 -0.370064
vn 0.136893 0.877812 0.459028
vn -0.036350 -0.952995 0.300798
vn -0.180525 -0.606427 0.774375
vn -0.139293 0.942663 0.303289
vn 0.106105 0.863945 -0.492281
vn 0.136893 0.877812 0.459028
vn -0.139293 0.942663 0.303289
vn -0.125482 0.951285 -0.281621
vn -0.036350 -0.952995 0.300798
vn -0.023498 -0.947138 -0.319966
vn -0.203066 -0.649355 -0.732873
vn -0.180525 -0.606427 0.774375
vn -0.023498 -0.947138 -0.319966
vn 0.106105 0.863945 -0.492281
vn -0.125482 0.951285 -0.281621
vn -0.203066 -0.649355 -0.732873
vn -0.036350 -0.952995 0.300798
vn 0.136893 0.877812 0.459028
vn 0.080348 0.801381 0.592733
vn 0.096929 -0.937000 0.335613
vn -0.120956 0.920279 0.372098
vn -0.105735 -0.923693 0.368254
vn -0.068506 -0.923124 0.378351
vn -0.092443 0.842457 0.530773
vn 0.136893 0.877812 0.459028
vn 0.106105 0.863945 -0.492281
vn 0.088305 0.776071 -0.624432
vn 0.080348 0.801381 0.592733
vn -0.090669 0.918236 -0.385515
vn -0.120956 0.920279 0.372098
vn -0.092443 0.842457 0.530773
vn -0.095439 0.814311 -0.572529
vn -0.023498 -0.947138 -0.319966
vn -0.036350 -0.952995 0.300798
vn 0.096929 -0.937000 0.335613
vn 0.092170 -0.924423 -0.370064
vn -0.105735 -0.923693 0.368254
vn -0.075470 -0.921397 -0.381224
vn -0.072051 -0.906736 -0.415499
vn -0.068506 -0.923124 0.378351
vn -0.075470 -0.921397 -0.381224
vn -0.090669 0.918236 -0.385515
vn -0.095439 0.814311 -0.572529
vn -0.072051 -0.906736 -0.415499
vn 0.106105 0.863945 -0.492281
vn -0.023498 -0.947138 -0.319966
vn 0.092170 -0.924423 -0.370064
vn 0.088305 0.776071 -0.624432
vn 0.073955 -0.915882 -0.394577
vn -0.009033 0.932813 -0.360248
vn -0.062440 0.853129 -0.517950
vn -0.067211 -0.903084 -0.424172
vn -0.090669 0.918236 -0.385515
vn -0.075470 -0.921397 -0.381224
vn 0.056530 -0.894695 -0.443087
vn 0.063071 0.877551 -0.475317
vn -0.105735 -0.923693 0.368254
vn -0.120956 0.920279 0.372098
vn 0.066923 0.872986 0.483132
vn 0.060010 -0.890607 0.450798
vn -0.035214 0.926747 0.374033
vn 0.046084 -0.909866 0.412336
vn -0.062800 -0.909876 0.410099
vn -0.058692 0.862391 0.502830
vn -0.120956 0.920279 0.372098
vn -0.090669 0.918236 -0.385515
vn 0.063071 0.877551 -0.475317
vn 0.066923 0.872986 0.483132
vn -0.009033 0.932813 -0.360248
vn -0.035214 0.926747 0.374033
vn -0.058692 0.862391 0.502830
vn -0.062440 0.853129 -0.517950
vn -0.075470 -0.921397 -0.381224
vn -0.105735 -0.923693 0.368254
vn 0.060010 -0.890607 0.450798
vn 0.056530 -0.894695 -0.443087
vn 0.046084 -0.909866 0.412336
vn 0.073955 -0.915882 -0.394577
vn -0.067211 -0.903084 -0.424172
vn -0.062800 -0.909876 0.410099
vn -0.009033 0.932813 -0.360248
vn 0.073955 -0.915882 -0.394577
vn 0.136094 -0.846125 -0.515317
vn 0.133807 0.907225 -0.398797
vn 0.046084 -0.909866 0.412336
vn -0.035214 0.926747 0.374033
vn 0.139497 0.890244 0.433596
vn 0.141029 -0.821029 0.553193
vn -0.035214 0.926747 0.374033
vn -0.009033 0.932813 -0.360248
vn 0.133807 0.907225 -0.398797
vn 0.139497 0.890244 0.433596
vn 0.073955 -0.915882 -0.394577
vn 0.046084 -0.909866 0.412336
vn 0.141029 -0.821029 0.553193
vn 0.136094 -0.846125 -0.515317
vn 0.000000 -0.558976 0.829184
vn 0.000000 0.948709 0.316152
vn -0.139293 0.942663 0.303289
vn -0.180525 -0.606427 0.774375
vn 0.000000 0.948709 0.316152
vn 0.000000 0.959395 -0.282068
vn -0.125482 0.951285 -0.281621
vn -0.139293 0.942663 0.303289
vn 0.000000 -0.607163 -0.794578
vn 0.000000 -0.558976 0.829184
vn -0.180525 -0.606427 0.774375
vn -0.203066 -0.649355 -0.732873
vn 0.853513 0.469124 0.226801
vn 0.888532 -0.392735 0.237214
vn 0.893445 -0.393952 -0.215771
vn 0.857995 0.470439 -0.206231
vn 0.893445 -0.393952 -0.215771
vn -0.130793 -0.847791 -0.513949
vn -0.129483 0.907429 -0.399758
vn 0.857995 0.470439 -0.206231
vn -0.096929 -0.937000 0.335613
vn 0.068506 -0.923124 0.378351
vn 0.092443 0.842458 0.530772
vn -0.080348 0.801381 0.592733
vn -0.080348 0.801381 0.592733
vn 0.092443 0.842458 0.530772
vn 0.095439 0.814311 -0.572529
vn -0.088305 0.776071 -0.624433
vn -0.092170 -0.924423 -0.370064
vn 0.072051 -0.906735 -0.415499
vn 0.068506 -0.923124 0.378351
vn -0.096929 -0.937000 0.335613
vn 0.203066 -0.649355 -0.732873
vn 0.000000 -0.607163 -0.794578
vn 0.000000 0.959395 -0.282068
vn 0.125481 0.951286 -0.281621
vn 0.067211 -0.903084 -0.424172
vn -0.056530 -0.894695 -0.443087
vn -0.063071 0.877551 -0.475317
vn 0.062440 0.853129 -0.517950
vn -0.135757 -0.823433 0.550934
vn 0.888532 -0.392735 0.237214
vn 0.853513 0.469124 0.226801
vn -0.135116 0.890832 0.433776
vn -0.135116 0.890832 0.433776
vn 0.853513 0.469124 0.226801
vn 0.857995 0.470439 -0.206231
vn -0.129483 0.907429 -0.399758
vn -0.130793 -0.847791 -0.513949
vn 0.893445 -0.393952 -0.215771
vn 0.888532 -0.392735 0.237214
vn -0.135757 -0.823433 0.550934
vn -0.060010 -0.890607 0.450798
vn 0.062800 -0.909876 0.410100
vn 0.058693 0.862391 0.502829
vn -0.066923 0.872986 0.483133
vn -0.066923 0.872986 0.483133
vn 0.058693 0.862391 0.502829
vn 0.062440 0.853129 -0.517950
vn -0.063071 0.877551 -0.475317
vn -0.056530 -0.894695 -0.443087
vn 0.067211 -0.903084 -0.424172
vn 0.062800 -0.909876 0.410100
vn -0.060010 -0.890607 0.450798
vn 0.072051 -0.906735 -0.415499
vn -0.092170 -0.924423 -0.370064
vn -0.088305 0.776071 -0.624433
vn 0.095439 0.814311 -0.572529
vn -0.136894 0.877811 0.459029
vn 0.139292 0.942663 0.303289
vn 0.180525 -0.606427 0.774376
vn 0.036350 -0.952995 0.300798
vn -0.106106 0.863945 -0.492281
vn 0.125481 0.951286 -0.281621
vn 0.139292 0.942663 0.303289
vn -0.136894 0.877811 0.459029
vn 0.036350 -0.952995 0.300798
vn 0.180525 -0.606427 0.774376
vn 0.203066 -0.649355 -0.732873
vn 0.023498 -0.947138 -0.319965
vn 0.023498 -0.947138 -0.319965
vn 0.203066 -0.649355 -0.732873
vn 0.125481 0.951286 -0.281621
vn -0.106106 0.863945 -0.492281
vn 0.036350 -0.952995 0.300798
vn -0.096929 -0.937000 0.335613
vn -0.080348 0.801381 0.592733
vn -0.136894 0.877811 0.459029
vn 0.120962 0.920277 0.372100
vn 0.092443 0.842458 0.530772
vn 0.068506 -0.923124 0.378351
vn 0.105735 -0.923693 0.368255
vn -0.136894 0.877811 0.459029
vn -0.080348 0.801381 0.592733
vn -0.088305 0.776071 -0.624433
vn -0.106106 0.863945 -0.492281
vn 0.090674 0.918236 -0.385514
vn 0.095439 0.814311 -0.572529
vn 0.092443 0.842458 0.530772
vn 0.120962 0.920277 0.372100
vn 0.023498 -0.947138 -0.319965
vn -0.092170 -0.924423 -0.370064
vn -0.096929 -0.937000 0.335613
vn 0.036350 -0.952995 0.300798
vn 0.105735 -0.923693 0.368255
vn 0.068506 -0.923124 0.378351
vn 0.072051 -0.906735 -0.415499
vn 0.075471 -0.921398 -0.381222
vn 0.075471 -0.921398 -0.381222
vn 0.072051 -0.906735 -0.415499
vn 0.095439 0.814311 -0.572529
vn 0.090674 0.918236 -0.385514
vn -0.106106 0.863945 -0.492281
vn -0.088305 0.776071 -0.624433
vn -0.092170 -0.924423 -0.370064
vn 0.023498 -0.947138 -0.319965
vn -0.073954 -0.915882 -0.394577
vn 0.067211 -0.903084 -0.424172
vn 0.062440 0.853129 -0.517950
vn 0.009037 0.932812 -0.360249
vn 0.090674 0.918236 -0.385514
vn -0.063071 0.877551 -0.475317
vn -0.056530 -0.894695 -0.443087
vn 0.075471 -0.921398 -0.381222
vn 0.105735 -0.923693 0.368255
vn -0.060010 -0.890607 0.450798
vn -0.066923 0.872986 0.483133
vn 0.120962 0.920277 0.372100
vn 0.035215 0.926747 0.374033
vn 0.058693 0.862391 0.502829
vn 0.062800 -0.909876 0.410100
vn -0.046081 -0.909866 0.412335
vn 0.120962 0.920277 0.372100
vn -0.066923 0.872986 0.483133
vn -0.063071 0.877551 -0.475317
vn 0.090674 0.918236 -0.385514
vn 0.009037 0.932812 -0.360249
vn 0.062440 0.853129 -0.517950
vn 0.058693 0.862391 0.502829
vn 0.035215 0.926747 0.374033
vn 0.075471 -0.921398 -0.381222
vn -0.056530 -0.894695 -0.443087
vn -0.060010 -0.890607 0.450798
vn 0.105735 -0.923693 0.368255
vn -0.046081 -0.909866 0.412335
vn 0.062800 -0.909876 0.410100
vn 0.067211 -0.903084 -0.424172
vn -0.073954 -0.915882 -0.394577
vn 0.009037 0.932812 -0.360249
vn -0.129483 0.907429 -0.399758
vn -0.130793 -0.847791 -0.513949
vn -0.073954 -0.915882 -0.394577
vn -0.046081 -0.909866 0.412335
vn -0.135757 -0.823433 0.550934
vn -0.135116 0.890832 0.433776
vn 0.035215 0.926747 0.374033
vn 0.035215 0.926747 0.374033
vn -0.135116 0.890832 0.433776
vn -0.129483 0.907429 -0.399758
vn 0.009037 0.932812 -0.360249
vn -0.073954 -0.915882 -0.394577
vn -0.130793 -0.847791 -0.513949
vn -0.135757 -0.823433 0.550934
vn -0.046081 -0.909866 0.412335
vn 0.000000 -0.558976 0.829184
vn 0.180525 -0.606427 0.774376
vn 0.139292 0.942663 0.303289
vn 0.000000 0.948709 0.316152
vn 0.000000 0.948709 0.316152
vn 0.139292 0.942663 0.303289
vn 0.125481 0.951286 -0.281621
vn 0.000000 0.959395 -0.282068
vn 0.000000 -0.607163 -0.794578
vn 0.203066 -0.649355 -0.732873
vn 0.180525 -0.606427 0.774376
vn 0.000000 -0.558976 0.829184
s off
g halfwall_low:textureEditorIsolateSelectSethalfwall_low1
usemtl initialShadingGroup
f 1/1/1 2/2/2 3/3/3 4/4/4
f 1/1/5 4/4/6 5/5/7 6/6/8
f 2/2/9 8/7/10 9/8/11 3/3/12
f 3/3/13 10/9/14 11/10/15 4/4/16
f 4/4/17 11/10/18 12/11/19 5/5/20
f 5/5/21 14/12/22 13/13/23 6/6/24
f 1/1/25 6/6/26 15/14/27 7/15/28
f 2/2/29 7/15/30 16/16/31 8/7/32
f 8/7/33 17/17/34 18/18/35 9/8/36
f 3/3/37 9/8/38 19/19/39 10/9/40
f 11/10/41 20/20/42 21/21/43 12/11/44
f 5/5/45 12/11/46 22/22/47 14/12/48
f 6/6/49 13/13/50 23/23/51 15/14/52
f 7/24/53 15/25/54 24/26/55 16/27/56
f 8/7/57 16/16/58 25/28/59 17/17/60
f 9/8/61 18/18/62 26/29/63 19/19/64
f 17/17/65 27/30/66 28/31/67 18/18/68
f 10/9/69 19/19/70 29/32/71 20/20/72
f 20/33/73 29/34/74 30/35/75 21/36/76
f 12/11/77 21/21/78 31/37/79 22/22/80
f 15/25/81 23/38/82 32/39/83 24/26/84
f 16/27/85 24/26/86 33/40/87 25/41/88
f 19/19/89 26/29/90 34/42/91 29/32/92
f 18/18/93 28/31/94 35/43/95 26/29/96
f 27/30/97 36/44/98 37/45/99 28/31/100
f 29/34/101 34/46/102 38/47/103 30/35/104
f 21/36/105 30/35/106 39/48/107 31/49/108
f 24/26/109 32/39/110 40/50/111 33/40/112
f 25/28/113 33/51/114 36/44/115 27/30/116
f 28/31/117 37/45/118 41/52/119 35/43/120
f 36/44/121 43/53/122 42/54/123 37/45/124
f 30/35/125 38/47/126 44/55/127 39/48/128
f 34/42/129 35/43/130 41/52/131 38/56/132
f 33/51/133 40/57/134 43/53/135 36/44/136
f 37/45/137 42/54/138 45/58/139 41/52/140
f 38/56/141 41/52/142 45/58/143 44/59/144
f 1/1/145 7/15/146 2/2/147
f 10/9/148 20/20/149 11/10/150
f 17/17/151 25/28/152 27/30/153
f 26/29/154 35/43/155 34/42/156
f 13/60/157 48/61/158 32/62/159 23/63/160
f 39/64/161 46/65/162 22/66/163 31/67/164
f 46/65/165 47/68/166 14/69/167 22/66/168
f 45/70/169 46/65/170 39/64/171 44/71/172
f 42/72/173 47/68/174 46/65/175 45/70/176
f 32/62/177 48/61/178 43/73/179 40/74/180
f 13/60/181 14/69/182 47/68/183 48/61/184
f 43/73/185 48/61/186 47/68/187 42/72/188
f 133/75/189 134/76/190 135/77/191 136/78/192
f 135/79/193 134/80/194 137/81/195 138/82/196
f 139/83/197 140/84/198 141/85/199 142/86/200
f 140/87/201 143/88/202 144/89/203 141/90/204
f 145/91/205 139/92/206 142/93/207 146/94/208
f 147/95/209 148/96/210 149/97/211 150/98/212
f 151/99/213 152/100/214 153/101/215 154/102/216
f 155/103/217 156/104/218 133/105/219 136/106/220
f 156/107/221 137/108/222 134/76/223 133/75/224
f 138/109/225 155/110/226 136/111/227 135/112/228
f 157/113/229 158/114/230 159/115/231 160/116/232
f 158/117/233 153/118/234 152/119/235 159/120/236
f 154/121/237 157/122/238 160/123/239 151/124/240
f 146/125/241 144/126/242 143/127/243 145/128/244
f 161/129/245 162/130/246 163/131/247 164/132/248
f 165/133/249 161/134/250 164/135/251 148/136/252
f 162/137/253 166/138/254 147/139/255 163/140/256
f 166/141/257 165/142/258 148/96/259 147/95/260
f 162/130/261 161/129/262 140/84/263 139/83/264
f 167/143/265 168/144/266 142/86/267 141/85/268
f 161/134/269 165/133/270 143/88/271 140/87/272
f 169/145/273 167/146/274 141/90/275 144/89/276
f 166/138/277 162/137/278 139/92/279 145/91/280
f 168/147/281 170/148/282 146/94/283 142/93/284
f 170/149/285 169/150/286 144/126/287 146/125/288
f 165/142/289 166/141/290 145/128/291 143/127/292
f 171/151/293 172/152/294 152/100/295 151/99/296
f 169/150/297 170/149/298 154/102/299 153/101/300
f 168/144/301 167/143/302 158/114/303 157/113/304
f 173/153/305 174/154/306 160/116/307 159/115/308
f 167/146/309 169/145/310 153/118/311 158/117/312
f 172/155/313 173/156/314 159/120/315 152/119/316
f 170/148/317 168/147/318 157/122/319 154/121/320
f 174/157/321 171/158/322 151/124/323 160/123/324
f 172/152/325 171/151/326 138/82/327 137/81/328
f 174/154/329 173/153/330 156/104/331 155/103/332
f 173/156/333 172/155/334 137/108/335 156/107/336
f 171/158/337 174/157/338 155/110/339 138/109/340
f 175/159/341 176/160/342 164/132/343 163/131/344
f 176/161/345 149/162/346 148/136/347 164/135/348
f 150/163/349 175/164/350 163/140/351 147/139/352
f 177/165/353 178/166/354 179/167/355 180/168/356
f 179/169/357 181/170/358 182/171/359 180/172/360
f 183/173/361 184/174/362 185/175/363 186/176/364
f 186/177/365 185/178/366 187/179/367 188/180/368
f 189/181/369 190/182/370 184/183/371 183/184/372
f 191/185/373 150/98/374 149/97/375 192/186/376
f 193/187/377 194/188/378 195/189/379 196/190/380
f 197/191/381 178/192/382 177/193/383 198/194/384
f 198/195/385 177/165/386 180/168/387 182/196/388
f 181/197/389 179/198/390 178/199/391 197/200/392
f 199/201/393 200/202/394 201/203/395 202/204/396
f 202/205/397 201/206/398 196/207/399 195/208/400
f 194/209/401 193/210/402 200/211/403 199/212/404
f 190/213/405 189/214/406 188/215/407 187/216/408
f 203/217/409 204/218/410 205/219/411 206/220/412
f 207/221/413 192/222/414 204/223/415 203/224/416
f 206/225/417 205/226/418 191/227/419 208/228/420
f 208/229/421 191/185/422 192/186/423 207/230/424
f 206/220/425 183/173/426 186/176/427 203/217/428
f 209/231/429 185/175/430 184/174/431 210/232/432
f 203/224/433 186/177/434 188/180/435 207/221/436
f 211/233/437 187/179/438 185/178/439 209/234/440
f 208/228/441 189/181/442 183/184/443 206/225/444
f 210/235/445 184/183/446 190/182/447 212/236/448
f 212/237/449 190/213/450 187/216/451 211/238/452
f 207/230/453 188/215/454 189/214/455 208/229/456
f 213/239/457 193/187/458 196/190/459 214/240/460
f 211/238/461 195/189/462 194/188/463 212/237/464
f 210/232/465 199/201/466 202/204/467 209/231/468
f 215/241/469 201/203/470 200/202/471 216/242/472
f 209/234/473 202/205/474 195/208/475 211/233/476
f 214/243/477 196/207/478 201/206/479 215/244/480
f 212/236/481 194/209/482 199/212/483 210/235/484
f 216/245/485 200/211/486 193/210/487 213/246/488
f 214/240/489 182/171/490 181/170/491 213/239/492
f 216/242/493 197/191/494 198/194/495 215/241/496
f 215/244/497 198/195/498 182/196/499 214/243/500
f 213/246/501 181/197/502 197/200/503 216/245/504
f 175/159/505 205/219/506 204/218/507 176/160/508
f 176/161/509 204/223/510 192/222/511 149/162/512
f 150/163/513 191/227/514 205/226/515 175/164/516
