# This file uses centimeters as units for non-parametric coordinates.

mtllib Cobble_arch_Faceremoved_revrs.mtl
g default
v -0.751999 3.262577 1.696647
v -0.677626 3.312572 1.696647
v -0.677626 3.312572 0.010658
v -0.751999 3.262577 0.010658
v -0.751999 2.993274 1.696647
v -0.677626 3.262577 1.754042
v -0.005791 3.312572 1.696647
v -0.005791 3.312572 0.010658
v -0.677626 3.312572 -1.603363
v -0.751999 3.262577 -1.603363
v -0.751999 2.993274 -1.603363
v -0.751999 2.909209 1.696647
v -0.677626 2.993274 1.754042
v -0.005791 3.262577 1.754042
v 0.661247 3.312572 1.696647
v 0.661247 3.312572 0.010658
v -0.005791 3.312572 -1.603363
v -0.677626 3.262577 -1.653358
v -0.677626 2.993274 -1.653358
v -0.751999 1.705504 -1.603363
v -0.677626 2.912765 1.746642
v -0.005791 2.993274 1.754042
v 0.661247 3.262577 1.754042
v 0.661247 3.312572 -1.603363
v 0.735620 3.262577 1.696647
v 0.735620 3.262577 0.010658
v -0.005791 3.262577 -1.653358
v -0.005791 2.993274 -1.653358
v -0.677626 1.705504 -1.653358
v -0.751999 0.382856 -1.603363
v -0.005791 2.912765 1.746642
v 0.661246 2.993274 1.754042
v 0.661247 3.262577 -1.653358
v 0.735620 3.262577 -1.603363
v 0.735620 2.993274 1.696647
v 0.735620 2.724796 0.010658
v 0.661247 2.993274 -1.653358
v -0.005791 1.705504 -1.653358
v -0.677626 0.382856 -1.653358
v -0.751999 0.162567 -1.603363
v 0.661246 2.912765 1.746642
v 0.735620 2.993274 -1.603363
v 0.735620 2.676214 0.127442
v 0.735620 2.909209 1.696647
v 0.735620 2.852366 0.897369
v 0.661247 1.705504 -1.653358
v -0.005791 0.382856 -1.653358
v -0.677626 0.177974 -1.653358
v -0.677626 0.140629 -1.603363
v 0.735620 2.401850 -0.483577
v 0.735620 2.056131 -0.875874
v 0.735620 1.672899 -1.011051
v 0.735620 1.705504 -1.603363
v 0.661246 0.382856 -1.653358
v -0.005791 0.177974 -1.653358
v -0.005791 0.140629 -1.603363
v 0.735620 0.382856 -1.011051
v 0.735620 0.382856 -1.603363
v 0.661247 0.177974 -1.653358
v 0.661247 0.127979 -1.603363
v 0.661247 0.127979 -1.011051
v 0.735620 0.162567 -1.011051
v 0.735620 0.162567 -1.603363
v 0.859130 2.513176 1.167640
v 0.859130 2.930384 1.168380
v 0.873664 2.457210 0.436638
v 0.870224 2.908732 0.571787
v 0.955889 2.214446 -0.187344
v 0.955889 2.541848 -0.404383
v 0.955889 1.796671 -0.634122
v 0.955889 2.092422 -0.872307
v 0.955889 1.108134 -0.919818
v 0.955889 1.292379 -1.214184
v 0.955889 0.423019 -0.967683
v 0.955889 0.562706 -1.293031
v 0.990014 2.961737 1.100992
v 0.990014 2.945505 0.608213
v 0.990014 2.481824 1.100385
v 0.990014 2.442490 0.505853
v 0.990268 2.930084 0.527066
v 1.088058 2.592453 -0.367475
v 0.990969 2.424161 0.422793
v 1.088058 2.207432 -0.139318
v 1.117416 2.551837 -0.445859
v 1.117416 2.178040 -0.841884
v 1.117416 2.162625 -0.204398
v 1.117416 1.823382 -0.571925
v 1.089831 2.045973 -0.940668
v 1.089831 1.401589 -1.251357
v 1.089831 1.721157 -0.660192
v 1.089831 1.178971 -0.901758
v 1.088160 1.254113 -1.232499
v 1.088160 0.648863 -1.308504
v 1.088160 1.055902 -0.893782
v 1.088160 0.500301 -0.938250
v 1.090567 0.498600 -1.320918
v 1.090567 0.371576 -0.946168
v 0.859130 2.513176 1.490911
v 0.859130 2.930384 1.482628
v 1.045278 2.974975 1.445950
v 1.045277 2.974975 1.208970
v 1.045277 2.468585 1.452196
v 1.045277 2.468585 1.208412
v 1.062171 2.979025 1.748395
v 1.062171 2.979022 1.515339
v 1.062171 2.464524 1.748951
v 1.062171 2.464538 1.520978
v 0.994707 0.291675 -1.312998
v 0.994707 0.254924 -0.970724
v 1.090567 0.113258 -1.399850
v 1.090567 0.113331 -0.895752
v 1.090567 0.282170 -1.394455
v 1.090567 0.227770 -0.890436
v -0.751999 2.398311 -1.603363
v -0.677626 2.403135 -1.653358
v -0.005791 2.382084 -1.653358
v 0.661247 2.361185 -1.653358
v 0.735620 2.351700 -1.603363
v 0.595931 3.312572 1.696647
v 0.595931 3.312572 0.010658
v 0.595931 3.312572 -1.603363
v 0.595931 3.262577 -1.653358
v 0.595931 2.993274 -1.653358
v 0.595932 2.363231 -1.653358
v 0.595931 1.705504 -1.653358
v 0.595930 0.382856 -1.653358
v 0.595931 0.177974 -1.653358
v 0.595931 0.129218 -1.603363
v 0.595931 0.129218 -1.011051
v 0.662996 0.162860 -1.011051
v 0.662772 0.382856 -1.011051
v 0.661440 1.672899 -1.011051
v 0.662382 2.056131 -0.875874
v 0.663755 2.401850 -0.483577
v 0.665426 2.676214 0.127442
v 0.648036 2.852366 0.897369
v 0.595931 2.912765 1.746642
v 0.595931 2.993274 1.754042
v 0.595931 3.262577 1.754042
v -0.751999 3.262577 0.901208
v -0.677626 3.312572 0.899566
v -0.005791 3.312572 0.904895
v 0.595931 3.312572 0.897478
v 0.661247 3.312572 0.862711
v 0.735620 3.262577 0.861951
v 0.735620 2.967516 0.881365
v 0.735620 2.032712 -1.603363
v 0.661247 2.035375 -1.653358
v 0.595931 2.039128 -1.653358
v -0.005791 2.073699 -1.653358
v -0.677626 2.061883 -1.653358
v -0.751999 2.055459 -1.603363
v 0.735620 2.389103 -0.672359
v 0.735620 2.050104 -0.982436
v 0.735620 1.681337 -1.082983
v 0.670163 2.945513 0.608271
v 0.670163 2.961737 1.104077
v 0.581071 2.930384 1.172144
v 0.707781 2.974975 1.211808
v 0.707781 2.974975 1.446957
v 0.581071 2.930384 1.483963
v 0.719280 2.979022 1.516248
v 0.719280 2.979027 1.749433
v 0.719280 2.464526 1.749989
v 0.719280 2.464538 1.521887
v 0.678558 2.513176 1.492246
v 0.707781 2.468585 1.453203
v 0.707781 2.468585 1.211250
v 0.678558 2.513176 1.171404
v 0.670163 2.481824 1.103471
v 0.670163 2.442501 0.505901
v 0.688452 2.457226 0.436697
v 0.670813 2.424176 0.422846
v 0.736902 2.218530 -0.120445
v 0.744422 2.227104 -0.163494
v 0.756886 2.173480 -0.187986
v 0.756886 1.830001 -0.566158
v 0.744422 1.805005 -0.627258
v 0.738108 1.727954 -0.654976
v 0.738108 1.201481 -0.891412
v 0.744422 1.137163 -0.912144
v 0.736971 1.079779 -0.888985
v 0.736971 0.513904 -0.936134
v 0.744422 0.439862 -0.965666
v 0.738610 0.385955 -0.944636
v 0.770845 0.265030 -0.964295
v 0.738610 0.237003 -0.889166
v 0.738610 0.117826 -0.894849
v 0.738610 0.117753 -1.398903
v 0.738610 0.292607 -1.392869
v 0.673358 0.303961 -1.317487
v 0.738610 0.515788 -1.318715
v 0.646935 0.582366 -1.290208
v 0.736971 0.665098 -1.305631
v 0.736971 1.282704 -1.227388
v 0.646935 1.326368 -1.206028
v 0.738108 1.428546 -1.238841
v 0.738108 2.054119 -0.934402
v 0.646935 2.102187 -0.864242
v 0.756886 2.186007 -0.834926
v 0.756886 2.565469 -0.426323
v 0.646935 2.557497 -0.377698
v 0.736902 2.606435 -0.345048
v 0.670336 2.930095 0.527130
v 0.588622 2.908743 0.571857
vt 0.247564 0.442827
vt 0.247798 0.437878
vt 0.320010 0.438092
vt 0.320030 0.443040
vt 0.247682 0.412279
vt 0.320002 0.412539
vt 0.449721 0.438856
vt 0.450324 0.443710
vt 0.051545 0.484395
vt 0.051801 0.466498
vt 0.271124 0.487301
vt 0.271247 0.469419
vt 0.275662 0.469498
vt 0.275621 0.487325
vt 0.183981 0.436909
vt 0.178001 0.437988
vt 0.176838 0.411960
vt 0.183048 0.411879
vt 0.248296 0.389426
vt 0.320101 0.389764
vt 0.451189 0.413678
vt 0.047494 0.484339
vt 0.047747 0.466442
vt 0.271361 0.463832
vt 0.275459 0.464140
vt 0.296433 0.469171
vt 0.296623 0.487164
vt 0.177802 0.388556
vt 0.183822 0.389331
vt 0.450722 0.390920
vt 0.251126 0.386951
vt 0.251180 0.382018
vt 0.320154 0.382334
vt 0.320119 0.387283
vt 0.456960 0.413870
vt 0.455199 0.440109
vt 0.026605 0.484041
vt 0.026854 0.466146
vt 0.052299 0.426985
vt 0.048227 0.427252
vt 0.048397 0.404635
vt 0.052500 0.404271
vt 0.296322 0.463792
vt 0.296088 0.249649
vt 0.296177 0.231726
vt 0.277516 0.231740
vt 0.277362 0.249611
vt 0.456283 0.390202
vt 0.451312 0.383639
vt 0.450588 0.388475
vt 0.215280 0.248326
vt 0.217006 0.228749
vt 0.159519 0.211305
vt 0.158698 0.247053
vt 0.026599 0.244274
vt 0.045297 0.244673
vt 0.045688 0.226785
vt 0.026985 0.226390
vt 0.027303 0.425535
vt 0.027373 0.405008
vt 0.052585 0.381166
vt 0.048434 0.381063
vt 0.049527 0.296389
vt 0.053595 0.296814
vt 0.053274 0.284878
vt 0.296152 0.226336
vt 0.277424 0.226375
vt 0.275316 0.249592
vt 0.275508 0.231748
vt 0.271097 0.231629
vt 0.270813 0.249540
vt 0.051770 0.226899
vt 0.051374 0.244795
vt 0.027756 0.185878
vt 0.046506 0.185004
vt 0.046774 0.163588
vt 0.028003 0.165496
vt 0.047327 0.244713
vt 0.047719 0.226823
vt 0.027074 0.380337
vt 0.029587 0.291052
vt 0.050295 0.285383
vt 0.052415 0.282932
vt 0.275358 0.226418
vt 0.271271 0.226049
vt 0.028061 0.141119
vt 0.046749 0.141610
vt 0.046800 0.056794
vt 0.028708 0.052662
vt 0.048545 0.184902
vt 0.052621 0.184339
vt 0.052924 0.163249
vt 0.048825 0.163371
vt 0.035946 0.274644
vt 0.038856 0.269970
vt 0.048054 0.044941
vt 0.033665 0.036731
vt 0.048829 0.141650
vt 0.052979 0.141715
vt 0.052910 0.057443
vt 0.048833 0.057040
vt 0.036532 0.031993
vt 0.049976 0.041593
vt 0.082759 0.028251
vt 0.090066 0.049452
vt 0.085455 0.033751
vt 0.052235 0.045228
vt 0.049378 0.045639
vt 0.051061 0.042886
vt 0.083837 0.030319
vt 0.183262 0.441715
vt 0.183955 0.386906
vt 0.178302 0.385845
vt 0.183314 0.382051
vt 0.455810 0.387465
vt 0.218244 0.221118
vt 0.167351 0.208252
vt 0.114630 0.187978
vt 0.094560 0.164919
vt 0.088635 0.140025
vt 0.143895 0.096132
vt 0.129760 0.110154
vt 0.159350 0.140726
vt 0.173891 0.126302
vt 0.210716 0.140572
vt 0.243695 0.140524
vt 0.155830 0.085851
vt 0.184255 0.114446
vt 0.222051 0.081624
vt 0.186190 0.057669
vt 0.354283 0.263679
vt 0.326180 0.263441
vt 0.250472 0.140507
vt 0.314419 0.137316
vt 0.194783 0.049597
vt 0.231254 0.073118
vt 0.277440 0.052067
vt 0.267730 0.015742
vt 0.387707 0.266138
vt 0.359311 0.263742
vt 0.321716 0.136535
vt 0.358141 0.136213
vt 0.281137 0.011782
vt 0.290399 0.049131
vt 0.332360 0.046907
vt 0.326848 0.009868
vt 0.416207 0.267048
vt 0.392618 0.266741
vt 0.369745 0.137007
vt 0.417593 0.136589
vt 0.344917 0.010996
vt 0.348611 0.046861
vt 0.395678 0.063337
vt 0.402214 0.029136
vt 0.451159 0.266916
vt 0.423164 0.266518
vt 0.428034 0.136959
vt 0.468836 0.137095
vt 0.414768 0.039680
vt 0.407896 0.071927
vt 0.444902 0.100621
vt 0.456642 0.069227
vt 0.483789 0.267087
vt 0.457500 0.266877
vt 0.479362 0.137105
vt 0.493213 0.140105
vt 0.470338 0.078325
vt 0.457672 0.109061
vt 0.467021 0.114263
vt 0.483394 0.090423
vt 0.205742 0.144661
vt 0.247162 0.144265
vt 0.152258 0.093106
vt 0.176978 0.117956
vt 0.226254 0.075415
vt 0.192143 0.055305
vt 0.357643 0.261142
vt 0.322699 0.260532
vt 0.318618 0.141439
vt 0.282653 0.048019
vt 0.275119 0.015889
vt 0.389991 0.263220
vt 0.364245 0.141230
vt 0.340474 0.044311
vt 0.336369 0.012673
vt 0.419434 0.263518
vt 0.425149 0.141061
vt 0.403034 0.066695
vt 0.408678 0.038070
vt 0.454669 0.264037
vt 0.474655 0.141281
vt 0.452983 0.103777
vt 0.462875 0.075723
vt 0.487711 0.264200
vt 0.490356 0.267156
vt 0.100318 0.026422
vt 0.101842 0.013693
vt 0.099967 0.057722
vt 0.101211 0.070187
vt 0.147870 0.152404
vt 0.117814 0.121337
vt 0.103892 0.135105
vt 0.134252 0.165873
vt 0.185899 0.138787
vt 0.201750 0.138814
vt 0.308350 0.264573
vt 0.319849 0.264635
vt 0.126705 0.118377
vt 0.151011 0.143641
vt 0.182014 0.144591
vt 0.305578 0.260460
vt 0.178123 0.138225
vt 0.302872 0.264932
vt 0.496002 0.265107
vt 0.169646 0.273737
vt 0.169298 0.307312
vt 0.169388 0.262483
vt 0.169052 0.314939
vt 0.490546 0.087184
vt 0.466441 0.122297
vt 0.474029 0.128218
vt 0.501611 0.096081
vt 0.498970 0.137672
vt 0.500156 0.266895
vt 0.127155 0.189108
vt 0.498169 0.480772
vt 0.496821 0.482022
vt 0.487944 0.481996
vt 0.435932 0.481819
vt 0.419562 0.481794
vt 0.398509 0.481754
vt 0.371506 0.481703
vt 0.339660 0.481282
vt 0.496819 0.483382
vt 0.498235 0.481981
vt 0.487942 0.483355
vt 0.435935 0.483197
vt 0.419558 0.483145
vt 0.398505 0.483104
vt 0.371495 0.483024
vt 0.339667 0.482931
vt 0.307338 0.482823
vt 0.305345 0.481418
vt 0.101621 0.165478
vt 0.093387 0.139415
vt 0.243705 0.150524
vt 0.210524 0.150572
vt 0.205509 0.153354
vt 0.201543 0.149365
vt 0.185814 0.149338
vt 0.181922 0.153284
vt 0.111123 0.013789
vt 0.178037 0.148945
vt 0.110068 0.026531
vt 0.109717 0.057831
vt 0.110492 0.070298
vt 0.302863 0.257373
vt 0.305556 0.254330
vt 0.308343 0.257132
vt 0.319755 0.257194
vt 0.322578 0.254401
vt 0.326095 0.256389
vt 0.354340 0.256628
vt 0.357693 0.254910
vt 0.359368 0.256684
vt 0.386758 0.258386
vt 0.388907 0.256376
vt 0.391801 0.258781
vt 0.415899 0.259095
vt 0.419042 0.256699
vt 0.422880 0.258759
vt 0.450101 0.259146
vt 0.453398 0.257197
vt 0.456420 0.259125
vt 0.483203 0.259340
vt 0.486983 0.257381
vt 0.489729 0.259392
vt 0.495553 0.258014
vt 0.158080 0.315202
vt 0.499460 0.259154
vt 0.158337 0.307259
vt 0.158685 0.273687
vt 0.158417 0.262036
vt 0.497695 0.148624
vt 0.492377 0.150155
vt 0.478172 0.148105
vt 0.473306 0.150937
vt 0.467698 0.148071
vt 0.426057 0.147932
vt 0.422772 0.150710
vt 0.415701 0.147602
vt 0.369166 0.148009
vt 0.363496 0.150897
vt 0.357537 0.147490
vt 0.320233 0.147821
vt 0.316713 0.151131
vt 0.312709 0.148303
vt 0.250482 0.150509
vt 0.247170 0.153069
vn -0.985380 0.170370 0.000000
vn -0.066868 0.997762 0.000000
vn -0.066805 0.997766 0.000000
vn -0.987926 0.154926 0.000000
vn -0.066868 0.997762 0.000000
vn 0.000000 1.000000 0.000000
vn 0.000000 1.000000 0.000000
vn -0.066805 0.997766 0.000000
vn -0.066805 0.997766 0.000000
vn -0.557885 0.829918 0.000000
vn -0.557885 0.829918 0.000000
vn -0.987926 0.154926 0.000000
vn -0.557888 0.000000 0.829916
vn -0.996986 -0.000815 0.077581
vn -0.075094 -0.019999 0.996976
vn -0.557888 0.000000 0.829916
vn -0.557885 0.829918 0.000000
vn -0.557888 0.000000 0.829916
vn 0.000000 0.176917 0.984226
vn 0.000000 0.998284 0.058558
vn 0.000000 1.000000 0.000000
vn 0.000000 1.000000 0.000000
vn 0.000000 1.000000 0.000000
vn 0.000000 1.000000 0.000000
vn -0.066805 0.997766 0.000000
vn 0.000000 1.000000 0.000000
vn 0.000000 0.999549 -0.030031
vn -0.557885 0.829918 0.000000
vn -0.557885 0.829918 0.000000
vn -0.557887 0.000000 -0.829917
vn -0.066289 0.000000 -0.997800
vn -0.998868 0.000000 -0.047571
vn -0.996986 -0.000815 0.077581
vn -0.851353 0.000000 0.524593
vn -0.268239 0.000000 0.963352
vn -0.075094 -0.019999 0.996976
vn -0.557888 0.000000 0.829916
vn -0.075094 -0.019999 0.996976
vn 0.000000 -0.021148 0.999776
vn 0.000000 0.176917 0.984226
vn 0.000000 0.998284 0.058558
vn 0.000000 0.176917 0.984226
vn 0.000000 0.176917 0.984226
vn 0.000000 0.998294 0.058379
vn 0.000000 1.000000 0.000000
vn 0.000000 1.000000 0.000000
vn 0.000000 0.999549 -0.030031
vn 0.000000 0.999549 -0.030031
vn 0.334603 0.942359 0.000000
vn 0.983523 0.180782 0.000000
vn 0.987183 0.159595 0.000000
vn 0.335966 0.941874 0.000000
vn -0.557885 0.829918 0.000000
vn 0.000000 0.999549 -0.030031
vn 0.000000 0.154692 -0.987963
vn -0.557887 0.000000 -0.829917
vn -0.557887 0.000000 -0.829917
vn 0.000000 0.154692 -0.987963
vn 0.000000 0.000000 -1.000000
vn -0.066289 0.000000 -0.997800
vn -0.997475 0.000000 -0.071016
vn -0.067486 0.000000 -0.997720
vn -0.067412 0.000000 -0.997725
vn -0.995209 0.000000 -0.097773
vn -0.075094 -0.019999 0.996976
vn -0.268239 0.000000 0.963352
vn 0.000000 0.000000 1.000000
vn 0.000000 -0.021148 0.999776
vn 0.000000 0.176917 0.984226
vn 0.000000 -0.021148 0.999776
vn 0.000000 -0.021148 0.999776
vn 0.000000 0.176917 0.984226
vn 0.000000 0.999549 -0.030031
vn 0.000000 0.999549 -0.030031
vn 0.000000 0.154692 -0.987963
vn 0.000000 0.154692 -0.987963
vn 0.335966 0.941874 0.000000
vn 0.987183 0.159595 0.000000
vn 0.557882 0.829920 0.000000
vn 0.557882 0.829920 0.000000
vn 0.983523 0.180782 0.000000
vn 1.000000 0.000000 0.000000
vn 1.000000 0.000000 0.000000
vn 0.987183 0.159595 0.000000
vn 0.000000 0.154692 -0.987963
vn 0.000000 0.154692 -0.987963
vn 0.000000 0.000000 -1.000000
vn 0.000000 0.000000 -1.000000
vn -0.067486 0.000000 -0.997720
vn 0.000000 0.000000 -1.000000
vn 0.000000 0.000000 -1.000000
vn -0.067412 0.000000 -0.997725
vn -0.992445 0.000000 -0.122693
vn -0.066524 0.000000 -0.997785
vn -0.067151 0.000000 -0.997743
vn -0.992653 0.000000 -0.120995
vn 0.000000 -0.021148 0.999776
vn 0.000000 0.000000 1.000000
vn 0.000000 -0.988357 0.152151
vn 0.000000 -0.021148 0.999776
vn 0.557886 0.000000 0.829917
vn 0.374168 -0.014182 0.927252
vn 0.996996 -0.000815 0.077455
vn 0.557886 0.000000 0.829917
vn 0.987183 0.159595 0.000000
vn 1.000000 0.000000 0.000000
vn 0.998769 0.000000 -0.049607
vn 0.557882 0.829920 0.000000
vn 0.000000 0.000000 -1.000000
vn 0.000000 0.000000 -1.000000
vn 0.000000 0.000000 -1.000000
vn 0.000000 0.000000 -1.000000
vn 0.000000 0.707108 -0.707105
vn 0.557882 0.829920 0.000000
vn 0.998769 0.000000 -0.049607
vn 0.337861 0.000000 -0.941196
vn -0.066524 0.000000 -0.997785
vn -0.000000 0.000000 -1.000000
vn 0.000000 0.000000 -1.000000
vn -0.067151 0.000000 -0.997743
vn -0.992653 0.000000 -0.120995
vn -0.067151 0.000000 -0.997743
vn -0.557887 0.000000 -0.829917
vn -0.557885 -0.829918 0.000000
vn 0.374168 -0.014182 0.927252
vn 0.268237 -0.000000 0.963353
vn 0.851352 -0.000000 0.524594
vn 0.996996 -0.000815 0.077455
vn -0.000000 0.000000 -1.000000
vn 0.000000 0.000000 -1.000000
vn 0.000000 0.000000 -1.000000
vn 0.000000 0.000000 -1.000000
vn 0.343751 0.000000 -0.939061
vn 0.997360 0.000000 -0.072620
vn 0.994979 0.000000 -0.100085
vn 0.335589 0.000000 -0.942009
vn -0.067151 0.000000 -0.997743
vn 0.000000 0.000000 -1.000000
vn -0.000896 -0.200002 -0.979795
vn -0.557887 0.000000 -0.829917
vn 0.000000 0.000000 -1.000000
vn 0.000000 0.000000 -1.000000
vn -0.001870 -0.197196 -0.980362
vn -0.000896 -0.200002 -0.979795
vn 0.336699 0.000000 -0.941612
vn 0.992460 0.000000 -0.122573
vn 0.992640 0.000000 -0.121100
vn 0.337672 0.000000 -0.941264
vn -0.557887 0.000000 -0.829917
vn -0.000896 -0.200002 -0.979795
vn -0.008595 -0.997998 -0.062666
vn -0.557885 -0.829918 0.000000
vn 0.935213 0.000000 -0.354086
vn 0.668655 -0.743573 0.000000
vn 0.557882 -0.829920 0.000000
vn 0.992640 0.000000 -0.121100
vn -0.000896 -0.200002 -0.979795
vn -0.001870 -0.197196 -0.980362
vn -0.018192 -0.997590 -0.066950
vn -0.008595 -0.997998 -0.062666
vn 0.337672 0.000000 -0.941264
vn 0.992640 0.000000 -0.121100
vn 0.557882 -0.829920 0.000000
vn 0.557885 0.000000 -0.829918
vn 0.557882 -0.829920 0.000000
vn 0.557882 -0.829920 0.000000
vn 0.668655 -0.743573 0.000000
vn 0.449000 -0.893532 0.000000
vn -0.557888 0.000000 0.829916
vn -0.557888 0.000000 0.829916
vn -0.557885 0.829918 0.000000
vn -0.557885 0.829918 0.000000
vn -0.557887 0.000000 -0.829917
vn -0.557885 0.829918 0.000000
vn 0.000000 0.707109 0.707105
vn 0.557886 0.000000 0.829917
vn 0.557886 0.000000 0.829917
vn 0.557882 0.829920 0.000000
vn 0.557882 0.829920 0.000000
vn 0.000000 0.707108 -0.707105
vn -0.557885 -0.829918 0.000000
vn -0.557887 0.000000 -0.829917
vn -0.557885 -0.829918 0.000000
vn 0.557885 0.000000 -0.829918
vn 0.557882 -0.829920 0.000000
vn 0.557882 -0.829920 0.000000
vn 1.000000 0.000000 0.000000
vn 0.000000 -0.989074 0.147420
vn 1.000000 -0.000000 0.000000
vn 1.000000 0.000000 0.000000
vn 0.997360 0.000000 -0.072620
vn 1.000000 0.000000 0.000000
vn 1.000000 0.000000 0.000000
vn 0.994979 0.000000 -0.100085
vn 1.000000 0.000000 0.000000
vn 0.935213 0.000000 -0.354086
vn 0.992640 0.000000 -0.121100
vn 0.992460 0.000000 -0.122573
vn 0.250953 0.951423 -0.178374
vn 0.248591 0.953279 0.171642
vn 0.239373 -0.955972 0.169756
vn 0.244510 -0.953867 -0.174218
vn 0.251748 0.966944 0.040523
vn 0.224897 -0.967213 0.117988
vn 0.188961 -0.981972 0.004930
vn 0.290886 0.952420 -0.091008
vn 0.129258 0.950594 -0.282248
vn 0.354020 -0.848299 0.393774
vn 0.352180 -0.884899 0.304832
vn 0.198825 0.912750 -0.356869
vn 0.144841 0.770326 -0.620982
vn 0.200800 -0.704653 0.680547
vn 0.197489 -0.778463 0.595813
vn 0.190670 0.680080 -0.707910
vn 0.139645 0.494273 -0.858017
vn 0.259905 -0.374193 0.890185
vn 0.229396 -0.452256 0.861883
vn 0.201441 0.357885 -0.911778
vn 0.105842 0.162695 -0.980983
vn 0.194768 -0.057358 0.979171
vn 0.157853 -0.147917 0.976321
vn 0.180784 0.079375 -0.980315
vn 0.136469 0.145160 -0.979952
vn 0.275476 -0.007712 0.961277
vn 0.186030 0.405629 0.894907
vn 0.142239 0.382831 -0.912803
vn 0.184950 0.941941 -0.280250
vn 0.185038 -0.942203 -0.279309
vn 0.224897 -0.967213 0.117988
vn 0.251748 0.966944 0.040523
vn 0.163266 -0.925765 0.341033
vn 0.189842 0.949846 -0.248500
vn 0.290886 0.952420 -0.091008
vn 0.188961 -0.981972 0.004930
vn 0.189842 0.949846 -0.248500
vn 0.163266 -0.925765 0.341033
vn 0.354020 -0.848299 0.393774
vn 0.129258 0.950594 -0.282248
vn 0.153754 -0.785460 0.599510
vn 0.140755 0.944642 -0.296378
vn 0.198825 0.912750 -0.356869
vn 0.352180 -0.884899 0.304832
vn 0.140755 0.944642 -0.296378
vn 0.153754 -0.785460 0.599510
vn 0.200800 -0.704653 0.680547
vn 0.144841 0.770326 -0.620982
vn 0.168908 -0.666634 0.725995
vn 0.134759 0.566400 -0.813038
vn 0.190670 0.680080 -0.707910
vn 0.197489 -0.778463 0.595813
vn 0.134759 0.566400 -0.813038
vn 0.168908 -0.666634 0.725995
vn 0.259905 -0.374193 0.890185
vn 0.139645 0.494273 -0.858017
vn 0.128708 0.016427 0.991547
vn 0.107215 0.046634 -0.993142
vn 0.201441 0.357885 -0.911778
vn 0.229396 -0.452256 0.861883
vn 0.107215 0.046634 -0.993142
vn 0.128708 0.016427 0.991547
vn 0.194768 -0.057358 0.979171
vn 0.105842 0.162695 -0.980983
vn 0.147204 0.002943 0.989102
vn 0.130690 0.093602 -0.986995
vn 0.180784 0.079375 -0.980315
vn 0.157853 -0.147917 0.976321
vn 0.130690 0.093602 -0.986995
vn 0.147204 0.002943 0.989102
vn 0.275476 -0.007712 0.961277
vn 0.136469 0.145160 -0.979952
vn 0.242473 -0.952013 -0.186757
vn 0.234965 0.954131 -0.185540
vn 0.099946 0.413361 0.905065
vn 0.100257 -0.404240 0.909142
vn 0.183414 0.976103 -0.116543
vn 0.184359 -0.973974 -0.131854
vn 0.239373 -0.955972 0.169756
vn 0.248591 0.953279 0.171642
vn 0.185038 -0.942203 -0.279309
vn 0.184950 0.941941 -0.280250
vn 0.250953 0.951423 -0.178374
vn 0.244510 -0.953867 -0.174218
vn 0.184359 -0.973974 -0.131854
vn 0.183414 0.976103 -0.116543
vn 0.234965 0.954131 -0.185540
vn 0.242473 -0.952013 -0.186757
vn 0.154184 0.253276 -0.955028
vn 0.223626 0.253238 0.941202
vn 0.051544 -0.969267 0.240549
vn 0.047059 -0.936158 -0.348415
vn 0.142239 0.382831 -0.912803
vn 0.186030 0.405629 0.894907
vn 0.223626 0.253238 0.941202
vn 0.154184 0.253276 -0.955028
vn -0.998868 0.000000 -0.047571
vn -0.066289 0.000000 -0.997800
vn -0.067486 0.000000 -0.997720
vn -0.997475 0.000000 -0.071016
vn -0.066289 0.000000 -0.997800
vn 0.000000 0.000000 -1.000000
vn 0.000000 0.000000 -1.000000
vn -0.067486 0.000000 -0.997720
vn 0.000000 0.000000 -1.000000
vn 0.000000 0.000000 -1.000000
vn 0.000000 0.000000 -1.000000
vn 0.000000 0.000000 -1.000000
vn 0.337861 0.000000 -0.941196
vn 0.998769 0.000000 -0.049607
vn 0.997360 0.000000 -0.072620
vn 0.343751 0.000000 -0.939061
vn 1.000000 0.000000 0.000000
vn 1.000000 -0.000000 0.000000
vn 0.000000 -0.840708 0.541488
vn 1.000000 0.000000 0.000000
vn 0.000000 1.000000 0.000000
vn 0.000000 1.000000 0.000000
vn 0.334603 0.942359 0.000000
vn 0.335966 0.941874 0.000000
vn 0.000000 0.999549 -0.030031
vn 0.000000 1.000000 0.000000
vn 0.335966 0.941874 0.000000
vn 0.557882 0.829920 0.000000
vn 0.000000 0.154692 -0.987963
vn 0.000000 0.999549 -0.030031
vn 0.557882 0.829920 0.000000
vn 0.000000 0.707108 -0.707105
vn 0.000000 0.000000 -1.000000
vn 0.000000 0.154692 -0.987963
vn 0.000000 0.707108 -0.707105
vn 0.337861 0.000000 -0.941196
vn 0.000000 0.000000 -1.000000
vn 0.000000 0.000000 -1.000000
vn 0.337861 0.000000 -0.941196
vn 0.343751 0.000000 -0.939061
vn 0.335589 0.000000 -0.942009
vn 0.000000 0.000000 -1.000000
vn 0.000000 0.000000 -1.000000
vn 0.343751 0.000000 -0.939061
vn 0.000000 0.000000 -1.000000
vn 0.000000 0.000000 -1.000000
vn 0.336699 0.000000 -0.941612
vn 0.337672 0.000000 -0.941264
vn -0.001870 -0.197196 -0.980362
vn 0.000000 0.000000 -1.000000
vn 0.337672 0.000000 -0.941264
vn 0.557885 0.000000 -0.829918
vn -0.018192 -0.997590 -0.066950
vn -0.001870 -0.197196 -0.980362
vn 0.557885 0.000000 -0.829918
vn 0.557882 -0.829920 0.000000
vn -0.018911 -0.997198 0.072373
vn -0.018192 -0.997590 -0.066950
vn 0.557882 -0.829920 0.000000
vn 0.449000 -0.893532 0.000000
vn 0.668655 -0.743573 0.000000
vn 0.000000 0.000000 1.000000
vn -0.018911 -0.997198 0.072373
vn 0.449000 -0.893532 0.000000
vn 0.000000 0.000000 1.000000
vn 0.000000 0.000000 1.000000
vn 0.668655 -0.743573 0.000000
vn 0.935213 0.000000 -0.354086
vn 0.000000 -0.080706 0.996738
vn 0.000000 0.000000 1.000000
vn 0.935213 0.000000 -0.354086
vn 0.000000 -0.352828 0.935688
vn 0.000000 -0.584707 0.811245
vn 0.000000 -0.080706 0.996738
vn 0.000000 -0.352828 0.935688
vn 0.000000 -0.559486 0.828840
vn 0.000000 -0.849867 0.526997
vn 0.000000 -0.584707 0.811245
vn 0.000000 -0.559486 0.828840
vn 0.000000 -0.840708 0.541488
vn 0.000000 -0.950779 0.309870
vn 0.000000 -0.849867 0.526997
vn 0.000000 -0.840708 0.541488
vn 1.000000 -0.000000 0.000000
vn 0.000000 -0.989473 0.144720
vn 0.000000 -0.950779 0.309870
vn 1.000000 -0.000000 0.000000
vn 0.000000 -0.989074 0.147420
vn 0.268237 -0.000000 0.963353
vn 0.000000 -0.989473 0.144720
vn 0.000000 -0.989074 0.147420
vn 0.851352 -0.000000 0.524594
vn 0.000000 -0.021148 0.999776
vn 0.000000 -0.988357 0.152151
vn 0.268237 -0.000000 0.963353
vn 0.374168 -0.014182 0.927252
vn 0.000000 0.176917 0.984226
vn 0.000000 -0.021148 0.999776
vn 0.374168 -0.014182 0.927252
vn 0.557886 0.000000 0.829917
vn 0.000000 0.998294 0.058379
vn 0.000000 0.176917 0.984226
vn 0.557886 0.000000 0.829917
vn 0.000000 0.707109 0.707105
vn -0.557888 0.000000 0.829916
vn -0.557885 0.829918 0.000000
vn -0.066868 0.997762 0.000000
vn -0.985380 0.170370 0.000000
vn -0.557885 0.829918 0.000000
vn 0.000000 0.998284 0.058558
vn 0.000000 1.000000 0.000000
vn -0.066868 0.997762 0.000000
vn 0.000000 0.998284 0.058558
vn 0.000000 0.998294 0.058379
vn 0.000000 1.000000 0.000000
vn 0.000000 1.000000 0.000000
vn 0.334603 0.942359 0.000000
vn 0.000000 1.000000 0.000000
vn 0.000000 0.998294 0.058379
vn 0.000000 0.707109 0.707105
vn 0.000000 0.707109 0.707105
vn 0.557886 0.000000 0.829917
vn 0.983523 0.180782 0.000000
vn 0.334603 0.942359 0.000000
vn 0.557886 0.000000 0.829917
vn 0.996996 -0.000815 0.077455
vn 1.000000 0.000000 0.000000
vn 0.983523 0.180782 0.000000
vn 0.996996 -0.000815 0.077455
vn 0.851352 -0.000000 0.524594
vn 0.000000 -0.989074 0.147420
vn 1.000000 0.000000 0.000000
vn 0.994979 0.000000 -0.100085
vn 1.000000 0.000000 0.000000
vn 1.000000 0.000000 0.000000
vn 0.992460 0.000000 -0.122573
vn 0.335589 0.000000 -0.942009
vn 0.994979 0.000000 -0.100085
vn 0.992460 0.000000 -0.122573
vn 0.336699 0.000000 -0.941612
vn 0.000000 0.000000 -1.000000
vn 0.000000 0.000000 -1.000000
vn 0.335589 0.000000 -0.942009
vn 0.336699 0.000000 -0.941612
vn 0.000000 0.000000 -1.000000
vn 0.000000 0.000000 -1.000000
vn 0.000000 0.000000 -1.000000
vn -0.000000 0.000000 -1.000000
vn -0.067412 0.000000 -0.997725
vn 0.000000 0.000000 -1.000000
vn -0.000000 0.000000 -1.000000
vn -0.066524 0.000000 -0.997785
vn -0.995209 0.000000 -0.097773
vn -0.067412 0.000000 -0.997725
vn -0.066524 0.000000 -0.997785
vn -0.992445 0.000000 -0.122693
vn 1.000000 0.000000 0.000000
vn 1.000000 0.000000 0.000000
vn 0.997360 0.000000 -0.072620
vn 0.998769 0.000000 -0.049607
vn 1.000000 0.000000 0.000000
vn 1.000000 0.000000 0.000000
vn 0.000000 -0.840708 0.541488
vn 0.000000 -0.559486 0.828840
vn 1.000000 0.000000 0.000000
vn 1.000000 0.000000 0.000000
vn 0.000000 -0.559486 0.828840
vn 0.000000 -0.352828 0.935688
vn 0.000000 -0.352828 0.935688
vn 0.935213 0.000000 -0.354086
vn 1.000000 0.000000 0.000000
vn -0.000149 0.999461 -0.032814
vn -0.000149 0.999461 -0.032814
vn 0.251748 0.966944 0.040523
vn 0.290886 0.952420 -0.091008
vn 0.189842 0.949846 -0.248500
vn -0.000130 0.703884 -0.710315
vn -0.000130 0.703884 -0.710315
vn 0.290886 0.952420 -0.091008
vn 0.000129 0.902315 0.431077
vn 0.000129 0.902315 0.431077
vn 0.189842 0.949846 -0.248500
vn 0.129258 0.950594 -0.282248
vn 0.007806 0.936753 -0.349904
vn 0.007806 0.936753 -0.349904
vn 0.129258 0.950594 -0.282248
vn 0.198825 0.912750 -0.356869
vn 0.140755 0.944642 -0.296378
vn -0.030737 0.617700 -0.785813
vn -0.030737 0.617700 -0.785813
vn 0.198825 0.912750 -0.356869
vn 0.066832 0.920546 0.384876
vn 0.066832 0.920546 0.384876
vn 0.140755 0.944642 -0.296378
vn 0.144841 0.770326 -0.620982
vn -0.003243 0.730022 -0.683416
vn -0.003243 0.730022 -0.683416
vn 0.144841 0.770326 -0.620982
vn 0.190670 0.680080 -0.707910
vn 0.134759 0.566400 -0.813038
vn -0.011775 0.349217 -0.936968
vn -0.011775 0.349217 -0.936968
vn 0.190670 0.680080 -0.707910
vn 0.010642 0.833951 -0.551736
vn 0.010642 0.833951 -0.551736
vn 0.134759 0.566400 -0.813038
vn 0.139645 0.494273 -0.858017
vn -0.002276 0.435923 -0.899981
vn -0.002276 0.435923 -0.899981
vn 0.139645 0.494273 -0.858017
vn 0.201441 0.357885 -0.911778
vn 0.107215 0.046634 -0.993142
vn -0.054257 -0.261289 -0.963735
vn -0.054257 -0.261289 -0.963735
vn 0.201441 0.357885 -0.911778
vn 0.030064 0.500540 -0.865191
vn 0.030064 0.500540 -0.865191
vn 0.107215 0.046634 -0.993142
vn 0.105842 0.162695 -0.980983
vn -0.003290 0.125145 -0.992133
vn -0.003290 0.125145 -0.992133
vn 0.105842 0.162695 -0.980983
vn 0.180784 0.079375 -0.980315
vn 0.130690 0.093602 -0.986995
vn -0.017113 -0.158085 -0.987277
vn -0.017113 -0.158085 -0.987277
vn 0.180784 0.079375 -0.980315
vn 0.016526 0.420154 -0.907303
vn 0.016526 0.420154 -0.907303
vn 0.130690 0.093602 -0.986995
vn 0.136469 0.145160 -0.979952
vn 0.002398 -0.022762 -0.999738
vn 0.002398 -0.022762 -0.999738
vn 0.136469 0.145160 -0.979952
vn 0.142239 0.382831 -0.912803
vn 0.033989 0.994668 -0.097370
vn 0.033989 0.994668 -0.097370
vn 0.142239 0.382831 -0.912803
vn 0.154184 0.253276 -0.955028
vn -0.002892 0.033227 -0.999444
vn -0.002892 0.033227 -0.999444
vn 0.154184 0.253276 -0.955028
vn 0.047059 -0.936158 -0.348415
vn -0.012770 -0.999919 0.000145
vn -0.012770 -0.999918 0.000145
vn 0.047059 -0.936158 -0.348415
vn 0.051544 -0.969267 0.240549
vn 0.002167 -0.047029 0.998891
vn 0.002167 -0.047029 0.998891
vn 0.051544 -0.969267 0.240549
vn 0.223626 0.253238 0.941202
vn 0.186030 0.405629 0.894907
vn 0.036078 0.946317 0.321221
vn 0.036078 0.946317 0.321221
vn 0.223626 0.253238 0.941202
vn 0.005745 -0.184450 0.982825
vn 0.005745 -0.184450 0.982825
vn 0.186030 0.405629 0.894907
vn 0.275476 -0.007712 0.961277
vn 0.147204 0.002943 0.989102
vn 0.028131 0.403715 0.914452
vn 0.028131 0.403715 0.914452
vn 0.275476 -0.007712 0.961277
vn -0.012299 -0.354221 0.935081
vn -0.012299 -0.354221 0.935081
vn 0.147204 0.002943 0.989102
vn 0.157853 -0.147917 0.976321
vn 0.005464 -0.081420 0.996665
vn 0.005464 -0.081420 0.996665
vn 0.157853 -0.147917 0.976321
vn 0.194768 -0.057358 0.979171
vn 0.128708 0.016427 0.991547
vn 0.063538 0.467943 0.881472
vn 0.063538 0.467943 0.881472
vn 0.194768 -0.057358 0.979171
vn 0.005064 -0.280289 0.959902
vn 0.005064 -0.280289 0.959902
vn 0.128708 0.016427 0.991547
vn 0.229396 -0.452256 0.861883
vn 0.003184 -0.408306 0.912840
vn 0.003184 -0.408306 0.912840
vn 0.229396 -0.452256 0.861883
vn 0.259905 -0.374193 0.890185
vn 0.168908 -0.666634 0.725995
vn 0.011591 -0.323833 0.946043
vn 0.011591 -0.323833 0.946043
vn 0.259905 -0.374193 0.890185
vn -0.014969 -0.914379 0.404583
vn -0.014969 -0.914379 0.404583
vn 0.168908 -0.666634 0.725995
vn 0.197489 -0.778463 0.595813
vn 0.002897 -0.737562 0.675273
vn 0.002897 -0.737562 0.675273
vn 0.197489 -0.778463 0.595813
vn 0.200800 -0.704653 0.680547
vn 0.153754 -0.785460 0.599510
vn 0.055627 -0.285218 0.956847
vn 0.055627 -0.285218 0.956847
vn 0.200800 -0.704653 0.680547
vn -0.049699 -0.993539 -0.102028
vn -0.049699 -0.993539 -0.102028
vn 0.153754 -0.785460 0.599510
vn 0.352180 -0.884899 0.304832
vn -0.005426 -0.934384 0.356227
vn -0.005426 -0.934384 0.356228
vn 0.352180 -0.884899 0.304832
vn 0.354020 -0.848299 0.393774
vn 0.163266 -0.925765 0.341033
vn 0.000180 -0.386223 0.922405
vn 0.000180 -0.386223 0.922405
vn 0.354020 -0.848299 0.393774
vn -0.000096 -0.978128 -0.208003
vn -0.000096 -0.978128 -0.208003
vn 0.163266 -0.925765 0.341033
vn 0.188961 -0.981972 0.004930
vn 0.000305 -0.997830 0.065838
vn 0.000305 -0.997830 0.065838
vn 0.188961 -0.981972 0.004930
vn 0.224897 -0.967213 0.117988
vn 0.185038 -0.942203 -0.279309
vn 0.005818 -0.905130 0.425096
vn 0.005818 -0.905130 0.425096
vn 0.224897 -0.967213 0.117988
vn -0.009310 -0.682842 -0.730506
vn -0.009310 -0.682842 -0.730506
vn 0.185038 -0.942203 -0.279309
vn 0.244510 -0.953867 -0.174218
vn 0.239373 -0.955972 0.169756
vn 0.000000 -1.000000 0.000000
vn 0.000000 -1.000000 0.000000
vn 0.244510 -0.953867 -0.174218
vn 0.184359 -0.973974 -0.131854
vn 0.003426 -0.652467 0.757809
vn 0.003426 -0.652467 0.757809
vn 0.239373 -0.955972 0.169756
vn -0.003636 -0.529716 -0.848167
vn -0.003636 -0.529716 -0.848167
vn 0.184359 -0.973974 -0.131854
vn 0.242473 -0.952013 -0.186757
vn 0.100257 -0.404240 0.909142
vn -0.000003 -1.000000 -0.000059
vn -0.000003 -1.000000 -0.000059
vn 0.242473 -0.952013 -0.186757
vn 0.003027 0.001080 0.999995
vn 0.003027 0.001080 0.999995
vn 0.100257 -0.404240 0.909142
vn 0.099946 0.413361 0.905065
vn 0.000003 1.000000 -0.000016
vn 0.000003 1.000000 -0.000016
vn 0.099946 0.413361 0.905065
vn 0.234965 0.954131 -0.185540
vn 0.183414 0.976103 -0.116543
vn -0.002987 0.562781 -0.826601
vn -0.002987 0.562781 -0.826601
vn 0.234965 0.954131 -0.185540
vn 0.002953 0.630765 0.775968
vn 0.002953 0.630765 0.775968
vn 0.183414 0.976103 -0.116543
vn 0.248591 0.953279 0.171642
vn 0.000000 1.000000 0.000001
vn 0.000000 1.000000 0.000001
vn 0.248591 0.953279 0.171642
vn 0.250953 0.951423 -0.178374
vn 0.184950 0.941941 -0.280250
vn -0.007824 0.683927 -0.729509
vn -0.007824 0.683927 -0.729509
vn 0.250953 0.951423 -0.178374
vn 0.004887 0.904417 0.426621
vn 0.004887 0.904417 0.426621
vn 0.184950 0.941941 -0.280250
vn 0.251748 0.966944 0.040523
s off
g cobl_archway_low:archway_low
usemtl initialShadingGroup
f 140/1/1 141/2/2 3/3/3 4/4/4
f 141/2/5 142/5/6 8/6/7 3/3/8
f 3/3/9 9/7/10 10/8/11 4/4/12
f 1/11/13 5/12/14 13/13/15 6/14/16
f 2/15/17 6/16/18 14/17/19 7/18/20
f 142/5/21 143/19/22 120/20/23 8/6/24
f 3/3/25 8/6/26 17/21/27 9/7/28
f 10/9/29 18/22/30 19/23/31 11/10/32
f 5/12/33 12/24/34 21/25/35 13/13/36
f 6/14/37 13/13/38 22/26/39 14/27/40
f 7/18/41 14/17/42 139/28/43 119/29/44
f 8/6/45 120/20/46 121/30/47 17/21/48
f 144/31/49 145/32/50 26/33/51 16/34/52
f 9/7/53 17/21/54 27/35/55 18/36/56
f 18/22/57 27/37/58 28/38/59 19/23/60
f 114/39/61 115/40/62 151/41/63 152/42/64
f 13/13/65 21/25/66 31/43/67 22/26/68
f 14/44/69 22/45/70 138/46/71 139/47/72
f 17/21/73 121/30/74 122/48/75 27/35/76
f 16/34/77 26/33/78 34/49/79 24/50/80
f 145/51/81 146/52/82 36/53/83 26/54/84
f 27/55/85 122/56/86 123/57/87 28/58/88
f 115/40/89 116/59/90 150/60/91 151/41/92
f 20/61/93 29/62/94 39/63/95 30/64/96
f 22/45/97 31/66/98 137/67/99 138/46/100
f 23/68/101 32/69/102 35/70/103 25/71/104
f 26/54/105 36/53/106 42/72/107 34/73/108
f 116/74/109 124/75/110 149/76/111 150/77/112
f 33/78/113 34/73/114 42/72/115 37/79/116
f 29/62/117 38/80/118 47/81/119 39/63/120
f 30/64/121 39/63/122 48/82/123 40/65/124
f 32/69/125 41/84/126 44/85/127 35/70/128
f 38/86/129 125/87/130 126/88/131 47/89/132
f 117/90/133 118/91/134 147/92/135 148/93/136
f 39/63/137 47/81/138 55/94/139 48/82/140
f 47/89/141 126/88/142 127/96/143 55/97/144
f 46/98/145 53/99/146 58/100/147 54/101/148
f 48/82/149 55/94/150 56/95/151 49/83/152
f 57/105/153 62/106/154 63/107/155 58/100/156
f 55/97/157 127/96/158 128/103/159 56/102/160
f 54/101/161 58/100/162 63/107/163 59/108/164
f 60/109/165 63/107/166 62/106/167 61/110/168
f 1/111/169 6/16/170 2/15/171
f 9/7/172 18/36/173 10/8/174
f 15/112/175 23/113/176 25/114/177
f 24/50/178 34/49/179 33/115/180
f 40/65/181 48/82/182 49/83/183
f 59/108/184 63/107/185 60/109/186
f 146/52/187 45/116/188 43/117/189 36/53/190
f 118/91/191 153/118/192 154/119/193 147/92/194
f 155/120/195 57/105/196 58/100/197 53/99/198
f 101/121/199 100/122/200 102/123/201 103/124/202
f 76/127/203 78/128/204 79/129/205 77/130/206
f 80/135/207 82/136/208 83/137/209 81/138/210
f 84/143/211 86/144/212 87/145/213 85/146/214
f 88/151/215 90/152/216 91/153/217 89/154/218
f 92/159/219 94/160/220 95/161/221 93/162/222
f 96/167/223 97/168/224 109/169/225 108/170/226
f 65/173/227 64/174/228 78/128/229 76/127/230
f 66/175/231 67/176/232 77/130/233 79/129/234
f 67/176/235 66/175/236 82/136/237 80/135/238
f 68/180/239 69/181/240 81/138/241 83/137/242
f 69/181/243 68/180/244 86/144/245 84/143/246
f 70/184/247 71/185/248 85/146/249 87/145/250
f 71/185/251 70/184/252 90/152/253 88/151/254
f 72/188/255 73/189/256 89/154/257 91/153/258
f 73/189/259 72/188/260 94/160/261 92/159/262
f 74/192/263 75/193/264 93/162/265 95/161/266
f 75/193/267 74/192/268 97/168/269 96/167/270
f 107/200/271 105/201/272 104/202/273 106/203/274
f 99/208/275 98/209/276 102/123/277 100/122/278
f 64/174/279 65/173/280 101/121/281 103/124/282
f 98/209/283 99/208/284 105/201/285 107/200/286
f 112/219/287 113/220/288 111/221/289 110/222/290
f 108/170/291 109/169/292 113/220/293 112/219/294
f 11/10/295 19/23/296 115/40/297 114/39/298
f 19/23/299 28/38/300 116/59/301 115/40/302
f 28/58/303 123/57/304 124/75/305 116/74/306
f 37/79/307 42/72/308 118/91/309 117/90/310
f 36/53/311 43/117/312 50/225/313 153/118/314
f 120/20/315 143/19/316 144/31/317 16/34/318
f 121/30/319 120/20/320 16/34/321 24/50/322
f 122/48/323 121/30/324 24/50/325 33/115/326
f 123/57/327 122/56/328 33/78/329 37/79/330
f 124/75/331 123/57/332 37/79/333 117/90/334
f 148/93/335 149/76/336 124/75/337 117/90/338
f 126/88/339 125/87/340 46/98/341 54/101/342
f 127/96/343 126/88/344 54/101/345 59/108/346
f 128/103/347 127/96/348 59/108/349 60/109/350
f 129/104/351 128/103/352 60/109/353 61/110/354
f 62/234/355 130/227/356 129/226/357 61/235/358
f 131/228/359 130/227/360 62/234/361 57/236/362
f 132/229/363 131/228/364 57/236/365 52/237/366
f 133/230/367 132/229/368 52/237/369 51/238/370
f 134/231/371 133/230/372 51/238/373 50/239/374
f 135/232/375 134/231/376 50/239/377 43/240/378
f 136/233/379 135/232/380 43/240/381 45/241/382
f 41/243/383 136/233/384 45/241/385 44/242/386
f 138/46/387 137/67/388 41/84/389 32/69/390
f 139/47/391 138/46/392 32/69/393 23/68/394
f 119/29/395 139/28/396 23/113/397 15/112/398
f 1/111/399 2/15/400 141/2/401 140/1/402
f 2/15/403 7/18/404 142/5/405 141/2/406
f 7/18/407 119/29/408 143/19/409 142/5/410
f 144/31/411 143/19/412 119/29/413 15/112/414
f 15/112/415 25/114/416 145/32/417 144/31/418
f 25/71/419 35/70/420 146/52/421 145/51/422
f 35/70/423 44/85/424 45/116/425 146/52/426
f 147/92/427 154/119/428 155/120/429 53/99/430
f 148/93/431 147/92/432 53/99/433 46/98/434
f 125/87/435 149/76/436 148/93/437 46/98/438
f 150/77/439 149/76/440 125/87/441 38/86/442
f 151/41/443 150/60/444 38/80/445 29/62/446
f 152/42/447 151/41/448 29/62/449 20/61/450
f 36/53/451 153/118/452 118/91/453 42/72/454
f 154/119/455 153/118/456 50/225/457 51/244/458
f 155/120/459 154/119/460 51/244/461 52/245/462
f 52/245/463 57/105/464 155/120/465
f 156/246/466 157/247/467 76/125/468 77/126/469
f 67/172/470 205/299/471 156/246/472 77/126/473
f 204/298/474 205/299/475 67/172/476 80/133/477
f 203/297/478 204/298/479 80/133/480 81/134/481
f 69/179/482 202/296/483 203/297/484 81/134/485
f 201/295/486 202/296/487 69/179/488 84/141/489
f 200/294/490 201/295/491 84/141/492 85/142/493
f 71/183/494 199/293/495 200/294/496 85/142/497
f 198/292/498 199/293/499 71/183/500 88/149/501
f 197/291/502 198/292/503 88/149/504 89/150/505
f 73/187/506 196/290/507 197/291/508 89/150/509
f 195/289/510 196/290/511 73/187/512 92/157/513
f 194/288/514 195/289/515 92/157/516 93/158/517
f 75/191/518 193/287/519 194/288/520 93/158/521
f 192/286/522 193/287/523 75/191/524 96/165/525
f 191/285/526 192/286/527 96/165/528 108/166/529
f 190/284/530 191/285/531 108/166/532 112/223/533
f 189/282/534 190/283/535 112/217/536 110/215/537
f 188/281/538 189/282/539 110/215/540 111/216/541
f 187/279/542 188/281/543 111/216/544 113/218/545
f 109/214/546 186/278/547 187/280/548 113/224/549
f 185/277/550 186/278/551 109/214/552 97/195/553
f 74/194/554 184/276/555 185/277/556 97/195/557
f 183/275/558 184/276/559 74/194/560 95/163/561
f 182/274/562 183/275/563 95/163/564 94/164/565
f 72/190/566 181/273/567 182/274/568 94/164/569
f 180/272/570 181/273/571 72/190/572 91/155/573
f 179/271/574 180/272/575 91/155/576 90/156/577
f 70/186/578 178/270/579 179/271/580 90/156/581
f 177/269/582 178/270/583 70/186/584 87/147/585
f 176/268/586 177/269/587 87/147/588 86/148/589
f 68/182/590 175/267/591 176/268/592 86/148/593
f 174/266/594 175/267/595 68/182/596 83/139/597
f 173/265/598 174/266/599 83/139/600 82/140/601
f 66/177/602 172/264/603 173/265/604 82/140/605
f 171/263/606 172/264/607 66/177/608 79/131/609
f 170/262/610 171/263/611 79/131/612 78/132/613
f 64/178/614 169/261/615 170/262/616 78/132/617
f 168/260/618 169/261/619 64/178/620 103/207/621
f 102/206/622 167/259/623 168/260/624 103/207/625
f 98/211/626 166/258/627 167/259/628 102/206/629
f 165/257/630 166/258/631 98/211/632 107/213/633
f 106/198/634 164/255/635 165/256/636 107/199/637
f 163/254/638 164/255/639 106/198/640 104/196/641
f 162/252/642 163/254/643 104/196/644 105/197/645
f 99/210/646 161/251/647 162/253/648 105/212/649
f 160/250/650 161/251/651 99/210/652 100/204/653
f 159/249/654 160/250/655 100/204/656 101/205/657
f 65/171/658 158/248/659 159/249/660 101/205/661
f 157/247/662 158/248/663 65/171/664 76/125/665
