# This file uses centimeters as units for non-parametric coordinates.

mtllib Cobble_archway_refixed_low.mtl
g default
v -1.621250 0.272156 0.526029
v -1.621250 0.040898 0.500397
v -1.375169 0.243047 0.538297
v -1.412333 0.040314 0.499033
v -0.915153 1.078042 -0.638232
v -0.895374 1.157554 0.523448
v -0.934373 1.010035 -0.558706
v -1.308397 0.639851 0.773863
v -1.222789 1.296461 0.548302
v -1.309680 0.635779 0.548303
v -0.958554 1.972679 -0.743464
v -0.678079 1.610457 -0.743464
v -0.919644 1.068271 -0.743464
v -1.269243 1.328294 -0.743464
v -0.885210 1.076902 0.592848
v -0.944465 0.464633 0.592848
v -0.909587 0.955566 -0.637238
v -0.942882 0.474806 0.773863
v -1.671245 2.251508 -0.425549
v -1.621250 2.241000 -0.499322
v -1.621250 1.922011 -0.499322
v -1.671245 1.926552 -0.425549
v -0.675815 1.613407 -0.638232
v -1.218374 1.322497 0.773863
v -0.862579 1.192430 0.593726
v -1.133625 1.609563 -0.499322
v -1.621250 1.594804 -0.499322
v -0.968508 1.979060 -0.499322
v -1.057674 1.766463 -0.499322
v -0.881623 1.094757 0.773863
v -0.649305 1.647948 0.593726
v -0.955218 0.395506 -0.637238
v 1.083838 2.371124 -0.578967
v 1.082499 2.371124 -0.674664
v 1.149754 2.402476 -0.584451
v 1.151388 2.402476 -0.501258
v -0.361144 2.511313 0.526027
v -0.244884 2.569334 0.773793
v 0.524676 2.812224 0.531181
v 0.509583 2.819455 0.706389
v 1.190526 2.357885 -0.712754
v 1.191758 2.357885 -0.611777
v 0.405198 2.313544 0.541855
v 0.419076 2.346598 0.480308
v 0.419120 2.346610 0.626020
v 0.405238 2.313555 0.706874
v 0.488231 2.331850 0.541354
v 0.488267 2.331858 0.706215
v 1.083106 2.851037 -0.674664
v 1.150494 2.819684 -0.584451
v 1.191083 2.864275 -0.712754
v 1.099518 2.371124 0.541354
v 1.170514 2.402476 0.472682
v 1.434747 2.357885 -0.611777
v 1.434310 2.357885 -0.712754
v 1.473025 2.402476 -0.584451
v 1.473605 2.402476 -0.501258
v 1.428064 2.864275 -0.712755
v 0.554340 2.798100 0.623650
v 0.590691 2.834853 0.706215
v 1.503092 2.353839 -0.724398
v 1.503487 2.353839 -0.621808
v 1.206181 2.357885 0.570349
v 1.101825 2.371124 0.706215
v 1.152138 2.819719 -0.499806
v 1.464742 2.819684 -0.584451
v 1.497452 2.868322 -0.724398
v -0.007228 3.201872 -0.425549
v -0.007228 3.151877 -0.499322
v -1.621250 3.151877 -0.499322
v -1.621250 3.201872 -0.425549
v 1.439863 2.357885 0.570349
v 1.480390 2.402476 0.472682
v 1.508105 2.353839 0.579213
v 1.731516 2.353826 -0.621807
v 1.755247 2.354340 0.580161
v 1.465327 2.819726 -0.499806
v 1.173329 2.402476 0.616002
v -0.816188 2.117246 0.794027
v -0.553689 1.754139 0.794027
v -0.119486 2.119915 0.794027
v -0.341379 2.526520 0.794027
v 1.208303 2.357885 0.744306
v 1.153444 2.845668 0.533483
v 1.102432 2.851037 0.706215
v -0.007228 3.201872 0.027990
v -1.621250 3.201872 0.011700
v 1.174068 2.819684 0.616002
v 1.208861 2.864275 0.744306
v 1.481388 2.402476 0.616002
v 1.440616 2.357885 0.744306
v 1.508785 2.353839 0.755950
v 1.767669 2.355679 0.755939
v 1.473105 2.819684 0.616002
v 1.434370 2.864275 0.744306
v 1.503146 2.868322 0.755950
v -0.007228 3.201872 0.474766
v -1.621250 3.201872 0.474766
v 1.678761 3.201872 -0.425549
v 1.736155 3.151877 -0.425549
v 1.678761 3.151877 -0.499322
v 1.476233 2.858829 0.533528
v -1.621250 3.151877 0.526029
v -0.007228 3.151877 0.526027
v 1.706131 2.866492 0.579225
v 1.718553 2.867831 0.755002
v -0.438768 2.476506 -0.652876
v -0.859770 2.104745 -0.762476
v -0.416223 2.481843 -0.514168
v -0.853848 2.108373 -0.499322
v 1.678760 3.151877 0.526027
v 1.736155 3.151877 0.474766
v 1.678761 3.201872 0.474766
v 0.487967 2.331790 -0.674664
v 0.590326 2.834805 -0.674664
v -1.621250 2.882574 -0.499322
v -0.020582 2.623522 -0.499322
v 0.544979 2.802403 -0.501027
v 0.590372 2.834811 -0.499322
v 0.862208 3.201872 -0.425549
v 0.844065 3.151877 -0.499322
v 0.887009 3.201872 0.027990
v 1.731065 2.353825 -0.724398
v 1.730509 2.868325 -0.724398
v 1.428988 2.864275 -0.499322
v 0.881679 3.201872 0.474766
v 1.712904 2.865848 -0.457580
v 0.810475 2.826403 -0.499322
v 0.883321 3.151877 0.526029
v 1.498318 2.868322 -0.499322
v -0.817135 2.109662 0.529922
v -0.053106 2.157947 0.592795
v -0.149012 2.101548 -0.637179
v 0.411840 2.329989 -0.587001
v -1.190846 1.459736 0.775015
v -0.854842 1.209263 0.775015
v -0.645404 1.653031 0.775015
v -0.919308 1.986299 0.775015
v -1.671245 3.151877 0.011700
v -1.671245 3.151877 -0.425549
v -1.671245 2.882574 -0.425549
v -1.671245 2.882574 0.011700
v -1.621250 2.882574 0.526029
v -1.671245 2.882574 0.474766
v -1.671245 2.292436 0.474766
v -1.621250 2.287611 0.526029
v -0.940624 1.965852 0.543462
v -1.621250 1.944759 0.526029
v -1.621250 1.594804 0.526029
v -1.196895 1.446213 0.548594
v -0.210195 2.080191 -0.652876
v -0.157204 2.096731 -0.742242
v -0.194877 2.109241 -0.558706
v -0.614149 1.731941 0.523448
v -0.609016 1.738173 0.682694
v -0.385361 2.481753 -0.742242
v -0.558002 1.749189 0.608197
v -0.839679 2.042890 0.682694
v -0.846388 2.035717 0.529923
v 0.404907 2.313461 -0.675322
v 0.509179 2.819384 -0.674840
v -0.131759 2.111798 0.608197
v -0.073676 2.173566 0.523448
v -0.463746 2.478542 -0.762476
v -0.222284 2.051925 -0.762476
v -0.589811 1.712682 -0.762476
v -1.671245 3.151877 0.474766
v -1.671245 1.951183 0.474766
v -0.890193 2.019127 -0.651143
v -0.587308 1.715555 -0.654608
v -1.671245 2.271384 0.011700
v -1.671245 1.594804 0.474766
v 0.487988 2.331795 -0.578967
v 0.418777 2.346517 -0.509887
v -0.055840 2.183032 0.682694
v 0.553900 2.798033 -0.592099
v -0.038993 2.166247 0.773793
v -0.255126 2.529167 0.682694
v -0.983388 1.919924 -0.499322
v -0.649029 1.689589 -0.558706
v -1.326526 0.480664 0.548723
v -1.295905 0.560412 0.526029
v -0.907772 0.121078 -0.638668
v -0.901317 0.167999 0.594112
v -0.908656 0.027425 0.594112
v -0.913247 0.004582 -0.638668
v -1.402406 0.236847 0.775522
v -1.359003 0.257931 0.709450
v -1.412510 0.027352 0.594112
v -1.325144 0.582615 -0.637239
v -1.240119 1.206156 -0.644191
v -1.250386 1.180818 -0.742312
v -1.326391 0.575568 -0.742312
v -1.411801 0.030714 0.775522
v -0.907981 0.030786 0.775522
v -0.900367 0.174904 0.775522
v -0.652009 1.685971 -0.651143
v -1.671245 1.962999 0.011700
v -1.255637 1.351699 -0.499322
v -0.889635 1.179262 0.682694
v -1.180987 1.394575 0.682694
v 1.739071 2.887179 0.474766
v 1.734955 2.869514 0.011700
v 1.736155 3.151877 0.011700
v 1.678761 3.201872 0.011700
v -1.671245 1.594804 0.011700
v -1.671245 0.272156 0.011700
v -1.671245 0.272156 0.474766
v -1.671245 0.067274 0.474766
v -1.621250 0.029929 0.011700
v -1.414342 0.029929 0.011700
v -1.671245 0.067274 0.011700
v -1.336148 0.227497 -0.499322
v -1.332833 0.223713 -0.581753
v -1.411653 0.213406 -0.638667
v -1.411246 0.208002 -0.499322
v -1.412342 0.208875 -0.743970
v -0.908323 0.117070 -0.743971
v -0.913639 0.002631 -0.743971
v -1.417736 0.002558 -0.743970
v -1.621250 0.029221 -0.450141
v -1.415887 0.029221 -0.450141
v -1.417325 0.004509 -0.638667
v -1.671245 0.272156 -0.425549
v -1.671245 0.067274 -0.425549
v -1.621250 0.272156 -0.499322
v -1.338264 0.429064 -0.499322
v -1.337848 0.432766 -0.638667
v -0.984695 0.319630 -0.558706
v -0.985570 0.312319 -0.651143
v -0.956137 0.389601 -0.742311
v -0.963390 0.267118 -0.638668
v -0.964055 0.260876 -0.743971
v -1.310918 0.489411 -0.651143
v -1.338804 0.425305 -0.743970
v -0.988610 0.144224 -0.677898
v -0.985819 0.148611 -0.581753
v -1.309721 0.500153 -0.519117
v -1.330884 0.218380 -0.677898
v -0.911669 0.945202 -0.742311
v -1.671245 1.594804 -0.425549
v -1.232061 1.231477 -0.514168
v -1.322555 0.588145 -0.499322
v 0.456719 2.801651 -0.499322
v -0.972937 0.417815 0.682694
v -0.974445 0.405220 0.523448
v -1.293236 0.575147 0.682694
v -0.954458 0.350944 0.775522
v -0.955604 0.340191 0.594112
v -1.325007 0.495562 0.775522
v -0.948341 0.207525 0.709449
v -0.953149 0.199968 0.543815
v -0.937704 0.997434 -0.651143
v 1.681708 2.873079 0.523004
v 1.713183 2.867231 0.440379
vt 0.107713 0.102677
vt 0.098657 0.074335
vt 0.375087 0.720228
vt 0.383949 0.800044
vt 0.377878 0.805580
vt 0.371037 0.715978
vt 0.508552 0.814863
vt 0.653165 0.731132
vt 0.247925 0.195436
vt 0.303764 0.268704
vt 0.062267 0.882135
vt 0.595961 0.517202
vt 0.604846 0.457455
vt 0.075137 0.887899
vt 0.388800 0.805868
vt 0.381877 0.715471
vt 0.432524 0.717205
vt 0.434977 0.807652
vt 0.279898 0.151361
vt 0.327869 0.220204
vt 0.432110 0.703848
vt 0.380659 0.702258
vt 0.144075 0.087656
vt 0.118374 0.054365
vt 0.911170 0.812228
vt 0.895573 0.809750
vt 0.329473 0.811633
vt 0.678534 0.429926
vt 0.894214 0.747290
vt 0.686303 0.487277
vt 0.329448 0.803870
vt 0.677797 0.775390
vt 0.527381 0.358191
vt 0.527038 0.862095
vt 0.629323 0.344483
vt 0.052126 0.885317
vt 0.378473 0.813347
vt 0.330192 0.713804
vt 0.159951 0.791582
vt 0.598892 0.289601
vt 0.588723 0.291679
vt 0.159709 0.798706
vt 0.609310 0.281953
vt 0.073922 0.870079
vt 0.320780 0.343531
vt 0.047184 0.841868
vt 0.153839 0.791698
vt 0.154014 0.785522
vt 0.148374 0.801002
vt 0.061697 0.842483
vt 0.333593 0.349779
vt 0.148649 0.793496
vt 0.040168 0.845379
vt 0.637522 0.336464
vt 0.648965 0.334814
vt 0.054682 0.830697
vt 0.222368 0.711534
vt 0.219191 0.715928
vt 0.682720 0.252776
vt 0.291021 0.395569
vt 0.093803 0.949977
vt 0.283793 0.383243
vt 0.219731 0.705175
vt 0.223034 0.699398
vt 0.213548 0.711116
vt 0.214166 0.698930
vt 0.162713 0.708520
vt 0.909425 0.746527
vt 0.892671 0.688132
vt 0.773192 0.760305
vt 0.790632 0.720538
vt 0.480724 0.511773
vt 0.696941 0.250496
vt 0.420710 0.340581
vt 0.429011 0.282955
vt 0.500915 0.298843
vt 0.499996 0.358853
vt 0.708378 0.238736
vt 0.227398 0.876719
vt 0.709217 0.308484
vt 0.719977 0.298911
vt 0.736301 0.297487
vt 0.751891 0.224729
vt 0.735349 0.226025
vt 0.764118 0.212322
vt 0.805347 0.692038
vt 0.565550 0.153098
vt 0.794068 0.198538
vt 0.774011 0.273291
vt 0.762422 0.285040
vt 0.791443 0.272031
vt 0.194414 0.900429
vt 0.890853 0.061802
vt 0.816208 0.260253
vt 0.076452 0.963048
vt 0.074078 0.956067
vt 0.896684 0.930844
vt 0.896804 0.981816
vt 0.565612 0.164928
vt 0.327550 0.165701
vt 0.327717 0.153909
vt 0.040444 0.850413
vt 0.565267 0.095002
vt 0.327456 0.098179
vt 0.037009 0.841911
vt 0.313121 0.328609
vt 0.525294 0.666912
vt 0.518170 0.640994
vt 0.268330 0.376660
vt 0.564976 0.038073
vt 0.591826 0.981973
vt 0.594332 0.882236
vt 0.669039 0.855328
vt 0.245932 0.355619
vt 0.432818 0.679069
vt 0.431508 0.981573
vt 0.275274 0.981219
vt 0.269010 0.927209
vt 0.094043 0.815585
vt 0.156020 0.713282
vt 0.128414 0.792509
vt 0.289931 0.307219
vt 0.327255 0.039140
vt 0.438030 0.920564
vt 0.325628 0.287117
vt 0.479293 0.922098
vt 0.348647 0.237022
vt 0.400372 0.275007
vt 0.389959 0.330333
vt 0.238477 0.340826
vt 0.274514 0.301044
vt 0.128079 0.799994
vt 0.123616 0.790253
vt 0.414158 0.283310
vt 0.987253 0.981454
vt 0.813330 0.151287
vt 0.912629 0.981925
vt 0.824313 0.151997
vt 0.813802 0.162968
vt 0.912418 0.930736
vt 0.986928 0.929877
vt 0.101749 0.561304
vt 0.123868 0.784088
vt 0.089446 0.561059
vt 0.091525 0.454061
vt 0.406464 0.332468
vt 0.084782 0.838292
vt 0.082790 0.822978
vt 0.222120 0.334193
vt 0.118401 0.800403
vt 0.118721 0.792808
vt 0.266554 0.285408
vt 0.021612 0.817751
vt 0.431832 0.643231
vt 0.394121 0.398697
vt 0.065481 0.928260
vt 0.151572 0.705834
vt 0.163148 0.696319
vt 0.132133 0.704881
vt 0.517842 0.302369
vt 0.103746 0.453414
vt 0.227185 0.396556
vt 0.528445 0.299725
vt 0.516351 0.353990
vt 0.104785 0.391830
vt 0.105491 0.329521
vt 0.417338 0.665252
vt 0.402092 0.679636
vt 0.069080 0.820941
vt 0.126789 0.711883
vt 0.403590 0.641315
vt 0.122484 0.703774
vt 0.099759 0.791924
vt 0.101927 0.702729
vt 0.156328 0.702653
vt 0.042393 0.737778
vt 0.197782 0.143984
vt 0.207359 0.147412
vt 0.914517 0.358311
vt 0.893946 0.353903
vt 0.515011 0.673846
vt 0.392759 0.640678
vt 0.139078 0.653369
vt 0.251905 0.658908
vt 0.182455 0.121019
vt 0.240180 0.086134
vt 0.251032 0.102112
vt 0.339561 0.437750
vt 0.246524 0.674430
vt 0.137104 0.670066
vt 0.336967 0.232946
vt 0.316859 0.276423
vt 0.273601 0.676207
vt 0.362141 0.639748
vt 0.330829 0.638788
vt 0.279543 0.637242
vt 0.180699 0.303684
vt 0.985498 0.812569
vt 0.092684 0.392767
vt 0.078922 0.630359
vt 0.093616 0.329434
vt 0.175768 0.277691
vt 0.159491 0.133927
vt 0.981819 0.750944
vt 0.200353 0.313818
vt 0.164415 0.149053
vt 0.245190 0.265589
vt 0.469609 0.505709
vt 0.913173 0.350413
vt 0.077934 0.642416
vt 0.064146 0.649225
vt 0.152037 0.692925
vt 0.066278 0.629015
vt 0.484538 0.448835
vt 0.161622 0.163573
vt 0.127221 0.701262
vt 0.496353 0.453670
vt 0.258947 0.980262
vt 0.186157 0.973928
vt 0.190762 0.921203
vt 0.112131 0.631308
vt 0.647004 0.643047
vt 0.132675 0.691971
vt 0.637268 0.623901
vt 0.411972 0.416136
vt 0.355321 0.453214
vt 0.914469 0.373432
vt 0.895150 0.373810
vt 0.571902 0.632492
vt 0.112033 0.652083
vt 0.268244 0.143713
vt 0.123077 0.690657
vt 0.240631 0.183201
vt 0.014520 0.559343
vt 0.261146 0.131170
vt 0.101520 0.689632
vt 0.228116 0.173207
vt 0.250924 0.113145
vt 0.099440 0.799522
vt 0.027019 0.756642
vt 0.030218 0.739623
vt 0.122406 0.654585
vt 0.651673 0.632544
vt 0.857387 0.067722
vt 0.860822 0.039563
vt 0.890733 0.039648
vt 0.670338 0.568323
vt 0.017307 0.448466
vt 0.719590 0.624266
vt 0.721639 0.575425
vt 0.797811 0.575481
vt 0.326991 0.029502
vt 0.931714 0.392635
vt 0.946413 0.420876
vt 0.795585 0.627508
vt 0.394986 0.615197
vt 0.332096 0.497044
vt 0.494083 0.554785
vt 0.100875 0.610351
vt 0.088485 0.610087
vt 0.893457 0.440841
vt 0.875629 0.422017
vt 0.960220 0.463614
vt 0.899245 0.469166
vt 0.898293 0.445729
vt 0.950472 0.430451
vt 0.886293 0.469044
vt 0.974014 0.684015
vt 0.906931 0.687659
vt 0.844095 0.453946
vt 0.839350 0.491726
vt 0.857126 0.451925
vt 0.829006 0.647855
vt 0.824439 0.627931
vt 0.837350 0.520706
vt 0.834660 0.504677
vt 0.708433 0.572341
vt 0.706045 0.623850
vt 0.021606 0.328127
vt 0.025996 0.099316
vt 0.019237 0.393076
vt 0.564926 0.028381
vt 0.813040 0.027750
vt 0.823609 0.036426
vt 0.812659 0.037292
vt 0.693697 0.152205
vt 0.691122 0.164034
vt 0.697018 0.094440
vt 0.695993 0.037557
vt 0.696207 0.027873
vt 0.317006 0.038347
vt 0.317453 0.154714
vt 0.316974 0.098225
vt 0.813237 0.095907
vt 0.824502 0.095846
vt 0.092853 0.103085
vt 0.504452 0.915896
vt 0.487846 0.916025
vt 0.093652 0.078684
vt 0.558845 0.619074
vt 0.610550 0.563898
vt 0.013378 0.608364
vt 0.244433 0.409368
vt 0.249633 0.422891
vt 0.039107 0.053304
vt 0.054267 0.022841
vt 0.035112 0.063655
vt 0.897799 0.186924
vt 0.968105 0.203796
vt 0.968639 0.216185
vt 0.898858 0.219253
vt 0.961085 0.036974
vt 0.961851 0.058524
vt 0.867037 0.217861
vt 0.868306 0.190641
vt 0.892514 0.078711
vt 0.887929 0.075070
vt 0.886400 0.068083
vt 0.894898 0.130377
vt 0.961971 0.256049
vt 0.914886 0.255674
vt 0.914920 0.246903
vt 0.961994 0.247288
vt 0.961588 0.358676
vt 0.961543 0.373775
vt 0.895388 0.256040
vt 0.895641 0.247259
vt 0.896115 0.267629
vt 0.912849 0.271405
vt 0.913444 0.309844
vt 0.262526 0.709998
vt 0.267264 0.800961
vt 0.216981 0.794816
vt 0.273593 0.802303
vt 0.267739 0.808935
vt 0.271204 0.795271
vt 0.322537 0.718499
vt 0.322547 0.706881
vt 0.330372 0.700689
vt 0.318004 0.712060
vt 0.318292 0.698477
vt 0.217692 0.801519
vt 0.272142 0.709281
vt 0.264788 0.715062
vt 0.271810 0.695652
vt 0.317132 0.804588
vt 0.209463 0.801174
vt 0.209787 0.793950
vt 0.215800 0.789049
vt 0.264070 0.703262
vt 0.261894 0.696640
vt 0.323012 0.797788
vt 0.370077 0.702696
vt 0.463408 0.808366
vt 0.459972 0.717804
vt 0.471569 0.717867
vt 0.473024 0.808417
vt 0.323071 0.804603
vt 0.317058 0.812586
vt 0.373500 0.709326
vt 0.275532 0.810581
vt 0.441876 0.802149
vt 0.442210 0.808949
vt 0.435174 0.815367
vt 0.446379 0.808156
vt 0.446572 0.815903
vt 0.456563 0.811468
vt 0.456465 0.804383
vt 0.463701 0.816137
vt 0.473171 0.816189
vt 0.437270 0.710730
vt 0.437841 0.722480
vt 0.443227 0.704131
vt 0.443590 0.717473
vt 0.454838 0.709421
vt 0.455014 0.721580
vt 0.459513 0.704525
vt 0.471337 0.704594
vt 0.384673 0.806850
vt 0.389369 0.813597
vt 0.509744 0.454807
vt 0.575322 0.456993
vt 0.564668 0.518717
vt 0.404329 0.408766
vt 0.350121 0.442841
vt 0.590347 0.461356
vt 0.582023 0.514636
vt 0.827906 0.383726
vt 0.792822 0.326727
vt 0.804428 0.317264
vt 0.848413 0.366263
vt 0.786630 0.407847
vt 0.757940 0.367237
vt 0.772075 0.361365
vt 0.799869 0.402782
vt 0.775524 0.419027
vt 0.776934 0.349224
vt 0.815455 0.379389
vt 0.791856 0.340174
vt 0.712161 0.469309
vt 0.702010 0.415493
vt 0.692043 0.424307
vt 0.700380 0.472398
vt 0.125011 0.634375
vt 0.110112 0.667499
vt 0.076540 0.656417
vt 0.062233 0.664313
vt 0.257399 0.638288
vt 0.140911 0.631468
vt 0.492928 0.517009
vt 0.516592 0.658668
vt 0.648594 0.622404
vt 0.086637 0.959456
vt 0.013328 0.728888
vt 0.013987 0.693513
vt 0.031311 0.683093
vt 0.043411 0.687645
vt 0.024978 0.662762
vt 0.328460 0.874844
vt 0.329281 0.915042
vt 0.223065 0.916190
vt 0.343490 0.897485
vt 0.340015 0.871738
vt 0.367657 0.909359
vt 0.361709 0.867204
vt 0.208700 0.897889
vt 0.476534 0.831945
vt 0.487200 0.874020
vt 0.736559 0.672358
vt 0.773736 0.712139
vt 0.754937 0.707175
vt 0.497596 0.853139
vt 0.682270 0.748832
vt 0.666434 0.716938
vt 0.712489 0.754215
vt 0.686905 0.709327
vn -0.371403 -0.016500 0.928325
vn -0.145046 -0.949438 0.278442
vn -0.835338 0.074422 0.544676
vn -0.157523 -0.957861 0.240184
vn 0.992299 -0.122314 -0.019539
vn 0.998913 -0.036797 -0.028608
vn 0.909888 -0.414844 -0.002961
vn 0.906226 -0.422787 -0.002522
vn -0.060916 0.000000 0.998143
vn -0.139524 0.000000 0.990219
vn -0.958480 0.088673 0.271021
vn -0.959484 0.180731 0.216165
vn -0.848920 0.489033 -0.200455
vn 0.858715 -0.360964 -0.363750
vn 0.837868 -0.439655 -0.323543
vn -0.892000 0.350122 -0.285919
vn 0.997563 -0.069040 -0.010128
vn 0.997971 -0.062650 -0.011362
vn 0.993602 -0.112805 -0.005436
vn 0.993369 -0.114850 -0.005236
vn 0.968721 -0.134442 0.208577
vn 0.937030 -0.039188 0.347043
vn -0.883173 0.000000 -0.469047
vn -0.050123 0.000000 -0.998743
vn -0.069166 0.000000 -0.997605
vn -0.888356 0.000000 -0.459155
vn 0.912212 -0.409691 -0.004888
vn 0.911416 -0.411457 -0.004922
vn -0.084820 0.000000 -0.996396
vn -0.026847 0.004494 -0.999629
vn 0.000000 0.000000 -1.000000
vn -0.005350 0.000000 -0.999986
vn 0.086754 -0.996229 -0.000835
vn 0.123850 -0.193440 -0.973264
vn -0.402033 -0.242665 -0.882883
vn -0.163683 -0.986511 0.002254
vn -0.065301 0.108756 0.991921
vn -0.341401 0.922784 0.178649
vn -0.184904 0.980163 -0.071359
vn -0.281375 0.949444 0.139225
vn -0.168734 -0.923841 -0.343579
vn -0.083626 -0.996496 0.001301
vn 0.370573 -0.928800 0.002318
vn 0.166701 -0.986008 0.000015
vn 0.335796 -0.912566 0.233377
vn 0.381857 -0.826298 0.414026
vn 0.044177 -0.999024 -0.000395
vn 0.004875 -0.961066 0.276277
vn 0.039175 0.934768 -0.353092
vn -0.275100 0.924630 -0.263401
vn -0.172474 0.919953 -0.352049
vn 0.093686 -0.995601 -0.000966
vn -0.180519 -0.983568 0.002522
vn 0.080696 -0.996739 -0.000446
vn 0.164625 -0.927075 -0.336795
vn -0.129446 -0.956185 -0.262590
vn -0.076225 -0.997091 0.000222
vn 0.166066 0.922311 -0.348949
vn -0.244069 0.931439 0.269911
vn -0.086484 0.905815 0.414752
vn -0.180971 -0.922520 -0.340891
vn -0.088668 -0.996061 0.000468
vn -0.091829 -0.995774 0.001429
vn 0.117029 -0.935807 0.332521
vn -0.084348 0.996229 -0.020322
vn -0.114435 0.958452 -0.261293
vn -0.180128 0.926297 -0.330952
vn 0.000000 0.888118 -0.459615
vn 0.000000 0.110745 -0.993849
vn 0.000000 0.715903 -0.698200
vn 0.000000 0.715903 -0.698200
vn 0.094951 -0.995482 -0.000524
vn -0.085702 -0.996321 0.000273
vn -0.102102 -0.994774 0.000538
vn 0.731466 -0.681854 0.005797
vn 0.728591 -0.684943 -0.002919
vn -0.095397 0.975716 -0.197176
vn -0.297633 -0.917564 0.263610
vn -0.682073 0.670878 0.291030
vn 0.587120 -0.753494 0.295867
vn 0.660020 -0.657570 0.363283
vn -0.574661 0.766683 0.286291
vn -0.161497 -0.932557 0.322887
vn -0.033866 0.997411 -0.063431
vn 0.042755 0.927748 0.370749
vn 0.000000 1.000000 0.000000
vn -0.030031 0.999549 0.000000
vn -0.298536 0.917309 0.263476
vn -0.165190 0.929044 0.331044
vn -0.142586 -0.954873 0.260550
vn 0.168338 -0.930102 0.326455
vn -0.178110 -0.923864 0.338751
vn 0.906289 -0.399653 0.137541
vn -0.127698 0.957317 0.259302
vn 0.169809 0.925599 0.338276
vn -0.177144 0.927614 0.328864
vn 0.000000 0.995315 0.096685
vn 0.000000 0.715900 0.698203
vn 0.707105 0.707109 0.000000
vn 0.715899 0.000000 -0.698204
vn 0.715899 0.000000 -0.698204
vn -0.023638 0.999194 -0.032433
vn 0.000000 0.715900 0.698203
vn 0.000000 0.107463 0.994209
vn 0.972319 0.233574 -0.006283
vn 0.902299 0.408722 0.137123
vn -0.487667 0.787056 -0.377788
vn -0.694106 0.666819 -0.271238
vn 0.000000 0.000000 -1.000000
vn 0.254082 -0.210253 -0.944053
vn 0.715897 0.000000 0.698206
vn 0.715897 0.000000 0.698206
vn 0.000000 0.715900 0.698203
vn 0.004835 -0.963156 -0.268900
vn -0.087031 0.910794 -0.403584
vn -0.034214 0.000000 -0.999415
vn -0.000566 0.000000 -1.000000
vn -0.105596 0.433672 -0.894862
vn 0.003648 0.077101 -0.997017
vn 0.000000 0.888975 -0.457955
vn 0.000000 0.125688 -0.992070
vn -0.000000 1.000000 0.000000
vn 0.904135 -0.402014 -0.144656
vn 0.900112 0.411099 -0.144212
vn 0.074235 0.997028 -0.020586
vn 0.000000 0.995306 0.096777
vn 0.986723 0.162037 -0.011035
vn 0.022026 -0.061397 -0.997870
vn 0.000000 0.118333 0.992974
vn -0.159948 0.987123 0.002028
vn -0.065231 0.073894 0.995130
vn 0.336248 -0.941761 0.004855
vn 0.343614 -0.939023 0.012880
vn 0.370761 -0.927813 -0.041227
vn -0.894796 0.388617 0.219813
vn 0.872453 -0.438459 0.215824
vn 0.873674 -0.364820 0.321871
vn -0.844655 0.500154 0.190798
vn -0.987963 0.154692 0.000000
vn -0.707105 0.707108 0.000000
vn -0.886923 0.000000 -0.461917
vn -1.000000 0.000000 0.000000
vn -0.033552 0.001511 0.999436
vn -0.995387 0.000000 0.095943
vn -0.995202 0.000000 0.097844
vn -0.057425 0.008897 0.998310
vn -0.180171 0.123585 0.975841
vn -0.067561 0.000000 0.997715
vn -0.084903 0.000000 0.996389
vn -0.005092 0.000000 0.999987
vn 0.681848 -0.729681 -0.051465
vn 0.049433 -0.158396 -0.986138
vn 0.437887 -0.898683 0.024969
vn 0.723381 -0.690441 0.003214
vn 0.681147 -0.685201 0.257952
vn -0.349321 0.893446 -0.282363
vn 0.651019 -0.759033 -0.006656
vn -0.825797 0.529079 0.195280
vn -0.696152 0.677735 0.236745
vn 0.369049 -0.795035 -0.481376
vn -0.279678 0.941939 -0.185825
vn 0.671544 -0.740883 -0.010977
vn 0.421840 -0.906666 -0.002851
vn -0.613907 0.761550 -0.207747
vn 0.665876 -0.689462 -0.285048
vn 0.583376 -0.762213 -0.280544
vn -0.715898 0.000000 0.698205
vn -0.995225 0.000000 0.097610
vn -0.512750 0.124135 -0.849517
vn 0.654714 -0.755873 -0.002485
vn -1.000000 0.000000 0.000000
vn -0.995354 0.000000 0.096281
vn 0.051255 -0.998685 0.000785
vn 0.189552 -0.981867 0.002533
vn 0.464849 -0.842962 0.270795
vn -0.243695 0.931480 -0.270106
vn 0.311440 -0.875397 0.369709
vn -0.439195 0.864978 0.242735
vn -0.905561 0.423739 -0.020134
vn 0.744835 -0.667246 0.001906
vn -0.150059 0.000000 0.988677
vn -0.583762 0.084685 0.807496
vn 0.970345 0.241166 -0.016427
vn 0.975865 0.217816 -0.015624
vn 0.249790 -0.968152 0.016943
vn 0.239763 -0.970682 0.017028
vn -0.922335 0.253519 0.291593
vn -0.906429 0.381479 0.181274
vn -0.079239 -0.996748 0.014632
vn -0.994374 0.102111 0.028192
vn -0.986894 0.046341 -0.154574
vn -0.974967 0.161698 -0.152618
vn -0.963079 0.077979 -0.257677
vn -0.354745 -0.926726 0.123834
vn 0.248323 -0.959890 0.130176
vn 0.886880 0.250779 0.388012
vn 0.171201 -0.193604 -0.966027
vn -1.000000 0.000000 0.000000
vn -0.082706 0.024420 -0.996275
vn 0.973898 -0.098352 0.204571
vn -0.979425 -0.052262 0.194927
vn 0.993095 -0.026584 0.114259
vn 0.999822 0.011901 -0.014648
vn 0.988060 0.153590 -0.012107
vn 0.058558 0.998284 0.000000
vn -1.000000 0.000000 0.000000
vn -1.000000 -0.000000 0.000000
vn -0.995204 -0.000814 0.097816
vn -0.964660 -0.239355 0.110180
vn -0.131451 -0.991263 0.010845
vn -0.009125 -0.999885 0.012085
vn -0.979795 -0.200002 0.001300
vn -0.662866 0.217842 -0.716348
vn -0.949007 0.314959 -0.013689
vn -0.949554 0.313553 -0.005562
vn -0.582192 -0.032518 -0.812401
vn -0.942727 0.250014 -0.220816
vn 0.916229 0.246519 -0.315837
vn 0.240197 -0.967848 -0.074673
vn -0.347989 -0.935015 -0.068192
vn -0.066937 -0.997408 0.026389
vn -0.018730 -0.999465 0.026810
vn -0.062819 -0.997848 0.018773
vn -1.000000 0.000000 0.000000
vn -0.980360 -0.197196 0.002713
vn -0.083792 0.000000 -0.996483
vn -0.599724 -0.067566 -0.797349
vn -0.995867 0.090019 -0.012053
vn 0.998633 -0.052001 -0.005234
vn 0.284052 0.062696 -0.956757
vn 0.293892 -0.045508 -0.954755
vn 0.999839 0.006503 -0.016751
vn 0.923345 -0.007407 -0.383900
vn -0.977811 0.092731 -0.187846
vn -0.970022 0.143689 -0.195989
vn 0.878272 0.398089 -0.264883
vn 0.935664 0.351624 -0.029897
vn -0.644461 0.122006 -0.754841
vn -0.902768 0.378622 -0.204098
vn 0.959273 -0.056192 -0.276835
vn -1.000000 0.000000 0.000000
vn -0.822348 0.092671 -0.561387
vn -0.551169 0.058776 -0.832321
vn -0.069591 0.196686 -0.977994
vn 0.796359 0.067960 0.600994
vn 0.996263 -0.086323 -0.002937
vn -0.983261 0.038450 0.178097
vn 0.868962 -0.013710 0.494689
vn 0.998424 0.052915 -0.018672
vn -0.953274 0.157807 0.257618
vn 0.882045 0.411348 0.229759
vn 0.936749 0.348719 -0.029944
vn 0.982594 0.016279 -0.185049
vn 0.077102 0.075941 0.994127
vn 0.998179 0.032419 0.050869
s 1
g Cobl_archway_fixed_low:textureEditorIsolateSelectSetmain24
usemtl initialShadingGroup
f 1/1/1 2/2/2 3/23/3
f 2/2/2 4/24/4 3/23/3
f 6/3/5 7/4/6 5/5/7 25/6/8
f 9/7/9 10/8/10 8/32/11 24/34/12
f 11/12/13 12/13/14 13/28/15 14/30/16
f 17/15/17 15/16/18 16/17/19 32/18/20
f 18/21/21 16/17/19 15/16/18 30/22/22
f 19/25/23 20/26/24 21/29/25 22/68/26
f 12/27/14 23/31/27 5/5/7 13/37/15
f 7/4/6 6/3/5 15/16/18 17/15/17
f 25/6/8 5/5/7 23/31/27 31/38/28
f 27/69/29 21/29/25 28/70/30 29/71/31 26/86/32
f 33/39/33 34/42/34 35/47/35 36/48/36
f 37/79/37 38/92/38 39/119/39
f 39/119/39 38/92/38 40/147/40
f 35/47/35 41/49/41 42/52/42 36/48/36
f 43/57/43 44/58/44 45/63/45 46/64/46
f 45/63/45 44/58/44 47/65/47 48/66/48
f 35/45/35 34/51/34 49/60/49 50/62/50
f 41/106/41 35/45/35 50/62/50 51/109/51
f 52/67/52 33/39/33 36/48/36 53/120/53
f 54/121/54 55/132/55 56/133/56 57/143/57
f 58/114/58 55/122/55 41/106/41 51/109/51
f 46/41/46 45/40/45 40/35/40
f 40/35/40 45/40/45 59/54/59
f 45/40/45 48/43/48 59/54/59
f 59/54/59 48/43/48 60/55/60
f 56/133/56 61/150/61 62/151/62 57/143/57
f 36/48/36 42/52/42 63/157/63 53/120/53
f 48/66/48 47/65/47 52/67/52 64/158/64
f 50/11/50 49/14/49 65/36/65
f 66/130/66 56/131/56 55/122/55 58/114/58
f 67/149/67 61/152/61 56/131/56 66/130/66
f 51/44/51 50/11/50 65/36/65
f 68/87/68 69/99/69 70/100/70 71/101/71
f 72/159/72 54/121/54 57/143/57 73/170/73
f 57/143/57 62/151/62 74/172/74 73/170/73
f 40/147/40 59/148/59 39/119/39
f 74/172/74 62/151/62 75/173/75 76/174/76
f 60/169/60 39/119/39 59/148/59
f 66/46/66 58/50/58 77/53/77
f 67/56/67 66/46/66 77/53/77
f 52/67/52 53/120/53 78/175/78 64/158/64
f 79/74/79 80/75/80 81/76/81 82/77/82
f 78/175/78 53/120/53 63/157/63 83/212/83
f 84/176/84 39/119/39 60/169/60 85/240/85
f 86/103/86 68/87/68 71/101/71 87/104/87
f 64/59/64 78/73/78 88/81/88 85/80/85
f 78/73/78 83/78/83 89/82/89 88/81/88
f 72/159/72 73/170/73 90/216/90 91/223/91
f 90/216/90 73/170/73 74/172/74 92/232/92
f 92/232/92 74/172/74 76/174/76 93/236/93
f 88/241/88 84/176/84 85/240/85
f 90/83/90 94/89/94 91/84/91
f 91/84/91 94/89/94 95/90/95
f 89/414/89 84/176/84 88/241/88
f 92/85/92 96/91/96 90/83/90
f 90/83/90 96/91/96 94/89/94
f 97/110/97 86/103/86 87/104/87 98/123/98
f 99/136/99 100/138/100 101/139/101
f 95/415/95 94/416/94 102/417/102
f 96/418/96 102/417/102 94/416/94
f 97/110/97 98/123/98 103/252/103 104/282/104
f 105/93/105 102/244/102 96/245/96 106/246/106
f 107/411/107 108/115/108 109/108/109
f 108/115/108 110/154/110 109/108/109
f 111/283/111 112/284/112 113/285/113
f 49/60/49 34/51/34 114/155/114 115/188/115
f 116/97/116 70/98/70 69/111/69 117/112/117 109/113/109
f 115/61/115 118/95/118 119/96/119
f 55/132/55 54/121/54 42/52/42 41/49/41
f 120/286/120 121/287/121 69/99/69 68/87/68
f 122/288/122 120/286/120 68/87/68 86/103/86
f 123/239/123 75/173/75 62/151/62 61/150/61
f 42/52/42 54/121/54 72/159/72 63/157/63
f 61/152/61 67/149/67 124/205/124 123/207/123
f 125/102/125 58/50/58 51/44/51 65/36/65
f 126/289/126 122/288/122 86/103/86 97/110/97
f 127/308/127 75/309/75 123/310/123 124/311/124
f 60/55/60 48/43/48 64/59/64 85/80/85
f 77/53/77 58/50/58 125/102/125
f 121/116/121 101/117/101 127/118/127 128/124/128
f 129/290/129 126/289/126 97/110/97 104/282/104
f 67/56/67 77/53/77 130/105/130
f 131/419/131 79/420/79 37/79/37
f 37/79/37 79/420/79 82/421/82
f 132/331/132 133/332/133 134/333/134 43/57/43
f 135/125/135 136/127/136 137/128/137 138/129/138
f 139/135/139 140/137/140 141/140/141 142/141/142
f 143/142/143 144/144/144 145/145/145 146/161/146
f 147/162/147 148/165/148 149/166/149 150/197/150
f 151/334/151 152/335/152 133/332/133 153/336/153
f 31/38/28 154/337/154 155/338/155 137/339/137
f 156/208/156 152/214/152 151/217/151 107/72/107
f 155/338/155 154/337/154 157/340/157 80/341/80
f 158/422/158 159/423/159 138/424/138
f 147/425/147 138/424/138 159/423/159
f 137/128/137 155/134/155 138/129/138
f 138/129/138 155/134/155 158/146/158
f 156/107/156 107/411/107 109/108/109
f 155/134/155 80/75/80 158/146/158
f 158/146/158 80/75/80 79/74/79
f 79/420/79 131/419/131 158/422/158
f 158/422/158 131/419/131 159/423/159
f 133/332/133 152/335/152 160/342/160 134/333/134
f 160/225/160 152/214/152 156/208/156 161/226/161
f 151/334/151 153/336/153 162/343/162
f 162/343/162 153/336/153 163/344/163
f 164/410/164 165/381/165 166/382/166 108/383/108
f 153/336/153 133/332/133 163/344/163
f 163/344/163 133/332/133 132/331/132
f 98/123/98 167/291/167 103/252/103
f 140/137/140 70/98/70 116/97/116 141/140/141
f 157/340/157 162/343/162 80/341/80
f 80/341/80 162/343/162 81/345/81
f 146/161/146 145/145/145 168/199/168 148/165/148
f 169/167/169 11/168/13 28/171/30
f 71/101/71 70/100/70 140/292/140
f 157/340/157 170/346/170 151/334/151 162/343/162
f 142/141/142 141/140/141 19/25/23 171/198/171
f 110/154/110 108/115/108 169/167/169
f 151/217/151 165/381/165 164/410/164 107/72/107
f 148/165/148 168/199/168 172/201/172 149/166/149
f 134/333/134 114/347/114 173/348/173 174/349/174
f 162/343/162 163/344/163 175/350/175 81/345/81
f 87/104/87 71/101/71 140/292/140 139/293/139
f 134/384/134 160/225/160 161/226/161 176/385/176
f 175/350/175 163/344/163 132/331/132 177/351/177
f 114/155/114 134/384/134 176/385/176 115/188/115
f 173/348/173 114/347/114 34/42/34 33/39/33
f 43/57/43 134/333/134 174/349/174 44/58/44
f 175/160/175 178/164/178 81/76/81
f 81/76/81 178/164/178 82/77/82
f 175/160/175 177/163/177 178/164/178
f 178/164/178 177/163/177 38/33/38
f 82/421/82 178/426/178 37/79/37
f 174/349/174 173/348/173 47/65/47 44/58/44
f 20/26/24 109/113/109 28/70/30 21/29/25
f 29//31 28//30 179//179
f 150/427/150 135/428/135 147/425/147
f 147/425/147 135/428/135 138/424/138
f 164/181/164 108/115/108 107/411/107
f 180/352/180 170/346/170 157/340/157 154/337/154
f 136/353/136 25/6/8 31/38/28 137/339/137
f 141/140/141 116/97/116 20/26/24 19/25/23
f 28/171/30 11/168/13 179/182/179
f 150/197/150 149/166/149 1/1/1 9/202/9
f 3/23/3 181/203/181 1/1/1
f 1/1/1 181/203/181 182/206/182 10/215/10
f 1/1/1 10/215/10 9/202/9
f 144/144/144 142/234/142 171/248/171 145/145/145
f 77/53/77 125/102/125 130/105/130
f 130/105/130 125/102/125 127/153/127
f 125/102/125 65/36/65 127/153/127
f 127/153/127 65/36/65 128/156/128
f 183/354/183 184/355/184 185/356/185 186/357/186
f 3/429/3 187/430/187 188/431/188
f 189/179/189 3/180/3 4/209/4
f 190/183/190 191/184/191 192/189/192 193/190/193
f 194/185/194 195/186/195 196/187/196 187/177/187
f 197/386/197 12/13/14 11/12/13 169/387/169
f 23/31/27 12/27/14 197/358/197 180/352/180
f 171/198/171 19/25/23 22/68/26 198/204/198
f 8/9/11 18/19/21 30/20/22 24/10/12
f 11/168/13 14/193/16 179/182/179
f 179/182/179 14/193/16 29/194/31
f 29/194/31 14/193/16 26/195/32
f 14/193/16 199/196/199 26/195/32
f 166/382/166 197/386/197 169/387/169 108/383/108
f 197/358/197 166/359/166 170/346/170 180/352/180
f 15/16/18 6/3/5 200/360/200 30/22/22
f 200/191/200 201/192/201 24/10/12 30/20/22
f 200/360/200 6/3/5 25/6/8 136/353/136
f 201/432/201 9/7/9 24/34/12
f 201/192/201 200/191/200 136/127/136 135/125/135
f 112/249/112 202/250/202 203/251/203 204/255/204
f 100/218/100 127/118/127 101/117/101
f 91/84/91 95/90/95 89/82/89 83/78/83
f 204/219/204 203/220/203 127/118/127 100/218/100
f 95/415/95 102/417/102 84/176/84 89/414/89
f 113/285/113 205/294/205 122/288/122 126/289/126
f 93/88/93 106/94/106 96/91/96 92/85/92
f 205/294/205 204/295/204 100/138/100 99/136/99
f 111/283/111 113/285/113 126/289/126 129/290/129
f 106/246/106 93/312/93 76/313/76 105/93/105
f 104/256/104 37/257/37 39/258/39
f 103/259/103 167/260/167 144/144/144 143/142/143
f 104/256/104 103/259/103 143/142/143 37/257/37
f 31/38/28 23/31/27 180/352/180 154/337/154
f 170/346/170 166/359/166 165/361/165 151/334/151
f 172/201/172 206/279/206 207/280/207 208/296/208
f 1/1/1 208/296/208 209/299/209 2/2/2
f 104/256/104 39/258/39 129/300/129
f 129/300/129 39/258/39 84/301/84
f 167/260/167 139/302/139 142/234/142 144/144/144
f 147/162/147 159/303/159 131/304/131
f 189/179/189 194/227/194 187/228/187 3/180/3
f 4/24/4 2/2/2 210/305/210 211/306/211
f 208/296/208 207/280/207 212/307/212 209/299/209
f 209/299/209 212/307/212 210/305/210 2/2/2
f 213/200/213 214/210/214 215/211/215 216/213/216
f 217/388/217 218/389/218 219/390/219 220/391/220
f 211/253/211 210/254/210 221/261/221 222/262/222
f 186/320/186 223/321/223 220/322/220 219/323/219
f 207/263/207 224/264/224 225/265/225 212/266/212
f 224/264/224 226/267/226 221/261/221 225/265/225
f 227/221/227 228/230/228 214/210/214 213/200/213
f 131/304/131 37/257/37 143/142/143 146/161/146
f 168/199/168 198/281/198 206/279/206 172/201/172
f 32/18/20 229/362/229 230/363/230 231/364/231
f 230/363/230 229/362/229 232/365/232 233/366/233
f 234/392/234 231/393/231 230/394/230 235/395/235
f 231/393/231 234/392/234 193/396/193
f 194/227/194 189/179/189 185/324/185 195/325/195
f 236/367/236 233/366/233 232/365/232 237/368/237
f 234/242/234 238/404/238 190/183/190 193/190/193
f 236/367/236 237/368/237 183/354/183 218/369/218
f 235/395/235 230/394/230 233/397/233 239/398/239
f 218/369/218 183/354/183 186/357/186 219/370/219
f 228/230/228 238/404/238 234/242/234 235/405/235
f 236/399/236 239/398/239 233/397/233
f 236/399/236 218/389/218 217/388/217 239/398/239
f 228/230/228 235/405/235 239/406/239 214/210/214
f 192/400/192 240/401/240 231/393/231 193/396/193
f 206/268/206 241/269/241 224/264/224 207/263/207
f 215/211/215 214/210/214 239/406/239 217/407/217
f 210/254/210 212/266/212 225/265/225 221/261/221
f 223/321/223 215/326/215 217/327/217 220/322/220
f 241/269/241 27/69/29 226/267/226 224/264/224
f 67/314/67 127/308/127 124/311/124
f 99/136/99 101/139/101 121/287/121 120/286/120
f 63/157/63 72/159/72 91/223/91 83/212/83
f 205/294/205 99/136/99 120/286/120 122/288/122
f 109//109 110//110 28//30
f 110/154/110 169/167/169 28/171/30
f 213/270/213 226/267/226 227/271/227
f 213/270/213 216/272/216 226/267/226
f 221/261/221 226/267/226 216/272/216 222/262/222
f 216/328/216 215/326/215 223/321/223 222/329/222
f 223/321/223 189/179/189 222/329/222
f 222/329/222 189/179/189 211/330/211
f 211/330/211 189/179/189 4/209/4
f 27/69/29 26/86/32 199/273/199 226/267/226
f 199/273/199 242/274/242 226/267/226
f 226/267/226 242/274/242 243/275/243
f 227/271/227 226/267/226 238/276/238
f 238/276/238 226/267/226 243/275/243
f 109/113/109 20/26/24 116/97/116
f 145/145/145 171/248/171 198/281/198 168/199/168
f 161/222/161 156/107/156 244/224/244
f 244/224/244 156/107/156 117/229/117
f 156/107/156 109/108/109 117/229/117
f 16/17/19 18/21/21 245/371/245 246/372/246
f 198/204/198 22/68/26 241/269/241 206/268/206
f 245/231/245 18/19/21 247/233/247
f 247/233/247 18/19/21 8/9/11
f 245/371/245 248/373/248 249/374/249 246/372/246
f 248/235/248 245/231/245 250/237/250
f 250/237/250 245/231/245 247/233/247
f 249/374/249 248/373/248 251/375/251 252/376/252
f 247/433/247 8/32/11 10/8/10 182/434/182
f 251/375/251 196/377/196 184/355/184 252/376/252
f 184/355/184 196/377/196 195/378/195 185/356/185
f 5/5/7 7/4/6 253/379/253 13/37/15
f 188/178/188 251/238/251 248/235/248 250/237/250
f 250/435/250 247/433/247 182/434/182 181/436/181
f 253/379/253 7/4/6 17/15/17 240/380/240
f 187/177/187 196/187/196 251/238/251 188/178/188
f 22/68/26 21/29/25 27/69/29 241/269/241
f 13/28/15 253/402/253 191/403/191 14/30/16
f 32/18/20 16/17/19 246/372/246 229/362/229
f 191/184/191 242/408/242 14/193/16
f 188/431/188 250/435/250 181/436/181 3/429/3
f 242/408/242 191/184/191 190/183/190 243/409/243
f 240/401/240 192/400/192 253/402/253
f 253/402/253 192/400/192 191/403/191
f 229/362/229 246/372/246 249/374/249 232/365/232
f 232/365/232 249/374/249 252/376/252 237/368/237
f 240/380/240 17/15/17 32/18/20 231/364/231
f 199/196/199 14/193/16 242/408/242
f 237/368/237 252/376/252 184/355/184 183/354/183
f 201/432/201 135/428/135 150/427/150 9/7/9
f 111/278/111 254/277/254 202/250/202 112/249/112
f 254/277/254 111/278/111 129/300/129 102/247/102
f 49/14/49 115/61/115 65/36/65
f 128/156/128 65/36/65 115/61/115
f 115/61/115 119/96/119 128/156/128
f 67/314/67 130/315/130 127/308/127
f 255/316/255 202/317/202 105/93/105
f 202/317/202 254/318/254 105/93/105
f 105/93/105 254/318/254 102/244/102
f 255/316/255 76/313/76 203/319/203
f 76/313/76 75/309/75 203/319/203
f 203/319/203 75/309/75 127/308/127
f 244/297/244 117/112/117 69/111/69 121/116/121
f 244/297/244 121/116/121 118/298/118
f 118/298/118 121/116/121 119/126/119
f 149/166/149 172/201/172 208/296/208 1/1/1
f 38/92/38 37/79/37 178/426/178
f 177/351/177 132/331/132 46/64/46
f 46/64/46 132/331/132 43/57/43
f 47/65/47 173/348/173 33/39/33 52/67/52
f 38/33/38 177/163/177 46/41/46 40/35/40
f 176/243/176 161/222/161 118/412/118
f 118/412/118 161/222/161 244/224/244
f 115/61/115 176/413/176 118/95/118
f 98/123/98 87/104/87 139/293/139 167/291/167
f 113/285/113 112/284/112 204/295/204 205/294/205
f 131/304/131 146/161/146 148/165/148 147/162/147
f 185/324/185 189/179/189 223/321/223 186/320/186
f 243/409/243 190/183/190 238/404/238
f 238/404/238 228/230/228 227/221/227
f 203/319/203 202/317/202 255/316/255
f 105/93/105 76/313/76 255/316/255
f 102/247/102 129/300/129 84/301/84
f 121/116/121 128/124/128 119/126/119
