# This file uses centimeters as units for non-parametric coordinates.

mtllib Copper_ing_low.mtl
g default
v 0.353876 0.394992 0.342639
v 0.576652 0.269451 0.143498
v 0.143766 0.501074 0.324389
v 0.450646 0.416483 0.064938
v 0.353731 0.513522 0.115513
v -0.356393 0.160926 0.481055
v -0.124289 0.466932 0.279928
v -0.389964 0.125007 0.428225
v -0.194404 0.419034 0.323102
v -0.368849 0.271116 0.383273
v 0.013322 0.600865 0.049214
v 0.048794 0.564043 -0.005183
v -0.209623 0.558560 0.040160
v 0.087836 0.477968 -0.195010
v 0.248340 0.347420 -0.346976
v -0.299937 0.484682 -0.153868
v -0.101519 0.436212 -0.341588
v 0.283486 0.386977 0.404169
v 0.271555 0.314536 0.422142
v 0.377230 0.343450 0.326952
v 0.343253 0.480585 0.279623
v 0.259480 0.489622 0.366633
v 0.408472 0.416892 0.201293
v 0.164489 0.448207 0.382858
v 0.103297 0.414815 0.374062
v 0.272303 0.302056 0.438914
v 0.525096 0.252942 0.245749
v 0.549903 0.139730 0.251200
v 0.593806 0.155600 0.100230
v 0.054396 0.419261 0.399718
v 0.042904 0.286202 0.526267
v 0.270698 0.249652 0.500529
v -0.049685 0.407013 0.399772
v -0.139225 0.235209 0.501616
v 0.626450 0.143041 -0.126564
v 0.204142 0.543871 0.300431
v 0.113662 0.558557 0.231083
v 0.080013 0.485952 0.294181
v 0.450465 0.340699 0.198722
v 0.416298 0.410686 -0.124226
v 0.348806 0.464362 -0.038384
v 0.286823 0.487822 0.036309
v 0.249644 0.572482 0.103676
v 0.184471 0.580599 0.183877
v 0.284584 0.541641 0.228063
v -0.284052 0.177146 0.508979
v -0.272098 0.073752 0.497990
v 0.008021 0.493689 0.301697
v -0.180455 0.372623 0.393062
v -0.421131 0.072627 0.432730
v -0.268487 0.403299 0.295577
v -0.306340 0.343813 0.384164
v -0.432271 0.275285 0.310271
v -0.384104 0.336972 0.301858
v -0.175943 0.520221 0.207652
v -0.053162 0.574921 0.194340
v -0.120631 0.569025 0.127524
v 0.459444 0.310079 -0.259469
v 0.465155 0.365483 -0.198828
v -0.334868 0.372492 0.271206
v -0.535854 0.158926 0.333739
v -0.010626 0.616332 0.101827
v 0.048569 0.579180 0.137682
v 0.101969 0.572951 0.061891
v -0.037792 0.566726 -0.010533
v -0.084123 0.605161 0.039957
v 0.157413 0.542636 0.004372
v 0.087261 0.542090 -0.045317
v 0.003146 0.549880 -0.090338
v 0.296111 0.378384 -0.274814
v 0.352421 0.380366 -0.247381
v 0.354099 0.315710 -0.332798
v -0.162833 0.559604 -0.035172
v -0.258424 0.530828 -0.062182
v -0.303682 0.502953 0.032348
v 0.062111 0.495430 -0.157602
v 0.132207 0.511309 -0.107586
v 0.190404 0.501537 -0.194200
v 0.140342 0.483598 -0.268678
v 0.007273 0.476316 -0.240818
v -0.035648 0.463992 -0.194016
v 0.215467 0.433200 -0.316352
v 0.276602 0.448429 -0.265169
v 0.156717 0.366021 -0.446164
v 0.119944 0.447095 -0.408923
v 0.083141 0.484696 -0.353292
v -0.013075 0.439967 -0.363763
v -0.020601 0.484861 -0.304128
v -0.393597 0.508733 -0.077791
v -0.411209 0.445421 -0.146879
v -0.463256 0.382932 -0.031710
v -0.404128 0.460341 0.009168
v -0.215963 0.505819 -0.133354
v -0.172141 0.448140 -0.192342
v -0.277379 0.419525 -0.221392
v -0.111359 0.340464 -0.403990
v -0.203943 0.370678 -0.319846
v -0.126256 0.432981 -0.259884
v 0.009101 0.366371 -0.431562
v -0.493983 0.360594 0.093797
v -0.478971 0.322495 0.188674
v -0.414060 0.378901 0.193485
v -0.424457 0.435245 0.121064
v -0.339522 0.419794 0.199784
v -0.338460 0.477527 0.152298
v -0.248956 0.448000 0.231400
v -0.241502 0.510495 0.161751
v -0.641036 0.175170 0.019108
v -0.625827 0.167431 0.182838
v -0.646728 0.127267 0.005760
v -0.636531 0.114562 0.176570
v -0.555504 0.110307 0.324420
v -0.541523 0.030931 0.294901
v -0.423419 0.012761 0.416140
v -0.269658 0.012675 0.494758
v -0.124867 0.140147 0.522035
v -0.115087 0.055618 0.481226
v 0.036177 0.068272 0.462460
v 0.043536 0.196499 0.509336
v -0.267512 0.004415 0.468507
v -0.115174 0.027857 0.469195
v 0.029544 0.034955 0.450246
v 0.178709 0.017907 0.415224
v 0.193065 0.049742 0.428043
v 0.019301 0.025912 0.424819
v 0.318690 -0.007180 0.329544
v 0.347567 0.005880 0.358531
v 0.343209 0.047976 -0.410498
v 0.492433 -0.011960 -0.160183
v 0.455960 0.023177 -0.297427
v 0.526321 -0.014983 -0.166430
v 0.522300 -0.000935 0.103214
v 0.483543 -0.002706 0.248762
v 0.539816 0.023634 0.104952
v 0.509300 0.019223 0.255471
v 0.371525 0.028309 0.379663
v 0.420130 0.124779 0.399967
v 0.243623 0.165200 0.475105
v 0.438081 0.240065 0.399151
v 0.405988 0.312050 0.351285
v 0.564174 0.008028 -0.171037
v 0.530162 0.135102 -0.282300
v 0.481702 0.042148 -0.299569
v 0.357575 0.057080 -0.427047
v 0.383893 0.126754 -0.449689
v 0.208218 0.074881 -0.474923
v 0.216189 0.135439 -0.485646
v 0.084129 0.142182 -0.505685
v -0.043769 0.175434 -0.500401
v 0.072713 0.071695 -0.503145
v -0.064737 0.085523 -0.491090
v -0.177979 0.105017 -0.440867
v -0.174790 0.225769 -0.458685
v -0.264863 0.118788 -0.362098
v -0.269791 0.251451 -0.376982
v -0.367892 0.127283 -0.305544
v -0.379380 0.252961 -0.315238
v -0.454195 0.111611 -0.234062
v -0.462711 0.235479 -0.234002
v -0.564049 0.123629 -0.141324
v -0.563718 0.204538 -0.125088
v -0.504624 0.066053 -0.122299
v -0.610777 0.072689 -0.002539
v -0.606456 0.052024 0.154645
v -0.166613 0.056637 -0.374412
v 0.059291 0.058826 -0.480983
v -0.081002 0.060905 -0.455706
v -0.176435 0.078902 -0.396296
v -0.253386 0.096401 -0.332544
v -0.344185 0.097277 -0.285426
v -0.431461 0.090069 -0.225300
v -0.122159 0.542106 -0.085452
v -0.073455 0.503557 -0.145736
v 0.325777 0.438263 -0.196257
v 0.259059 0.475048 -0.132195
v 0.199035 0.511122 -0.053441
v 0.247005 0.529215 0.046384
v 0.016060 0.558418 0.206699
v -0.081426 0.448845 -0.266327
v -0.071815 0.456534 -0.308581
v -0.053909 0.038901 0.035046
vt 0.172391 0.898594
vt 0.196556 0.911897
vt 0.198150 0.933231
vt 0.157535 0.906624
vt 0.176335 0.870378
vt 0.204817 0.884785
vt 0.145195 0.862683
vt 0.230817 0.894149
vt 0.250422 0.898823
vt 0.297583 0.896176
vt 0.277790 0.952117
vt 0.266790 0.901151
vt 0.198670 0.939210
vt 0.201528 0.962157
vt 0.079538 0.867767
vt 0.098840 0.900173
vt 0.071059 0.922952
vt 0.042282 0.864884
vt 0.123946 0.826555
vt 0.124030 0.874064
vt 0.144737 0.785702
vt 0.114185 0.768543
vt 0.340431 0.944160
vt 0.336842 0.888314
vt 0.017105 0.787411
vt 0.092937 0.750281
vt 0.235306 0.873008
vt 0.217017 0.862779
vt 0.238119 0.842426
vt 0.253592 0.867166
vt 0.169498 0.798394
vt 0.162958 0.827124
vt 0.193661 0.815633
vt 0.216382 0.831587
vt 0.191574 0.849344
vt 0.412430 0.922465
vt 0.390142 0.935340
vt 0.373816 0.876418
vt 0.401074 0.878949
vt 0.434200 0.916494
vt 0.406618 0.962098
vt 0.310547 0.852513
vt 0.273243 0.863417
vt 0.334641 0.862932
vt 0.464266 0.859753
vt 0.492668 0.567496
vt 0.487212 0.571467
vt 0.479599 0.552596
vt 0.355552 0.850425
vt 0.394493 0.847209
vt 0.416813 0.850955
vt 0.315604 0.822745
vt 0.279305 0.823071
vt 0.293955 0.801878
vt 0.082146 0.729966
vt 0.027135 0.720324
vt 0.376399 0.840217
vt 0.251645 0.786955
vt 0.262139 0.799199
vt 0.248192 0.813438
vt 0.228230 0.794667
vt 0.260095 0.765730
vt 0.276437 0.779733
vt 0.236811 0.772747
vt 0.207045 0.781919
vt 0.222488 0.763692
vt 0.243878 0.747053
vt 0.130636 0.709313
vt 0.119062 0.724316
vt 0.104149 0.695462
vt 0.136021 0.681904
vt 0.310765 0.772531
vt 0.292970 0.753572
vt 0.317458 0.740827
vt 0.339329 0.765584
vt 0.210530 0.720931
vt 0.221049 0.729244
vt 0.204314 0.749201
vt 0.181364 0.731057
vt 0.230145 0.701976
vt 0.246983 0.708899
vt 0.188978 0.706934
vt 0.159939 0.697322
vt 0.149296 0.717738
vt 0.165942 0.652792
vt 0.185235 0.668952
vt 0.200244 0.681431
vt 0.224769 0.663165
vt 0.231244 0.682710
vt 0.351217 0.730672
vt 0.357187 0.706658
vt 0.391877 0.733574
vt 0.368121 0.752505
vt 0.324094 0.709951
vt 0.301914 0.719816
vt 0.286211 0.697277
vt 0.316023 0.681949
vt 0.251466 0.662297
vt 0.249672 0.629093
vt 0.287501 0.650926
vt 0.267975 0.681051
vt 0.210089 0.638154
vt 0.157269 0.584174
vt 0.207146 0.578951
vt 0.262308 0.590806
vt 0.308497 0.612065
vt 0.355118 0.629228
vt 0.394745 0.653206
vt 0.439637 0.689407
vt 0.473894 0.738664
vt 0.410826 0.772214
vt 0.418043 0.805434
vt 0.480468 0.797516
vt 0.393147 0.809591
vt 0.382540 0.784002
vt 0.369042 0.816156
vt 0.358004 0.797602
vt 0.343620 0.830765
vt 0.331134 0.806219
vt 0.491746 0.613299
vt 0.478585 0.630932
vt 0.474131 0.627596
vt 0.485924 0.611383
vt 0.491747 0.592122
vt 0.497693 0.590554
vt 0.482216 0.592268
vt 0.480556 0.573771
vt 0.474054 0.556266
vt 0.461809 0.543271
vt 0.469310 0.535405
vt 0.447329 0.532443
vt 0.455476 0.518833
vt 0.471692 0.558141
vt 0.459583 0.546077
vt 0.445580 0.536328
vt 0.429109 0.529200
vt 0.429729 0.524897
vt 0.444438 0.539554
vt 0.410281 0.527557
vt 0.409703 0.522719
vt 0.360871 0.558156
vt 0.354494 0.591261
vt 0.353320 0.572619
vt 0.357733 0.556293
vt 0.376289 0.532772
vt 0.390187 0.523299
vt 0.373828 0.530158
vt 0.388188 0.520149
vt 0.409098 0.518312
vt 0.380218 0.508446
vt 0.406821 0.505832
vt 0.431876 0.509345
vt 0.348729 0.972692
vt 0.281092 0.978891
vt 0.202334 0.987718
vt 0.128374 0.974246
vt 0.140068 0.941950
vt 0.149974 0.917795
vt 0.362194 0.519173
vt 0.353650 0.553899
vt 0.342287 0.540923
vt 0.349857 0.570971
vt 0.338258 0.565647
vt 0.351845 0.591708
vt 0.343030 0.593903
vt 0.361301 0.607572
vt 0.355403 0.611517
vt 0.061919 0.646482
vt 0.112288 0.608527
vt 0.378475 0.637867
vt 0.366034 0.624939
vt 0.371957 0.619674
vt 0.384735 0.629129
vt 0.398101 0.634396
vt 0.395297 0.647851
vt 0.412052 0.635859
vt 0.411109 0.651321
vt 0.426019 0.637414
vt 0.426772 0.651958
vt 0.438998 0.635576
vt 0.441440 0.649787
vt 0.455789 0.635076
vt 0.460103 0.643303
vt 0.450627 0.626866
vt 0.468229 0.623091
vt 0.478026 0.608828
vt 0.374909 0.618316
vt 0.402400 0.625881
vt 0.389000 0.626380
vt 0.401557 0.629580
vt 0.413101 0.631354
vt 0.425000 0.632340
vt 0.437320 0.632192
vt 0.278797 0.740458
vt 0.261335 0.723089
vt 0.137433 0.739474
vt 0.163647 0.752593
vt 0.188952 0.768668
vt 0.185498 0.799202
vt 0.262371 0.831881
vt 0.245874 0.674885
vt 0.253802 0.684737
vt 0.421638 0.580606
vn 0.741584 0.329462 0.584387
vn 0.328370 0.272531 0.904378
vn 0.287238 0.546824 0.786434
vn 0.726494 0.462961 0.507812
vn 0.741584 0.329462 0.584387
vn 0.690220 0.620404 0.372418
vn 0.333100 0.660902 0.672497
vn 0.328370 0.272531 0.904378
vn 0.741584 0.329462 0.584387
vn 0.726494 0.462961 0.507812
vn 0.780489 0.561481 0.274911
vn 0.690220 0.620404 0.372418
vn 0.328370 0.272531 0.904378
vn 0.333100 0.660902 0.672497
vn -0.203074 0.414753 0.886984
vn 0.328370 0.272531 0.904378
vn -0.203074 0.414753 0.886984
vn 0.042681 0.675793 0.735854
vn 0.287238 0.546824 0.786434
vn -0.208144 0.685879 0.697313
vn -0.005738 0.350030 0.936721
vn 0.071331 0.747351 0.660589
vn 0.071331 0.747351 0.660589
vn -0.005738 0.350030 0.936721
vn 0.314320 0.698789 0.642570
vn -0.005738 0.350030 0.936721
vn 0.321749 0.104234 0.941070
vn 0.314320 0.698789 0.642570
vn 0.892341 0.442579 0.088607
vn 0.793392 0.389248 0.467990
vn 0.873868 -0.151821 0.461850
vn 0.992927 0.053533 0.105969
vn 0.793392 0.389248 0.467990
vn 0.892341 0.442579 0.088607
vn 0.714464 0.699633 0.007370
vn 0.659880 0.653491 0.370820
vn 0.400013 0.896278 -0.191507
vn 0.714464 0.699633 0.007370
vn 0.701253 0.709465 -0.070035
vn 0.992927 0.053533 0.105969
vn 0.701253 0.709465 -0.070035
vn 0.892341 0.442579 0.088607
vn 0.714464 0.699633 0.007370
vn 0.892341 0.442579 0.088607
vn 0.701253 0.709465 -0.070035
vn 0.314320 0.698789 0.642570
vn 0.287238 0.546824 0.786434
vn 0.042681 0.675793 0.735854
vn 0.071331 0.747351 0.660589
vn -0.167121 0.410712 0.896318
vn -0.005738 0.350030 0.936721
vn -0.208144 0.685879 0.697313
vn -0.224942 0.651279 0.724732
vn 0.992927 0.053533 0.105969
vn 0.981250 0.184836 -0.054622
vn 0.763994 0.629944 -0.139586
vn 0.701253 0.709465 -0.070035
vn -0.330675 0.684137 0.650086
vn 0.070685 0.874187 0.480418
vn -0.086631 0.899552 0.428138
vn -0.103598 0.764925 0.635734
vn -0.330675 0.684137 0.650086
vn -0.203074 0.414753 0.886984
vn 0.333100 0.660902 0.672497
vn 0.070685 0.874187 0.480418
vn -0.330675 0.684137 0.650086
vn -0.103598 0.764925 0.635734
vn 0.042681 0.675793 0.735854
vn -0.203074 0.414753 0.886984
vn 0.714464 0.699633 0.007370
vn 0.400013 0.896278 -0.191507
vn 0.407046 0.860523 -0.306291
vn 0.608773 0.792947 -0.025101
vn 0.608773 0.792947 -0.025101
vn 0.303569 0.940030 -0.155532
vn 0.122419 0.985841 0.114588
vn 0.472347 0.849577 0.234747
vn -0.560194 0.279227 0.779881
vn -0.272995 0.321694 0.906635
vn -0.332338 0.641966 0.690964
vn -0.548063 0.540462 0.638379
vn -0.560194 0.279227 0.779881
vn -0.532800 -0.066696 0.843609
vn -0.177961 -0.158385 0.971208
vn -0.272995 0.321694 0.906635
vn -0.246039 0.778610 0.577262
vn -0.208144 0.685879 0.697313
vn 0.071331 0.747351 0.660589
vn -0.094419 0.779285 0.619516
vn -0.246039 0.778610 0.577262
vn -0.267789 0.816469 0.511535
vn -0.224942 0.651279 0.724732
vn -0.208144 0.685879 0.697313
vn -0.532800 -0.066696 0.843609
vn -0.560194 0.279227 0.779881
vn -0.646664 0.497164 0.578493
vn -0.532800 -0.066696 0.843609
vn -0.558429 -0.050209 0.828031
vn -0.177961 -0.158385 0.971208
vn -0.267789 0.816469 0.511535
vn -0.365974 0.814506 0.450159
vn -0.332338 0.641966 0.690964
vn -0.224942 0.651279 0.724732
vn -0.332338 0.641966 0.690964
vn -0.568293 0.676290 0.468696
vn -0.611870 0.593686 0.522639
vn -0.548063 0.540462 0.638379
vn -0.360739 0.786343 0.501530
vn -0.246039 0.778610 0.577262
vn -0.178308 0.837557 0.516434
vn -0.338995 0.896303 0.285874
vn 0.669402 0.461225 -0.582385
vn 0.763994 0.629944 -0.139586
vn 0.981250 0.184836 -0.054622
vn 0.776312 0.157685 -0.610308
vn -0.435845 0.799870 0.412610
vn -0.568293 0.676290 0.468696
vn -0.332338 0.641966 0.690964
vn -0.365974 0.814506 0.450159
vn 0.226166 0.931892 -0.283595
vn 0.007449 0.989678 0.143114
vn 0.102112 0.980686 0.166820
vn 0.146401 0.968964 -0.199186
vn 0.049152 0.913273 -0.404372
vn -0.197224 0.974577 -0.106312
vn 0.007449 0.989678 0.143114
vn 0.226166 0.931892 -0.283595
vn 0.226166 0.931892 -0.283595
vn 0.146401 0.968964 -0.199186
vn 0.176237 0.927319 -0.330183
vn 0.049152 0.913273 -0.404372
vn 0.176237 0.927319 -0.330183
vn 0.146401 0.968964 -0.199186
vn 0.263261 0.888636 -0.375527
vn 0.200490 0.923314 -0.327559
vn 0.176237 0.927319 -0.330183
vn 0.200490 0.923314 -0.327559
vn 0.045112 0.896219 -0.441312
vn 0.049152 0.913273 -0.404372
vn 0.474726 0.613956 -0.630629
vn 0.420309 0.730962 -0.537620
vn 0.421065 0.532582 -0.734208
vn 0.410929 0.466007 -0.783566
vn -0.384975 0.918967 0.085411
vn -0.338995 0.896303 0.285874
vn -0.197224 0.974577 -0.106312
vn -0.215302 0.947020 -0.238322
vn -0.384975 0.918967 0.085411
vn -0.215302 0.947020 -0.238322
vn -0.252058 0.955098 -0.155741
vn -0.389083 0.908789 0.150723
vn -0.128422 0.982722 -0.133285
vn 0.003973 0.911436 -0.411423
vn 0.163174 0.948835 -0.270344
vn 0.194779 0.959262 -0.204640
vn -0.120000 0.992699 0.012184
vn -0.113809 0.898655 -0.423636
vn 0.003973 0.911436 -0.411423
vn -0.128422 0.982722 -0.133285
vn -0.128422 0.982722 -0.133285
vn 0.194779 0.959262 -0.204640
vn 0.146136 0.970430 -0.192121
vn -0.120000 0.992699 0.012184
vn 0.410929 0.466007 -0.783566
vn 0.512961 0.685079 -0.517241
vn 0.465529 0.763518 -0.447574
vn 0.474726 0.613956 -0.630629
vn 0.410929 0.466007 -0.783566
vn 0.293661 0.365971 -0.883079
vn 0.203073 0.686292 -0.698401
vn 0.512961 0.685079 -0.517241
vn 0.055271 0.946902 -0.316735
vn 0.203073 0.686292 -0.698401
vn -0.249493 0.625411 -0.739334
vn -0.196470 0.967872 -0.156919
vn -0.540411 0.834385 -0.108436
vn -0.652067 0.563878 -0.506804
vn -0.800699 0.559635 -0.213751
vn -0.628881 0.772967 0.083846
vn -0.160350 0.787193 -0.595496
vn -0.071404 0.822554 -0.564187
vn -0.102148 0.815109 -0.570231
vn -0.358876 0.647672 -0.672108
vn -0.540411 0.834385 -0.108436
vn -0.252058 0.955098 -0.155741
vn -0.071404 0.822554 -0.564187
vn -0.160350 0.787193 -0.595496
vn -0.160350 0.787193 -0.595496
vn -0.358876 0.647672 -0.672108
vn -0.652067 0.563878 -0.506804
vn -0.540411 0.834385 -0.108436
vn -0.414895 0.691346 -0.591525
vn -0.322877 0.532286 -0.782574
vn -0.416799 0.658460 -0.626665
vn -0.290097 0.850190 -0.439341
vn -0.414895 0.691346 -0.591525
vn -0.249493 0.625411 -0.739334
vn -0.132195 0.410543 -0.902208
vn -0.322877 0.532286 -0.782574
vn -0.132195 0.410543 -0.902208
vn 0.293661 0.365971 -0.883079
vn 0.153429 0.193451 -0.969039
vn -0.153239 0.217426 -0.963973
vn -0.322877 0.532286 -0.782574
vn -0.132195 0.410543 -0.902208
vn -0.153239 0.217426 -0.963973
vn -0.432961 0.269728 -0.860111
vn -0.132195 0.410543 -0.902208
vn -0.249493 0.625411 -0.739334
vn 0.203073 0.686292 -0.698401
vn 0.293661 0.365971 -0.883079
vn -0.322877 0.532286 -0.782574
vn -0.432961 0.269728 -0.860111
vn -0.523418 0.334623 -0.783620
vn -0.416799 0.658460 -0.626665
vn -0.416799 0.658460 -0.626665
vn -0.523418 0.334623 -0.783620
vn -0.526212 0.347621 -0.776055
vn -0.358876 0.647672 -0.672108
vn -0.358876 0.647672 -0.672108
vn -0.526212 0.347621 -0.776055
vn -0.700840 0.355883 -0.618200
vn -0.652067 0.563878 -0.506804
vn -0.652067 0.563878 -0.506804
vn -0.700840 0.355883 -0.618200
vn -0.816418 0.430387 -0.385005
vn -0.800699 0.559635 -0.213751
vn -0.800699 0.559635 -0.213751
vn -0.816418 0.430387 -0.385005
vn -0.855845 0.511479 -0.076930
vn -0.774873 0.631040 0.036888
vn -0.702124 0.620741 0.348860
vn -0.774873 0.631040 0.036888
vn -0.855845 0.511479 -0.076930
vn -0.793003 0.521117 0.315570
vn -0.774873 0.631040 0.036888
vn -0.702124 0.620741 0.348860
vn -0.576866 0.652522 0.491366
vn -0.621010 0.751070 0.224146
vn -0.774873 0.631040 0.036888
vn -0.621010 0.751070 0.224146
vn -0.628881 0.772967 0.083846
vn -0.800699 0.559635 -0.213751
vn -0.621010 0.751070 0.224146
vn -0.576866 0.652522 0.491366
vn -0.423295 0.703833 0.570474
vn -0.439615 0.829044 0.345579
vn -0.621010 0.751070 0.224146
vn -0.439615 0.829044 0.345579
vn -0.389083 0.908789 0.150723
vn -0.628881 0.772967 0.083846
vn -0.439615 0.829044 0.345579
vn -0.423295 0.703833 0.570474
vn -0.388072 0.725209 0.568746
vn -0.403607 0.837501 0.368366
vn -0.439615 0.829044 0.345579
vn -0.403607 0.837501 0.368366
vn -0.384975 0.918967 0.085411
vn -0.389083 0.908789 0.150723
vn -0.423295 0.703833 0.570474
vn -0.576866 0.652522 0.491366
vn -0.568293 0.676290 0.468696
vn -0.435845 0.799870 0.412610
vn -0.423295 0.703833 0.570474
vn -0.435845 0.799870 0.412610
vn -0.365974 0.814506 0.450159
vn -0.388072 0.725209 0.568746
vn -0.576866 0.652522 0.491366
vn -0.702124 0.620741 0.348860
vn -0.611870 0.593686 0.522639
vn -0.568293 0.676290 0.468696
vn -0.646664 0.497164 0.578493
vn -0.611870 0.593686 0.522639
vn -0.702124 0.620741 0.348860
vn -0.793003 0.521117 0.315570
vn -0.793003 0.521117 0.315570
vn -0.855845 0.511479 -0.076930
vn -0.943151 -0.217892 -0.250978
vn -0.945461 -0.195968 0.260192
vn -0.793003 0.521117 0.315570
vn -0.945461 -0.195968 0.260192
vn -0.778914 -0.096974 0.619588
vn -0.646664 0.497164 0.578493
vn -0.778914 -0.096974 0.619588
vn -0.558429 -0.050209 0.828031
vn -0.532800 -0.066696 0.843609
vn -0.646664 0.497164 0.578493
vn -0.558429 -0.050209 0.828031
vn -0.778914 -0.096974 0.619588
vn -0.259929 -0.964351 0.049634
vn -0.196494 -0.972160 0.127656
vn -0.558429 -0.050209 0.828031
vn -0.196494 -0.972160 0.127656
vn -0.131879 -0.367838 0.920491
vn -0.177961 -0.158385 0.971208
vn -0.177961 -0.158385 0.971208
vn -0.131879 -0.367838 0.920491
vn 0.138122 -0.379660 0.914757
vn 0.037732 -0.155289 0.987148
vn 0.138122 -0.379660 0.914757
vn 0.144635 -0.380743 0.913299
vn 0.085020 -0.247704 0.965098
vn 0.037732 -0.155289 0.987148
vn 0.138122 -0.379660 0.914757
vn -0.131879 -0.367838 0.920491
vn 0.022208 -0.999538 -0.020763
vn 0.155692 -0.719886 0.676405
vn 0.138122 -0.379660 0.914757
vn 0.155692 -0.719886 0.676405
vn 0.124288 -0.575339 0.808417
vn 0.144635 -0.380743 0.913299
vn 0.124288 -0.575339 0.808417
vn 0.069897 -0.836397 0.543650
vn 0.172718 -0.416941 0.892372
vn 0.144635 -0.380743 0.913299
vn 0.124288 -0.575339 0.808417
vn 0.155692 -0.719886 0.676405
vn -0.021119 -0.999711 -0.011467
vn 0.124288 -0.575339 0.808417
vn -0.021119 -0.999711 -0.011467
vn 0.069897 -0.836397 0.543650
vn -0.021119 -0.999711 -0.011467
vn -0.073995 -0.997200 0.010798
vn 0.180303 -0.837960 0.515087
vn 0.069897 -0.836397 0.543650
vn -0.103109 -0.990726 -0.088491
vn -0.065656 -0.986739 -0.148442
vn 0.167085 -0.920802 -0.352429
vn 0.371705 -0.916759 -0.146247
vn -0.103109 -0.990726 -0.088491
vn 0.371705 -0.916759 -0.146247
vn 0.172645 -0.984212 0.038987
vn -0.103109 -0.990726 -0.088491
vn 0.172645 -0.984212 0.038987
vn 0.143420 -0.985365 0.092123
vn -0.073995 -0.997200 0.010798
vn 0.143420 -0.985365 0.092123
vn 0.172645 -0.984212 0.038987
vn 0.876362 -0.458720 0.146852
vn 0.780434 -0.422450 0.460933
vn 0.143420 -0.985365 0.092123
vn 0.780434 -0.422450 0.460933
vn 0.416619 -0.449620 0.790108
vn 0.180303 -0.837960 0.515087
vn 0.143420 -0.985365 0.092123
vn 0.180303 -0.837960 0.515087
vn -0.073995 -0.997200 0.010798
vn 0.416619 -0.449620 0.790108
vn 0.780434 -0.422450 0.460933
vn 0.873868 -0.151821 0.461850
vn 0.566808 -0.244526 0.786725
vn 0.416619 -0.449620 0.790108
vn 0.566808 -0.244526 0.786725
vn 0.221448 -0.314741 0.922984
vn 0.172718 -0.416941 0.892372
vn 0.416619 -0.449620 0.790108
vn 0.172718 -0.416941 0.892372
vn 0.069897 -0.836397 0.543650
vn 0.180303 -0.837960 0.515087
vn 0.221448 -0.314741 0.922984
vn 0.085020 -0.247704 0.965098
vn 0.144635 -0.380743 0.913299
vn 0.172718 -0.416941 0.892372
vn 0.037732 -0.155289 0.987148
vn 0.085020 -0.247704 0.965098
vn -0.005738 0.350030 0.936721
vn -0.167121 0.410712 0.896318
vn 0.037732 -0.155289 0.987148
vn -0.167121 0.410712 0.896318
vn -0.272995 0.321694 0.906635
vn -0.177961 -0.158385 0.971208
vn 0.085020 -0.247704 0.965098
vn 0.221448 -0.314741 0.922984
vn 0.321749 0.104234 0.941070
vn -0.005738 0.350030 0.936721
vn 0.221448 -0.314741 0.922984
vn 0.566808 -0.244526 0.786725
vn 0.661574 0.242515 0.709581
vn 0.321749 0.104234 0.941070
vn 0.661574 0.242515 0.709581
vn 0.793392 0.389248 0.467990
vn 0.659880 0.653491 0.370820
vn 0.570415 0.665690 0.481127
vn 0.314320 0.698789 0.642570
vn 0.321749 0.104234 0.941070
vn 0.661574 0.242515 0.709581
vn 0.570415 0.665690 0.481127
vn 0.661574 0.242515 0.709581
vn 0.566808 -0.244526 0.786725
vn 0.873868 -0.151821 0.461850
vn 0.793392 0.389248 0.467990
vn 0.570415 0.665690 0.481127
vn 0.659880 0.653491 0.370820
vn 0.780489 0.561481 0.274911
vn 0.726494 0.462961 0.507812
vn 0.570415 0.665690 0.481127
vn 0.726494 0.462961 0.507812
vn 0.287238 0.546824 0.786434
vn 0.314320 0.698789 0.642570
vn 0.992927 0.053533 0.105969
vn 0.873868 -0.151821 0.461850
vn 0.780434 -0.422450 0.460933
vn 0.876362 -0.458720 0.146852
vn 0.992927 0.053533 0.105969
vn 0.876362 -0.458720 0.146852
vn 0.871098 -0.460582 -0.170452
vn 0.981250 0.184836 -0.054622
vn 0.871098 -0.460582 -0.170452
vn 0.876362 -0.458720 0.146852
vn 0.172645 -0.984212 0.038987
vn 0.371705 -0.916759 -0.146247
vn 0.981250 0.184836 -0.054622
vn 0.871098 -0.460582 -0.170452
vn 0.702191 -0.403963 -0.586296
vn 0.776312 0.157685 -0.610308
vn 0.702191 -0.403963 -0.586296
vn 0.871098 -0.460582 -0.170452
vn 0.371705 -0.916759 -0.146247
vn 0.167085 -0.920802 -0.352429
vn 0.702191 -0.403963 -0.586296
vn 0.167085 -0.920802 -0.352429
vn -0.065656 -0.986739 -0.148442
vn 0.495111 -0.517590 -0.697829
vn 0.702191 -0.403963 -0.586296
vn 0.495111 -0.517590 -0.697829
vn 0.510144 0.278264 -0.813832
vn 0.776312 0.157685 -0.610308
vn 0.510144 0.278264 -0.813832
vn 0.495111 -0.517590 -0.697829
vn 0.157651 -0.518190 -0.840610
vn 0.510144 0.278264 -0.813832
vn 0.157651 -0.518190 -0.840610
vn 0.340532 0.298634 -0.891547
vn 0.510144 0.278264 -0.813832
vn 0.340532 0.298634 -0.891547
vn 0.410929 0.466007 -0.783566
vn 0.421065 0.532582 -0.734208
vn 0.669402 0.461225 -0.582385
vn 0.776312 0.157685 -0.610308
vn 0.510144 0.278264 -0.813832
vn 0.421065 0.532582 -0.734208
vn 0.410929 0.466007 -0.783566
vn 0.340532 0.298634 -0.891547
vn 0.153429 0.193451 -0.969039
vn 0.293661 0.365971 -0.883079
vn -0.153239 0.217426 -0.963973
vn 0.153429 0.193451 -0.969039
vn 0.017173 -0.270523 -0.962560
vn -0.267098 -0.275858 -0.923342
vn -0.153239 0.217426 -0.963973
vn -0.267098 -0.275858 -0.923342
vn -0.539461 -0.252781 -0.803171
vn -0.432961 0.269728 -0.860111
vn -0.432961 0.269728 -0.860111
vn -0.539461 -0.252781 -0.803171
vn -0.579455 -0.272035 -0.768263
vn -0.523418 0.334623 -0.783620
vn -0.523418 0.334623 -0.783620
vn -0.579455 -0.272035 -0.768263
vn -0.552015 -0.226350 -0.802524
vn -0.526212 0.347621 -0.776055
vn -0.526212 0.347621 -0.776055
vn -0.552015 -0.226350 -0.802524
vn -0.648994 -0.257506 -0.715889
vn -0.700840 0.355883 -0.618200
vn -0.700840 0.355883 -0.618200
vn -0.648994 -0.257506 -0.715889
vn -0.758449 -0.228736 -0.610274
vn -0.816418 0.430387 -0.385005
vn -0.816418 0.430387 -0.385005
vn -0.758449 -0.228736 -0.610274
vn -0.943151 -0.217892 -0.250978
vn -0.855845 0.511479 -0.076930
vn -0.943151 -0.217892 -0.250978
vn -0.758449 -0.228736 -0.610274
vn -0.120091 -0.986113 -0.114714
vn -0.613895 -0.754782 -0.231165
vn -0.943151 -0.217892 -0.250978
vn -0.613895 -0.754782 -0.231165
vn -0.260016 -0.965122 -0.030503
vn -0.945461 -0.195968 0.260192
vn -0.260016 -0.965122 -0.030503
vn -0.613895 -0.754782 -0.231165
vn -0.120091 -0.986113 -0.114714
vn -0.260016 -0.965122 -0.030503
vn -0.259929 -0.964351 0.049634
vn -0.778914 -0.096974 0.619588
vn -0.945461 -0.195968 0.260192
vn -0.196494 -0.972160 0.127656
vn 0.022208 -0.999538 -0.020763
vn -0.131879 -0.367838 0.920491
vn 0.022208 -0.999538 -0.020763
vn -0.021119 -0.999711 -0.011467
vn 0.155692 -0.719886 0.676405
vn -0.025500 -0.996106 -0.084391
vn -0.048566 -0.997253 -0.055933
vn -0.218831 -0.898700 -0.380068
vn -0.025500 -0.996106 -0.084391
vn 0.017173 -0.270523 -0.962560
vn 0.157651 -0.518190 -0.840610
vn -0.025500 -0.996106 -0.084391
vn 0.157651 -0.518190 -0.840610
vn 0.495111 -0.517590 -0.697829
vn -0.065656 -0.986739 -0.148442
vn 0.017173 -0.270523 -0.962560
vn -0.025500 -0.996106 -0.084391
vn -0.218831 -0.898700 -0.380068
vn -0.267098 -0.275858 -0.923342
vn -0.267098 -0.275858 -0.923342
vn -0.218831 -0.898700 -0.380068
vn -0.476779 -0.741011 -0.472848
vn -0.539461 -0.252781 -0.803171
vn -0.539461 -0.252781 -0.803171
vn -0.476779 -0.741011 -0.472848
vn -0.463206 -0.608986 -0.643876
vn -0.579455 -0.272035 -0.768263
vn -0.579455 -0.272035 -0.768263
vn -0.463206 -0.608986 -0.643876
vn -0.384358 -0.741548 -0.549887
vn -0.552015 -0.226350 -0.802524
vn -0.552015 -0.226350 -0.802524
vn -0.384358 -0.741548 -0.549887
vn -0.414476 -0.732288 -0.540337
vn -0.648994 -0.257506 -0.715889
vn -0.414476 -0.732288 -0.540337
vn -0.384358 -0.741548 -0.549887
vn -0.048566 -0.997253 -0.055933
vn -0.120091 -0.986113 -0.114714
vn -0.414476 -0.732288 -0.540337
vn -0.120091 -0.986113 -0.114714
vn -0.758449 -0.228736 -0.610274
vn -0.648994 -0.257506 -0.715889
vn -0.048566 -0.997253 -0.055933
vn -0.384358 -0.741548 -0.549887
vn -0.463206 -0.608986 -0.643876
vn -0.048566 -0.997253 -0.055933
vn -0.463206 -0.608986 -0.643876
vn -0.476779 -0.741011 -0.472848
vn -0.476779 -0.741011 -0.472848
vn -0.218831 -0.898700 -0.380068
vn -0.048566 -0.997253 -0.055933
vn 0.017173 -0.270523 -0.962560
vn 0.153429 0.193451 -0.969039
vn 0.340532 0.298634 -0.891547
vn 0.157651 -0.518190 -0.840610
vn -0.416799 0.658460 -0.626665
vn -0.358876 0.647672 -0.672108
vn -0.102148 0.815109 -0.570231
vn -0.290097 0.850190 -0.439341
vn -0.102148 0.815109 -0.570231
vn -0.071404 0.822554 -0.564187
vn -0.055779 0.867337 -0.494587
vn -0.055170 0.827236 -0.559139
vn -0.102148 0.815109 -0.570231
vn -0.055170 0.827236 -0.559139
vn -0.113809 0.898655 -0.423636
vn -0.290097 0.850190 -0.439341
vn -0.055170 0.827236 -0.559139
vn -0.055779 0.867337 -0.494587
vn 0.049152 0.913273 -0.404372
vn 0.045112 0.896219 -0.441312
vn -0.055170 0.827236 -0.559139
vn 0.045112 0.896219 -0.441312
vn 0.003973 0.911436 -0.411423
vn -0.113809 0.898655 -0.423636
vn -0.055779 0.867337 -0.494587
vn -0.071404 0.822554 -0.564187
vn -0.252058 0.955098 -0.155741
vn -0.215302 0.947020 -0.238322
vn -0.055779 0.867337 -0.494587
vn -0.215302 0.947020 -0.238322
vn -0.197224 0.974577 -0.106312
vn 0.049152 0.913273 -0.404372
vn -0.628881 0.772967 0.083846
vn -0.389083 0.908789 0.150723
vn -0.252058 0.955098 -0.155741
vn -0.540411 0.834385 -0.108436
vn 0.055271 0.946902 -0.316735
vn 0.146136 0.970430 -0.192121
vn 0.512961 0.685079 -0.517241
vn 0.203073 0.686292 -0.698401
vn 0.055271 0.946902 -0.316735
vn -0.196470 0.967872 -0.156919
vn -0.120000 0.992699 0.012184
vn 0.146136 0.970430 -0.192121
vn 0.465529 0.763518 -0.447574
vn 0.432955 0.853643 -0.289558
vn 0.420309 0.730962 -0.537620
vn 0.474726 0.613956 -0.630629
vn 0.465529 0.763518 -0.447574
vn 0.512961 0.685079 -0.517241
vn 0.146136 0.970430 -0.192121
vn 0.194779 0.959262 -0.204640
vn 0.465529 0.763518 -0.447574
vn 0.194779 0.959262 -0.204640
vn 0.346512 0.927679 -0.139075
vn 0.432955 0.853643 -0.289558
vn 0.346512 0.927679 -0.139075
vn 0.400013 0.896278 -0.191507
vn 0.701253 0.709465 -0.070035
vn 0.432955 0.853643 -0.289558
vn 0.346512 0.927679 -0.139075
vn 0.194779 0.959262 -0.204640
vn 0.163174 0.948835 -0.270344
vn 0.306976 0.931970 -0.192867
vn 0.346512 0.927679 -0.139075
vn 0.306976 0.931970 -0.192867
vn 0.407046 0.860523 -0.306291
vn 0.400013 0.896278 -0.191507
vn 0.306976 0.931970 -0.192867
vn 0.163174 0.948835 -0.270344
vn 0.200490 0.923314 -0.327559
vn 0.263261 0.888636 -0.375527
vn 0.306976 0.931970 -0.192867
vn 0.263261 0.888636 -0.375527
vn 0.374487 0.798605 -0.471157
vn 0.407046 0.860523 -0.306291
vn 0.432955 0.853643 -0.289558
vn 0.701253 0.709465 -0.070035
vn 0.763994 0.629944 -0.139586
vn 0.420309 0.730962 -0.537620
vn 0.163174 0.948835 -0.270344
vn 0.003973 0.911436 -0.411423
vn 0.045112 0.896219 -0.441312
vn 0.200490 0.923314 -0.327559
vn -0.384975 0.918967 0.085411
vn -0.403607 0.837501 0.368366
vn -0.360739 0.786343 0.501530
vn -0.338995 0.896303 0.285874
vn 0.421065 0.532582 -0.734208
vn 0.420309 0.730962 -0.537620
vn 0.763994 0.629944 -0.139586
vn 0.669402 0.461225 -0.582385
vn 0.263261 0.888636 -0.375527
vn 0.146401 0.968964 -0.199186
vn 0.303569 0.940030 -0.155532
vn 0.374487 0.798605 -0.471157
vn -0.197224 0.974577 -0.106312
vn -0.338995 0.896303 0.285874
vn -0.178308 0.837557 0.516434
vn 0.007449 0.989678 0.143114
vn 0.146401 0.968964 -0.199186
vn 0.102112 0.980686 0.166820
vn 0.122419 0.985841 0.114588
vn 0.303569 0.940030 -0.155532
vn 0.102112 0.980686 0.166820
vn 0.007449 0.989678 0.143114
vn -0.178308 0.837557 0.516434
vn -0.041317 0.838852 0.542790
vn 0.102112 0.980686 0.166820
vn -0.041317 0.838852 0.542790
vn -0.086631 0.899552 0.428138
vn 0.122419 0.985841 0.114588
vn -0.041317 0.838852 0.542790
vn -0.178308 0.837557 0.516434
vn -0.246039 0.778610 0.577262
vn -0.094419 0.779285 0.619516
vn -0.041317 0.838852 0.542790
vn -0.094419 0.779285 0.619516
vn -0.103598 0.764925 0.635734
vn -0.086631 0.899552 0.428138
vn -0.167121 0.410712 0.896318
vn -0.224942 0.651279 0.724732
vn -0.332338 0.641966 0.690964
vn -0.272995 0.321694 0.906635
vn -0.094419 0.779285 0.619516
vn 0.071331 0.747351 0.660589
vn 0.042681 0.675793 0.735854
vn -0.103598 0.764925 0.635734
vn 0.472347 0.849577 0.234747
vn 0.690220 0.620404 0.372418
vn 0.780489 0.561481 0.274911
vn 0.608773 0.792947 -0.025101
vn 0.472347 0.849577 0.234747
vn 0.122419 0.985841 0.114588
vn -0.086631 0.899552 0.428138
vn 0.070685 0.874187 0.480418
vn 0.472347 0.849577 0.234747
vn 0.070685 0.874187 0.480418
vn 0.333100 0.660902 0.672497
vn 0.690220 0.620404 0.372418
vn -0.388072 0.725209 0.568746
vn -0.365974 0.814506 0.450159
vn -0.267789 0.816469 0.511535
vn -0.246039 0.778610 0.577262
vn -0.388072 0.725209 0.568746
vn -0.246039 0.778610 0.577262
vn -0.360739 0.786343 0.501530
vn -0.403607 0.837501 0.368366
vn 0.374487 0.798605 -0.471157
vn 0.303569 0.940030 -0.155532
vn 0.608773 0.792947 -0.025101
vn 0.407046 0.860523 -0.306291
vn -0.120000 0.992699 0.012184
vn -0.196470 0.967872 -0.156919
vn -0.362076 0.914005 -0.183017
vn -0.360683 0.931722 0.042442
vn -0.249493 0.625411 -0.739334
vn -0.414895 0.691346 -0.591525
vn -0.362076 0.914005 -0.183017
vn -0.196470 0.967872 -0.156919
vn -0.360683 0.931722 0.042442
vn -0.362076 0.914005 -0.183017
vn -0.414895 0.691346 -0.591525
vn -0.290097 0.850190 -0.439341
vn -0.113809 0.898655 -0.423636
vn -0.120000 0.992699 0.012184
vn -0.360683 0.931722 0.042442
vn -0.290097 0.850190 -0.439341
vn 0.714464 0.699633 0.007370
vn 0.608773 0.792947 -0.025101
vn 0.780489 0.561481 0.274911
vn 0.659880 0.653491 0.370820
vn -0.062622 -0.996746 -0.050748
vn -0.259929 -0.964351 0.049634
vn -0.260016 -0.965122 -0.030503
vn -0.025500 -0.996106 -0.084391
vn -0.062622 -0.996746 -0.050748
vn -0.048566 -0.997253 -0.055933
vn -0.062622 -0.996746 -0.050748
vn -0.120091 -0.986113 -0.114714
vn -0.048566 -0.997253 -0.055933
vn -0.062622 -0.996746 -0.050748
vn -0.260016 -0.965122 -0.030503
vn -0.120091 -0.986113 -0.114714
vn -0.062622 -0.996746 -0.050748
vn -0.196494 -0.972160 0.127656
vn -0.259929 -0.964351 0.049634
vn -0.021119 -0.999711 -0.011467
vn 0.022208 -0.999538 -0.020763
vn -0.062622 -0.996746 -0.050748
vn -0.062622 -0.996746 -0.050748
vn 0.022208 -0.999538 -0.020763
vn -0.196494 -0.972160 0.127656
vn -0.073995 -0.997200 0.010798
vn -0.062622 -0.996746 -0.050748
vn -0.103109 -0.990726 -0.088491
vn -0.021119 -0.999711 -0.011467
vn -0.062622 -0.996746 -0.050748
vn -0.073995 -0.997200 0.010798
vn -0.065656 -0.986739 -0.148442
vn -0.062622 -0.996746 -0.050748
vn -0.025500 -0.996106 -0.084391
vn -0.103109 -0.990726 -0.088491
vn -0.062622 -0.996746 -0.050748
vn -0.065656 -0.986739 -0.148442
vn -0.646664 0.497164 0.578493
vn -0.560194 0.279227 0.779881
vn -0.548063 0.540462 0.638379
vn -0.611870 0.593686 0.522639
s off
g Ore_copper_low:Group42734
usemtl initialShadingGroup
f 1/1/1 18/2/2 19/3/3 20/4/4
f 1/1/5 21/5/6 22/6/7 18/2/8
f 1/1/9 20/4/10 23/7/11 21/5/12
f 18/2/13 22/6/14 24/8/15
f 18/2/16 24/8/17 25/9/18 19/3/19
f 33/10/20 31/11/21 30/12/22
f 30/12/23 31/11/24 26/13/25
f 31/11/26 32/14/27 26/13/28
f 2/15/29 27/16/30 28/17/31 29/18/32
f 27/16/33 2/15/34 4/19/35 39/20/36
f 41/21/37 4/19/38 40/22/39
f 29/18/40 40/22/41 2/15/42
f 4/19/43 2/15/44 40/22/45
f 26/13/46 19/3/47 25/9/48 30/12/49
f 34/23/50 31/11/51 33/10/52 49/24/53
f 29/18/54 35/25/55 59/26/56 40/22/57
f 3/27/58 36/28/59 37/29/60 38/30/61
f 3/27/62 24/8/63 22/6/64 36/28/65
f 3/27/66 38/30/67 25/9/68 24/8/69
f 4/19/70 41/21/71 42/31/72 5/32/73
f 5/32/74 43/33/75 44/34/76 45/35/77
f 6/36/78 46/37/79 52/38/80 10/39/81
f 6/36/82 8/40/83 47/41/84 46/37/85
f 7/42/86 33/10/87 30/12/88 48/43/89
f 7/42/90 9/44/91 49/24/92 33/10/93
f 8/40/94 6/36/95 61/45/96
f 8/46/97 50/47/98 47/48/99
f 9/44/100 51/49/101 52/38/102 49/24/103
f 52/38/104 54/50/105 53/51/106 10/39/107
f 55/52/108 7/42/109 56/53/110 57/54/111
f 58/55/112 59/26/113 35/25/114 142/56/115
f 60/57/116 54/50/117 52/38/118 51/49/119
f 11/58/120 62/59/121 63/60/122 64/61/123
f 65/62/124 66/63/125 62/59/126 11/58/127
f 11/58/128 64/61/129 12/64/130 65/62/131
f 12/64/132 64/61/133 67/65/134 68/66/135
f 12/64/136 68/66/137 69/67/138 65/62/139
f 70/68/140 71/69/141 72/70/142 15/71/143
f 13/72/144 57/54/145 66/63/146 73/73/147
f 13/72/148 73/73/149 74/74/150 75/75/151
f 14/76/152 76/77/153 77/78/154 78/79/155
f 80/80/156 81/81/157 76/77/158 14/76/159
f 14/76/160 78/79/161 79/82/162 80/80/163
f 15/71/164 82/83/165 83/84/166 70/68/167
f 15/71/168 84/85/169 85/86/170 82/83/171
f 86/87/172 85/86/173 87/88/174 88/89/175
f 89/90/176 90/91/177 91/92/178 92/93/179
f 16/94/180 93/95/181 94/96/182 95/97/183
f 89/90/184 74/74/185 93/95/186 16/94/187
f 16/94/188 95/97/189 90/91/190 89/90/191
f 17/98/192 96/99/193 97/100/194 98/101/195
f 17/98/196 87/88/197 99/102/198 96/99/199
f 99/102/200 84/85/201 148/103/202 149/104/203
f 96/99/204 99/102/205 149/104/206 153/105/207
f 99/102/208 87/88/209 85/86/210 84/85/211
f 96/99/212 153/105/213 155/106/214 97/100/215
f 97/100/216 155/106/217 157/107/218 95/97/219
f 95/97/220 157/107/221 159/108/222 90/91/223
f 90/91/224 159/108/225 161/109/226 91/92/227
f 91/92/228 161/109/229 108/110/230 100/111/231
f 101/112/232 100/111/233 108/110/234 109/113/235
f 100/111/236 101/112/237 102/114/238 103/115/239
f 100/111/240 103/115/241 92/93/242 91/92/243
f 103/115/244 102/114/245 104/116/246 105/117/247
f 103/115/248 105/117/249 75/75/250 92/93/251
f 105/117/252 104/116/253 106/118/254 107/119/255
f 105/117/256 107/119/257 13/72/258 75/75/259
f 104/116/260 102/114/261 54/50/262 60/57/263
f 104/116/264 60/57/265 51/49/266 106/118/267
f 102/114/268 101/112/269 53/51/270 54/50/271
f 61/45/272 53/51/273 101/112/274 109/113/275
f 109/120/276 108/121/277 110/122/278 111/123/279
f 109/120/280 111/123/281 112/124/282 61/125/283
f 112/124/284 50/47/285 8/46/286 61/125/287
f 50/47/288 112/124/289 113/126/290 114/127/291
f 50/47/292 114/127/293 115/128/294 47/48/295
f 47/48/296 115/128/297 117/129/298 116/130/299
f 117/129/300 118/131/301 119/132/302 116/130/303
f 117/129/304 115/128/305 120/133/306 121/134/307
f 117/129/308 121/134/309 122/135/310 118/131/311
f 122/135/312 123/136/313 124/137/314 118/131/315
f 122/135/316 121/134/317 125/138/318
f 122/135/319 125/138/320 123/136/321
f 125/138/322 126/139/323 127/140/324 123/136/325
f 129/141/326 128/142/327 130/143/328 131/144/329
f 129/141/330 131/144/331 132/145/332
f 129/141/333 132/145/334 133/146/335 126/139/336
f 133/146/337 132/145/338 134/147/339 135/148/340
f 133/146/341 135/148/342 136/149/343 127/140/344
f 133/146/345 127/140/346 126/139/347
f 136/149/348 135/148/349 28/150/350 137/151/351
f 136/149/352 137/151/353 138/152/354 124/137/355
f 136/149/356 124/137/357 123/136/358 127/140/359
f 138/152/360 119/132/361 118/131/362 124/137/363
f 116/153/364 119/154/365 31/11/366 34/23/367
f 116/153/368 34/23/369 46/37/370 47/41/371
f 119/154/372 138/155/373 32/14/374 31/11/375
f 138/155/376 137/156/377 139/157/378 32/14/379
f 139/157/380 27/16/381 39/20/382 140/158/383
f 26/13/384 32/14/385 139/157/386 140/158/387
f 139/157/388 137/156/389 28/17/390 27/16/391
f 140/158/392 39/20/393 23/7/394 20/4/395
f 140/158/396 20/4/397 19/3/398 26/13/399
f 29/159/400 28/150/401 135/148/402 134/147/403
f 29/159/404 134/147/405 141/160/406 35/161/407
f 141/160/408 134/147/409 132/145/410 131/144/411
f 35/161/412 141/160/413 143/162/414 142/163/415
f 143/162/416 141/160/417 131/144/418 130/143/419
f 143/162/420 130/143/421 128/142/422 144/164/423
f 143/162/424 144/164/425 145/165/426 142/163/427
f 145/165/428 144/164/429 146/166/430
f 145/165/431 146/166/432 147/167/433
f 145/168/434 147/169/435 15/71/436 72/70/437
f 58/55/438 142/56/439 145/168/440 72/70/441
f 15/71/442 147/169/443 148/103/444 84/85/445
f 149/170/446 148/171/447 150/172/448 151/173/449
f 149/170/450 151/173/451 152/174/452 153/175/453
f 153/175/454 152/174/455 154/176/456 155/177/457
f 155/177/458 154/176/459 156/178/460 157/179/461
f 157/179/462 156/178/463 158/180/464 159/181/465
f 159/181/466 158/180/467 160/182/468 161/183/469
f 161/183/470 160/182/471 110/122/472 108/121/473
f 110/122/474 160/182/475 162/184/476 163/185/477
f 110/122/478 163/185/479 164/186/480 111/123/481
f 164/186/482 163/185/483 162/184/484
f 164/186/485 113/126/486 112/124/487 111/123/488
f 114/127/489 120/133/490 115/128/491
f 120/133/492 125/138/493 121/134/494
f 166/187/495 165/188/496 167/189/497
f 166/187/498 150/172/499 146/166/500
f 166/187/501 146/166/502 144/164/503 128/142/504
f 150/172/505 166/187/506 167/189/507 151/173/508
f 151/173/509 167/189/510 168/190/511 152/174/512
f 152/174/513 168/190/514 169/191/515 154/176/516
f 154/176/517 169/191/518 170/192/519 156/178/520
f 156/178/521 170/192/522 171/193/523 158/180/524
f 171/193/525 170/192/526 165/188/527 162/184/528
f 171/193/529 162/184/530 160/182/531 158/180/532
f 165/188/533 170/192/534 169/191/535
f 165/188/536 169/191/537 168/190/538
f 168/190/539 167/189/540 165/188/541
f 150/172/542 148/171/543 147/167/544 146/166/545
f 97/100/546 95/97/547 94/96/548 98/101/549
f 94/96/550 93/95/551 172/194/552 173/195/553
f 94/96/554 173/195/555 81/81/556 98/101/557
f 173/195/558 172/194/559 65/62/560 69/67/561
f 173/195/562 69/67/563 76/77/564 81/81/565
f 172/194/566 93/95/567 74/74/568 73/73/569
f 172/194/570 73/73/571 66/63/572 65/62/573
f 92/93/574 75/75/575 74/74/576 89/90/577
f 86/87/578 79/82/579 82/83/580 85/86/581
f 86/87/582 88/89/583 80/80/584 79/82/585
f 83/84/586 174/196/587 71/69/588 70/68/589
f 83/84/590 82/83/591 79/82/592 78/79/593
f 83/84/594 78/79/595 175/197/596 174/196/597
f 175/197/598 41/21/599 40/22/600 174/196/601
f 175/197/602 78/79/603 77/78/604 176/198/605
f 175/197/606 176/198/607 42/31/608 41/21/609
f 176/198/610 77/78/611 68/66/612 67/65/613
f 176/198/614 67/65/615 177/199/616 42/31/617
f 174/196/618 40/22/619 59/26/620 71/69/621
f 77/78/622 76/77/623 69/67/624 68/66/625
f 13/72/626 107/119/627 55/52/628 57/54/629
f 72/70/630 71/69/631 59/26/632 58/55/633
f 67/65/634 64/61/635 43/33/636 177/199/637
f 66/63/638 57/54/639 56/53/640 62/59/641
f 64/61/642 63/60/643 44/34/644 43/33/645
f 63/60/646 62/59/647 56/53/648 178/200/649
f 63/60/650 178/200/651 37/29/652 44/34/653
f 178/200/654 56/53/655 7/42/656 48/43/657
f 178/200/658 48/43/659 38/30/660 37/29/661
f 34/23/662 49/24/663 52/38/664 46/37/665
f 48/43/666 30/12/667 25/9/668 38/30/669
f 45/35/670 21/5/671 23/7/672 5/32/673
f 45/35/674 44/34/675 37/29/676 36/28/677
f 45/35/678 36/28/679 22/6/680 21/5/681
f 106/118/682 51/49/683 9/44/684 7/42/685
f 106/118/686 7/42/687 55/52/688 107/119/689
f 177/199/690 43/33/691 5/32/692 42/31/693
f 80/80/694 88/89/695 180/201/696 179/202/697
f 87/88/698 17/98/699 180/201/700 88/89/701
f 179/202/702 180/201/703 17/98/704 98/101/705
f 81/81/706 80/80/707 179/202/708 98/101/709
f 4/19/710 5/32/711 23/7/712 39/20/713
f 181/203/714 113/126/715 164/186/716
f 166/187/717 181/203/718 165/188/719
f 181/203/720 162/184/721 165/188/722
f 181/203/723 164/186/724 162/184/725
f 181/203/726 114/127/727 113/126/728
f 125/138/729 120/133/730 181/203/731
f 181/203/732 120/133/733 114/127/734
f 126/139/735 181/203/736 129/141/737
f 125/138/738 181/203/739 126/139/740
f 128/142/741 181/203/742 166/187/743
f 129/141/744 181/203/745 128/142/746
f 61/45/747 6/36/748 10/39/749 53/51/750
