# This file uses centimeters as units for non-parametric coordinates.

mtllib Damas_ing_low.mtl
g default
v 0.439861 0.403755 0.309021
v 0.639529 0.278214 0.086717
v 0.229015 0.509837 0.313853
v 0.505689 0.425246 0.022405
v 0.414884 0.522285 0.083273
v -0.251016 0.169689 0.524264
v -0.042294 0.475695 0.298967
v -0.290162 0.133770 0.475422
v -0.107267 0.427797 0.349548
v -0.274088 0.279879 0.428431
v 0.069268 0.609628 0.054590
v 0.098579 0.572806 -0.003359
v -0.153331 0.567323 0.069965
v 0.116632 0.486731 -0.196317
v 0.259559 0.356183 -0.364920
v -0.264318 0.493444 -0.113025
v -0.087614 0.444975 -0.321313
v 0.376621 0.395740 0.377879
v 0.366726 0.323299 0.397048
v 0.461360 0.352213 0.290876
v 0.422411 0.489348 0.247545
v 0.348655 0.498385 0.343192
v 0.478676 0.425655 0.162554
v 0.256006 0.456970 0.369706
v 0.194220 0.423578 0.367653
v 0.369303 0.310819 0.413638
v 0.599461 0.261705 0.193992
v 0.624715 0.148493 0.196699
v 0.651849 0.164362 0.041833
v 0.148418 0.428024 0.398501
v 0.150830 0.294965 0.525549
v 0.374444 0.258415 0.475059
v 0.044966 0.415776 0.409935
v -0.032902 0.243972 0.520958
v 0.659501 0.151804 -0.187170
v 0.286410 0.552634 0.283438
v 0.188890 0.567320 0.224398
v 0.162342 0.494715 0.290797
v 0.520135 0.349462 0.155407
v 0.450864 0.419449 -0.161869
v 0.393163 0.473125 -0.069163
v 0.339718 0.496585 0.011859
v 0.310127 0.581245 0.082887
v 0.254113 0.589362 0.169733
v 0.358458 0.550404 0.202708
v -0.176055 0.185909 0.544112
v -0.165376 0.082515 0.531882
v 0.091603 0.502451 0.306139
v -0.085754 0.381386 0.417563
v -0.320648 0.081390 0.483307
v -0.183916 0.412062 0.330287
v -0.211858 0.352576 0.422482
v -0.345113 0.284048 0.362801
v -0.298154 0.345735 0.349172
v -0.101539 0.528984 0.232771
v 0.019049 0.583684 0.206115
v -0.055321 0.577788 0.147076
v 0.478965 0.318842 -0.301019
v 0.491272 0.374246 -0.241366
v -0.252564 0.381255 0.313320
v -0.445507 0.167689 0.397453
v 0.051214 0.625095 0.109506
v 0.113975 0.587943 0.138674
v 0.158769 0.581714 0.057498
v 0.011927 0.575489 0.000790
v -0.028605 0.613924 0.056042
v 0.207591 0.551399 -0.005738
v 0.132427 0.550853 -0.047459
v 0.043894 0.558643 -0.083013
v 0.314933 0.387147 -0.298414
v 0.373905 0.389129 -0.277302
v 0.366235 0.324473 -0.362391
v -0.115058 0.568367 -0.010031
v -0.213029 0.539591 -0.026427
v -0.247680 0.511716 0.072485
v 0.095152 0.504192 -0.156320
v 0.170297 0.520072 -0.114268
v 0.218674 0.510300 -0.206726
v 0.160769 0.492361 -0.275284
v 0.031544 0.485078 -0.233042
v -0.006002 0.472754 -0.181828
v 0.230231 0.441963 -0.330886
v 0.296596 0.457192 -0.286694
v 0.157640 0.374784 -0.453496
v 0.125159 0.455858 -0.412458
v 0.094660 0.493459 -0.353137
v -0.002123 0.448729 -0.353025
v -0.003085 0.493624 -0.292925
v -0.349099 0.517496 -0.027163
v -0.374157 0.454183 -0.093912
v -0.413301 0.391695 0.026258
v -0.350059 0.469104 0.060426
v -0.178604 0.514582 -0.101815
v -0.141494 0.456903 -0.165241
v -0.249278 0.428287 -0.182610
v -0.104218 0.349227 -0.382266
v -0.187047 0.379441 -0.288503
v -0.103269 0.441744 -0.237394
v 0.012507 0.375134 -0.422842
v -0.430123 0.369357 0.154372
v -0.404827 0.331258 0.247039
v -0.339779 0.387664 0.244723
v -0.358032 0.444008 0.173873
v -0.264999 0.428557 0.242836
v -0.269135 0.486290 0.195518
v -0.171520 0.456763 0.264359
v -0.171725 0.519258 0.194313
v -0.584460 0.183933 0.096208
v -0.551441 0.176194 0.257294
v -0.591577 0.136030 0.083562
v -0.562765 0.123325 0.252233
v -0.466059 0.119070 0.390338
v -0.455390 0.039694 0.359468
v -0.324738 0.021524 0.467067
v -0.163302 0.021438 0.528402
v -0.016398 0.148910 0.539685
v -0.011138 0.064381 0.498051
v 0.137167 0.077035 0.462859
v 0.149608 0.205262 0.508650
v -0.164039 0.013178 0.502074
v -0.012540 0.036620 0.486102
v 0.129239 0.043717 0.451444
v 0.273680 0.026670 0.400323
v 0.289352 0.058505 0.411495
v 0.116276 0.034675 0.427290
v 0.403455 0.001583 0.299852
v 0.435328 0.014643 0.325508
v 0.346914 0.056739 -0.438434
v 0.522611 -0.003197 -0.205935
v 0.471352 0.031940 -0.338368
v 0.555614 -0.006220 -0.215850
v 0.581098 0.007828 0.052617
v 0.558487 0.006057 0.201530
v 0.598698 0.032397 0.052430
v 0.584823 0.027986 0.205383
v 0.461452 0.037072 0.343894
v 0.511985 0.133542 0.358762
v 0.344752 0.173963 0.452748
v 0.529740 0.248828 0.355989
v 0.492606 0.320813 0.311918
v 0.592735 0.016791 -0.224568
v 0.546762 0.143865 -0.331445
v 0.496706 0.050911 -0.343312
v 0.359385 0.065843 -0.456455
v 0.383069 0.135517 -0.481839
v 0.205688 0.083644 -0.487714
v 0.212439 0.144202 -0.499244
v 0.078980 0.150945 -0.504724
v -0.047574 0.184197 -0.485488
v 0.067910 0.080458 -0.500951
v -0.067398 0.094286 -0.473940
v -0.174470 0.113780 -0.411638
v -0.173247 0.234532 -0.429697
v -0.252221 0.127551 -0.323841
v -0.258745 0.260214 -0.338098
v -0.348449 0.136046 -0.256361
v -0.360928 0.261724 -0.264741
v -0.426419 0.120374 -0.175873
v -0.434877 0.244242 -0.174882
v -0.525475 0.132392 -0.071679
v -0.523371 0.213301 -0.055577
v -0.464325 0.074816 -0.059265
v -0.556748 0.081452 0.071383
v -0.535268 0.060786 0.227152
v -0.155906 0.065400 -0.346824
v 0.056992 0.067589 -0.477454
v -0.079696 0.069668 -0.436990
v -0.168062 0.087665 -0.367502
v -0.237582 0.105164 -0.295720
v -0.322683 0.106040 -0.238957
v -0.402863 0.098832 -0.169649
v -0.080125 0.550869 -0.064456
v -0.038305 0.512320 -0.129704
v 0.353010 0.447026 -0.223572
v 0.293696 0.483811 -0.152599
v 0.242643 0.519885 -0.067754
v 0.301240 0.537978 0.026227
v 0.089208 0.567181 0.210831
v -0.059411 0.457608 -0.248701
v -0.054479 0.465297 -0.291752
v 0.000890 0.047664 0.047858
vt 0.664678 0.408070
vt 0.688843 0.421373
vt 0.690437 0.442707
vt 0.649822 0.416101
vt 0.668622 0.379855
vt 0.697104 0.394262
vt 0.637482 0.372160
vt 0.723104 0.403626
vt 0.742709 0.408299
vt 0.789870 0.405652
vt 0.770077 0.461593
vt 0.759077 0.410627
vt 0.690957 0.448687
vt 0.693815 0.471634
vt 0.571826 0.377244
vt 0.591127 0.409649
vt 0.563346 0.432428
vt 0.534569 0.374361
vt 0.616233 0.336032
vt 0.616317 0.383541
vt 0.637024 0.295178
vt 0.606472 0.278020
vt 0.832718 0.453636
vt 0.829129 0.397791
vt 0.509392 0.296888
vt 0.585224 0.259758
vt 0.727593 0.382485
vt 0.709304 0.372256
vt 0.730406 0.351903
vt 0.745879 0.376643
vt 0.661785 0.307871
vt 0.655245 0.336600
vt 0.685948 0.325109
vt 0.708669 0.341064
vt 0.683861 0.358821
vt 0.904717 0.431942
vt 0.882429 0.444816
vt 0.866103 0.385895
vt 0.893361 0.388425
vt 0.926487 0.425970
vt 0.898905 0.471575
vt 0.802834 0.361989
vt 0.765530 0.372894
vt 0.826928 0.372409
vt 0.956554 0.369230
vt 0.984955 0.076973
vt 0.979499 0.080943
vt 0.971886 0.062073
vt 0.847839 0.359902
vt 0.886780 0.356686
vt 0.909100 0.360432
vt 0.807892 0.332221
vt 0.771592 0.332548
vt 0.786242 0.311354
vt 0.574434 0.239443
vt 0.519422 0.229800
vt 0.868686 0.349693
vt 0.743932 0.296432
vt 0.754426 0.308676
vt 0.740479 0.322914
vt 0.720517 0.304144
vt 0.752382 0.275207
vt 0.768725 0.289209
vt 0.729098 0.282224
vt 0.699332 0.291396
vt 0.714775 0.273169
vt 0.736165 0.256530
vt 0.622923 0.218790
vt 0.611349 0.233793
vt 0.596436 0.204938
vt 0.628308 0.191381
vt 0.803052 0.282008
vt 0.785257 0.263049
vt 0.809745 0.250303
vt 0.831616 0.275061
vt 0.702817 0.230407
vt 0.713336 0.238720
vt 0.696601 0.258678
vt 0.673651 0.240534
vt 0.722432 0.211453
vt 0.739270 0.218376
vt 0.681265 0.216410
vt 0.652226 0.206798
vt 0.641583 0.227215
vt 0.658229 0.162269
vt 0.677522 0.178429
vt 0.692532 0.190908
vt 0.717056 0.172642
vt 0.723531 0.192187
vt 0.843504 0.240148
vt 0.849474 0.216135
vt 0.884164 0.243051
vt 0.860408 0.261981
vt 0.816381 0.219428
vt 0.794201 0.229293
vt 0.778498 0.206753
vt 0.808310 0.191426
vt 0.743753 0.171774
vt 0.741959 0.138570
vt 0.779789 0.160403
vt 0.760263 0.190528
vt 0.702376 0.147630
vt 0.649556 0.093650
vt 0.699433 0.088428
vt 0.754595 0.100283
vt 0.800784 0.121541
vt 0.847405 0.138704
vt 0.887032 0.162683
vt 0.931924 0.198884
vt 0.966181 0.248141
vt 0.903113 0.281691
vt 0.910330 0.314911
vt 0.972755 0.306993
vt 0.885434 0.319067
vt 0.874827 0.293479
vt 0.861329 0.325632
vt 0.850291 0.307078
vt 0.835907 0.340242
vt 0.823421 0.315695
vt 0.984033 0.122775
vt 0.970872 0.140408
vt 0.966419 0.137072
vt 0.978211 0.120859
vt 0.984034 0.101599
vt 0.989980 0.100031
vt 0.974503 0.101745
vt 0.972843 0.083248
vt 0.966341 0.065743
vt 0.954096 0.052748
vt 0.961597 0.044881
vt 0.939616 0.041920
vt 0.947763 0.028309
vt 0.963979 0.067617
vt 0.951870 0.055554
vt 0.937867 0.045805
vt 0.921396 0.038677
vt 0.922016 0.034373
vt 0.936725 0.049031
vt 0.902568 0.037033
vt 0.901990 0.032196
vt 0.853158 0.067633
vt 0.846781 0.100738
vt 0.845607 0.082096
vt 0.850020 0.065770
vt 0.868576 0.042249
vt 0.882474 0.032776
vt 0.866115 0.039634
vt 0.880475 0.029625
vt 0.901385 0.027788
vt 0.872505 0.017923
vt 0.899108 0.015309
vt 0.924164 0.018822
vt 0.841016 0.482168
vt 0.773380 0.488367
vt 0.694621 0.497194
vt 0.620661 0.483723
vt 0.632355 0.451427
vt 0.642261 0.427272
vt 0.854481 0.028650
vt 0.845937 0.063376
vt 0.834574 0.050399
vt 0.842144 0.080448
vt 0.830545 0.075123
vt 0.844132 0.101185
vt 0.835317 0.103380
vt 0.853588 0.117049
vt 0.847690 0.120993
vt 0.554206 0.155958
vt 0.604575 0.118004
vt 0.870762 0.147343
vt 0.858321 0.134416
vt 0.864244 0.129151
vt 0.877022 0.138606
vt 0.890388 0.143873
vt 0.887584 0.157328
vt 0.904339 0.145336
vt 0.903396 0.160798
vt 0.918306 0.146891
vt 0.919059 0.161435
vt 0.931285 0.145053
vt 0.933727 0.159264
vt 0.948076 0.144553
vt 0.952390 0.152780
vt 0.942914 0.136343
vt 0.960516 0.132568
vt 0.970313 0.118304
vt 0.867196 0.127793
vt 0.894687 0.135358
vt 0.881287 0.135856
vt 0.893844 0.139057
vt 0.905388 0.140830
vt 0.917288 0.141817
vt 0.929607 0.141669
vt 0.771084 0.249935
vt 0.753622 0.232566
vt 0.629720 0.248950
vt 0.655934 0.262069
vt 0.681239 0.278145
vt 0.677785 0.308679
vt 0.754658 0.341357
vt 0.738161 0.184362
vt 0.746089 0.194214
vt 0.913925 0.090083
vn 0.801032 0.329462 0.499802
vn 0.425281 0.272532 0.863054
vn 0.371500 0.546825 0.750313
vn 0.777661 0.462960 0.425337
vn 0.801032 0.329462 0.499802
vn 0.726800 0.620405 0.294720
vn 0.404630 0.660902 0.632046
vn 0.425281 0.272532 0.863054
vn 0.801032 0.329462 0.499802
vn 0.777661 0.462960 0.425337
vn 0.805867 0.561481 0.187928
vn 0.726800 0.620405 0.294720
vn 0.425281 0.272532 0.863054
vn 0.404630 0.660902 0.632046
vn -0.104878 0.414753 0.903870
vn 0.425281 0.272532 0.863054
vn -0.104878 0.414753 0.903870
vn 0.122880 0.675794 0.726776
vn 0.371500 0.546825 0.750313
vn -0.130656 0.685879 0.715890
vn 0.096713 0.350030 0.931733
vn 0.143129 0.747351 0.648830
vn 0.143129 0.747351 0.648830
vn 0.096713 0.350030 0.931733
vn 0.382691 0.698789 0.604352
vn 0.096713 0.350030 0.931733
vn 0.422712 0.104233 0.900250
vn 0.382691 0.698789 0.604352
vn 0.896680 0.442578 -0.009488
vn 0.839804 0.389247 0.378439
vn 0.919125 -0.151822 0.363537
vn 0.998561 0.053531 -0.003227
vn 0.839804 0.389247 0.378439
vn 0.896680 0.442578 -0.009488
vn 0.710986 0.699634 -0.070789
vn 0.696468 0.653491 0.296449
vn 0.376676 0.896279 -0.234094
vn 0.710986 0.699634 -0.070789
vn 0.689391 0.709465 -0.146286
vn 0.998561 0.053531 -0.003227
vn 0.689391 0.709465 -0.146286
vn 0.896680 0.442578 -0.009488
vn 0.710986 0.699634 -0.070789
vn 0.896680 0.442578 -0.009488
vn 0.689391 0.709465 -0.146286
vn 0.382691 0.698789 0.604352
vn 0.371500 0.546825 0.750313
vn 0.122880 0.675794 0.726776
vn 0.143129 0.747351 0.648830
vn -0.068120 0.410712 0.909217
vn 0.096713 0.350030 0.931733
vn -0.130656 0.685879 0.715890
vn -0.144355 0.651280 0.744981
vn 0.998561 0.053531 -0.003227
vn 0.969396 0.184835 -0.161579
vn 0.744152 0.629944 -0.222280
vn 0.689391 0.709465 -0.146286
vn -0.257615 0.684137 0.682342
vn 0.122787 0.874187 0.469809
vn -0.039302 0.899552 0.435043
vn -0.033470 0.764925 0.643249
vn -0.257615 0.684137 0.682342
vn -0.104878 0.414753 0.903870
vn 0.404630 0.660902 0.632046
vn 0.122787 0.874187 0.469809
vn -0.257615 0.684137 0.682342
vn -0.033470 0.764925 0.643249
vn 0.122880 0.675794 0.726776
vn -0.104878 0.414753 0.903870
vn 0.710986 0.699634 -0.070789
vn 0.376676 0.896279 -0.234094
vn 0.371118 0.860522 -0.348960
vn 0.602379 0.792947 -0.091510
vn 0.602379 0.792947 -0.091510
vn 0.284744 0.940030 -0.187790
vn 0.134213 0.985841 0.100516
vn 0.495181 0.849578 0.181696
vn -0.471569 0.279225 0.836455
vn -0.172232 0.321694 0.931047
vn -0.254800 0.641966 0.723157
vn -0.474981 0.540461 0.694474
vn -0.471569 0.279225 0.836455
vn -0.437371 -0.066695 0.896805
vn -0.070708 -0.158385 0.984842
vn -0.172232 0.321694 0.931047
vn -0.181449 0.778609 0.600703
vn -0.130656 0.685879 0.715890
vn 0.143129 0.747351 0.648830
vn -0.026118 0.779285 0.626125
vn -0.181449 0.778609 0.600703
vn -0.210255 0.816469 0.537747
vn -0.144355 0.651280 0.744981
vn -0.130656 0.685879 0.715890
vn -0.437371 -0.066695 0.896805
vn -0.471569 0.279225 0.836455
vn -0.579537 0.497164 0.645728
vn -0.437371 -0.066695 0.896805
vn -0.464549 -0.050211 0.884123
vn -0.070708 -0.158385 0.984842
vn -0.210255 0.816469 0.537747
vn -0.314562 0.814506 0.487474
vn -0.254800 0.641966 0.723157
vn -0.144355 0.651280 0.744981
vn -0.254800 0.641966 0.723157
vn -0.513642 0.676289 0.528020
vn -0.551060 0.593686 0.586405
vn -0.474981 0.540461 0.694474
vn -0.303742 0.786342 0.537965
vn -0.181449 0.778609 0.600703
vn -0.120775 0.837557 0.532834
vn -0.305706 0.896303 0.321224
vn 0.601715 0.461225 -0.652082
vn 0.744152 0.629944 -0.222280
vn 0.969396 0.184835 -0.161579
vn 0.704930 0.157685 -0.691527
vn -0.388120 0.799870 0.457790
vn -0.513642 0.676289 0.528020
vn -0.254800 0.641966 0.723157
vn -0.314562 0.814506 0.487474
vn 0.193804 0.931892 -0.306622
vn 0.023052 0.989678 0.141442
vn 0.119740 0.980685 0.154656
vn 0.123746 0.968964 -0.213999
vn 0.004645 0.913273 -0.407322
vn -0.207665 0.974577 -0.084112
vn 0.023052 0.989678 0.141442
vn 0.193804 0.931892 -0.306622
vn 0.193804 0.931892 -0.306622
vn 0.123746 0.968964 -0.213999
vn 0.139080 0.927319 -0.347472
vn 0.004645 0.913273 -0.407322
vn 0.139080 0.927319 -0.347472
vn 0.123746 0.968964 -0.213999
vn 0.220625 0.888635 -0.402060
vn 0.163475 0.923314 -0.347516
vn 0.139080 0.927319 -0.347472
vn 0.163475 0.923314 -0.347516
vn -0.003409 0.896219 -0.443599
vn 0.004645 0.913273 -0.407322
vn 0.402930 0.613956 -0.678753
vn 0.359008 0.730962 -0.580351
vn 0.338266 0.532582 -0.775843
vn 0.322794 0.466006 -0.823797
vn -0.373329 0.918966 0.126989
vn -0.305706 0.896303 0.321224
vn -0.207665 0.974577 -0.084112
vn -0.240068 0.947020 -0.213354
vn -0.373329 0.918966 0.126989
vn -0.240068 0.947020 -0.213354
vn -0.267574 0.955098 -0.127249
vn -0.370271 0.908789 0.192360
vn -0.142224 0.982722 -0.118445
vn -0.041034 0.911436 -0.409391
vn 0.132638 0.948835 -0.286565
vn 0.171237 0.959262 -0.224710
vn -0.117948 0.992699 0.025231
vn -0.159444 0.898655 -0.408653
vn -0.041034 0.911436 -0.409391
vn -0.142224 0.982722 -0.118445
vn -0.142224 0.982722 -0.118445
vn 0.171237 0.959262 -0.224710
vn 0.124255 0.970430 -0.206947
vn -0.117948 0.992699 0.025231
vn 0.322794 0.466006 -0.823797
vn 0.453333 0.685078 -0.570225
vn 0.413803 0.763518 -0.495790
vn 0.402930 0.613956 -0.678753
vn 0.322794 0.466006 -0.823797
vn 0.195350 0.365970 -0.909892
vn 0.125495 0.686292 -0.716418
vn 0.453333 0.685078 -0.570225
vn 0.020309 0.946903 -0.320878
vn 0.125495 0.686292 -0.716418
vn -0.328832 0.625411 -0.707623
vn -0.212449 0.967872 -0.134498
vn -0.549027 0.834385 -0.048701
vn -0.703569 0.563878 -0.432473
vn -0.819269 0.559635 -0.124926
vn -0.615943 0.772968 0.152101
vn -0.224497 0.787192 -0.574395
vn -0.132661 0.822554 -0.552997
vn -0.163881 0.815109 -0.555645
vn -0.430209 0.647673 -0.628841
vn -0.549027 0.834385 -0.048701
vn -0.267574 0.955098 -0.127249
vn -0.132661 0.822554 -0.552997
vn -0.224497 0.787192 -0.574395
vn -0.224497 0.787192 -0.574395
vn -0.430209 0.647673 -0.628841
vn -0.703569 0.563878 -0.432473
vn -0.549027 0.834385 -0.048701
vn -0.477082 0.691347 -0.542616
vn -0.406503 0.532286 -0.742581
vn -0.482816 0.658460 -0.577337
vn -0.336393 0.850190 -0.404990
vn -0.477082 0.691347 -0.542616
vn -0.328832 0.625411 -0.707623
vn -0.230045 0.410543 -0.882346
vn -0.406503 0.532286 -0.742581
vn -0.230045 0.410543 -0.882346
vn 0.195350 0.365970 -0.909892
vn 0.046561 0.193451 -0.980004
vn -0.257716 0.217426 -0.941440
vn -0.406503 0.532286 -0.742581
vn -0.230045 0.410543 -0.882346
vn -0.257716 0.217426 -0.941440
vn -0.524405 0.269728 -0.807617
vn -0.230045 0.410543 -0.882346
vn -0.328832 0.625411 -0.707623
vn 0.125495 0.686292 -0.716418
vn 0.195350 0.365970 -0.909892
vn -0.406503 0.532286 -0.742581
vn -0.524405 0.269728 -0.807617
vn -0.605957 0.334623 -0.721695
vn -0.482816 0.658460 -0.577337
vn -0.482816 0.658460 -0.577337
vn -0.605957 0.334623 -0.721695
vn -0.607907 0.347621 -0.713869
vn -0.430209 0.647673 -0.628841
vn -0.430209 0.647673 -0.628841
vn -0.607907 0.347621 -0.713869
vn -0.764229 0.355883 -0.537867
vn -0.703569 0.563878 -0.432473
vn -0.703569 0.563878 -0.432473
vn -0.764229 0.355883 -0.537867
vn -0.853618 0.430387 -0.293434
vn -0.819269 0.559635 -0.124926
vn -0.819269 0.559635 -0.124926
vn -0.853618 0.430387 -0.293434
vn -0.859126 0.511479 0.017105
vn -0.766195 0.631040 0.121387
vn -0.659772 0.620740 0.423535
vn -0.766195 0.631040 0.121387
vn -0.859126 0.511479 0.017105
vn -0.753746 0.521117 0.400380
vn -0.766195 0.631040 0.121387
vn -0.659772 0.620740 0.423535
vn -0.519685 0.652522 0.551492
vn -0.592779 0.751070 0.290700
vn -0.766195 0.631040 0.121387
vn -0.592779 0.751070 0.290700
vn -0.615943 0.772968 0.152101
vn -0.819269 0.559635 -0.124926
vn -0.592779 0.751070 0.290700
vn -0.519685 0.652522 0.551492
vn -0.358385 0.703833 0.613334
vn -0.399196 0.829044 0.391573
vn -0.592779 0.751070 0.290700
vn -0.399196 0.829044 0.391573
vn -0.370271 0.908789 0.192360
vn -0.615943 0.772968 0.152101
vn -0.399196 0.829044 0.391573
vn -0.358385 0.703833 0.613334
vn -0.323562 0.725210 0.607765
vn -0.360913 0.837501 0.410286
vn -0.399196 0.829044 0.391573
vn -0.360913 0.837501 0.410286
vn -0.373329 0.918966 0.126989
vn -0.370271 0.908789 0.192360
vn -0.358385 0.703833 0.613334
vn -0.519685 0.652522 0.551492
vn -0.513642 0.676289 0.528020
vn -0.388120 0.799870 0.457790
vn -0.358385 0.703833 0.613334
vn -0.388120 0.799870 0.457790
vn -0.314562 0.814506 0.487474
vn -0.323562 0.725210 0.607765
vn -0.519685 0.652522 0.551492
vn -0.659772 0.620740 0.423535
vn -0.551060 0.593686 0.586405
vn -0.513642 0.676289 0.528020
vn -0.579537 0.497164 0.645728
vn -0.551060 0.593686 0.586405
vn -0.659772 0.620740 0.423535
vn -0.753746 0.521117 0.400380
vn -0.753746 0.521117 0.400380
vn -0.859126 0.511479 0.017105
vn -0.964937 -0.217891 -0.146355
vn -0.911345 -0.195966 0.362004
vn -0.753746 0.521117 0.400380
vn -0.911345 -0.195966 0.362004
vn -0.706502 -0.096975 0.701036
vn -0.579537 0.497164 0.645728
vn -0.706502 -0.096975 0.701036
vn -0.464549 -0.050211 0.884123
vn -0.437371 -0.066695 0.896805
vn -0.579537 0.497164 0.645728
vn -0.464549 -0.050211 0.884123
vn -0.706502 -0.096975 0.701036
vn -0.252944 -0.964351 0.077756
vn -0.181358 -0.972160 0.148374
vn -0.464549 -0.050211 0.884123
vn -0.181358 -0.972160 0.148374
vn -0.030447 -0.367838 0.929391
vn -0.070708 -0.158385 0.984842
vn -0.070708 -0.158385 0.984842
vn -0.030447 -0.367838 0.929391
vn 0.237309 -0.379659 0.894172
vn 0.145435 -0.155289 0.977105
vn 0.237309 -0.379659 0.894172
vn 0.243623 -0.380744 0.892010
vn 0.190029 -0.247704 0.950017
vn 0.145435 -0.155289 0.977105
vn 0.237309 -0.379659 0.894172
vn -0.030447 -0.367838 0.929391
vn 0.019804 -0.999538 -0.023066
vn 0.228714 -0.719886 0.655328
vn 0.237309 -0.379659 0.894172
vn 0.228714 -0.719886 0.655328
vn 0.211931 -0.575338 0.789982
vn 0.243623 -0.380744 0.892010
vn 0.211931 -0.575338 0.789982
vn 0.128917 -0.836397 0.532748
vn 0.269250 -0.416941 0.868139
vn 0.243623 -0.380744 0.892010
vn 0.211931 -0.575338 0.789982
vn 0.228714 -0.719886 0.655328
vn -0.022246 -0.999711 -0.009089
vn 0.211931 -0.575338 0.789982
vn -0.022246 -0.999711 -0.009089
vn 0.128917 -0.836397 0.532748
vn -0.022246 -0.999711 -0.009089
vn -0.072370 -0.997200 0.018824
vn 0.235539 -0.837959 0.492286
vn 0.128917 -0.836397 0.532748
vn -0.112166 -0.990726 -0.076688
vn -0.081492 -0.986739 -0.140374
vn 0.127550 -0.920802 -0.368585
vn 0.353487 -0.916759 -0.186011
vn -0.112166 -0.990726 -0.076688
vn 0.353487 -0.916759 -0.186011
vn 0.175873 -0.984212 0.019877
vn -0.112166 -0.990726 -0.076688
vn 0.175873 -0.984212 0.019877
vn 0.152632 -0.985365 0.075890
vn -0.072370 -0.997200 0.018824
vn 0.152632 -0.985365 0.075890
vn 0.175873 -0.984212 0.019877
vn 0.887164 -0.458721 0.050155
vn 0.826151 -0.422450 0.372841
vn 0.152632 -0.985365 0.075890
vn 0.826151 -0.422450 0.372841
vn 0.500508 -0.449621 0.739820
vn 0.235539 -0.837959 0.492286
vn 0.152632 -0.985365 0.075890
vn 0.235539 -0.837959 0.492286
vn -0.072370 -0.997200 0.018824
vn 0.500508 -0.449621 0.739820
vn 0.826151 -0.422450 0.372841
vn 0.919125 -0.151822 0.363537
vn 0.649426 -0.244527 0.720037
vn 0.500508 -0.449621 0.739820
vn 0.649426 -0.244527 0.720037
vn 0.321034 -0.314741 0.893239
vn 0.269250 -0.416941 0.868139
vn 0.500508 -0.449621 0.739820
vn 0.269250 -0.416941 0.868139
vn 0.128917 -0.836397 0.532748
vn 0.235539 -0.837959 0.492286
vn 0.321034 -0.314741 0.893239
vn 0.190029 -0.247704 0.950017
vn 0.243623 -0.380744 0.892010
vn 0.269250 -0.416941 0.868139
vn 0.145435 -0.155289 0.977105
vn 0.190029 -0.247704 0.950017
vn 0.096713 0.350030 0.931733
vn -0.068120 0.410712 0.909217
vn 0.145435 -0.155289 0.977105
vn -0.068120 0.410712 0.909217
vn -0.172232 0.321694 0.931047
vn -0.070708 -0.158385 0.984842
vn 0.190029 -0.247704 0.950017
vn 0.321034 -0.314741 0.893239
vn 0.422712 0.104233 0.900250
vn 0.096713 0.350030 0.931733
vn 0.321034 -0.314741 0.893239
vn 0.649426 -0.244527 0.720037
vn 0.735190 0.242515 0.632995
vn 0.422712 0.104233 0.900250
vn 0.735190 0.242515 0.632995
vn 0.839804 0.389247 0.378439
vn 0.696468 0.653491 0.296449
vn 0.619600 0.665690 0.415876
vn 0.382691 0.698789 0.604352
vn 0.422712 0.104233 0.900250
vn 0.735190 0.242515 0.632995
vn 0.619600 0.665690 0.415876
vn 0.735190 0.242515 0.632995
vn 0.649426 -0.244527 0.720037
vn 0.919125 -0.151822 0.363537
vn 0.839804 0.389247 0.378439
vn 0.619600 0.665690 0.415876
vn 0.696468 0.653491 0.296449
vn 0.805867 0.561481 0.187928
vn 0.777661 0.462960 0.425337
vn 0.619600 0.665690 0.415876
vn 0.777661 0.462960 0.425337
vn 0.371500 0.546825 0.750313
vn 0.382691 0.698789 0.604352
vn 0.998561 0.053531 -0.003227
vn 0.919125 -0.151822 0.363537
vn 0.826151 -0.422450 0.372841
vn 0.887164 -0.458721 0.050155
vn 0.998561 0.053531 -0.003227
vn 0.887164 -0.458721 0.050155
vn 0.847238 -0.460583 -0.264670
vn 0.969396 0.184835 -0.161579
vn 0.847238 -0.460583 -0.264670
vn 0.887164 -0.458721 0.050155
vn 0.175873 -0.984212 0.019877
vn 0.353487 -0.916759 -0.186011
vn 0.969396 0.184835 -0.161579
vn 0.847238 -0.460583 -0.264670
vn 0.633878 -0.403964 -0.659554
vn 0.704930 0.157685 -0.691527
vn 0.633878 -0.403964 -0.659554
vn 0.847238 -0.460583 -0.264670
vn 0.353487 -0.916759 -0.186011
vn 0.127550 -0.920802 -0.368585
vn 0.633878 -0.403964 -0.659554
vn 0.127550 -0.920802 -0.368585
vn -0.081492 -0.986739 -0.140374
vn 0.415846 -0.517591 -0.747778
vn 0.633878 -0.403964 -0.659554
vn 0.415846 -0.517591 -0.747778
vn 0.418105 0.278264 -0.864730
vn 0.704930 0.157685 -0.691527
vn 0.418105 0.278264 -0.864730
vn 0.415846 -0.517591 -0.747778
vn 0.064798 -0.518190 -0.852807
vn 0.418105 0.278264 -0.864730
vn 0.064798 -0.518190 -0.852807
vn 0.241013 0.298634 -0.923434
vn 0.418105 0.278264 -0.864730
vn 0.241013 0.298634 -0.923434
vn 0.322794 0.466006 -0.823797
vn 0.338266 0.532582 -0.775843
vn 0.601715 0.461225 -0.652082
vn 0.704930 0.157685 -0.691527
vn 0.418105 0.278264 -0.864730
vn 0.338266 0.532582 -0.775843
vn 0.322794 0.466006 -0.823797
vn 0.241013 0.298634 -0.923434
vn 0.046561 0.193451 -0.980004
vn 0.195350 0.365970 -0.909892
vn -0.257716 0.217426 -0.941440
vn 0.046561 0.193451 -0.980004
vn -0.088171 -0.270524 -0.958667
vn -0.366450 -0.275858 -0.888604
vn -0.257716 0.217426 -0.941440
vn -0.366450 -0.275858 -0.888604
vn -0.624042 -0.252781 -0.739374
vn -0.524405 0.269728 -0.807617
vn -0.524405 0.269728 -0.807617
vn -0.624042 -0.252781 -0.739374
vn -0.659979 -0.272035 -0.700303
vn -0.605957 0.334623 -0.721695
vn -0.605957 0.334623 -0.721695
vn -0.659979 -0.272035 -0.700303
vn -0.636449 -0.226350 -0.737359
vn -0.607907 0.347621 -0.713869
vn -0.607907 0.347621 -0.713869
vn -0.636449 -0.226350 -0.737359
vn -0.723375 -0.257506 -0.640640
vn -0.764229 0.355883 -0.537867
vn -0.764229 0.355883 -0.537867
vn -0.723375 -0.257506 -0.640640
vn -0.820626 -0.228735 -0.523691
vn -0.853618 0.430387 -0.293434
vn -0.853618 0.430387 -0.293434
vn -0.820626 -0.228735 -0.523691
vn -0.964937 -0.217891 -0.146355
vn -0.859126 0.511479 0.017105
vn -0.964937 -0.217891 -0.146355
vn -0.820626 -0.228735 -0.523691
vn -0.131913 -0.986113 -0.100896
vn -0.635490 -0.754781 -0.162660
vn -0.964937 -0.217891 -0.146355
vn -0.635490 -0.754781 -0.162660
vn -0.261792 -0.965122 -0.001891
vn -0.911345 -0.195966 0.362004
vn -0.261792 -0.965122 -0.001891
vn -0.635490 -0.754781 -0.162660
vn -0.131913 -0.986113 -0.100896
vn -0.261792 -0.965122 -0.001891
vn -0.252944 -0.964351 0.077756
vn -0.706502 -0.096975 0.701036
vn -0.911345 -0.195966 0.362004
vn -0.181358 -0.972160 0.148374
vn 0.019804 -0.999538 -0.023066
vn -0.030447 -0.367838 0.929391
vn 0.019804 -0.999538 -0.023066
vn -0.022246 -0.999711 -0.009089
vn 0.228714 -0.719886 0.655328
vn -0.034574 -0.996106 -0.081097
vn -0.054391 -0.997253 -0.050288
vn -0.259074 -0.898699 -0.353865
vn -0.034574 -0.996106 -0.081097
vn -0.088171 -0.270524 -0.958667
vn 0.064798 -0.518190 -0.852807
vn -0.034574 -0.996106 -0.081097
vn 0.064798 -0.518190 -0.852807
vn 0.415846 -0.517591 -0.747778
vn -0.081492 -0.986739 -0.140374
vn -0.088171 -0.270524 -0.958667
vn -0.034574 -0.996106 -0.081097
vn -0.259074 -0.898699 -0.353865
vn -0.366450 -0.275858 -0.888604
vn -0.366450 -0.275858 -0.888604
vn -0.259074 -0.898699 -0.353865
vn -0.525619 -0.741010 -0.417885
vn -0.624042 -0.252781 -0.739374
vn -0.624042 -0.252781 -0.739374
vn -0.525619 -0.741010 -0.417885
vn -0.530827 -0.608984 -0.589373
vn -0.659979 -0.272035 -0.700303
vn -0.659979 -0.272035 -0.700303
vn -0.530827 -0.608984 -0.589373
vn -0.442176 -0.741547 -0.504567
vn -0.636449 -0.226350 -0.737359
vn -0.636449 -0.226350 -0.737359
vn -0.442176 -0.741547 -0.504567
vn -0.471069 -0.732287 -0.491782
vn -0.723375 -0.257506 -0.640640
vn -0.471069 -0.732287 -0.491782
vn -0.442176 -0.741547 -0.504567
vn -0.054391 -0.997253 -0.050288
vn -0.131913 -0.986113 -0.100896
vn -0.471069 -0.732287 -0.491782
vn -0.131913 -0.986113 -0.100896
vn -0.820626 -0.228735 -0.523691
vn -0.723375 -0.257506 -0.640640
vn -0.054391 -0.997253 -0.050288
vn -0.442176 -0.741547 -0.504567
vn -0.530827 -0.608984 -0.589373
vn -0.054391 -0.997253 -0.050288
vn -0.530827 -0.608984 -0.589373
vn -0.525619 -0.741010 -0.417885
vn -0.525619 -0.741010 -0.417885
vn -0.259074 -0.898699 -0.353865
vn -0.054391 -0.997253 -0.050288
vn -0.088171 -0.270524 -0.958667
vn 0.046561 0.193451 -0.980004
vn 0.241013 0.298634 -0.923434
vn 0.064798 -0.518190 -0.852807
vn -0.482816 0.658460 -0.577337
vn -0.430209 0.647673 -0.628841
vn -0.163881 0.815109 -0.555645
vn -0.336393 0.850190 -0.404990
vn -0.163881 0.815109 -0.555645
vn -0.132661 0.822554 -0.552997
vn -0.109520 0.867337 -0.485523
vn -0.115972 0.827237 -0.549754
vn -0.163881 0.815109 -0.555645
vn -0.115972 0.827237 -0.549754
vn -0.159444 0.898655 -0.408653
vn -0.336393 0.850190 -0.404990
vn -0.115972 0.827237 -0.549754
vn -0.109520 0.867337 -0.485523
vn 0.004645 0.913273 -0.407322
vn -0.003409 0.896219 -0.443599
vn -0.115972 0.827237 -0.549754
vn -0.003409 0.896219 -0.443599
vn -0.041034 0.911436 -0.409391
vn -0.159444 0.898655 -0.408653
vn -0.109520 0.867337 -0.485523
vn -0.132661 0.822554 -0.552997
vn -0.267574 0.955098 -0.127249
vn -0.240068 0.947020 -0.213354
vn -0.109520 0.867337 -0.485523
vn -0.240068 0.947020 -0.213354
vn -0.207665 0.974577 -0.084112
vn 0.004645 0.913273 -0.407322
vn -0.615943 0.772968 0.152101
vn -0.370271 0.908789 0.192360
vn -0.267574 0.955098 -0.127249
vn -0.549027 0.834385 -0.048701
vn 0.020309 0.946903 -0.320878
vn 0.124255 0.970430 -0.206947
vn 0.453333 0.685078 -0.570225
vn 0.125495 0.686292 -0.716418
vn 0.020309 0.946903 -0.320878
vn -0.212449 0.967872 -0.134498
vn -0.117948 0.992699 0.025231
vn 0.124255 0.970430 -0.206947
vn 0.413803 0.763518 -0.495790
vn 0.398701 0.853643 -0.335158
vn 0.359008 0.730962 -0.580351
vn 0.402930 0.613956 -0.678753
vn 0.413803 0.763518 -0.495790
vn 0.453333 0.685078 -0.570225
vn 0.124255 0.970430 -0.206947
vn 0.171237 0.959262 -0.224710
vn 0.413803 0.763518 -0.495790
vn 0.171237 0.959262 -0.224710
vn 0.329229 0.927679 -0.176126
vn 0.398701 0.853643 -0.335158
vn 0.329229 0.927679 -0.176126
vn 0.376676 0.896279 -0.234094
vn 0.689391 0.709465 -0.146286
vn 0.398701 0.853643 -0.335158
vn 0.329229 0.927679 -0.176126
vn 0.171237 0.959262 -0.224710
vn 0.132638 0.948835 -0.286565
vn 0.284049 0.931970 -0.225275
vn 0.329229 0.927679 -0.176126
vn 0.284049 0.931970 -0.225275
vn 0.371118 0.860522 -0.348960
vn 0.376676 0.896279 -0.234094
vn 0.284049 0.931970 -0.225275
vn 0.132638 0.948835 -0.286565
vn 0.163475 0.923314 -0.347516
vn 0.220625 0.888635 -0.402060
vn 0.284049 0.931970 -0.225275
vn 0.220625 0.888635 -0.402060
vn 0.320729 0.798605 -0.509277
vn 0.371118 0.860522 -0.348960
vn 0.398701 0.853643 -0.335158
vn 0.689391 0.709465 -0.146286
vn 0.744152 0.629944 -0.222280
vn 0.359008 0.730962 -0.580351
vn 0.132638 0.948835 -0.286565
vn -0.041034 0.911436 -0.409391
vn -0.003409 0.896219 -0.443599
vn 0.163475 0.923314 -0.347516
vn -0.373329 0.918966 0.126989
vn -0.360913 0.837501 0.410286
vn -0.303742 0.786342 0.537965
vn -0.305706 0.896303 0.321224
vn 0.338266 0.532582 -0.775843
vn 0.359008 0.730962 -0.580351
vn 0.744152 0.629944 -0.222280
vn 0.601715 0.461225 -0.652082
vn 0.220625 0.888635 -0.402060
vn 0.123746 0.968964 -0.213999
vn 0.284744 0.940030 -0.187790
vn 0.320729 0.798605 -0.509277
vn -0.207665 0.974577 -0.084112
vn -0.305706 0.896303 0.321224
vn -0.120775 0.837557 0.532834
vn 0.023052 0.989678 0.141442
vn 0.123746 0.968964 -0.213999
vn 0.119740 0.980685 0.154656
vn 0.134213 0.985841 0.100516
vn 0.284744 0.940030 -0.187790
vn 0.119740 0.980685 0.154656
vn 0.023052 0.989678 0.141442
vn -0.120775 0.837557 0.532834
vn 0.018277 0.838852 0.544053
vn 0.119740 0.980685 0.154656
vn 0.018277 0.838852 0.544053
vn -0.039302 0.899552 0.435043
vn 0.134213 0.985841 0.100516
vn 0.018277 0.838852 0.544053
vn -0.120775 0.837557 0.532834
vn -0.181449 0.778609 0.600703
vn -0.026118 0.779285 0.626125
vn 0.018277 0.838852 0.544053
vn -0.026118 0.779285 0.626125
vn -0.033470 0.764925 0.643249
vn -0.039302 0.899552 0.435043
vn -0.068120 0.410712 0.909217
vn -0.144355 0.651280 0.744981
vn -0.254800 0.641966 0.723157
vn -0.172232 0.321694 0.931047
vn -0.026118 0.779285 0.626125
vn 0.143129 0.747351 0.648830
vn 0.122880 0.675794 0.726776
vn -0.033470 0.764925 0.643249
vn 0.495181 0.849578 0.181696
vn 0.726800 0.620405 0.294720
vn 0.805867 0.561481 0.187928
vn 0.602379 0.792947 -0.091510
vn 0.495181 0.849578 0.181696
vn 0.134213 0.985841 0.100516
vn -0.039302 0.899552 0.435043
vn 0.122787 0.874187 0.469809
vn 0.495181 0.849578 0.181696
vn 0.122787 0.874187 0.469809
vn 0.404630 0.660902 0.632046
vn 0.726800 0.620405 0.294720
vn -0.323562 0.725210 0.607765
vn -0.314562 0.814506 0.487474
vn -0.210255 0.816469 0.537747
vn -0.181449 0.778609 0.600703
vn -0.323562 0.725210 0.607765
vn -0.181449 0.778609 0.600703
vn -0.303742 0.786342 0.537965
vn -0.360913 0.837501 0.410286
vn 0.320729 0.798605 -0.509277
vn 0.284744 0.940030 -0.187790
vn 0.602379 0.792947 -0.091510
vn 0.371118 0.860522 -0.348960
vn -0.117948 0.992699 0.025231
vn -0.212449 0.967872 -0.134498
vn -0.379916 0.914005 -0.142332
vn -0.353882 0.931722 0.081623
vn -0.328832 0.625411 -0.707623
vn -0.477082 0.691347 -0.542616
vn -0.379916 0.914005 -0.142332
vn -0.212449 0.967872 -0.134498
vn -0.353882 0.931722 0.081623
vn -0.379916 0.914005 -0.142332
vn -0.477082 0.691347 -0.542616
vn -0.336393 0.850190 -0.404990
vn -0.159444 0.898655 -0.408653
vn -0.117948 0.992699 0.025231
vn -0.353882 0.931722 0.081623
vn -0.336393 0.850190 -0.404990
vn 0.710986 0.699634 -0.070789
vn 0.602379 0.792947 -0.091510
vn 0.805867 0.561481 0.187928
vn 0.696468 0.653491 0.296449
vn -0.067795 -0.996746 -0.043597
vn -0.252944 -0.964351 0.077756
vn -0.261792 -0.965122 -0.001891
vn -0.034574 -0.996106 -0.081097
vn -0.067795 -0.996746 -0.043597
vn -0.054391 -0.997253 -0.050288
vn -0.067795 -0.996746 -0.043597
vn -0.131913 -0.986113 -0.100896
vn -0.054391 -0.997253 -0.050288
vn -0.067795 -0.996746 -0.043597
vn -0.261792 -0.965122 -0.001891
vn -0.131913 -0.986113 -0.100896
vn -0.067795 -0.996746 -0.043597
vn -0.181358 -0.972160 0.148374
vn -0.252944 -0.964351 0.077756
vn -0.022246 -0.999711 -0.009089
vn 0.019804 -0.999538 -0.023066
vn -0.067795 -0.996746 -0.043597
vn -0.067795 -0.996746 -0.043597
vn 0.019804 -0.999538 -0.023066
vn -0.181358 -0.972160 0.148374
vn -0.072370 -0.997200 0.018824
vn -0.067795 -0.996746 -0.043597
vn -0.112166 -0.990726 -0.076688
vn -0.022246 -0.999711 -0.009089
vn -0.067795 -0.996746 -0.043597
vn -0.072370 -0.997200 0.018824
vn -0.081492 -0.986739 -0.140374
vn -0.067795 -0.996746 -0.043597
vn -0.034574 -0.996106 -0.081097
vn -0.112166 -0.990726 -0.076688
vn -0.067795 -0.996746 -0.043597
vn -0.081492 -0.986739 -0.140374
vn -0.579537 0.497164 0.645728
vn -0.471569 0.279225 0.836455
vn -0.474981 0.540461 0.694474
vn -0.551060 0.593686 0.586405
s off
g Ore_damas_low:Group42735
usemtl initialShadingGroup
f 1/1/1 18/2/2 19/3/3 20/4/4
f 1/1/5 21/5/6 22/6/7 18/2/8
f 1/1/9 20/4/10 23/7/11 21/5/12
f 18/2/13 22/6/14 24/8/15
f 18/2/16 24/8/17 25/9/18 19/3/19
f 33/10/20 31/11/21 30/12/22
f 30/12/23 31/11/24 26/13/25
f 31/11/26 32/14/27 26/13/28
f 2/15/29 27/16/30 28/17/31 29/18/32
f 27/16/33 2/15/34 4/19/35 39/20/36
f 41/21/37 4/19/38 40/22/39
f 29/18/40 40/22/41 2/15/42
f 4/19/43 2/15/44 40/22/45
f 26/13/46 19/3/47 25/9/48 30/12/49
f 34/23/50 31/11/51 33/10/52 49/24/53
f 29/18/54 35/25/55 59/26/56 40/22/57
f 3/27/58 36/28/59 37/29/60 38/30/61
f 3/27/62 24/8/63 22/6/64 36/28/65
f 3/27/66 38/30/67 25/9/68 24/8/69
f 4/19/70 41/21/71 42/31/72 5/32/73
f 5/32/74 43/33/75 44/34/76 45/35/77
f 6/36/78 46/37/79 52/38/80 10/39/81
f 6/36/82 8/40/83 47/41/84 46/37/85
f 7/42/86 33/10/87 30/12/88 48/43/89
f 7/42/90 9/44/91 49/24/92 33/10/93
f 8/40/94 6/36/95 61/45/96
f 8/46/97 50/47/98 47/48/99
f 9/44/100 51/49/101 52/38/102 49/24/103
f 52/38/104 54/50/105 53/51/106 10/39/107
f 55/52/108 7/42/109 56/53/110 57/54/111
f 58/55/112 59/26/113 35/25/114 142/56/115
f 60/57/116 54/50/117 52/38/118 51/49/119
f 11/58/120 62/59/121 63/60/122 64/61/123
f 65/62/124 66/63/125 62/59/126 11/58/127
f 11/58/128 64/61/129 12/64/130 65/62/131
f 12/64/132 64/61/133 67/65/134 68/66/135
f 12/64/136 68/66/137 69/67/138 65/62/139
f 70/68/140 71/69/141 72/70/142 15/71/143
f 13/72/144 57/54/145 66/63/146 73/73/147
f 13/72/148 73/73/149 74/74/150 75/75/151
f 14/76/152 76/77/153 77/78/154 78/79/155
f 80/80/156 81/81/157 76/77/158 14/76/159
f 14/76/160 78/79/161 79/82/162 80/80/163
f 15/71/164 82/83/165 83/84/166 70/68/167
f 15/71/168 84/85/169 85/86/170 82/83/171
f 86/87/172 85/86/173 87/88/174 88/89/175
f 89/90/176 90/91/177 91/92/178 92/93/179
f 16/94/180 93/95/181 94/96/182 95/97/183
f 89/90/184 74/74/185 93/95/186 16/94/187
f 16/94/188 95/97/189 90/91/190 89/90/191
f 17/98/192 96/99/193 97/100/194 98/101/195
f 17/98/196 87/88/197 99/102/198 96/99/199
f 99/102/200 84/85/201 148/103/202 149/104/203
f 96/99/204 99/102/205 149/104/206 153/105/207
f 99/102/208 87/88/209 85/86/210 84/85/211
f 96/99/212 153/105/213 155/106/214 97/100/215
f 97/100/216 155/106/217 157/107/218 95/97/219
f 95/97/220 157/107/221 159/108/222 90/91/223
f 90/91/224 159/108/225 161/109/226 91/92/227
f 91/92/228 161/109/229 108/110/230 100/111/231
f 101/112/232 100/111/233 108/110/234 109/113/235
f 100/111/236 101/112/237 102/114/238 103/115/239
f 100/111/240 103/115/241 92/93/242 91/92/243
f 103/115/244 102/114/245 104/116/246 105/117/247
f 103/115/248 105/117/249 75/75/250 92/93/251
f 105/117/252 104/116/253 106/118/254 107/119/255
f 105/117/256 107/119/257 13/72/258 75/75/259
f 104/116/260 102/114/261 54/50/262 60/57/263
f 104/116/264 60/57/265 51/49/266 106/118/267
f 102/114/268 101/112/269 53/51/270 54/50/271
f 61/45/272 53/51/273 101/112/274 109/113/275
f 109/120/276 108/121/277 110/122/278 111/123/279
f 109/120/280 111/123/281 112/124/282 61/125/283
f 112/124/284 50/47/285 8/46/286 61/125/287
f 50/47/288 112/124/289 113/126/290 114/127/291
f 50/47/292 114/127/293 115/128/294 47/48/295
f 47/48/296 115/128/297 117/129/298 116/130/299
f 117/129/300 118/131/301 119/132/302 116/130/303
f 117/129/304 115/128/305 120/133/306 121/134/307
f 117/129/308 121/134/309 122/135/310 118/131/311
f 122/135/312 123/136/313 124/137/314 118/131/315
f 122/135/316 121/134/317 125/138/318
f 122/135/319 125/138/320 123/136/321
f 125/138/322 126/139/323 127/140/324 123/136/325
f 129/141/326 128/142/327 130/143/328 131/144/329
f 129/141/330 131/144/331 132/145/332
f 129/141/333 132/145/334 133/146/335 126/139/336
f 133/146/337 132/145/338 134/147/339 135/148/340
f 133/146/341 135/148/342 136/149/343 127/140/344
f 133/146/345 127/140/346 126/139/347
f 136/149/348 135/148/349 28/150/350 137/151/351
f 136/149/352 137/151/353 138/152/354 124/137/355
f 136/149/356 124/137/357 123/136/358 127/140/359
f 138/152/360 119/132/361 118/131/362 124/137/363
f 116/153/364 119/154/365 31/11/366 34/23/367
f 116/153/368 34/23/369 46/37/370 47/41/371
f 119/154/372 138/155/373 32/14/374 31/11/375
f 138/155/376 137/156/377 139/157/378 32/14/379
f 139/157/380 27/16/381 39/20/382 140/158/383
f 26/13/384 32/14/385 139/157/386 140/158/387
f 139/157/388 137/156/389 28/17/390 27/16/391
f 140/158/392 39/20/393 23/7/394 20/4/395
f 140/158/396 20/4/397 19/3/398 26/13/399
f 29/159/400 28/150/401 135/148/402 134/147/403
f 29/159/404 134/147/405 141/160/406 35/161/407
f 141/160/408 134/147/409 132/145/410 131/144/411
f 35/161/412 141/160/413 143/162/414 142/163/415
f 143/162/416 141/160/417 131/144/418 130/143/419
f 143/162/420 130/143/421 128/142/422 144/164/423
f 143/162/424 144/164/425 145/165/426 142/163/427
f 145/165/428 144/164/429 146/166/430
f 145/165/431 146/166/432 147/167/433
f 145/168/434 147/169/435 15/71/436 72/70/437
f 58/55/438 142/56/439 145/168/440 72/70/441
f 15/71/442 147/169/443 148/103/444 84/85/445
f 149/170/446 148/171/447 150/172/448 151/173/449
f 149/170/450 151/173/451 152/174/452 153/175/453
f 153/175/454 152/174/455 154/176/456 155/177/457
f 155/177/458 154/176/459 156/178/460 157/179/461
f 157/179/462 156/178/463 158/180/464 159/181/465
f 159/181/466 158/180/467 160/182/468 161/183/469
f 161/183/470 160/182/471 110/122/472 108/121/473
f 110/122/474 160/182/475 162/184/476 163/185/477
f 110/122/478 163/185/479 164/186/480 111/123/481
f 164/186/482 163/185/483 162/184/484
f 164/186/485 113/126/486 112/124/487 111/123/488
f 114/127/489 120/133/490 115/128/491
f 120/133/492 125/138/493 121/134/494
f 166/187/495 165/188/496 167/189/497
f 166/187/498 150/172/499 146/166/500
f 166/187/501 146/166/502 144/164/503 128/142/504
f 150/172/505 166/187/506 167/189/507 151/173/508
f 151/173/509 167/189/510 168/190/511 152/174/512
f 152/174/513 168/190/514 169/191/515 154/176/516
f 154/176/517 169/191/518 170/192/519 156/178/520
f 156/178/521 170/192/522 171/193/523 158/180/524
f 171/193/525 170/192/526 165/188/527 162/184/528
f 171/193/529 162/184/530 160/182/531 158/180/532
f 165/188/533 170/192/534 169/191/535
f 165/188/536 169/191/537 168/190/538
f 168/190/539 167/189/540 165/188/541
f 150/172/542 148/171/543 147/167/544 146/166/545
f 97/100/546 95/97/547 94/96/548 98/101/549
f 94/96/550 93/95/551 172/194/552 173/195/553
f 94/96/554 173/195/555 81/81/556 98/101/557
f 173/195/558 172/194/559 65/62/560 69/67/561
f 173/195/562 69/67/563 76/77/564 81/81/565
f 172/194/566 93/95/567 74/74/568 73/73/569
f 172/194/570 73/73/571 66/63/572 65/62/573
f 92/93/574 75/75/575 74/74/576 89/90/577
f 86/87/578 79/82/579 82/83/580 85/86/581
f 86/87/582 88/89/583 80/80/584 79/82/585
f 83/84/586 174/196/587 71/69/588 70/68/589
f 83/84/590 82/83/591 79/82/592 78/79/593
f 83/84/594 78/79/595 175/197/596 174/196/597
f 175/197/598 41/21/599 40/22/600 174/196/601
f 175/197/602 78/79/603 77/78/604 176/198/605
f 175/197/606 176/198/607 42/31/608 41/21/609
f 176/198/610 77/78/611 68/66/612 67/65/613
f 176/198/614 67/65/615 177/199/616 42/31/617
f 174/196/618 40/22/619 59/26/620 71/69/621
f 77/78/622 76/77/623 69/67/624 68/66/625
f 13/72/626 107/119/627 55/52/628 57/54/629
f 72/70/630 71/69/631 59/26/632 58/55/633
f 67/65/634 64/61/635 43/33/636 177/199/637
f 66/63/638 57/54/639 56/53/640 62/59/641
f 64/61/642 63/60/643 44/34/644 43/33/645
f 63/60/646 62/59/647 56/53/648 178/200/649
f 63/60/650 178/200/651 37/29/652 44/34/653
f 178/200/654 56/53/655 7/42/656 48/43/657
f 178/200/658 48/43/659 38/30/660 37/29/661
f 34/23/662 49/24/663 52/38/664 46/37/665
f 48/43/666 30/12/667 25/9/668 38/30/669
f 45/35/670 21/5/671 23/7/672 5/32/673
f 45/35/674 44/34/675 37/29/676 36/28/677
f 45/35/678 36/28/679 22/6/680 21/5/681
f 106/118/682 51/49/683 9/44/684 7/42/685
f 106/118/686 7/42/687 55/52/688 107/119/689
f 177/199/690 43/33/691 5/32/692 42/31/693
f 80/80/694 88/89/695 180/201/696 179/202/697
f 87/88/698 17/98/699 180/201/700 88/89/701
f 179/202/702 180/201/703 17/98/704 98/101/705
f 81/81/706 80/80/707 179/202/708 98/101/709
f 4/19/710 5/32/711 23/7/712 39/20/713
f 181/203/714 113/126/715 164/186/716
f 166/187/717 181/203/718 165/188/719
f 181/203/720 162/184/721 165/188/722
f 181/203/723 164/186/724 162/184/725
f 181/203/726 114/127/727 113/126/728
f 125/138/729 120/133/730 181/203/731
f 181/203/732 120/133/733 114/127/734
f 126/139/735 181/203/736 129/141/737
f 125/138/738 181/203/739 126/139/740
f 128/142/741 181/203/742 166/187/743
f 129/141/744 181/203/745 128/142/746
f 61/45/747 6/36/748 10/39/749 53/51/750
