# This file uses centimeters as units for non-parametric coordinates.

mtllib Gold_ing_low.mtl
g default
v 0.335028 0.392730 0.352178
v 0.586687 0.267189 0.191075
v 0.130510 0.498812 0.300686
v 0.474807 0.414221 0.093443
v 0.371072 0.511260 0.127930
v -0.388221 0.158664 0.375662
v -0.127038 0.464670 0.214085
v -0.412946 0.122745 0.318158
v -0.203134 0.416772 0.245536
v -0.384939 0.268854 0.277145
v 0.045575 0.598603 0.008243
v 0.089260 0.561781 -0.039808
v -0.173080 0.556298 -0.036217
v 0.158048 0.475706 -0.220990
v 0.340714 0.345158 -0.345442
v -0.231326 0.482420 -0.242156
v -0.005535 0.433950 -0.395864
v 0.255734 0.384715 0.401708
v 0.241092 0.312274 0.417550
v 0.360583 0.341188 0.340413
v 0.334581 0.478324 0.288275
v 0.238016 0.487360 0.360826
v 0.411447 0.414631 0.221337
v 0.141652 0.445945 0.361709
v 0.082644 0.412553 0.343276
v 0.239158 0.299794 0.434227
v 0.519498 0.250680 0.283805
v 0.543119 0.137468 0.293140
v 0.610516 0.153338 0.151093
v 0.030281 0.416999 0.360813
v -0.001228 0.283940 0.483915
v 0.227756 0.247391 0.494799
v -0.072481 0.404751 0.344283
v -0.177103 0.232947 0.430561
v 0.678876 0.140779 -0.067603
v 0.193932 0.541609 0.286653
v 0.115657 0.556295 0.203775
v 0.072385 0.483691 0.260706
v 0.453313 0.338437 0.225489
v 0.471036 0.408424 -0.098778
v 0.390730 0.462101 -0.024786
v 0.317638 0.485560 0.039078
v 0.270201 0.570220 0.099661
v 0.193082 0.578337 0.168453
v 0.284877 0.539379 0.228026
v -0.321252 0.174884 0.414755
v -0.307702 0.071490 0.405811
v 0.000114 0.491427 0.256655
v -0.200511 0.370361 0.316824
v -0.444431 0.070365 0.317640
v -0.271886 0.401037 0.206559
v -0.323371 0.341552 0.287983
v -0.435920 0.273023 0.194970
v -0.387028 0.334710 0.194339
v -0.166515 0.517959 0.134502
v -0.043182 0.572660 0.140922
v -0.099145 0.566764 0.064209
v 0.535179 0.307817 -0.225419
v 0.531156 0.363221 -0.164642
v -0.333537 0.370230 0.171923
v -0.541917 0.156664 0.201635
v 0.013549 0.614070 0.056367
v 0.066276 0.576918 0.101196
v 0.131070 0.570689 0.034881
v 0.004632 0.564464 -0.058885
v -0.049150 0.602900 -0.016422
v 0.194969 0.540374 -0.013070
v 0.133630 0.539828 -0.073301
v 0.057763 0.547618 -0.131149
v 0.376377 0.376122 -0.266591
v 0.427597 0.378104 -0.230536
v 0.442864 0.313448 -0.314596
v -0.114885 0.557342 -0.103132
v -0.204952 0.528567 -0.145027
v -0.264692 0.500691 -0.058915
v 0.126692 0.493168 -0.188158
v 0.187924 0.509047 -0.127613
v 0.259177 0.499276 -0.203848
v 0.221621 0.481337 -0.285351
v 0.085813 0.474054 -0.279048
v 0.035984 0.461730 -0.239683
v 0.303381 0.430938 -0.320447
v 0.355581 0.446167 -0.260177
v 0.266064 0.363759 -0.457961
v 0.223827 0.444833 -0.427054
v 0.178632 0.482434 -0.377998
v 0.085314 0.437705 -0.403665
v 0.068381 0.482599 -0.345991
v -0.335912 0.506471 -0.181973
v -0.342290 0.443159 -0.252984
v -0.412022 0.380670 -0.147579
v -0.360163 0.458079 -0.097803
v -0.151693 0.503557 -0.208525
v -0.099033 0.445878 -0.259777
v -0.198299 0.417263 -0.305223
v -0.005307 0.338202 -0.459038
v -0.110115 0.368416 -0.390719
v -0.042973 0.430719 -0.319145
v 0.118008 0.364109 -0.467064
v -0.462354 0.358332 -0.028571
v -0.462650 0.320233 0.067486
v -0.399334 0.376639 0.082577
v -0.398060 0.432984 0.009425
v -0.326752 0.417533 0.100672
v -0.318137 0.475265 0.053961
v -0.242380 0.445738 0.146313
v -0.223925 0.508233 0.078741
v -0.595628 0.172908 -0.125736
v -0.606700 0.165170 0.038327
v -0.599120 0.125005 -0.139820
v -0.616268 0.112300 0.030433
v -0.559833 0.108045 0.189304
v -0.541327 0.028670 0.162390
v -0.444049 0.010499 0.300897
v -0.304777 0.010413 0.403009
v -0.166182 0.137885 0.453006
v -0.150025 0.053356 0.414277
v 0.002297 0.066010 0.419851
v 0.002094 0.194237 0.467300
v -0.298475 0.002153 0.377435
v -0.148194 0.025595 0.402386
v -0.002305 0.032693 0.406736
v 0.150534 0.015645 0.395927
v 0.162665 0.047480 0.410869
v -0.008367 0.023650 0.380002
v 0.302378 -0.009442 0.333645
v 0.326268 0.003618 0.366862
v 0.444491 0.045714 -0.393037
v 0.551928 -0.014222 -0.122145
v 0.537788 0.020915 -0.263447
v 0.586379 -0.017244 -0.122913
v 0.539448 -0.003197 0.142646
v 0.477997 -0.004968 0.280159
v 0.556462 0.021372 0.147152
v 0.502355 0.016961 0.290887
v 0.346553 0.026047 0.391541
v 0.391302 0.122517 0.419330
v 0.205078 0.162938 0.465386
v 0.409154 0.237804 0.421385
v 0.385097 0.309788 0.369017
v 0.624481 0.005767 -0.121430
v 0.608631 0.132840 -0.236691
v 0.563542 0.039886 -0.261460
v 0.461311 0.054818 -0.407087
v 0.490900 0.124492 -0.425247
v 0.321489 0.072619 -0.478147
v 0.331067 0.133177 -0.487464
v 0.203886 0.139920 -0.528287
v 0.076781 0.173172 -0.543448
v 0.192212 0.069433 -0.527599
v 0.054597 0.083261 -0.537597
v -0.065201 0.102755 -0.506058
v -0.059212 0.223507 -0.523140
v -0.163524 0.116526 -0.442137
v -0.166017 0.249189 -0.457617
v -0.274248 0.125021 -0.402721
v -0.284044 0.250699 -0.414122
v -0.370837 0.109349 -0.345903
v -0.379254 0.233217 -0.347200
v -0.494064 0.121367 -0.271852
v -0.496324 0.202277 -0.255770
v -0.438428 0.063792 -0.243601
v -0.562306 0.070427 -0.142284
v -0.583084 0.049762 0.013580
v -0.064567 0.054375 -0.438641
v 0.175431 0.056564 -0.507858
v 0.032903 0.058643 -0.505256
v -0.070777 0.076640 -0.461810
v -0.156903 0.094139 -0.411133
v -0.254047 0.095015 -0.379083
v -0.349790 0.087807 -0.333631
v -0.066720 0.539844 -0.146289
v -0.009034 0.501295 -0.198043
v 0.393148 0.436001 -0.184311
v 0.317075 0.472787 -0.131698
v 0.245271 0.508860 -0.063512
v 0.276723 0.526953 0.042680
v 0.023187 0.556156 0.164152
v 0.002312 0.446583 -0.318364
v 0.018531 0.454272 -0.358547
v -0.018541 0.036639 -0.016456
vt 0.172029 0.408070
vt 0.196194 0.421373
vt 0.197787 0.442707
vt 0.157172 0.416101
vt 0.175972 0.379855
vt 0.204455 0.394262
vt 0.144833 0.372160
vt 0.230455 0.403626
vt 0.250060 0.408299
vt 0.297220 0.405652
vt 0.277427 0.461593
vt 0.266427 0.410627
vt 0.198308 0.448687
vt 0.201166 0.471634
vt 0.079176 0.377244
vt 0.098477 0.409649
vt 0.070697 0.432428
vt 0.041920 0.374361
vt 0.123583 0.336032
vt 0.123667 0.383541
vt 0.144374 0.295178
vt 0.113822 0.278020
vt 0.340068 0.453636
vt 0.336480 0.397791
vt 0.016743 0.296888
vt 0.092574 0.259758
vt 0.234944 0.382485
vt 0.216655 0.372256
vt 0.237757 0.351903
vt 0.253229 0.376643
vt 0.169136 0.307871
vt 0.162596 0.336600
vt 0.193299 0.325109
vt 0.216020 0.341064
vt 0.191212 0.358821
vt 0.412067 0.431942
vt 0.389780 0.444816
vt 0.373454 0.385895
vt 0.400711 0.388425
vt 0.433838 0.425970
vt 0.406255 0.471575
vt 0.310185 0.361989
vt 0.272880 0.372894
vt 0.334278 0.372409
vt 0.463904 0.369230
vt 0.492306 0.076973
vt 0.486850 0.080943
vt 0.479236 0.062073
vt 0.355189 0.359902
vt 0.394131 0.356686
vt 0.416451 0.360432
vt 0.315242 0.332221
vt 0.278943 0.332548
vt 0.293592 0.311354
vt 0.081784 0.239443
vt 0.026772 0.229800
vt 0.376036 0.349693
vt 0.251282 0.296432
vt 0.261776 0.308676
vt 0.247830 0.322914
vt 0.227868 0.304144
vt 0.259733 0.275207
vt 0.276075 0.289209
vt 0.236448 0.282224
vt 0.206683 0.291396
vt 0.222126 0.273169
vt 0.243515 0.256530
vt 0.130273 0.218790
vt 0.118699 0.233793
vt 0.103787 0.204938
vt 0.135659 0.191381
vt 0.310402 0.282008
vt 0.292607 0.263049
vt 0.317096 0.250303
vt 0.338966 0.275061
vt 0.210168 0.230407
vt 0.220686 0.238720
vt 0.203951 0.258678
vt 0.181002 0.240534
vt 0.229783 0.211453
vt 0.246621 0.218376
vt 0.188616 0.216410
vt 0.159577 0.206798
vt 0.148933 0.227215
vt 0.165580 0.162269
vt 0.184873 0.178429
vt 0.199882 0.190908
vt 0.224406 0.172642
vt 0.230881 0.192187
vt 0.350855 0.240148
vt 0.356824 0.216135
vt 0.391514 0.243051
vt 0.367758 0.261981
vt 0.323732 0.219428
vt 0.301551 0.229293
vt 0.285849 0.206753
vt 0.315661 0.191426
vt 0.251104 0.171774
vt 0.249309 0.138570
vt 0.287139 0.160403
vt 0.267613 0.190528
vt 0.209727 0.147630
vt 0.156906 0.093650
vt 0.206783 0.088428
vt 0.261946 0.100283
vt 0.308134 0.121541
vt 0.354756 0.138704
vt 0.394383 0.162683
vt 0.439274 0.198884
vt 0.473532 0.248141
vt 0.410463 0.281691
vt 0.417680 0.314911
vt 0.480106 0.306993
vt 0.392785 0.319067
vt 0.382178 0.293479
vt 0.368680 0.325632
vt 0.357642 0.307078
vt 0.343258 0.340242
vt 0.330771 0.315695
vt 0.491384 0.122775
vt 0.478222 0.140408
vt 0.473769 0.137072
vt 0.485561 0.120859
vt 0.491385 0.101599
vt 0.497330 0.100031
vt 0.481853 0.101745
vt 0.480194 0.083248
vt 0.473691 0.065743
vt 0.461447 0.052748
vt 0.468947 0.044881
vt 0.446966 0.041920
vt 0.455114 0.028309
vt 0.471330 0.067617
vt 0.459221 0.055554
vt 0.445218 0.045805
vt 0.428747 0.038677
vt 0.429367 0.034373
vt 0.444076 0.049031
vt 0.409918 0.037033
vt 0.409341 0.032196
vt 0.360508 0.067633
vt 0.354132 0.100738
vt 0.352958 0.082096
vt 0.357371 0.065770
vt 0.375927 0.042249
vt 0.389825 0.032776
vt 0.373466 0.039634
vt 0.387825 0.029625
vt 0.408735 0.027788
vt 0.379856 0.017923
vt 0.406459 0.015309
vt 0.431514 0.018822
vt 0.348367 0.482168
vt 0.280730 0.488367
vt 0.201971 0.497194
vt 0.128012 0.483723
vt 0.139706 0.451427
vt 0.149612 0.427272
vt 0.361831 0.028650
vt 0.353288 0.063376
vt 0.341924 0.050399
vt 0.349495 0.080448
vt 0.337896 0.075123
vt 0.351483 0.101185
vt 0.342667 0.103380
vt 0.360938 0.117049
vt 0.355040 0.120993
vt 0.061557 0.155958
vt 0.111926 0.118004
vt 0.378112 0.147343
vt 0.365672 0.134416
vt 0.371595 0.129151
vt 0.384373 0.138606
vt 0.397739 0.143873
vt 0.394935 0.157328
vt 0.411689 0.145336
vt 0.410747 0.160798
vt 0.425656 0.146891
vt 0.426410 0.161435
vt 0.438635 0.145053
vt 0.441078 0.159264
vt 0.455426 0.144553
vt 0.459741 0.152780
vt 0.450264 0.136343
vt 0.467867 0.132568
vt 0.477664 0.118304
vt 0.374547 0.127793
vt 0.402038 0.135358
vt 0.388637 0.135856
vt 0.401194 0.139057
vt 0.412739 0.140830
vt 0.424638 0.141817
vt 0.436958 0.141668
vt 0.278435 0.249935
vt 0.260973 0.232566
vt 0.137071 0.248950
vt 0.163284 0.262069
vt 0.188590 0.278145
vt 0.185135 0.308679
vt 0.262008 0.341357
vt 0.245511 0.184362
vt 0.253440 0.194214
vt 0.421275 0.090083
vn 0.639003 0.329462 0.695075
vn 0.180084 0.272531 0.945144
vn 0.158270 0.546824 0.822152
vn 0.636307 0.462960 0.617075
vn 0.639003 0.329462 0.695075
vn 0.622068 0.620404 0.477630
vn 0.221699 0.660902 0.716978
vn 0.180084 0.272531 0.945144
vn 0.639003 0.329462 0.695075
vn 0.636307 0.462960 0.617075
vn 0.726719 0.561481 0.395751
vn 0.622068 0.620404 0.477630
vn 0.180084 0.272531 0.945144
vn 0.221699 0.660902 0.716978
vn -0.341799 0.414753 0.843299
vn 0.180084 0.272531 0.945144
vn -0.341799 0.414753 0.843299
vn -0.075105 0.675794 0.733255
vn 0.158270 0.546824 0.822152
vn -0.316585 0.685879 0.655243
vn -0.154908 0.350030 0.923841
vn -0.034829 0.747351 0.663516
vn -0.034829 0.747351 0.663516
vn -0.154908 0.350030 0.923841
vn 0.207927 0.698789 0.684442
vn -0.154908 0.350030 0.923841
vn 0.167702 0.104233 0.980312
vn 0.207927 0.698789 0.684442
vn 0.866825 0.442579 0.229648
vn 0.708695 0.389248 0.588420
vn 0.789121 -0.151822 0.595180
vn 0.963360 0.053532 0.262814
vn 0.708695 0.389248 0.588420
vn 0.866825 0.442579 0.229648
vn 0.704162 0.699634 0.121109
vn 0.592370 0.653492 0.471219
vn 0.425415 0.896279 -0.125328
vn 0.704162 0.699634 0.121109
vn 0.703453 0.709464 0.042587
vn 0.963360 0.053532 0.262814
vn 0.703453 0.709464 0.042587
vn 0.866825 0.442579 0.229648
vn 0.704162 0.699634 0.121109
vn 0.866825 0.442579 0.229648
vn 0.703453 0.709464 0.042587
vn 0.207927 0.698789 0.684442
vn 0.158270 0.546824 0.822152
vn -0.075105 0.675794 0.733255
vn -0.034829 0.747351 0.663516
vn -0.307793 0.410712 0.858242
vn -0.154908 0.350030 0.923841
vn -0.316585 0.685879 0.655243
vn -0.337537 0.651280 0.679635
vn 0.963360 0.053532 0.262814
vn 0.977419 0.184835 0.102414
vn 0.776475 0.629943 -0.016079
vn 0.703453 0.709464 0.042587
vn -0.430026 0.684137 0.589096
vn -0.006761 0.874187 0.485543
vn -0.153738 0.899552 0.408866
vn -0.203564 0.764925 0.611107
vn -0.430026 0.684137 0.589096
vn -0.341799 0.414753 0.843299
vn 0.221699 0.660902 0.716978
vn -0.006761 0.874187 0.485543
vn -0.430026 0.684137 0.589096
vn -0.203564 0.764925 0.611107
vn -0.075105 0.675794 0.733255
vn -0.341799 0.414753 0.843299
vn 0.704162 0.699634 0.121109
vn 0.425415 0.896279 -0.125328
vn 0.450647 0.860523 -0.237526
vn 0.604996 0.792947 0.072213
vn 0.604996 0.792947 0.072213
vn 0.324471 0.940030 -0.105179
vn 0.102598 0.985842 0.132628
vn 0.428912 0.849577 0.307006
vn -0.677294 0.279226 0.680666
vn -0.413958 0.321694 0.851559
vn -0.438181 0.641966 0.629187
vn -0.642773 0.540461 0.542904
vn -0.677294 0.279226 0.680666
vn -0.660403 -0.066695 0.747944
vn -0.330426 -0.158385 0.930448
vn -0.413958 0.321694 0.851559
vn -0.334868 0.778610 0.530688
vn -0.316585 0.685879 0.655243
vn -0.034829 0.747351 0.663516
vn -0.191917 0.779285 0.596559
vn -0.334868 0.778610 0.530688
vn -0.345869 0.816469 0.462335
vn -0.337537 0.651280 0.679635
vn -0.316585 0.685879 0.655243
vn -0.660403 -0.066695 0.747944
vn -0.677294 0.279226 0.680666
vn -0.730572 0.497164 0.468074
vn -0.660403 -0.066695 0.747944
vn -0.683222 -0.050210 0.728482
vn -0.330426 -0.158385 0.930448
vn -0.345869 0.816469 0.462335
vn -0.433021 0.814506 0.386100
vn -0.438181 0.641966 0.629187
vn -0.337537 0.651280 0.679635
vn -0.438181 0.641966 0.629187
vn -0.635709 0.676289 0.372165
vn -0.687324 0.593686 0.418477
vn -0.642773 0.540461 0.542904
vn -0.436038 0.786342 0.437649
vn -0.334868 0.778610 0.530688
vn -0.258312 0.837557 0.481429
vn -0.380211 0.896303 0.228211
vn 0.753641 0.461225 -0.468292
vn 0.776475 0.629943 -0.016079
vn 0.977419 0.184835 0.102414
vn 0.863633 0.157685 -0.478825
vn -0.496017 0.799870 0.337898
vn -0.635709 0.676289 0.372165
vn -0.438181 0.641966 0.629187
vn -0.433021 0.814506 0.386100
vn 0.268462 0.931892 -0.243938
vn -0.015448 0.989678 0.142473
vn 0.074229 0.980686 0.180958
vn 0.176266 0.968964 -0.173316
vn 0.112951 0.913273 -0.391375
vn -0.177766 0.974577 -0.136377
vn -0.015448 0.989678 0.142473
vn 0.268462 0.931892 -0.243938
vn 0.268462 0.931892 -0.243938
vn 0.176266 0.968964 -0.173316
vn 0.226593 0.927319 -0.297886
vn 0.112951 0.913273 -0.391375
vn 0.226593 0.927319 -0.297886
vn 0.176266 0.968964 -0.173316
vn 0.319729 0.888635 -0.328787
vn 0.250118 0.923314 -0.291432
vn 0.226593 0.927319 -0.297886
vn 0.250118 0.923314 -0.291432
vn 0.114848 0.896219 -0.428487
vn 0.112951 0.913273 -0.391375
vn 0.569137 0.613956 -0.546938
vn 0.500596 0.730963 -0.463786
vn 0.532665 0.532582 -0.657742
vn 0.530522 0.466006 -0.708085
vn -0.393665 0.918967 0.022983
vn -0.380211 0.896303 0.228211
vn -0.177766 0.974577 -0.136377
vn -0.174581 0.947020 -0.269581
vn -0.393665 0.918967 0.022983
vn -0.174581 0.947020 -0.269581
vn -0.224024 0.955098 -0.193911
vn -0.408127 0.908789 0.086807
vn -0.105545 0.982722 -0.152044
vn 0.069472 0.911436 -0.405535
vn 0.204163 0.948835 -0.240894
vn 0.224895 0.959262 -0.170993
vn -0.120408 0.992699 -0.007090
vn -0.044859 0.898654 -0.436358
vn 0.069472 0.911436 -0.405535
vn -0.105545 0.982722 -0.152044
vn -0.105545 0.982722 -0.152044
vn 0.224895 0.959262 -0.170993
vn 0.174879 0.970430 -0.166384
vn -0.120408 0.992699 -0.007090
vn 0.530522 0.466006 -0.708085
vn 0.588818 0.685078 -0.428906
vn 0.530892 0.763518 -0.367686
vn 0.569137 0.613956 -0.546938
vn 0.530522 0.466006 -0.708085
vn 0.430607 0.365971 -0.825011
vn 0.311752 0.686292 -0.657126
vn 0.588818 0.685078 -0.428906
vn 0.105029 0.946903 -0.303882
vn 0.311752 0.686292 -0.657126
vn -0.128511 0.625411 -0.769640
vn -0.168959 0.967872 -0.186218
vn -0.516231 0.834385 -0.193152
vn -0.562991 0.563878 -0.604221
vn -0.756415 0.559635 -0.338593
vn -0.634206 0.772968 -0.017422
vn -0.063424 0.787192 -0.613438
vn 0.019397 0.822554 -0.568356
vn -0.009990 0.815109 -0.579222
vn -0.247207 0.647672 -0.720700
vn -0.516231 0.834385 -0.193152
vn -0.224024 0.955098 -0.193911
vn 0.019397 0.822554 -0.568356
vn -0.063424 0.787192 -0.613438
vn -0.063424 0.787192 -0.613438
vn -0.247207 0.647672 -0.720700
vn -0.562991 0.563878 -0.604221
vn -0.516231 0.834385 -0.193152
vn -0.315350 0.691347 -0.650072
vn -0.194068 0.532287 -0.824020
vn -0.311631 0.658460 -0.685066
vn -0.216393 0.850190 -0.479949
vn -0.315350 0.691347 -0.650072
vn -0.128511 0.625411 -0.769640
vn 0.013238 0.410543 -0.911745
vn -0.194068 0.532287 -0.824020
vn 0.013238 0.410543 -0.911745
vn 0.430607 0.365971 -0.825011
vn 0.305862 0.193451 -0.932215
vn 0.002304 0.217426 -0.976074
vn -0.194068 0.532287 -0.824020
vn 0.013238 0.410543 -0.911745
vn 0.002304 0.217426 -0.976074
vn -0.290392 0.269728 -0.918106
vn 0.013238 0.410543 -0.911745
vn -0.128511 0.625411 -0.769640
vn 0.311752 0.686292 -0.657126
vn 0.430607 0.365971 -0.825011
vn -0.194068 0.532287 -0.824020
vn -0.290392 0.269728 -0.918106
vn -0.391882 0.334623 -0.857004
vn -0.311631 0.658460 -0.685066
vn -0.311631 0.658460 -0.685066
vn -0.391882 0.334623 -0.857004
vn -0.395845 0.347621 -0.849980
vn -0.247207 0.647672 -0.720700
vn -0.247207 0.647672 -0.720700
vn -0.395845 0.347621 -0.849980
vn -0.593392 0.355883 -0.721964
vn -0.562991 0.563878 -0.604221
vn -0.562991 0.563878 -0.604221
vn -0.593392 0.355883 -0.721964
vn -0.744648 0.430387 -0.510163
vn -0.756415 0.559635 -0.338593
vn -0.756415 0.559635 -0.338593
vn -0.744648 0.430387 -0.510163
vn -0.832656 0.511479 -0.212305
vn -0.770852 0.631040 -0.087041
vn -0.748737 0.620741 0.232537
vn -0.770852 0.631040 -0.087041
vn -0.832656 0.511479 -0.212305
vn -0.833151 0.521117 0.185193
vn -0.770852 0.631040 -0.087041
vn -0.748737 0.620741 0.232537
vn -0.647785 0.652522 0.393180
vn -0.648789 0.751070 0.122340
vn -0.770852 0.631040 -0.087041
vn -0.648789 0.751070 0.122340
vn -0.634206 0.772968 -0.017422
vn -0.756415 0.559635 -0.338593
vn -0.648789 0.751070 0.122340
vn -0.647785 0.652522 0.393180
vn -0.508779 0.703833 0.495745
vn -0.489059 0.829044 0.271123
vn -0.648789 0.751070 0.122340
vn -0.489059 0.829044 0.271123
vn -0.408127 0.908789 0.086807
vn -0.634206 0.772968 -0.017422
vn -0.489059 0.829044 0.271123
vn -0.508779 0.703833 0.495745
vn -0.473730 0.725209 0.499651
vn -0.457142 0.837501 0.299355
vn -0.489059 0.829044 0.271123
vn -0.457142 0.837501 0.299355
vn -0.393665 0.918967 0.022983
vn -0.408127 0.908789 0.086807
vn -0.508779 0.703833 0.495745
vn -0.647785 0.652522 0.393180
vn -0.635709 0.676289 0.372165
vn -0.496017 0.799870 0.337898
vn -0.508779 0.703833 0.495745
vn -0.496017 0.799870 0.337898
vn -0.433021 0.814506 0.386100
vn -0.473730 0.725209 0.499651
vn -0.647785 0.652522 0.393180
vn -0.748737 0.620741 0.232537
vn -0.687324 0.593686 0.418477
vn -0.635709 0.676289 0.372165
vn -0.730572 0.497164 0.468074
vn -0.687324 0.593686 0.418477
vn -0.748737 0.620741 0.232537
vn -0.833151 0.521117 0.185193
vn -0.833151 0.521117 0.185193
vn -0.832656 0.511479 -0.212305
vn -0.891116 -0.217892 -0.398040
vn -0.974839 -0.195967 0.106232
vn -0.833151 0.521117 0.185193
vn -0.974839 -0.195967 0.106232
vn -0.867680 -0.096974 0.487572
vn -0.730572 0.497164 0.468074
vn -0.867680 -0.096974 0.487572
vn -0.683222 -0.050210 0.728482
vn -0.660403 -0.066695 0.747944
vn -0.730572 0.497164 0.468074
vn -0.683222 -0.050210 0.728482
vn -0.867680 -0.096974 0.487572
vn -0.264516 -0.964351 0.007587
vn -0.214322 -0.972160 0.094719
vn -0.683222 -0.050210 0.728482
vn -0.214322 -0.972160 0.094719
vn -0.276852 -0.367838 0.887721
vn -0.330426 -0.158385 0.930448
vn -0.330426 -0.158385 0.930448
vn -0.276852 -0.367838 0.887721
vn -0.009386 -0.379660 0.925079
vn -0.120028 -0.155289 0.980550
vn -0.009386 -0.379660 0.925079
vn -0.002724 -0.380744 0.924677
vn -0.069831 -0.247704 0.966316
vn -0.120028 -0.155289 0.980550
vn -0.009386 -0.379660 0.925079
vn -0.276852 -0.367838 0.887721
vn 0.025232 -0.999538 -0.016959
vn 0.045935 -0.719886 0.692571
vn -0.009386 -0.379660 0.925079
vn 0.045935 -0.719886 0.692571
vn -0.006101 -0.575339 0.817892
vn -0.002724 -0.380744 0.924677
vn -0.006101 -0.575339 0.817892
vn -0.017614 -0.836397 0.547841
vn 0.028334 -0.416941 0.908492
vn -0.002724 -0.380744 0.924677
vn -0.006101 -0.575339 0.817892
vn 0.045935 -0.719886 0.692571
vn -0.019022 -0.999711 -0.014685
vn -0.006101 -0.575339 0.817892
vn -0.019022 -0.999711 -0.014685
vn -0.017614 -0.836397 0.547841
vn -0.019022 -0.999711 -0.014685
vn -0.074770 -0.997200 -0.001129
vn 0.095933 -0.837960 0.537234
vn -0.017614 -0.836397 0.547841
vn -0.087693 -0.990726 -0.103789
vn -0.041167 -0.986739 -0.157007
vn 0.221102 -0.920802 -0.321306
vn 0.390257 -0.916759 -0.085157
vn -0.087693 -0.990726 -0.103789
vn 0.390257 -0.916759 -0.085157
vn 0.164228 -0.984212 0.065995
vn -0.087693 -0.990726 -0.103789
vn 0.164228 -0.984212 0.065995
vn 0.126911 -0.985365 0.113797
vn -0.074770 -0.997200 -0.001129
vn 0.126911 -0.985365 0.113797
vn 0.164228 -0.984212 0.065995
vn 0.841770 -0.458720 0.284603
vn 0.697026 -0.422450 0.579388
vn 0.126911 -0.985365 0.113797
vn 0.697026 -0.422450 0.579388
vn 0.285413 -0.449620 0.846393
vn 0.095933 -0.837960 0.537234
vn 0.126911 -0.985365 0.113797
vn 0.095933 -0.837960 0.537234
vn -0.074770 -0.997200 -0.001129
vn 0.285413 -0.449620 0.846393
vn 0.697026 -0.422450 0.579388
vn 0.789121 -0.151822 0.595180
vn 0.434222 -0.244527 0.866982
vn 0.285413 -0.449620 0.846393
vn 0.434222 -0.244527 0.866982
vn 0.071564 -0.314741 0.946476
vn 0.028334 -0.416941 0.908492
vn 0.285413 -0.449620 0.846393
vn 0.028334 -0.416941 0.908492
vn -0.017614 -0.836397 0.547841
vn 0.095933 -0.837960 0.537234
vn 0.071564 -0.314741 0.946476
vn -0.069831 -0.247704 0.966316
vn -0.002724 -0.380744 0.924677
vn 0.028334 -0.416941 0.908492
vn -0.120028 -0.155289 0.980550
vn -0.069831 -0.247704 0.966316
vn -0.154908 0.350030 0.923841
vn -0.307793 0.410712 0.858242
vn -0.120028 -0.155289 0.980550
vn -0.307793 0.410712 0.858242
vn -0.413958 0.321694 0.851559
vn -0.330426 -0.158385 0.930448
vn -0.069831 -0.247704 0.966316
vn 0.071564 -0.314741 0.946476
vn 0.167702 0.104233 0.980312
vn -0.154908 0.350030 0.923841
vn 0.071564 -0.314741 0.946476
vn 0.434222 -0.244527 0.866982
vn 0.540069 0.242515 0.805923
vn 0.167702 0.104233 0.980312
vn 0.540069 0.242515 0.805923
vn 0.708695 0.389248 0.588420
vn 0.592370 0.653492 0.471219
vn 0.486474 0.665690 0.565863
vn 0.207927 0.698789 0.684442
vn 0.167702 0.104233 0.980312
vn 0.540069 0.242515 0.805923
vn 0.486474 0.665690 0.565863
vn 0.540069 0.242515 0.805923
vn 0.434222 -0.244527 0.866982
vn 0.789121 -0.151822 0.595180
vn 0.708695 0.389248 0.588420
vn 0.486474 0.665690 0.565863
vn 0.592370 0.653492 0.471219
vn 0.726719 0.561481 0.395751
vn 0.636307 0.462960 0.617075
vn 0.486474 0.665690 0.565863
vn 0.636307 0.462960 0.617075
vn 0.158270 0.546824 0.822152
vn 0.207927 0.698789 0.684442
vn 0.963360 0.053532 0.262814
vn 0.789121 -0.151822 0.595180
vn 0.697026 -0.422450 0.579388
vn 0.841770 -0.458720 0.284603
vn 0.963360 0.053532 0.262814
vn 0.841770 -0.458720 0.284603
vn 0.887127 -0.460583 -0.029486
vn 0.977419 0.184835 0.102414
vn 0.887127 -0.460583 -0.029486
vn 0.841770 -0.458720 0.284603
vn 0.164228 -0.984212 0.065995
vn 0.390257 -0.916759 -0.085157
vn 0.977419 0.184835 0.102414
vn 0.887127 -0.460583 -0.029486
vn 0.786632 -0.403964 -0.466929
vn 0.863633 0.157685 -0.478825
vn 0.786632 -0.403964 -0.466929
vn 0.887127 -0.460583 -0.029486
vn 0.390257 -0.916759 -0.085157
vn 0.221102 -0.920802 -0.321306
vn 0.786632 -0.403964 -0.466929
vn 0.221102 -0.920802 -0.321306
vn -0.041167 -0.986739 -0.157007
vn 0.599968 -0.517591 -0.610031
vn 0.786632 -0.403964 -0.466929
vn 0.599968 -0.517591 -0.610031
vn 0.633292 0.278264 -0.722157
vn 0.863633 0.157685 -0.478825
vn 0.633292 0.278264 -0.722157
vn 0.599968 -0.517591 -0.610031
vn 0.289568 -0.518191 -0.804754
vn 0.633292 0.278264 -0.722157
vn 0.289568 -0.518191 -0.804754
vn 0.478228 0.298634 -0.825903
vn 0.633292 0.278264 -0.722157
vn 0.478228 0.298634 -0.825903
vn 0.530522 0.466006 -0.708085
vn 0.532665 0.532582 -0.657742
vn 0.753641 0.461225 -0.468292
vn 0.863633 0.157685 -0.478825
vn 0.633292 0.278264 -0.722157
vn 0.532665 0.532582 -0.657742
vn 0.530522 0.466006 -0.708085
vn 0.478228 0.298634 -0.825903
vn 0.305862 0.193451 -0.932215
vn 0.430607 0.365971 -0.825011
vn 0.002304 0.217426 -0.976074
vn 0.305862 0.193451 -0.932215
vn 0.170315 -0.270524 -0.947528
vn -0.116574 -0.275858 -0.954103
vn 0.002304 0.217426 -0.976074
vn -0.116574 -0.275858 -0.954103
vn -0.404605 -0.252781 -0.878861
vn -0.290392 0.269728 -0.918106
vn -0.290392 0.269728 -0.918106
vn -0.404605 -0.252781 -0.878861
vn -0.449650 -0.272036 -0.850771
vn -0.391882 0.334623 -0.857004
vn -0.391882 0.334623 -0.857004
vn -0.449650 -0.272036 -0.850771
vn -0.417101 -0.226350 -0.880223
vn -0.395845 0.347621 -0.849980
vn -0.395845 0.347621 -0.849980
vn -0.417101 -0.226350 -0.880223
vn -0.526644 -0.257505 -0.810146
vn -0.593392 0.355883 -0.721964
vn -0.593392 0.355883 -0.721964
vn -0.526644 -0.257505 -0.810146
vn -0.651529 -0.228735 -0.723319
vn -0.744648 0.430387 -0.510163
vn -0.744648 0.430387 -0.510163
vn -0.651529 -0.228735 -0.723319
vn -0.891116 -0.217892 -0.398040
vn -0.832656 0.511479 -0.212305
vn -0.891116 -0.217892 -0.398040
vn -0.651529 -0.228735 -0.723319
vn -0.100280 -0.986113 -0.132382
vn -0.569224 -0.754781 -0.326022
vn -0.891116 -0.217892 -0.398040
vn -0.569224 -0.754781 -0.326022
vn -0.251834 -0.965123 -0.071541
vn -0.974839 -0.195967 0.106232
vn -0.251834 -0.965123 -0.071541
vn -0.569224 -0.754781 -0.326022
vn -0.100280 -0.986113 -0.132382
vn -0.251834 -0.965123 -0.071541
vn -0.264516 -0.964351 0.007587
vn -0.867680 -0.096974 0.487572
vn -0.974839 -0.195967 0.106232
vn -0.214322 -0.972160 0.094719
vn 0.025232 -0.999538 -0.016959
vn -0.276852 -0.367838 0.887721
vn 0.025232 -0.999538 -0.016959
vn -0.019022 -0.999711 -0.014685
vn 0.045935 -0.719886 0.692571
vn -0.011729 -0.996106 -0.087376
vn -0.039034 -0.997253 -0.062956
vn -0.155481 -0.898700 -0.410079
vn -0.011729 -0.996106 -0.087376
vn 0.170315 -0.270524 -0.947528
vn 0.289568 -0.518191 -0.804754
vn -0.011729 -0.996106 -0.087376
vn 0.289568 -0.518191 -0.804754
vn 0.599968 -0.517591 -0.610031
vn -0.041167 -0.986739 -0.157007
vn 0.170315 -0.270524 -0.947528
vn -0.011729 -0.996106 -0.087376
vn -0.155481 -0.898700 -0.410079
vn -0.116574 -0.275858 -0.954103
vn -0.116574 -0.275858 -0.954103
vn -0.155481 -0.898700 -0.410079
vn -0.395352 -0.741010 -0.542772
vn -0.404605 -0.252781 -0.878861
vn -0.404605 -0.252781 -0.878861
vn -0.395352 -0.741010 -0.542772
vn -0.354703 -0.608986 -0.709452
vn -0.449650 -0.272036 -0.850771
vn -0.449650 -0.272036 -0.850771
vn -0.354703 -0.608986 -0.709452
vn -0.291837 -0.741548 -0.604101
vn -0.417101 -0.226350 -0.880223
vn -0.417101 -0.226350 -0.880223
vn -0.291837 -0.741548 -0.604101
vn -0.323092 -0.732287 -0.599472
vn -0.526644 -0.257505 -0.810146
vn -0.323092 -0.732287 -0.599472
vn -0.291837 -0.741548 -0.604101
vn -0.039034 -0.997253 -0.062956
vn -0.100280 -0.986113 -0.132382
vn -0.323092 -0.732287 -0.599472
vn -0.100280 -0.986113 -0.132382
vn -0.651529 -0.228735 -0.723319
vn -0.526644 -0.257505 -0.810146
vn -0.039034 -0.997253 -0.062956
vn -0.291837 -0.741548 -0.604101
vn -0.354703 -0.608986 -0.709452
vn -0.039034 -0.997253 -0.062956
vn -0.354703 -0.608986 -0.709452
vn -0.395352 -0.741010 -0.542772
vn -0.395352 -0.741010 -0.542772
vn -0.155481 -0.898700 -0.410079
vn -0.039034 -0.997253 -0.062956
vn 0.170315 -0.270524 -0.947528
vn 0.305862 0.193451 -0.932215
vn 0.478228 0.298634 -0.825903
vn 0.289568 -0.518191 -0.804754
vn -0.311631 0.658460 -0.685066
vn -0.247207 0.647672 -0.720700
vn -0.009990 0.815109 -0.579222
vn -0.216393 0.850190 -0.479949
vn -0.009990 0.815109 -0.579222
vn 0.019397 0.822554 -0.568356
vn 0.023734 0.867337 -0.497155
vn 0.034620 0.827237 -0.560786
vn -0.009990 0.815109 -0.579222
vn 0.034620 0.827237 -0.560786
vn -0.044859 0.898654 -0.436358
vn -0.216393 0.850190 -0.479949
vn 0.034620 0.827237 -0.560786
vn 0.023734 0.867337 -0.497155
vn 0.112951 0.913273 -0.391375
vn 0.114848 0.896219 -0.428487
vn 0.034620 0.827237 -0.560786
vn 0.114848 0.896219 -0.428487
vn 0.069472 0.911436 -0.405535
vn -0.044859 0.898654 -0.436358
vn 0.023734 0.867337 -0.497155
vn 0.019397 0.822554 -0.568356
vn -0.224024 0.955098 -0.193911
vn -0.174581 0.947020 -0.269581
vn 0.023734 0.867337 -0.497155
vn -0.174581 0.947020 -0.269581
vn -0.177766 0.974577 -0.136377
vn 0.112951 0.913273 -0.391375
vn -0.634206 0.772968 -0.017422
vn -0.408127 0.908789 0.086807
vn -0.224024 0.955098 -0.193911
vn -0.516231 0.834385 -0.193152
vn 0.105029 0.946903 -0.303882
vn 0.174879 0.970430 -0.166384
vn 0.588818 0.685078 -0.428906
vn 0.311752 0.686292 -0.657126
vn 0.105029 0.946903 -0.303882
vn -0.168959 0.967872 -0.186218
vn -0.120408 0.992699 -0.007090
vn 0.174879 0.970430 -0.166384
vn 0.530892 0.763518 -0.367686
vn 0.473558 0.853643 -0.216878
vn 0.500596 0.730963 -0.463786
vn 0.569137 0.613956 -0.546938
vn 0.530892 0.763518 -0.367686
vn 0.588818 0.685078 -0.428906
vn 0.174879 0.970430 -0.166384
vn 0.224895 0.959262 -0.170993
vn 0.530892 0.763518 -0.367686
vn 0.224895 0.959262 -0.170993
vn 0.364244 0.927679 -0.082090
vn 0.473558 0.853643 -0.216878
vn 0.364244 0.927679 -0.082090
vn 0.425415 0.896279 -0.125328
vn 0.703453 0.709464 0.042587
vn 0.473558 0.853643 -0.216878
vn 0.364244 0.927679 -0.082090
vn 0.224895 0.959262 -0.170993
vn 0.204163 0.948835 -0.240894
vn 0.333784 0.931970 -0.141495
vn 0.364244 0.927679 -0.082090
vn 0.333784 0.931970 -0.141495
vn 0.450647 0.860523 -0.237526
vn 0.425415 0.896279 -0.125328
vn 0.333784 0.931970 -0.141495
vn 0.204163 0.948835 -0.240894
vn 0.250118 0.923314 -0.291432
vn 0.319729 0.888635 -0.328787
vn 0.333784 0.931970 -0.141495
vn 0.319729 0.888635 -0.328787
vn 0.444771 0.798605 -0.405474
vn 0.450647 0.860523 -0.237526
vn 0.473558 0.853643 -0.216878
vn 0.703453 0.709464 0.042587
vn 0.776475 0.629943 -0.016079
vn 0.500596 0.730963 -0.463786
vn 0.204163 0.948835 -0.240894
vn 0.069472 0.911436 -0.405535
vn 0.114848 0.896219 -0.428487
vn 0.250118 0.923314 -0.291432
vn -0.393665 0.918967 0.022983
vn -0.457142 0.837501 0.299355
vn -0.436038 0.786342 0.437649
vn -0.380211 0.896303 0.228211
vn 0.532665 0.532582 -0.657742
vn 0.500596 0.730963 -0.463786
vn 0.776475 0.629943 -0.016079
vn 0.753641 0.461225 -0.468292
vn 0.319729 0.888635 -0.328787
vn 0.176266 0.968964 -0.173316
vn 0.324471 0.940030 -0.105179
vn 0.444771 0.798605 -0.405474
vn -0.177766 0.974577 -0.136377
vn -0.380211 0.896303 0.228211
vn -0.258312 0.837557 0.481429
vn -0.015448 0.989678 0.142473
vn 0.176266 0.968964 -0.173316
vn 0.074229 0.980686 0.180958
vn 0.102598 0.985842 0.132628
vn 0.324471 0.940030 -0.105179
vn 0.074229 0.980686 0.180958
vn -0.015448 0.989678 0.142473
vn -0.258312 0.837557 0.481429
vn -0.127269 0.838852 0.529274
vn 0.074229 0.980686 0.180958
vn -0.127269 0.838852 0.529274
vn -0.153738 0.899552 0.408866
vn 0.102598 0.985842 0.132628
vn -0.127269 0.838852 0.529274
vn -0.258312 0.837557 0.481429
vn -0.334868 0.778610 0.530688
vn -0.191917 0.779285 0.596559
vn -0.127269 0.838852 0.529274
vn -0.191917 0.779285 0.596559
vn -0.203564 0.764925 0.611107
vn -0.153738 0.899552 0.408866
vn -0.307793 0.410712 0.858242
vn -0.337537 0.651280 0.679635
vn -0.438181 0.641966 0.629187
vn -0.413958 0.321694 0.851559
vn -0.191917 0.779285 0.596559
vn -0.034829 0.747351 0.663516
vn -0.075105 0.675794 0.733255
vn -0.203564 0.764925 0.611107
vn 0.428912 0.849577 0.307006
vn 0.622068 0.620404 0.477630
vn 0.726719 0.561481 0.395751
vn 0.604996 0.792947 0.072213
vn 0.428912 0.849577 0.307006
vn 0.102598 0.985842 0.132628
vn -0.153738 0.899552 0.408866
vn -0.006761 0.874187 0.485543
vn 0.428912 0.849577 0.307006
vn -0.006761 0.874187 0.485543
vn 0.221699 0.660902 0.716978
vn 0.622068 0.620404 0.477630
vn -0.473730 0.725209 0.499651
vn -0.433021 0.814506 0.386100
vn -0.345869 0.816469 0.462335
vn -0.334868 0.778610 0.530688
vn -0.473730 0.725209 0.499651
vn -0.334868 0.778610 0.530688
vn -0.436038 0.786342 0.437649
vn -0.457142 0.837501 0.299355
vn 0.444771 0.798605 -0.405474
vn 0.324471 0.940030 -0.105179
vn 0.604996 0.792947 0.072213
vn 0.450647 0.860523 -0.237526
vn -0.120408 0.992699 -0.007090
vn -0.168959 0.967872 -0.186218
vn -0.328291 0.914006 -0.238367
vn -0.362839 0.931722 -0.015567
vn -0.128511 0.625411 -0.769640
vn -0.315350 0.691347 -0.650072
vn -0.328291 0.914006 -0.238367
vn -0.168959 0.967872 -0.186218
vn -0.362839 0.931722 -0.015567
vn -0.328291 0.914006 -0.238367
vn -0.315350 0.691347 -0.650072
vn -0.216393 0.850190 -0.479949
vn -0.044859 0.898654 -0.436358
vn -0.120408 0.992699 -0.007090
vn -0.362839 0.931722 -0.015567
vn -0.216393 0.850190 -0.479949
vn 0.704162 0.699634 0.121109
vn 0.604996 0.792947 0.072213
vn 0.726719 0.561481 0.395751
vn 0.592370 0.653492 0.471219
vn -0.053737 -0.996746 -0.060077
vn -0.264516 -0.964351 0.007587
vn -0.251834 -0.965123 -0.071541
vn -0.011729 -0.996106 -0.087376
vn -0.053737 -0.996746 -0.060077
vn -0.039034 -0.997253 -0.062956
vn -0.053737 -0.996746 -0.060077
vn -0.100280 -0.986113 -0.132382
vn -0.039034 -0.997253 -0.062956
vn -0.053737 -0.996746 -0.060077
vn -0.251834 -0.965123 -0.071541
vn -0.100280 -0.986113 -0.132382
vn -0.053737 -0.996746 -0.060077
vn -0.214322 -0.972160 0.094719
vn -0.264516 -0.964351 0.007587
vn -0.019022 -0.999711 -0.014685
vn 0.025232 -0.999538 -0.016959
vn -0.053737 -0.996746 -0.060077
vn -0.053737 -0.996746 -0.060077
vn 0.025232 -0.999538 -0.016959
vn -0.214322 -0.972160 0.094719
vn -0.074770 -0.997200 -0.001129
vn -0.053737 -0.996746 -0.060077
vn -0.087693 -0.990726 -0.103789
vn -0.019022 -0.999711 -0.014685
vn -0.053737 -0.996746 -0.060077
vn -0.074770 -0.997200 -0.001129
vn -0.041167 -0.986739 -0.157007
vn -0.053737 -0.996746 -0.060077
vn -0.011729 -0.996106 -0.087376
vn -0.087693 -0.990726 -0.103789
vn -0.053737 -0.996746 -0.060077
vn -0.041167 -0.986739 -0.157007
vn -0.730572 0.497164 0.468074
vn -0.677294 0.279226 0.680666
vn -0.642773 0.540461 0.542904
vn -0.687324 0.593686 0.418477
s off
g Ore_gold_low:Group42733
usemtl initialShadingGroup
f 1/1/1 18/2/2 19/3/3 20/4/4
f 1/1/5 21/5/6 22/6/7 18/2/8
f 1/1/9 20/4/10 23/7/11 21/5/12
f 18/2/13 22/6/14 24/8/15
f 18/2/16 24/8/17 25/9/18 19/3/19
f 33/10/20 31/11/21 30/12/22
f 30/12/23 31/11/24 26/13/25
f 31/11/26 32/14/27 26/13/28
f 2/15/29 27/16/30 28/17/31 29/18/32
f 27/16/33 2/15/34 4/19/35 39/20/36
f 41/21/37 4/19/38 40/22/39
f 29/18/40 40/22/41 2/15/42
f 4/19/43 2/15/44 40/22/45
f 26/13/46 19/3/47 25/9/48 30/12/49
f 34/23/50 31/11/51 33/10/52 49/24/53
f 29/18/54 35/25/55 59/26/56 40/22/57
f 3/27/58 36/28/59 37/29/60 38/30/61
f 3/27/62 24/8/63 22/6/64 36/28/65
f 3/27/66 38/30/67 25/9/68 24/8/69
f 4/19/70 41/21/71 42/31/72 5/32/73
f 5/32/74 43/33/75 44/34/76 45/35/77
f 6/36/78 46/37/79 52/38/80 10/39/81
f 6/36/82 8/40/83 47/41/84 46/37/85
f 7/42/86 33/10/87 30/12/88 48/43/89
f 7/42/90 9/44/91 49/24/92 33/10/93
f 8/40/94 6/36/95 61/45/96
f 8/46/97 50/47/98 47/48/99
f 9/44/100 51/49/101 52/38/102 49/24/103
f 52/38/104 54/50/105 53/51/106 10/39/107
f 55/52/108 7/42/109 56/53/110 57/54/111
f 58/55/112 59/26/113 35/25/114 142/56/115
f 60/57/116 54/50/117 52/38/118 51/49/119
f 11/58/120 62/59/121 63/60/122 64/61/123
f 65/62/124 66/63/125 62/59/126 11/58/127
f 11/58/128 64/61/129 12/64/130 65/62/131
f 12/64/132 64/61/133 67/65/134 68/66/135
f 12/64/136 68/66/137 69/67/138 65/62/139
f 70/68/140 71/69/141 72/70/142 15/71/143
f 13/72/144 57/54/145 66/63/146 73/73/147
f 13/72/148 73/73/149 74/74/150 75/75/151
f 14/76/152 76/77/153 77/78/154 78/79/155
f 80/80/156 81/81/157 76/77/158 14/76/159
f 14/76/160 78/79/161 79/82/162 80/80/163
f 15/71/164 82/83/165 83/84/166 70/68/167
f 15/71/168 84/85/169 85/86/170 82/83/171
f 86/87/172 85/86/173 87/88/174 88/89/175
f 89/90/176 90/91/177 91/92/178 92/93/179
f 16/94/180 93/95/181 94/96/182 95/97/183
f 89/90/184 74/74/185 93/95/186 16/94/187
f 16/94/188 95/97/189 90/91/190 89/90/191
f 17/98/192 96/99/193 97/100/194 98/101/195
f 17/98/196 87/88/197 99/102/198 96/99/199
f 99/102/200 84/85/201 148/103/202 149/104/203
f 96/99/204 99/102/205 149/104/206 153/105/207
f 99/102/208 87/88/209 85/86/210 84/85/211
f 96/99/212 153/105/213 155/106/214 97/100/215
f 97/100/216 155/106/217 157/107/218 95/97/219
f 95/97/220 157/107/221 159/108/222 90/91/223
f 90/91/224 159/108/225 161/109/226 91/92/227
f 91/92/228 161/109/229 108/110/230 100/111/231
f 101/112/232 100/111/233 108/110/234 109/113/235
f 100/111/236 101/112/237 102/114/238 103/115/239
f 100/111/240 103/115/241 92/93/242 91/92/243
f 103/115/244 102/114/245 104/116/246 105/117/247
f 103/115/248 105/117/249 75/75/250 92/93/251
f 105/117/252 104/116/253 106/118/254 107/119/255
f 105/117/256 107/119/257 13/72/258 75/75/259
f 104/116/260 102/114/261 54/50/262 60/57/263
f 104/116/264 60/57/265 51/49/266 106/118/267
f 102/114/268 101/112/269 53/51/270 54/50/271
f 61/45/272 53/51/273 101/112/274 109/113/275
f 109/120/276 108/121/277 110/122/278 111/123/279
f 109/120/280 111/123/281 112/124/282 61/125/283
f 112/124/284 50/47/285 8/46/286 61/125/287
f 50/47/288 112/124/289 113/126/290 114/127/291
f 50/47/292 114/127/293 115/128/294 47/48/295
f 47/48/296 115/128/297 117/129/298 116/130/299
f 117/129/300 118/131/301 119/132/302 116/130/303
f 117/129/304 115/128/305 120/133/306 121/134/307
f 117/129/308 121/134/309 122/135/310 118/131/311
f 122/135/312 123/136/313 124/137/314 118/131/315
f 122/135/316 121/134/317 125/138/318
f 122/135/319 125/138/320 123/136/321
f 125/138/322 126/139/323 127/140/324 123/136/325
f 129/141/326 128/142/327 130/143/328 131/144/329
f 129/141/330 131/144/331 132/145/332
f 129/141/333 132/145/334 133/146/335 126/139/336
f 133/146/337 132/145/338 134/147/339 135/148/340
f 133/146/341 135/148/342 136/149/343 127/140/344
f 133/146/345 127/140/346 126/139/347
f 136/149/348 135/148/349 28/150/350 137/151/351
f 136/149/352 137/151/353 138/152/354 124/137/355
f 136/149/356 124/137/357 123/136/358 127/140/359
f 138/152/360 119/132/361 118/131/362 124/137/363
f 116/153/364 119/154/365 31/11/366 34/23/367
f 116/153/368 34/23/369 46/37/370 47/41/371
f 119/154/372 138/155/373 32/14/374 31/11/375
f 138/155/376 137/156/377 139/157/378 32/14/379
f 139/157/380 27/16/381 39/20/382 140/158/383
f 26/13/384 32/14/385 139/157/386 140/158/387
f 139/157/388 137/156/389 28/17/390 27/16/391
f 140/158/392 39/20/393 23/7/394 20/4/395
f 140/158/396 20/4/397 19/3/398 26/13/399
f 29/159/400 28/150/401 135/148/402 134/147/403
f 29/159/404 134/147/405 141/160/406 35/161/407
f 141/160/408 134/147/409 132/145/410 131/144/411
f 35/161/412 141/160/413 143/162/414 142/163/415
f 143/162/416 141/160/417 131/144/418 130/143/419
f 143/162/420 130/143/421 128/142/422 144/164/423
f 143/162/424 144/164/425 145/165/426 142/163/427
f 145/165/428 144/164/429 146/166/430
f 145/165/431 146/166/432 147/167/433
f 145/168/434 147/169/435 15/71/436 72/70/437
f 58/55/438 142/56/439 145/168/440 72/70/441
f 15/71/442 147/169/443 148/103/444 84/85/445
f 149/170/446 148/171/447 150/172/448 151/173/449
f 149/170/450 151/173/451 152/174/452 153/175/453
f 153/175/454 152/174/455 154/176/456 155/177/457
f 155/177/458 154/176/459 156/178/460 157/179/461
f 157/179/462 156/178/463 158/180/464 159/181/465
f 159/181/466 158/180/467 160/182/468 161/183/469
f 161/183/470 160/182/471 110/122/472 108/121/473
f 110/122/474 160/182/475 162/184/476 163/185/477
f 110/122/478 163/185/479 164/186/480 111/123/481
f 164/186/482 163/185/483 162/184/484
f 164/186/485 113/126/486 112/124/487 111/123/488
f 114/127/489 120/133/490 115/128/491
f 120/133/492 125/138/493 121/134/494
f 166/187/495 165/188/496 167/189/497
f 166/187/498 150/172/499 146/166/500
f 166/187/501 146/166/502 144/164/503 128/142/504
f 150/172/505 166/187/506 167/189/507 151/173/508
f 151/173/509 167/189/510 168/190/511 152/174/512
f 152/174/513 168/190/514 169/191/515 154/176/516
f 154/176/517 169/191/518 170/192/519 156/178/520
f 156/178/521 170/192/522 171/193/523 158/180/524
f 171/193/525 170/192/526 165/188/527 162/184/528
f 171/193/529 162/184/530 160/182/531 158/180/532
f 165/188/533 170/192/534 169/191/535
f 165/188/536 169/191/537 168/190/538
f 168/190/539 167/189/540 165/188/541
f 150/172/542 148/171/543 147/167/544 146/166/545
f 97/100/546 95/97/547 94/96/548 98/101/549
f 94/96/550 93/95/551 172/194/552 173/195/553
f 94/96/554 173/195/555 81/81/556 98/101/557
f 173/195/558 172/194/559 65/62/560 69/67/561
f 173/195/562 69/67/563 76/77/564 81/81/565
f 172/194/566 93/95/567 74/74/568 73/73/569
f 172/194/570 73/73/571 66/63/572 65/62/573
f 92/93/574 75/75/575 74/74/576 89/90/577
f 86/87/578 79/82/579 82/83/580 85/86/581
f 86/87/582 88/89/583 80/80/584 79/82/585
f 83/84/586 174/196/587 71/69/588 70/68/589
f 83/84/590 82/83/591 79/82/592 78/79/593
f 83/84/594 78/79/595 175/197/596 174/196/597
f 175/197/598 41/21/599 40/22/600 174/196/601
f 175/197/602 78/79/603 77/78/604 176/198/605
f 175/197/606 176/198/607 42/31/608 41/21/609
f 176/198/610 77/78/611 68/66/612 67/65/613
f 176/198/614 67/65/615 177/199/616 42/31/617
f 174/196/618 40/22/619 59/26/620 71/69/621
f 77/78/622 76/77/623 69/67/624 68/66/625
f 13/72/626 107/119/627 55/52/628 57/54/629
f 72/70/630 71/69/631 59/26/632 58/55/633
f 67/65/634 64/61/635 43/33/636 177/199/637
f 66/63/638 57/54/639 56/53/640 62/59/641
f 64/61/642 63/60/643 44/34/644 43/33/645
f 63/60/646 62/59/647 56/53/648 178/200/649
f 63/60/650 178/200/651 37/29/652 44/34/653
f 178/200/654 56/53/655 7/42/656 48/43/657
f 178/200/658 48/43/659 38/30/660 37/29/661
f 34/23/662 49/24/663 52/38/664 46/37/665
f 48/43/666 30/12/667 25/9/668 38/30/669
f 45/35/670 21/5/671 23/7/672 5/32/673
f 45/35/674 44/34/675 37/29/676 36/28/677
f 45/35/678 36/28/679 22/6/680 21/5/681
f 106/118/682 51/49/683 9/44/684 7/42/685
f 106/118/686 7/42/687 55/52/688 107/119/689
f 177/199/690 43/33/691 5/32/692 42/31/693
f 80/80/694 88/89/695 180/201/696 179/202/697
f 87/88/698 17/98/699 180/201/700 88/89/701
f 179/202/702 180/201/703 17/98/704 98/101/705
f 81/81/706 80/80/707 179/202/708 98/101/709
f 4/19/710 5/32/711 23/7/712 39/20/713
f 181/203/714 113/126/715 164/186/716
f 166/187/717 181/203/718 165/188/719
f 181/203/720 162/184/721 165/188/722
f 181/203/723 164/186/724 162/184/725
f 181/203/726 114/127/727 113/126/728
f 125/138/729 120/133/730 181/203/731
f 181/203/732 120/133/733 114/127/734
f 126/139/735 181/203/736 129/141/737
f 125/138/738 181/203/739 126/139/740
f 128/142/741 181/203/742 166/187/743
f 129/141/744 181/203/745 128/142/746
f 61/45/747 6/36/748 10/39/749 53/51/750
