# This file uses centimeters as units for non-parametric coordinates.

mtllib Iron_ing_low.mtl
g default
v 0.320598 0.410848 0.349295
v 0.565834 0.285307 0.178575
v 0.114240 0.516930 0.305755
v 0.450261 0.432339 0.085345
v 0.347938 0.529378 0.123821
v -0.401201 0.176782 0.400746
v -0.146465 0.482789 0.229184
v -0.428133 0.140863 0.344242
v -0.221288 0.434891 0.263556
v -0.401733 0.286973 0.302176
v 0.018053 0.616722 0.016817
v 0.059846 0.579899 -0.032888
v -0.202158 0.574416 -0.019149
v 0.121572 0.493825 -0.216595
v 0.299285 0.363277 -0.348023
v -0.268330 0.500538 -0.222679
v -0.048655 0.452068 -0.385009
v 0.243280 0.402833 0.401856
v 0.229262 0.330393 0.418253
v 0.345678 0.359306 0.336550
v 0.317678 0.496442 0.285457
v 0.223992 0.505478 0.361690
v 0.391896 0.432749 0.215595
v 0.127735 0.464063 0.366302
v 0.068058 0.430672 0.350166
v 0.227974 0.317913 0.434992
v 0.502284 0.268799 0.273836
v 0.526249 0.155587 0.282249
v 0.588098 0.171456 0.137701
v 0.016412 0.435117 0.369715
v -0.010309 0.302059 0.493944
v 0.218925 0.265509 0.495960
v -0.086911 0.422870 0.357174
v -0.188117 0.251065 0.447435
v 0.647945 0.158897 -0.083477
v 0.177071 0.559727 0.289278
v 0.095648 0.574413 0.209491
v 0.054611 0.501809 0.268054
v 0.433892 0.356555 0.218124
v 0.439054 0.426543 -0.106586
v 0.361672 0.480219 -0.029542
v 0.291106 0.503678 0.037102
v 0.246048 0.588338 0.099475
v 0.171649 0.596456 0.171200
v 0.265680 0.557498 0.227176
v -0.332770 0.193003 0.437219
v -0.319576 0.089608 0.427758
v -0.017762 0.509545 0.266803
v -0.215908 0.388479 0.334690
v -0.459614 0.088483 0.344943
v -0.291497 0.419156 0.227269
v -0.339792 0.359670 0.310624
v -0.455856 0.291141 0.222036
v -0.407025 0.352829 0.219514
v -0.188993 0.536077 0.151189
v -0.065504 0.590778 0.152832
v -0.124392 0.584882 0.078342
v 0.498249 0.325936 -0.235614
v 0.496581 0.381339 -0.174727
v -0.354441 0.388349 0.195044
v -0.561516 0.174783 0.232797
v -0.012086 0.632189 0.066145
v 0.042335 0.595036 0.108900
v 0.104514 0.588808 0.040127
v -0.025456 0.582582 -0.048676
v -0.077555 0.621018 -0.004164
v 0.166511 0.558492 -0.010260
v 0.102887 0.557947 -0.068073
v 0.024838 0.565736 -0.122941
v 0.337973 0.394240 -0.270610
v 0.390550 0.396222 -0.236565
v 0.402553 0.331567 -0.321152
v -0.146596 0.575460 -0.088265
v -0.238217 0.546685 -0.126644
v -0.294580 0.518809 -0.038284
v 0.091510 0.511286 -0.182575
v 0.155039 0.527165 -0.124445
v 0.223288 0.517394 -0.203380
v 0.182607 0.499455 -0.283369
v 0.047144 0.492172 -0.271815
v -0.001124 0.479848 -0.230551
v 0.262948 0.449057 -0.321602
v 0.317441 0.464285 -0.263397
v 0.220338 0.381878 -0.457569
v 0.179329 0.462952 -0.425051
v 0.136065 0.500552 -0.374283
v 0.041824 0.455823 -0.396319
v 0.027136 0.500717 -0.338034
v -0.370508 0.524589 -0.158494
v -0.379629 0.461277 -0.229206
v -0.445231 0.398788 -0.121181
v -0.391485 0.476197 -0.073449
v -0.187455 0.521676 -0.192155
v -0.136817 0.463996 -0.245406
v -0.237767 0.435381 -0.286978
v -0.050872 0.356320 -0.448144
v -0.152957 0.386534 -0.375821
v -0.083097 0.448838 -0.306899
v 0.072041 0.382227 -0.460936
v -0.490919 0.376451 -0.000315
v -0.487499 0.338352 0.095681
v -0.423647 0.394757 0.108311
v -0.425204 0.451102 0.035164
v -0.350419 0.435651 0.123584
v -0.343618 0.493383 0.076575
v -0.264344 0.463857 0.165926
v -0.248517 0.526351 0.097691
v -0.627854 0.191026 -0.092250
v -0.632569 0.183288 0.072118
v -0.631888 0.143124 -0.106189
v -0.642436 0.130419 0.064600
v -0.579895 0.126163 0.221168
v -0.562445 0.046788 0.193559
v -0.459880 0.028617 0.328198
v -0.316761 0.028531 0.424844
v -0.176336 0.156003 0.469441
v -0.161689 0.071475 0.430116
v -0.009265 0.084128 0.429791
v -0.007633 0.212356 0.477214
v -0.311454 0.020271 0.399046
v -0.160319 0.043714 0.418163
v -0.014372 0.050811 0.416865
v 0.137935 0.033764 0.400150
v 0.150634 0.065599 0.414612
v -0.021464 0.041769 0.390385
v 0.287255 0.008677 0.332039
v 0.312412 0.021737 0.364307
v 0.401144 0.063833 -0.399598
v 0.518981 0.003896 -0.133065
v 0.499385 0.039034 -0.273714
v 0.553377 0.000874 -0.135166
v 0.516757 0.014922 0.132010
v 0.460673 0.013150 0.271798
v 0.533933 0.039491 0.135855
v 0.485428 0.035079 0.281575
v 0.333637 0.044165 0.388183
v 0.379427 0.140636 0.414219
v 0.195125 0.181056 0.467446
v 0.397345 0.255922 0.415582
v 0.371280 0.327906 0.364184
v 0.591508 0.023885 -0.135159
v 0.571210 0.150958 -0.249720
v 0.525197 0.058005 -0.272726
v 0.417407 0.072936 -0.414288
v 0.446271 0.142610 -0.433579
v 0.274940 0.090738 -0.479885
v 0.284151 0.151295 -0.489565
v 0.155486 0.158039 -0.525437
v 0.027889 0.191290 -0.535668
v 0.143847 0.087551 -0.524297
v 0.005948 0.101380 -0.528962
v -0.112540 0.120873 -0.492812
v -0.107217 0.241625 -0.510113
v -0.208316 0.134644 -0.425134
v -0.211406 0.267308 -0.440506
v -0.317432 0.143140 -0.381464
v -0.327662 0.268817 -0.392477
v -0.411751 0.127468 -0.320951
v -0.420211 0.251336 -0.321921
v -0.532019 0.139486 -0.242187
v -0.533655 0.220395 -0.226030
v -0.475332 0.081910 -0.216110
v -0.595197 0.088545 -0.110076
v -0.609929 0.067880 0.046476
v -0.109298 0.072493 -0.425470
v 0.127842 0.074683 -0.503921
v -0.014479 0.076762 -0.495806
v -0.116400 0.094758 -0.448381
v -0.200500 0.112257 -0.394410
v -0.296332 0.113133 -0.358625
v -0.390244 0.105925 -0.309502
v -0.100137 0.557962 -0.133254
v -0.044497 0.519413 -0.187201
v 0.357915 0.454120 -0.189041
v 0.283935 0.490905 -0.133523
v 0.214823 0.526978 -0.062611
v 0.250361 0.545072 0.042285
v 0.001715 0.574274 0.173476
v -0.037815 0.464701 -0.307871
v -0.023163 0.472391 -0.348651
v -0.046970 0.054757 -0.005382
vt 0.664678 0.898253
vt 0.688843 0.911556
vt 0.690437 0.932890
vt 0.649822 0.906284
vt 0.668622 0.870038
vt 0.697104 0.884444
vt 0.637482 0.862342
vt 0.723104 0.893808
vt 0.742709 0.898482
vt 0.789870 0.895835
vt 0.770077 0.951776
vt 0.759077 0.900810
vt 0.690957 0.938869
vt 0.693815 0.961816
vt 0.571826 0.867426
vt 0.591127 0.899832
vt 0.563346 0.922611
vt 0.534569 0.864544
vt 0.616233 0.826214
vt 0.616317 0.873723
vt 0.637024 0.785361
vt 0.606472 0.768203
vt 0.832718 0.943819
vt 0.829129 0.887974
vt 0.509392 0.787070
vt 0.585224 0.749940
vt 0.727593 0.872667
vt 0.709304 0.862439
vt 0.730406 0.842085
vt 0.745879 0.866825
vt 0.661785 0.798053
vt 0.655245 0.826783
vt 0.685948 0.815292
vt 0.708669 0.831247
vt 0.683861 0.849003
vt 0.904717 0.922124
vt 0.882429 0.934999
vt 0.866103 0.876077
vt 0.893361 0.878608
vt 0.926487 0.916153
vt 0.898905 0.961758
vt 0.802834 0.852172
vt 0.765530 0.863077
vt 0.826928 0.862591
vt 0.956554 0.859412
vt 0.984955 0.567155
vt 0.979499 0.571126
vt 0.971886 0.552255
vt 0.847839 0.850085
vt 0.886780 0.846868
vt 0.909100 0.850615
vt 0.807892 0.822404
vt 0.771592 0.822730
vt 0.786242 0.801537
vt 0.574434 0.729625
vt 0.519422 0.719983
vt 0.868686 0.839876
vt 0.743932 0.786614
vt 0.754426 0.798858
vt 0.740479 0.813097
vt 0.720517 0.794327
vt 0.752382 0.765389
vt 0.768725 0.779392
vt 0.729098 0.772406
vt 0.699332 0.781579
vt 0.714775 0.763351
vt 0.736165 0.746712
vt 0.622923 0.708973
vt 0.611349 0.723975
vt 0.596436 0.695121
vt 0.628308 0.681563
vt 0.803052 0.772190
vt 0.785257 0.753231
vt 0.809745 0.740486
vt 0.831616 0.765243
vt 0.702817 0.720590
vt 0.713336 0.728903
vt 0.696601 0.748860
vt 0.673651 0.730717
vt 0.722432 0.701635
vt 0.739270 0.708558
vt 0.681265 0.706593
vt 0.652226 0.696981
vt 0.641583 0.717398
vt 0.658229 0.652452
vt 0.677522 0.668611
vt 0.692532 0.681090
vt 0.717056 0.662824
vt 0.723531 0.682370
vt 0.843504 0.730331
vt 0.849474 0.706318
vt 0.884164 0.733234
vt 0.860408 0.752164
vt 0.816381 0.709611
vt 0.794201 0.719475
vt 0.778498 0.696936
vt 0.808310 0.681609
vt 0.743753 0.661956
vt 0.741959 0.628752
vt 0.779789 0.650585
vt 0.760263 0.680710
vt 0.702376 0.637813
vt 0.649556 0.583833
vt 0.699433 0.578610
vt 0.754595 0.590466
vt 0.800784 0.611724
vt 0.847405 0.628887
vt 0.887032 0.652866
vt 0.931924 0.689066
vt 0.966181 0.738324
vt 0.903113 0.771874
vt 0.910330 0.805093
vt 0.972755 0.797175
vt 0.885434 0.809250
vt 0.874827 0.783662
vt 0.861329 0.815815
vt 0.850291 0.797261
vt 0.835907 0.830424
vt 0.823421 0.805878
vt 0.984033 0.612958
vt 0.970872 0.630591
vt 0.966419 0.627255
vt 0.978211 0.611042
vt 0.984034 0.591781
vt 0.989980 0.590214
vt 0.974503 0.591927
vt 0.972843 0.573430
vt 0.966341 0.555925
vt 0.954096 0.542930
vt 0.961597 0.535064
vt 0.939616 0.532103
vt 0.947763 0.518492
vt 0.963979 0.557800
vt 0.951870 0.545736
vt 0.937867 0.535988
vt 0.921396 0.528859
vt 0.922016 0.524556
vt 0.936725 0.539213
vt 0.902568 0.527216
vt 0.901990 0.522379
vt 0.853158 0.557816
vt 0.846781 0.590920
vt 0.845607 0.572278
vt 0.850020 0.555952
vt 0.868576 0.532431
vt 0.882474 0.522958
vt 0.866115 0.529817
vt 0.880475 0.519808
vt 0.901385 0.517971
vt 0.872505 0.508106
vt 0.899108 0.505491
vt 0.924164 0.509005
vt 0.841016 0.972351
vt 0.773380 0.978550
vt 0.694621 0.987377
vt 0.620661 0.973905
vt 0.632355 0.941609
vt 0.642261 0.917454
vt 0.854481 0.518833
vt 0.845937 0.553559
vt 0.834574 0.540582
vt 0.842144 0.570630
vt 0.830545 0.565306
vt 0.844132 0.591368
vt 0.835317 0.593562
vt 0.853588 0.607231
vt 0.847690 0.611176
vt 0.554206 0.646141
vt 0.604575 0.608187
vt 0.870762 0.637526
vt 0.858321 0.624598
vt 0.864244 0.619333
vt 0.877022 0.628788
vt 0.890388 0.634056
vt 0.887584 0.647510
vt 0.904339 0.635518
vt 0.903396 0.650980
vt 0.918306 0.637074
vt 0.919059 0.651617
vt 0.931285 0.635236
vt 0.933727 0.649447
vt 0.948076 0.634735
vt 0.952390 0.642963
vt 0.942914 0.626526
vt 0.960516 0.622751
vt 0.970313 0.608487
vt 0.867196 0.617975
vt 0.894687 0.625540
vt 0.881287 0.626039
vt 0.893844 0.629239
vt 0.905388 0.631013
vt 0.917288 0.631999
vt 0.929607 0.631851
vt 0.771084 0.740117
vt 0.753622 0.722748
vt 0.629720 0.739133
vt 0.655934 0.752252
vt 0.681239 0.768327
vt 0.677785 0.798861
vt 0.754658 0.831540
vt 0.738161 0.674544
vt 0.746089 0.684396
vt 0.913925 0.580265
vn 0.665420 0.329462 0.669829
vn 0.216521 0.272531 0.937468
vn 0.189963 0.546823 0.815413
vn 0.659707 0.462960 0.591991
vn 0.665420 0.329462 0.669829
vn 0.640083 0.620404 0.453202
vn 0.249275 0.660903 0.707863
vn 0.216521 0.272531 0.937468
vn 0.665420 0.329462 0.669829
vn 0.659707 0.462960 0.591991
vn 0.741488 0.561481 0.367335
vn 0.640083 0.620404 0.453202
vn 0.216521 0.272531 0.937468
vn 0.249275 0.660903 0.707863
vn -0.308913 0.414753 0.855893
vn 0.216521 0.272531 0.937468
vn -0.308913 0.414753 0.855893
vn -0.046676 0.675793 0.735612
vn 0.189963 0.546823 0.815413
vn -0.290994 0.685879 0.667002
vn -0.119045 0.350030 0.929143
vn -0.009129 0.747351 0.664367
vn -0.009129 0.747351 0.664367
vn -0.119045 0.350030 0.929143
vn 0.234255 0.698789 0.675884
vn -0.119045 0.350030 0.929143
vn 0.205508 0.104233 0.973089
vn 0.234255 0.698789 0.675884
vn 0.875062 0.442579 0.195935
vn 0.730932 0.389248 0.560557
vn 0.811559 -0.151822 0.564200
vn 0.972808 0.053532 0.225342
vn 0.730932 0.389248 0.560557
vn 0.875062 0.442579 0.195935
vn 0.708321 0.699634 0.093771
vn 0.610159 0.653492 0.447945
vn 0.420247 0.896279 -0.141695
vn 0.708321 0.699634 0.093771
vn 0.704574 0.709464 0.015336
vn 0.972808 0.053532 0.225342
vn 0.704574 0.709464 0.015336
vn 0.875062 0.442579 0.195935
vn 0.708321 0.699634 0.093771
vn 0.875062 0.442579 0.195935
vn 0.704574 0.709464 0.015336
vn 0.234255 0.698789 0.675884
vn 0.189963 0.546823 0.815413
vn -0.046676 0.675793 0.735612
vn -0.009129 0.747351 0.664367
vn -0.274353 0.410712 0.869509
vn -0.119045 0.350030 0.929143
vn -0.290994 0.685879 0.667002
vn -0.310986 0.651280 0.692187
vn 0.972808 0.053532 0.225342
vn 0.980650 0.184835 0.064518
vn 0.775271 0.629943 -0.046112
vn 0.704574 0.709464 0.015336
vn -0.406910 0.684137 0.605295
vn 0.012031 0.874187 0.485441
vn -0.137803 0.899552 0.414508
vn -0.179766 0.764925 0.618526
vn -0.406910 0.684137 0.605295
vn -0.308913 0.414753 0.855893
vn 0.249275 0.660903 0.707863
vn 0.012031 0.874187 0.485441
vn -0.406910 0.684137 0.605295
vn -0.179766 0.764925 0.618526
vn -0.046676 0.675793 0.735612
vn -0.308913 0.414753 0.855893
vn 0.708321 0.699634 0.093771
vn 0.420247 0.896279 -0.141695
vn 0.441119 0.860523 -0.254785
vn 0.607337 0.792947 0.048749
vn 0.607337 0.792947 0.048749
vn 0.320159 0.940030 -0.117655
vn 0.107653 0.985842 0.128559
vn 0.440470 0.849577 0.290179
vn -0.650449 0.279226 0.706363
vn -0.380698 0.321694 0.866938
vn -0.413508 0.641966 0.645671
vn -0.621284 0.540462 0.567369
vn -0.650449 0.279226 0.706363
vn -0.630968 -0.066696 0.772937
vn -0.294176 -0.158385 0.942536
vn -0.380698 0.321694 0.866938
vn -0.314083 0.778610 0.543248
vn -0.290994 0.685879 0.667002
vn -0.009129 0.747351 0.664367
vn -0.168690 0.779285 0.603538
vn -0.314083 0.778610 0.543248
vn -0.327720 0.816469 0.475371
vn -0.310986 0.651280 0.692187
vn -0.290994 0.685879 0.667002
vn -0.630968 -0.066696 0.772937
vn -0.650449 0.279226 0.706363
vn -0.711913 0.497164 0.495991
vn -0.630968 -0.066696 0.772937
vn -0.654523 -0.050210 0.754373
vn -0.294176 -0.158385 0.942536
vn -0.327720 0.816469 0.475371
vn -0.417757 0.814506 0.402566
vn -0.413508 0.641966 0.645671
vn -0.310986 0.651280 0.692187
vn -0.413508 0.641966 0.645671
vn -0.620833 0.676289 0.396484
vn -0.670617 0.593686 0.444758
vn -0.621284 0.540462 0.567369
vn -0.418777 0.786342 0.454194
vn -0.314083 0.778610 0.543248
vn -0.239490 0.837557 0.491063
vn -0.371096 0.896303 0.242752
vn 0.734956 0.461225 -0.497103
vn 0.775271 0.629943 -0.046112
vn 0.980650 0.184835 0.064518
vn 0.844459 0.157686 -0.511884
vn -0.482572 0.799869 0.356839
vn -0.620833 0.676289 0.396484
vn -0.413508 0.641966 0.645671
vn -0.417757 0.814506 0.402566
vn 0.258822 0.931892 -0.254144
vn -0.009923 0.989678 0.142964
vn 0.081176 0.980685 0.177951
vn 0.169428 0.968964 -0.180007
vn 0.097722 0.913273 -0.395452
vn -0.182910 0.974577 -0.129396
vn -0.009923 0.989678 0.142964
vn 0.258822 0.931892 -0.254144
vn 0.258822 0.931892 -0.254144
vn 0.169428 0.968964 -0.180007
vn 0.214897 0.927318 -0.306431
vn 0.097722 0.913273 -0.395452
vn 0.214897 0.927318 -0.306431
vn 0.169428 0.968964 -0.180007
vn 0.306768 0.888635 -0.340912
vn 0.238654 0.923314 -0.300891
vn 0.214897 0.927318 -0.306431
vn 0.238654 0.923314 -0.300891
vn 0.098182 0.896219 -0.432610
vn 0.097722 0.913273 -0.395452
vn 0.547548 0.613956 -0.568550
vn 0.482275 0.730963 -0.482809
vn 0.506815 0.532582 -0.677861
vn 0.502726 0.466007 -0.728083
vn -0.392481 0.918967 0.038198
vn -0.371096 0.896303 0.242752
vn -0.182910 0.974577 -0.129396
vn -0.184881 0.947020 -0.262624
vn -0.392481 0.918967 0.038198
vn -0.184881 0.947020 -0.262624
vn -0.231359 0.955098 -0.185097
vn -0.404462 0.908789 0.102534
vn -0.111349 0.982722 -0.147845
vn 0.053729 0.911435 -0.407920
vn 0.194689 0.948835 -0.248613
vn 0.218110 0.959262 -0.179567
vn -0.120592 0.992699 -0.002426
vn -0.061709 0.898654 -0.434296
vn 0.053729 0.911435 -0.407920
vn -0.111349 0.982722 -0.147845
vn -0.111349 0.982722 -0.147845
vn 0.218110 0.959262 -0.179567
vn 0.168310 0.970430 -0.173025
vn -0.120592 0.992699 -0.002426
vn 0.502726 0.466007 -0.728083
vn 0.571781 0.685079 -0.451369
vn 0.516267 0.763519 -0.387953
vn 0.547548 0.613956 -0.568550
vn 0.502726 0.466007 -0.728083
vn 0.398362 0.365971 -0.841055
vn 0.286092 0.686292 -0.668696
vn 0.571781 0.685079 -0.451369
vn 0.093192 0.946902 -0.307719
vn 0.286092 0.686292 -0.668696
vn -0.158195 0.625410 -0.764092
vn -0.176038 0.967872 -0.179541
vn -0.523319 0.834384 -0.173033
vn -0.585949 0.563878 -0.581985
vn -0.768950 0.559635 -0.309071
vn -0.634405 0.772968 0.007130
vn -0.087113 0.787192 -0.610524
vn -0.002609 0.822554 -0.568681
vn -0.032395 0.815108 -0.578402
vn -0.274909 0.647672 -0.710595
vn -0.523319 0.834384 -0.173033
vn -0.231359 0.955098 -0.185097
vn -0.002609 0.822554 -0.568681
vn -0.087113 0.787192 -0.610524
vn -0.087113 0.787192 -0.610524
vn -0.274909 0.647672 -0.710595
vn -0.585949 0.563878 -0.581985
vn -0.523319 0.834384 -0.173033
vn -0.340268 0.691347 -0.637383
vn -0.225807 0.532286 -0.815894
vn -0.337906 0.658460 -0.672495
vn -0.234802 0.850190 -0.471216
vn -0.340268 0.691347 -0.637383
vn -0.158195 0.625410 -0.764092
vn -0.022050 0.410543 -0.911575
vn -0.225807 0.532286 -0.815894
vn -0.022050 0.410543 -0.911575
vn 0.398362 0.365971 -0.841055
vn 0.269562 0.193451 -0.943352
vn -0.035465 0.217426 -0.975432
vn -0.225807 0.532286 -0.815894
vn -0.022050 0.410543 -0.911575
vn -0.035465 0.217426 -0.975432
vn -0.325700 0.269728 -0.906182
vn -0.022050 0.410543 -0.911575
vn -0.158195 0.625410 -0.764092
vn 0.286092 0.686292 -0.668696
vn 0.398362 0.365971 -0.841055
vn -0.225807 0.532286 -0.815894
vn -0.325700 0.269728 -0.906182
vn -0.424749 0.334623 -0.841199
vn -0.337906 0.658460 -0.672495
vn -0.337906 0.658460 -0.672495
vn -0.424749 0.334623 -0.841199
vn -0.428438 0.347621 -0.834027
vn -0.274909 0.647672 -0.710595
vn -0.274909 0.647672 -0.710595
vn -0.428438 0.347621 -0.834027
vn -0.620883 0.355884 -0.698463
vn -0.585949 0.563878 -0.581985
vn -0.585949 0.563878 -0.581985
vn -0.620883 0.355884 -0.698463
vn -0.763831 0.430387 -0.480968
vn -0.768950 0.559635 -0.309071
vn -0.768950 0.559635 -0.309071
vn -0.763831 0.430387 -0.480968
vn -0.840247 0.511479 -0.179927
vn -0.773643 0.631040 -0.057148
vn -0.739179 0.620740 0.261335
vn -0.773643 0.631040 -0.057148
vn -0.840247 0.511479 -0.179927
vn -0.825362 0.521117 0.217292
vn -0.773643 0.631040 -0.057148
vn -0.739179 0.620740 0.261335
vn -0.632086 0.652521 0.417951
vn -0.643569 0.751070 0.147353
vn -0.773643 0.631040 -0.057148
vn -0.643569 0.751070 0.147353
vn -0.634405 0.772968 0.007130
vn -0.768950 0.559635 -0.309071
vn -0.643569 0.751070 0.147353
vn -0.632086 0.652521 0.417951
vn -0.489216 0.703833 0.515060
vn -0.478202 0.829044 0.289844
vn -0.643569 0.751070 0.147353
vn -0.478202 0.829044 0.289844
vn -0.404462 0.908789 0.102534
vn -0.634405 0.772968 0.007130
vn -0.478202 0.829044 0.289844
vn -0.489216 0.703833 0.515060
vn -0.454042 0.725209 0.517607
vn -0.445217 0.837501 0.316820
vn -0.478202 0.829044 0.289844
vn -0.445217 0.837501 0.316820
vn -0.392481 0.918967 0.038198
vn -0.404462 0.908789 0.102534
vn -0.489216 0.703833 0.515060
vn -0.632086 0.652521 0.417951
vn -0.620833 0.676289 0.396484
vn -0.482572 0.799869 0.356839
vn -0.489216 0.703833 0.515060
vn -0.482572 0.799869 0.356839
vn -0.417757 0.814506 0.402566
vn -0.454042 0.725209 0.517607
vn -0.632086 0.652521 0.417951
vn -0.739179 0.620740 0.261335
vn -0.670617 0.593686 0.444758
vn -0.620833 0.676289 0.396484
vn -0.711913 0.497164 0.495991
vn -0.670617 0.593686 0.444758
vn -0.739179 0.620740 0.261335
vn -0.825362 0.521117 0.217292
vn -0.825362 0.521117 0.217292
vn -0.840247 0.511479 -0.179927
vn -0.905850 -0.217891 -0.363262
vn -0.969999 -0.195967 0.143873
vn -0.825362 0.521117 0.217292
vn -0.969999 -0.195967 0.143873
vn -0.848164 -0.096975 0.520781
vn -0.711913 0.497164 0.495991
vn -0.848164 -0.096975 0.520781
vn -0.654523 -0.050210 0.754373
vn -0.630968 -0.066696 0.772937
vn -0.711913 0.497164 0.495991
vn -0.654523 -0.050210 0.754373
vn -0.848164 -0.096975 0.520781
vn -0.264025 -0.964351 0.017816
vn -0.210497 -0.972160 0.102941
vn -0.654523 -0.050210 0.754373
vn -0.210497 -0.972160 0.102941
vn -0.242296 -0.367838 0.897768
vn -0.294176 -0.158385 0.942536
vn -0.294176 -0.158385 0.942536
vn -0.242296 -0.367838 0.897768
vn 0.026416 -0.379660 0.924749
vn -0.081997 -0.155289 0.984460
vn 0.026416 -0.379660 0.924749
vn 0.033057 -0.380743 0.924090
vn -0.032388 -0.247704 0.968294
vn -0.081997 -0.155289 0.984460
vn 0.026416 -0.379660 0.924749
vn -0.242296 -0.367838 0.897768
vn 0.024557 -0.999538 -0.017923
vn 0.072699 -0.719886 0.690275
vn 0.026416 -0.379660 0.924749
vn 0.072699 -0.719886 0.690275
vn 0.025551 -0.575339 0.817516
vn 0.033057 -0.380743 0.924090
vn 0.025551 -0.575339 0.817516
vn 0.003598 -0.836397 0.548113
vn 0.063466 -0.416941 0.906715
vn 0.033057 -0.380743 0.924090
vn 0.025551 -0.575339 0.817516
vn 0.072699 -0.719886 0.690275
vn -0.019576 -0.999711 -0.013938
vn 0.025551 -0.575339 0.817516
vn -0.019576 -0.999711 -0.013938
vn 0.003598 -0.836397 0.548113
vn -0.019576 -0.999711 -0.013938
vn -0.074757 -0.997200 0.001765
vn 0.116649 -0.837960 0.533120
vn 0.003598 -0.836397 0.548113
vn -0.091643 -0.990726 -0.100318
vn -0.047211 -0.986739 -0.155296
vn 0.208503 -0.920802 -0.329620
vn 0.386670 -0.916759 -0.100194
vn -0.091643 -0.990726 -0.100318
vn 0.386670 -0.916759 -0.100194
vn 0.166659 -0.984212 0.059591
vn -0.091643 -0.990726 -0.100318
vn 0.166659 -0.984212 0.059591
vn 0.131219 -0.985365 0.108801
vn -0.074757 -0.997200 0.001765
vn 0.131219 -0.985365 0.108801
vn 0.166659 -0.984212 0.059591
vn 0.852152 -0.458720 0.251818
vn 0.718923 -0.422449 0.551984
vn 0.131219 -0.985365 0.108801
vn 0.718923 -0.422449 0.551984
vn 0.317950 -0.449620 0.834715
vn 0.116649 -0.837960 0.533120
vn 0.131219 -0.985365 0.108801
vn 0.116649 -0.837960 0.533120
vn -0.074757 -0.997200 0.001765
vn 0.317950 -0.449620 0.834715
vn 0.718923 -0.422449 0.551984
vn 0.811559 -0.151822 0.564200
vn 0.467443 -0.244526 0.849532
vn 0.317950 -0.449620 0.834715
vn 0.467443 -0.244526 0.849532
vn 0.108133 -0.314741 0.942998
vn 0.063466 -0.416941 0.906715
vn 0.317950 -0.449620 0.834715
vn 0.063466 -0.416941 0.906715
vn 0.003598 -0.836397 0.548113
vn 0.116649 -0.837960 0.533120
vn 0.108133 -0.314741 0.942998
vn -0.032388 -0.247704 0.968294
vn 0.033057 -0.380743 0.924090
vn 0.063466 -0.416941 0.906715
vn -0.081997 -0.155289 0.984460
vn -0.032388 -0.247704 0.968294
vn -0.119045 0.350030 0.929143
vn -0.274353 0.410712 0.869509
vn -0.081997 -0.155289 0.984460
vn -0.274353 0.410712 0.869509
vn -0.380698 0.321694 0.866938
vn -0.294176 -0.158385 0.942536
vn -0.032388 -0.247704 0.968294
vn 0.108133 -0.314741 0.942998
vn 0.205508 0.104233 0.973089
vn -0.119045 0.350030 0.929143
vn 0.108133 -0.314741 0.942998
vn 0.467443 -0.244526 0.849532
vn 0.570849 0.242515 0.784422
vn 0.205508 0.104233 0.973089
vn 0.570849 0.242515 0.784422
vn 0.730932 0.389248 0.560557
vn 0.610159 0.653492 0.447945
vn 0.508004 0.665690 0.546616
vn 0.234255 0.698789 0.675884
vn 0.205508 0.104233 0.973089
vn 0.570849 0.242515 0.784422
vn 0.508004 0.665690 0.546616
vn 0.570849 0.242515 0.784422
vn 0.467443 -0.244526 0.849532
vn 0.811559 -0.151822 0.564200
vn 0.730932 0.389248 0.560557
vn 0.508004 0.665690 0.546616
vn 0.610159 0.653492 0.447945
vn 0.741488 0.561481 0.367335
vn 0.659707 0.462960 0.591991
vn 0.508004 0.665690 0.546616
vn 0.659707 0.462960 0.591991
vn 0.189963 0.546823 0.815413
vn 0.234255 0.698789 0.675884
vn 0.972808 0.053532 0.225342
vn 0.811559 -0.151822 0.564200
vn 0.718923 -0.422449 0.551984
vn 0.852152 -0.458720 0.251818
vn 0.972808 0.053532 0.225342
vn 0.852152 -0.458720 0.251818
vn 0.885322 -0.460582 -0.063790
vn 0.980650 0.184835 0.064518
vn 0.885322 -0.460582 -0.063790
vn 0.852152 -0.458720 0.251818
vn 0.166659 -0.984212 0.059591
vn 0.386670 -0.916759 -0.100194
vn 0.980650 0.184835 0.064518
vn 0.885322 -0.460582 -0.063790
vn 0.767977 -0.403963 -0.497017
vn 0.844459 0.157686 -0.511884
vn 0.767977 -0.403963 -0.497017
vn 0.885322 -0.460582 -0.063790
vn 0.386670 -0.916759 -0.100194
vn 0.208503 -0.920802 -0.329620
vn 0.767977 -0.403963 -0.497017
vn 0.208503 -0.920802 -0.329620
vn -0.047211 -0.986739 -0.155296
vn 0.575915 -0.517590 -0.632789
vn 0.767977 -0.403963 -0.497017
vn 0.575915 -0.517590 -0.632789
vn 0.604875 0.278264 -0.746121
vn 0.844459 0.157686 -0.511884
vn 0.604875 0.278264 -0.746121
vn 0.575915 -0.517590 -0.632789
vn 0.258212 -0.518191 -0.815355
vn 0.604875 0.278264 -0.746121
vn 0.258212 -0.518191 -0.815355
vn 0.445913 0.298634 -0.843789
vn 0.604875 0.278264 -0.746121
vn 0.445913 0.298634 -0.843789
vn 0.502726 0.466007 -0.728083
vn 0.506815 0.532582 -0.677861
vn 0.734956 0.461225 -0.497103
vn 0.844459 0.157686 -0.511884
vn 0.604875 0.278264 -0.746121
vn 0.506815 0.532582 -0.677861
vn 0.502726 0.466007 -0.728083
vn 0.445913 0.298634 -0.843789
vn 0.269562 0.193451 -0.943352
vn 0.398362 0.365971 -0.841055
vn -0.035465 0.217426 -0.975432
vn 0.269562 0.193451 -0.943352
vn 0.133524 -0.270524 -0.953409
vn -0.153404 -0.275858 -0.948878
vn -0.035465 0.217426 -0.975432
vn -0.153404 -0.275858 -0.948878
vn -0.438308 -0.252780 -0.862548
vn -0.325700 0.269728 -0.906182
vn -0.325700 0.269728 -0.906182
vn -0.438308 -0.252780 -0.862548
vn -0.482232 -0.272036 -0.832736
vn -0.424749 0.334623 -0.841199
vn -0.424749 0.334623 -0.841199
vn -0.482232 -0.272036 -0.832736
vn -0.450848 -0.226350 -0.863425
vn -0.428438 0.347621 -0.834027
vn -0.428438 0.347621 -0.834027
vn -0.450848 -0.226350 -0.863425
vn -0.557597 -0.257505 -0.789162
vn -0.620883 0.355884 -0.698463
vn -0.620883 0.355884 -0.698463
vn -0.557597 -0.257505 -0.789162
vn -0.679029 -0.228735 -0.697568
vn -0.763831 0.430387 -0.480968
vn -0.763831 0.430387 -0.480968
vn -0.679029 -0.228735 -0.697568
vn -0.905850 -0.217891 -0.363262
vn -0.840247 0.511479 -0.179927
vn -0.905850 -0.217891 -0.363262
vn -0.679029 -0.228735 -0.697568
vn -0.105327 -0.986113 -0.128403
vn -0.581413 -0.754781 -0.303753
vn -0.905850 -0.217891 -0.363262
vn -0.581413 -0.754781 -0.303753
vn -0.254414 -0.965122 -0.061743
vn -0.969999 -0.195967 0.143873
vn -0.254414 -0.965122 -0.061743
vn -0.581413 -0.754781 -0.303753
vn -0.105327 -0.986113 -0.128403
vn -0.254414 -0.965122 -0.061743
vn -0.264025 -0.964351 0.017816
vn -0.848164 -0.096975 0.520781
vn -0.969999 -0.195967 0.143873
vn -0.210497 -0.972160 0.102941
vn 0.024557 -0.999538 -0.017923
vn -0.242296 -0.367838 0.897768
vn 0.024557 -0.999538 -0.017923
vn -0.019576 -0.999711 -0.013938
vn 0.072699 -0.719886 0.690275
vn -0.015101 -0.996106 -0.086857
vn -0.041441 -0.997253 -0.061399
vn -0.171232 -0.898700 -0.403756
vn -0.015101 -0.996106 -0.086857
vn 0.133524 -0.270524 -0.953409
vn 0.258212 -0.518191 -0.815355
vn -0.015101 -0.996106 -0.086857
vn 0.258212 -0.518191 -0.815355
vn 0.575915 -0.517590 -0.632789
vn -0.047211 -0.986739 -0.155296
vn 0.133524 -0.270524 -0.953409
vn -0.015101 -0.996106 -0.086857
vn -0.171232 -0.898700 -0.403756
vn -0.153404 -0.275858 -0.948878
vn -0.153404 -0.275858 -0.948878
vn -0.171232 -0.898700 -0.403756
vn -0.416058 -0.741010 -0.527067
vn -0.438308 -0.252780 -0.862548
vn -0.438308 -0.252780 -0.862548
vn -0.416058 -0.741010 -0.527067
vn -0.381888 -0.608986 -0.695196
vn -0.482232 -0.272036 -0.832736
vn -0.482232 -0.272036 -0.832736
vn -0.381888 -0.608986 -0.695196
vn -0.314993 -0.741548 -0.592356
vn -0.450848 -0.226350 -0.863425
vn -0.450848 -0.226350 -0.863425
vn -0.314993 -0.741548 -0.592356
vn -0.346046 -0.732287 -0.586522
vn -0.557597 -0.257505 -0.789162
vn -0.346046 -0.732287 -0.586522
vn -0.314993 -0.741548 -0.592356
vn -0.041441 -0.997253 -0.061399
vn -0.105327 -0.986113 -0.128403
vn -0.346046 -0.732287 -0.586522
vn -0.105327 -0.986113 -0.128403
vn -0.679029 -0.228735 -0.697568
vn -0.557597 -0.257505 -0.789162
vn -0.041441 -0.997253 -0.061399
vn -0.314993 -0.741548 -0.592356
vn -0.381888 -0.608986 -0.695196
vn -0.041441 -0.997253 -0.061399
vn -0.381888 -0.608986 -0.695196
vn -0.416058 -0.741010 -0.527067
vn -0.416058 -0.741010 -0.527067
vn -0.171232 -0.898700 -0.403756
vn -0.041441 -0.997253 -0.061399
vn 0.133524 -0.270524 -0.953409
vn 0.269562 0.193451 -0.943352
vn 0.445913 0.298634 -0.843789
vn 0.258212 -0.518191 -0.815355
vn -0.337906 0.658460 -0.672495
vn -0.274909 0.647672 -0.710595
vn -0.032395 0.815108 -0.578402
vn -0.234802 0.850190 -0.471216
vn -0.032395 0.815108 -0.578402
vn -0.002609 0.822554 -0.568681
vn 0.004479 0.867337 -0.497701
vn 0.012895 0.827237 -0.561706
vn -0.032395 0.815108 -0.578402
vn 0.012895 0.827237 -0.561706
vn -0.061709 0.898654 -0.434296
vn -0.234802 0.850190 -0.471216
vn 0.012895 0.827237 -0.561706
vn 0.004479 0.867337 -0.497701
vn 0.097722 0.913273 -0.395452
vn 0.098182 0.896219 -0.432610
vn 0.012895 0.827237 -0.561706
vn 0.098182 0.896219 -0.432610
vn 0.053729 0.911435 -0.407920
vn -0.061709 0.898654 -0.434296
vn 0.004479 0.867337 -0.497701
vn -0.002609 0.822554 -0.568681
vn -0.231359 0.955098 -0.185097
vn -0.184881 0.947020 -0.262624
vn 0.004479 0.867337 -0.497701
vn -0.184881 0.947020 -0.262624
vn -0.182910 0.974577 -0.129396
vn 0.097722 0.913273 -0.395452
vn -0.634405 0.772968 0.007130
vn -0.404462 0.908789 0.102534
vn -0.231359 0.955098 -0.185097
vn -0.523319 0.834384 -0.173033
vn 0.093192 0.946902 -0.307719
vn 0.168310 0.970430 -0.173025
vn 0.571781 0.685079 -0.451369
vn 0.286092 0.686292 -0.668696
vn 0.093192 0.946902 -0.307719
vn -0.176038 0.967872 -0.179541
vn -0.120592 0.992699 -0.002426
vn 0.168310 0.970430 -0.173025
vn 0.516267 0.763519 -0.387953
vn 0.464812 0.853643 -0.235039
vn 0.482275 0.730963 -0.482809
vn 0.547548 0.613956 -0.568550
vn 0.516267 0.763519 -0.387953
vn 0.571781 0.685079 -0.451369
vn 0.168310 0.970430 -0.173025
vn 0.218110 0.959262 -0.179567
vn 0.516267 0.763519 -0.387953
vn 0.218110 0.959262 -0.179567
vn 0.360795 0.927679 -0.096123
vn 0.464812 0.853643 -0.235039
vn 0.360795 0.927679 -0.096123
vn 0.420247 0.896279 -0.141695
vn 0.704574 0.709464 0.015336
vn 0.464812 0.853643 -0.235039
vn 0.360795 0.927679 -0.096123
vn 0.218110 0.959262 -0.179567
vn 0.194689 0.948835 -0.248613
vn 0.328059 0.931970 -0.154304
vn 0.360795 0.927679 -0.096123
vn 0.328059 0.931970 -0.154304
vn 0.441119 0.860523 -0.254785
vn 0.420247 0.896279 -0.141695
vn 0.328059 0.931970 -0.154304
vn 0.194689 0.948835 -0.248613
vn 0.238654 0.923314 -0.300891
vn 0.306768 0.888635 -0.340912
vn 0.328059 0.931970 -0.154304
vn 0.306768 0.888635 -0.340912
vn 0.428749 0.798605 -0.422379
vn 0.441119 0.860523 -0.254785
vn 0.464812 0.853643 -0.235039
vn 0.704574 0.709464 0.015336
vn 0.775271 0.629943 -0.046112
vn 0.482275 0.730963 -0.482809
vn 0.194689 0.948835 -0.248613
vn 0.053729 0.911435 -0.407920
vn 0.098182 0.896219 -0.432610
vn 0.238654 0.923314 -0.300891
vn -0.392481 0.918967 0.038198
vn -0.445217 0.837501 0.316820
vn -0.418777 0.786342 0.454194
vn -0.371096 0.896303 0.242752
vn 0.506815 0.532582 -0.677861
vn 0.482275 0.730963 -0.482809
vn 0.775271 0.629943 -0.046112
vn 0.734956 0.461225 -0.497103
vn 0.306768 0.888635 -0.340912
vn 0.169428 0.968964 -0.180007
vn 0.320159 0.940030 -0.117655
vn 0.428749 0.798605 -0.422379
vn -0.182910 0.974577 -0.129396
vn -0.371096 0.896303 0.242752
vn -0.239490 0.837557 0.491063
vn -0.009923 0.989678 0.142964
vn 0.169428 0.968964 -0.180007
vn 0.081176 0.980685 0.177951
vn 0.107653 0.985842 0.128559
vn 0.320159 0.940030 -0.117655
vn 0.081176 0.980685 0.177951
vn -0.009923 0.989678 0.142964
vn -0.239490 0.837557 0.491063
vn -0.106695 0.838852 0.533802
vn 0.081176 0.980685 0.177951
vn -0.106695 0.838852 0.533802
vn -0.137803 0.899552 0.414508
vn 0.107653 0.985842 0.128559
vn -0.106695 0.838852 0.533802
vn -0.239490 0.837557 0.491063
vn -0.314083 0.778610 0.543248
vn -0.168690 0.779285 0.603538
vn -0.106695 0.838852 0.533802
vn -0.168690 0.779285 0.603538
vn -0.179766 0.764925 0.618526
vn -0.137803 0.899552 0.414508
vn -0.274353 0.410712 0.869509
vn -0.310986 0.651280 0.692187
vn -0.413508 0.641966 0.645671
vn -0.380698 0.321694 0.866938
vn -0.168690 0.779285 0.603538
vn -0.009129 0.747351 0.664367
vn -0.046676 0.675793 0.735612
vn -0.179766 0.764925 0.618526
vn 0.440470 0.849577 0.290179
vn 0.640083 0.620404 0.453202
vn 0.741488 0.561481 0.367335
vn 0.607337 0.792947 0.048749
vn 0.440470 0.849577 0.290179
vn 0.107653 0.985842 0.128559
vn -0.137803 0.899552 0.414508
vn 0.012031 0.874187 0.485441
vn 0.440470 0.849577 0.290179
vn 0.012031 0.874187 0.485441
vn 0.249275 0.660903 0.707863
vn 0.640083 0.620404 0.453202
vn -0.454042 0.725209 0.517607
vn -0.417757 0.814506 0.402566
vn -0.327720 0.816469 0.475371
vn -0.314083 0.778610 0.543248
vn -0.454042 0.725209 0.517607
vn -0.314083 0.778610 0.543248
vn -0.418777 0.786342 0.454194
vn -0.445217 0.837501 0.316820
vn 0.428749 0.798605 -0.422379
vn 0.320159 0.940030 -0.117655
vn 0.607337 0.792947 0.048749
vn 0.441119 0.860523 -0.254785
vn -0.120592 0.992699 -0.002426
vn -0.176038 0.967872 -0.179541
vn -0.337269 0.914005 -0.225486
vn -0.363169 0.931722 -0.001516
vn -0.158195 0.625410 -0.764092
vn -0.340268 0.691347 -0.637383
vn -0.337269 0.914005 -0.225486
vn -0.176038 0.967872 -0.179541
vn -0.363169 0.931722 -0.001516
vn -0.337269 0.914005 -0.225486
vn -0.340268 0.691347 -0.637383
vn -0.234802 0.850190 -0.471216
vn -0.061709 0.898654 -0.434296
vn -0.120592 0.992699 -0.002426
vn -0.363169 0.931722 -0.001516
vn -0.234802 0.850190 -0.471216
vn 0.708321 0.699634 0.093771
vn 0.607337 0.792947 0.048749
vn 0.741488 0.561481 0.367335
vn 0.610159 0.653492 0.447945
vn -0.056021 -0.996746 -0.057953
vn -0.264025 -0.964351 0.017816
vn -0.254414 -0.965122 -0.061743
vn -0.015101 -0.996106 -0.086857
vn -0.056021 -0.996746 -0.057953
vn -0.041441 -0.997253 -0.061399
vn -0.056021 -0.996746 -0.057953
vn -0.105327 -0.986113 -0.128403
vn -0.041441 -0.997253 -0.061399
vn -0.056021 -0.996746 -0.057953
vn -0.254414 -0.965122 -0.061743
vn -0.105327 -0.986113 -0.128403
vn -0.056021 -0.996746 -0.057953
vn -0.210497 -0.972160 0.102941
vn -0.264025 -0.964351 0.017816
vn -0.019576 -0.999711 -0.013938
vn 0.024557 -0.999538 -0.017923
vn -0.056021 -0.996746 -0.057953
vn -0.056021 -0.996746 -0.057953
vn 0.024557 -0.999538 -0.017923
vn -0.210497 -0.972160 0.102941
vn -0.074757 -0.997200 0.001765
vn -0.056021 -0.996746 -0.057953
vn -0.091643 -0.990726 -0.100318
vn -0.019576 -0.999711 -0.013938
vn -0.056021 -0.996746 -0.057953
vn -0.074757 -0.997200 0.001765
vn -0.047211 -0.986739 -0.155296
vn -0.056021 -0.996746 -0.057953
vn -0.015101 -0.996106 -0.086857
vn -0.091643 -0.990726 -0.100318
vn -0.056021 -0.996746 -0.057953
vn -0.047211 -0.986739 -0.155296
vn -0.711913 0.497164 0.495991
vn -0.650449 0.279226 0.706363
vn -0.621284 0.540462 0.567369
vn -0.670617 0.593686 0.444758
s off
g Ore_iron_low:Group42733
usemtl initialShadingGroup
f 1/1/1 18/2/2 19/3/3 20/4/4
f 1/1/5 21/5/6 22/6/7 18/2/8
f 1/1/9 20/4/10 23/7/11 21/5/12
f 18/2/13 22/6/14 24/8/15
f 18/2/16 24/8/17 25/9/18 19/3/19
f 33/10/20 31/11/21 30/12/22
f 30/12/23 31/11/24 26/13/25
f 31/11/26 32/14/27 26/13/28
f 2/15/29 27/16/30 28/17/31 29/18/32
f 27/16/33 2/15/34 4/19/35 39/20/36
f 41/21/37 4/19/38 40/22/39
f 29/18/40 40/22/41 2/15/42
f 4/19/43 2/15/44 40/22/45
f 26/13/46 19/3/47 25/9/48 30/12/49
f 34/23/50 31/11/51 33/10/52 49/24/53
f 29/18/54 35/25/55 59/26/56 40/22/57
f 3/27/58 36/28/59 37/29/60 38/30/61
f 3/27/62 24/8/63 22/6/64 36/28/65
f 3/27/66 38/30/67 25/9/68 24/8/69
f 4/19/70 41/21/71 42/31/72 5/32/73
f 5/32/74 43/33/75 44/34/76 45/35/77
f 6/36/78 46/37/79 52/38/80 10/39/81
f 6/36/82 8/40/83 47/41/84 46/37/85
f 7/42/86 33/10/87 30/12/88 48/43/89
f 7/42/90 9/44/91 49/24/92 33/10/93
f 8/40/94 6/36/95 61/45/96
f 8/46/97 50/47/98 47/48/99
f 9/44/100 51/49/101 52/38/102 49/24/103
f 52/38/104 54/50/105 53/51/106 10/39/107
f 55/52/108 7/42/109 56/53/110 57/54/111
f 58/55/112 59/26/113 35/25/114 142/56/115
f 60/57/116 54/50/117 52/38/118 51/49/119
f 11/58/120 62/59/121 63/60/122 64/61/123
f 65/62/124 66/63/125 62/59/126 11/58/127
f 11/58/128 64/61/129 12/64/130 65/62/131
f 12/64/132 64/61/133 67/65/134 68/66/135
f 12/64/136 68/66/137 69/67/138 65/62/139
f 70/68/140 71/69/141 72/70/142 15/71/143
f 13/72/144 57/54/145 66/63/146 73/73/147
f 13/72/148 73/73/149 74/74/150 75/75/151
f 14/76/152 76/77/153 77/78/154 78/79/155
f 80/80/156 81/81/157 76/77/158 14/76/159
f 14/76/160 78/79/161 79/82/162 80/80/163
f 15/71/164 82/83/165 83/84/166 70/68/167
f 15/71/168 84/85/169 85/86/170 82/83/171
f 86/87/172 85/86/173 87/88/174 88/89/175
f 89/90/176 90/91/177 91/92/178 92/93/179
f 16/94/180 93/95/181 94/96/182 95/97/183
f 89/90/184 74/74/185 93/95/186 16/94/187
f 16/94/188 95/97/189 90/91/190 89/90/191
f 17/98/192 96/99/193 97/100/194 98/101/195
f 17/98/196 87/88/197 99/102/198 96/99/199
f 99/102/200 84/85/201 148/103/202 149/104/203
f 96/99/204 99/102/205 149/104/206 153/105/207
f 99/102/208 87/88/209 85/86/210 84/85/211
f 96/99/212 153/105/213 155/106/214 97/100/215
f 97/100/216 155/106/217 157/107/218 95/97/219
f 95/97/220 157/107/221 159/108/222 90/91/223
f 90/91/224 159/108/225 161/109/226 91/92/227
f 91/92/228 161/109/229 108/110/230 100/111/231
f 101/112/232 100/111/233 108/110/234 109/113/235
f 100/111/236 101/112/237 102/114/238 103/115/239
f 100/111/240 103/115/241 92/93/242 91/92/243
f 103/115/244 102/114/245 104/116/246 105/117/247
f 103/115/248 105/117/249 75/75/250 92/93/251
f 105/117/252 104/116/253 106/118/254 107/119/255
f 105/117/256 107/119/257 13/72/258 75/75/259
f 104/116/260 102/114/261 54/50/262 60/57/263
f 104/116/264 60/57/265 51/49/266 106/118/267
f 102/114/268 101/112/269 53/51/270 54/50/271
f 61/45/272 53/51/273 101/112/274 109/113/275
f 109/120/276 108/121/277 110/122/278 111/123/279
f 109/120/280 111/123/281 112/124/282 61/125/283
f 112/124/284 50/47/285 8/46/286 61/125/287
f 50/47/288 112/124/289 113/126/290 114/127/291
f 50/47/292 114/127/293 115/128/294 47/48/295
f 47/48/296 115/128/297 117/129/298 116/130/299
f 117/129/300 118/131/301 119/132/302 116/130/303
f 117/129/304 115/128/305 120/133/306 121/134/307
f 117/129/308 121/134/309 122/135/310 118/131/311
f 122/135/312 123/136/313 124/137/314 118/131/315
f 122/135/316 121/134/317 125/138/318
f 122/135/319 125/138/320 123/136/321
f 125/138/322 126/139/323 127/140/324 123/136/325
f 129/141/326 128/142/327 130/143/328 131/144/329
f 129/141/330 131/144/331 132/145/332
f 129/141/333 132/145/334 133/146/335 126/139/336
f 133/146/337 132/145/338 134/147/339 135/148/340
f 133/146/341 135/148/342 136/149/343 127/140/344
f 133/146/345 127/140/346 126/139/347
f 136/149/348 135/148/349 28/150/350 137/151/351
f 136/149/352 137/151/353 138/152/354 124/137/355
f 136/149/356 124/137/357 123/136/358 127/140/359
f 138/152/360 119/132/361 118/131/362 124/137/363
f 116/153/364 119/154/365 31/11/366 34/23/367
f 116/153/368 34/23/369 46/37/370 47/41/371
f 119/154/372 138/155/373 32/14/374 31/11/375
f 138/155/376 137/156/377 139/157/378 32/14/379
f 139/157/380 27/16/381 39/20/382 140/158/383
f 26/13/384 32/14/385 139/157/386 140/158/387
f 139/157/388 137/156/389 28/17/390 27/16/391
f 140/158/392 39/20/393 23/7/394 20/4/395
f 140/158/396 20/4/397 19/3/398 26/13/399
f 29/159/400 28/150/401 135/148/402 134/147/403
f 29/159/404 134/147/405 141/160/406 35/161/407
f 141/160/408 134/147/409 132/145/410 131/144/411
f 35/161/412 141/160/413 143/162/414 142/163/415
f 143/162/416 141/160/417 131/144/418 130/143/419
f 143/162/420 130/143/421 128/142/422 144/164/423
f 143/162/424 144/164/425 145/165/426 142/163/427
f 145/165/428 144/164/429 146/166/430
f 145/165/431 146/166/432 147/167/433
f 145/168/434 147/169/435 15/71/436 72/70/437
f 58/55/438 142/56/439 145/168/440 72/70/441
f 15/71/442 147/169/443 148/103/444 84/85/445
f 149/170/446 148/171/447 150/172/448 151/173/449
f 149/170/450 151/173/451 152/174/452 153/175/453
f 153/175/454 152/174/455 154/176/456 155/177/457
f 155/177/458 154/176/459 156/178/460 157/179/461
f 157/179/462 156/178/463 158/180/464 159/181/465
f 159/181/466 158/180/467 160/182/468 161/183/469
f 161/183/470 160/182/471 110/122/472 108/121/473
f 110/122/474 160/182/475 162/184/476 163/185/477
f 110/122/478 163/185/479 164/186/480 111/123/481
f 164/186/482 163/185/483 162/184/484
f 164/186/485 113/126/486 112/124/487 111/123/488
f 114/127/489 120/133/490 115/128/491
f 120/133/492 125/138/493 121/134/494
f 166/187/495 165/188/496 167/189/497
f 166/187/498 150/172/499 146/166/500
f 166/187/501 146/166/502 144/164/503 128/142/504
f 150/172/505 166/187/506 167/189/507 151/173/508
f 151/173/509 167/189/510 168/190/511 152/174/512
f 152/174/513 168/190/514 169/191/515 154/176/516
f 154/176/517 169/191/518 170/192/519 156/178/520
f 156/178/521 170/192/522 171/193/523 158/180/524
f 171/193/525 170/192/526 165/188/527 162/184/528
f 171/193/529 162/184/530 160/182/531 158/180/532
f 165/188/533 170/192/534 169/191/535
f 165/188/536 169/191/537 168/190/538
f 168/190/539 167/189/540 165/188/541
f 150/172/542 148/171/543 147/167/544 146/166/545
f 97/100/546 95/97/547 94/96/548 98/101/549
f 94/96/550 93/95/551 172/194/552 173/195/553
f 94/96/554 173/195/555 81/81/556 98/101/557
f 173/195/558 172/194/559 65/62/560 69/67/561
f 173/195/562 69/67/563 76/77/564 81/81/565
f 172/194/566 93/95/567 74/74/568 73/73/569
f 172/194/570 73/73/571 66/63/572 65/62/573
f 92/93/574 75/75/575 74/74/576 89/90/577
f 86/87/578 79/82/579 82/83/580 85/86/581
f 86/87/582 88/89/583 80/80/584 79/82/585
f 83/84/586 174/196/587 71/69/588 70/68/589
f 83/84/590 82/83/591 79/82/592 78/79/593
f 83/84/594 78/79/595 175/197/596 174/196/597
f 175/197/598 41/21/599 40/22/600 174/196/601
f 175/197/602 78/79/603 77/78/604 176/198/605
f 175/197/606 176/198/607 42/31/608 41/21/609
f 176/198/610 77/78/611 68/66/612 67/65/613
f 176/198/614 67/65/615 177/199/616 42/31/617
f 174/196/618 40/22/619 59/26/620 71/69/621
f 77/78/622 76/77/623 69/67/624 68/66/625
f 13/72/626 107/119/627 55/52/628 57/54/629
f 72/70/630 71/69/631 59/26/632 58/55/633
f 67/65/634 64/61/635 43/33/636 177/199/637
f 66/63/638 57/54/639 56/53/640 62/59/641
f 64/61/642 63/60/643 44/34/644 43/33/645
f 63/60/646 62/59/647 56/53/648 178/200/649
f 63/60/650 178/200/651 37/29/652 44/34/653
f 178/200/654 56/53/655 7/42/656 48/43/657
f 178/200/658 48/43/659 38/30/660 37/29/661
f 34/23/662 49/24/663 52/38/664 46/37/665
f 48/43/666 30/12/667 25/9/668 38/30/669
f 45/35/670 21/5/671 23/7/672 5/32/673
f 45/35/674 44/34/675 37/29/676 36/28/677
f 45/35/678 36/28/679 22/6/680 21/5/681
f 106/118/682 51/49/683 9/44/684 7/42/685
f 106/118/686 7/42/687 55/52/688 107/119/689
f 177/199/690 43/33/691 5/32/692 42/31/693
f 80/80/694 88/89/695 180/201/696 179/202/697
f 87/88/698 17/98/699 180/201/700 88/89/701
f 179/202/702 180/201/703 17/98/704 98/101/705
f 81/81/706 80/80/707 179/202/708 98/101/709
f 4/19/710 5/32/711 23/7/712 39/20/713
f 181/203/714 113/126/715 164/186/716
f 166/187/717 181/203/718 165/188/719
f 181/203/720 162/184/721 165/188/722
f 181/203/723 164/186/724 162/184/725
f 181/203/726 114/127/727 113/126/728
f 125/138/729 120/133/730 181/203/731
f 181/203/732 120/133/733 114/127/734
f 126/139/735 181/203/736 129/141/737
f 125/138/738 181/203/739 126/139/740
f 128/142/741 181/203/742 166/187/743
f 129/141/744 181/203/745 128/142/746
f 61/45/747 6/36/748 10/39/749 53/51/750
