# This file uses centimeters as units for non-parametric coordinates.

mtllib Ore_copper_low.mtl
g default
v -1.721317 0.394992 0.342639
v -1.498541 0.269451 0.143498
v -1.931427 0.501074 0.324389
v -1.624547 0.416483 0.064938
v -1.721462 0.513522 0.115513
v -2.431586 0.160926 0.481055
v -2.199482 0.466932 0.279928
v -2.465157 0.125007 0.428225
v -2.269596 0.419034 0.323102
v -2.444042 0.271116 0.383273
v -2.061870 0.600865 0.049214
v -2.026399 0.564043 -0.005183
v -2.284816 0.558560 0.040160
v -1.987357 0.477968 -0.195010
v -1.826853 0.347420 -0.346976
v -2.375130 0.484682 -0.153868
v -2.176712 0.436212 -0.341588
v -1.791707 0.386977 0.404169
v -1.803638 0.314536 0.422142
v -1.697963 0.343450 0.326952
v -1.731940 0.480585 0.279623
v -1.815713 0.489622 0.366633
v -1.666721 0.416892 0.201293
v -1.910704 0.448207 0.382858
v -1.971896 0.414815 0.374062
v -1.802890 0.302056 0.438914
v -1.550097 0.252942 0.245749
v -1.525290 0.139730 0.251200
v -1.481387 0.155600 0.100230
v -2.020796 0.419261 0.399718
v -2.032289 0.286202 0.526267
v -1.804495 0.249652 0.500529
v -2.124878 0.407013 0.399772
v -2.214418 0.235209 0.501616
v -1.448743 0.143041 -0.126564
v -1.871051 0.543871 0.300431
v -1.961531 0.558557 0.231083
v -1.995180 0.485952 0.294181
v -1.624728 0.340699 0.198722
v -1.658895 0.410686 -0.124226
v -1.726387 0.464362 -0.038384
v -1.788370 0.487822 0.036309
v -1.825549 0.572482 0.103676
v -1.890722 0.580599 0.183877
v -1.790609 0.541641 0.228063
v -2.359244 0.177146 0.508979
v -2.347291 0.073752 0.497990
v -2.067172 0.493689 0.301697
v -2.255648 0.372623 0.393062
v -2.496323 0.072627 0.432730
v -2.343680 0.403299 0.295577
v -2.381533 0.343813 0.384164
v -2.507464 0.275285 0.310271
v -2.459297 0.336972 0.301858
v -2.251135 0.520221 0.207652
v -2.128355 0.574921 0.194340
v -2.195824 0.569025 0.127524
v -1.615749 0.310079 -0.259469
v -1.610038 0.365483 -0.198828
v -2.410061 0.372492 0.271206
v -2.611046 0.158926 0.333739
v -2.085819 0.616332 0.101827
v -2.026624 0.579180 0.137682
v -1.973224 0.572951 0.061891
v -2.112985 0.566726 -0.010533
v -2.159315 0.605161 0.039957
v -1.917780 0.542636 0.004372
v -1.987932 0.542090 -0.045317
v -2.072047 0.549880 -0.090338
v -1.779082 0.378384 -0.274814
v -1.722772 0.380366 -0.247381
v -1.721093 0.315710 -0.332798
v -2.238026 0.559604 -0.035172
v -2.333617 0.530828 -0.062182
v -2.378874 0.502953 0.032348
v -2.013081 0.495430 -0.157602
v -1.942985 0.511309 -0.107586
v -1.884789 0.501537 -0.194200
v -1.934851 0.483598 -0.268678
v -2.067920 0.476316 -0.240818
v -2.110840 0.463992 -0.194016
v -1.859726 0.433200 -0.316352
v -1.798591 0.448429 -0.265169
v -1.918476 0.366021 -0.446164
v -1.955249 0.447095 -0.408923
v -1.992052 0.484696 -0.353292
v -2.088267 0.439967 -0.363763
v -2.095794 0.484861 -0.304128
v -2.468790 0.508733 -0.077791
v -2.486401 0.445421 -0.146879
v -2.538449 0.382932 -0.031710
v -2.479321 0.460341 0.009168
v -2.291155 0.505819 -0.133354
v -2.247334 0.448140 -0.192342
v -2.352572 0.419525 -0.221392
v -2.186552 0.340464 -0.403990
v -2.279136 0.370678 -0.319846
v -2.201449 0.432981 -0.259884
v -2.066091 0.366371 -0.431562
v -2.569176 0.360594 0.093797
v -2.554164 0.322495 0.188674
v -2.489253 0.378901 0.193485
v -2.499650 0.435245 0.121064
v -2.414715 0.419794 0.199784
v -2.413653 0.477527 0.152298
v -2.324149 0.448000 0.231400
v -2.316695 0.510495 0.161751
v -2.716229 0.175170 0.019108
v -2.701020 0.167431 0.182838
v -2.721921 0.127267 0.005760
v -2.711724 0.114562 0.176570
v -2.630697 0.110307 0.324420
v -2.616716 0.030931 0.294901
v -2.498612 0.012761 0.416140
v -2.344850 0.012675 0.494758
v -2.200060 0.140147 0.522035
v -2.190280 0.055618 0.481226
v -2.039016 0.068272 0.462460
v -2.031657 0.196499 0.509336
v -2.342704 0.004415 0.468507
v -2.190367 0.027857 0.469195
v -2.045649 0.034955 0.450246
v -1.896484 0.017907 0.415224
v -1.882128 0.049742 0.428043
v -2.055892 0.025912 0.424819
v -1.756503 -0.007180 0.329544
v -1.727626 0.005880 0.358531
v -1.731984 0.047976 -0.410498
v -1.582760 -0.011960 -0.160183
v -1.619232 0.023177 -0.297427
v -1.548872 -0.014983 -0.166430
v -1.552893 -0.000935 0.103214
v -1.591649 -0.002706 0.248762
v -1.535377 0.023634 0.104952
v -1.565893 0.019223 0.255471
v -1.703668 0.028309 0.379663
v -1.655063 0.124779 0.399967
v -1.831570 0.165200 0.475105
v -1.637112 0.240065 0.399151
v -1.669205 0.312050 0.351285
v -1.511019 0.008028 -0.171037
v -1.545031 0.135102 -0.282300
v -1.593491 0.042148 -0.299569
v -1.717618 0.057080 -0.427047
v -1.691300 0.126754 -0.449689
v -1.866975 0.074881 -0.474923
v -1.859004 0.135439 -0.485646
v -1.991064 0.142182 -0.505685
v -2.118962 0.175434 -0.500401
v -2.002480 0.071695 -0.503145
v -2.139930 0.085523 -0.491090
v -2.253172 0.105017 -0.440867
v -2.249982 0.225769 -0.458685
v -2.340056 0.118788 -0.362098
v -2.344983 0.251451 -0.376982
v -2.443085 0.127283 -0.305544
v -2.454573 0.252961 -0.315238
v -2.529388 0.111611 -0.234062
v -2.537904 0.235479 -0.234002
v -2.639242 0.123629 -0.141324
v -2.638911 0.204538 -0.125088
v -2.579816 0.066053 -0.122299
v -2.685969 0.072689 -0.002539
v -2.681649 0.052024 0.154645
v -2.241805 0.056637 -0.374412
v -2.015901 0.058826 -0.480983
v -2.156195 0.060905 -0.455706
v -2.251628 0.078902 -0.396296
v -2.328579 0.096401 -0.332544
v -2.419377 0.097277 -0.285426
v -2.506654 0.090069 -0.225300
v -2.197352 0.542106 -0.085452
v -2.148648 0.503557 -0.145736
v -1.749416 0.438263 -0.196257
v -1.816134 0.475048 -0.132195
v -1.876158 0.511122 -0.053441
v -1.828188 0.529215 0.046384
v -2.059132 0.558418 0.206699
v -2.156618 0.448845 -0.266327
v -2.147008 0.456534 -0.308581
v -2.129102 0.038901 0.035046
vt 0.172391 0.898594
vt 0.196556 0.911897
vt 0.198150 0.933231
vt 0.157535 0.906624
vt 0.176335 0.870378
vt 0.204817 0.884785
vt 0.145195 0.862683
vt 0.230817 0.894149
vt 0.250422 0.898823
vt 0.297583 0.896176
vt 0.277790 0.952117
vt 0.266790 0.901151
vt 0.198670 0.939210
vt 0.201528 0.962157
vt 0.079538 0.867767
vt 0.098840 0.900173
vt 0.071059 0.922952
vt 0.042282 0.864884
vt 0.123946 0.826555
vt 0.124030 0.874064
vt 0.144737 0.785702
vt 0.114185 0.768543
vt 0.340431 0.944160
vt 0.336842 0.888314
vt 0.017105 0.787411
vt 0.092937 0.750281
vt 0.235306 0.873008
vt 0.217017 0.862779
vt 0.238119 0.842426
vt 0.253592 0.867166
vt 0.169498 0.798394
vt 0.162958 0.827124
vt 0.193661 0.815633
vt 0.216382 0.831587
vt 0.191574 0.849344
vt 0.412430 0.922465
vt 0.390142 0.935340
vt 0.373816 0.876418
vt 0.401074 0.878949
vt 0.434200 0.916494
vt 0.406618 0.962098
vt 0.310547 0.852513
vt 0.273243 0.863417
vt 0.334641 0.862932
vt 0.464266 0.859753
vt 0.492668 0.567496
vt 0.355552 0.850425
vt 0.394493 0.847209
vt 0.416813 0.850955
vt 0.315604 0.822745
vt 0.279305 0.823071
vt 0.293955 0.801878
vt 0.082146 0.729966
vt 0.027135 0.720324
vt 0.376399 0.840217
vt 0.251645 0.786955
vt 0.262139 0.799199
vt 0.248192 0.813438
vt 0.228230 0.794667
vt 0.260095 0.765730
vt 0.276437 0.779733
vt 0.236811 0.772747
vt 0.207045 0.781919
vt 0.222488 0.763692
vt 0.243878 0.747053
vt 0.130636 0.709313
vt 0.119062 0.724316
vt 0.104149 0.695462
vt 0.136021 0.681904
vt 0.310765 0.772531
vt 0.292970 0.753572
vt 0.317458 0.740827
vt 0.339329 0.765584
vt 0.210530 0.720931
vt 0.221049 0.729244
vt 0.204314 0.749201
vt 0.181364 0.731057
vt 0.230145 0.701976
vt 0.246983 0.708899
vt 0.188978 0.706934
vt 0.159939 0.697322
vt 0.149296 0.717738
vt 0.165942 0.652792
vt 0.185235 0.668952
vt 0.200244 0.681431
vt 0.224769 0.663165
vt 0.231244 0.682710
vt 0.351217 0.730672
vt 0.357187 0.706658
vt 0.391877 0.733574
vt 0.368121 0.752505
vt 0.324094 0.709951
vt 0.301914 0.719816
vt 0.286211 0.697277
vt 0.316023 0.681949
vt 0.251466 0.662297
vt 0.249672 0.629093
vt 0.287501 0.650926
vt 0.267975 0.681051
vt 0.210089 0.638154
vt 0.157269 0.584174
vt 0.207146 0.578951
vt 0.262308 0.590806
vt 0.308497 0.612065
vt 0.355118 0.629228
vt 0.394745 0.653206
vt 0.439637 0.689407
vt 0.473894 0.738664
vt 0.410826 0.772214
vt 0.418043 0.805434
vt 0.480468 0.797516
vt 0.393147 0.809591
vt 0.382540 0.784002
vt 0.369042 0.816156
vt 0.358004 0.797602
vt 0.343620 0.830765
vt 0.331134 0.806219
vt 0.487212 0.571467
vt 0.479599 0.552596
vt 0.491746 0.613299
vt 0.478585 0.630932
vt 0.474131 0.627596
vt 0.485924 0.611383
vt 0.491747 0.592122
vt 0.348729 0.972692
vt 0.497693 0.590554
vt 0.281092 0.978891
vt 0.482216 0.592268
vt 0.480556 0.573771
vt 0.474054 0.556266
vt 0.461809 0.543271
vt 0.469310 0.535405
vt 0.447329 0.532443
vt 0.455476 0.518833
vt 0.471692 0.558141
vt 0.459583 0.546077
vt 0.445580 0.536328
vt 0.429109 0.529200
vt 0.429729 0.524897
vt 0.444438 0.539554
vt 0.410281 0.527557
vt 0.409703 0.522719
vt 0.360871 0.558156
vt 0.354494 0.591261
vt 0.128374 0.974246
vt 0.202334 0.987718
vt 0.140068 0.941950
vt 0.149974 0.917795
vt 0.353320 0.572619
vt 0.357733 0.556293
vt 0.376289 0.532772
vt 0.061919 0.646482
vt 0.390187 0.523299
vt 0.112288 0.608527
vt 0.373828 0.530158
vt 0.388188 0.520149
vt 0.409098 0.518312
vt 0.380218 0.508446
vt 0.406821 0.505832
vt 0.431876 0.509345
vt 0.362194 0.519173
vt 0.353650 0.553899
vt 0.342287 0.540923
vt 0.349857 0.570971
vt 0.338258 0.565647
vt 0.351845 0.591708
vt 0.343030 0.593903
vt 0.361301 0.607572
vt 0.355403 0.611517
vt 0.378475 0.637867
vt 0.366034 0.624939
vt 0.278797 0.740458
vt 0.261335 0.723089
vt 0.137433 0.739474
vt 0.163647 0.752593
vt 0.188952 0.768668
vt 0.185498 0.799202
vt 0.262371 0.831881
vt 0.245874 0.674885
vt 0.253802 0.684737
vt 0.371957 0.619674
vt 0.384735 0.629129
vt 0.398101 0.634396
vt 0.395297 0.647851
vt 0.412052 0.635859
vt 0.411109 0.651321
vt 0.426019 0.637414
vt 0.426772 0.651958
vt 0.438998 0.635576
vt 0.441440 0.649787
vt 0.455789 0.635076
vt 0.460103 0.643303
vt 0.450627 0.626866
vt 0.468229 0.623091
vt 0.478026 0.608828
vt 0.374909 0.618316
vt 0.402400 0.625881
vt 0.389000 0.626380
vt 0.401557 0.629580
vt 0.413101 0.631354
vt 0.425000 0.632340
vt 0.437320 0.632192
vt 0.421638 0.580606
vn 0.741584 0.329462 0.584387
vn 0.328370 0.272531 0.904378
vn 0.287238 0.546824 0.786434
vn 0.726494 0.462961 0.507812
vn 0.690220 0.620404 0.372418
vn 0.333100 0.660902 0.672497
vn 0.780489 0.561481 0.274911
vn -0.203074 0.414753 0.886984
vn 0.042681 0.675793 0.735854
vn -0.208144 0.685879 0.697313
vn -0.005738 0.350030 0.936721
vn 0.071331 0.747351 0.660589
vn 0.314320 0.698789 0.642570
vn 0.321749 0.104234 0.941070
vn 0.892341 0.442579 0.088607
vn 0.793392 0.389248 0.467990
vn 0.873868 -0.151821 0.461850
vn 0.992927 0.053533 0.105969
vn 0.714464 0.699633 0.007370
vn 0.659880 0.653491 0.370820
vn 0.400013 0.896279 -0.191507
vn 0.701253 0.709465 -0.070035
vn -0.167121 0.410712 0.896318
vn -0.224942 0.651279 0.724732
vn 0.981250 0.184836 -0.054622
vn 0.763994 0.629944 -0.139586
vn -0.330675 0.684137 0.650086
vn 0.070685 0.874187 0.480418
vn -0.086631 0.899552 0.428138
vn -0.103598 0.764925 0.635734
vn 0.407046 0.860523 -0.306291
vn 0.608773 0.792947 -0.025101
vn 0.303569 0.940030 -0.155532
vn 0.122419 0.985842 0.114588
vn 0.472347 0.849577 0.234747
vn -0.560194 0.279227 0.779881
vn -0.272995 0.321694 0.906635
vn -0.332338 0.641966 0.690964
vn -0.548063 0.540462 0.638379
vn -0.532800 -0.066696 0.843609
vn -0.177961 -0.158385 0.971208
vn -0.246039 0.778610 0.577262
vn -0.094419 0.779285 0.619516
vn -0.267789 0.816469 0.511535
vn -0.646664 0.497164 0.578493
vn -0.558429 -0.050209 0.828031
vn -0.365974 0.814506 0.450159
vn -0.568293 0.676290 0.468696
vn -0.611870 0.593686 0.522639
vn -0.360739 0.786343 0.501530
vn -0.178308 0.837557 0.516434
vn -0.338995 0.896303 0.285874
vn 0.669402 0.461225 -0.582385
vn 0.776312 0.157685 -0.610308
vn -0.435845 0.799870 0.412610
vn 0.226166 0.931892 -0.283595
vn 0.007449 0.989678 0.143114
vn 0.102112 0.980686 0.166820
vn 0.146401 0.968964 -0.199186
vn 0.049152 0.913273 -0.404372
vn -0.197224 0.974577 -0.106312
vn 0.176237 0.927319 -0.330183
vn 0.263261 0.888635 -0.375527
vn 0.200490 0.923314 -0.327559
vn 0.045112 0.896219 -0.441312
vn 0.474726 0.613956 -0.630629
vn 0.420309 0.730962 -0.537620
vn 0.421065 0.532582 -0.734208
vn 0.410929 0.466007 -0.783566
vn -0.384975 0.918967 0.085411
vn -0.215302 0.947020 -0.238322
vn -0.252058 0.955098 -0.155741
vn -0.389083 0.908789 0.150723
vn -0.128422 0.982722 -0.133285
vn 0.003973 0.911436 -0.411423
vn 0.163174 0.948835 -0.270344
vn 0.194779 0.959262 -0.204640
vn -0.120000 0.992699 0.012184
vn -0.113809 0.898655 -0.423636
vn 0.146136 0.970430 -0.192121
vn 0.512961 0.685079 -0.517241
vn 0.465529 0.763518 -0.447574
vn 0.293661 0.365971 -0.883079
vn 0.203073 0.686292 -0.698401
vn 0.055271 0.946903 -0.316735
vn -0.249493 0.625411 -0.739334
vn -0.196470 0.967872 -0.156919
vn -0.540411 0.834385 -0.108436
vn -0.652067 0.563878 -0.506804
vn -0.800699 0.559635 -0.213751
vn -0.628881 0.772967 0.083846
vn -0.160350 0.787193 -0.595496
vn -0.071404 0.822554 -0.564187
vn -0.102148 0.815109 -0.570231
vn -0.358876 0.647672 -0.672108
vn -0.414895 0.691346 -0.591525
vn -0.322877 0.532286 -0.782574
vn -0.416799 0.658460 -0.626665
vn -0.290097 0.850190 -0.439341
vn -0.132195 0.410543 -0.902208
vn 0.153429 0.193451 -0.969039
vn -0.153239 0.217426 -0.963973
vn -0.432961 0.269728 -0.860111
vn -0.523418 0.334623 -0.783620
vn -0.526212 0.347621 -0.776055
vn -0.700840 0.355883 -0.618200
vn -0.816418 0.430387 -0.385005
vn -0.855845 0.511479 -0.076930
vn -0.774873 0.631040 0.036888
vn -0.702124 0.620741 0.348860
vn -0.793003 0.521117 0.315570
vn -0.576866 0.652522 0.491366
vn -0.621010 0.751070 0.224146
vn -0.423295 0.703833 0.570474
vn -0.439615 0.829044 0.345579
vn -0.388072 0.725209 0.568746
vn -0.403607 0.837501 0.368366
vn -0.943151 -0.217892 -0.250978
vn -0.945461 -0.195968 0.260192
vn -0.778914 -0.096974 0.619588
vn -0.259929 -0.964351 0.049634
vn -0.196494 -0.972160 0.127656
vn -0.131879 -0.367838 0.920491
vn 0.138122 -0.379660 0.914757
vn 0.037732 -0.155289 0.987148
vn 0.144635 -0.380743 0.913299
vn 0.085020 -0.247704 0.965098
vn 0.022208 -0.999538 -0.020763
vn 0.155692 -0.719886 0.676405
vn 0.124288 -0.575339 0.808417
vn 0.069897 -0.836397 0.543650
vn 0.172718 -0.416941 0.892372
vn -0.021119 -0.999711 -0.011467
vn -0.073995 -0.997200 0.010798
vn 0.180303 -0.837960 0.515087
vn -0.103109 -0.990726 -0.088491
vn -0.065656 -0.986739 -0.148442
vn 0.167085 -0.920802 -0.352429
vn 0.371705 -0.916759 -0.146247
vn 0.172645 -0.984212 0.038987
vn 0.143420 -0.985365 0.092123
vn 0.876362 -0.458720 0.146852
vn 0.780434 -0.422450 0.460933
vn 0.416619 -0.449620 0.790107
vn 0.566808 -0.244526 0.786725
vn 0.221448 -0.314741 0.922984
vn 0.661574 0.242515 0.709581
vn 0.570415 0.665690 0.481127
vn 0.871098 -0.460582 -0.170452
vn 0.702191 -0.403963 -0.586296
vn 0.495111 -0.517590 -0.697829
vn 0.510144 0.278264 -0.813832
vn 0.157651 -0.518190 -0.840610
vn 0.340532 0.298634 -0.891547
vn 0.017173 -0.270523 -0.962560
vn -0.267098 -0.275858 -0.923342
vn -0.539461 -0.252781 -0.803171
vn -0.579455 -0.272035 -0.768263
vn -0.552015 -0.226350 -0.802524
vn -0.648994 -0.257506 -0.715889
vn -0.758449 -0.228736 -0.610274
vn -0.120091 -0.986113 -0.114714
vn -0.613895 -0.754782 -0.231165
vn -0.260016 -0.965122 -0.030503
vn -0.025500 -0.996106 -0.084391
vn -0.048566 -0.997253 -0.055933
vn -0.218831 -0.898700 -0.380068
vn -0.476779 -0.741011 -0.472848
vn -0.463206 -0.608986 -0.643876
vn -0.384358 -0.741548 -0.549887
vn -0.414476 -0.732288 -0.540337
vn -0.055779 0.867337 -0.494587
vn -0.055170 0.827236 -0.559139
vn 0.432955 0.853643 -0.289558
vn 0.346512 0.927679 -0.139075
vn 0.306976 0.931970 -0.192867
vn 0.374487 0.798605 -0.471157
vn -0.041317 0.838852 0.542790
vn -0.362076 0.914005 -0.183017
vn -0.360683 0.931722 0.042442
vn -0.062622 -0.996746 -0.050748
s 1
g Group42734
usemtl initialShadingGroup
f 1/1/1 18/2/2 19/3/3 20/4/4
f 1/1/1 21/5/5 22/6/6 18/2/2
f 1/1/1 20/4/4 23/7/7 21/5/5
f 18/2/2 22/6/6 24/8/8
f 18/2/2 24/8/8 25/9/9 19/3/3
f 33/10/10 31/11/11 30/12/12
f 30/12/12 31/11/11 26/13/13
f 31/11/11 32/14/14 26/13/13
f 2/15/15 27/16/16 28/17/17 29/18/18
f 27/16/16 2/15/15 4/19/19 39/20/20
f 41/21/21 4/19/19 40/22/22
f 29/18/18 40/22/22 2/15/15
f 4/19/19 2/15/15 40/22/22
f 26/13/13 19/3/3 25/9/9 30/12/12
f 34/23/23 31/11/11 33/10/10 49/24/24
f 29/18/18 35/25/25 59/26/26 40/22/22
f 3/27/27 36/28/28 37/29/29 38/30/30
f 3/27/27 24/8/8 22/6/6 36/28/28
f 3/27/27 38/30/30 25/9/9 24/8/8
f 4/19/19 41/21/21 42/31/31 5/32/32
f 5/32/32 43/33/33 44/34/34 45/35/35
f 6/36/36 46/37/37 52/38/38 10/39/39
f 6/36/36 8/40/40 47/41/41 46/37/37
f 7/42/42 33/10/10 30/12/12 48/43/43
f 7/42/42 9/44/44 49/24/24 33/10/10
f 8/40/40 6/36/36 61/45/45
f 8/46/40 50/118/46 47/119/41
f 9/44/44 51/47/47 52/38/38 49/24/24
f 52/38/38 54/48/48 53/49/49 10/39/39
f 55/50/50 7/42/42 56/51/51 57/52/52
f 58/53/53 59/26/26 35/25/25 142/54/54
f 60/55/55 54/48/48 52/38/38 51/47/47
f 11/56/56 62/57/57 63/58/58 64/59/59
f 65/60/60 66/61/61 62/57/57 11/56/56
f 11/56/56 64/59/59 12/62/62 65/60/60
f 12/62/62 64/59/59 67/63/63 68/64/64
f 12/62/62 68/64/64 69/65/65 65/60/60
f 70/66/66 71/67/67 72/68/68 15/69/69
f 13/70/70 57/52/52 66/61/61 73/71/71
f 13/70/70 73/71/71 74/72/72 75/73/73
f 14/74/74 76/75/75 77/76/76 78/77/77
f 80/78/78 81/79/79 76/75/75 14/74/74
f 14/74/74 78/77/77 79/80/80 80/78/78
f 15/69/69 82/81/81 83/82/82 70/66/66
f 15/69/69 84/83/83 85/84/84 82/81/81
f 86/85/85 85/84/84 87/86/86 88/87/87
f 89/88/88 90/89/89 91/90/90 92/91/91
f 16/92/92 93/93/93 94/94/94 95/95/95
f 89/88/88 74/72/72 93/93/93 16/92/92
f 16/92/92 95/95/95 90/89/89 89/88/88
f 17/96/96 96/97/97 97/98/98 98/99/99
f 17/96/96 87/86/86 99/100/100 96/97/97
f 99/100/100 84/83/83 148/101/101 149/102/102
f 96/97/97 99/100/100 149/102/102 153/103/103
f 99/100/100 87/86/86 85/84/84 84/83/83
f 96/97/97 153/103/103 155/104/104 97/98/98
f 97/98/98 155/104/104 157/105/105 95/95/95
f 95/95/95 157/105/105 159/106/106 90/89/89
f 90/89/89 159/106/106 161/107/107 91/90/90
f 91/90/90 161/107/107 108/108/108 100/109/109
f 101/110/110 100/109/109 108/108/108 109/111/111
f 100/109/109 101/110/110 102/112/112 103/113/113
f 100/109/109 103/113/113 92/91/91 91/90/90
f 103/113/113 102/112/112 104/114/114 105/115/115
f 103/113/113 105/115/115 75/73/73 92/91/91
f 105/115/115 104/114/114 106/116/116 107/117/117
f 105/115/115 107/117/117 13/70/70 75/73/73
f 104/114/114 102/112/112 54/48/48 60/55/55
f 104/114/114 60/55/55 51/47/47 106/116/116
f 102/112/112 101/110/110 53/49/49 54/48/48
f 61/45/45 53/49/49 101/110/110 109/111/111
f 109/120/111 108/121/108 110/122/118 111/123/119
f 109/120/111 111/123/119 112/124/120 61/126/45
f 112/124/120 50/118/46 8/46/40 61/126/45
f 50/118/46 112/124/120 113/128/121 114/129/122
f 50/118/46 114/129/122 115/130/123 47/119/41
f 47/119/41 115/130/123 117/131/124 116/132/125
f 117/131/124 118/133/126 119/134/127 116/132/125
f 117/131/124 115/130/123 120/135/128 121/136/129
f 117/131/124 121/136/129 122/137/130 118/133/126
f 122/137/130 123/138/131 124/139/132 118/133/126
f 122/137/130 121/136/129 125/140/133
f 122/137/130 125/140/133 123/138/131
f 125/140/133 126/141/134 127/142/135 123/138/131
f 129/143/136 128/144/137 130/149/138 131/150/139
f 129/143/136 131/150/139 132/151/140
f 129/143/136 132/151/140 133/153/141 126/141/134
f 133/153/141 132/151/140 134/155/142 135/156/143
f 133/153/141 135/156/143 136/157/144 127/142/135
f 133/153/141 127/142/135 126/141/134
f 136/157/144 135/156/143 28/158/17 137/159/145
f 136/157/144 137/159/145 138/160/146 124/139/132
f 136/157/144 124/139/132 123/138/131 127/142/135
f 138/160/146 119/134/127 118/133/126 124/139/132
f 116/125/125 119/127/127 31/11/11 34/23/23
f 116/125/125 34/23/23 46/37/37 47/41/41
f 119/127/127 138/146/146 32/14/14 31/11/11
f 138/146/146 137/145/145 139/147/147 32/14/14
f 139/147/147 27/16/16 39/20/20 140/148/148
f 26/13/13 32/14/14 139/147/147 140/148/148
f 139/147/147 137/145/145 28/17/17 27/16/16
f 140/148/148 39/20/20 23/7/7 20/4/4
f 140/148/148 20/4/4 19/3/3 26/13/13
f 29/161/18 28/158/17 135/156/143 134/155/142
f 29/161/18 134/155/142 141/162/149 35/163/25
f 141/162/149 134/155/142 132/151/140 131/150/139
f 35/163/25 141/162/149 143/164/150 142/165/54
f 143/164/150 141/162/149 131/150/139 130/149/138
f 143/164/150 130/149/138 128/144/137 144/166/151
f 143/164/150 144/166/151 145/167/152 142/165/54
f 145/167/152 144/166/151 146/168/153
f 145/167/152 146/168/153 147/169/154
f 145/152/152 147/154/154 15/69/69 72/68/68
f 58/53/53 142/54/54 145/152/152 72/68/68
f 15/69/69 147/154/154 148/101/101 84/83/83
f 149/170/102 148/171/101 150/181/155 151/182/156
f 149/170/102 151/182/156 152/183/157 153/184/103
f 153/184/103 152/183/157 154/185/158 155/186/104
f 155/186/104 154/185/158 156/187/159 157/188/105
f 157/188/105 156/187/159 158/189/160 159/190/106
f 159/190/106 158/189/160 160/191/161 161/192/107
f 161/192/107 160/191/161 110/122/118 108/121/108
f 110/122/118 160/191/161 162/193/162 163/194/163
f 110/122/118 163/194/163 164/195/164 111/123/119
f 164/195/164 163/194/163 162/193/162
f 164/195/164 113/128/121 112/124/120 111/123/119
f 114/129/122 120/135/128 115/130/123
f 120/135/128 125/140/133 121/136/129
f 166/196/165 165/197/166 167/198/167
f 166/196/165 150/181/155 146/168/153
f 166/196/165 146/168/153 144/166/151 128/144/137
f 150/181/155 166/196/165 167/198/167 151/182/156
f 151/182/156 167/198/167 168/199/168 152/183/157
f 152/183/157 168/199/168 169/200/169 154/185/158
f 154/185/158 169/200/169 170/201/170 156/187/159
f 156/187/159 170/201/170 171/202/171 158/189/160
f 171/202/171 170/201/170 165/197/166 162/193/162
f 171/202/171 162/193/162 160/191/161 158/189/160
f 165/197/166 170/201/170 169/200/169
f 165/197/166 169/200/169 168/199/168
f 168/199/168 167/198/167 165/197/166
f 150/181/155 148/171/101 147/169/154 146/168/153
f 97/98/98 95/95/95 94/94/94 98/99/99
f 94/94/94 93/93/93 172/172/172 173/173/173
f 94/94/94 173/173/173 81/79/79 98/99/99
f 173/173/173 172/172/172 65/60/60 69/65/65
f 173/173/173 69/65/65 76/75/75 81/79/79
f 172/172/172 93/93/93 74/72/72 73/71/71
f 172/172/172 73/71/71 66/61/61 65/60/60
f 92/91/91 75/73/73 74/72/72 89/88/88
f 86/85/85 79/80/80 82/81/81 85/84/84
f 86/85/85 88/87/87 80/78/78 79/80/80
f 83/82/82 174/174/174 71/67/67 70/66/66
f 83/82/82 82/81/81 79/80/80 78/77/77
f 83/82/82 78/77/77 175/175/175 174/174/174
f 175/175/175 41/21/21 40/22/22 174/174/174
f 175/175/175 78/77/77 77/76/76 176/176/176
f 175/175/175 176/176/176 42/31/31 41/21/21
f 176/176/176 77/76/76 68/64/64 67/63/63
f 176/176/176 67/63/63 177/177/177 42/31/31
f 174/174/174 40/22/22 59/26/26 71/67/67
f 77/76/76 76/75/75 69/65/65 68/64/64
f 13/70/70 107/117/117 55/50/50 57/52/52
f 72/68/68 71/67/67 59/26/26 58/53/53
f 67/63/63 64/59/59 43/33/33 177/177/177
f 66/61/61 57/52/52 56/51/51 62/57/57
f 64/59/59 63/58/58 44/34/34 43/33/33
f 63/58/58 62/57/57 56/51/51 178/178/178
f 63/58/58 178/178/178 37/29/29 44/34/34
f 178/178/178 56/51/51 7/42/42 48/43/43
f 178/178/178 48/43/43 38/30/30 37/29/29
f 34/23/23 49/24/24 52/38/38 46/37/37
f 48/43/43 30/12/12 25/9/9 38/30/30
f 45/35/35 21/5/5 23/7/7 5/32/32
f 45/35/35 44/34/34 37/29/29 36/28/28
f 45/35/35 36/28/28 22/6/6 21/5/5
f 106/116/116 51/47/47 9/44/44 7/42/42
f 106/116/116 7/42/42 55/50/50 107/117/117
f 177/177/177 43/33/33 5/32/32 42/31/31
f 80/78/78 88/87/87 180/179/179 179/180/180
f 87/86/86 17/96/96 180/179/179 88/87/87
f 179/180/180 180/179/179 17/96/96 98/99/99
f 81/79/79 80/78/78 179/180/180 98/99/99
f 4/19/19 5/32/32 23/7/7 39/20/20
f 181/203/181 113/128/121 164/195/164
f 166/196/165 181/203/181 165/197/166
f 181/203/181 162/193/162 165/197/166
f 181/203/181 164/195/164 162/193/162
f 181/203/181 114/129/122 113/128/121
f 125/140/133 120/135/128 181/203/181
f 181/203/181 120/135/128 114/129/122
f 126/141/134 181/203/181 129/143/136
f 125/140/133 181/203/181 126/141/134
f 128/144/137 181/203/181 166/196/165
f 129/143/136 181/203/181 128/144/137
f 61/45/45 6/36/36 10/39/39 53/49/49
