# This file uses centimeters as units for non-parametric coordinates.

mtllib Ore_iron_low.mtl
g default
v -0.360834 0.410848 0.334656
v -0.115598 0.285307 0.163936
v -0.567192 0.516930 0.291116
v -0.231171 0.432339 0.070706
v -0.333494 0.529378 0.109182
v -1.082633 0.176782 0.386107
v -0.827897 0.482789 0.214545
v -1.109565 0.140863 0.329603
v -0.902720 0.434891 0.248917
v -1.083165 0.286973 0.287537
v -0.663379 0.616722 0.002178
v -0.621586 0.579899 -0.047527
v -0.883590 0.574416 -0.033788
v -0.559860 0.493825 -0.231234
v -0.382147 0.363277 -0.362662
v -0.949762 0.500538 -0.237318
v -0.730087 0.452068 -0.399648
v -0.438152 0.402833 0.387217
v -0.452170 0.330393 0.403614
v -0.335754 0.359306 0.321911
v -0.363754 0.496442 0.270818
v -0.457440 0.505478 0.347051
v -0.289536 0.432749 0.200956
v -0.553697 0.464063 0.351663
v -0.613374 0.430672 0.335527
v -0.453458 0.317913 0.420353
v -0.179148 0.268799 0.259197
v -0.155183 0.155587 0.267610
v -0.093334 0.171456 0.123062
v -0.665020 0.435117 0.355076
v -0.691741 0.302059 0.479305
v -0.462507 0.265509 0.481321
v -0.768343 0.422870 0.342535
v -0.869549 0.251065 0.432796
v -0.033487 0.158897 -0.098116
v -0.504361 0.559727 0.274639
v -0.585784 0.574413 0.194852
v -0.626821 0.501809 0.253415
v -0.247540 0.356555 0.203485
v -0.242378 0.426543 -0.121225
v -0.319760 0.480219 -0.044181
v -0.390326 0.503678 0.022463
v -0.435384 0.588338 0.084836
v -0.509783 0.596456 0.156561
v -0.415752 0.557498 0.212537
v -1.014202 0.193003 0.422580
v -1.001008 0.089608 0.413119
v -0.699194 0.509545 0.252164
v -0.897340 0.388479 0.320051
v -1.141046 0.088483 0.330304
v -0.972929 0.419156 0.212630
v -1.021224 0.359670 0.295985
v -1.137288 0.291141 0.207397
v -1.088457 0.352829 0.204875
v -0.870425 0.536077 0.136550
v -0.746936 0.590778 0.138193
v -0.805824 0.584882 0.063703
v -0.183183 0.325936 -0.250253
v -0.184851 0.381339 -0.189366
v -1.035873 0.388349 0.180405
v -1.242948 0.174783 0.218158
v -0.693518 0.632189 0.051506
v -0.639097 0.595036 0.094261
v -0.576918 0.588808 0.025488
v -0.706888 0.582582 -0.063315
v -0.758987 0.621018 -0.018803
v -0.514921 0.558492 -0.024899
v -0.578545 0.557947 -0.082712
v -0.656594 0.565736 -0.137580
v -0.343459 0.394240 -0.285249
v -0.290882 0.396222 -0.251204
v -0.278879 0.331567 -0.335791
v -0.828028 0.575460 -0.102904
v -0.919649 0.546685 -0.141283
v -0.976012 0.518809 -0.052923
v -0.589922 0.511286 -0.197214
v -0.526393 0.527165 -0.139084
v -0.458144 0.517394 -0.218019
v -0.498825 0.499455 -0.298008
v -0.634288 0.492172 -0.286454
v -0.682556 0.479848 -0.245190
v -0.418484 0.449057 -0.336241
v -0.363991 0.464285 -0.278036
v -0.461094 0.381878 -0.472208
v -0.502103 0.462952 -0.439690
v -0.545367 0.500552 -0.388922
v -0.639608 0.455823 -0.410958
v -0.654296 0.500717 -0.352673
v -1.051940 0.524589 -0.173133
v -1.061061 0.461277 -0.243845
v -1.126663 0.398788 -0.135820
v -1.072917 0.476197 -0.088088
v -0.868887 0.521676 -0.206794
v -0.818249 0.463996 -0.260045
v -0.919199 0.435381 -0.301617
v -0.732304 0.356320 -0.462783
v -0.834389 0.386534 -0.390460
v -0.764529 0.448838 -0.321538
v -0.609391 0.382227 -0.475575
v -1.172352 0.376451 -0.014954
v -1.168931 0.338352 0.081042
v -1.105079 0.394757 0.093672
v -1.106636 0.451102 0.020525
v -1.031851 0.435651 0.108945
v -1.025050 0.493383 0.061936
v -0.945776 0.463857 0.151287
v -0.929949 0.526351 0.083052
v -1.309286 0.191026 -0.106889
v -1.314001 0.183288 0.057479
v -1.313320 0.143124 -0.120828
v -1.323868 0.130419 0.049961
v -1.261327 0.126163 0.206529
v -1.243877 0.046788 0.178920
v -1.141312 0.028617 0.313559
v -0.998193 0.028531 0.410205
v -0.857768 0.156003 0.454802
v -0.843121 0.071475 0.415477
v -0.690697 0.084128 0.415152
v -0.689065 0.212356 0.462575
v -0.992886 0.020271 0.384407
v -0.841751 0.043714 0.403524
v -0.695804 0.050811 0.402226
v -0.543497 0.033764 0.385511
v -0.530798 0.065599 0.399973
v -0.702896 0.041769 0.375746
v -0.394177 0.008677 0.317400
v -0.369020 0.021737 0.349668
v -0.280288 0.063833 -0.414237
v -0.162451 0.003896 -0.147704
v -0.182047 0.039034 -0.288353
v -0.128055 0.000874 -0.149805
v -0.164675 0.014922 0.117371
v -0.220759 0.013150 0.257159
v -0.147499 0.039491 0.121216
v -0.196004 0.035079 0.266936
v -0.347795 0.044165 0.373544
v -0.302005 0.140636 0.399580
v -0.486307 0.181056 0.452807
v -0.284087 0.255922 0.400943
v -0.310152 0.327906 0.349545
v -0.089924 0.023885 -0.149798
v -0.110222 0.150958 -0.264359
v -0.156235 0.058005 -0.287365
v -0.264025 0.072936 -0.428927
v -0.235161 0.142610 -0.448218
v -0.406492 0.090738 -0.494524
v -0.397281 0.151295 -0.504204
v -0.525946 0.158039 -0.540076
v -0.653543 0.191290 -0.550307
v -0.537585 0.087551 -0.538936
v -0.675484 0.101380 -0.543601
v -0.793972 0.120873 -0.507451
v -0.788649 0.241625 -0.524752
v -0.889748 0.134644 -0.439773
v -0.892838 0.267308 -0.455145
v -0.998864 0.143140 -0.396103
v -1.009094 0.268817 -0.407116
v -1.093183 0.127468 -0.335590
v -1.101643 0.251336 -0.336560
v -1.213451 0.139486 -0.256826
v -1.215087 0.220395 -0.240669
v -1.156764 0.081910 -0.230749
v -1.276629 0.088545 -0.124715
v -1.291361 0.067880 0.031837
v -0.790730 0.072493 -0.440109
v -0.553590 0.074683 -0.518560
v -0.695911 0.076762 -0.510445
v -0.797832 0.094758 -0.463020
v -0.881932 0.112257 -0.409049
v -0.977764 0.113133 -0.373264
v -1.071676 0.105925 -0.324141
v -0.781569 0.557962 -0.147893
v -0.725929 0.519413 -0.201840
v -0.323517 0.454120 -0.203680
v -0.397497 0.490905 -0.148162
v -0.466609 0.526978 -0.077250
v -0.431071 0.545072 0.027646
v -0.679717 0.574274 0.158837
v -0.719247 0.464701 -0.322510
v -0.704595 0.472391 -0.363290
v -0.728402 0.054757 -0.020021
vt 0.664678 0.898253
vt 0.688843 0.911556
vt 0.690437 0.932890
vt 0.649822 0.906284
vt 0.668622 0.870038
vt 0.697104 0.884444
vt 0.637482 0.862342
vt 0.723104 0.893808
vt 0.742709 0.898482
vt 0.789870 0.895835
vt 0.770077 0.951776
vt 0.759077 0.900810
vt 0.690957 0.938869
vt 0.693815 0.961816
vt 0.571826 0.867426
vt 0.591127 0.899832
vt 0.563346 0.922611
vt 0.534569 0.864544
vt 0.616233 0.826214
vt 0.616317 0.873723
vt 0.637024 0.785361
vt 0.606472 0.768203
vt 0.832718 0.943819
vt 0.829129 0.887974
vt 0.509392 0.787070
vt 0.585224 0.749940
vt 0.727593 0.872667
vt 0.709304 0.862439
vt 0.730406 0.842085
vt 0.745879 0.866825
vt 0.661785 0.798053
vt 0.655245 0.826783
vt 0.685948 0.815292
vt 0.708669 0.831247
vt 0.683861 0.849003
vt 0.904717 0.922124
vt 0.882429 0.934999
vt 0.866103 0.876077
vt 0.893361 0.878608
vt 0.926487 0.916153
vt 0.898905 0.961758
vt 0.802834 0.852172
vt 0.765530 0.863077
vt 0.826928 0.862591
vt 0.956554 0.859412
vt 0.984955 0.567155
vt 0.847839 0.850085
vt 0.886780 0.846868
vt 0.909100 0.850615
vt 0.807892 0.822404
vt 0.771592 0.822730
vt 0.786242 0.801537
vt 0.574434 0.729625
vt 0.519422 0.719983
vt 0.868686 0.839876
vt 0.743932 0.786614
vt 0.754426 0.798858
vt 0.740479 0.813097
vt 0.720517 0.794327
vt 0.752382 0.765389
vt 0.768725 0.779392
vt 0.729098 0.772406
vt 0.699332 0.781579
vt 0.714775 0.763351
vt 0.736165 0.746712
vt 0.622923 0.708973
vt 0.611349 0.723975
vt 0.596436 0.695121
vt 0.628308 0.681563
vt 0.803052 0.772190
vt 0.785257 0.753231
vt 0.809745 0.740486
vt 0.831616 0.765243
vt 0.702817 0.720590
vt 0.713336 0.728903
vt 0.696601 0.748860
vt 0.673651 0.730717
vt 0.722432 0.701635
vt 0.739270 0.708558
vt 0.681265 0.706593
vt 0.652226 0.696981
vt 0.641583 0.717398
vt 0.658229 0.652452
vt 0.677522 0.668611
vt 0.692532 0.681090
vt 0.717056 0.662824
vt 0.723531 0.682370
vt 0.843504 0.730331
vt 0.849474 0.706318
vt 0.884164 0.733234
vt 0.860408 0.752164
vt 0.816381 0.709611
vt 0.794201 0.719475
vt 0.778498 0.696936
vt 0.808310 0.681609
vt 0.743753 0.661956
vt 0.741959 0.628752
vt 0.779789 0.650585
vt 0.760263 0.680710
vt 0.702376 0.637813
vt 0.649556 0.583833
vt 0.699433 0.578610
vt 0.754595 0.590466
vt 0.800784 0.611724
vt 0.847405 0.628887
vt 0.887032 0.652866
vt 0.931924 0.689066
vt 0.966181 0.738324
vt 0.903113 0.771874
vt 0.910330 0.805093
vt 0.972755 0.797175
vt 0.885434 0.809250
vt 0.874827 0.783662
vt 0.861329 0.815815
vt 0.850291 0.797261
vt 0.835907 0.830424
vt 0.823421 0.805878
vt 0.979499 0.571126
vt 0.971886 0.552255
vt 0.984033 0.612958
vt 0.970872 0.630591
vt 0.966419 0.627255
vt 0.978211 0.611042
vt 0.984034 0.591781
vt 0.841016 0.972351
vt 0.989980 0.590214
vt 0.773380 0.978550
vt 0.974503 0.591927
vt 0.972843 0.573430
vt 0.966341 0.555925
vt 0.954096 0.542930
vt 0.961597 0.535064
vt 0.939616 0.532103
vt 0.947763 0.518492
vt 0.963979 0.557800
vt 0.951870 0.545736
vt 0.937867 0.535988
vt 0.921396 0.528859
vt 0.922016 0.524556
vt 0.936725 0.539213
vt 0.902568 0.527216
vt 0.901990 0.522379
vt 0.853158 0.557816
vt 0.846781 0.590920
vt 0.620661 0.973905
vt 0.694621 0.987377
vt 0.632355 0.941609
vt 0.642261 0.917454
vt 0.845607 0.572278
vt 0.850020 0.555952
vt 0.868576 0.532431
vt 0.554206 0.646141
vt 0.882474 0.522958
vt 0.604575 0.608187
vt 0.866115 0.529817
vt 0.880475 0.519808
vt 0.901385 0.517971
vt 0.872505 0.508106
vt 0.899108 0.505491
vt 0.924164 0.509005
vt 0.854481 0.518833
vt 0.845937 0.553559
vt 0.834574 0.540582
vt 0.842144 0.570630
vt 0.830545 0.565306
vt 0.844132 0.591368
vt 0.835317 0.593562
vt 0.853588 0.607231
vt 0.847690 0.611176
vt 0.870762 0.637526
vt 0.858321 0.624598
vt 0.771084 0.740117
vt 0.753622 0.722748
vt 0.629720 0.739133
vt 0.655934 0.752252
vt 0.681239 0.768327
vt 0.677785 0.798861
vt 0.754658 0.831540
vt 0.738161 0.674544
vt 0.746089 0.684396
vt 0.864244 0.619333
vt 0.877022 0.628788
vt 0.890388 0.634056
vt 0.887584 0.647510
vt 0.904339 0.635518
vt 0.903396 0.650980
vt 0.918306 0.637074
vt 0.919059 0.651617
vt 0.931285 0.635236
vt 0.933727 0.649447
vt 0.948076 0.634735
vt 0.952390 0.642963
vt 0.942914 0.626526
vt 0.960516 0.622751
vt 0.970313 0.608487
vt 0.867196 0.617975
vt 0.894687 0.625540
vt 0.881287 0.626039
vt 0.893844 0.629239
vt 0.905388 0.631013
vt 0.917288 0.631999
vt 0.929607 0.631851
vt 0.913925 0.580265
vn 0.665420 0.329462 0.669829
vn 0.216521 0.272531 0.937468
vn 0.189963 0.546823 0.815413
vn 0.659707 0.462960 0.591991
vn 0.640083 0.620404 0.453202
vn 0.249275 0.660903 0.707863
vn 0.741488 0.561481 0.367335
vn -0.308913 0.414753 0.855893
vn -0.046676 0.675793 0.735612
vn -0.290994 0.685879 0.667002
vn -0.119045 0.350030 0.929143
vn -0.009129 0.747351 0.664367
vn 0.234255 0.698789 0.675884
vn 0.205508 0.104233 0.973089
vn 0.875062 0.442579 0.195935
vn 0.730932 0.389248 0.560557
vn 0.811559 -0.151822 0.564200
vn 0.972808 0.053532 0.225342
vn 0.708321 0.699634 0.093771
vn 0.610159 0.653492 0.447945
vn 0.420247 0.896279 -0.141695
vn 0.704574 0.709464 0.015336
vn -0.274353 0.410712 0.869509
vn -0.310986 0.651280 0.692187
vn 0.980650 0.184835 0.064518
vn 0.775271 0.629943 -0.046112
vn -0.406910 0.684137 0.605295
vn 0.012031 0.874187 0.485441
vn -0.137803 0.899552 0.414508
vn -0.179766 0.764925 0.618526
vn 0.441119 0.860523 -0.254785
vn 0.607337 0.792947 0.048749
vn 0.320159 0.940030 -0.117655
vn 0.107653 0.985842 0.128559
vn 0.440470 0.849577 0.290179
vn -0.650449 0.279226 0.706363
vn -0.380698 0.321694 0.866938
vn -0.413508 0.641966 0.645671
vn -0.621284 0.540462 0.567369
vn -0.630968 -0.066696 0.772937
vn -0.294176 -0.158385 0.942536
vn -0.314083 0.778610 0.543248
vn -0.168690 0.779285 0.603538
vn -0.327720 0.816469 0.475371
vn -0.711913 0.497164 0.495991
vn -0.654523 -0.050210 0.754373
vn -0.417757 0.814506 0.402566
vn -0.620833 0.676289 0.396484
vn -0.670617 0.593686 0.444758
vn -0.418777 0.786342 0.454194
vn -0.239490 0.837557 0.491063
vn -0.371096 0.896303 0.242752
vn 0.734956 0.461225 -0.497103
vn 0.844459 0.157686 -0.511884
vn -0.482572 0.799869 0.356839
vn 0.258822 0.931892 -0.254144
vn -0.009923 0.989678 0.142964
vn 0.081176 0.980685 0.177951
vn 0.169428 0.968964 -0.180007
vn 0.097722 0.913273 -0.395452
vn -0.182910 0.974577 -0.129396
vn 0.214897 0.927319 -0.306431
vn 0.306768 0.888635 -0.340912
vn 0.238654 0.923314 -0.300891
vn 0.098182 0.896219 -0.432610
vn 0.547548 0.613956 -0.568550
vn 0.482275 0.730963 -0.482809
vn 0.506815 0.532582 -0.677861
vn 0.502726 0.466007 -0.728083
vn -0.392481 0.918966 0.038198
vn -0.184881 0.947020 -0.262624
vn -0.231359 0.955098 -0.185097
vn -0.404462 0.908789 0.102534
vn -0.111349 0.982722 -0.147845
vn 0.053729 0.911435 -0.407920
vn 0.194689 0.948835 -0.248613
vn 0.218110 0.959262 -0.179567
vn -0.120592 0.992699 -0.002426
vn -0.061709 0.898654 -0.434296
vn 0.168310 0.970430 -0.173025
vn 0.571781 0.685079 -0.451369
vn 0.516267 0.763519 -0.387953
vn 0.398362 0.365971 -0.841055
vn 0.286092 0.686292 -0.668696
vn 0.093192 0.946902 -0.307719
vn -0.158195 0.625410 -0.764092
vn -0.176038 0.967872 -0.179541
vn -0.523319 0.834384 -0.173033
vn -0.585949 0.563878 -0.581985
vn -0.768950 0.559635 -0.309071
vn -0.634405 0.772968 0.007130
vn -0.087113 0.787192 -0.610524
vn -0.002609 0.822554 -0.568681
vn -0.032395 0.815108 -0.578402
vn -0.274909 0.647672 -0.710595
vn -0.340268 0.691347 -0.637383
vn -0.225807 0.532286 -0.815894
vn -0.337906 0.658460 -0.672495
vn -0.234802 0.850190 -0.471216
vn -0.022050 0.410543 -0.911575
vn 0.269562 0.193451 -0.943352
vn -0.035465 0.217426 -0.975432
vn -0.325700 0.269728 -0.906182
vn -0.424749 0.334623 -0.841199
vn -0.428438 0.347621 -0.834027
vn -0.620883 0.355884 -0.698463
vn -0.763831 0.430387 -0.480968
vn -0.840247 0.511479 -0.179927
vn -0.773643 0.631040 -0.057148
vn -0.739179 0.620740 0.261335
vn -0.825362 0.521117 0.217292
vn -0.632086 0.652521 0.417951
vn -0.643569 0.751070 0.147353
vn -0.489216 0.703833 0.515060
vn -0.478202 0.829044 0.289844
vn -0.454042 0.725209 0.517607
vn -0.445217 0.837501 0.316820
vn -0.905850 -0.217891 -0.363262
vn -0.969999 -0.195967 0.143873
vn -0.848164 -0.096975 0.520781
vn -0.264025 -0.964351 0.017816
vn -0.210497 -0.972160 0.102941
vn -0.242296 -0.367838 0.897768
vn 0.026416 -0.379660 0.924749
vn -0.081997 -0.155289 0.984460
vn 0.033057 -0.380743 0.924090
vn -0.032388 -0.247704 0.968294
vn 0.024557 -0.999538 -0.017923
vn 0.072699 -0.719886 0.690275
vn 0.025551 -0.575339 0.817516
vn 0.003598 -0.836397 0.548113
vn 0.063466 -0.416941 0.906715
vn -0.019576 -0.999711 -0.013938
vn -0.074757 -0.997200 0.001765
vn 0.116649 -0.837960 0.533120
vn -0.091643 -0.990726 -0.100318
vn -0.047211 -0.986739 -0.155296
vn 0.208503 -0.920802 -0.329620
vn 0.386670 -0.916759 -0.100194
vn 0.166659 -0.984212 0.059591
vn 0.131219 -0.985365 0.108801
vn 0.852152 -0.458720 0.251818
vn 0.718923 -0.422449 0.551984
vn 0.317950 -0.449620 0.834715
vn 0.467443 -0.244526 0.849531
vn 0.108133 -0.314741 0.942998
vn 0.570849 0.242515 0.784422
vn 0.508004 0.665690 0.546616
vn 0.885322 -0.460582 -0.063790
vn 0.767977 -0.403963 -0.497017
vn 0.575915 -0.517590 -0.632789
vn 0.604875 0.278264 -0.746121
vn 0.258212 -0.518191 -0.815355
vn 0.445913 0.298634 -0.843789
vn 0.133524 -0.270524 -0.953409
vn -0.153404 -0.275858 -0.948878
vn -0.438308 -0.252780 -0.862548
vn -0.482232 -0.272036 -0.832736
vn -0.450848 -0.226350 -0.863425
vn -0.557597 -0.257505 -0.789162
vn -0.679029 -0.228735 -0.697568
vn -0.105327 -0.986113 -0.128403
vn -0.581413 -0.754781 -0.303753
vn -0.254414 -0.965122 -0.061743
vn -0.015101 -0.996106 -0.086857
vn -0.041441 -0.997253 -0.061399
vn -0.171232 -0.898700 -0.403756
vn -0.416058 -0.741010 -0.527067
vn -0.381888 -0.608986 -0.695196
vn -0.314993 -0.741548 -0.592356
vn -0.346046 -0.732287 -0.586522
vn 0.004479 0.867337 -0.497701
vn 0.012895 0.827237 -0.561706
vn 0.464812 0.853643 -0.235039
vn 0.360795 0.927679 -0.096123
vn 0.328059 0.931970 -0.154304
vn 0.428749 0.798605 -0.422379
vn -0.106695 0.838852 0.533802
vn -0.337269 0.914005 -0.225486
vn -0.363169 0.931722 -0.001516
vn -0.056021 -0.996746 -0.057953
s 1
g Group42733
usemtl initialShadingGroup
f 1/1/1 18/2/2 19/3/3 20/4/4
f 1/1/1 21/5/5 22/6/6 18/2/2
f 1/1/1 20/4/4 23/7/7 21/5/5
f 18/2/2 22/6/6 24/8/8
f 18/2/2 24/8/8 25/9/9 19/3/3
f 33/10/10 31/11/11 30/12/12
f 30/12/12 31/11/11 26/13/13
f 31/11/11 32/14/14 26/13/13
f 2/15/15 27/16/16 28/17/17 29/18/18
f 27/16/16 2/15/15 4/19/19 39/20/20
f 41/21/21 4/19/19 40/22/22
f 29/18/18 40/22/22 2/15/15
f 4/19/19 2/15/15 40/22/22
f 26/13/13 19/3/3 25/9/9 30/12/12
f 34/23/23 31/11/11 33/10/10 49/24/24
f 29/18/18 35/25/25 59/26/26 40/22/22
f 3/27/27 36/28/28 37/29/29 38/30/30
f 3/27/27 24/8/8 22/6/6 36/28/28
f 3/27/27 38/30/30 25/9/9 24/8/8
f 4/19/19 41/21/21 42/31/31 5/32/32
f 5/32/32 43/33/33 44/34/34 45/35/35
f 6/36/36 46/37/37 52/38/38 10/39/39
f 6/36/36 8/40/40 47/41/41 46/37/37
f 7/42/42 33/10/10 30/12/12 48/43/43
f 7/42/42 9/44/44 49/24/24 33/10/10
f 8/40/40 6/36/36 61/45/45
f 8/46/40 50/118/46 47/119/41
f 9/44/44 51/47/47 52/38/38 49/24/24
f 52/38/38 54/48/48 53/49/49 10/39/39
f 55/50/50 7/42/42 56/51/51 57/52/52
f 58/53/53 59/26/26 35/25/25 142/54/54
f 60/55/55 54/48/48 52/38/38 51/47/47
f 11/56/56 62/57/57 63/58/58 64/59/59
f 65/60/60 66/61/61 62/57/57 11/56/56
f 11/56/56 64/59/59 12/62/62 65/60/60
f 12/62/62 64/59/59 67/63/63 68/64/64
f 12/62/62 68/64/64 69/65/65 65/60/60
f 70/66/66 71/67/67 72/68/68 15/69/69
f 13/70/70 57/52/52 66/61/61 73/71/71
f 13/70/70 73/71/71 74/72/72 75/73/73
f 14/74/74 76/75/75 77/76/76 78/77/77
f 80/78/78 81/79/79 76/75/75 14/74/74
f 14/74/74 78/77/77 79/80/80 80/78/78
f 15/69/69 82/81/81 83/82/82 70/66/66
f 15/69/69 84/83/83 85/84/84 82/81/81
f 86/85/85 85/84/84 87/86/86 88/87/87
f 89/88/88 90/89/89 91/90/90 92/91/91
f 16/92/92 93/93/93 94/94/94 95/95/95
f 89/88/88 74/72/72 93/93/93 16/92/92
f 16/92/92 95/95/95 90/89/89 89/88/88
f 17/96/96 96/97/97 97/98/98 98/99/99
f 17/96/96 87/86/86 99/100/100 96/97/97
f 99/100/100 84/83/83 148/101/101 149/102/102
f 96/97/97 99/100/100 149/102/102 153/103/103
f 99/100/100 87/86/86 85/84/84 84/83/83
f 96/97/97 153/103/103 155/104/104 97/98/98
f 97/98/98 155/104/104 157/105/105 95/95/95
f 95/95/95 157/105/105 159/106/106 90/89/89
f 90/89/89 159/106/106 161/107/107 91/90/90
f 91/90/90 161/107/107 108/108/108 100/109/109
f 101/110/110 100/109/109 108/108/108 109/111/111
f 100/109/109 101/110/110 102/112/112 103/113/113
f 100/109/109 103/113/113 92/91/91 91/90/90
f 103/113/113 102/112/112 104/114/114 105/115/115
f 103/113/113 105/115/115 75/73/73 92/91/91
f 105/115/115 104/114/114 106/116/116 107/117/117
f 105/115/115 107/117/117 13/70/70 75/73/73
f 104/114/114 102/112/112 54/48/48 60/55/55
f 104/114/114 60/55/55 51/47/47 106/116/116
f 102/112/112 101/110/110 53/49/49 54/48/48
f 61/45/45 53/49/49 101/110/110 109/111/111
f 109/120/111 108/121/108 110/122/118 111/123/119
f 109/120/111 111/123/119 112/124/120 61/126/45
f 112/124/120 50/118/46 8/46/40 61/126/45
f 50/118/46 112/124/120 113/128/121 114/129/122
f 50/118/46 114/129/122 115/130/123 47/119/41
f 47/119/41 115/130/123 117/131/124 116/132/125
f 117/131/124 118/133/126 119/134/127 116/132/125
f 117/131/124 115/130/123 120/135/128 121/136/129
f 117/131/124 121/136/129 122/137/130 118/133/126
f 122/137/130 123/138/131 124/139/132 118/133/126
f 122/137/130 121/136/129 125/140/133
f 122/137/130 125/140/133 123/138/131
f 125/140/133 126/141/134 127/142/135 123/138/131
f 129/143/136 128/144/137 130/149/138 131/150/139
f 129/143/136 131/150/139 132/151/140
f 129/143/136 132/151/140 133/153/141 126/141/134
f 133/153/141 132/151/140 134/155/142 135/156/143
f 133/153/141 135/156/143 136/157/144 127/142/135
f 133/153/141 127/142/135 126/141/134
f 136/157/144 135/156/143 28/158/17 137/159/145
f 136/157/144 137/159/145 138/160/146 124/139/132
f 136/157/144 124/139/132 123/138/131 127/142/135
f 138/160/146 119/134/127 118/133/126 124/139/132
f 116/125/125 119/127/127 31/11/11 34/23/23
f 116/125/125 34/23/23 46/37/37 47/41/41
f 119/127/127 138/146/146 32/14/14 31/11/11
f 138/146/146 137/145/145 139/147/147 32/14/14
f 139/147/147 27/16/16 39/20/20 140/148/148
f 26/13/13 32/14/14 139/147/147 140/148/148
f 139/147/147 137/145/145 28/17/17 27/16/16
f 140/148/148 39/20/20 23/7/7 20/4/4
f 140/148/148 20/4/4 19/3/3 26/13/13
f 29/161/18 28/158/17 135/156/143 134/155/142
f 29/161/18 134/155/142 141/162/149 35/163/25
f 141/162/149 134/155/142 132/151/140 131/150/139
f 35/163/25 141/162/149 143/164/150 142/165/54
f 143/164/150 141/162/149 131/150/139 130/149/138
f 143/164/150 130/149/138 128/144/137 144/166/151
f 143/164/150 144/166/151 145/167/152 142/165/54
f 145/167/152 144/166/151 146/168/153
f 145/167/152 146/168/153 147/169/154
f 145/152/152 147/154/154 15/69/69 72/68/68
f 58/53/53 142/54/54 145/152/152 72/68/68
f 15/69/69 147/154/154 148/101/101 84/83/83
f 149/170/102 148/171/101 150/181/155 151/182/156
f 149/170/102 151/182/156 152/183/157 153/184/103
f 153/184/103 152/183/157 154/185/158 155/186/104
f 155/186/104 154/185/158 156/187/159 157/188/105
f 157/188/105 156/187/159 158/189/160 159/190/106
f 159/190/106 158/189/160 160/191/161 161/192/107
f 161/192/107 160/191/161 110/122/118 108/121/108
f 110/122/118 160/191/161 162/193/162 163/194/163
f 110/122/118 163/194/163 164/195/164 111/123/119
f 164/195/164 163/194/163 162/193/162
f 164/195/164 113/128/121 112/124/120 111/123/119
f 114/129/122 120/135/128 115/130/123
f 120/135/128 125/140/133 121/136/129
f 166/196/165 165/197/166 167/198/167
f 166/196/165 150/181/155 146/168/153
f 166/196/165 146/168/153 144/166/151 128/144/137
f 150/181/155 166/196/165 167/198/167 151/182/156
f 151/182/156 167/198/167 168/199/168 152/183/157
f 152/183/157 168/199/168 169/200/169 154/185/158
f 154/185/158 169/200/169 170/201/170 156/187/159
f 156/187/159 170/201/170 171/202/171 158/189/160
f 171/202/171 170/201/170 165/197/166 162/193/162
f 171/202/171 162/193/162 160/191/161 158/189/160
f 165/197/166 170/201/170 169/200/169
f 165/197/166 169/200/169 168/199/168
f 168/199/168 167/198/167 165/197/166
f 150/181/155 148/171/101 147/169/154 146/168/153
f 97/98/98 95/95/95 94/94/94 98/99/99
f 94/94/94 93/93/93 172/172/172 173/173/173
f 94/94/94 173/173/173 81/79/79 98/99/99
f 173/173/173 172/172/172 65/60/60 69/65/65
f 173/173/173 69/65/65 76/75/75 81/79/79
f 172/172/172 93/93/93 74/72/72 73/71/71
f 172/172/172 73/71/71 66/61/61 65/60/60
f 92/91/91 75/73/73 74/72/72 89/88/88
f 86/85/85 79/80/80 82/81/81 85/84/84
f 86/85/85 88/87/87 80/78/78 79/80/80
f 83/82/82 174/174/174 71/67/67 70/66/66
f 83/82/82 82/81/81 79/80/80 78/77/77
f 83/82/82 78/77/77 175/175/175 174/174/174
f 175/175/175 41/21/21 40/22/22 174/174/174
f 175/175/175 78/77/77 77/76/76 176/176/176
f 175/175/175 176/176/176 42/31/31 41/21/21
f 176/176/176 77/76/76 68/64/64 67/63/63
f 176/176/176 67/63/63 177/177/177 42/31/31
f 174/174/174 40/22/22 59/26/26 71/67/67
f 77/76/76 76/75/75 69/65/65 68/64/64
f 13/70/70 107/117/117 55/50/50 57/52/52
f 72/68/68 71/67/67 59/26/26 58/53/53
f 67/63/63 64/59/59 43/33/33 177/177/177
f 66/61/61 57/52/52 56/51/51 62/57/57
f 64/59/59 63/58/58 44/34/34 43/33/33
f 63/58/58 62/57/57 56/51/51 178/178/178
f 63/58/58 178/178/178 37/29/29 44/34/34
f 178/178/178 56/51/51 7/42/42 48/43/43
f 178/178/178 48/43/43 38/30/30 37/29/29
f 34/23/23 49/24/24 52/38/38 46/37/37
f 48/43/43 30/12/12 25/9/9 38/30/30
f 45/35/35 21/5/5 23/7/7 5/32/32
f 45/35/35 44/34/34 37/29/29 36/28/28
f 45/35/35 36/28/28 22/6/6 21/5/5
f 106/116/116 51/47/47 9/44/44 7/42/42
f 106/116/116 7/42/42 55/50/50 107/117/117
f 177/177/177 43/33/33 5/32/32 42/31/31
f 80/78/78 88/87/87 180/179/179 179/180/180
f 87/86/86 17/96/96 180/179/179 88/87/87
f 179/180/180 180/179/179 17/96/96 98/99/99
f 81/79/79 80/78/78 179/180/180 98/99/99
f 4/19/19 5/32/32 23/7/7 39/20/20
f 181/203/181 113/128/121 164/195/164
f 166/196/165 181/203/181 165/197/166
f 181/203/181 162/193/162 165/197/166
f 181/203/181 164/195/164 162/193/162
f 181/203/181 114/129/122 113/128/121
f 125/140/133 120/135/128 181/203/181
f 181/203/181 120/135/128 114/129/122
f 126/141/134 181/203/181 129/143/136
f 125/140/133 181/203/181 126/141/134
f 128/144/137 181/203/181 166/196/165
f 129/143/136 181/203/181 128/144/137
f 61/45/45 6/36/36 10/39/39 53/49/49
