# This file uses centimeters as units for non-parametric coordinates.

mtllib Ore_damas_low.mtl
g default
v 2.511115 0.403755 0.309021
v 2.710783 0.278214 0.086717
v 2.300269 0.509837 0.313853
v 2.576943 0.425246 0.022405
v 2.486138 0.522285 0.083273
v 1.820238 0.169689 0.524264
v 2.028960 0.475695 0.298967
v 1.781092 0.133770 0.475422
v 1.963987 0.427797 0.349548
v 1.797166 0.279879 0.428431
v 2.140522 0.609628 0.054590
v 2.169833 0.572806 -0.003359
v 1.917923 0.567323 0.069965
v 2.187886 0.486731 -0.196317
v 2.330813 0.356183 -0.364920
v 1.806936 0.493444 -0.113025
v 1.983640 0.444975 -0.321313
v 2.447875 0.395740 0.377879
v 2.437980 0.323299 0.397048
v 2.532614 0.352213 0.290876
v 2.493665 0.489348 0.247545
v 2.419909 0.498385 0.343192
v 2.549930 0.425655 0.162554
v 2.327260 0.456970 0.369706
v 2.265474 0.423578 0.367653
v 2.440557 0.310819 0.413638
v 2.670715 0.261705 0.193992
v 2.695969 0.148493 0.196699
v 2.723103 0.164362 0.041833
v 2.219672 0.428024 0.398501
v 2.222084 0.294965 0.525549
v 2.445698 0.258415 0.475059
v 2.116220 0.415776 0.409935
v 2.038352 0.243972 0.520958
v 2.730755 0.151804 -0.187170
v 2.357664 0.552634 0.283438
v 2.260144 0.567320 0.224398
v 2.233596 0.494715 0.290797
v 2.591389 0.349462 0.155407
v 2.522118 0.419449 -0.161869
v 2.464417 0.473125 -0.069163
v 2.410972 0.496585 0.011859
v 2.381381 0.581245 0.082887
v 2.325367 0.589362 0.169733
v 2.429712 0.550404 0.202708
v 1.895199 0.185909 0.544112
v 1.905878 0.082515 0.531882
v 2.162857 0.502451 0.306139
v 1.985500 0.381386 0.417563
v 1.750606 0.081390 0.483307
v 1.887338 0.412062 0.330287
v 1.859396 0.352576 0.422482
v 1.726141 0.284048 0.362801
v 1.773100 0.345735 0.349172
v 1.969715 0.528984 0.232771
v 2.090303 0.583684 0.206115
v 2.015933 0.577788 0.147076
v 2.550219 0.318842 -0.301019
v 2.562526 0.374246 -0.241366
v 1.818690 0.381255 0.313320
v 1.625747 0.167689 0.397453
v 2.122468 0.625095 0.109506
v 2.185229 0.587943 0.138674
v 2.230023 0.581714 0.057498
v 2.083181 0.575489 0.000790
v 2.042649 0.613924 0.056042
v 2.278845 0.551399 -0.005738
v 2.203681 0.550853 -0.047459
v 2.115148 0.558643 -0.083013
v 2.386187 0.387147 -0.298414
v 2.445159 0.389129 -0.277302
v 2.437489 0.324473 -0.362391
v 1.956196 0.568367 -0.010031
v 1.858225 0.539591 -0.026427
v 1.823574 0.511716 0.072485
v 2.166406 0.504192 -0.156320
v 2.241551 0.520072 -0.114268
v 2.289928 0.510300 -0.206726
v 2.232023 0.492361 -0.275284
v 2.102798 0.485078 -0.233042
v 2.065252 0.472754 -0.181828
v 2.301485 0.441963 -0.330886
v 2.367850 0.457192 -0.286694
v 2.228894 0.374784 -0.453496
v 2.196413 0.455858 -0.412458
v 2.165914 0.493459 -0.353137
v 2.069131 0.448729 -0.353025
v 2.068169 0.493624 -0.292925
v 1.722155 0.517496 -0.027163
v 1.697097 0.454183 -0.093912
v 1.657953 0.391695 0.026258
v 1.721195 0.469104 0.060426
v 1.892650 0.514582 -0.101815
v 1.929760 0.456903 -0.165241
v 1.821976 0.428287 -0.182610
v 1.967036 0.349227 -0.382266
v 1.884207 0.379441 -0.288503
v 1.967985 0.441744 -0.237394
v 2.083761 0.375134 -0.422842
v 1.641131 0.369357 0.154372
v 1.666427 0.331258 0.247039
v 1.731475 0.387664 0.244723
v 1.713222 0.444008 0.173873
v 1.806255 0.428557 0.242836
v 1.802119 0.486290 0.195518
v 1.899734 0.456763 0.264359
v 1.899529 0.519258 0.194313
v 1.486794 0.183933 0.096208
v 1.519813 0.176194 0.257294
v 1.479677 0.136030 0.083562
v 1.508489 0.123325 0.252233
v 1.605195 0.119070 0.390338
v 1.615864 0.039694 0.359468
v 1.746516 0.021524 0.467067
v 1.907952 0.021438 0.528402
v 2.054856 0.148910 0.539685
v 2.060116 0.064381 0.498051
v 2.208421 0.077035 0.462859
v 2.220862 0.205262 0.508650
v 1.907215 0.013178 0.502074
v 2.058714 0.036620 0.486102
v 2.200493 0.043717 0.451444
v 2.344934 0.026670 0.400323
v 2.360606 0.058505 0.411495
v 2.187530 0.034675 0.427290
v 2.474709 0.001583 0.299852
v 2.506582 0.014643 0.325508
v 2.418168 0.056739 -0.438434
v 2.593865 -0.003197 -0.205935
v 2.542606 0.031940 -0.338368
v 2.626868 -0.006220 -0.215850
v 2.652352 0.007828 0.052617
v 2.629741 0.006057 0.201530
v 2.669952 0.032397 0.052430
v 2.656077 0.027986 0.205383
v 2.532706 0.037072 0.343894
v 2.583239 0.133542 0.358762
v 2.416006 0.173963 0.452748
v 2.600994 0.248828 0.355989
v 2.563860 0.320813 0.311918
v 2.663989 0.016791 -0.224568
v 2.618016 0.143865 -0.331445
v 2.567960 0.050911 -0.343312
v 2.430639 0.065843 -0.456455
v 2.454323 0.135517 -0.481839
v 2.276942 0.083644 -0.487714
v 2.283693 0.144202 -0.499244
v 2.150234 0.150945 -0.504724
v 2.023680 0.184197 -0.485488
v 2.139164 0.080458 -0.500951
v 2.003856 0.094286 -0.473940
v 1.896784 0.113780 -0.411638
v 1.898007 0.234532 -0.429697
v 1.819033 0.127551 -0.323841
v 1.812509 0.260214 -0.338098
v 1.722805 0.136046 -0.256361
v 1.710326 0.261724 -0.264741
v 1.644835 0.120374 -0.175873
v 1.636377 0.244242 -0.174882
v 1.545779 0.132392 -0.071679
v 1.547883 0.213301 -0.055577
v 1.606929 0.074816 -0.059265
v 1.514506 0.081452 0.071383
v 1.535986 0.060786 0.227152
v 1.915348 0.065400 -0.346824
v 2.128246 0.067589 -0.477454
v 1.991558 0.069668 -0.436990
v 1.903192 0.087665 -0.367502
v 1.833672 0.105164 -0.295720
v 1.748571 0.106040 -0.238957
v 1.668391 0.098832 -0.169649
v 1.991129 0.550869 -0.064456
v 2.032949 0.512320 -0.129704
v 2.424264 0.447026 -0.223572
v 2.364950 0.483811 -0.152599
v 2.313897 0.519885 -0.067754
v 2.372494 0.537978 0.026227
v 2.160462 0.567181 0.210831
v 2.011843 0.457608 -0.248701
v 2.016775 0.465297 -0.291752
v 2.072144 0.047664 0.047858
vt 0.664678 0.408070
vt 0.688843 0.421373
vt 0.690437 0.442707
vt 0.649822 0.416101
vt 0.668622 0.379855
vt 0.697104 0.394262
vt 0.637482 0.372160
vt 0.723104 0.403626
vt 0.742709 0.408299
vt 0.789870 0.405652
vt 0.770077 0.461593
vt 0.759077 0.410627
vt 0.690957 0.448687
vt 0.693815 0.471634
vt 0.571826 0.377244
vt 0.591127 0.409649
vt 0.563346 0.432428
vt 0.534569 0.374361
vt 0.616233 0.336032
vt 0.616317 0.383541
vt 0.637024 0.295178
vt 0.606472 0.278020
vt 0.832718 0.453636
vt 0.829129 0.397791
vt 0.509392 0.296888
vt 0.585224 0.259758
vt 0.727593 0.382485
vt 0.709304 0.372256
vt 0.730406 0.351903
vt 0.745879 0.376643
vt 0.661785 0.307871
vt 0.655245 0.336600
vt 0.685948 0.325109
vt 0.708669 0.341064
vt 0.683861 0.358821
vt 0.904717 0.431942
vt 0.882429 0.444816
vt 0.866103 0.385895
vt 0.893361 0.388425
vt 0.926487 0.425970
vt 0.898905 0.471575
vt 0.802834 0.361989
vt 0.765530 0.372894
vt 0.826928 0.372409
vt 0.956554 0.369230
vt 0.984955 0.076973
vt 0.847839 0.359902
vt 0.886780 0.356686
vt 0.909100 0.360432
vt 0.807892 0.332221
vt 0.771592 0.332548
vt 0.786242 0.311354
vt 0.574434 0.239443
vt 0.519422 0.229800
vt 0.868686 0.349693
vt 0.743932 0.296432
vt 0.754426 0.308676
vt 0.740479 0.322914
vt 0.720517 0.304144
vt 0.752382 0.275207
vt 0.768725 0.289209
vt 0.729098 0.282224
vt 0.699332 0.291396
vt 0.714775 0.273169
vt 0.736165 0.256530
vt 0.622923 0.218790
vt 0.611349 0.233793
vt 0.596436 0.204938
vt 0.628308 0.191381
vt 0.803052 0.282008
vt 0.785257 0.263049
vt 0.809745 0.250303
vt 0.831616 0.275061
vt 0.702817 0.230407
vt 0.713336 0.238720
vt 0.696601 0.258678
vt 0.673651 0.240534
vt 0.722432 0.211453
vt 0.739270 0.218376
vt 0.681265 0.216410
vt 0.652226 0.206798
vt 0.641583 0.227215
vt 0.658229 0.162269
vt 0.677522 0.178429
vt 0.692532 0.190908
vt 0.717056 0.172642
vt 0.723531 0.192187
vt 0.843504 0.240148
vt 0.849474 0.216135
vt 0.884164 0.243051
vt 0.860408 0.261981
vt 0.816381 0.219428
vt 0.794201 0.229293
vt 0.778498 0.206753
vt 0.808310 0.191426
vt 0.743753 0.171774
vt 0.741959 0.138570
vt 0.779789 0.160403
vt 0.760263 0.190528
vt 0.702376 0.147630
vt 0.649556 0.093650
vt 0.699433 0.088428
vt 0.754595 0.100283
vt 0.800784 0.121541
vt 0.847405 0.138704
vt 0.887032 0.162683
vt 0.931924 0.198884
vt 0.966181 0.248141
vt 0.903113 0.281691
vt 0.910330 0.314911
vt 0.972755 0.306993
vt 0.885434 0.319067
vt 0.874827 0.293479
vt 0.861329 0.325632
vt 0.850291 0.307078
vt 0.835907 0.340242
vt 0.823421 0.315695
vt 0.979499 0.080943
vt 0.971886 0.062073
vt 0.984033 0.122775
vt 0.970872 0.140408
vt 0.966419 0.137072
vt 0.978211 0.120859
vt 0.984034 0.101599
vt 0.841016 0.482168
vt 0.989980 0.100031
vt 0.773380 0.488367
vt 0.974503 0.101745
vt 0.972843 0.083248
vt 0.966341 0.065743
vt 0.954096 0.052748
vt 0.961597 0.044881
vt 0.939616 0.041920
vt 0.947763 0.028309
vt 0.963979 0.067617
vt 0.951870 0.055554
vt 0.937867 0.045805
vt 0.921396 0.038677
vt 0.922016 0.034373
vt 0.936725 0.049031
vt 0.902568 0.037033
vt 0.901990 0.032196
vt 0.853158 0.067633
vt 0.846781 0.100738
vt 0.620661 0.483723
vt 0.694621 0.497194
vt 0.632355 0.451427
vt 0.642261 0.427272
vt 0.845607 0.082096
vt 0.850020 0.065770
vt 0.868576 0.042249
vt 0.554206 0.155958
vt 0.882474 0.032776
vt 0.604575 0.118004
vt 0.866115 0.039634
vt 0.880475 0.029625
vt 0.901385 0.027788
vt 0.872505 0.017923
vt 0.899108 0.015309
vt 0.924164 0.018822
vt 0.854481 0.028650
vt 0.845937 0.063376
vt 0.834574 0.050399
vt 0.842144 0.080448
vt 0.830545 0.075123
vt 0.844132 0.101185
vt 0.835317 0.103380
vt 0.853588 0.117049
vt 0.847690 0.120993
vt 0.870762 0.147343
vt 0.858321 0.134416
vt 0.771084 0.249935
vt 0.753622 0.232566
vt 0.629720 0.248950
vt 0.655934 0.262069
vt 0.681239 0.278145
vt 0.677785 0.308679
vt 0.754658 0.341357
vt 0.738161 0.184362
vt 0.746089 0.194214
vt 0.864244 0.129151
vt 0.877022 0.138606
vt 0.890388 0.143873
vt 0.887584 0.157328
vt 0.904339 0.145336
vt 0.903396 0.160798
vt 0.918306 0.146891
vt 0.919059 0.161435
vt 0.931285 0.145053
vt 0.933727 0.159264
vt 0.948076 0.144553
vt 0.952390 0.152780
vt 0.942914 0.136343
vt 0.960516 0.132568
vt 0.970313 0.118304
vt 0.867196 0.127793
vt 0.894687 0.135358
vt 0.881287 0.135856
vt 0.893844 0.139057
vt 0.905388 0.140830
vt 0.917288 0.141817
vt 0.929607 0.141669
vt 0.913925 0.090083
vn 0.801032 0.329462 0.499802
vn 0.425281 0.272532 0.863054
vn 0.371500 0.546825 0.750313
vn 0.777661 0.462960 0.425337
vn 0.726800 0.620405 0.294720
vn 0.404630 0.660902 0.632046
vn 0.805867 0.561481 0.187928
vn -0.104878 0.414753 0.903870
vn 0.122880 0.675794 0.726776
vn -0.130656 0.685879 0.715890
vn 0.096713 0.350030 0.931733
vn 0.143129 0.747351 0.648830
vn 0.382691 0.698789 0.604352
vn 0.422712 0.104233 0.900250
vn 0.896680 0.442578 -0.009488
vn 0.839804 0.389247 0.378439
vn 0.919125 -0.151822 0.363537
vn 0.998561 0.053531 -0.003227
vn 0.710986 0.699634 -0.070789
vn 0.696468 0.653491 0.296449
vn 0.376676 0.896279 -0.234094
vn 0.689391 0.709465 -0.146286
vn -0.068120 0.410712 0.909217
vn -0.144355 0.651280 0.744981
vn 0.969396 0.184835 -0.161579
vn 0.744152 0.629944 -0.222280
vn -0.257615 0.684137 0.682342
vn 0.122787 0.874187 0.469809
vn -0.039302 0.899552 0.435043
vn -0.033470 0.764925 0.643249
vn 0.371118 0.860522 -0.348960
vn 0.602379 0.792947 -0.091510
vn 0.284744 0.940030 -0.187790
vn 0.134213 0.985841 0.100516
vn 0.495181 0.849577 0.181696
vn -0.471569 0.279225 0.836455
vn -0.172232 0.321694 0.931047
vn -0.254800 0.641966 0.723157
vn -0.474981 0.540461 0.694474
vn -0.437371 -0.066695 0.896805
vn -0.070708 -0.158385 0.984842
vn -0.181449 0.778610 0.600703
vn -0.026118 0.779285 0.626125
vn -0.210255 0.816469 0.537747
vn -0.579537 0.497164 0.645728
vn -0.464549 -0.050211 0.884123
vn -0.314562 0.814506 0.487474
vn -0.513642 0.676289 0.528020
vn -0.551060 0.593686 0.586405
vn -0.303742 0.786342 0.537965
vn -0.120775 0.837557 0.532834
vn -0.305706 0.896303 0.321224
vn 0.601715 0.461225 -0.652082
vn 0.704930 0.157685 -0.691527
vn -0.388120 0.799870 0.457790
vn 0.193804 0.931892 -0.306622
vn 0.023052 0.989678 0.141442
vn 0.119740 0.980685 0.154656
vn 0.123746 0.968964 -0.213999
vn 0.004645 0.913273 -0.407322
vn -0.207665 0.974577 -0.084112
vn 0.139080 0.927319 -0.347472
vn 0.220625 0.888635 -0.402060
vn 0.163475 0.923314 -0.347516
vn -0.003409 0.896219 -0.443599
vn 0.402930 0.613956 -0.678753
vn 0.359008 0.730962 -0.580351
vn 0.338266 0.532582 -0.775843
vn 0.322794 0.466006 -0.823797
vn -0.373329 0.918967 0.126989
vn -0.240068 0.947020 -0.213354
vn -0.267574 0.955098 -0.127249
vn -0.370271 0.908789 0.192360
vn -0.142224 0.982722 -0.118445
vn -0.041034 0.911436 -0.409391
vn 0.132638 0.948835 -0.286565
vn 0.171237 0.959262 -0.224710
vn -0.117948 0.992699 0.025231
vn -0.159444 0.898655 -0.408653
vn 0.124255 0.970430 -0.206947
vn 0.453333 0.685078 -0.570225
vn 0.413803 0.763518 -0.495790
vn 0.195350 0.365970 -0.909892
vn 0.125495 0.686292 -0.716418
vn 0.020309 0.946903 -0.320878
vn -0.328832 0.625411 -0.707623
vn -0.212449 0.967872 -0.134498
vn -0.549027 0.834385 -0.048701
vn -0.703569 0.563878 -0.432473
vn -0.819269 0.559635 -0.124926
vn -0.615943 0.772968 0.152101
vn -0.224497 0.787192 -0.574395
vn -0.132661 0.822554 -0.552997
vn -0.163881 0.815109 -0.555645
vn -0.430209 0.647673 -0.628841
vn -0.477082 0.691347 -0.542616
vn -0.406503 0.532286 -0.742581
vn -0.482816 0.658460 -0.577337
vn -0.336393 0.850190 -0.404990
vn -0.230045 0.410543 -0.882346
vn 0.046561 0.193451 -0.980004
vn -0.257716 0.217426 -0.941440
vn -0.524405 0.269728 -0.807617
vn -0.605957 0.334623 -0.721695
vn -0.607907 0.347621 -0.713869
vn -0.764229 0.355883 -0.537867
vn -0.853618 0.430387 -0.293434
vn -0.859126 0.511479 0.017105
vn -0.766195 0.631040 0.121387
vn -0.659772 0.620740 0.423535
vn -0.753746 0.521117 0.400380
vn -0.519685 0.652522 0.551492
vn -0.592779 0.751070 0.290700
vn -0.358385 0.703833 0.613334
vn -0.399196 0.829044 0.391573
vn -0.323562 0.725210 0.607765
vn -0.360913 0.837501 0.410286
vn -0.964937 -0.217891 -0.146355
vn -0.911345 -0.195966 0.362004
vn -0.706502 -0.096975 0.701036
vn -0.252944 -0.964351 0.077756
vn -0.181358 -0.972160 0.148374
vn -0.030447 -0.367838 0.929391
vn 0.237309 -0.379659 0.894172
vn 0.145435 -0.155289 0.977105
vn 0.243623 -0.380744 0.892010
vn 0.190029 -0.247704 0.950017
vn 0.019804 -0.999538 -0.023066
vn 0.228714 -0.719886 0.655328
vn 0.211931 -0.575338 0.789982
vn 0.128917 -0.836397 0.532748
vn 0.269250 -0.416941 0.868139
vn -0.022246 -0.999711 -0.009089
vn -0.072370 -0.997200 0.018824
vn 0.235539 -0.837959 0.492286
vn -0.112166 -0.990726 -0.076688
vn -0.081492 -0.986739 -0.140374
vn 0.127550 -0.920802 -0.368585
vn 0.353487 -0.916759 -0.186011
vn 0.175873 -0.984212 0.019877
vn 0.152632 -0.985365 0.075890
vn 0.887164 -0.458721 0.050155
vn 0.826151 -0.422450 0.372841
vn 0.500508 -0.449621 0.739820
vn 0.649426 -0.244527 0.720037
vn 0.321034 -0.314741 0.893239
vn 0.735190 0.242515 0.632995
vn 0.619600 0.665690 0.415876
vn 0.847238 -0.460583 -0.264670
vn 0.633878 -0.403964 -0.659554
vn 0.415846 -0.517591 -0.747778
vn 0.418105 0.278264 -0.864730
vn 0.064798 -0.518190 -0.852807
vn 0.241013 0.298634 -0.923434
vn -0.088171 -0.270524 -0.958667
vn -0.366450 -0.275858 -0.888604
vn -0.624042 -0.252781 -0.739374
vn -0.659979 -0.272035 -0.700303
vn -0.636449 -0.226350 -0.737359
vn -0.723375 -0.257506 -0.640640
vn -0.820626 -0.228735 -0.523691
vn -0.131913 -0.986113 -0.100896
vn -0.635490 -0.754781 -0.162660
vn -0.261792 -0.965122 -0.001891
vn -0.034574 -0.996106 -0.081097
vn -0.054391 -0.997253 -0.050288
vn -0.259074 -0.898700 -0.353865
vn -0.525619 -0.741010 -0.417885
vn -0.530827 -0.608984 -0.589373
vn -0.442176 -0.741547 -0.504567
vn -0.471069 -0.732287 -0.491782
vn -0.109520 0.867336 -0.485523
vn -0.115972 0.827237 -0.549754
vn 0.398701 0.853643 -0.335158
vn 0.329229 0.927679 -0.176126
vn 0.284049 0.931970 -0.225275
vn 0.320729 0.798605 -0.509277
vn 0.018277 0.838852 0.544053
vn -0.379916 0.914005 -0.142332
vn -0.353882 0.931722 0.081623
vn -0.067795 -0.996746 -0.043597
s 1
g Group42735
usemtl initialShadingGroup
f 1/1/1 18/2/2 19/3/3 20/4/4
f 1/1/1 21/5/5 22/6/6 18/2/2
f 1/1/1 20/4/4 23/7/7 21/5/5
f 18/2/2 22/6/6 24/8/8
f 18/2/2 24/8/8 25/9/9 19/3/3
f 33/10/10 31/11/11 30/12/12
f 30/12/12 31/11/11 26/13/13
f 31/11/11 32/14/14 26/13/13
f 2/15/15 27/16/16 28/17/17 29/18/18
f 27/16/16 2/15/15 4/19/19 39/20/20
f 41/21/21 4/19/19 40/22/22
f 29/18/18 40/22/22 2/15/15
f 4/19/19 2/15/15 40/22/22
f 26/13/13 19/3/3 25/9/9 30/12/12
f 34/23/23 31/11/11 33/10/10 49/24/24
f 29/18/18 35/25/25 59/26/26 40/22/22
f 3/27/27 36/28/28 37/29/29 38/30/30
f 3/27/27 24/8/8 22/6/6 36/28/28
f 3/27/27 38/30/30 25/9/9 24/8/8
f 4/19/19 41/21/21 42/31/31 5/32/32
f 5/32/32 43/33/33 44/34/34 45/35/35
f 6/36/36 46/37/37 52/38/38 10/39/39
f 6/36/36 8/40/40 47/41/41 46/37/37
f 7/42/42 33/10/10 30/12/12 48/43/43
f 7/42/42 9/44/44 49/24/24 33/10/10
f 8/40/40 6/36/36 61/45/45
f 8/46/40 50/118/46 47/119/41
f 9/44/44 51/47/47 52/38/38 49/24/24
f 52/38/38 54/48/48 53/49/49 10/39/39
f 55/50/50 7/42/42 56/51/51 57/52/52
f 58/53/53 59/26/26 35/25/25 142/54/54
f 60/55/55 54/48/48 52/38/38 51/47/47
f 11/56/56 62/57/57 63/58/58 64/59/59
f 65/60/60 66/61/61 62/57/57 11/56/56
f 11/56/56 64/59/59 12/62/62 65/60/60
f 12/62/62 64/59/59 67/63/63 68/64/64
f 12/62/62 68/64/64 69/65/65 65/60/60
f 70/66/66 71/67/67 72/68/68 15/69/69
f 13/70/70 57/52/52 66/61/61 73/71/71
f 13/70/70 73/71/71 74/72/72 75/73/73
f 14/74/74 76/75/75 77/76/76 78/77/77
f 80/78/78 81/79/79 76/75/75 14/74/74
f 14/74/74 78/77/77 79/80/80 80/78/78
f 15/69/69 82/81/81 83/82/82 70/66/66
f 15/69/69 84/83/83 85/84/84 82/81/81
f 86/85/85 85/84/84 87/86/86 88/87/87
f 89/88/88 90/89/89 91/90/90 92/91/91
f 16/92/92 93/93/93 94/94/94 95/95/95
f 89/88/88 74/72/72 93/93/93 16/92/92
f 16/92/92 95/95/95 90/89/89 89/88/88
f 17/96/96 96/97/97 97/98/98 98/99/99
f 17/96/96 87/86/86 99/100/100 96/97/97
f 99/100/100 84/83/83 148/101/101 149/102/102
f 96/97/97 99/100/100 149/102/102 153/103/103
f 99/100/100 87/86/86 85/84/84 84/83/83
f 96/97/97 153/103/103 155/104/104 97/98/98
f 97/98/98 155/104/104 157/105/105 95/95/95
f 95/95/95 157/105/105 159/106/106 90/89/89
f 90/89/89 159/106/106 161/107/107 91/90/90
f 91/90/90 161/107/107 108/108/108 100/109/109
f 101/110/110 100/109/109 108/108/108 109/111/111
f 100/109/109 101/110/110 102/112/112 103/113/113
f 100/109/109 103/113/113 92/91/91 91/90/90
f 103/113/113 102/112/112 104/114/114 105/115/115
f 103/113/113 105/115/115 75/73/73 92/91/91
f 105/115/115 104/114/114 106/116/116 107/117/117
f 105/115/115 107/117/117 13/70/70 75/73/73
f 104/114/114 102/112/112 54/48/48 60/55/55
f 104/114/114 60/55/55 51/47/47 106/116/116
f 102/112/112 101/110/110 53/49/49 54/48/48
f 61/45/45 53/49/49 101/110/110 109/111/111
f 109/120/111 108/121/108 110/122/118 111/123/119
f 109/120/111 111/123/119 112/124/120 61/126/45
f 112/124/120 50/118/46 8/46/40 61/126/45
f 50/118/46 112/124/120 113/128/121 114/129/122
f 50/118/46 114/129/122 115/130/123 47/119/41
f 47/119/41 115/130/123 117/131/124 116/132/125
f 117/131/124 118/133/126 119/134/127 116/132/125
f 117/131/124 115/130/123 120/135/128 121/136/129
f 117/131/124 121/136/129 122/137/130 118/133/126
f 122/137/130 123/138/131 124/139/132 118/133/126
f 122/137/130 121/136/129 125/140/133
f 122/137/130 125/140/133 123/138/131
f 125/140/133 126/141/134 127/142/135 123/138/131
f 129/143/136 128/144/137 130/149/138 131/150/139
f 129/143/136 131/150/139 132/151/140
f 129/143/136 132/151/140 133/153/141 126/141/134
f 133/153/141 132/151/140 134/155/142 135/156/143
f 133/153/141 135/156/143 136/157/144 127/142/135
f 133/153/141 127/142/135 126/141/134
f 136/157/144 135/156/143 28/158/17 137/159/145
f 136/157/144 137/159/145 138/160/146 124/139/132
f 136/157/144 124/139/132 123/138/131 127/142/135
f 138/160/146 119/134/127 118/133/126 124/139/132
f 116/125/125 119/127/127 31/11/11 34/23/23
f 116/125/125 34/23/23 46/37/37 47/41/41
f 119/127/127 138/146/146 32/14/14 31/11/11
f 138/146/146 137/145/145 139/147/147 32/14/14
f 139/147/147 27/16/16 39/20/20 140/148/148
f 26/13/13 32/14/14 139/147/147 140/148/148
f 139/147/147 137/145/145 28/17/17 27/16/16
f 140/148/148 39/20/20 23/7/7 20/4/4
f 140/148/148 20/4/4 19/3/3 26/13/13
f 29/161/18 28/158/17 135/156/143 134/155/142
f 29/161/18 134/155/142 141/162/149 35/163/25
f 141/162/149 134/155/142 132/151/140 131/150/139
f 35/163/25 141/162/149 143/164/150 142/165/54
f 143/164/150 141/162/149 131/150/139 130/149/138
f 143/164/150 130/149/138 128/144/137 144/166/151
f 143/164/150 144/166/151 145/167/152 142/165/54
f 145/167/152 144/166/151 146/168/153
f 145/167/152 146/168/153 147/169/154
f 145/152/152 147/154/154 15/69/69 72/68/68
f 58/53/53 142/54/54 145/152/152 72/68/68
f 15/69/69 147/154/154 148/101/101 84/83/83
f 149/170/102 148/171/101 150/181/155 151/182/156
f 149/170/102 151/182/156 152/183/157 153/184/103
f 153/184/103 152/183/157 154/185/158 155/186/104
f 155/186/104 154/185/158 156/187/159 157/188/105
f 157/188/105 156/187/159 158/189/160 159/190/106
f 159/190/106 158/189/160 160/191/161 161/192/107
f 161/192/107 160/191/161 110/122/118 108/121/108
f 110/122/118 160/191/161 162/193/162 163/194/163
f 110/122/118 163/194/163 164/195/164 111/123/119
f 164/195/164 163/194/163 162/193/162
f 164/195/164 113/128/121 112/124/120 111/123/119
f 114/129/122 120/135/128 115/130/123
f 120/135/128 125/140/133 121/136/129
f 166/196/165 165/197/166 167/198/167
f 166/196/165 150/181/155 146/168/153
f 166/196/165 146/168/153 144/166/151 128/144/137
f 150/181/155 166/196/165 167/198/167 151/182/156
f 151/182/156 167/198/167 168/199/168 152/183/157
f 152/183/157 168/199/168 169/200/169 154/185/158
f 154/185/158 169/200/169 170/201/170 156/187/159
f 156/187/159 170/201/170 171/202/171 158/189/160
f 171/202/171 170/201/170 165/197/166 162/193/162
f 171/202/171 162/193/162 160/191/161 158/189/160
f 165/197/166 170/201/170 169/200/169
f 165/197/166 169/200/169 168/199/168
f 168/199/168 167/198/167 165/197/166
f 150/181/155 148/171/101 147/169/154 146/168/153
f 97/98/98 95/95/95 94/94/94 98/99/99
f 94/94/94 93/93/93 172/172/172 173/173/173
f 94/94/94 173/173/173 81/79/79 98/99/99
f 173/173/173 172/172/172 65/60/60 69/65/65
f 173/173/173 69/65/65 76/75/75 81/79/79
f 172/172/172 93/93/93 74/72/72 73/71/71
f 172/172/172 73/71/71 66/61/61 65/60/60
f 92/91/91 75/73/73 74/72/72 89/88/88
f 86/85/85 79/80/80 82/81/81 85/84/84
f 86/85/85 88/87/87 80/78/78 79/80/80
f 83/82/82 174/174/174 71/67/67 70/66/66
f 83/82/82 82/81/81 79/80/80 78/77/77
f 83/82/82 78/77/77 175/175/175 174/174/174
f 175/175/175 41/21/21 40/22/22 174/174/174
f 175/175/175 78/77/77 77/76/76 176/176/176
f 175/175/175 176/176/176 42/31/31 41/21/21
f 176/176/176 77/76/76 68/64/64 67/63/63
f 176/176/176 67/63/63 177/177/177 42/31/31
f 174/174/174 40/22/22 59/26/26 71/67/67
f 77/76/76 76/75/75 69/65/65 68/64/64
f 13/70/70 107/117/117 55/50/50 57/52/52
f 72/68/68 71/67/67 59/26/26 58/53/53
f 67/63/63 64/59/59 43/33/33 177/177/177
f 66/61/61 57/52/52 56/51/51 62/57/57
f 64/59/59 63/58/58 44/34/34 43/33/33
f 63/58/58 62/57/57 56/51/51 178/178/178
f 63/58/58 178/178/178 37/29/29 44/34/34
f 178/178/178 56/51/51 7/42/42 48/43/43
f 178/178/178 48/43/43 38/30/30 37/29/29
f 34/23/23 49/24/24 52/38/38 46/37/37
f 48/43/43 30/12/12 25/9/9 38/30/30
f 45/35/35 21/5/5 23/7/7 5/32/32
f 45/35/35 44/34/34 37/29/29 36/28/28
f 45/35/35 36/28/28 22/6/6 21/5/5
f 106/116/116 51/47/47 9/44/44 7/42/42
f 106/116/116 7/42/42 55/50/50 107/117/117
f 177/177/177 43/33/33 5/32/32 42/31/31
f 80/78/78 88/87/87 180/179/179 179/180/180
f 87/86/86 17/96/96 180/179/179 88/87/87
f 179/180/180 180/179/179 17/96/96 98/99/99
f 81/79/79 80/78/78 179/180/180 98/99/99
f 4/19/19 5/32/32 23/7/7 39/20/20
f 181/203/181 113/128/121 164/195/164
f 166/196/165 181/203/181 165/197/166
f 181/203/181 162/193/162 165/197/166
f 181/203/181 164/195/164 162/193/162
f 181/203/181 114/129/122 113/128/121
f 125/140/133 120/135/128 181/203/181
f 181/203/181 120/135/128 114/129/122
f 126/141/134 181/203/181 129/143/136
f 125/140/133 181/203/181 126/141/134
f 128/144/137 181/203/181 166/196/165
f 129/143/136 181/203/181 128/144/137
f 61/45/45 6/36/36 10/39/39 53/49/49
