# This file uses centimeters as units for non-parametric coordinates.

mtllib Ore_gold_low.mtl
g default
v 1.024897 0.392730 0.352178
v 1.276556 0.267189 0.191075
v 0.820379 0.498812 0.300686
v 1.164676 0.414221 0.093443
v 1.060941 0.511260 0.127930
v 0.301648 0.158664 0.375662
v 0.562831 0.464670 0.214085
v 0.276923 0.122745 0.318158
v 0.486735 0.416772 0.245536
v 0.304930 0.268854 0.277145
v 0.735444 0.598603 0.008243
v 0.779129 0.561781 -0.039808
v 0.516789 0.556298 -0.036217
v 0.847917 0.475706 -0.220990
v 1.030583 0.345158 -0.345442
v 0.458543 0.482420 -0.242156
v 0.684334 0.433950 -0.395864
v 0.945603 0.384715 0.401708
v 0.930961 0.312274 0.417550
v 1.050452 0.341188 0.340413
v 1.024450 0.478324 0.288275
v 0.927885 0.487360 0.360826
v 1.101316 0.414631 0.221337
v 0.831521 0.445945 0.361709
v 0.772513 0.412553 0.343276
v 0.929027 0.299794 0.434227
v 1.209367 0.250680 0.283805
v 1.232988 0.137468 0.293140
v 1.300385 0.153338 0.151093
v 0.720150 0.416999 0.360813
v 0.688641 0.283940 0.483915
v 0.917625 0.247391 0.494799
v 0.617388 0.404751 0.344283
v 0.512766 0.232947 0.430561
v 1.368745 0.140779 -0.067603
v 0.883801 0.541609 0.286653
v 0.805526 0.556295 0.203775
v 0.762254 0.483691 0.260706
v 1.143182 0.338437 0.225489
v 1.160905 0.408424 -0.098778
v 1.080599 0.462101 -0.024786
v 1.007507 0.485560 0.039078
v 0.960070 0.570220 0.099661
v 0.882951 0.578337 0.168453
v 0.974746 0.539379 0.228026
v 0.368617 0.174884 0.414755
v 0.382167 0.071490 0.405811
v 0.689983 0.491427 0.256655
v 0.489358 0.370361 0.316824
v 0.245438 0.070365 0.317640
v 0.417983 0.401037 0.206559
v 0.366498 0.341552 0.287983
v 0.253949 0.273023 0.194970
v 0.302841 0.334710 0.194339
v 0.523354 0.517959 0.134502
v 0.646687 0.572660 0.140922
v 0.590724 0.566764 0.064209
v 1.225048 0.307817 -0.225419
v 1.221025 0.363221 -0.164642
v 0.356332 0.370230 0.171923
v 0.147952 0.156664 0.201635
v 0.703418 0.614070 0.056367
v 0.756145 0.576918 0.101196
v 0.820939 0.570689 0.034881
v 0.694501 0.564464 -0.058885
v 0.640719 0.602900 -0.016422
v 0.884838 0.540374 -0.013070
v 0.823499 0.539828 -0.073301
v 0.747632 0.547618 -0.131149
v 1.066246 0.376122 -0.266591
v 1.117466 0.378104 -0.230536
v 1.132733 0.313448 -0.314596
v 0.574984 0.557342 -0.103132
v 0.484917 0.528567 -0.145027
v 0.425177 0.500691 -0.058915
v 0.816561 0.493168 -0.188158
v 0.877793 0.509047 -0.127613
v 0.949046 0.499276 -0.203848
v 0.911490 0.481337 -0.285351
v 0.775682 0.474054 -0.279048
v 0.725853 0.461730 -0.239683
v 0.993250 0.430938 -0.320447
v 1.045450 0.446167 -0.260177
v 0.955933 0.363759 -0.457961
v 0.913696 0.444833 -0.427054
v 0.868501 0.482434 -0.377998
v 0.775183 0.437705 -0.403665
v 0.758250 0.482599 -0.345991
v 0.353957 0.506471 -0.181973
v 0.347579 0.443159 -0.252984
v 0.277847 0.380670 -0.147579
v 0.329706 0.458079 -0.097803
v 0.538176 0.503557 -0.208525
v 0.590836 0.445878 -0.259777
v 0.491570 0.417263 -0.305223
v 0.684562 0.338202 -0.459038
v 0.579754 0.368416 -0.390719
v 0.646896 0.430719 -0.319145
v 0.807877 0.364109 -0.467064
v 0.227515 0.358332 -0.028571
v 0.227219 0.320233 0.067486
v 0.290535 0.376639 0.082577
v 0.291809 0.432984 0.009425
v 0.363117 0.417533 0.100672
v 0.371732 0.475265 0.053961
v 0.447489 0.445738 0.146313
v 0.465944 0.508233 0.078741
v 0.094241 0.172908 -0.125736
v 0.083169 0.165170 0.038327
v 0.090749 0.125005 -0.139820
v 0.073601 0.112300 0.030433
v 0.130036 0.108045 0.189304
v 0.148542 0.028670 0.162390
v 0.245820 0.010499 0.300897
v 0.385092 0.010413 0.403009
v 0.523687 0.137885 0.453006
v 0.539844 0.053356 0.414277
v 0.692166 0.066010 0.419851
v 0.691963 0.194237 0.467300
v 0.391394 0.002153 0.377435
v 0.541675 0.025595 0.402386
v 0.687564 0.032693 0.406736
v 0.840403 0.015645 0.395927
v 0.852534 0.047480 0.410869
v 0.681502 0.023650 0.380002
v 0.992247 -0.009442 0.333645
v 1.016137 0.003618 0.366862
v 1.134360 0.045714 -0.393037
v 1.241797 -0.014222 -0.122145
v 1.227657 0.020915 -0.263447
v 1.276248 -0.017244 -0.122913
v 1.229317 -0.003197 0.142646
v 1.167866 -0.004968 0.280159
v 1.246331 0.021372 0.147152
v 1.192224 0.016961 0.290887
v 1.036422 0.026047 0.391541
v 1.081171 0.122517 0.419330
v 0.894947 0.162938 0.465386
v 1.099023 0.237804 0.421385
v 1.074966 0.309788 0.369017
v 1.314350 0.005767 -0.121430
v 1.298500 0.132840 -0.236691
v 1.253411 0.039886 -0.261460
v 1.151180 0.054818 -0.407087
v 1.180769 0.124492 -0.425247
v 1.011358 0.072619 -0.478147
v 1.020936 0.133177 -0.487464
v 0.893755 0.139920 -0.528287
v 0.766650 0.173172 -0.543448
v 0.882081 0.069433 -0.527599
v 0.744466 0.083261 -0.537597
v 0.624668 0.102755 -0.506058
v 0.630657 0.223507 -0.523140
v 0.526345 0.116526 -0.442137
v 0.523852 0.249189 -0.457617
v 0.415621 0.125021 -0.402721
v 0.405825 0.250699 -0.414122
v 0.319032 0.109349 -0.345903
v 0.310615 0.233217 -0.347200
v 0.195805 0.121367 -0.271852
v 0.193545 0.202277 -0.255770
v 0.251441 0.063792 -0.243601
v 0.127563 0.070427 -0.142284
v 0.106785 0.049762 0.013580
v 0.625302 0.054375 -0.438641
v 0.865300 0.056564 -0.507858
v 0.722772 0.058643 -0.505256
v 0.619092 0.076640 -0.461810
v 0.532966 0.094139 -0.411133
v 0.435822 0.095015 -0.379083
v 0.340079 0.087807 -0.333631
v 0.623149 0.539844 -0.146289
v 0.680835 0.501295 -0.198043
v 1.083017 0.436001 -0.184311
v 1.006944 0.472787 -0.131698
v 0.935140 0.508860 -0.063512
v 0.966592 0.526953 0.042680
v 0.713056 0.556156 0.164152
v 0.692181 0.446583 -0.318364
v 0.708400 0.454272 -0.358547
v 0.671328 0.036639 -0.016456
vt 0.172029 0.408070
vt 0.196194 0.421373
vt 0.197787 0.442707
vt 0.157172 0.416101
vt 0.175972 0.379855
vt 0.204455 0.394262
vt 0.144833 0.372160
vt 0.230455 0.403626
vt 0.250060 0.408299
vt 0.297220 0.405652
vt 0.277427 0.461593
vt 0.266427 0.410627
vt 0.198308 0.448687
vt 0.201166 0.471634
vt 0.079176 0.377244
vt 0.098477 0.409649
vt 0.070697 0.432428
vt 0.041920 0.374361
vt 0.123583 0.336032
vt 0.123667 0.383541
vt 0.144374 0.295178
vt 0.113822 0.278020
vt 0.340068 0.453636
vt 0.336480 0.397791
vt 0.016743 0.296888
vt 0.092574 0.259758
vt 0.234944 0.382485
vt 0.216655 0.372256
vt 0.237757 0.351903
vt 0.253229 0.376643
vt 0.169136 0.307871
vt 0.162596 0.336600
vt 0.193299 0.325109
vt 0.216020 0.341064
vt 0.191212 0.358821
vt 0.412067 0.431942
vt 0.389780 0.444816
vt 0.373454 0.385895
vt 0.400711 0.388425
vt 0.433838 0.425970
vt 0.406255 0.471575
vt 0.310185 0.361989
vt 0.272880 0.372894
vt 0.334278 0.372409
vt 0.463904 0.369230
vt 0.492306 0.076973
vt 0.355189 0.359902
vt 0.394131 0.356686
vt 0.416451 0.360432
vt 0.315242 0.332221
vt 0.278943 0.332548
vt 0.293592 0.311354
vt 0.081784 0.239443
vt 0.026772 0.229800
vt 0.376036 0.349693
vt 0.251282 0.296432
vt 0.261776 0.308676
vt 0.247830 0.322914
vt 0.227868 0.304144
vt 0.259733 0.275207
vt 0.276075 0.289209
vt 0.236448 0.282224
vt 0.206683 0.291396
vt 0.222126 0.273169
vt 0.243515 0.256530
vt 0.130273 0.218790
vt 0.118699 0.233793
vt 0.103787 0.204938
vt 0.135659 0.191381
vt 0.310402 0.282008
vt 0.292607 0.263049
vt 0.317096 0.250303
vt 0.338966 0.275061
vt 0.210168 0.230407
vt 0.220686 0.238720
vt 0.203951 0.258678
vt 0.181002 0.240534
vt 0.229783 0.211453
vt 0.246621 0.218376
vt 0.188616 0.216410
vt 0.159577 0.206798
vt 0.148933 0.227215
vt 0.165580 0.162269
vt 0.184873 0.178429
vt 0.199882 0.190908
vt 0.224406 0.172642
vt 0.230881 0.192187
vt 0.350855 0.240148
vt 0.356824 0.216135
vt 0.391514 0.243051
vt 0.367758 0.261981
vt 0.323732 0.219428
vt 0.301551 0.229293
vt 0.285849 0.206753
vt 0.315661 0.191426
vt 0.251104 0.171774
vt 0.249309 0.138570
vt 0.287139 0.160403
vt 0.267613 0.190528
vt 0.209727 0.147630
vt 0.156906 0.093650
vt 0.206783 0.088428
vt 0.261946 0.100283
vt 0.308134 0.121541
vt 0.354756 0.138704
vt 0.394383 0.162683
vt 0.439274 0.198884
vt 0.473532 0.248141
vt 0.410463 0.281691
vt 0.417680 0.314911
vt 0.480106 0.306993
vt 0.392785 0.319067
vt 0.382178 0.293479
vt 0.368680 0.325632
vt 0.357642 0.307078
vt 0.343258 0.340242
vt 0.330771 0.315695
vt 0.486850 0.080943
vt 0.479236 0.062073
vt 0.491384 0.122775
vt 0.478222 0.140408
vt 0.473769 0.137072
vt 0.485561 0.120859
vt 0.491385 0.101599
vt 0.348367 0.482168
vt 0.497330 0.100031
vt 0.280730 0.488367
vt 0.481853 0.101745
vt 0.480194 0.083248
vt 0.473691 0.065743
vt 0.461447 0.052748
vt 0.468947 0.044881
vt 0.446966 0.041920
vt 0.455114 0.028309
vt 0.471330 0.067617
vt 0.459221 0.055554
vt 0.445218 0.045805
vt 0.428747 0.038677
vt 0.429367 0.034373
vt 0.444076 0.049031
vt 0.409918 0.037033
vt 0.409341 0.032196
vt 0.360508 0.067633
vt 0.354132 0.100738
vt 0.128012 0.483723
vt 0.201971 0.497194
vt 0.139706 0.451427
vt 0.149612 0.427272
vt 0.352958 0.082096
vt 0.357371 0.065770
vt 0.375927 0.042249
vt 0.061557 0.155958
vt 0.389825 0.032776
vt 0.111926 0.118004
vt 0.373466 0.039634
vt 0.387825 0.029625
vt 0.408735 0.027788
vt 0.379856 0.017923
vt 0.406459 0.015309
vt 0.431514 0.018822
vt 0.361831 0.028650
vt 0.353288 0.063376
vt 0.341924 0.050399
vt 0.349495 0.080448
vt 0.337896 0.075123
vt 0.351483 0.101185
vt 0.342667 0.103380
vt 0.360938 0.117049
vt 0.355040 0.120993
vt 0.378112 0.147343
vt 0.365672 0.134416
vt 0.278435 0.249935
vt 0.260973 0.232566
vt 0.137071 0.248950
vt 0.163284 0.262069
vt 0.188590 0.278145
vt 0.185135 0.308679
vt 0.262008 0.341357
vt 0.245511 0.184362
vt 0.253440 0.194214
vt 0.371595 0.129151
vt 0.384373 0.138606
vt 0.397739 0.143873
vt 0.394935 0.157328
vt 0.411689 0.145336
vt 0.410747 0.160798
vt 0.425656 0.146891
vt 0.426410 0.161435
vt 0.438635 0.145053
vt 0.441078 0.159264
vt 0.455426 0.144553
vt 0.459741 0.152780
vt 0.450264 0.136343
vt 0.467867 0.132568
vt 0.477664 0.118304
vt 0.374547 0.127793
vt 0.402038 0.135358
vt 0.388637 0.135856
vt 0.401194 0.139057
vt 0.412739 0.140830
vt 0.424638 0.141817
vt 0.436958 0.141668
vt 0.421275 0.090083
vn 0.639003 0.329462 0.695075
vn 0.180084 0.272531 0.945144
vn 0.158270 0.546824 0.822152
vn 0.636307 0.462960 0.617075
vn 0.622068 0.620404 0.477630
vn 0.221699 0.660902 0.716978
vn 0.726719 0.561481 0.395751
vn -0.341799 0.414753 0.843299
vn -0.075105 0.675794 0.733255
vn -0.316585 0.685879 0.655243
vn -0.154908 0.350030 0.923841
vn -0.034829 0.747351 0.663516
vn 0.207927 0.698789 0.684442
vn 0.167702 0.104233 0.980312
vn 0.866825 0.442579 0.229648
vn 0.708695 0.389248 0.588420
vn 0.789121 -0.151822 0.595180
vn 0.963360 0.053532 0.262814
vn 0.704162 0.699634 0.121109
vn 0.592370 0.653492 0.471219
vn 0.425415 0.896279 -0.125328
vn 0.703453 0.709464 0.042587
vn -0.307793 0.410712 0.858242
vn -0.337537 0.651280 0.679635
vn 0.977419 0.184835 0.102414
vn 0.776475 0.629943 -0.016079
vn -0.430026 0.684137 0.589096
vn -0.006761 0.874187 0.485543
vn -0.153738 0.899552 0.408866
vn -0.203564 0.764925 0.611107
vn 0.450647 0.860523 -0.237526
vn 0.604996 0.792947 0.072213
vn 0.324471 0.940030 -0.105179
vn 0.102598 0.985842 0.132628
vn 0.428912 0.849577 0.307006
vn -0.677294 0.279226 0.680666
vn -0.413958 0.321694 0.851559
vn -0.438181 0.641966 0.629187
vn -0.642773 0.540461 0.542904
vn -0.660403 -0.066695 0.747944
vn -0.330426 -0.158385 0.930448
vn -0.334868 0.778610 0.530688
vn -0.191917 0.779285 0.596559
vn -0.345869 0.816469 0.462335
vn -0.730572 0.497164 0.468074
vn -0.683222 -0.050210 0.728482
vn -0.433021 0.814506 0.386100
vn -0.635709 0.676289 0.372165
vn -0.687324 0.593686 0.418477
vn -0.436038 0.786342 0.437649
vn -0.258312 0.837557 0.481429
vn -0.380211 0.896303 0.228211
vn 0.753641 0.461225 -0.468292
vn 0.863633 0.157685 -0.478825
vn -0.496017 0.799870 0.337898
vn 0.268462 0.931892 -0.243938
vn -0.015448 0.989678 0.142473
vn 0.074229 0.980685 0.180958
vn 0.176266 0.968964 -0.173316
vn 0.112951 0.913273 -0.391375
vn -0.177766 0.974577 -0.136377
vn 0.226593 0.927319 -0.297886
vn 0.319729 0.888635 -0.328787
vn 0.250118 0.923314 -0.291432
vn 0.114848 0.896219 -0.428487
vn 0.569137 0.613956 -0.546938
vn 0.500596 0.730963 -0.463786
vn 0.532665 0.532582 -0.657742
vn 0.530522 0.466006 -0.708085
vn -0.393665 0.918966 0.022983
vn -0.174581 0.947020 -0.269581
vn -0.224024 0.955098 -0.193911
vn -0.408127 0.908789 0.086807
vn -0.105545 0.982722 -0.152044
vn 0.069472 0.911436 -0.405535
vn 0.204163 0.948835 -0.240894
vn 0.224895 0.959262 -0.170993
vn -0.120408 0.992699 -0.007090
vn -0.044859 0.898654 -0.436358
vn 0.174879 0.970430 -0.166384
vn 0.588818 0.685078 -0.428906
vn 0.530892 0.763518 -0.367686
vn 0.430607 0.365971 -0.825011
vn 0.311752 0.686292 -0.657126
vn 0.105029 0.946903 -0.303882
vn -0.128511 0.625411 -0.769640
vn -0.168959 0.967872 -0.186218
vn -0.516231 0.834384 -0.193152
vn -0.562991 0.563878 -0.604221
vn -0.756415 0.559635 -0.338593
vn -0.634206 0.772968 -0.017422
vn -0.063424 0.787192 -0.613438
vn 0.019397 0.822554 -0.568356
vn -0.009990 0.815109 -0.579222
vn -0.247207 0.647672 -0.720700
vn -0.315350 0.691347 -0.650072
vn -0.194068 0.532287 -0.824020
vn -0.311631 0.658460 -0.685066
vn -0.216393 0.850190 -0.479949
vn 0.013238 0.410543 -0.911745
vn 0.305862 0.193451 -0.932215
vn 0.002304 0.217426 -0.976074
vn -0.290392 0.269728 -0.918106
vn -0.391882 0.334623 -0.857004
vn -0.395845 0.347621 -0.849980
vn -0.593392 0.355883 -0.721964
vn -0.744648 0.430387 -0.510163
vn -0.832656 0.511479 -0.212305
vn -0.770852 0.631040 -0.087041
vn -0.748737 0.620741 0.232537
vn -0.833151 0.521117 0.185193
vn -0.647785 0.652522 0.393180
vn -0.648789 0.751070 0.122340
vn -0.508779 0.703833 0.495745
vn -0.489059 0.829044 0.271123
vn -0.473730 0.725209 0.499651
vn -0.457142 0.837501 0.299355
vn -0.891116 -0.217892 -0.398040
vn -0.974839 -0.195967 0.106232
vn -0.867680 -0.096974 0.487572
vn -0.264516 -0.964351 0.007587
vn -0.214322 -0.972160 0.094719
vn -0.276852 -0.367838 0.887721
vn -0.009386 -0.379660 0.925079
vn -0.120028 -0.155289 0.980550
vn -0.002724 -0.380744 0.924677
vn -0.069831 -0.247704 0.966316
vn 0.025232 -0.999538 -0.016959
vn 0.045935 -0.719886 0.692571
vn -0.006101 -0.575339 0.817892
vn -0.017614 -0.836397 0.547841
vn 0.028334 -0.416941 0.908492
vn -0.019022 -0.999711 -0.014685
vn -0.074770 -0.997200 -0.001129
vn 0.095933 -0.837960 0.537234
vn -0.087693 -0.990726 -0.103789
vn -0.041167 -0.986739 -0.157007
vn 0.221102 -0.920802 -0.321306
vn 0.390257 -0.916759 -0.085157
vn 0.164228 -0.984212 0.065995
vn 0.126911 -0.985365 0.113797
vn 0.841770 -0.458720 0.284603
vn 0.697026 -0.422450 0.579388
vn 0.285413 -0.449620 0.846393
vn 0.434222 -0.244527 0.866982
vn 0.071564 -0.314741 0.946476
vn 0.540069 0.242515 0.805923
vn 0.486474 0.665690 0.565863
vn 0.887127 -0.460583 -0.029486
vn 0.786632 -0.403964 -0.466929
vn 0.599968 -0.517591 -0.610031
vn 0.633292 0.278264 -0.722157
vn 0.289568 -0.518191 -0.804754
vn 0.478228 0.298634 -0.825903
vn 0.170315 -0.270524 -0.947528
vn -0.116574 -0.275858 -0.954103
vn -0.404605 -0.252781 -0.878861
vn -0.449650 -0.272036 -0.850771
vn -0.417101 -0.226350 -0.880223
vn -0.526644 -0.257505 -0.810146
vn -0.651529 -0.228735 -0.723319
vn -0.100280 -0.986113 -0.132382
vn -0.569224 -0.754781 -0.326022
vn -0.251834 -0.965122 -0.071541
vn -0.011729 -0.996106 -0.087376
vn -0.039034 -0.997253 -0.062956
vn -0.155481 -0.898700 -0.410079
vn -0.395352 -0.741010 -0.542772
vn -0.354703 -0.608986 -0.709452
vn -0.291837 -0.741548 -0.604101
vn -0.323092 -0.732287 -0.599472
vn 0.023734 0.867337 -0.497155
vn 0.034620 0.827237 -0.560786
vn 0.473558 0.853643 -0.216878
vn 0.364244 0.927679 -0.082090
vn 0.333784 0.931970 -0.141495
vn 0.444771 0.798605 -0.405474
vn -0.127269 0.838852 0.529274
vn -0.328291 0.914005 -0.238367
vn -0.362839 0.931722 -0.015567
vn -0.053737 -0.996746 -0.060077
s 1
g Ore1_low:Group42733
usemtl initialShadingGroup
f 1/1/1 18/2/2 19/3/3 20/4/4
f 1/1/1 21/5/5 22/6/6 18/2/2
f 1/1/1 20/4/4 23/7/7 21/5/5
f 18/2/2 22/6/6 24/8/8
f 18/2/2 24/8/8 25/9/9 19/3/3
f 33/10/10 31/11/11 30/12/12
f 30/12/12 31/11/11 26/13/13
f 31/11/11 32/14/14 26/13/13
f 2/15/15 27/16/16 28/17/17 29/18/18
f 27/16/16 2/15/15 4/19/19 39/20/20
f 41/21/21 4/19/19 40/22/22
f 29/18/18 40/22/22 2/15/15
f 4/19/19 2/15/15 40/22/22
f 26/13/13 19/3/3 25/9/9 30/12/12
f 34/23/23 31/11/11 33/10/10 49/24/24
f 29/18/18 35/25/25 59/26/26 40/22/22
f 3/27/27 36/28/28 37/29/29 38/30/30
f 3/27/27 24/8/8 22/6/6 36/28/28
f 3/27/27 38/30/30 25/9/9 24/8/8
f 4/19/19 41/21/21 42/31/31 5/32/32
f 5/32/32 43/33/33 44/34/34 45/35/35
f 6/36/36 46/37/37 52/38/38 10/39/39
f 6/36/36 8/40/40 47/41/41 46/37/37
f 7/42/42 33/10/10 30/12/12 48/43/43
f 7/42/42 9/44/44 49/24/24 33/10/10
f 8/40/40 6/36/36 61/45/45
f 8/46/40 50/118/46 47/119/41
f 9/44/44 51/47/47 52/38/38 49/24/24
f 52/38/38 54/48/48 53/49/49 10/39/39
f 55/50/50 7/42/42 56/51/51 57/52/52
f 58/53/53 59/26/26 35/25/25 142/54/54
f 60/55/55 54/48/48 52/38/38 51/47/47
f 11/56/56 62/57/57 63/58/58 64/59/59
f 65/60/60 66/61/61 62/57/57 11/56/56
f 11/56/56 64/59/59 12/62/62 65/60/60
f 12/62/62 64/59/59 67/63/63 68/64/64
f 12/62/62 68/64/64 69/65/65 65/60/60
f 70/66/66 71/67/67 72/68/68 15/69/69
f 13/70/70 57/52/52 66/61/61 73/71/71
f 13/70/70 73/71/71 74/72/72 75/73/73
f 14/74/74 76/75/75 77/76/76 78/77/77
f 80/78/78 81/79/79 76/75/75 14/74/74
f 14/74/74 78/77/77 79/80/80 80/78/78
f 15/69/69 82/81/81 83/82/82 70/66/66
f 15/69/69 84/83/83 85/84/84 82/81/81
f 86/85/85 85/84/84 87/86/86 88/87/87
f 89/88/88 90/89/89 91/90/90 92/91/91
f 16/92/92 93/93/93 94/94/94 95/95/95
f 89/88/88 74/72/72 93/93/93 16/92/92
f 16/92/92 95/95/95 90/89/89 89/88/88
f 17/96/96 96/97/97 97/98/98 98/99/99
f 17/96/96 87/86/86 99/100/100 96/97/97
f 99/100/100 84/83/83 148/101/101 149/102/102
f 96/97/97 99/100/100 149/102/102 153/103/103
f 99/100/100 87/86/86 85/84/84 84/83/83
f 96/97/97 153/103/103 155/104/104 97/98/98
f 97/98/98 155/104/104 157/105/105 95/95/95
f 95/95/95 157/105/105 159/106/106 90/89/89
f 90/89/89 159/106/106 161/107/107 91/90/90
f 91/90/90 161/107/107 108/108/108 100/109/109
f 101/110/110 100/109/109 108/108/108 109/111/111
f 100/109/109 101/110/110 102/112/112 103/113/113
f 100/109/109 103/113/113 92/91/91 91/90/90
f 103/113/113 102/112/112 104/114/114 105/115/115
f 103/113/113 105/115/115 75/73/73 92/91/91
f 105/115/115 104/114/114 106/116/116 107/117/117
f 105/115/115 107/117/117 13/70/70 75/73/73
f 104/114/114 102/112/112 54/48/48 60/55/55
f 104/114/114 60/55/55 51/47/47 106/116/116
f 102/112/112 101/110/110 53/49/49 54/48/48
f 61/45/45 53/49/49 101/110/110 109/111/111
f 109/120/111 108/121/108 110/122/118 111/123/119
f 109/120/111 111/123/119 112/124/120 61/126/45
f 112/124/120 50/118/46 8/46/40 61/126/45
f 50/118/46 112/124/120 113/128/121 114/129/122
f 50/118/46 114/129/122 115/130/123 47/119/41
f 47/119/41 115/130/123 117/131/124 116/132/125
f 117/131/124 118/133/126 119/134/127 116/132/125
f 117/131/124 115/130/123 120/135/128 121/136/129
f 117/131/124 121/136/129 122/137/130 118/133/126
f 122/137/130 123/138/131 124/139/132 118/133/126
f 122/137/130 121/136/129 125/140/133
f 122/137/130 125/140/133 123/138/131
f 125/140/133 126/141/134 127/142/135 123/138/131
f 129/143/136 128/144/137 130/149/138 131/150/139
f 129/143/136 131/150/139 132/151/140
f 129/143/136 132/151/140 133/153/141 126/141/134
f 133/153/141 132/151/140 134/155/142 135/156/143
f 133/153/141 135/156/143 136/157/144 127/142/135
f 133/153/141 127/142/135 126/141/134
f 136/157/144 135/156/143 28/158/17 137/159/145
f 136/157/144 137/159/145 138/160/146 124/139/132
f 136/157/144 124/139/132 123/138/131 127/142/135
f 138/160/146 119/134/127 118/133/126 124/139/132
f 116/125/125 119/127/127 31/11/11 34/23/23
f 116/125/125 34/23/23 46/37/37 47/41/41
f 119/127/127 138/146/146 32/14/14 31/11/11
f 138/146/146 137/145/145 139/147/147 32/14/14
f 139/147/147 27/16/16 39/20/20 140/148/148
f 26/13/13 32/14/14 139/147/147 140/148/148
f 139/147/147 137/145/145 28/17/17 27/16/16
f 140/148/148 39/20/20 23/7/7 20/4/4
f 140/148/148 20/4/4 19/3/3 26/13/13
f 29/161/18 28/158/17 135/156/143 134/155/142
f 29/161/18 134/155/142 141/162/149 35/163/25
f 141/162/149 134/155/142 132/151/140 131/150/139
f 35/163/25 141/162/149 143/164/150 142/165/54
f 143/164/150 141/162/149 131/150/139 130/149/138
f 143/164/150 130/149/138 128/144/137 144/166/151
f 143/164/150 144/166/151 145/167/152 142/165/54
f 145/167/152 144/166/151 146/168/153
f 145/167/152 146/168/153 147/169/154
f 145/152/152 147/154/154 15/69/69 72/68/68
f 58/53/53 142/54/54 145/152/152 72/68/68
f 15/69/69 147/154/154 148/101/101 84/83/83
f 149/170/102 148/171/101 150/181/155 151/182/156
f 149/170/102 151/182/156 152/183/157 153/184/103
f 153/184/103 152/183/157 154/185/158 155/186/104
f 155/186/104 154/185/158 156/187/159 157/188/105
f 157/188/105 156/187/159 158/189/160 159/190/106
f 159/190/106 158/189/160 160/191/161 161/192/107
f 161/192/107 160/191/161 110/122/118 108/121/108
f 110/122/118 160/191/161 162/193/162 163/194/163
f 110/122/118 163/194/163 164/195/164 111/123/119
f 164/195/164 163/194/163 162/193/162
f 164/195/164 113/128/121 112/124/120 111/123/119
f 114/129/122 120/135/128 115/130/123
f 120/135/128 125/140/133 121/136/129
f 166/196/165 165/197/166 167/198/167
f 166/196/165 150/181/155 146/168/153
f 166/196/165 146/168/153 144/166/151 128/144/137
f 150/181/155 166/196/165 167/198/167 151/182/156
f 151/182/156 167/198/167 168/199/168 152/183/157
f 152/183/157 168/199/168 169/200/169 154/185/158
f 154/185/158 169/200/169 170/201/170 156/187/159
f 156/187/159 170/201/170 171/202/171 158/189/160
f 171/202/171 170/201/170 165/197/166 162/193/162
f 171/202/171 162/193/162 160/191/161 158/189/160
f 165/197/166 170/201/170 169/200/169
f 165/197/166 169/200/169 168/199/168
f 168/199/168 167/198/167 165/197/166
f 150/181/155 148/171/101 147/169/154 146/168/153
f 97/98/98 95/95/95 94/94/94 98/99/99
f 94/94/94 93/93/93 172/172/172 173/173/173
f 94/94/94 173/173/173 81/79/79 98/99/99
f 173/173/173 172/172/172 65/60/60 69/65/65
f 173/173/173 69/65/65 76/75/75 81/79/79
f 172/172/172 93/93/93 74/72/72 73/71/71
f 172/172/172 73/71/71 66/61/61 65/60/60
f 92/91/91 75/73/73 74/72/72 89/88/88
f 86/85/85 79/80/80 82/81/81 85/84/84
f 86/85/85 88/87/87 80/78/78 79/80/80
f 83/82/82 174/174/174 71/67/67 70/66/66
f 83/82/82 82/81/81 79/80/80 78/77/77
f 83/82/82 78/77/77 175/175/175 174/174/174
f 175/175/175 41/21/21 40/22/22 174/174/174
f 175/175/175 78/77/77 77/76/76 176/176/176
f 175/175/175 176/176/176 42/31/31 41/21/21
f 176/176/176 77/76/76 68/64/64 67/63/63
f 176/176/176 67/63/63 177/177/177 42/31/31
f 174/174/174 40/22/22 59/26/26 71/67/67
f 77/76/76 76/75/75 69/65/65 68/64/64
f 13/70/70 107/117/117 55/50/50 57/52/52
f 72/68/68 71/67/67 59/26/26 58/53/53
f 67/63/63 64/59/59 43/33/33 177/177/177
f 66/61/61 57/52/52 56/51/51 62/57/57
f 64/59/59 63/58/58 44/34/34 43/33/33
f 63/58/58 62/57/57 56/51/51 178/178/178
f 63/58/58 178/178/178 37/29/29 44/34/34
f 178/178/178 56/51/51 7/42/42 48/43/43
f 178/178/178 48/43/43 38/30/30 37/29/29
f 34/23/23 49/24/24 52/38/38 46/37/37
f 48/43/43 30/12/12 25/9/9 38/30/30
f 45/35/35 21/5/5 23/7/7 5/32/32
f 45/35/35 44/34/34 37/29/29 36/28/28
f 45/35/35 36/28/28 22/6/6 21/5/5
f 106/116/116 51/47/47 9/44/44 7/42/42
f 106/116/116 7/42/42 55/50/50 107/117/117
f 177/177/177 43/33/33 5/32/32 42/31/31
f 80/78/78 88/87/87 180/179/179 179/180/180
f 87/86/86 17/96/96 180/179/179 88/87/87
f 179/180/180 180/179/179 17/96/96 98/99/99
f 81/79/79 80/78/78 179/180/180 98/99/99
f 4/19/19 5/32/32 23/7/7 39/20/20
f 181/203/181 113/128/121 164/195/164
f 166/196/165 181/203/181 165/197/166
f 181/203/181 162/193/162 165/197/166
f 181/203/181 164/195/164 162/193/162
f 181/203/181 114/129/122 113/128/121
f 125/140/133 120/135/128 181/203/181
f 181/203/181 120/135/128 114/129/122
f 126/141/134 181/203/181 129/143/136
f 125/140/133 181/203/181 126/141/134
f 128/144/137 181/203/181 166/196/165
f 129/143/136 181/203/181 128/144/137
f 61/45/45 6/36/36 10/39/39 53/49/49
