# This file uses centimeters as units for non-parametric coordinates.

mtllib Int_lantern_stand_low.mtl
g default
v 0.071044 0.554350 0.133962
v 0.022110 0.578936 0.130123
v -0.005142 0.605157 0.090330
v 0.005250 0.617653 0.037894
v 0.047200 0.609104 0.003531
v 0.096133 0.584518 0.007370
v 0.123386 0.558297 0.047163
v 0.112993 0.545801 0.099599
v 0.067119 0.540870 0.136909
v 0.013292 0.567915 0.132686
v -0.016685 0.596758 0.088915
v -0.005254 0.610504 0.031235
v 0.040891 0.601100 -0.006564
v 0.094718 0.574055 -0.002342
v 0.124696 0.545212 0.041430
v 0.113264 0.531466 0.099110
v 0.069504 0.535395 0.149953
v 0.005890 0.567357 0.144962
v -0.029538 0.601444 0.093232
v -0.016028 0.617689 0.025064
v 0.038506 0.606575 -0.019608
v 0.102120 0.574613 -0.014617
v 0.137548 0.540526 0.037113
v 0.124038 0.524281 0.105280
v 0.075812 0.543399 0.160048
v 0.007306 0.577820 0.154673
v -0.030848 0.614529 0.098964
v -0.016298 0.632023 0.025553
v 0.042431 0.620055 -0.022555
v 0.110938 0.585634 -0.017180
v 0.149091 0.548925 0.038529
v 0.134542 0.531430 0.111939
v 0.079737 0.556878 0.157100
v 0.016124 0.588840 0.152110
v -0.019305 0.622928 0.100379
v -0.005795 0.639173 0.032213
v 0.048740 0.628059 -0.012459
v 0.112353 0.596097 -0.007469
v 0.147782 0.562009 0.044261
v 0.134272 0.545765 0.112428
v 0.077353 0.562354 0.144058
v 0.023526 0.589398 0.139835
v -0.006452 0.618242 0.096063
v 0.004980 0.631987 0.038383
v 0.051124 0.622584 0.000584
v 0.104951 0.595539 0.004807
v 0.134929 0.566696 0.048578
v 0.123497 0.552950 0.106258
v 0.033642 0.047544 0.174940
v 0.124086 0.047544 0.112853
v 0.144136 0.047544 0.004997
v 0.082048 0.047544 -0.085446
v -0.025808 0.047544 -0.105496
v -0.116251 0.047544 -0.043408
v -0.136301 0.047544 0.064447
v -0.074213 0.047544 0.154890
v 0.048142 0.428606 0.243335
v 0.182700 0.428606 0.150963
v 0.212531 0.428606 -0.009502
v 0.120158 0.428606 -0.144061
v -0.040307 0.428606 -0.173891
v -0.174865 0.428606 -0.081519
v -0.204696 0.428606 0.078946
v -0.112323 0.428606 0.213505
v 0.043630 0.443639 0.222051
v 0.164459 0.443639 0.139103
v 0.191246 0.443639 -0.004990
v 0.108298 0.443639 -0.125820
v -0.035795 0.443639 -0.152606
v -0.156624 0.443639 -0.069658
v -0.183411 0.443639 0.074434
v -0.100463 0.443639 0.195264
v 0.049154 0.480431 0.248110
v 0.186792 0.480431 0.153623
v 0.217305 0.480431 -0.010514
v 0.122818 0.480431 -0.148153
v -0.041319 0.480431 -0.178665
v -0.178957 0.480431 -0.084179
v -0.209470 0.480431 0.079959
v -0.114983 0.480431 0.217597
v 0.041985 0.509899 0.214292
v 0.157810 0.509899 0.134780
v 0.183487 0.509899 -0.003345
v 0.103975 0.509899 -0.119170
v -0.034150 0.509899 -0.144847
v -0.149975 0.509899 -0.065335
v -0.175652 0.509899 0.072789
v -0.096140 0.509899 0.188615
v 0.023506 0.533926 0.127124
v 0.083107 0.533926 0.086209
v 0.096319 0.533926 0.015134
v 0.055404 0.533926 -0.044467
v -0.015671 0.533926 -0.057680
v -0.075272 0.533926 -0.016765
v -0.088484 0.533926 0.054310
v -0.047569 0.533926 0.113911
v 0.017811 0.594095 0.100260
v 0.060084 0.594095 0.071240
v 0.069455 0.594095 0.020829
v 0.040435 0.594095 -0.021444
v -0.009976 0.594095 -0.030815
v -0.052249 0.594095 -0.001796
v -0.061620 0.594095 0.048616
v -0.032601 0.594095 0.090889
v 0.048693 0.459630 0.245935
v -0.113772 0.459630 0.215733
v -0.207295 0.459630 0.079497
v -0.177094 0.459630 -0.082967
v -0.040858 0.459630 -0.176491
v 0.121607 0.459630 -0.146289
v 0.215130 0.459630 -0.010053
v 0.184928 0.459630 0.152411
v 0.013990 0.604421 0.082238
v 0.044639 0.604421 0.061198
v 0.051433 0.604421 0.024649
v 0.030394 0.604421 -0.005999
v -0.006155 0.604421 -0.012793
v -0.036804 0.604421 0.008246
v -0.043598 0.604421 0.044795
v -0.022558 0.604421 0.075443
v 0.036306 0.056646 0.187505
v 0.134854 0.056646 0.119854
v 0.156701 0.056646 0.002334
v 0.089049 0.056646 -0.096214
v -0.028471 0.056646 -0.118061
v -0.127019 0.056646 -0.050409
v -0.148866 0.056646 0.067111
v -0.081214 0.056646 0.165658
v 0.038686 0.068918 0.198733
v 0.144476 0.068918 0.126110
v 0.167929 0.068918 -0.000047
v 0.095305 0.068918 -0.105837
v -0.030851 0.068918 -0.129289
v -0.136641 0.068918 -0.056666
v -0.160094 0.068918 0.069491
v -0.087471 0.068918 0.175281
v 0.038500 0.029575 0.197854
v 0.143723 0.029575 0.125620
v 0.167049 0.029575 0.000140
v 0.094816 0.029575 -0.105083
v -0.030665 0.029575 -0.128409
v -0.135888 0.029575 -0.056176
v -0.159214 0.029575 0.069305
v -0.086981 0.029575 0.174527
v 0.028950 0.006411 0.152804
v 0.105115 0.006411 0.100518
v 0.003917 0.006411 0.034722
v 0.121999 0.006411 0.009690
v 0.069714 0.006411 -0.066475
v -0.021115 0.006411 -0.083360
v -0.097280 0.006411 -0.031074
v -0.114164 0.006411 0.059754
v -0.061879 0.006411 0.135919
v 0.009009 0.604421 0.058741
v 0.024501 0.604421 0.048105
v 0.027936 0.604421 0.029631
v 0.017301 0.604421 0.014138
v -0.001174 0.604421 0.010704
v -0.016666 0.604421 0.021339
v -0.020101 0.604421 0.039814
v -0.009466 0.604421 0.055306
v 0.020881 0.638101 0.062500
v 0.038732 0.638101 0.057357
v 0.036189 0.638101 0.038956
v 0.014742 0.638101 0.018074
v -0.013046 0.638101 0.006945
v -0.030897 0.638101 0.012087
v -0.028354 0.638101 0.030488
v -0.006907 0.638101 0.051370
v 0.018435 0.647886 0.058493
v 0.033710 0.647886 0.054093
v 0.003917 0.647886 0.034722
v 0.031534 0.647886 0.038345
v 0.013180 0.647886 0.020475
v -0.010599 0.647886 0.010951
v -0.025875 0.647886 0.015351
v -0.023699 0.647886 0.031099
v -0.005346 0.647886 0.048969
vt 0.315581 0.926106
vt 0.315382 0.884758
vt 0.324920 0.884835
vt 0.325405 0.926347
vt 0.315085 0.638101
vt 0.324713 0.966770
vt 0.316100 0.676915
vt 0.326068 0.676544
vt 0.316305 0.718263
vt 0.325870 0.718268
vt 0.316119 0.759873
vt 0.325571 0.759952
vt 0.315844 0.801512
vt 0.325278 0.801604
vt 0.315570 0.843151
vt 0.325018 0.843237
vt 0.333692 0.885124
vt 0.334288 0.926941
vt 0.332719 0.970961
vt 0.335216 0.676100
vt 0.334691 0.718434
vt 0.334318 0.760206
vt 0.334013 0.801872
vt 0.333756 0.843505
vt 0.287529 0.884641
vt 0.286918 0.927601
vt 0.291049 0.975579
vt 0.287949 0.675621
vt 0.288569 0.717799
vt 0.288507 0.759450
vt 0.288248 0.801086
vt 0.287935 0.842766
vt 0.296992 0.884577
vt 0.296461 0.926906
vt 0.300191 0.972482
vt 0.297398 0.676082
vt 0.298000 0.717892
vt 0.297935 0.759505
vt 0.297677 0.801137
vt 0.297369 0.842803
vt 0.305814 0.884750
vt 0.305610 0.926470
vt 0.308318 0.967596
vt 0.306279 0.676679
vt 0.306770 0.718187
vt 0.306672 0.759783
vt 0.306411 0.801416
vt 0.306116 0.843068
vt 0.118529 0.336510
vt 0.201346 0.330767
vt 0.195597 0.579648
vt 0.105764 0.583230
vt 0.286681 0.328238
vt 0.281862 0.578678
vt 0.372977 0.328141
vt 0.366729 0.579816
vt 0.459257 0.330216
vt 0.451515 0.583273
vt 0.544517 0.334351
vt 0.537555 0.589476
vt 0.627072 0.340972
vt 0.627092 0.599506
vt 0.702495 0.353085
vt 0.007155 0.594729
vt 0.085130 0.943871
vt 0.057282 0.915183
vt 0.105818 0.895919
vt 0.125105 0.944438
vt 0.153772 0.916582
vt 0.154351 0.876627
vt 0.126516 0.847964
vt 0.086563 0.847375
vt 0.057883 0.875211
vt 0.857763 0.427363
vt 0.860601 0.430634
vt 0.853670 0.433146
vt 0.860532 0.434955
vt 0.855871 0.439195
vt 0.849577 0.438927
vt 0.846740 0.435657
vt 0.846810 0.431336
vt 0.851470 0.427096
vt 0.983669 0.378697
vt 0.907162 0.302798
vt 0.984101 0.486442
vt 0.908214 0.563007
vt 0.800347 0.563569
vt 0.723715 0.487654
vt 0.723283 0.379793
vt 0.799297 0.303210
vt 0.972826 0.382700
vt 0.902316 0.313289
vt 0.973598 0.481615
vt 0.904191 0.552171
vt 0.805163 0.553068
vt 0.734549 0.483645
vt 0.733777 0.384627
vt 0.803290 0.314055
vt 0.898644 0.322492
vt 0.963725 0.386617
vt 0.943179 0.395630
vt 0.890479 0.343390
vt 0.964389 0.477956
vt 0.943478 0.469819
vt 0.900258 0.543077
vt 0.891207 0.522543
vt 0.808811 0.543858
vt 0.816937 0.522942
vt 0.743645 0.479723
vt 0.764184 0.470696
vt 0.742981 0.388291
vt 0.763884 0.396443
vt 0.807198 0.323160
vt 0.816208 0.343715
vt 0.903412 0.412496
vt 0.874274 0.383450
vt 0.903413 0.453635
vt 0.874279 0.482760
vt 0.833092 0.482855
vt 0.803939 0.453808
vt 0.803937 0.412650
vt 0.833083 0.383523
vt 0.881484 0.423365
vt 0.866451 0.406726
vt 0.880179 0.445744
vt 0.863329 0.460640
vt 0.840896 0.459570
vt 0.825859 0.442931
vt 0.827164 0.420546
vt 0.844017 0.405650
vt 0.874405 0.425940
vt 0.863225 0.413609
vt 0.873305 0.442528
vt 0.860661 0.453366
vt 0.844119 0.452684
vt 0.832937 0.440354
vt 0.834037 0.423763
vt 0.846682 0.412925
vt 0.015045 0.932663
vt 0.067673 0.986119
vt 0.142664 0.986641
vt 0.196028 0.934023
vt 0.196576 0.859104
vt 0.144010 0.805728
vt 0.069091 0.805131
vt 0.015664 0.857686
vt 0.020974 0.930415
vt 0.070265 0.980335
vt 0.140399 0.980719
vt 0.190238 0.931434
vt 0.190650 0.861362
vt 0.141412 0.811513
vt 0.071340 0.811060
vt 0.021445 0.860291
vt 0.036475 0.923784
vt 0.076513 0.964675
vt 0.133732 0.965233
vt 0.174575 0.925190
vt 0.175153 0.868013
vt 0.135146 0.827169
vt 0.077970 0.826564
vt 0.037094 0.866569
vt 0.867698 0.428154
vt 0.859947 0.420093
vt 0.866814 0.439336
vt 0.858250 0.445857
vt 0.847394 0.446199
vt 0.839643 0.438137
vt 0.840527 0.426955
vt 0.849091 0.420434
vt 0.862877 0.429807
vt 0.859590 0.424891
vt 0.863528 0.435689
vt 0.857230 0.442906
vt 0.847750 0.441399
vt 0.844464 0.436483
vt 0.843812 0.430601
vt 0.850111 0.423386
vt 0.306950 0.636256
vt 0.316576 0.964921
vt 0.298944 0.632068
vt 0.341864 0.973581
vt 0.340600 0.627423
vt 0.289800 0.629451
vt 0.331460 0.630529
vt 0.323337 0.635421
vt 0.343185 0.843540
vt 0.343124 0.885203
vt 0.343442 0.801902
vt 0.343753 0.760222
vt 0.344154 0.718354
vt 0.344759 0.675395
vt 0.343738 0.927398
vt 0.016021 0.610750
vt 0.107761 0.599357
vt 0.623700 0.615204
vt 0.535681 0.605613
vt 0.450252 0.599514
vt 0.365903 0.596087
vt 0.281487 0.594950
vt 0.195894 0.595891
vt 0.708238 0.344455
vt 0.116811 0.326767
vt 0.629071 0.331400
vt 0.545426 0.324671
vt 0.459723 0.320513
vt 0.373135 0.318427
vt 0.286531 0.318515
vt 0.200748 0.321030
vt 0.042434 0.348089
vt 0.036636 0.339267
vt 0.725219 0.617825
vt 0.715273 0.632869
vn 0.516010 0.038916 -0.855698
vn -0.166213 0.381692 -0.909222
vn -0.444136 -0.657004 -0.609171
vn -0.186992 -0.786205 -0.588996
vn 0.895959 -0.326657 -0.300920
vn -0.043775 -0.923997 -0.379886
vn 0.751070 -0.500875 0.430137
vn -0.098386 -0.989664 -0.104332
vn 0.166210 -0.381692 0.909223
vn -0.318834 -0.944739 0.076248
vn -0.516012 -0.038917 0.855697
vn -0.575982 -0.815537 0.056074
vn -0.895962 0.326652 0.300916
vn -0.719195 -0.677745 -0.153039
vn -0.751069 0.500875 -0.430138
vn -0.664582 -0.612076 -0.428595
vn -0.219739 -0.914828 0.338828
vn -0.643209 -0.702061 0.305603
vn -0.879054 -0.475143 -0.038765
vn -0.789118 -0.367002 -0.492546
vn -0.426085 -0.440984 -0.789927
vn -0.002612 -0.653752 -0.756705
vn 0.233232 -0.880669 -0.412341
vn 0.143294 -0.988812 0.041447
vn 0.166214 -0.381683 0.909225
vn -0.516008 -0.038906 0.855700
vn -0.895959 0.326657 0.300921
vn -0.751070 0.500877 -0.430134
vn -0.166208 0.381691 -0.909223
vn 0.516011 0.038916 -0.855698
vn 0.895959 -0.326659 -0.300918
vn 0.751070 -0.500874 0.430138
vn 0.426087 0.440984 0.789926
vn 0.002619 0.653755 0.756702
vn -0.233225 0.880673 0.412335
vn -0.143293 0.988812 -0.041444
vn 0.219736 0.914830 -0.338824
vn 0.643208 0.702062 -0.305601
vn 0.879053 0.475146 0.038765
vn 0.789118 0.367004 0.492546
vn 0.318836 0.944738 -0.076242
vn 0.575984 0.815535 -0.056074
vn 0.719202 0.677738 0.153037
vn 0.664587 0.612069 0.428597
vn 0.444135 0.656996 0.609180
vn 0.186988 0.786201 0.589002
vn 0.043780 0.923995 0.379889
vn 0.098392 0.989663 0.104337
vn 0.204952 -0.152631 0.966798
vn 0.828553 -0.152632 0.538706
vn 0.831917 -0.123888 0.540893
vn 0.205785 -0.123888 0.970724
vn 0.966798 -0.152632 -0.204952
vn 0.970724 -0.123888 -0.205785
vn 0.538705 -0.152632 -0.828553
vn 0.540893 -0.123888 -0.831918
vn -0.204952 -0.152632 -0.966798
vn -0.205785 -0.123888 -0.970724
vn -0.828552 -0.152632 -0.538706
vn -0.831917 -0.123888 -0.540894
vn -0.966798 -0.152632 0.204953
vn -0.970724 -0.123888 0.205785
vn -0.538706 -0.152632 0.828553
vn -0.540893 -0.123888 0.831917
vn 0.241074 -0.957766 0.156741
vn 0.059633 -0.957766 0.281297
vn 0.000000 -1.000000 -0.000000
vn 0.281297 -0.957766 -0.059633
vn 0.156741 -0.957766 -0.241074
vn -0.059633 -0.957766 -0.281298
vn -0.241074 -0.957766 -0.156741
vn -0.281298 -0.957766 0.059632
vn -0.156741 -0.957766 0.241074
vn -0.117148 0.734668 0.668236
vn 0.496719 0.805585 0.322960
vn 0.000000 1.000000 -0.000000
vn 0.563220 0.734670 -0.378211
vn 0.391211 0.696356 -0.601700
vn 0.117154 0.734669 -0.668234
vn -0.496719 0.805587 -0.322955
vn -0.563222 0.734669 0.378210
vn -0.391209 0.696356 0.601701
vn 0.834797 -0.092310 0.542765
vn 0.206497 -0.092310 0.974083
vn 0.974083 -0.092311 -0.206497
vn 0.542765 -0.092312 -0.834796
vn -0.206498 -0.092309 -0.974083
vn -0.834797 -0.092307 -0.542765
vn -0.974084 -0.092307 0.206496
vn -0.542766 -0.092309 0.834796
vn 0.714100 -0.523922 0.464292
vn 0.176641 -0.523922 0.833249
vn 0.833249 -0.523922 -0.176641
vn 0.464291 -0.523922 -0.714100
vn -0.176642 -0.523921 -0.833250
vn -0.714101 -0.523921 -0.464292
vn -0.833249 -0.523923 0.176642
vn -0.464291 -0.523922 0.714101
vn 0.180828 0.489588 0.852998
vn 0.731025 0.489588 0.475296
vn 0.399502 0.879164 0.259747
vn 0.098822 0.879164 0.466160
vn 0.852997 0.489589 -0.180827
vn 0.466160 0.879164 -0.098822
vn 0.475295 0.489590 -0.731024
vn 0.259747 0.879164 -0.399503
vn -0.180827 0.489590 -0.852997
vn -0.098823 0.879164 -0.466160
vn -0.731025 0.489589 -0.475295
vn -0.399503 0.879164 -0.259748
vn -0.852996 0.489590 0.180829
vn -0.466160 0.879164 0.098822
vn -0.475295 0.489589 0.731025
vn -0.259747 0.879164 0.399502
vn 0.368929 0.897972 0.239869
vn 0.091259 0.897972 0.430487
vn 0.430486 0.897972 -0.091260
vn 0.239869 0.897972 -0.368930
vn -0.091260 0.897972 -0.430486
vn -0.368930 0.897972 -0.239870
vn -0.430487 0.897971 0.091259
vn -0.239870 0.897972 0.368930
vn 0.730531 0.490637 0.474974
vn 0.180705 0.490637 0.852421
vn 0.852421 0.490636 -0.180707
vn 0.474973 0.490637 -0.730531
vn -0.180707 0.490638 -0.852420
vn -0.730530 0.490637 -0.474974
vn -0.852421 0.490637 0.180705
vn -0.474974 0.490637 0.730531
vn 0.292004 0.937384 0.189856
vn 0.072230 0.937384 0.340726
vn 0.340726 0.937384 -0.072230
vn 0.189855 0.937384 -0.292006
vn -0.072231 0.937383 -0.340727
vn -0.292005 0.937384 -0.189854
vn -0.340725 0.937384 0.072231
vn -0.189854 0.937384 0.292004
vn -0.140401 0.735963 -0.662304
vn -0.567599 0.735962 -0.369040
vn -0.662305 0.735962 0.140402
vn -0.369040 0.735962 0.567600
vn 0.140402 0.735964 0.662303
vn 0.567599 0.735963 0.369039
vn 0.662304 0.735962 -0.140404
vn 0.369040 0.735963 -0.567599
vn 0.199412 0.274563 0.940665
vn 0.806156 0.274563 0.524144
vn 0.940665 0.274561 -0.199414
vn 0.524145 0.274557 -0.806158
vn -0.199413 0.274558 -0.940666
vn -0.806157 0.274559 -0.524145
vn -0.940665 0.274562 0.199411
vn -0.524145 0.274562 0.806157
vn 0.179721 -0.498972 0.847778
vn 0.726552 -0.498972 0.472387
vn 0.847778 -0.498972 -0.179721
vn 0.472387 -0.498973 -0.726551
vn -0.179721 -0.498973 -0.847777
vn -0.726552 -0.498973 -0.472387
vn -0.847778 -0.498972 0.179722
vn -0.472387 -0.498973 0.726551
vn 0.616255 0.678004 0.400676
vn -0.034803 0.706382 0.706974
vn 0.632042 0.706383 -0.318663
vn 0.368454 0.736950 -0.566698
vn 0.034805 0.706381 -0.706975
vn -0.616256 0.678002 -0.400676
vn -0.632047 0.706377 0.318666
vn -0.368457 0.736947 0.566700
vn 0.820567 -0.205024 0.533511
vn 0.058965 -0.039142 0.997492
vn 0.935618 -0.039145 -0.350839
vn 0.540968 0.122772 -0.832034
vn -0.058964 -0.039145 -0.997492
vn -0.820567 -0.205026 -0.533511
vn -0.935619 -0.039147 0.350835
vn -0.540969 0.122775 0.832033
s 1
g pTorus3
usemtl standardSurface1SG
f 2/1/1 1/2/2 9/3/3 10/4/4
f 3/180/5 2/1/1 10/4/4 11/6/6
f 4/7/7 3/5/5 11/186/6 12/8/8
f 5/9/9 4/7/7 12/8/8 13/10/10
f 6/11/11 5/9/9 13/10/10 14/12/12
f 7/13/13 6/11/11 14/12/12 15/14/14
f 8/15/15 7/13/13 15/14/14 16/16/16
f 1/2/2 8/15/15 16/16/16 9/3/3
f 10/4/4 9/3/3 17/17/17 18/18/18
f 11/6/6 10/4/4 18/18/18 19/19/19
f 12/8/8 11/186/6 19/185/19 20/20/20
f 13/10/10 12/8/8 20/20/20 21/21/21
f 14/12/12 13/10/10 21/21/21 22/22/22
f 15/14/14 14/12/12 22/22/22 23/23/23
f 16/16/16 15/14/14 23/23/23 24/24/24
f 9/3/3 16/16/16 24/24/24 17/17/17
f 18/18/18 17/17/17 25/188/25 26/193/26
f 19/19/19 18/18/18 26/193/26 27/182/27
f 20/20/20 19/185/19 27/183/27 28/192/28
f 21/21/21 20/20/20 28/192/28 29/191/29
f 22/22/22 21/21/21 29/191/29 30/190/30
f 23/23/23 22/22/22 30/190/30 31/189/31
f 24/24/24 23/23/23 31/189/31 32/187/32
f 17/17/17 24/24/24 32/187/32 25/188/25
f 26/26/26 25/25/25 33/33/33 34/34/34
f 27/27/27 26/26/26 34/34/34 35/35/35
f 28/28/28 27/184/27 35/181/35 36/36/36
f 29/29/29 28/28/28 36/36/36 37/37/37
f 30/30/30 29/29/29 37/37/37 38/38/38
f 31/31/31 30/30/30 38/38/38 39/39/39
f 32/32/32 31/31/31 39/39/39 40/40/40
f 25/25/25 32/32/32 40/40/40 33/33/33
f 34/34/34 33/33/33 41/41/41 42/42/42
f 35/35/35 34/34/34 42/42/42 43/43/43
f 36/36/36 35/181/35 43/179/43 44/44/44
f 37/37/37 36/36/36 44/44/44 45/45/45
f 38/38/38 37/37/37 45/45/45 46/46/46
f 39/39/39 38/38/38 46/46/46 47/47/47
f 40/40/40 39/39/39 47/47/47 48/48/48
f 33/33/33 40/40/40 48/48/48 41/41/41
f 42/42/42 41/41/41 1/2/2 2/1/1
f 43/43/43 42/42/42 2/1/1 3/180/5
f 44/44/44 43/179/43 3/5/5 4/7/7
f 45/45/45 44/44/44 4/7/7 5/9/9
f 46/46/46 45/45/45 5/9/9 6/11/11
f 47/47/47 46/46/46 6/11/11 7/13/13
f 48/48/48 47/47/47 7/13/13 8/15/15
f 41/41/41 48/48/48 8/15/15 1/2/2
s 2
f 49/49/49 50/50/50 58/51/51 57/52/52
f 50/50/50 51/53/53 59/54/54 58/51/51
f 51/53/53 52/55/55 60/56/56 59/54/54
f 52/55/55 53/57/57 61/58/58 60/56/56
f 53/57/57 54/59/59 62/60/60 61/58/58
f 54/59/59 55/61/61 63/62/62 62/60/60
f 55/61/61 56/63/63 64/212/64 63/62/62
f 56/210/63 49/49/49 57/52/52 64/64/64
f 146/65/65 145/66/66 147/67/67
f 148/68/68 146/65/65 147/67/67
f 149/69/69 148/68/68 147/67/67
f 150/70/70 149/69/69 147/67/67
f 151/71/71 150/70/70 147/67/67
f 152/72/72 151/71/71 147/67/67
f 153/73/73 152/72/72 147/67/67
f 145/66/66 153/73/73 147/67/67
f 170/74/74 171/75/75 172/76/76
f 171/75/75 173/77/77 172/76/76
f 173/77/77 174/78/78 172/76/76
f 174/78/78 175/79/79 172/76/76
f 175/79/79 176/80/80 172/76/76
f 176/80/80 177/81/81 172/76/76
f 177/81/81 178/82/82 172/76/76
f 178/82/82 170/74/74 172/76/76
f 57/52/52 58/51/51 66/201/83 65/195/84
f 58/51/51 59/54/54 67/200/85 66/201/83
f 59/54/54 60/56/56 68/199/86 67/200/85
f 60/56/56 61/58/58 69/198/87 68/199/86
f 61/58/58 62/60/60 70/197/88 69/198/87
f 62/60/60 63/62/62 71/196/89 70/197/88
f 63/62/62 64/212/64 72/213/90 71/196/89
f 64/64/64 57/52/52 65/195/84 72/194/90
f 65/84/84 66/83/83 112/91/91 105/92/92
f 66/83/83 67/85/85 111/93/93 112/91/91
f 67/85/85 68/86/86 110/94/94 111/93/93
f 68/86/86 69/87/87 109/95/95 110/94/94
f 69/87/87 70/88/88 108/96/96 109/95/95
f 70/88/88 71/89/89 107/97/97 108/96/96
f 71/89/89 72/90/90 106/98/98 107/97/97
f 72/90/90 65/84/84 105/92/92 106/98/98
f 73/99/99 74/100/100 82/101/101 81/102/102
f 74/100/100 75/103/103 83/104/104 82/101/101
f 75/103/103 76/105/105 84/106/106 83/104/104
f 76/105/105 77/107/107 85/108/108 84/106/106
f 77/107/107 78/109/109 86/110/110 85/108/108
f 78/109/109 79/111/111 87/112/112 86/110/110
f 79/111/111 80/113/113 88/114/114 87/112/112
f 80/113/113 73/99/99 81/102/102 88/114/114
f 81/102/102 82/101/101 90/115/115 89/116/116
f 82/101/101 83/104/104 91/117/117 90/115/115
f 83/104/104 84/106/106 92/118/118 91/117/117
f 84/106/106 85/108/108 93/119/119 92/118/118
f 85/108/108 86/110/110 94/120/120 93/119/119
f 86/110/110 87/112/112 95/121/121 94/120/120
f 87/112/112 88/114/114 96/122/122 95/121/121
f 88/114/114 81/102/102 89/116/116 96/122/122
f 89/116/116 90/115/115 98/123/123 97/124/124
f 90/115/115 91/117/117 99/125/125 98/123/123
f 91/117/117 92/118/118 100/126/126 99/125/125
f 92/118/118 93/119/119 101/127/127 100/126/126
f 93/119/119 94/120/120 102/128/128 101/127/127
f 94/120/120 95/121/121 103/129/129 102/128/128
f 95/121/121 96/122/122 104/130/130 103/129/129
f 96/122/122 89/116/116 97/124/124 104/130/130
f 106/98/98 105/92/92 73/99/99 80/113/113
f 107/97/97 106/98/98 80/113/113 79/111/111
f 108/96/96 107/97/97 79/111/111 78/109/109
f 109/95/95 108/96/96 78/109/109 77/107/107
f 110/94/94 109/95/95 77/107/107 76/105/105
f 111/93/93 110/94/94 76/105/105 75/103/103
f 112/91/91 111/93/93 75/103/103 74/100/100
f 105/92/92 112/91/91 74/100/100 73/99/99
f 97/124/124 98/123/123 114/131/131 113/132/132
f 98/123/123 99/125/125 115/133/133 114/131/131
f 99/125/125 100/126/126 116/134/134 115/133/133
f 100/126/126 101/127/127 117/135/135 116/134/134
f 101/127/127 102/128/128 118/136/136 117/135/135
f 102/128/128 103/129/129 119/137/137 118/136/136
f 103/129/129 104/130/130 120/138/138 119/137/137
f 104/130/130 97/124/124 113/132/132 120/138/138
f 50/50/50 49/49/49 121/203/139 122/209/140
f 51/53/53 50/50/50 122/209/140 123/208/141
f 52/55/55 51/53/53 123/208/141 124/207/142
f 53/57/57 52/55/55 124/207/142 125/206/143
f 54/59/59 53/57/57 125/206/143 126/205/144
f 55/61/61 54/59/59 126/205/144 127/204/145
f 56/63/63 55/61/61 127/204/145 128/202/146
f 49/49/49 56/210/63 128/211/146 121/203/139
f 122/140/140 121/139/139 129/147/147 130/148/148
f 123/141/141 122/140/140 130/148/148 131/149/149
f 124/142/142 123/141/141 131/149/149 132/150/150
f 125/143/143 124/142/142 132/150/150 133/151/151
f 126/144/144 125/143/143 133/151/151 134/152/152
f 127/145/145 126/144/144 134/152/152 135/153/153
f 128/146/146 127/145/145 135/153/153 136/154/154
f 121/139/139 128/146/146 136/154/154 129/147/147
f 130/148/148 129/147/147 137/155/155 138/156/156
f 131/149/149 130/148/148 138/156/156 139/157/157
f 132/150/150 131/149/149 139/157/157 140/158/158
f 133/151/151 132/150/150 140/158/158 141/159/159
f 134/152/152 133/151/151 141/159/159 142/160/160
f 135/153/153 134/152/152 142/160/160 143/161/161
f 136/154/154 135/153/153 143/161/161 144/162/162
f 129/147/147 136/154/154 144/162/162 137/155/155
f 138/156/156 137/155/155 145/66/66 146/65/65
f 139/157/157 138/156/156 146/65/65 148/68/68
f 140/158/158 139/157/157 148/68/68 149/69/69
f 141/159/159 140/158/158 149/69/69 150/70/70
f 142/160/160 141/159/159 150/70/70 151/71/71
f 143/161/161 142/160/160 151/71/71 152/72/72
f 144/162/162 143/161/161 152/72/72 153/73/73
f 137/155/155 144/162/162 153/73/73 145/66/66
f 113/132/132 114/131/131 155/163/163 154/164/164
f 114/131/131 115/133/133 156/165/165 155/163/163
f 115/133/133 116/134/134 157/166/166 156/165/165
f 116/134/134 117/135/135 158/167/167 157/166/166
f 117/135/135 118/136/136 159/168/168 158/167/167
f 118/136/136 119/137/137 160/169/169 159/168/168
f 119/137/137 120/138/138 161/170/170 160/169/169
f 120/138/138 113/132/132 154/164/164 161/170/170
f 154/164/164 155/163/163 163/171/171 162/172/172
f 155/163/163 156/165/165 164/173/173 163/171/171
f 156/165/165 157/166/166 165/174/174 164/173/173
f 157/166/166 158/167/167 166/175/175 165/174/174
f 158/167/167 159/168/168 167/176/176 166/175/175
f 159/168/168 160/169/169 168/177/177 167/176/176
f 160/169/169 161/170/170 169/178/178 168/177/177
f 161/170/170 154/164/164 162/172/172 169/178/178
f 162/172/172 163/171/171 171/75/75 170/74/74
f 163/171/171 164/173/173 173/77/77 171/75/75
f 164/173/173 165/174/174 174/78/78 173/77/77
f 165/174/174 166/175/175 175/79/79 174/78/78
f 166/175/175 167/176/176 176/80/80 175/79/79
f 167/176/176 168/177/177 177/81/81 176/80/80
f 168/177/177 169/178/178 178/82/82 177/81/81
f 169/178/178 162/172/172 170/74/74 178/82/82
