# This file uses centimeters as units for non-parametric coordinates.

mtllib Int_barrel_low.mtl
g default
v 0.035338 0.017149 -0.037485
v 0.005797 0.017149 -0.050057
v -0.023745 0.017149 -0.037485
v -0.035981 0.017149 -0.007138
v -0.023745 0.017149 0.023209
v 0.005797 0.017149 0.035779
v 0.035338 0.017149 0.023209
v 0.047574 0.017149 -0.007138
v 0.393478 0.093325 -0.007138
v 0.279928 0.093325 0.274478
v 0.005797 0.093325 0.391127
v -0.268336 0.093325 0.274478
v -0.381885 0.093325 -0.007138
v -0.268335 0.093325 -0.288754
v 0.005797 0.093325 -0.405403
v 0.279928 0.093325 -0.288754
v 0.271301 0.014604 -0.279891
v 0.298242 0.095869 -0.307567
v 0.005797 0.014604 -0.392868
v 0.005797 0.095869 -0.432009
v -0.259708 0.014604 -0.279891
v -0.286649 0.095869 -0.307568
v -0.369684 0.014604 -0.007138
v -0.407784 0.095869 -0.007138
v -0.259708 0.014604 0.265614
v -0.286649 0.095869 0.293291
v 0.005797 0.014604 0.378592
v 0.005797 0.095869 0.417732
v 0.271301 0.014604 0.265614
v 0.298242 0.095869 0.293291
v 0.381276 0.014604 -0.007138
v 0.419377 0.095869 -0.007138
v 0.310679 0.055298 -0.320343
v 0.436965 0.055298 -0.007138
v 0.310679 0.055298 0.306067
v 0.005797 0.055298 0.435801
v -0.299086 0.055298 0.306067
v -0.425372 0.055298 -0.007138
v -0.299085 0.055298 -0.320343
v 0.005797 0.055298 -0.450077
v 0.243353 1.210557 -0.251180
v 0.005797 1.210557 -0.352266
v -0.231761 1.210557 -0.251180
v -0.330159 1.210557 -0.007138
v -0.231761 1.210557 0.236904
v 0.005797 1.210557 0.337989
v 0.243353 1.210557 0.236904
v 0.341752 1.210557 -0.007138
v 0.377164 1.244620 -0.007138
v 0.268393 1.244620 0.262627
v 0.005797 1.244620 0.374367
v -0.256800 1.244620 0.262627
v -0.365571 1.244620 -0.007138
v -0.256799 1.244620 -0.276904
v 0.005797 1.244620 -0.388644
v 0.268393 1.244620 -0.276904
v 0.289272 1.157990 -0.298353
v 0.283402 1.244027 -0.292323
v 0.005797 1.157990 -0.418978
v 0.005797 1.244027 -0.410449
v -0.277679 1.157990 -0.298353
v -0.271809 1.244027 -0.292323
v -0.395098 1.157990 -0.007138
v -0.386797 1.244027 -0.007138
v -0.277679 1.157990 0.284076
v -0.271810 1.244027 0.278046
v 0.005797 1.157990 0.404701
v 0.005797 1.244027 0.396173
v 0.289271 1.157990 0.284076
v 0.283402 1.244027 0.278046
v 0.406691 1.157990 -0.007138
v 0.398390 1.244027 -0.007138
v 0.300689 1.201074 -0.310081
v 0.422838 1.201074 -0.007138
v 0.300689 1.201074 0.295805
v 0.005797 1.201074 0.421288
v -0.289097 1.201074 0.295805
v -0.411245 1.201074 -0.007138
v -0.289096 1.201074 -0.310081
v 0.005797 1.201074 -0.435565
v 0.261623 0.023581 -0.263219
v 0.012347 0.023581 -0.369291
v -0.236927 0.023581 -0.263219
v -0.340181 0.023581 -0.007138
v -0.236928 0.023581 0.248942
v 0.012347 0.023581 0.355013
v 0.261622 0.023581 0.248942
v 0.364876 0.023581 -0.007138
v 0.297912 0.094971 -0.300499
v 0.012347 0.094971 -0.422013
v -0.273218 0.094971 -0.300499
v -0.391503 0.094971 -0.007138
v -0.273218 0.094971 0.286222
v 0.012347 0.094971 0.407736
v 0.297912 0.094971 0.286222
v 0.416197 0.094971 -0.007138
v 0.012347 0.023581 -0.007138
v 0.315739 0.156258 -0.318813
v 0.012347 0.156258 -0.447913
v -0.291045 0.156258 -0.318813
v -0.416714 0.156258 -0.007138
v -0.291045 0.156258 0.304537
v 0.012347 0.156258 0.433636
v 0.315739 0.156258 0.304537
v 0.441408 0.156258 -0.007138
v 0.337123 0.253204 -0.340780
v 0.012347 0.253204 -0.478980
v -0.312429 0.253204 -0.340780
v -0.446956 0.253204 -0.007138
v -0.312429 0.253204 0.326504
v 0.012347 0.253204 0.464703
v 0.337123 0.253204 0.326504
v 0.471650 0.253204 -0.007138
v 0.361798 0.407767 -0.366128
v 0.012347 0.407767 -0.514826
v -0.337103 0.407767 -0.366129
v -0.481850 0.407767 -0.007138
v -0.337103 0.407767 0.351851
v 0.012347 0.407767 0.500550
v 0.361797 0.407767 0.351851
v 0.506544 0.407767 -0.007138
v 0.382001 0.550209 -0.386883
v 0.012347 0.550209 -0.544178
v -0.357306 0.550209 -0.386883
v -0.510422 0.550209 -0.007138
v -0.357306 0.550209 0.372606
v 0.012347 0.550209 0.529902
v 0.382001 0.550209 0.372606
v 0.535116 0.550209 -0.007138
v 0.531423 0.679499 -0.007138
v 0.379389 0.679499 0.369924
v 0.012347 0.679499 0.526108
v -0.354695 0.679499 0.369924
v -0.506729 0.679499 -0.007138
v -0.354695 0.679499 -0.384200
v 0.012347 0.679499 -0.540385
v 0.379389 0.679499 -0.384200
v -0.242590 1.209105 -0.269036
v 0.012347 1.209105 -0.377517
v 0.267285 1.209105 -0.269036
v 0.372883 1.209105 -0.007138
v 0.267285 1.209105 0.254759
v 0.012347 1.209105 0.363240
v -0.242590 1.209105 0.254759
v -0.348189 1.209105 -0.007138
v -0.279705 1.136093 -0.307163
v 0.012347 1.136093 -0.431438
v 0.304398 1.136093 -0.307163
v 0.425370 1.136093 -0.007138
v 0.304399 1.136093 0.292886
v 0.012347 1.136093 0.417160
v -0.279704 1.136093 0.292886
v -0.400676 1.136093 -0.007138
v -0.297937 1.073414 -0.325893
v 0.012347 1.073414 -0.457926
v 0.322631 1.073414 -0.325893
v 0.451156 1.073414 -0.007138
v 0.322631 1.073414 0.311616
v 0.012347 1.073414 0.443649
v -0.297937 1.073414 0.311616
v -0.426460 1.073414 -0.007138
v -0.319807 0.974265 -0.348360
v 0.012347 0.974265 -0.489698
v 0.344500 0.974265 -0.348360
v 0.482083 0.974265 -0.007138
v 0.344501 0.974265 0.334083
v 0.012347 0.974265 0.475421
v -0.319806 0.974265 0.334083
v -0.457388 0.974265 -0.007138
v -0.345041 0.816191 -0.374283
v 0.012347 0.816191 -0.526359
v 0.369735 0.816191 -0.374283
v 0.517770 0.816191 -0.007138
v 0.369735 0.816191 0.360007
v 0.012347 0.816191 0.512083
v -0.345041 0.816191 0.360007
v -0.493076 0.816191 -0.007138
v -0.225233 1.209105 -0.251205
v 0.012347 1.209105 -0.352301
v 0.249928 1.209105 -0.251205
v 0.348337 1.209105 -0.007138
v 0.249928 1.209105 0.236928
v 0.012347 1.209105 0.338024
v -0.225233 1.209105 0.236928
v -0.323643 1.209105 -0.007138
v -0.243906 0.608140 -0.270388
v 0.012347 0.226797 -0.007138
v 0.012347 0.608140 -0.379430
v 0.268601 0.608140 -0.270388
v 0.374745 0.608140 -0.007138
v 0.268601 0.608140 0.256110
v 0.012347 0.608140 0.365152
v -0.243906 0.608140 0.256111
v -0.350050 0.608140 -0.007138
v -0.215127 1.184835 -0.240822
v 0.012347 1.184835 -0.337617
v 0.239820 1.184835 -0.240822
v 0.334044 1.184835 -0.007138
v 0.239821 1.184835 0.226544
v 0.012347 1.184835 0.323340
v -0.215126 1.184835 0.226544
v -0.309349 1.184835 -0.007138
v 0.362275 0.578871 -0.373349
v 0.005797 0.578871 -0.525038
v -0.350682 0.578871 -0.373349
v -0.498340 0.578871 -0.007138
v -0.350682 0.578871 0.359072
v 0.005797 0.578871 0.510761
v 0.362275 0.578871 0.359072
v 0.509933 0.578871 -0.007138
v 0.506372 0.677231 -0.007138
v 0.359756 0.677231 0.356485
v 0.005797 0.677231 0.507102
v -0.348164 0.677231 0.356485
v -0.494779 0.677231 -0.007138
v -0.348163 0.677231 -0.370762
v 0.005797 0.677231 -0.521379
v 0.359757 0.677231 -0.370762
v 0.386090 0.575586 -0.397813
v 0.383403 0.680517 -0.395053
v 0.005797 0.575586 -0.559635
v 0.005797 0.680517 -0.555732
v -0.374496 0.575586 -0.397813
v -0.371810 0.680517 -0.395053
v -0.532019 0.575586 -0.007138
v -0.528220 0.680517 -0.007138
v -0.374496 0.575586 0.383537
v -0.371810 0.680517 0.380776
v 0.005797 0.575586 0.545359
v 0.005797 0.680517 0.541456
v 0.386090 0.575586 0.383537
v 0.383402 0.680517 0.380776
v 0.543612 0.575586 -0.007138
v 0.539813 0.680517 -0.007138
v 0.399462 0.628131 -0.411550
v 0.562522 0.628131 -0.007138
v 0.399461 0.628131 0.397273
v 0.005797 0.628131 0.564786
v -0.387868 0.628131 0.397273
v -0.550930 0.628131 -0.007138
v -0.387868 0.628131 -0.411550
v 0.005797 0.628131 -0.579063
vt 0.286201 0.722348
vt 0.273861 0.731839
vt 0.271859 0.727511
vt 0.282859 0.719105
vt 0.294425 0.707887
vt 0.290335 0.705724
vt 0.213611 0.692974
vt 0.294228 0.687734
vt 0.220787 0.711926
vt 0.224616 0.709329
vt 0.230543 0.725401
vt 0.233510 0.721811
vt 0.243847 0.733485
vt 0.245364 0.728964
vt 0.259018 0.735651
vt 0.258754 0.730834
vt 0.275684 0.736050
vt 0.260705 0.704154
vt 0.257309 0.704491
vt 0.259275 0.740348
vt 0.289238 0.725617
vt 0.263702 0.702757
vt 0.298352 0.710233
vt 0.265229 0.700137
vt 0.303789 0.691409
vt 0.248451 0.698416
vt 0.217140 0.714688
vt 0.248960 0.701029
vt 0.227882 0.728983
vt 0.250764 0.703466
vt 0.242495 0.737870
vt 0.253896 0.704528
vt 0.275081 0.734581
vt 0.259187 0.738731
vt 0.288198 0.724471
vt 0.296986 0.709403
vt 0.302399 0.690025
vt 0.218407 0.713713
vt 0.228790 0.727729
vt 0.242935 0.736344
vt 0.740147 0.687493
vt 0.703054 0.704390
vt 0.700096 0.698622
vt 0.737968 0.681399
vt 0.779237 0.676775
vt 0.777980 0.670311
vt 0.820477 0.672263
vt 0.820289 0.665559
vt 0.861905 0.674455
vt 0.862799 0.667932
vt 0.901534 0.682971
vt 0.903370 0.676766
vt 0.939511 0.697776
vt 0.942144 0.691853
vt 0.665192 0.728136
vt 0.981213 0.712734
vt 0.707674 0.713113
vt 0.694706 0.688487
vt 0.659407 0.709077
vt 0.971191 0.727227
vt 0.743508 0.696864
vt 0.734352 0.671336
vt 0.781267 0.686630
vt 0.776126 0.659113
vt 0.820762 0.682403
vt 0.819958 0.653683
vt 0.860432 0.684408
vt 0.864027 0.656648
vt 0.898702 0.692514
vt 0.906421 0.666517
vt 0.935385 0.706743
vt 0.946962 0.681435
vt 0.706338 0.710575
vt 0.973756 0.725233
vt 0.742531 0.694144
vt 0.780650 0.683782
vt 0.820680 0.679476
vt 0.860888 0.681531
vt 0.899526 0.689744
vt 0.936578 0.704135
vt 0.270442 0.674168
vt 0.265509 0.669054
vt 0.273983 0.649498
vt 0.281282 0.649600
vt 0.266059 0.629712
vt 0.271134 0.624737
vt 0.245913 0.621116
vt 0.246010 0.614167
vt 0.225533 0.629145
vt 0.220600 0.624030
vt 0.217060 0.648701
vt 0.209761 0.648599
vt 0.224983 0.668487
vt 0.219908 0.673461
vt 0.245130 0.677083
vt 0.245033 0.684032
vt 0.245521 0.649099
vt 0.323786 0.754149
vt 0.385708 0.768117
vt 0.443220 0.785850
vt 0.021768 0.812071
vt 0.073447 0.793229
vt 0.130205 0.773216
vt 0.191522 0.756788
vt 0.257524 0.748969
vt 0.321998 0.768937
vt 0.382581 0.782464
vt 0.439597 0.800626
vt 0.024334 0.827835
vt 0.077657 0.807849
vt 0.133903 0.787427
vt 0.193898 0.771493
vt 0.257829 0.764221
vt 0.319492 0.791806
vt 0.378112 0.804602
vt 0.434178 0.823708
vt 0.029781 0.853369
vt 0.083992 0.830696
vt 0.139252 0.809369
vt 0.197315 0.794245
vt 0.258302 0.787912
vt 0.317283 0.812629
vt 0.373976 0.824720
vt 0.428598 0.844637
vt 0.036643 0.877124
vt 0.090402 0.851385
vt 0.144186 0.829306
vt 0.200352 0.814962
vt 0.258731 0.809422
vt 0.315169 0.831291
vt 0.369621 0.843069
vt 0.422604 0.862908
vt 0.045194 0.897485
vt 0.097122 0.869404
vt 0.149271 0.847466
vt 0.203209 0.833525
vt 0.259103 0.828061
vt 0.391493 0.925543
vt 0.383938 0.936618
vt 0.345145 0.920600
vt 0.349681 0.908431
vt 0.303750 0.912472
vt 0.305918 0.899444
vt 0.260751 0.910695
vt 0.260483 0.897260
vt 0.217858 0.914187
vt 0.215172 0.901254
vt 0.176820 0.923959
vt 0.171803 0.911980
vt 0.138697 0.941511
vt 0.130706 0.930746
vt 0.106822 0.969165
vt 0.429033 0.954270
vt 0.155350 0.653747
vt 0.115987 0.677780
vt 0.134751 0.623833
vt 0.100233 0.632956
vt 0.085150 0.661251
vt 0.074247 0.693147
vt 0.096129 0.724296
vt 0.132333 0.715868
vt 0.149811 0.686856
vt 0.396920 0.917017
vt 0.352993 0.899099
vt 0.307419 0.889575
vt 0.260282 0.887185
vt 0.213278 0.891453
vt 0.168120 0.902788
vt 0.124943 0.922444
vt 0.437459 0.946482
vt 0.404631 0.903602
vt 0.357769 0.884787
vt 0.309607 0.874506
vt 0.259976 0.871807
vt 0.210491 0.876484
vt 0.162777 0.888678
vt 0.116704 0.909347
vt 0.449373 0.933255
vt 0.415141 0.881915
vt 0.364524 0.862346
vt 0.312750 0.851099
vt 0.259500 0.848004
vt 0.206417 0.853220
vt 0.155133 0.866524
vt 0.105336 0.888098
vt 0.465121 0.910131
vt 0.381927 0.939525
vt 0.110526 0.970672
vt 0.343915 0.923826
vt 0.303107 0.915875
vt 0.260821 0.914156
vt 0.218636 0.917561
vt 0.178178 0.927133
vt 0.140823 0.944335
vt 0.193511 0.640025
vt 0.202873 0.705872
vt 0.142507 0.602076
vt 0.079134 0.598035
vt 0.029557 0.642138
vt 0.038176 0.707805
vt 0.089249 0.745934
vt 0.153028 0.750108
vt 0.882621 0.619775
vt 0.834071 0.618952
vt 0.834158 0.612069
vt 0.882764 0.612962
vt 0.931248 0.620921
vt 0.931395 0.614097
vt 0.585491 0.619833
vt 0.982480 0.615370
vt 0.637489 0.618963
vt 0.637432 0.612138
vt 0.686127 0.618464
vt 0.686075 0.611650
vt 0.734684 0.618289
vt 0.734689 0.611405
vt 0.784378 0.618483
vt 0.784425 0.611527
vt 0.833718 0.629815
vt 0.834087 0.608203
vt 0.784451 0.607629
vt 0.784305 0.629462
vt 0.882413 0.630499
vt 0.882843 0.609143
vt 0.931113 0.631734
vt 0.931580 0.610235
vt 0.980141 0.633568
vt 0.587963 0.608741
vt 0.637481 0.629778
vt 0.637299 0.608275
vt 0.686192 0.629190
vt 0.686047 0.607831
vt 0.734891 0.629155
vt 0.734812 0.607541
vt 0.833914 0.625972
vt 0.784331 0.625582
vt 0.882488 0.626709
vt 0.931100 0.627884
vt 0.981915 0.629675
vt 0.637545 0.625928
vt 0.686167 0.625400
vt 0.734747 0.625310
vt 0.586710 0.627044
vt 0.983230 0.622482
vt 0.588432 0.630960
vt 0.979680 0.645852
vt 0.586335 0.612732
vt 0.670390 0.733709
vt 0.978637 0.719380
vt 0.965751 0.732279
vt 0.662250 0.721644
vt 0.673062 0.735557
vt 0.210906 0.695044
vt 0.299485 0.688264
vt 0.279273 0.943475
vt 0.265449 0.697484
vt 0.218778 0.691872
vt 0.784223 0.641752
vt 0.734734 0.641418
vt 0.686278 0.641378
vt 0.637866 0.642038
vt 0.588730 0.643249
vt 0.980905 0.611357
vt 0.930565 0.643988
vt 0.882166 0.642684
vt 0.833712 0.642077
vt 0.678776 0.740299
vt 0.983353 0.700029
vt 0.932347 0.713018
vt 0.896725 0.699111
vt 0.859429 0.691338
vt 0.820962 0.689501
vt 0.782659 0.693491
vt 0.745851 0.703339
vt 0.711057 0.719209
vt 0.259438 0.956022
vt 0.257669 0.954822
vt 0.262453 0.932172
vt 0.283105 0.962994
vt 0.259831 0.958079
vt 0.209677 0.696572
vt 0.271707 0.979296
vt 0.258639 0.959801
vt 0.251752 0.982832
vt 0.256536 0.960182
vt 0.234932 0.971529
vt 0.254767 0.958983
vt 0.231100 0.952010
vt 0.254374 0.956926
vt 0.242498 0.935708
vt 0.255566 0.955203
vt 0.274163 0.678094
vt 0.244959 0.689308
vt 0.216080 0.677281
vt 0.204198 0.648521
vt 0.216879 0.620105
vt 0.246084 0.608891
vt 0.274963 0.620917
vt 0.286845 0.649678
vt 0.143459 0.947654
vt 0.114255 0.973005
vt 0.179840 0.930984
vt 0.219465 0.921673
vt 0.260904 0.918361
vt 0.302443 0.920017
vt 0.342407 0.927741
vt 0.379425 0.942945
vt 0.413250 0.964632
vt 0.409617 0.967111
vt 0.416891 0.962977
vt 0.056522 0.918284
vt 0.475610 0.888896
vt 0.073179 0.940761
vt 0.085612 0.953503
vt 0.094343 0.960948
vt 0.483342 0.868210
vt 0.489250 0.844200
vt 0.493674 0.818470
vt 0.495610 0.802615
vn 0.000001 -0.377221 -0.926123
vn 0.668177 -0.371252 -0.644757
vn 0.165537 -0.972693 -0.162685
vn 0.000000 -0.973912 -0.226928
vn -0.668177 -0.371252 -0.644756
vn -0.165537 -0.972693 -0.162685
vn -0.930830 -0.365452 0.000000
vn -0.237448 -0.971400 0.000000
vn -0.668177 -0.371254 0.644756
vn -0.165537 -0.972693 0.162685
vn 0.000000 -0.377221 0.926123
vn 0.000000 -0.973912 0.226928
vn 0.668177 -0.371254 0.644756
vn 0.165537 -0.972693 0.162685
vn 0.930830 -0.365452 0.000000
vn 0.237448 -0.971400 0.000000
vn -0.138105 0.981537 0.132338
vn -0.691260 0.242901 0.680558
vn -0.970781 0.239967 -0.000001
vn -0.193415 0.981117 0.000000
vn 0.000000 0.981979 0.188988
vn -0.000001 0.245893 0.969297
vn 0.138105 0.981537 0.132338
vn 0.691259 0.242901 0.680558
vn 0.193415 0.981117 0.000000
vn 0.970780 0.239970 0.000001
vn 0.138105 0.981537 -0.132338
vn 0.691260 0.242903 -0.680557
vn 0.000000 0.981979 -0.188988
vn 0.000000 0.245889 -0.969298
vn -0.138105 0.981537 -0.132338
vn -0.691260 0.242899 -0.680558
vn 0.530604 0.669951 -0.519254
vn 0.749178 0.662368 0.000000
vn 0.000000 0.677441 -0.735577
vn -0.530604 0.669950 -0.519256
vn -0.749178 0.662369 -0.000001
vn -0.530605 0.669950 0.519255
vn 0.000000 0.677441 0.735577
vn 0.530605 0.669950 0.519255
vn 0.000001 0.088077 -0.996114
vn 0.715772 0.086543 -0.692951
vn 0.074790 -0.994014 -0.079642
vn 0.000000 -0.994883 -0.101029
vn -0.715771 0.086543 -0.692952
vn -0.074790 -0.994014 -0.079641
vn -0.996376 0.085056 -0.000001
vn -0.118101 -0.993002 0.000000
vn -0.715773 0.086543 0.692950
vn -0.074789 -0.994014 0.079642
vn 0.000000 0.088077 0.996114
vn 0.000000 -0.994884 0.101028
vn 0.715772 0.086543 0.692951
vn 0.074790 -0.994014 0.079641
vn 0.996376 0.085056 0.000000
vn 0.118102 -0.993002 0.000000
vn -0.306249 0.905195 0.294675
vn -0.668182 -0.351255 0.655860
vn -0.937769 -0.347260 -0.000001
vn -0.427118 0.904196 0.000000
vn 0.000000 0.906363 0.422500
vn 0.000000 -0.355335 0.934739
vn 0.306248 0.905195 0.294676
vn 0.668181 -0.351257 0.655860
vn 0.427118 0.904196 0.000000
vn 0.937769 -0.347261 0.000000
vn 0.306249 0.905195 -0.294674
vn 0.668182 -0.351257 -0.655859
vn 0.000000 0.906364 -0.422498
vn 0.000000 -0.355336 -0.934739
vn -0.306248 0.905196 -0.294674
vn -0.668182 -0.351257 -0.655859
vn 0.534026 0.664686 -0.522503
vn 0.753102 0.657904 0.000001
vn 0.000000 0.671433 -0.741065
vn -0.534026 0.664686 -0.522503
vn -0.753101 0.657905 -0.000001
vn -0.534026 0.664687 0.522502
vn 0.000000 0.671433 0.741065
vn 0.534025 0.664686 0.522502
vn 0.625525 -0.488976 -0.607965
vn 0.286774 -0.915884 -0.280921
vn 0.000000 -0.919225 -0.393734
vn 0.000000 -0.494520 -0.869166
vn -0.286774 -0.915884 -0.280922
vn -0.625524 -0.488976 -0.607965
vn -0.409336 -0.912384 0.000000
vn -0.875301 -0.483579 0.000000
vn -0.286774 -0.915884 0.280921
vn -0.625525 -0.488977 0.607964
vn 0.000000 -0.919225 0.393733
vn 0.000000 -0.494521 0.869166
vn 0.286774 -0.915884 0.280921
vn 0.625525 -0.488976 0.607965
vn 0.409336 -0.912384 0.000000
vn 0.875301 -0.483579 0.000000
vn 0.000000 -1.000000 0.000000
vn 0.676106 -0.330609 -0.658467
vn 0.000000 -0.334758 -0.942304
vn -0.676105 -0.330608 -0.658468
vn -0.945165 -0.326594 -0.000001
vn -0.676105 -0.330611 0.658467
vn 0.000000 -0.334762 0.942303
vn 0.676104 -0.330611 0.658467
vn 0.945165 -0.326594 0.000000
vn 0.693596 -0.250569 -0.675381
vn 0.000000 -0.253873 -0.967238
vn -0.693595 -0.250569 -0.675382
vn -0.968919 -0.247380 -0.000001
vn -0.693596 -0.250569 0.675381
vn 0.000000 -0.253874 0.967237
vn 0.693596 -0.250570 0.675381
vn 0.968919 -0.247380 0.000000
vn 0.700524 -0.210743 -0.681802
vn 0.000000 -0.213530 -0.976937
vn -0.700523 -0.210744 -0.681802
vn -0.978116 -0.208062 -0.000001
vn -0.700525 -0.210744 0.681800
vn 0.000000 -0.213531 0.976936
vn 0.700525 -0.210744 0.681800
vn 0.978116 -0.208061 0.000000
vn 0.714191 -0.088968 -0.694274
vn 0.000000 -0.090272 -0.995917
vn -0.714191 -0.088968 -0.694274
vn -0.996146 -0.087714 0.000000
vn -0.714191 -0.088969 0.694273
vn 0.000000 -0.090273 0.995917
vn 0.714191 -0.088969 0.694273
vn 0.996146 -0.087713 0.000000
vn 0.715187 0.065169 -0.695889
vn 0.000000 0.066080 -0.997814
vn -0.715186 0.065168 -0.695890
vn -0.997931 0.064291 0.000000
vn -0.715187 0.065169 0.695889
vn 0.000000 0.066081 0.997814
vn 0.715187 0.065168 0.695889
vn 0.997931 0.064291 0.000000
vn -0.625525 0.488976 -0.607965
vn -0.522371 0.682116 -0.511709
vn 0.000000 0.688159 -0.725560
vn 0.000000 0.494520 -0.869166
vn 0.522371 0.682116 -0.511709
vn 0.625525 0.488976 -0.607965
vn 0.736847 0.676059 -0.000001
vn 0.875301 0.483579 0.000000
vn 0.522371 0.682116 0.511710
vn 0.625525 0.488976 0.607965
vn 0.000000 0.688158 0.725561
vn 0.000000 0.494521 0.869166
vn -0.522371 0.682116 0.511710
vn -0.625524 0.488977 0.607965
vn -0.736847 0.676060 0.000001
vn -0.875301 0.483579 0.000000
vn 0.707713 0.165469 0.686849
vn 0.000000 1.000000 0.000000
vn 0.000000 0.168782 0.985653
vn -0.707713 0.165469 0.686850
vn -0.986755 0.162220 0.000000
vn -0.707714 0.165469 -0.686849
vn -0.000001 0.168782 -0.985653
vn 0.707713 0.165469 -0.686849
vn 0.986755 0.162220 0.000000
vn -0.676105 0.330609 -0.658467
vn 0.000000 0.334759 -0.942304
vn 0.676106 0.330609 -0.658467
vn 0.945165 0.326594 0.000000
vn 0.676104 0.330611 0.658467
vn 0.000000 0.334762 0.942303
vn -0.676105 0.330611 0.658466
vn -0.945165 0.326594 0.000000
vn -0.693596 0.250568 -0.675382
vn 0.000000 0.253873 -0.967238
vn 0.693595 0.250569 -0.675382
vn 0.968919 0.247380 0.000000
vn 0.693596 0.250570 0.675380
vn 0.000000 0.253874 0.967237
vn -0.693596 0.250569 0.675381
vn -0.968919 0.247379 0.000000
vn -0.707171 0.163696 -0.687832
vn -0.000001 0.165974 -0.986130
vn 0.707170 0.163697 -0.687833
vn 0.986872 0.161504 0.000000
vn 0.707171 0.163697 0.687832
vn 0.000000 0.165975 0.986130
vn -0.707171 0.163697 0.687832
vn -0.986872 0.161503 0.000000
vn 0.306906 0.904303 0.296724
vn 0.428706 0.903444 0.000000
vn 0.000000 0.905312 0.424747
vn -0.306906 0.904303 0.296724
vn -0.428706 0.903444 0.000000
vn -0.306905 0.904304 -0.296722
vn 0.000000 0.905314 -0.424744
vn 0.306905 0.904304 -0.296722
vn 0.715552 -0.043184 0.697223
vn 0.999096 -0.042521 0.000000
vn 0.000000 -0.043866 0.999037
vn -0.715551 -0.043184 0.697224
vn -0.999096 -0.042521 0.000000
vn -0.715552 -0.043184 -0.697223
vn -0.000001 -0.043866 -0.999037
vn 0.715552 -0.043184 -0.697223
vn 0.000000 0.033732 -0.999431
vn 0.717787 0.033155 -0.695473
vn 0.549082 -0.640427 -0.536993
vn 0.000000 -0.648252 -0.761426
vn -0.717787 0.033155 -0.695473
vn -0.549083 -0.640427 -0.536993
vn -0.999469 0.032597 -0.000001
vn -0.774545 -0.632519 0.000000
vn -0.717787 0.033155 0.695473
vn -0.549083 -0.640427 0.536993
vn -0.000001 0.033733 0.999431
vn 0.000000 -0.648252 0.761426
vn 0.717787 0.033155 0.695473
vn 0.549084 -0.640427 0.536992
vn 0.999469 0.032596 0.000001
vn 0.774544 -0.632520 0.000000
vn -0.668119 0.360431 0.650928
vn -0.648788 -0.424442 0.631604
vn -0.906707 -0.421762 0.000000
vn -0.933675 0.358123 0.000000
vn 0.000000 0.362926 0.931818
vn 0.000000 -0.427336 0.904093
vn 0.668119 0.360429 0.650929
vn 0.648788 -0.424441 0.631604
vn 0.933675 0.358121 0.000001
vn 0.906707 -0.421760 0.000001
vn 0.668120 0.360429 -0.650928
vn 0.648789 -0.424441 -0.631603
vn 0.000001 0.362926 -0.931818
vn 0.000001 -0.427336 -0.904093
vn -0.668119 0.360430 -0.650928
vn -0.648788 -0.424443 -0.631603
vn 0.530604 0.669951 -0.519254
vn 0.749178 0.662369 0.000001
vn 0.000000 0.677441 -0.735577
vn -0.530604 0.669951 -0.519255
vn -0.749178 0.662369 -0.000001
vn -0.530604 0.669951 0.519253
vn 0.000000 0.677442 0.735577
vn 0.530604 0.669951 0.519254
s 1
g barrel_low:pCylinder12
usemtl standardSurface1SG
f 40/1/1 33/2/2 17/3/3 19/4/4
f 39/5/5 40/1/1 19/4/4 21/6/6
f 38/254/7 39/5/5 21/6/6 23/8/8
f 37/9/9 38/7/7 23/257/8 25/10/10
f 36/11/11 37/9/9 25/10/10 27/12/12
f 35/13/13 36/11/11 27/12/12 29/14/14
f 34/15/15 35/13/13 29/14/14 31/16/16
f 33/2/2 34/15/15 31/16/16 17/3/3
f 16/255/17 1/276/18 8/277/19 9/278/20
f 15/279/21 2/280/22 1/276/18 16/255/17
f 14/282/23 3/283/24 2/280/22 15/279/21
f 13/284/25 4/285/26 3/283/24 14/282/23
f 12/286/27 5/287/28 4/285/26 13/284/25
f 11/288/29 6/289/30 5/287/28 12/286/27
f 10/290/31 7/291/32 6/289/30 11/288/29
f 9/278/20 8/277/19 7/291/32 10/290/31
f 18/33/33 16/17/17 9/20/20 32/34/34
f 17/3/3 1/18/18 2/22/22 19/4/4
f 20/35/35 15/21/21 16/17/17 18/33/33
f 19/4/4 2/22/22 3/24/24 21/6/6
f 22/36/36 14/23/23 15/21/21 20/35/35
f 21/6/6 3/24/24 4/256/26 23/8/8
f 24/37/37 13/25/25 14/23/23 22/36/36
f 23/257/8 4/26/26 5/28/28 25/10/10
f 26/38/38 12/27/27 13/281/25 24/253/37
f 25/10/10 5/28/28 6/30/30 27/12/12
f 28/39/39 11/29/29 12/27/27 26/38/38
f 27/12/12 6/30/30 7/32/32 29/14/14
f 30/40/40 10/31/31 11/29/29 28/39/39
f 29/14/14 7/32/32 8/19/19 31/16/16
f 32/34/34 9/20/20 10/31/31 30/40/40
f 17/3/3 31/16/16 8/19/19 1/18/18
f 18/33/33 32/34/34 34/15/15 33/2/2
f 32/34/34 30/40/40 35/13/13 34/15/15
f 30/40/40 28/39/39 36/11/11 35/13/13
f 28/39/39 26/38/38 37/9/9 36/11/11
f 26/38/38 24/253/37 38/7/7 37/9/9
f 24/37/37 22/36/36 39/5/5 38/254/7
f 22/36/36 20/35/35 40/1/1 39/5/5
f 20/35/35 18/33/33 33/2/2 40/1/1
s 3
f 80/41/41 73/42/42 57/43/43 59/44/44
f 79/45/45 80/41/41 59/44/44 61/46/46
f 78/47/47 79/45/45 61/46/46 63/48/48
f 77/49/49 78/47/47 63/48/48 65/50/50
f 76/51/51 77/49/49 65/50/50 67/52/52
f 75/53/53 76/51/51 67/52/52 69/54/54
f 74/249/55 75/53/53 69/54/54 71/56/56
f 73/42/42 74/55/55 71/251/56 57/43/43
f 56/57/57 41/275/58 48/267/59 49/252/60
f 55/61/61 42/274/62 41/275/58 56/57/57
f 54/63/63 43/273/64 42/274/62 55/61/61
f 53/65/65 44/272/66 43/273/64 54/63/63
f 52/67/67 45/271/68 44/272/66 53/65/65
f 51/69/69 46/270/70 45/271/68 52/67/67
f 50/71/71 47/269/72 46/270/70 51/69/69
f 49/60/60 48/250/59 47/269/72 50/71/71
f 58/73/73 56/57/57 49/252/60 72/248/74
f 57/43/43 41/58/58 42/62/62 59/44/44
f 60/75/75 55/61/61 56/57/57 58/73/73
f 59/44/44 42/62/62 43/64/64 61/46/46
f 62/76/76 54/63/63 55/61/61 60/75/75
f 61/46/46 43/64/64 44/66/66 63/48/48
f 64/77/77 53/65/65 54/63/63 62/76/76
f 63/48/48 44/66/66 45/68/68 65/50/50
f 66/78/78 52/67/67 53/65/65 64/77/77
f 65/50/50 45/68/68 46/70/70 67/52/52
f 68/79/79 51/69/69 52/67/67 66/78/78
f 67/52/52 46/70/70 47/72/72 69/54/54
f 70/80/80 50/71/71 51/69/69 68/79/79
f 69/54/54 47/72/72 48/268/59 71/56/56
f 72/74/74 49/60/60 50/71/71 70/80/80
f 57/43/43 71/251/56 48/59/59 41/58/58
f 58/73/73 72/248/74 74/55/55 73/42/42
f 72/74/74 70/80/80 75/53/53 74/249/55
f 70/80/80 68/79/79 76/51/51 75/53/53
f 68/79/79 66/78/78 77/49/49 76/51/51
f 66/78/78 64/77/77 78/47/47 77/49/49
f 64/77/77 62/76/76 79/45/45 78/47/47
f 62/76/76 60/75/75 80/41/41 79/45/45
f 60/75/75 58/73/73 73/42/42 80/41/41
s 5
f 89/81/81 81/82/82 82/83/83 90/84/84
f 90/84/84 82/83/83 83/85/85 91/86/86
f 91/86/86 83/85/85 84/87/87 92/88/88
f 92/88/88 84/87/87 85/89/89 93/90/90
f 93/90/90 85/89/89 86/91/91 94/92/92
f 94/92/92 86/91/91 87/93/93 95/94/94
f 95/94/94 87/93/93 88/95/95 96/96/96
f 96/96/96 88/95/95 81/82/82 89/81/81
f 82/83/83 81/82/82 97/97/97
f 83/85/85 82/83/83 97/97/97
f 84/87/87 83/85/85 97/97/97
f 85/89/89 84/87/87 97/97/97
f 86/91/91 85/89/89 97/97/97
f 87/93/93 86/91/91 97/97/97
f 88/95/95 87/93/93 97/97/97
f 81/82/82 88/95/95 97/97/97
f 98/292/98 89/81/81 90/84/84 99/299/99
f 99/299/99 90/84/84 91/86/86 100/298/100
f 100/298/100 91/86/86 92/88/88 101/297/101
f 101/297/101 92/88/88 93/90/90 102/296/102
f 102/296/102 93/90/90 94/92/92 103/295/103
f 103/295/103 94/92/92 95/94/94 104/294/104
f 104/294/104 95/94/94 96/96/96 105/293/105
f 105/293/105 96/96/96 89/81/81 98/292/98
f 106/106/106 98/98/98 99/99/99 107/107/107
f 107/107/107 99/99/99 100/100/100 108/108/108
f 108/108/108 100/100/100 101/319/101 109/318/109
f 109/109/109 101/101/101 102/102/102 110/110/110
f 110/110/110 102/102/102 103/103/103 111/111/111
f 111/111/111 103/103/103 104/104/104 112/112/112
f 112/112/112 104/104/104 105/105/105 113/113/113
f 113/113/113 105/105/105 98/98/98 106/106/106
f 114/114/114 106/106/106 107/107/107 115/115/115
f 115/115/115 107/107/107 108/108/108 116/116/116
f 116/116/116 108/108/108 109/318/109 117/317/117
f 117/117/117 109/109/109 110/110/110 118/118/118
f 118/118/118 110/110/110 111/111/111 119/119/119
f 119/119/119 111/111/111 112/112/112 120/120/120
f 120/120/120 112/112/112 113/113/113 121/121/121
f 121/121/121 113/113/113 106/106/106 114/114/114
f 122/122/122 114/114/114 115/115/115 123/123/123
f 123/123/123 115/115/115 116/116/116 124/124/124
f 124/124/124 116/116/116 117/317/117 125/316/125
f 125/125/125 117/117/117 118/118/118 126/126/126
f 126/126/126 118/118/118 119/119/119 127/127/127
f 127/127/127 119/119/119 120/120/120 128/128/128
f 128/128/128 120/120/120 121/121/121 129/129/129
f 129/129/129 121/121/121 114/114/114 122/122/122
f 137/130/130 122/122/122 123/123/123 136/131/131
f 136/131/131 123/123/123 124/124/124 135/132/132
f 135/132/132 124/124/124 125/316/125 134/312/133
f 134/133/133 125/125/125 126/126/126 133/134/134
f 133/134/134 126/126/126 127/127/127 132/135/135
f 132/135/135 127/127/127 128/128/128 131/136/136
f 131/136/136 128/128/128 129/129/129 130/137/137
f 130/137/137 129/129/129 122/122/122 137/130/130
f 146/138/138 138/139/139 139/140/140 147/141/141
f 147/141/141 139/140/140 140/142/142 148/143/143
f 148/143/143 140/142/142 141/144/144 149/145/145
f 149/145/145 141/144/144 142/146/146 150/147/147
f 150/147/147 142/146/146 143/148/148 151/149/149
f 151/149/149 143/148/148 144/150/150 152/151/151
f 152/151/151 144/150/150 145/152/152 153/315/153
f 153/153/153 145/310/152 138/139/139 146/138/138
f 186/154/154 187/155/155 188/156/156
f 188/156/156 187/155/155 189/157/157
f 189/157/157 187/155/155 190/158/158
f 190/158/158 187/155/155 191/159/159
f 191/159/159 187/155/155 192/160/160
f 192/160/160 187/155/155 193/161/161
f 193/161/161 187/155/155 194/162/162
f 194/162/162 187/155/155 186/154/154
f 154/163/163 146/138/138 147/141/141 155/164/164
f 155/164/164 147/141/141 148/143/143 156/165/165
f 156/165/165 148/143/143 149/145/145 157/166/166
f 157/166/166 149/145/145 150/147/147 158/167/167
f 158/167/167 150/147/147 151/149/149 159/168/168
f 159/168/168 151/149/149 152/151/151 160/169/169
f 160/169/169 152/151/151 153/315/153 161/314/170
f 161/170/170 153/153/153 146/138/138 154/163/163
f 162/171/171 154/163/163 155/164/164 163/172/172
f 163/172/172 155/164/164 156/165/165 164/173/173
f 164/173/173 156/165/165 157/166/166 165/174/174
f 165/174/174 157/166/166 158/167/167 166/175/175
f 166/175/175 158/167/167 159/168/168 167/176/176
f 167/176/176 159/168/168 160/169/169 168/177/177
f 168/177/177 160/169/169 161/314/170 169/313/178
f 169/178/178 161/170/170 154/163/163 162/171/171
f 170/179/179 162/171/171 163/172/172 171/180/180
f 171/180/180 163/172/172 164/173/173 172/181/181
f 172/181/181 164/173/173 165/174/174 173/182/182
f 173/182/182 165/174/174 166/175/175 174/183/183
f 174/183/183 166/175/175 167/176/176 175/184/184
f 175/184/184 167/176/176 168/177/177 176/185/185
f 176/185/185 168/177/177 169/313/178 177/311/186
f 177/186/186 169/178/178 162/171/171 170/179/179
f 136/131/131 135/132/132 170/179/179 171/180/180
f 137/130/130 136/131/131 171/180/180 172/181/181
f 130/137/137 137/130/130 172/181/181 173/182/182
f 131/136/136 130/137/137 173/182/182 174/183/183
f 132/135/135 131/136/136 174/183/183 175/184/184
f 133/134/134 132/135/135 175/184/184 176/185/185
f 134/133/133 133/134/134 176/185/185 177/311/186
f 135/132/132 134/312/133 177/186/186 170/179/179
f 178/187/187 138/139/139 145/310/152 185/308/188
f 179/189/189 139/140/140 138/139/139 178/187/187
f 180/190/190 140/142/142 139/140/140 179/189/189
f 181/191/191 141/144/144 140/142/142 180/190/190
f 182/192/192 142/146/146 141/144/144 181/191/191
f 183/193/193 143/148/148 142/146/146 182/192/192
f 184/194/194 144/150/150 143/148/148 183/193/193
f 185/188/188 145/152/152 144/150/150 184/194/194
f 195/307/195 178/187/187 185/308/188 202/309/196
f 195/307/195 196/306/197 179/189/189 178/187/187
f 196/306/197 197/305/198 180/190/190 179/189/189
f 197/305/198 198/304/199 181/191/191 180/190/190
f 198/304/199 199/303/200 182/192/192 181/191/191
f 199/303/200 200/302/201 183/193/193 182/192/192
f 200/302/201 201/300/202 184/194/194 183/193/193
f 201/300/202 202/301/196 185/188/188 184/194/194
f 194/162/162 186/154/154 195/195/195 202/196/196
f 186/154/154 188/156/156 196/197/197 195/195/195
f 188/156/156 189/157/157 197/198/198 196/197/197
f 189/157/157 190/158/158 198/199/199 197/198/198
f 190/158/158 191/159/159 199/200/200 198/199/199
f 191/159/159 192/160/160 200/201/201 199/200/200
f 192/160/160 193/161/161 201/202/202 200/201/201
f 193/161/161 194/162/162 202/196/196 201/202/202
s 8
f 242/203/203 235/204/204 219/205/205 221/206/206
f 241/207/207 242/203/203 221/206/206 223/208/208
f 240/244/209 241/207/207 223/208/208 225/210/210
f 239/211/211 240/209/209 225/247/210 227/212/212
f 238/213/213 239/211/211 227/212/212 229/214/214
f 237/215/215 238/213/213 229/214/214 231/216/216
f 236/217/217 237/215/215 231/216/216 233/218/218
f 235/204/204 236/217/217 233/218/218 219/205/205
f 218/219/219 203/266/220 210/258/221 211/222/222
f 217/223/223 204/265/224 203/266/220 218/219/219
f 216/225/225 205/264/226 204/265/224 217/223/223
f 215/227/227 206/246/228 205/264/226 216/225/225
f 214/229/229 207/261/230 206/262/228 215/245/227
f 213/231/231 208/260/232 207/261/230 214/229/229
f 212/233/233 209/259/234 208/260/232 213/231/231
f 211/222/222 210/258/221 209/259/234 212/233/233
f 220/235/235 218/219/219 211/222/222 234/236/236
f 219/205/205 203/220/220 204/224/224 221/206/206
f 222/237/237 217/223/223 218/219/219 220/235/235
f 221/206/206 204/224/224 205/226/226 223/208/208
f 224/238/238 216/225/225 217/223/223 222/237/237
f 223/208/208 205/226/226 206/263/228 225/210/210
f 226/239/239 215/227/227 216/225/225 224/238/238
f 225/247/210 206/228/228 207/230/230 227/212/212
f 228/240/240 214/229/229 215/245/227 226/243/239
f 227/212/212 207/230/230 208/232/232 229/214/214
f 230/241/241 213/231/231 214/229/229 228/240/240
f 229/214/214 208/232/232 209/234/234 231/216/216
f 232/242/242 212/233/233 213/231/231 230/241/241
f 231/216/216 209/234/234 210/221/221 233/218/218
f 234/236/236 211/222/222 212/233/233 232/242/242
f 219/205/205 233/218/218 210/221/221 203/220/220
f 220/235/235 234/236/236 236/217/217 235/204/204
f 234/236/236 232/242/242 237/215/215 236/217/217
f 232/242/242 230/241/241 238/213/213 237/215/215
f 230/241/241 228/240/240 239/211/211 238/213/213
f 228/240/240 226/243/239 240/209/209 239/211/211
f 226/239/239 224/238/238 241/207/207 240/244/209
f 224/238/238 222/237/237 242/203/203 241/207/207
f 222/237/237 220/235/235 235/204/204 242/203/203
