# This file uses centimeters as units for non-parametric coordinates.

mtllib Int_shelf_low.mtl
g default
v 1.006482 0.061481 -0.492088
v 1.006482 0.061481 -0.394382
v 1.006482 0.644662 -0.492088
v 1.006482 0.644662 0.147171
v 1.164774 0.644662 -0.492088
v 1.164774 0.644662 0.147171
v 1.164774 0.061481 -0.492088
v 1.164774 0.061481 -0.394382
v 0.974638 0.148036 -0.477626
v 0.974638 0.148036 -0.396740
v 0.974638 0.630820 0.051583
v 0.974638 0.630820 -0.477626
v 1.196619 0.630820 -0.477626
v 1.196619 0.630820 0.051583
v 1.196619 0.148036 -0.396740
v 1.196619 0.148036 -0.477626
v -1.396745 0.612625 -0.497835
v -1.415267 0.635620 -0.497835
v -1.396745 0.635620 -0.520830
v -1.396745 0.635620 0.326288
v -1.415267 0.635620 0.303292
v -1.396745 0.612625 0.303292
v -1.396745 0.704617 -0.520830
v -1.415267 0.704617 -0.497835
v -1.396745 0.727612 -0.497835
v -1.396745 0.727612 0.303292
v -1.415267 0.704617 0.303292
v -1.396745 0.704617 0.326288
v 1.395521 0.704617 -0.520830
v 1.395521 0.727612 -0.497835
v 1.414044 0.704617 -0.497835
v 1.414044 0.704617 0.303292
v 1.395521 0.727612 0.303292
v 1.395521 0.704617 0.326288
v 1.395521 0.635620 -0.520830
v 1.414044 0.635620 -0.497835
v 1.395521 0.612625 -0.497835
v 1.395521 0.612625 0.303292
v 1.414044 0.635620 0.303292
v 1.395521 0.635620 0.326288
v -1.182030 0.061481 -0.492088
v -1.182030 0.061481 -0.394382
v -1.182030 0.644662 -0.492088
v -1.182030 0.644662 0.147171
v -1.023739 0.644662 -0.492088
v -1.023739 0.644662 0.147171
v -1.023739 0.061481 -0.492088
v -1.023739 0.061481 -0.394382
v -1.213875 0.148036 -0.477626
v -1.213875 0.148036 -0.396740
v -1.213875 0.630820 0.051583
v -1.213875 0.630820 -0.477626
v -0.991894 0.630820 -0.477626
v -0.991894 0.630820 0.051583
v -0.991894 0.148036 -0.396740
v -0.991894 0.148036 -0.477626
v -1.396745 0.612625 -0.187860
v -1.415267 0.635620 -0.187860
v -1.415267 0.704617 -0.187860
v -1.396745 0.727612 -0.187860
v 1.395521 0.727612 -0.187860
v 1.414043 0.704617 -0.187860
v 1.414044 0.635620 -0.187860
v 1.395521 0.612625 -0.187860
vt 0.505120 0.625584
vt 0.513649 0.626261
vt 0.552097 0.685852
vt 0.494849 0.679038
vt 0.490872 0.681922
vt 0.563260 0.690641
vt 0.798009 0.592951
vt 0.889142 0.588738
vt 0.884901 0.584850
vt 0.812808 0.588185
vt 0.870683 0.517734
vt 0.881726 0.517921
vt 0.885816 0.504928
vt 0.869602 0.504123
vt 0.515921 0.615530
vt 0.503513 0.614719
vt 0.794803 0.446110
vt 0.409921 0.447250
vt 0.406999 0.443752
vt 0.797121 0.447943
vt 0.814531 0.502128
vt 0.793710 0.456707
vt 0.791537 0.454960
vt 0.790299 0.583860
vt 0.793262 0.587306
vt 0.413430 0.579622
vt 0.792563 0.582435
vt 0.786819 0.575290
vt 0.788902 0.573661
vt 0.791321 0.459328
vt 0.413531 0.460351
vt 0.413328 0.455965
vt 0.804309 0.502161
vt 0.799978 0.502120
vt 0.786535 0.570983
vt 0.417061 0.570903
vt 0.417469 0.566576
vt 0.411330 0.457755
vt 0.407453 0.448759
vt 0.404979 0.501502
vt 0.400588 0.501540
vt 0.415144 0.569180
vt 0.411098 0.578079
vt 0.391073 0.501510
vt 0.909942 0.512536
vt 0.920979 0.512936
vt 0.975027 0.586364
vt 0.903213 0.579202
vt 0.898771 0.582858
vt 0.989552 0.591911
vt 0.382419 0.689813
vt 0.452402 0.687997
vt 0.449460 0.683707
vt 0.392588 0.685826
vt 0.426812 0.628546
vt 0.434991 0.628777
vt 0.435661 0.617791
vt 0.423331 0.617502
vt 0.922782 0.499402
vt 0.906549 0.499344
vt 0.445489 0.601020
vt 0.465191 0.699068
vt 0.363973 0.700818
vt 0.418719 0.600666
vt 0.474445 0.695089
vt 0.496021 0.601331
vt 0.521380 0.595904
vt 0.577246 0.699397
vt 0.386952 0.501534
vt 0.818650 0.502234
vt 0.410359 0.582963
vt 0.797697 0.442663
vt 0.820422 0.360447
vt 0.820557 0.383053
vt 0.616923 0.384269
vt 0.616788 0.361663
vt 0.820771 0.418872
vt 0.617137 0.420088
vn -0.984700 -0.018177 -0.173305
vn -0.992375 -0.089036 0.085231
vn -0.985391 0.055629 0.160968
vn -0.982788 0.137039 -0.123886
vn 0.000000 1.000000 0.000000
vn 0.000000 1.000000 0.000000
vn 0.000000 1.000000 0.000000
vn 0.000000 1.000000 0.000000
vn 1.000000 0.000000 0.000000
vn 1.000000 0.000000 0.000000
vn 1.000000 0.000000 0.000000
vn 1.000000 0.000000 0.000000
vn 0.000000 -1.000000 0.000000
vn 0.000000 -1.000000 0.000000
vn 0.000000 -1.000000 0.000000
vn 0.000000 -1.000000 0.000000
vn 0.000000 -0.707105 -0.707109
vn 0.000000 -0.707105 -0.707109
vn 0.000000 -0.707105 -0.707109
vn 0.000000 -0.707105 -0.707109
vn -0.778782 -0.627295 0.000000
vn -0.008181 -0.999967 0.000000
vn -0.980327 -0.197382 0.000000
vn -0.778781 0.000000 -0.627296
vn -0.778781 0.000000 -0.627296
vn 0.000000 -0.707108 0.707105
vn -0.778782 -0.627295 0.000000
vn 0.000000 -0.707108 0.707105
vn 0.000000 -0.707108 0.707105
vn -0.778782 -0.627295 0.000000
vn -0.778783 0.000000 0.627294
vn -0.778783 0.000000 0.627294
vn 0.000000 0.707105 -0.707109
vn 0.000000 0.707105 -0.707109
vn 0.000000 0.707105 -0.707109
vn -0.980327 0.197383 0.000000
vn -0.008181 0.999967 0.000000
vn -0.778782 0.627295 0.000000
vn 0.000000 0.707108 0.707105
vn 0.000000 0.707108 0.707105
vn 0.778778 0.000000 -0.627299
vn 0.778778 0.000000 -0.627299
vn 0.008181 0.999967 -0.000000
vn 0.980326 0.197385 -0.000000
vn 0.778779 0.627298 0.000000
vn 0.778780 0.000000 0.627297
vn 0.980326 -0.197384 0.000000
vn 0.008181 -0.999967 -0.000000
vn -1.000000 0.000000 0.000000
vn -1.000000 0.000000 0.000000
vn -1.000000 0.000000 0.000000
vn -1.000000 0.000000 0.000000
vn 0.000000 1.000000 0.000000
vn 0.000000 1.000000 0.000000
vn 0.000000 1.000000 0.000000
vn 0.000000 1.000000 0.000000
vn 1.000000 0.000000 0.000000
vn 1.000000 0.000000 0.000000
vn 1.000000 0.000000 0.000000
vn 1.000000 0.000000 0.000000
vn 0.000000 -1.000000 0.000000
vn 0.000000 -1.000000 0.000000
vn 0.000000 -1.000000 0.000000
vn 0.000000 -1.000000 0.000000
s 1
g Lowpoly_lowdeco:pCube5
usemtl standardSurface1SG
f 9/1/1 10/2/2 11/3/3 12/4/4
f 3/5/5 4/6/6 6/68/7 5/65/8
f 13/9/9 14/10/10 15/11/11 16/12/12
f 7/66/13 8/67/14 2/15/15 1/16/16
f 2/15/15 8/67/14 6/68/7 4/6/6
f 7/66/13 1/16/16 3/5/5 5/65/8
f 1/16/16 2/15/15 10/2/2 9/1/1
f 2/15/15 4/6/6 11/3/3 10/2/2
f 4/6/6 3/5/5 12/4/4 11/3/3
f 3/5/5 1/16/16 9/1/1 12/4/4
f 5/8/8 6/7/7 14/10/10 13/9/9
f 6/7/7 8/14/14 15/11/11 14/10/10
f 8/14/14 7/13/13 16/12/12 15/11/11
f 7/13/13 5/8/8 13/9/9 16/12/12
s 2
f 17/72/17 19/17/18 35/18/19 37/19/20
f 18/20/21 17/72/17 57/70/22 58/21/23
f 19/17/18 18/20/21 24/22/24 23/23/25
f 20/24/26 22/25/27 38/71/28 40/26/29
f 21/27/30 20/24/26 28/28/31 27/29/32
f 23/23/25 25/30/33 30/31/34 29/32/35
f 25/30/33 24/22/24 59/33/36 60/34/37
f 26/35/38 28/28/31 34/36/39 33/37/40
f 29/32/35 31/38/41 36/39/42 35/18/19
f 31/38/41 30/31/34 61/40/43 62/41/44
f 32/42/45 34/36/39 40/26/29 39/43/46
f 37/19/20 36/39/42 63/44/47 64/69/48
f 18/20/21 58/21/23 59/33/36 24/22/24
f 25/30/33 60/34/37 61/40/43 30/31/34
f 31/38/41 62/41/44 63/44/47 36/39/42
f 37/73/20 64/74/48 57/75/22 17/76/17
f 20/24/26 40/26/29 34/36/39 28/28/31
f 35/18/19 19/17/18 23/23/25 29/32/35
f 17/72/17 18/20/21 19/17/18
f 20/24/26 21/27/30 22/25/27
f 23/23/25 24/22/24 25/30/33
f 26/35/38 27/29/32 28/28/31
f 29/32/35 30/31/34 31/38/41
f 32/42/45 33/37/40 34/36/39
f 35/18/19 36/39/42 37/19/20
f 38/71/28 39/43/46 40/26/29
s 4
f 49/45/49 50/46/50 51/47/51 52/48/52
f 43/62/53 44/63/54 46/51/55 45/52/56
f 53/53/57 54/54/58 55/55/59 56/56/60
f 47/57/61 48/58/62 42/64/63 41/61/64
f 42/64/63 48/58/62 46/51/55 44/63/54
f 47/57/61 41/61/64 43/62/53 45/52/56
f 41/60/64 42/59/63 50/46/50 49/45/49
f 42/59/63 44/50/54 51/47/51 50/46/50
f 44/50/54 43/49/53 52/48/52 51/47/51
f 43/49/53 41/60/64 49/45/49 52/48/52
f 45/52/56 46/51/55 54/54/58 53/53/57
f 46/51/55 48/58/62 55/55/59 54/54/58
f 48/58/62 47/57/61 56/56/60 55/55/59
f 47/57/61 45/52/56 53/53/57 56/56/60
s 2
f 58/21/23 57/70/22 22/25/27 21/27/30
f 59/33/36 58/21/23 21/27/30 27/29/32
f 60/34/37 59/33/36 27/29/32 26/35/38
f 61/40/43 60/34/37 26/35/38 33/37/40
f 62/41/44 61/40/43 33/37/40 32/42/45
f 63/44/47 62/41/44 32/42/45 39/43/46
f 64/69/48 63/44/47 39/43/46 38/71/28
f 57/75/22 64/74/48 38/77/28 22/78/27
