# This file uses centimeters as units for non-parametric coordinates.

mtllib Int_stool_low.mtl
g default
v -0.181616 0.005104 -0.234608
v -0.272491 0.005104 -0.143734
v -0.181616 0.005104 -0.052859
v -0.090741 0.005104 -0.143734
v -0.142844 0.597967 -0.146970
v -0.184955 0.597967 -0.104859
v -0.142844 0.597967 -0.062748
v -0.100733 0.597967 -0.104859
v -0.142844 0.597967 -0.104859
v -0.185557 -0.037300 -0.214222
v -0.252094 -0.037300 -0.147685
v -0.185557 -0.037300 -0.147685
v -0.185557 -0.037300 -0.081148
v -0.119020 -0.037300 -0.147685
v 0.256572 0.558319 -0.169916
v 0.086110 0.558319 -0.293764
v -0.124593 0.558319 -0.293764
v -0.295055 0.558319 -0.169916
v -0.360166 0.558319 0.030474
v -0.295055 0.558319 0.230865
v -0.124593 0.558319 0.354713
v 0.086110 0.558319 0.354713
v 0.256572 0.558319 0.230865
v 0.321683 0.558319 0.030474
v 0.256572 0.666231 -0.169916
v 0.086110 0.666231 -0.293764
v -0.124593 0.666231 -0.293764
v -0.295055 0.666231 -0.169916
v -0.360166 0.666231 0.030474
v -0.295055 0.666231 0.230865
v -0.124593 0.666231 0.354713
v 0.086110 0.666231 0.354713
v 0.256572 0.666231 0.230865
v 0.321683 0.666231 0.030474
v 0.210923 0.697988 -0.136750
v 0.068674 0.697988 -0.240101
v -0.019241 0.697988 0.030474
v -0.107157 0.697988 -0.240101
v -0.249406 0.697988 -0.136750
v -0.303741 0.697988 0.030474
v -0.249406 0.697988 0.197699
v -0.107157 0.697988 0.301049
v 0.068674 0.697988 0.301049
v 0.210923 0.697988 0.197699
v 0.265258 0.697988 0.030474
v 0.222473 0.516763 -0.145142
v 0.073085 0.516763 -0.253678
v -0.019241 0.516763 0.030474
v -0.111568 0.516763 -0.253678
v -0.260956 0.516763 -0.145141
v -0.318017 0.516763 0.030474
v -0.260956 0.516763 0.206090
v -0.111568 0.516763 0.314627
v 0.073085 0.516763 0.314627
v 0.222473 0.516763 0.206090
v 0.279534 0.516763 0.030474
v -0.185933 0.345454 0.140897
v -0.150772 0.345454 0.140897
v -0.185933 0.437416 0.140897
v -0.150772 0.437416 0.140897
v -0.185933 0.437416 -0.088555
v -0.150772 0.437416 -0.088555
v -0.185933 0.345454 -0.088555
v -0.150772 0.345454 -0.088555
v 0.102310 0.345454 -0.086950
v 0.103672 0.345454 -0.122085
v 0.102310 0.437416 -0.086950
v 0.103672 0.437416 -0.122085
v -0.126970 0.437416 -0.095835
v -0.125608 0.437416 -0.130970
v -0.126970 0.345454 -0.095835
v -0.125608 0.345454 -0.130970
v 0.102310 0.345454 0.193212
v 0.103672 0.345454 0.158077
v 0.102310 0.437416 0.193212
v 0.103672 0.437416 0.158077
v -0.126970 0.437416 0.184327
v -0.125608 0.437416 0.149192
v -0.126970 0.345454 0.184327
v -0.125608 0.345454 0.149192
v 0.134124 0.345454 0.140897
v 0.169285 0.345454 0.140897
v 0.134124 0.437416 0.140897
v 0.169285 0.437416 0.140897
v 0.134124 0.437416 -0.088555
v 0.169285 0.437416 -0.088555
v 0.134124 0.345454 -0.088555
v 0.169285 0.345454 -0.088555
v -0.183715 0.005104 0.113653
v -0.274589 0.005104 0.204527
v -0.183715 0.005104 0.295402
v -0.092840 0.005104 0.204527
v -0.145733 0.597967 0.123541
v -0.187844 0.597967 0.165652
v -0.145733 0.597967 0.207763
v -0.103622 0.597967 0.165652
v -0.145733 0.597967 0.165652
v -0.187576 -0.037300 0.141942
v -0.254113 -0.037300 0.208479
v -0.187576 -0.037300 0.208479
v -0.187576 -0.037300 0.275016
v -0.121039 -0.037300 0.208479
v 0.154555 0.005104 -0.225679
v 0.063681 0.005104 -0.134804
v 0.154555 0.005104 -0.043929
v 0.245430 0.005104 -0.134804
v 0.116574 0.597967 -0.138040
v 0.074463 0.597967 -0.095929
v 0.116574 0.597967 -0.053818
v 0.158685 0.597967 -0.095929
v 0.116574 0.597967 -0.095929
v 0.158416 -0.037300 -0.205293
v 0.091879 -0.037300 -0.138756
v 0.158416 -0.037300 -0.138756
v 0.158416 -0.037300 -0.072218
v 0.224953 -0.037300 -0.138756
v 0.154485 0.005104 0.102810
v 0.063610 0.005104 0.193685
v 0.154485 0.005104 0.284559
v 0.245359 0.005104 0.193685
v 0.115712 0.597967 0.112699
v 0.073601 0.597967 0.154810
v 0.115712 0.597967 0.196921
v 0.157823 0.597967 0.154810
v 0.115712 0.597967 0.154810
v 0.158426 -0.037300 0.131099
v 0.091889 -0.037300 0.197636
v 0.158426 -0.037300 0.197636
v 0.158426 -0.037300 0.264173
v 0.224963 -0.037300 0.197636
vt 0.868433 0.176573
vt 0.772949 0.041133
vt 0.764308 0.164841
vt 0.750935 0.167766
vt 0.800515 0.039829
vt 0.842947 0.314914
vt 0.842939 0.187289
vt 0.855269 0.309206
vt 0.773062 0.032941
vt 0.858562 0.168296
vt 0.840637 0.166591
vt 0.824126 0.173454
vt 0.842343 0.178253
vt 0.856172 0.316318
vt 0.662537 0.982639
vt 0.699288 0.956315
vt 0.951395 0.821520
vt 0.918211 0.763937
vt 0.713548 0.913417
vt 0.944397 0.887611
vt 0.699868 0.870330
vt 0.899889 0.936970
vt 0.663476 0.843512
vt 0.834866 0.950738
vt 0.618272 0.843207
vt 0.774167 0.923657
vt 0.581520 0.869531
vt 0.740977 0.866068
vt 0.567261 0.912429
vt 0.747978 0.799971
vt 0.580940 0.955516
vt 0.792496 0.750616
vt 0.617332 0.982334
vt 0.857520 0.736854
vt 0.689407 0.949156
vt 0.658751 0.971040
vt 0.640404 0.912923
vt 0.701345 0.913434
vt 0.690007 0.877516
vt 0.659722 0.855122
vt 0.622058 0.854807
vt 0.591402 0.876690
vt 0.579463 0.912413
vt 0.590802 0.948331
vt 0.621087 0.970724
vt 0.904875 0.778898
vt 0.931813 0.825786
vt 0.846186 0.843796
vt 0.926047 0.879553
vt 0.889779 0.919664
vt 0.836859 0.930795
vt 0.787502 0.908695
vt 0.760560 0.861803
vt 0.766328 0.808033
vt 0.802602 0.767924
vt 0.855522 0.756796
vt 0.858674 0.333185
vt 0.851022 0.333186
vt 0.831010 0.333187
vt 0.878685 0.333184
vt 0.831013 0.383117
vt 0.878688 0.383115
vt 0.851025 0.383117
vt 0.858676 0.383116
vt 0.907099 0.383116
vt 0.914751 0.383116
vt 0.934762 0.383115
vt 0.942414 0.383114
vt 0.934759 0.333184
vt 0.934758 0.325533
vt 0.914747 0.333185
vt 0.907096 0.333186
vt 0.938958 0.393016
vt 0.931307 0.393016
vt 0.911295 0.393017
vt 0.958970 0.393015
vt 0.911297 0.442948
vt 0.958972 0.442946
vt 0.931309 0.442947
vt 0.938960 0.442947
vt 0.872611 0.443459
vt 0.880262 0.443459
vt 0.900274 0.443458
vt 0.907926 0.443458
vt 0.900272 0.393527
vt 0.900272 0.385876
vt 0.880260 0.393528
vt 0.872609 0.393528
vt 0.745477 0.037187
vt 0.939229 0.044078
vt 0.953332 0.167115
vt 0.942311 0.173516
vt 0.965953 0.035104
vt 0.704194 0.167999
vt 0.717889 0.042266
vt 0.717176 0.164976
vt 0.939010 0.035823
vt 0.736553 0.026704
vt 0.718549 0.021431
vt 0.700633 0.024887
vt 0.717464 0.033260
vt 0.716426 0.171998
vt 0.940113 0.179464
vt 0.882866 0.041972
vt 0.871784 0.164181
vt 0.858593 0.166095
vt 0.910784 0.039239
vt 0.885352 0.308763
vt 0.912043 0.182069
vt 0.897548 0.305060
vt 0.883200 0.032962
vt 0.931881 0.169335
vt 0.914439 0.162646
vt 0.895830 0.166236
vt 0.913724 0.173984
vt 0.896932 0.312411
vt 0.855299 0.040569
vt 0.788044 0.188667
vt 0.800374 0.310584
vt 0.788052 0.316292
vt 0.813538 0.177951
vt 0.801895 0.166968
vt 0.827706 0.041026
vt 0.815257 0.164407
vt 0.787448 0.179631
vt 0.847065 0.029284
vt 0.829881 0.021690
vt 0.811854 0.024472
vt 0.827962 0.032851
vt 0.813775 0.171681
vt 0.860308 0.704127
vt 0.939703 0.739097
vt 0.775517 0.722499
vt 0.717715 0.787205
vt 0.708992 0.873535
vt 0.752679 0.948499
vt 0.832084 0.983466
vt 0.916876 0.965082
vt 0.974665 0.900369
vt 0.983381 0.814053
vt 0.785743 0.167969
vt 0.803667 0.169674
vt 0.801897 0.032591
vt 0.769231 0.174832
vt 0.760993 0.185836
vt 0.813515 0.312697
vt 0.801276 0.317696
vt 0.826261 0.170758
vt 0.885271 0.021266
vt 0.902772 0.028038
vt 0.885313 0.175409
vt 0.867129 0.023202
vt 0.857328 0.031572
vt 0.882935 0.169502
vt 0.870441 0.171115
vt 0.908799 0.310422
vt 0.937106 0.024623
vt 0.955617 0.027132
vt 0.691567 0.034054
vt 0.919816 0.032386
vt 0.911684 0.043727
vt 0.965513 0.169752
vt 0.954419 0.174410
vt 0.728740 0.169330
vt 0.774653 0.021729
vt 0.792053 0.028818
vt 0.815888 0.184457
vt 0.756712 0.025041
vt 0.747000 0.033450
vt 0.775501 0.170851
vt 0.762948 0.172128
vt 0.868410 0.311319
vt 0.907924 0.393527
vt 0.852599 0.443460
vt 0.852599 0.451111
vt 0.872611 0.451110
vt 0.938960 0.450598
vt 0.966623 0.442946
vt 0.958972 0.450597
vt 0.958969 0.385364
vt 0.966621 0.393015
vt 0.938958 0.385365
vt 0.914747 0.325534
vt 0.942410 0.333183
vt 0.887084 0.333187
vt 0.934763 0.390766
vt 0.858677 0.390768
vt 0.886340 0.383115
vt 0.878688 0.390767
vt 0.878685 0.325533
vt 0.886337 0.333184
vt 0.858673 0.325534
vt 0.852597 0.393529
vt 0.887087 0.383118
vt 0.914751 0.390768
vt 0.880260 0.385877
vn -0.025678 0.106183 -0.994015
vn -0.994030 0.106024 -0.025745
vn -0.987625 0.154463 0.027157
vn 0.027083 0.154638 -0.987600
vn -0.024800 -0.022555 0.999438
vn 0.029145 0.025915 0.999239
vn 0.999440 -0.022377 -0.024867
vn 0.999233 0.026076 0.029219
vn -0.797901 -0.602211 -0.026372
vn -0.026309 -0.602105 -0.797983
vn 0.000000 -1.000000 0.000000
vn -0.022010 -0.680180 0.732715
vn 0.732803 -0.680083 -0.022073
vn 0.000000 1.000000 0.000000
vn 0.786647 -0.233530 -0.571533
vn 0.300472 -0.233531 -0.924759
vn 0.293966 0.308284 -0.904735
vn 0.769613 0.308284 -0.559157
vn -0.300473 -0.233531 -0.924759
vn -0.293966 0.308284 -0.904735
vn -0.786647 -0.233531 -0.571533
vn -0.769613 0.308284 -0.559157
vn -0.972349 -0.233531 0.000000
vn -0.951294 0.308284 0.000000
vn -0.786647 -0.233531 0.571533
vn -0.769613 0.308284 0.559157
vn -0.300472 -0.233531 0.924759
vn -0.293966 0.308284 0.904735
vn 0.300473 -0.233531 0.924759
vn 0.293966 0.308284 0.904735
vn 0.786647 -0.233530 0.571533
vn 0.769613 0.308284 0.559157
vn 0.972350 -0.233531 0.000000
vn 0.951294 0.308284 0.000000
vn 0.087951 -0.958642 -0.270685
vn 0.230258 -0.958642 -0.167293
vn 0.000000 -1.000000 0.000000
vn -0.087951 -0.958642 -0.270685
vn -0.230258 -0.958642 -0.167292
vn -0.284615 -0.958642 0.000000
vn -0.230258 -0.958642 0.167292
vn -0.087951 -0.958642 0.270685
vn 0.087951 -0.958642 0.270685
vn 0.230258 -0.958642 0.167292
vn 0.284615 -0.958642 0.000000
vn 0.173490 0.976736 -0.126048
vn 0.066267 0.976736 -0.203950
vn 0.000000 1.000000 -0.000000
vn -0.066267 0.976736 -0.203950
vn -0.173490 0.976736 -0.126048
vn -0.214445 0.976736 0.000000
vn -0.173490 0.976736 0.126048
vn -0.066267 0.976736 0.203950
vn 0.066267 0.976736 0.203950
vn 0.173490 0.976736 0.126048
vn 0.214445 0.976736 -0.000000
vn -0.924628 -0.353534 0.141692
vn 0.924628 -0.353534 0.141692
vn 0.924628 0.353534 0.141692
vn -0.924628 0.353534 0.141692
vn 0.924628 0.353534 -0.141692
vn -0.924628 0.353534 -0.141692
vn 0.924628 -0.353534 -0.141692
vn -0.924628 -0.353534 -0.141692
vn 0.105782 -0.353534 0.929421
vn 0.177390 -0.353534 -0.918448
vn 0.177390 0.353534 -0.918448
vn 0.105782 0.353534 0.929421
vn -0.105782 0.353534 -0.929421
vn -0.177390 0.353534 0.918448
vn -0.105782 -0.353534 -0.929421
vn -0.177390 -0.353534 0.918448
vn 0.105782 -0.353534 0.929421
vn 0.177390 -0.353534 -0.918448
vn 0.177390 0.353534 -0.918448
vn 0.105782 0.353534 0.929421
vn -0.105782 0.353534 -0.929421
vn -0.177390 0.353534 0.918448
vn -0.105782 -0.353534 -0.929421
vn -0.177390 -0.353534 0.918448
vn -0.924628 -0.353534 0.141692
vn 0.924628 -0.353534 0.141692
vn 0.924628 0.353534 0.141692
vn -0.924628 0.353534 0.141692
vn 0.924628 0.353534 -0.141692
vn -0.924628 0.353534 -0.141692
vn 0.924628 -0.353534 -0.141692
vn -0.924628 -0.353534 -0.141692
vn -0.024296 -0.022617 -0.999449
vn -0.994168 0.104730 0.025739
vn -0.987824 0.153181 -0.027180
vn 0.028552 0.025992 -0.999254
vn -0.025157 0.106122 0.994035
vn 0.026532 0.154710 0.987604
vn 0.999469 -0.021061 0.024879
vn 0.999198 0.027403 -0.029200
vn -0.797232 -0.603099 0.026325
vn -0.021563 -0.680230 -0.732682
vn 0.000000 -1.000000 0.000000
vn -0.025774 -0.602175 0.797948
vn 0.733455 -0.679378 0.022114
vn 0.000000 1.000000 0.000000
vn 0.025157 0.106122 -0.994035
vn -0.999469 -0.021061 -0.024879
vn -0.999198 0.027403 0.029200
vn -0.026532 0.154710 -0.987604
vn 0.024296 -0.022617 0.999449
vn -0.028552 0.025992 0.999254
vn 0.994168 0.104731 -0.025739
vn 0.987824 0.153181 0.027180
vn -0.733455 -0.679378 -0.022114
vn 0.025774 -0.602175 -0.797948
vn 0.000000 -1.000000 0.000000
vn 0.021563 -0.680230 0.732682
vn 0.797232 -0.603099 -0.026325
vn 0.000000 1.000000 0.000000
vn 0.024800 -0.022556 -0.999438
vn -0.999440 -0.022377 0.024867
vn -0.999233 0.026076 -0.029219
vn -0.029144 0.025915 -0.999239
vn 0.025678 0.106183 0.994015
vn -0.027083 0.154638 0.987600
vn 0.994030 0.106024 0.025745
vn 0.987625 0.154463 -0.027157
vn -0.732803 -0.680083 0.022074
vn 0.022011 -0.680180 -0.732714
vn 0.000000 -1.000000 0.000000
vn 0.026309 -0.602105 0.797983
vn 0.797902 -0.602211 0.026372
vn 0.000000 1.000000 0.000000
s 1
g polySurface14
usemtl standardSurface1SG
f 1/169/1 2/2/2 6/3/3 5/4/4
f 2/2/2 3/5/5 7/170/6 6/3/3
f 3/167/5 4/7/7 8/8/8 7/6/6
f 4/7/7 1/1/1 5/172/4 8/8/8
f 11/9/9 10/168/10 12/165/11
f 13/166/12 11/9/9 12/165/11
f 14/13/13 13/12/12 12/11/11
f 10/10/10 14/13/13 12/11/11
f 5/4/4 6/3/3 9/171/14
f 6/3/3 7/170/6 9/171/14
f 7/6/6 8/8/8 9/14/14
f 8/8/8 5/172/4 9/14/14
f 2/2/2 1/169/1 10/168/10 11/9/9
f 3/5/5 2/2/2 11/9/9 13/166/12
f 4/7/7 3/167/5 13/12/12 14/13/13
f 1/1/1 4/7/7 14/13/13 10/10/10
s 2
f 15/132/15 16/140/16 26/17/17 25/18/18
f 16/140/16 17/139/19 27/20/20 26/17/17
f 17/139/19 18/138/21 28/22/22 27/20/20
f 18/138/21 19/137/23 29/24/24 28/22/22
f 19/137/23 20/136/25 30/26/26 29/24/24
f 20/136/25 21/135/27 31/28/28 30/26/26
f 21/135/27 22/134/29 32/30/30 31/28/28
f 22/134/29 23/133/31 33/32/32 32/30/30
f 23/133/31 24/131/33 34/34/34 33/32/32
f 24/131/33 15/132/15 25/18/18 34/34/34
f 47/35/35 46/36/36 48/37/37
f 49/38/38 47/35/35 48/37/37
f 50/39/39 49/38/38 48/37/37
f 51/40/40 50/39/39 48/37/37
f 52/41/41 51/40/40 48/37/37
f 53/42/42 52/41/41 48/37/37
f 54/43/43 53/42/42 48/37/37
f 55/44/44 54/43/43 48/37/37
f 56/45/45 55/44/44 48/37/37
f 46/36/36 56/45/45 48/37/37
f 35/46/46 36/47/47 37/48/48
f 36/47/47 38/49/49 37/48/48
f 38/49/49 39/50/50 37/48/48
f 39/50/50 40/51/51 37/48/48
f 40/51/51 41/52/52 37/48/48
f 41/52/52 42/53/53 37/48/48
f 42/53/53 43/54/54 37/48/48
f 43/54/54 44/55/55 37/48/48
f 44/55/55 45/56/56 37/48/48
f 45/56/56 35/46/46 37/48/48
f 25/18/18 26/17/17 36/47/47 35/46/46
f 26/17/17 27/20/20 38/49/49 36/47/47
f 27/20/20 28/22/22 39/50/50 38/49/49
f 28/22/22 29/24/24 40/51/51 39/50/50
f 29/24/24 30/26/26 41/52/52 40/51/51
f 30/26/26 31/28/28 42/53/53 41/52/52
f 31/28/28 32/30/30 43/54/54 42/53/53
f 32/30/30 33/32/32 44/55/55 43/54/54
f 33/32/32 34/34/34 45/56/56 44/55/55
f 34/34/34 25/18/18 35/46/46 45/56/56
f 16/16/16 15/15/15 46/36/36 47/35/35
f 17/19/19 16/16/16 47/35/35 49/38/38
f 18/21/21 17/19/19 49/38/38 50/39/39
f 19/23/23 18/21/21 50/39/39 51/40/40
f 20/25/25 19/23/23 51/40/40 52/41/41
f 21/27/27 20/25/25 52/41/41 53/42/42
f 22/29/29 21/27/27 53/42/42 54/43/43
f 23/31/31 22/29/29 54/43/43 55/44/44
f 24/33/33 23/31/31 55/44/44 56/45/45
f 15/15/15 24/33/33 56/45/45 46/36/36
s 3
f 57/57/57 58/192/58 60/190/59 59/60/60
f 59/60/60 60/191/59 62/188/61 61/62/62
f 61/62/62 62/189/61 64/187/63 63/64/64
f 63/64/64 64/63/63 58/58/58 57/57/57
f 58/58/58 64/63/63 62/61/61 60/59/59
f 63/64/64 57/57/57 59/60/60 61/62/62
s 4
f 65/195/65 66/66/66 68/67/67 67/186/68
f 67/68/68 68/67/67 70/69/69 69/184/70
f 69/70/70 70/69/69 72/71/71 71/183/72
f 71/72/72 72/71/71 66/66/66 65/65/65
f 66/66/66 72/71/71 70/69/69 68/67/67
f 71/72/72 65/65/65 67/194/68 69/185/70
s 5
f 73/73/73 74/182/74 76/180/75 75/76/76
f 75/76/76 76/181/75 78/178/77 77/78/78
f 77/78/78 78/179/77 80/177/79 79/80/80
f 79/80/80 80/79/79 74/74/74 73/73/73
f 74/74/74 80/79/79 78/77/77 76/75/75
f 79/80/80 73/73/73 75/76/76 77/78/78
s 6
f 81/81/81 82/176/82 84/175/83 83/174/84
f 83/84/84 84/83/83 86/85/85 85/173/86
f 85/86/86 86/85/85 88/87/87 87/196/88
f 87/88/88 88/87/87 82/82/82 81/81/81
f 82/82/82 88/87/87 86/85/85 84/83/83
f 87/88/88 81/81/81 83/174/84 85/193/86
s 7
f 89/161/89 90/90/90 94/91/91 93/92/92
f 90/90/90 91/93/93 95/162/94 94/91/91
f 91/159/93 92/95/95 96/96/96 95/94/94
f 92/95/95 89/89/89 93/164/92 96/96/96
f 99/97/97 98/160/98 100/157/99
f 101/158/100 99/97/97 100/157/99
f 102/101/101 101/100/100 100/99/99
f 98/98/98 102/101/101 100/99/99
f 93/92/92 94/91/91 97/163/102
f 94/91/91 95/162/94 97/163/102
f 95/94/94 96/96/96 97/102/102
f 96/96/96 93/164/92 97/102/102
f 90/90/90 89/161/89 98/160/98 99/97/97
f 91/93/93 90/90/90 99/97/97 101/158/100
f 92/95/95 91/159/93 101/100/100 102/101/101
f 89/89/89 92/95/95 102/101/101 98/98/98
s 8
f 103/153/103 104/104/104 108/105/105 107/106/106
f 104/104/104 105/107/107 109/154/108 108/105/105
f 105/151/107 106/109/109 110/110/110 109/108/108
f 106/109/109 103/103/103 107/156/106 110/110/110
f 113/111/111 112/152/112 114/149/113
f 115/150/114 113/111/111 114/149/113
f 116/115/115 115/114/114 114/113/113
f 112/112/112 116/115/115 114/113/113
f 107/106/106 108/105/105 111/155/116
f 108/105/105 109/154/108 111/155/116
f 109/108/108 110/110/110 111/116/116
f 110/110/110 107/156/106 111/116/116
f 104/104/104 103/153/103 112/152/112 113/111/111
f 105/107/107 104/104/104 113/111/111 115/150/114
f 106/109/109 105/151/107 115/114/114 116/115/115
f 103/103/103 106/109/109 116/115/115 112/112/112
s 9
f 117/145/117 118/118/118 122/119/119 121/120/120
f 118/118/118 119/121/121 123/146/122 122/119/119
f 119/143/121 120/123/123 124/124/124 123/122/122
f 120/123/123 117/117/117 121/148/120 124/124/124
f 127/125/125 126/144/126 128/141/127
f 129/142/128 127/125/125 128/141/127
f 130/129/129 129/128/128 128/127/127
f 126/126/126 130/129/129 128/127/127
f 121/120/120 122/119/119 125/147/130
f 122/119/119 123/146/122 125/147/130
f 123/122/122 124/124/124 125/130/130
f 124/124/124 121/148/120 125/130/130
f 118/118/118 117/145/117 126/144/126 127/125/125
f 119/121/121 118/118/118 127/125/125 129/142/128
f 120/123/123 119/143/121 129/128/128 130/129/129
f 117/117/117 120/123/123 130/129/129 126/126/126
