# This file uses centimeters as units for non-parametric coordinates.

mtllib Int_grabber_low.mtl
g default
v -0.170219 0.052848 0.751127
v -0.164485 0.052275 0.729087
v -0.161744 0.032265 0.718545
v -0.164735 0.012827 0.730046
v -0.170469 0.013401 0.752087
v -0.173210 0.033411 0.762628
v -0.212589 0.052428 0.722860
v -0.241245 0.050963 0.655261
v -0.246658 0.050283 0.625926
v -0.223518 0.048863 0.573605
v -0.185600 0.047881 0.543165
v -0.147150 0.047443 0.535177
v -0.115539 0.047497 0.545591
v -0.099386 0.050480 0.528662
v -0.199694 0.051889 0.704087
v -0.220040 0.050626 0.646939
v -0.223889 0.050120 0.625163
v -0.202887 0.048967 0.583270
v -0.171815 0.048236 0.561301
v -0.143237 0.047965 0.557615
v -0.123709 0.048066 0.566850
v -0.073085 0.050441 0.533911
v -0.193371 0.031896 0.695181
v -0.209563 0.030734 0.643258
v -0.212630 0.030316 0.625260
v -0.192697 0.029296 0.588581
v -0.165047 0.028689 0.570848
v -0.141405 0.028503 0.569314
v -0.127919 0.028627 0.577961
v -0.060081 0.027203 0.537102
v -0.199944 0.012442 0.705048
v -0.220290 0.011179 0.647900
v -0.224139 0.010673 0.626123
v -0.203137 0.009520 0.584230
v -0.172065 0.008788 0.562260
v -0.143487 0.008518 0.558576
v -0.123959 0.008619 0.567812
v -0.073379 0.004003 0.535042
v -0.212839 0.012981 0.723821
v -0.241495 0.011516 0.656221
v -0.246908 0.010836 0.626887
v -0.223768 0.009416 0.574566
v -0.185850 0.008434 0.544127
v -0.147400 0.007996 0.536139
v -0.115789 0.008050 0.546553
v -0.099680 0.004042 0.529793
v -0.219162 0.032974 0.732727
v -0.251973 0.031409 0.659903
v -0.258167 0.030641 0.626789
v -0.233958 0.029087 0.569255
v -0.192617 0.027980 0.534578
v -0.149231 0.027459 0.524439
v -0.111579 0.027488 0.535443
v -0.112684 0.027280 0.526603
v -0.123165 0.046234 0.543716
v -0.110614 0.044390 0.585459
v -0.113961 0.028936 0.594290
v -0.110812 0.013030 0.586222
v -0.123399 0.009315 0.544616
v -0.119459 0.027508 0.534218
v -0.106748 0.049869 0.549488
v -0.092096 0.050284 0.570325
v -0.084910 0.028435 0.581279
v -0.092376 0.006172 0.571399
v -0.107028 0.005758 0.550562
v -0.114214 0.027607 0.539606
v -0.033428 0.043253 0.249005
v -0.046717 0.020052 0.246908
v -0.033722 -0.003186 0.250135
v -0.007437 -0.003222 0.255463
v 0.005853 0.019979 0.257561
v -0.007143 0.043216 0.254332
v -0.141571 0.061802 0.778827
v -0.125864 0.060233 0.718444
v -0.150738 0.061853 0.710025
v -0.167374 0.063515 0.773979
v -0.118189 0.031268 0.688940
v -0.142609 0.031175 0.678774
v -0.126221 0.003873 0.719817
v -0.151116 0.002160 0.711479
v -0.141928 0.005443 0.780200
v -0.167752 0.003823 0.775432
v -0.149603 0.034407 0.809704
v -0.175881 0.034501 0.806681
v -0.158221 0.033167 0.756519
v 0.096466 0.027223 -0.318588
v 0.083195 0.004020 -0.320778
v 0.096172 -0.019216 -0.317457
v 0.122419 -0.019248 -0.311947
v 0.135689 0.003955 -0.309758
v 0.122713 0.027191 -0.313078
v 0.209147 0.015961 -0.751772
v 0.195876 -0.007242 -0.753961
v 0.208852 -0.030477 -0.750640
v 0.235099 -0.030510 -0.745131
v 0.248370 -0.007307 -0.742941
v 0.235394 0.015929 -0.746262
v 0.093588 0.036843 -0.330161
v 0.074753 0.003761 -0.333593
v 0.199461 0.026262 -0.737174
v 0.180626 -0.006820 -0.740604
v 0.093169 -0.029351 -0.328549
v 0.199042 -0.039932 -0.735561
v 0.130420 -0.029380 -0.320074
v 0.236293 -0.039962 -0.727085
v 0.149256 0.003702 -0.316642
v 0.255128 -0.006880 -0.723654
v 0.130839 0.036814 -0.321684
v 0.236712 0.026232 -0.728697
v -0.034172 0.040983 0.753272
v -0.034173 0.040982 0.730490
v -0.034172 0.060712 0.719099
v -0.034173 0.080442 0.730489
v -0.034172 0.080442 0.753272
v -0.034172 0.060712 0.764663
v 0.013949 0.040983 0.736577
v 0.058700 0.040982 0.678350
v 0.071323 0.040983 0.651315
v 0.062100 0.040983 0.594835
v 0.033066 0.040983 0.555818
v -0.002134 0.040982 0.538402
v -0.035349 0.040983 0.540523
v -0.046720 0.037485 0.520153
v 0.006195 0.040983 0.715155
v 0.040273 0.040983 0.664955
v 0.049480 0.040983 0.644842
v 0.039701 0.040982 0.598995
v 0.015160 0.040983 0.569903
v -0.011570 0.040982 0.559139
v -0.032794 0.040982 0.563161
v -0.073495 0.037486 0.518611
v 0.002318 0.060712 0.704444
v 0.031060 0.060713 0.658255
v 0.038559 0.060712 0.641604
v 0.028501 0.060713 0.601075
v 0.006207 0.060713 0.576945
v -0.016288 0.060712 0.569507
v -0.031516 0.060712 0.574481
v -0.086883 0.060712 0.517841
v 0.006195 0.080442 0.715154
v 0.040273 0.080442 0.664954
v 0.049481 0.080442 0.644841
v 0.039701 0.080442 0.598996
v 0.015160 0.080442 0.569903
v -0.011570 0.080442 0.559139
v -0.032794 0.080442 0.563161
v -0.073495 0.083939 0.518612
v 0.013949 0.080442 0.736577
v 0.058700 0.080442 0.678350
v 0.071323 0.080443 0.651315
v 0.062100 0.080442 0.594836
v 0.033066 0.080442 0.555818
v -0.002134 0.080442 0.538402
v -0.035349 0.080442 0.540523
v -0.046720 0.083939 0.520154
v 0.017826 0.060712 0.747287
v 0.067914 0.060712 0.685048
v 0.082245 0.060713 0.654551
v 0.073300 0.060713 0.592757
v 0.042019 0.060713 0.548775
v 0.002584 0.060712 0.528034
v -0.036627 0.060712 0.529204
v -0.033332 0.060712 0.520925
v -0.027496 0.042248 0.540596
v -0.050152 0.045027 0.577776
v -0.049136 0.060712 0.586775
v -0.050152 0.076397 0.577776
v -0.027496 0.079178 0.540596
v -0.028692 0.060712 0.530003
v -0.044837 0.038650 0.542140
v -0.064263 0.038650 0.558623
v -0.073976 0.060713 0.566863
v -0.064263 0.082775 0.558623
v -0.044837 0.082775 0.542140
v -0.035124 0.060712 0.533899
v -0.040152 0.037486 0.232807
v -0.026762 0.060712 0.233539
v -0.040152 0.083939 0.232809
v -0.066931 0.083939 0.231345
v -0.080321 0.060713 0.230614
v -0.066931 0.037486 0.231346
v -0.068871 0.032524 0.773087
v -0.068871 0.032524 0.710675
v -0.042678 0.030856 0.708829
v -0.042678 0.030857 0.774933
v -0.068871 0.060713 0.679470
v -0.042679 0.060713 0.675779
v -0.068871 0.088902 0.710676
v -0.042679 0.090568 0.708830
v -0.068871 0.088901 0.773086
v -0.042679 0.090568 0.774932
v -0.068871 0.060713 0.804293
v -0.042679 0.060712 0.807983
v -0.047142 0.060712 0.754974
v -0.022973 0.038871 -0.349425
v -0.009579 0.062098 -0.348787
v -0.022973 0.085326 -0.349424
v -0.049762 0.085325 -0.350699
v -0.063156 0.062098 -0.351337
v -0.049762 0.038872 -0.350698
v -0.022973 0.038872 -0.797164
v -0.009579 0.062099 -0.796528
v -0.022973 0.085325 -0.797164
v -0.049762 0.085325 -0.798440
v -0.063156 0.062098 -0.799079
v -0.049762 0.038871 -0.798441
v -0.017275 0.028990 -0.359654
v 0.001818 0.062098 -0.359067
v -0.017275 0.028990 -0.780345
v 0.001818 0.062098 -0.779757
v -0.017275 0.095206 -0.359655
v -0.017275 0.095206 -0.780344
v -0.055460 0.095206 -0.360830
v -0.055460 0.095207 -0.781519
v -0.074553 0.062098 -0.361418
v -0.074553 0.062098 -0.782108
v -0.055460 0.028990 -0.360831
v -0.055460 0.028991 -0.781520
v -0.112538 0.095990 0.520774
v -0.132099 0.095990 0.467940
v -0.082382 0.095990 0.419495
v -0.013104 0.095990 0.423884
v 0.006457 0.095990 0.476720
v -0.043260 0.095990 0.525165
v -0.062821 0.095990 0.472329
v -0.116765 -0.016162 0.522159
v -0.136873 -0.016161 0.467844
v -0.065655 -0.016162 0.472357
v -0.085764 -0.016162 0.418043
v -0.014546 -0.016161 0.422556
v 0.005563 -0.016162 0.476869
v -0.045547 -0.016162 0.526671
v 0.235246 -0.007290 -0.745697
v 0.208999 -0.007258 -0.751207
v -0.022973 0.062098 -0.797165
v -0.049762 0.062098 -0.798440
vt 0.691485 0.629439
vt 0.688014 0.653646
vt 0.685590 0.660845
vt 0.688274 0.620855
vt 0.699435 0.658504
vt 0.699200 0.668347
vt 0.710324 0.653601
vt 0.714169 0.662553
vt 0.712825 0.630453
vt 0.714058 0.622474
vt 0.701990 0.624109
vt 0.701822 0.614819
vt 0.700715 0.638272
vt 0.679190 0.649208
vt 0.680406 0.629096
vt 0.701465 0.697110
vt 0.709787 0.701878
vt 0.707102 0.718335
vt 0.699692 0.714914
vt 0.707478 0.741862
vt 0.699479 0.739749
vt 0.706264 0.750732
vt 0.698702 0.749104
vt 0.705934 0.769440
vt 0.698475 0.767428
vt 0.705209 0.784720
vt 0.697908 0.783034
vt 0.705085 0.796463
vt 0.697576 0.795802
vt 0.885144 0.837734
vt 0.897346 0.837698
vt 0.706951 0.804838
vt 0.698306 0.806613
vt 0.698718 0.685371
vt 0.717854 0.705575
vt 0.667746 0.719862
vt 0.666487 0.742634
vt 0.667259 0.751175
vt 0.666987 0.769794
vt 0.667259 0.784339
vt 0.666967 0.793965
vt 0.872944 0.837937
vt 0.664806 0.798393
vt 0.722136 0.651953
vt 0.674066 0.701109
vt 0.676040 0.717666
vt 0.674653 0.741156
vt 0.675483 0.750070
vt 0.675007 0.768775
vt 0.675075 0.784073
vt 0.674694 0.795811
vt 0.963851 0.839693
vt 0.672471 0.804101
vt 0.720247 0.631294
vt 0.682587 0.696704
vt 0.683591 0.714568
vt 0.682735 0.739388
vt 0.683109 0.748768
vt 0.682546 0.767085
vt 0.682441 0.782702
vt 0.682224 0.795473
vt 0.951664 0.840299
vt 0.681032 0.806243
vt 0.702726 0.601866
vt 0.692065 0.695073
vt 0.691671 0.713355
vt 0.691122 0.738911
vt 0.690920 0.748279
vt 0.690524 0.766602
vt 0.690187 0.782265
vt 0.689906 0.795355
vt 0.939433 0.840759
vt 0.689637 0.807936
vt 0.714599 0.807308
vt 0.698354 0.809256
vt 0.659093 0.802861
vt 0.664726 0.806243
vt 0.680872 0.808882
vt 0.689576 0.810791
vt 0.711777 0.815318
vt 0.701822 0.814583
vt 0.657733 0.814552
vt 0.667204 0.814367
vt 0.677180 0.814056
vt 0.689515 0.813666
vt 0.889860 0.571999
vt 0.902319 0.573084
vt 0.945187 0.574587
vt 0.957983 0.574025
vt 0.970488 0.574950
vt 0.877049 0.572106
vt 0.926309 0.571080
vt 0.891844 0.565657
vt 0.888235 0.378478
vt 0.920085 0.377174
vt 0.942872 0.568358
vt 0.936882 0.381290
vt 0.959500 0.567343
vt 0.953822 0.380267
vt 0.858007 0.567580
vt 0.855031 0.373468
vt 0.875188 0.565503
vt 0.871260 0.378423
vt 0.885473 0.370912
vt 0.895702 0.365108
vt 0.939319 0.373753
vt 0.951173 0.372672
vt 0.960257 0.366748
vt 0.873535 0.370844
vt 0.636460 0.637949
vt 0.634166 0.658424
vt 0.629219 0.664729
vt 0.632750 0.628392
vt 0.644325 0.663400
vt 0.644058 0.670438
vt 0.654472 0.659755
vt 0.660051 0.668405
vt 0.657072 0.638544
vt 0.660396 0.630616
vt 0.646444 0.634426
vt 0.646734 0.627121
vt 0.645995 0.645654
vt 0.624519 0.635883
vt 0.623388 0.654106
vt 0.698144 0.837762
vt 0.706500 0.842474
vt 0.703926 0.858948
vt 0.696492 0.855577
vt 0.704459 0.882473
vt 0.696447 0.880413
vt 0.703304 0.891352
vt 0.695731 0.889772
vt 0.703097 0.910063
vt 0.695626 0.908098
vt 0.702471 0.925348
vt 0.695160 0.923708
vt 0.702422 0.937093
vt 0.694910 0.936479
vt 0.749852 0.844603
vt 0.762052 0.844699
vt 0.704340 0.945459
vt 0.695706 0.947286
vt 0.640216 0.688301
vt 0.714592 0.846118
vt 0.664580 0.860741
vt 0.663474 0.883520
vt 0.664304 0.892054
vt 0.664155 0.910672
vt 0.664521 0.925212
vt 0.664291 0.934836
vt 0.737650 0.844675
vt 0.662157 0.939276
vt 0.669211 0.659301
vt 0.670772 0.841946
vt 0.672859 0.858489
vt 0.671630 0.881985
vt 0.672519 0.890894
vt 0.672168 0.909599
vt 0.672335 0.924894
vt 0.672028 0.936633
vt 0.827653 0.838951
vt 0.669858 0.944936
vt 0.666448 0.639843
vt 0.679263 0.837483
vt 0.680389 0.855339
vt 0.679700 0.880164
vt 0.680137 0.889540
vt 0.679695 0.907859
vt 0.679692 0.923475
vt 0.679557 0.936247
vt 0.815458 0.839365
vt 0.678432 0.947024
vt 0.648278 0.610599
vt 0.688731 0.835788
vt 0.688462 0.854072
vt 0.688083 0.879630
vt 0.687944 0.888999
vt 0.687670 0.907325
vt 0.687435 0.922989
vt 0.687237 0.936080
vt 0.803221 0.839631
vt 0.687046 0.948663
vt 0.712001 0.947883
vt 0.695770 0.949929
vt 0.656473 0.943778
vt 0.662126 0.947125
vt 0.678287 0.949664
vt 0.687003 0.951519
vt 0.709228 0.955910
vt 0.699270 0.955235
vt 0.655184 0.955475
vt 0.664653 0.955232
vt 0.674627 0.954861
vt 0.686959 0.954394
vt 0.757429 0.578957
vt 0.769873 0.580180
vt 0.813164 0.573588
vt 0.825966 0.573226
vt 0.838456 0.574347
vt 0.744619 0.578928
vt 0.794347 0.569780
vt 0.759481 0.572639
vt 0.757887 0.385448
vt 0.791201 0.375801
vt 0.810952 0.567322
vt 0.807930 0.380185
vt 0.827594 0.566568
vt 0.824885 0.379431
vt 0.725627 0.574201
vt 0.724740 0.380083
vt 0.742828 0.572305
vt 0.740914 0.385211
vt 0.755207 0.377854
vt 0.765498 0.372160
vt 0.810487 0.372688
vt 0.822357 0.371794
vt 0.831534 0.366014
vt 0.743271 0.377657
vt 0.644541 0.520321
vt 0.644529 0.534621
vt 0.618976 0.532430
vt 0.639835 0.505808
vt 0.627206 0.586470
vt 0.638811 0.566818
vt 0.641512 0.548100
vt 0.685476 0.534579
vt 0.686570 0.523522
vt 0.712300 0.535282
vt 0.691120 0.507185
vt 0.696494 0.589188
vt 0.688584 0.571942
vt 0.688646 0.549650
vt 0.807955 0.363327
vt 0.887694 0.362229
vt 0.952526 0.364114
vt 0.823845 0.363259
vt 0.699430 0.479237
vt 0.630098 0.484508
vt 0.703545 0.968991
vt 0.695852 0.962764
vt 0.712457 0.973889
vt 0.669933 0.968480
vt 0.677815 0.962490
vt 0.686879 0.959613
vt 0.706016 0.828365
vt 0.698359 0.822091
vt 0.714899 0.833315
vt 0.672404 0.827646
vt 0.680321 0.821705
vt 0.689404 0.818884
vt 0.941946 0.971916
vt 0.901734 0.968815
vt 0.954176 0.971460
vt 0.966396 0.970800
vt 0.877254 0.968989
vt 0.889494 0.968798
vt 0.803667 0.970810
vt 0.765023 0.975844
vt 0.815902 0.970547
vt 0.828131 0.970080
vt 0.740545 0.975754
vt 0.752784 0.975694
vt 0.741753 0.368423
vt 0.734073 0.371670
vt 0.757521 0.369195
vt 0.800030 0.366776
vt 0.936638 0.364434
vt 0.928769 0.368010
vt 0.871919 0.361627
vt 0.864274 0.364954
vt 0.844828 0.568041
vt 0.840975 0.374053
vt 0.732162 0.580338
vt 0.776150 0.574632
vt 0.774523 0.380737
vt 0.800758 0.575169
vt 0.665847 0.704456
vt 0.715295 0.720885
vt 0.839853 0.838734
vt 0.774292 0.844619
vt 0.715573 0.743691
vt 0.777263 0.975788
vt 0.714433 0.752190
vt 0.713902 0.770804
vt 0.840367 0.969820
vt 0.713006 0.785322
vt 0.712883 0.794948
vt 0.714853 0.799463
vt 0.720370 0.804169
vt 0.663319 0.832215
vt 0.721231 0.815907
vt 0.976046 0.839284
vt 0.909586 0.837485
vt 0.913973 0.968626
vt 0.978627 0.970348
vt 0.932808 0.576365
vt 0.904820 0.373587
vt 0.908533 0.567466
vt 0.864605 0.573648
vt 0.969825 0.374635
vt 0.976756 0.568540
vt 0.718685 0.956442
vt 0.660877 0.973104
vt 0.717754 0.944710
vt 0.712209 0.940036
vt 0.710211 0.935531
vt 0.710272 0.925901
vt 0.711075 0.911376
vt 0.711482 0.892757
vt 0.712565 0.884250
vt 0.712135 0.861445
vt 0.662577 0.845349
vn 0.551941 0.765623 0.330429
vn 0.704237 0.709897 0.009869
vn -0.242226 0.875516 -0.418088
vn -0.404050 0.891688 0.204048
vn 0.855030 -0.018041 -0.518265
vn -0.143278 -0.023196 -0.989411
vn 0.695201 -0.717429 0.044626
vn -0.253399 -0.891699 -0.375049
vn 0.542296 -0.755564 0.367475
vn -0.415248 -0.875512 0.247076
vn 0.371748 0.020238 0.928113
vn -0.607238 0.023203 0.794181
vn 0.977760 -0.001083 0.209722
vn -0.680298 0.701709 0.211657
vn -0.362260 0.831943 -0.420284
vn 0.323793 0.913346 -0.246897
vn -0.495978 0.798325 0.341589
vn 0.458551 0.875113 -0.154624
vn -0.538961 0.824068 0.174451
vn 0.357928 0.930984 0.071805
vn -0.600046 0.785425 -0.151833
vn 0.328879 0.913931 0.237842
vn -0.474038 0.795606 -0.377225
vn 0.166668 0.921641 0.350428
vn -0.264597 0.785309 -0.559713
vn -0.037439 0.935630 0.350991
vn 0.029126 0.768309 -0.639416
vn -0.249195 0.870287 0.424855
vn 0.236389 0.824754 -0.513714
vn 0.491310 0.866343 0.089801
vn -0.482835 0.865190 -0.135340
vn -0.478779 0.867728 -0.133485
vn 0.497633 0.859424 0.117272
vn -0.400025 -0.019767 -0.916291
vn 0.851764 -0.018144 -0.523611
vn 0.960640 -0.012845 -0.277499
vn 0.956759 0.001021 0.290881
vn 0.750241 0.011337 0.661068
vn 0.353492 0.020519 0.935212
vn -0.181710 0.025097 0.983032
vn -0.645581 0.022685 0.763355
vn 0.974311 -0.000179 0.225209
vn 0.965185 0.000255 0.261567
vn -0.372898 -0.846760 -0.379400
vn 0.312122 -0.928310 -0.202043
vn 0.447385 -0.887338 -0.111705
vn 0.346129 -0.930847 0.117124
vn 0.317347 -0.905369 0.282133
vn 0.155085 -0.905530 0.394923
vn -0.049180 -0.916880 0.396121
vn -0.260098 -0.845330 0.466655
vn 0.480199 -0.866736 0.134822
vn 0.486761 -0.858922 0.159114
vn -0.689062 -0.681906 0.245352
vn -0.505956 -0.774395 0.379895
vn -0.549318 -0.807693 0.214198
vn -0.609990 -0.784222 -0.113612
vn -0.484190 -0.806954 -0.338207
vn -0.274686 -0.808209 -0.520909
vn 0.019199 -0.798824 -0.601258
vn 0.225753 -0.851713 -0.472886
vn -0.494780 -0.864278 -0.090642
vn -0.489761 -0.867069 -0.091243
vn -0.920817 0.015319 0.389694
vn -0.782885 0.020098 0.621841
vn -0.940095 0.014250 0.340616
vn -0.981739 0.001586 -0.190225
vn -0.819425 -0.008764 -0.573120
vn -0.472218 -0.018481 -0.881288
vn 0.004055 -0.024384 -0.999695
vn 0.330578 -0.025096 -0.943445
vn -0.974294 0.001194 -0.225278
vn -0.973184 0.000558 -0.230029
vn -0.080576 0.735008 0.673254
vn 0.090595 0.992542 -0.081561
vn -0.114976 0.024900 0.993056
vn -0.089668 -0.700297 0.708197
vn 0.077966 -0.996405 -0.033157
vn 0.909416 -0.015914 -0.415584
vn 0.434026 0.804350 0.405761
vn -0.221500 0.974439 -0.037514
vn 0.759047 0.011037 0.650942
vn 0.423938 -0.789077 0.444561
vn -0.233833 -0.972227 0.009877
vn -0.657802 -0.014168 -0.753058
vn -0.484221 0.868449 -0.106428
vn -0.980567 0.000705 -0.196181
vn -0.495367 -0.866606 -0.060050
vn 0.478343 -0.862738 0.163925
vn 0.967671 -0.000725 0.252214
vn 0.490773 0.863246 0.118098
vn -0.972056 0.000438 -0.234748
vn -0.489733 0.861844 -0.131857
vn -0.467794 0.868664 -0.163071
vn -0.963107 -0.000450 -0.269118
vn -0.500652 -0.860967 -0.089909
vn -0.478806 -0.869577 -0.120746
vn 0.467895 -0.868833 0.161877
vn 0.489824 -0.861980 0.130630
vn 0.963421 0.000428 0.267993
vn 0.972343 -0.000474 0.233557
vn 0.478912 0.869685 0.119547
vn 0.500736 0.861046 0.088675
vn -0.117468 0.510327 -0.851920
vn -0.574791 -0.016284 -0.818138
vn -0.124198 -0.549667 -0.826100
vn 0.475501 -0.556795 -0.681086
vn 0.894813 -0.016531 -0.446136
vn 0.482320 0.516919 -0.707221
vn -0.617339 -0.760839 0.200042
vn -0.684045 -0.713887 -0.149824
vn 0.339657 -0.883888 -0.321521
vn 0.339659 -0.883888 0.321518
vn -0.697024 0.000010 -0.717048
vn 0.387737 0.000005 -0.921770
vn -0.684042 0.713892 -0.149817
vn 0.339680 0.883879 -0.321521
vn -0.617335 0.760841 0.200046
vn 0.339678 0.883879 0.321523
vn -0.593413 0.000019 0.804898
vn 0.387749 0.000004 0.921765
vn -0.999067 0.000008 -0.043190
vn 0.605103 -0.692032 0.393627
vn 0.456417 -0.839609 -0.294518
vn -0.251205 -0.921120 -0.297378
vn 0.394016 -0.786614 0.475384
vn -0.404852 -0.881507 -0.242983
vn 0.477691 -0.816141 0.325153
vn -0.364472 -0.931210 0.002803
vn 0.618945 -0.785071 0.023873
vn -0.378147 -0.909943 0.170320
vn 0.553741 -0.801530 -0.225657
vn -0.249509 -0.913874 0.320280
vn 0.396987 -0.797001 -0.455183
vn -0.052126 -0.926550 0.372543
vn 0.132794 -0.783822 -0.606621
vn 0.134194 -0.858103 0.495633
vn -0.099447 -0.838491 -0.535764
vn -0.498105 -0.866988 -0.014974
vn 0.501348 -0.865158 0.012334
vn 0.496969 -0.867668 0.013171
vn -0.511143 -0.859440 0.009837
vn 0.617801 -0.000007 -0.786335
vn -0.692511 -0.000008 -0.721407
vn -0.859841 -0.000001 -0.510562
vn -0.999173 -0.000010 0.040673
vn -0.892497 -0.000000 0.451052
vn -0.577536 0.000005 0.816366
vn -0.071619 -0.000001 0.997432
vn 0.432611 -0.000005 0.901581
vn -0.999627 -0.000508 -0.027318
vn -0.999948 0.000002 0.010166
vn 0.456399 0.839615 -0.294528
vn -0.251207 0.921119 -0.297381
vn -0.404852 0.881507 -0.242982
vn -0.364488 0.931204 0.002804
vn -0.378159 0.909937 0.170324
vn -0.249511 0.913875 0.320275
vn -0.052132 0.926544 0.372556
vn 0.134230 0.858081 0.495660
vn -0.498667 0.866708 -0.012211
vn -0.511137 0.859443 0.009838
vn 0.605097 0.692029 0.393640
vn 0.394021 0.786606 0.475394
vn 0.477697 0.816134 0.325162
vn 0.618931 0.785083 0.023878
vn 0.553730 0.801538 -0.225654
vn 0.396980 0.797007 -0.455177
vn 0.132790 0.783817 -0.606628
vn -0.099426 0.838498 -0.535758
vn 0.501670 0.864928 0.015086
vn 0.496966 0.867670 0.013171
vn 0.793055 0.000002 0.609150
vn 0.601131 0.000001 0.799150
vn 0.824069 -0.000004 0.566489
vn 0.998010 0.000002 0.063057
vn 0.937316 0.000000 -0.348480
vn 0.678869 0.000005 -0.734260
vn 0.247755 -0.000001 -0.968823
vn -0.082405 -0.000004 -0.996599
vn 0.999628 -0.000506 0.027272
vn 0.999750 0.000007 0.022380
vn -0.091501 -0.717891 0.690117
vn -0.067134 -0.994788 -0.076748
vn -0.138714 -0.000009 0.990333
vn -0.091487 0.717885 0.690124
vn -0.067169 0.994783 -0.076777
vn -0.775625 0.000055 -0.631194
vn -0.522201 -0.796964 0.303570
vn 0.223828 -0.973637 0.043965
vn -0.898474 -0.000000 0.439027
vn -0.522200 0.796967 0.303562
vn 0.223808 0.973642 0.043959
vn 0.826207 0.000003 -0.563366
vn 0.495417 -0.867699 0.040741
vn 0.998375 0.000729 0.056989
vn 0.494534 0.868004 0.044772
vn -0.504198 0.863430 0.016512
vn -1.000000 0.000747 0.000467
vn -0.504707 -0.863201 0.012459
vn 0.999846 -0.000006 0.017528
vn 0.507161 -0.861676 0.017356
vn 0.493783 -0.869395 -0.018193
vn 0.999838 -0.000002 -0.017999
vn 0.507168 0.861673 0.017357
vn 0.493793 0.869389 -0.018191
vn -0.493582 0.869533 0.017009
vn -0.506933 0.861785 -0.018568
vn -0.999858 0.000002 0.016832
vn -0.999824 -0.000002 -0.018753
vn -0.493577 -0.869536 0.017007
vn -0.506933 -0.861786 -0.018570
vn 0.328163 -0.530157 -0.781820
vn 0.762217 0.000012 -0.647321
vn 0.328157 0.530156 -0.781823
vn -0.288745 0.537014 -0.792617
vn -0.753673 -0.000003 -0.657249
vn -0.288738 -0.537019 -0.792616
vn -0.933941 0.220885 -0.281004
vn -0.522920 0.211545 0.825714
vn -0.000000 1.000000 0.000000
vn -0.334622 0.199145 -0.921070
vn 0.536770 0.187897 -0.822540
vn 0.943296 0.178629 0.279795
vn 0.346933 0.183745 0.919715
vn -0.540346 -0.168182 0.824464
vn -0.947068 -0.158910 -0.278945
vn -0.000001 -1.000000 -0.000002
vn -0.347960 -0.168084 -0.922319
vn 0.526529 -0.192082 -0.828174
vn 0.938476 -0.201451 0.280499
vn 0.335619 -0.183568 0.923939
vn 0.047547 0.000007 -0.998869
vn 0.205338 -0.025139 -0.978368
vn 0.205372 -0.025133 -0.978361
vn 0.047564 0.000012 -0.998868
s 1
g pCylinder18
usemtl standardSurface1SG
f 73/1/1 74/2/2 75/3/3 76/4/4
f 74/2/2 77/5/5 78/6/6 75/3/3
f 77/5/5 79/7/7 80/8/8 78/6/6
f 79/7/7 81/9/9 82/10/10 80/8/8
f 81/9/9 83/11/11 84/12/12 82/10/10
f 83/11/11 73/1/1 76/4/4 84/12/12
f 74/2/2 73/1/1 85/13/13
f 77/5/5 74/2/2 85/13/13
f 79/7/7 77/5/5 85/13/13
f 81/9/9 79/7/7 85/13/13
f 83/11/11 81/9/9 85/13/13
f 73/1/1 83/11/11 85/13/13
f 1/16/14 2/17/15 15/18/16 7/19/17
f 7/19/17 15/18/16 16/20/18 8/21/19
f 8/21/19 16/20/18 17/22/20 9/23/21
f 9/23/21 17/22/20 18/24/22 10/25/23
f 10/25/23 18/24/22 19/26/24 11/27/25
f 11/27/25 19/26/24 20/28/26 12/29/27
f 12/29/27 20/28/26 21/32/28 13/33/29
f 72/30/30 67/31/31 14/252/32 22/256/33
f 2/17/15 3/35/34 23/278/35 15/18/16
f 15/18/16 23/278/35 24/281/36 16/20/18
f 16/20/18 24/281/36 25/283/37 17/22/20
f 17/22/20 25/283/37 26/284/38 18/24/22
f 18/24/22 26/284/38 27/286/39 19/26/24
f 19/26/24 27/286/39 28/287/40 20/28/26
f 20/28/26 28/287/40 29/288/41 21/32/28
f 71/42/42 72/30/30 22/256/33 30/255/43
f 3/277/34 4/45/44 31/46/45 23/36/35
f 23/36/35 31/46/45 32/47/46 24/37/36
f 24/37/36 32/47/46 33/48/47 25/38/37
f 25/38/37 33/48/47 34/49/48 26/39/38
f 26/39/38 34/49/48 35/50/49 27/40/39
f 27/40/39 35/50/49 36/51/50 28/41/40
f 28/41/40 36/51/50 37/53/51 29/43/41
f 70/52/52 71/292/42 30/295/43 38/254/53
f 4/45/44 5/55/54 39/56/55 31/46/45
f 31/46/45 39/56/55 40/57/56 32/47/46
f 32/47/46 40/57/56 41/58/57 33/48/47
f 33/48/47 41/58/57 42/59/58 34/49/48
f 34/49/48 42/59/58 43/60/59 35/50/49
f 35/50/49 43/60/59 44/61/60 36/51/50
f 36/51/50 44/61/60 45/63/61 37/53/51
f 69/62/62 70/52/52 38/254/53 46/253/63
f 5/55/54 6/65/64 47/66/65 39/56/55
f 39/56/55 47/66/65 48/67/66 40/57/56
f 40/57/56 48/67/66 49/68/67 41/58/57
f 41/58/57 49/68/67 50/69/68 42/59/58
f 42/59/58 50/69/68 51/70/69 43/60/59
f 43/60/59 51/70/69 52/71/70 44/61/60
f 44/61/60 52/71/70 53/73/71 45/63/61
f 68/72/72 69/62/62 46/253/63 54/251/73
f 6/65/64 1/16/14 7/19/17 47/66/65
f 47/66/65 7/19/17 8/21/19 48/67/66
f 48/67/66 8/21/19 9/23/21 49/68/67
f 49/68/67 9/23/21 10/25/23 50/69/68
f 50/69/68 10/25/23 11/27/25 51/70/69
f 51/70/69 11/27/25 12/29/27 52/71/70
f 52/71/70 12/29/27 13/33/29 53/73/71
f 14/252/32 67/31/31 68/293/72 54/294/73
f 13/33/29 21/32/28 56/74/74 55/75/75
f 21/32/28 29/288/41 57/289/76 56/74/74
f 29/43/41 37/53/51 58/77/77 57/76/76
f 37/53/51 45/63/61 59/78/78 58/77/77
f 45/63/61 53/73/71 60/79/79 59/78/78
f 53/73/71 13/33/29 55/75/75 60/79/79
f 55/75/75 56/74/74 62/80/80 61/81/81
f 56/74/74 57/289/76 63/291/82 62/80/80
f 57/76/76 58/77/77 64/83/83 63/82/82
f 58/77/77 59/78/78 65/84/84 64/83/83
f 59/78/78 60/79/79 66/85/85 65/84/84
f 60/79/79 55/75/75 61/81/81 66/85/85
f 61/81/81 62/80/80 22/245/33 14/246/32
f 62/80/80 63/291/82 30/247/43 22/245/33
f 63/82/82 64/83/83 38/248/53 30/290/43
f 64/83/83 65/84/84 46/249/63 38/248/53
f 65/84/84 66/85/85 54/250/73 46/249/63
f 66/85/85 61/81/81 14/246/32 54/250/73
f 68/293/72 67/31/31 86/86/86 87/87/87
f 87/296/87 88/88/88 69/62/62 68/72/72
f 88/88/88 89/89/89 70/52/52 69/62/62
f 89/89/89 90/90/90 71/292/42 70/52/52
f 90/299/90 91/91/91 72/30/30 71/42/42
f 91/91/91 86/86/86 67/31/31 72/30/30
f 2/14/15 1/15/14 76/4/4 75/3/3
f 3/34/34 2/14/15 75/3/3 78/6/6
f 4/44/44 3/34/34 78/6/6 80/8/8
f 5/54/54 4/44/44 80/8/8 82/10/10
f 6/64/64 5/54/54 82/10/10 84/12/12
f 1/15/14 6/64/64 84/12/12 76/4/4
f 99/298/92 98/93/93 100/94/94 101/297/95
f 102/96/96 99/92/92 101/95/95 103/97/97
f 104/98/98 102/96/96 103/97/97 105/99/99
f 106/301/100 104/98/98 105/99/99 107/300/101
f 108/102/102 106/100/100 107/101/101 109/103/103
f 98/93/93 108/102/102 109/103/103 100/94/94
f 87/87/87 86/86/86 98/93/93 99/298/92
f 92/104/104 93/105/105 101/297/95 100/94/94
f 88/88/88 87/296/87 99/92/92 102/96/96
f 93/268/105 94/106/106 103/97/97 101/95/95
f 89/89/89 88/88/88 102/96/96 104/98/98
f 94/106/106 95/107/107 105/99/99 103/97/97
f 90/90/90 89/89/89 104/98/98 106/301/100
f 95/107/107 96/108/108 107/300/101 105/99/99
f 91/91/91 90/299/90 106/100/100 108/102/102
f 96/270/108 97/109/109 109/103/103 107/101/101
f 86/86/86 91/91/91 108/102/102 98/93/93
f 97/109/109 92/104/104 100/94/94 109/103/103
s 3
f 182/110/110 183/111/111 184/112/112 185/113/113
f 183/111/111 186/114/114 187/115/115 184/112/112
f 186/114/114 188/116/116 189/117/117 187/115/115
f 188/116/116 190/118/118 191/119/119 189/117/117
f 190/118/118 192/120/120 193/121/121 191/119/119
f 192/120/120 182/110/110 185/113/113 193/121/121
f 183/111/111 182/110/110 194/122/122
f 186/114/114 183/111/111 194/122/122
f 188/116/116 186/114/114 194/122/122
f 190/118/118 188/116/116 194/122/122
f 192/120/120 190/118/118 194/122/122
f 182/110/110 192/120/120 194/122/122
f 110/125/123 111/126/124 124/127/125 116/128/126
f 116/128/126 124/127/125 125/129/127 117/130/128
f 117/130/128 125/129/127 126/131/129 118/132/130
f 118/132/130 126/131/129 127/133/131 119/134/132
f 119/134/132 127/133/131 128/135/133 120/136/134
f 120/136/134 128/135/133 129/137/135 121/138/136
f 121/138/136 129/137/135 130/141/137 122/142/138
f 181/139/139 176/140/140 123/258/141 131/262/142
f 111/126/124 112/144/143 132/311/144 124/127/125
f 124/127/125 132/311/144 133/310/145 125/129/127
f 125/129/127 133/310/145 134/309/146 126/131/129
f 126/131/129 134/309/146 135/308/147 127/133/131
f 127/133/131 135/308/147 136/307/148 128/135/133
f 128/135/133 136/307/148 137/306/149 129/137/135
f 129/137/135 137/306/149 138/305/150 130/141/137
f 180/151/151 181/139/139 131/262/142 139/261/152
f 112/312/143 113/154/153 140/155/154 132/145/144
f 132/145/144 140/155/154 141/156/155 133/146/145
f 133/146/145 141/156/155 142/157/156 134/147/146
f 134/147/146 142/157/156 143/158/157 135/148/147
f 135/148/147 143/158/157 144/159/158 136/149/148
f 136/149/148 144/159/158 145/160/159 137/150/149
f 137/150/149 145/160/159 146/162/160 138/152/150
f 179/161/161 180/279/151 139/285/152 147/260/162
f 113/154/153 114/164/163 148/165/164 140/155/154
f 140/155/154 148/165/164 149/166/165 141/156/155
f 141/156/155 149/166/165 150/167/166 142/157/156
f 142/157/156 150/167/166 151/168/167 143/158/157
f 143/158/157 151/168/167 152/169/168 144/159/158
f 144/159/158 152/169/168 153/170/169 145/160/159
f 145/160/159 153/170/169 154/172/170 146/162/160
f 178/171/171 179/161/161 147/260/162 155/259/172
f 114/164/163 115/174/173 156/175/174 148/165/164
f 148/165/164 156/175/174 157/176/175 149/166/165
f 149/166/165 157/176/175 158/177/176 150/167/166
f 150/167/166 158/177/176 159/178/177 151/168/167
f 151/168/167 159/178/177 160/179/178 152/169/168
f 152/169/168 160/179/178 161/180/179 153/170/169
f 153/170/169 161/180/179 162/182/180 154/172/170
f 177/181/181 178/171/171 155/259/172 163/257/182
f 115/174/173 110/125/123 116/128/126 156/175/174
f 156/175/174 116/128/126 117/130/128 157/176/175
f 157/176/175 117/130/128 118/132/130 158/177/176
f 158/177/176 118/132/130 119/134/132 159/178/177
f 159/178/177 119/134/132 120/136/134 160/179/178
f 160/179/178 120/136/134 121/138/136 161/180/179
f 161/180/179 121/138/136 122/142/138 162/182/180
f 123/258/141 176/140/140 177/280/181 163/282/182
f 122/142/138 130/141/137 165/183/183 164/184/184
f 130/141/137 138/305/150 166/304/185 165/183/183
f 138/152/150 146/162/160 167/186/186 166/185/185
f 146/162/160 154/172/170 168/187/187 167/186/186
f 154/172/170 162/182/180 169/188/188 168/187/187
f 162/182/180 122/142/138 164/184/184 169/188/188
f 164/184/184 165/183/183 171/189/189 170/190/190
f 165/183/183 166/304/185 172/302/191 171/189/189
f 166/185/185 167/186/186 173/192/192 172/191/191
f 167/186/186 168/187/187 174/193/193 173/192/192
f 168/187/187 169/188/188 175/194/194 174/193/193
f 169/188/188 164/184/184 170/190/190 175/194/194
f 170/190/190 171/189/189 131/239/142 123/240/141
f 171/189/189 172/302/191 139/241/152 131/239/142
f 172/191/191 173/192/192 147/242/162 139/303/152
f 173/192/192 174/193/193 155/243/172 147/242/162
f 174/193/193 175/194/194 163/244/182 155/243/172
f 175/194/194 170/190/190 123/240/141 163/244/182
f 177/280/181 176/140/140 195/195/195 196/196/196
f 196/276/196 197/197/197 178/171/171 177/181/181
f 197/197/197 198/198/198 179/161/161 178/171/171
f 198/198/198 199/199/199 180/279/151 179/161/161
f 199/273/199 200/200/200 181/139/139 180/151/151
f 200/200/200 195/195/195 176/140/140 181/139/139
f 111/124/124 110/123/123 185/113/113 184/112/112
f 112/143/143 111/124/124 184/112/112 187/115/115
f 113/153/153 112/143/143 187/115/115 189/117/117
f 114/163/163 113/153/153 189/117/117 191/119/119
f 115/173/173 114/163/163 191/119/119 193/121/121
f 110/123/123 115/173/173 193/121/121 185/113/113
f 208/274/201 207/202/202 209/203/203 210/275/204
f 211/205/205 208/201/201 210/204/204 212/206/206
f 213/207/207 211/205/205 212/206/206 214/208/208
f 215/271/209 213/207/207 214/208/208 216/272/210
f 217/211/211 215/209/209 216/210/210 218/212/212
f 207/202/202 217/211/211 218/212/212 209/203/203
f 196/196/196 195/195/195 207/202/202 208/274/201
f 201/213/213 202/214/214 210/275/204 209/203/203
f 197/197/197 196/276/196 208/201/201 211/205/205
f 202/266/214 203/215/215 212/206/206 210/204/204
f 198/198/198 197/197/197 211/205/205 213/207/207
f 203/215/215 204/216/216 214/208/208 212/206/206
f 199/199/199 198/198/198 213/207/207 215/271/209
f 204/216/216 205/217/217 216/272/210 214/208/208
f 200/200/200 199/273/199 215/209/209 217/211/211
f 205/264/217 206/218/218 218/212/212 216/210/210
f 195/195/195 200/200/200 217/211/211 207/202/202
f 206/218/218 201/213/213 209/203/203 218/212/212
s 5
f 220/219/219 219/220/220 225/221/221
f 221/222/222 220/219/219 225/221/221
f 222/238/223 221/222/222 225/221/221
f 223/224/224 222/223/223 225/221/221
f 224/225/225 223/224/224 225/221/221
f 219/220/220 224/225/225 225/221/221
f 226/226/226 227/227/227 228/228/228
f 227/227/227 229/229/229 228/228/228
f 229/229/229 230/237/230 228/228/228
f 230/230/230 231/231/231 228/228/228
f 231/231/231 232/232/232 228/228/228
f 232/232/232 226/226/226 228/228/228
f 220/219/219 227/227/227 226/226/226 219/220/220
f 221/222/222 229/229/229 227/227/227 220/219/219
f 222/238/223 230/237/230 229/229/229 221/222/222
f 223/224/224 231/231/231 230/230/230 222/223/223
f 224/225/225 232/232/232 231/231/231 223/224/224
f 219/220/220 226/226/226 232/232/232 224/225/225
s 3
f 202/266/214 235/233/233 203/215/215
s 1
f 234/234/234 92/104/104 97/109/109 233/269/235
f 94/106/106 234/267/234 233/235/235 95/107/107
f 233/269/235 97/109/109 96/270/108
f 95/107/107 233/235/235 96/108/108
f 93/268/105 234/267/234 94/106/106
f 93/105/105 92/104/104 234/234/234
s 3
f 202/214/214 201/213/213 235/265/233
f 235/265/233 201/213/213 206/218/218 236/263/236
f 203/215/215 235/233/233 236/236/236 204/216/216
f 236/263/236 206/218/218 205/264/217
f 204/216/216 236/236/236 205/217/217
