# This file uses centimeters as units for non-parametric coordinates.

mtllib Int_table_low.mtl
g default
v -0.968136 -0.008587 -0.663830
v -1.043769 -0.008587 -0.663830
v -0.706169 0.980650 -0.297717
v -0.855985 0.980650 -0.297717
v -0.706169 0.980650 -0.189696
v -0.855985 0.980650 -0.189696
v -0.876593 -0.008587 -0.381654
v -1.135312 -0.008587 -0.381654
v -0.704218 0.980650 -0.232652
v -0.795992 -0.008587 -0.493866
v -1.232781 -0.008587 -0.493866
v -0.857936 0.980650 -0.232652
v 0.801992 0.372121 0.621090
v 0.894378 0.372121 0.621090
v 0.801992 0.449046 0.621090
v 0.894378 0.449046 0.621090
v 0.801992 0.449046 -0.345792
v 0.894378 0.449046 -0.345792
v 0.801992 0.372121 -0.345792
v 0.894378 0.372121 -0.345792
v -0.974697 0.372121 0.655462
v -0.882309 0.372121 0.655462
v -0.974697 0.449046 0.655462
v -0.882309 0.449046 0.655462
v -0.974697 0.449046 -0.329939
v -0.882309 0.449046 -0.329939
v -0.974697 0.372121 -0.329939
v -0.882309 0.372121 -0.329939
v 1.049515 -0.008587 -0.663830
v 0.973882 -0.008587 -0.663830
v 0.857940 0.980650 -0.297717
v 0.708124 0.980650 -0.297717
v 0.857940 0.980650 -0.189696
v 0.708124 0.980650 -0.189696
v 1.141058 -0.008587 -0.381654
v 0.882338 -0.008587 -0.381654
v 0.859891 0.980650 -0.232652
v 1.221660 -0.008587 -0.493866
v 0.784870 -0.008587 -0.493866
v 0.706173 0.980650 -0.232652
v -1.055960 -0.008587 0.832813
v -0.981260 -0.008587 0.832813
v -0.874827 0.980650 0.466701
v -0.725011 0.980650 0.466701
v -0.874827 0.980650 0.358680
v -0.725011 0.980650 0.358680
v -1.146372 -0.008587 0.550637
v -0.890847 -0.008587 0.550637
v -0.876778 0.980650 0.401636
v -1.225978 -0.008587 0.662850
v -0.794582 -0.008587 0.662850
v -0.723060 0.980650 0.401636
v 0.960789 -0.008587 0.832813
v 1.035488 -0.008587 0.832813
v 0.708123 0.980650 0.466701
v 0.857940 0.980650 0.466701
v 0.708123 0.980650 0.358680
v 0.857940 0.980650 0.358680
v 0.870375 -0.008587 0.550637
v 1.125901 -0.008587 0.550637
v 0.706173 0.980650 0.401636
v 0.790770 -0.008587 0.662850
v 1.222166 -0.008587 0.662850
v 0.859891 0.980650 0.401636
v -1.120591 0.869130 0.676684
v -1.120591 0.884735 0.698556
v -1.140299 0.884735 0.676684
v 1.186435 0.884735 0.676684
v 1.166727 0.884735 0.698556
v 1.166727 0.869130 0.676684
v -1.140299 1.009593 0.676684
v -1.120591 1.009593 0.698556
v -1.120591 1.025198 0.676684
v 1.166727 1.025198 0.676684
v 1.166727 1.009593 0.698556
v 1.186435 1.009593 0.676684
v -1.140299 1.009593 -0.550365
v -1.120591 1.025198 -0.550365
v -1.120591 1.009593 -0.572238
v 1.166727 1.009593 -0.572238
v 1.166727 1.025198 -0.550365
v 1.186435 1.009593 -0.550365
v -1.140299 0.884735 -0.550365
v -1.120591 0.884735 -0.572238
v -1.120591 0.869130 -0.550365
v 1.166727 0.869130 -0.550365
v 1.166727 0.884735 -0.572238
v 1.186435 0.884735 -0.550365
v 0.117754 0.869130 0.676684
v 0.117754 0.884735 0.698556
v 0.117754 1.009593 0.698556
v 0.117754 1.025198 0.676684
v 0.117754 1.025198 -0.550365
v 0.117754 1.009593 -0.572238
v 0.117754 0.884735 -0.572238
v 0.117754 0.869130 -0.550365
vt 0.511462 0.272801
vt 0.503535 0.275080
vt 0.495869 0.162139
vt 0.513593 0.160405
vt 0.653088 0.142870
vt 0.677837 0.143348
vt 0.673733 0.141774
vt 0.656927 0.140499
vt 0.641502 0.028304
vt 0.669510 0.031669
vt 0.683291 0.023449
vt 0.626216 0.018534
vt 0.414773 0.169438
vt 0.406368 0.169537
vt 0.399370 0.169620
vt 0.421771 0.169356
vt 0.400408 0.257581
vt 0.400507 0.265986
vt 0.407406 0.257498
vt 0.415811 0.257399
vt 0.458843 0.167214
vt 0.450438 0.167311
vt 0.443440 0.167392
vt 0.435035 0.167489
vt 0.444474 0.257038
vt 0.466875 0.256780
vt 0.451472 0.256957
vt 0.459877 0.256860
vt 0.578614 0.028750
vt 0.586591 0.027994
vt 0.606890 0.139888
vt 0.589066 0.140317
vt 0.581460 0.243913
vt 0.556904 0.246745
vt 0.561040 0.248457
vt 0.577673 0.246281
vt 0.584627 0.356545
vt 0.556992 0.361314
vt 0.544288 0.373109
vt 0.600660 0.362201
vt 0.510344 0.028677
vt 0.518270 0.028423
vt 0.530555 0.141277
vt 0.512717 0.140503
vt 0.708767 0.191928
vt 0.684032 0.192615
vt 0.688009 0.194664
vt 0.704790 0.193966
vt 0.702506 0.304290
vt 0.674881 0.306493
vt 0.661291 0.317096
vt 0.717891 0.311363
vt 0.635235 0.262301
vt 0.627304 0.264166
vt 0.624510 0.151190
vt 0.642329 0.150305
vt 0.573059 0.110893
vt 0.548338 0.109193
vt 0.552357 0.110977
vt 0.569102 0.113060
vt 0.578315 0.225612
vt 0.550824 0.221017
vt 0.536731 0.228603
vt 0.593002 0.236050
vt 0.405394 0.024165
vt 0.028305 0.404761
vt 0.034304 0.575125
vt 0.468137 0.023949
vt 0.404017 0.024015
vt 0.404109 0.087627
vt 0.215726 0.381847
vt 0.044910 0.409956
vt 0.042694 0.412720
vt 0.374951 0.413873
vt 0.403908 0.141392
vt 0.466589 0.143217
vt 0.466644 0.144517
vt 0.369349 0.406686
vt 0.360884 0.420734
vt 0.358828 0.417919
vt 0.045742 0.413084
vt 0.051266 0.566815
vt 0.048088 0.567209
vt 0.215154 0.399405
vt 0.215045 0.403182
vt 0.357752 0.420901
vt 0.347194 0.574005
vt 0.344068 0.573467
vt 0.050351 0.569878
vt 0.040102 0.582413
vt 0.209955 0.579420
vt 0.209903 0.583226
vt 0.344895 0.576534
vt 0.467964 0.143385
vt 0.469697 0.088553
vt 0.468307 0.088534
vt 0.209595 0.600044
vt 0.355311 0.589282
vt 0.402717 0.087611
vt 0.034860 0.397776
vt 0.469520 0.023824
vt 0.361541 0.582624
vt 0.468224 0.022655
vt 0.402525 0.141512
vt 0.403796 0.142684
vt 0.405312 0.022867
vt 0.507922 0.147156
vt 0.485085 0.016693
vt 0.544766 0.023602
vt 0.536180 0.146795
vt 0.518399 0.153792
vt 0.536585 0.276705
vt 0.477105 0.288433
vt 0.490324 0.156538
vt 0.647431 0.143911
vt 0.659985 0.267480
vt 0.600500 0.276046
vt 0.619216 0.145345
vt 0.584756 0.147286
vt 0.552370 0.018333
vt 0.612892 0.021459
vt 0.612885 0.144995
vt 0.407505 0.265903
vt 0.422809 0.257317
vt 0.431214 0.257217
vt 0.430176 0.169256
vt 0.399271 0.161215
vt 0.406269 0.161133
vt 0.459974 0.265265
vt 0.466972 0.265184
vt 0.436069 0.257135
vt 0.465841 0.167134
vt 0.465744 0.158729
vt 0.458746 0.158809
vn 0.425537 -0.064846 -0.902615
vn -0.495350 0.137104 -0.857806
vn -0.457008 0.431694 -0.777678
vn 0.554291 0.217090 -0.803513
vn -0.900161 0.415796 -0.129704
vn 0.988568 -0.001949 -0.150765
vn 0.293593 -0.197593 0.935286
vn -0.242964 -0.088930 0.965950
vn -0.345020 -0.286418 0.893827
vn 0.265781 -0.394233 0.879739
vn 0.927056 -0.257100 -0.272886
vn -0.945018 0.162380 -0.283855
vn -0.638672 -0.767055 0.061026
vn 0.638672 -0.767055 0.061026
vn 0.638672 0.767055 0.061026
vn -0.638672 0.767055 0.061026
vn 0.638672 0.767055 -0.061026
vn -0.638672 0.767055 -0.061026
vn 0.638672 -0.767055 -0.061026
vn -0.638672 -0.767055 -0.061026
vn -0.638717 -0.767108 0.059883
vn 0.638717 -0.767108 0.059883
vn 0.638717 0.767108 0.059883
vn -0.638717 0.767108 0.059883
vn 0.638717 0.767108 -0.059883
vn -0.638717 0.767108 -0.059883
vn 0.638717 -0.767108 -0.059883
vn -0.638717 -0.767108 -0.059883
vn 0.510256 0.131810 -0.849862
vn -0.414103 -0.057199 -0.908431
vn -0.535630 0.224205 -0.814145
vn 0.471194 0.432440 -0.768747
vn -0.990229 0.003380 -0.139412
vn 0.900819 0.411095 -0.139735
vn 0.249101 -0.086403 0.964616
vn -0.285207 -0.197395 0.937919
vn -0.255118 -0.395293 0.882416
vn 0.358310 -0.281850 0.890042
vn 0.950593 0.136937 -0.278607
vn -0.931858 -0.233309 -0.277862
vn -0.511136 0.128781 0.849797
vn 0.418354 -0.052403 0.906771
vn 0.537453 0.227926 0.811908
vn -0.475822 0.428365 0.768178
vn 0.990423 0.010588 0.137662
vn -0.905299 0.401560 0.138504
vn -0.252049 -0.088053 -0.963700
vn 0.286593 -0.195140 -0.937968
vn 0.258850 -0.392985 -0.882360
vn -0.358550 -0.283454 -0.889436
vn -0.952647 0.127406 0.276102
vn 0.934117 -0.226967 0.275520
vn -0.429803 -0.059978 0.900928
vn 0.496410 0.134131 0.857663
vn 0.461534 0.427832 0.777139
vn -0.556014 0.220907 0.801279
vn 0.904627 0.406366 0.128515
vn -0.988841 0.005151 0.148889
vn -0.294973 -0.195315 -0.935331
vn 0.245834 -0.090506 -0.965077
vn 0.345379 -0.287901 -0.893211
vn -0.269554 -0.391894 -0.879636
vn -0.929483 -0.250747 0.270531
vn 0.947365 0.152770 0.281354
vn -0.620787 -0.783979 0.000000
vn -0.620787 -0.783979 0.000000
vn -0.620787 -0.783979 0.000000
vn -0.620787 -0.783979 0.000000
vn -0.000000 -0.814045 0.580802
vn 0.000000 -0.999922 0.012494
vn 0.000000 -0.153860 0.988093
vn -0.742910 0.000000 0.669391
vn -0.742910 0.000000 0.669391
vn 0.620787 -0.783979 0.000000
vn -0.000000 -0.814045 0.580802
vn 0.620787 -0.783979 0.000000
vn 0.620787 -0.783979 0.000000
vn -0.000000 -0.814045 0.580802
vn 0.742910 0.000000 0.669391
vn 0.742910 0.000000 0.669391
vn -0.620787 0.783979 0.000000
vn -0.620787 0.783979 0.000000
vn -0.620787 0.783979 0.000000
vn -0.000000 0.153860 0.988093
vn 0.000000 0.999922 0.012494
vn -0.000000 0.814045 0.580802
vn 0.620787 0.783979 0.000000
vn 0.620787 0.783979 0.000000
vn -0.742912 0.000000 -0.669389
vn -0.742912 0.000000 -0.669389
vn -0.000000 0.999922 -0.012494
vn -0.000000 0.153867 -0.988092
vn 0.000000 0.814046 -0.580801
vn 0.742912 0.000000 -0.669389
vn -0.000000 -0.153867 -0.988092
vn -0.000000 -0.999922 -0.012494
s 1
g Table_low__1_:grindstone2
usemtl standardSurface1SG
f 1/1/1 2/2/2 4/3/3 3/4/4
f 3/4/4 4/3/3 12/114/5 9/111/6
f 5/7/7 6/8/8 8/9/9 7/10/10
f 10/112/11 11/113/12 2/2/2 1/1/1
f 2/2/2 11/113/12 12/114/5 4/3/3
f 9/111/6 10/112/11 1/1/1 3/4/4
f 7/10/10 10/11/11 9/6/6 5/7/7
f 7/10/10 8/9/9 11/12/12 10/11/11
f 12/5/5 11/12/12 8/9/9 6/8/8
f 9/6/6 12/5/5 6/8/8 5/7/7
s 2
f 13/128/13 14/14/14 16/15/15 15/127/16
f 15/16/16 16/126/15 18/125/17 17/124/18
f 17/18/18 18/17/17 20/19/19 19/123/20
f 19/20/20 20/19/19 14/14/14 13/13/13
f 14/14/14 20/19/19 18/17/17 16/15/15
f 19/20/20 13/13/13 15/16/16 17/124/18
s 3
f 21/21/21 22/134/22 24/133/23 23/132/24
f 23/24/24 24/23/23 26/25/25 25/131/26
f 25/26/26 26/130/25 28/129/27 27/28/28
f 27/28/28 28/27/27 22/22/22 21/21/21
f 22/22/22 28/27/27 26/25/25 24/23/23
f 27/28/28 21/21/21 23/132/24 25/26/26
s 4
f 29/29/29 30/30/30 32/31/31 31/32/32
f 31/32/32 32/31/31 40/122/33 37/119/34
f 33/35/35 34/36/36 36/37/37 35/38/38
f 38/120/39 39/121/40 30/30/30 29/29/29
f 30/30/30 39/121/40 40/122/33 32/31/31
f 37/119/34 38/120/39 29/29/29 31/32/32
f 35/38/38 38/39/39 37/34/34 33/35/35
f 35/38/38 36/37/37 39/40/40 38/39/39
f 40/33/33 39/40/40 36/37/37 34/36/36
f 37/34/34 40/33/33 34/36/36 33/35/35
s 5
f 41/41/41 42/42/42 44/43/43 43/44/44
f 43/44/44 44/43/43 52/110/45 49/107/46
f 45/47/47 46/48/48 48/49/49 47/50/50
f 50/108/51 51/109/52 42/42/42 41/41/41
f 42/42/42 51/109/52 52/110/45 44/43/43
f 49/107/46 50/108/51 41/41/41 43/44/44
f 47/50/50 50/51/51 49/46/46 45/47/47
f 47/50/50 48/49/49 51/52/52 50/51/51
f 52/45/45 51/52/52 48/49/49 46/48/48
f 49/46/46 52/45/45 46/48/48 45/47/47
s 6
f 53/53/53 54/54/54 56/55/55 55/56/56
f 55/56/56 56/55/55 64/118/57 61/115/58
f 57/59/59 58/60/60 60/61/61 59/62/62
f 62/116/63 63/117/64 54/54/54 53/53/53
f 54/54/54 63/117/64 64/118/57 56/55/55
f 61/115/58 62/116/63 53/53/53 55/56/56
f 59/62/62 62/63/63 61/58/58 57/59/59
f 59/62/62 60/61/61 63/64/64 62/63/63
f 64/57/57 63/64/64 60/61/61 58/60/60
f 61/58/58 64/57/57 58/60/60 57/59/59
s 7
f 65/65/65 67/106/66 83/103/67 85/68/68
f 66/69/69 65/65/65 89/70/70 90/99/71
f 67/66/66 66/100/69 72/72/72 71/73/73
f 68/105/74 70/75/75 86/76/76 88/77/77
f 69/78/78 68/74/74 76/79/79 75/80/80
f 71/73/73 73/81/81 78/82/82 77/83/83
f 73/81/81 72/72/72 91/84/84 92/85/85
f 74/86/86 76/79/79 82/87/87 81/88/88
f 77/83/83 79/89/89 84/90/90 83/67/67
f 79/89/89 78/82/82 93/91/91 94/92/92
f 80/93/93 82/87/87 88/102/77 87/98/94
f 85/68/68 84/101/90 95/95/95 96/96/96
f 66/100/69 90/71/71 91/84/84 72/72/72
f 73/81/81 92/85/85 93/91/91 78/82/82
f 79/89/89 94/92/92 95/97/95 84/90/90
f 85/68/68 96/96/96 89/70/70 65/65/65
f 68/74/74 88/102/77 82/87/87 76/79/79
f 83/67/67 67/66/66 71/73/73 77/83/83
f 65/65/65 66/69/69 67/106/66
f 68/105/74 69/104/78 70/75/75
f 71/73/73 72/72/72 73/81/81
f 74/86/86 75/80/80 76/79/79
f 77/83/83 78/82/82 79/89/89
f 80/93/93 81/88/88 82/87/87
f 83/103/67 84/101/90 85/68/68
f 86/76/76 87/94/94 88/77/77
f 90/99/71 89/70/70 70/75/75 69/104/78
f 91/84/84 90/71/71 69/78/78 75/80/80
f 92/85/85 91/84/84 75/80/80 74/86/86
f 93/91/91 92/85/85 74/86/86 81/88/88
f 94/92/92 93/91/91 81/88/88 80/93/93
f 95/97/95 94/92/92 80/93/93 87/98/94
f 96/96/96 95/95/95 87/94/94 86/76/76
f 89/70/70 96/96/96 86/76/76 70/75/75
