# This file uses centimeters as units for non-parametric coordinates.

mtllib Int_trowel_low.mtl
g default
v 0.013625 0.043666 -0.474693
v -0.024888 0.059619 -0.474693
v -0.063402 0.043666 -0.474693
v -0.079355 0.005152 -0.474693
v -0.063402 -0.033361 -0.474693
v -0.024888 -0.049314 -0.474693
v 0.013625 -0.033361 -0.474693
v 0.029578 0.005152 -0.474693
v 0.013625 0.043666 -0.417729
v -0.024888 0.059619 -0.417729
v -0.063402 0.043666 -0.417729
v -0.079355 0.005152 -0.417729
v -0.063402 -0.033361 -0.417729
v -0.024888 -0.049314 -0.417729
v 0.013625 -0.033361 -0.417729
v 0.029578 0.005152 -0.417729
v -0.000509 0.029532 -0.527838
v -0.024888 0.039630 -0.527838
v -0.049268 0.029532 -0.527838
v -0.059366 0.005152 -0.527838
v -0.049268 -0.019227 -0.527838
v -0.024888 -0.029325 -0.527838
v -0.000509 -0.019227 -0.527838
v 0.009589 0.005152 -0.527838
v -0.010686 0.019355 -0.544045
v -0.024888 0.025238 -0.544045
v -0.024888 0.005152 -0.544045
v -0.039091 0.019355 -0.544045
v -0.044974 0.005152 -0.544045
v -0.039091 -0.009050 -0.544045
v -0.024888 -0.014933 -0.544045
v -0.010686 -0.009050 -0.544045
v -0.004803 0.005152 -0.544045
v -0.002017 0.028024 -0.305786
v -0.024888 0.037498 -0.305786
v -0.047760 0.028024 -0.305786
v -0.057234 0.005152 -0.305786
v -0.047760 -0.017719 -0.305786
v -0.024888 -0.027193 -0.305786
v -0.002017 -0.017719 -0.305786
v 0.007457 0.005152 -0.305786
v 0.010044 0.039315 -0.254526
v -0.024888 0.053092 -0.254526
v -0.059821 0.039315 -0.254526
v -0.074291 0.005152 -0.254526
v -0.059821 -0.029011 -0.254526
v -0.024888 -0.042788 -0.254526
v 0.010044 -0.029011 -0.254526
v 0.024514 0.005152 -0.254526
v 0.009479 0.037333 -0.236058
v -0.024888 0.050014 -0.236058
v -0.059256 0.037333 -0.236058
v -0.073492 0.005152 -0.236058
v -0.059256 -0.027028 -0.236058
v -0.024888 -0.039710 -0.236058
v 0.009479 -0.027028 -0.236058
v 0.023714 0.005152 -0.236058
v -0.003901 0.024169 -0.227988
v -0.024888 0.031749 -0.227988
v -0.045875 0.024169 -0.227988
v -0.054569 0.005152 -0.227988
v -0.045875 -0.013865 -0.227988
v -0.024888 -0.021445 -0.227988
v -0.003901 -0.013865 -0.227988
v 0.004792 0.005152 -0.227988
v -0.003901 0.020872 -0.183727
v -0.024888 0.026820 -0.183727
v -0.045875 0.020872 -0.183727
v -0.054569 0.005152 -0.183727
v -0.045875 -0.010567 -0.183727
v -0.024888 -0.016516 -0.183727
v -0.003901 -0.010567 -0.183727
v 0.004792 0.005152 -0.183727
v -0.013228 0.013672 -0.178071
v -0.024888 0.017019 -0.178071
v -0.036549 0.013672 -0.178071
v -0.041379 0.005152 -0.178071
v -0.036549 -0.003368 -0.178071
v -0.024888 -0.006714 -0.178071
v -0.013228 -0.003368 -0.178071
v -0.008398 0.005152 -0.178071
v -0.013228 0.012195 -0.141354
v -0.024888 0.014878 -0.141354
v -0.036549 0.012195 -0.141354
v -0.041379 0.005152 -0.141354
v -0.036549 -0.001890 -0.141354
v -0.024888 -0.004574 -0.141354
v -0.013228 -0.001890 -0.141354
v -0.008398 0.005152 -0.141354
v 0.005638 0.022354 -0.121331
v -0.024888 0.027621 -0.121331
v -0.055414 0.022354 -0.121331
v -0.068059 0.005152 -0.121331
v -0.055414 -0.012049 -0.121331
v -0.024888 -0.017316 -0.121331
v 0.005638 -0.012049 -0.121331
v 0.018282 0.005152 -0.121331
v 0.023293 0.030694 -0.029277
v -0.024887 0.026533 -0.029277
v -0.073069 0.030694 -0.029277
v -0.093027 0.005152 -0.029277
v -0.073069 -0.020390 -0.029277
v -0.024887 -0.016228 -0.029277
v 0.023293 -0.020390 -0.029277
v 0.043249 0.005152 -0.029277
v 0.020091 0.030842 0.189966
v -0.024887 0.028529 0.189966
v -0.069867 0.030842 0.189966
v -0.088499 0.005152 0.189966
v -0.069867 -0.020537 0.189966
v -0.024887 -0.018224 0.189966
v 0.020091 -0.020537 0.189966
v 0.038721 0.005152 0.189966
v 0.002297 0.017941 0.337839
v -0.024888 0.021478 0.337839
v -0.052074 0.017941 0.337839
v -0.063335 0.005152 0.337839
v -0.052074 -0.007636 0.337839
v -0.024888 -0.011174 0.337839
v 0.002297 -0.007636 0.337839
v 0.013557 0.005152 0.337839
v -0.021363 0.008678 0.507758
v -0.024889 0.010138 0.507758
v -0.028415 0.008678 0.507758
v -0.029875 0.005152 0.507758
v -0.028415 0.001627 0.507758
v -0.024889 0.000166 0.507758
v -0.021363 0.001627 0.507758
v -0.019903 0.005152 0.507758
v -0.022846 0.007195 0.511771
v -0.024889 0.008041 0.511771
v -0.024889 0.005152 0.511771
v -0.026931 0.007195 0.511771
v -0.027777 0.005152 0.511771
v -0.026931 0.003110 0.511771
v -0.024889 0.002264 0.511771
v -0.022846 0.003110 0.511771
v -0.022000 0.005152 0.511771
vt 0.876471 0.119778
vt 0.901107 0.118664
vt 0.902432 0.153864
vt 0.874749 0.154016
vt 0.925533 0.112990
vt 0.930005 0.151019
vt 0.949671 0.103237
vt 0.957752 0.146948
vt 0.974364 0.089789
vt 0.763544 0.131854
vt 0.806525 0.094779
vt 0.792401 0.138053
vt 0.828678 0.107745
vt 0.819778 0.145357
vt 0.852129 0.116123
vt 0.847114 0.151062
vt 0.889475 0.070308
vt 0.879864 0.071368
vt 0.880874 0.056416
vt 0.898319 0.066079
vt 0.904912 0.058550
vt 0.857332 0.047376
vt 0.857424 0.056822
vt 0.862564 0.064455
vt 0.870536 0.069386
vt 0.640941 0.442894
vt 0.642276 0.442709
vt 0.642290 0.444693
vt 0.643607 0.442872
vt 0.644817 0.443388
vt 0.645749 0.444275
vt 0.638349 0.445764
vt 0.638760 0.444386
vt 0.639713 0.443437
vt 0.878634 0.085074
vt 0.894247 0.083703
vt 0.909128 0.077744
vt 0.922019 0.067032
vt 0.931657 0.051213
vt 0.839479 0.062841
vt 0.849919 0.074507
vt 0.863454 0.081971
vt 0.894239 0.230686
vt 0.871370 0.229527
vt 0.916686 0.230949
vt 0.937852 0.232062
vt 0.785188 0.231324
vt 0.804835 0.230289
vt 0.826134 0.229181
vt 0.848499 0.228631
vt 0.892904 0.265915
vt 0.870970 0.266245
vt 0.914920 0.268617
vt 0.937278 0.272963
vt 0.779891 0.276473
vt 0.804658 0.270018
vt 0.827705 0.267693
vt 0.849535 0.267314
vt 0.892017 0.279511
vt 0.870602 0.279421
vt 0.913435 0.281533
vt 0.933661 0.285498
vt 0.785235 0.291575
vt 0.807851 0.283365
vt 0.830150 0.280785
vt 0.850520 0.280162
vt 0.140593 0.889112
vt 0.127932 0.877656
vt 0.152945 0.901936
vt 0.053536 0.837835
vt 0.070277 0.843753
vt 0.086513 0.851054
vt 0.101570 0.859104
vt 0.115267 0.867647
vt 0.112656 0.915820
vt 0.102152 0.905520
vt 0.124694 0.926369
vt 0.043028 0.874638
vt 0.056810 0.878592
vt 0.070803 0.886365
vt 0.084044 0.892776
vt 0.093758 0.898210
vt 0.105399 0.921774
vt 0.095493 0.914147
vt 0.113907 0.929766
vt 0.049155 0.886843
vt 0.057253 0.889892
vt 0.067647 0.895205
vt 0.078170 0.901956
vt 0.086757 0.908157
vt 0.085058 0.946718
vt 0.074626 0.940784
vt 0.095275 0.951926
vt 0.037773 0.909144
vt 0.042678 0.914908
vt 0.051028 0.922769
vt 0.060135 0.930586
vt 0.067001 0.936224
vt 0.638381 0.028737
vt 0.614295 0.029384
vt 0.662476 0.028898
vt 0.679065 0.028602
vt 0.694541 0.025514
vt 0.562042 0.020303
vt 0.582169 0.026650
vt 0.597704 0.029424
vt 0.638994 0.088950
vt 0.608302 0.090268
vt 0.669707 0.089651
vt 0.690219 0.089499
vt 0.710835 0.087089
vt 0.535481 0.084036
vt 0.567132 0.088537
vt 0.587792 0.090530
vt 0.640438 0.232128
vt 0.611193 0.232121
vt 0.669679 0.231546
vt 0.690416 0.232120
vt 0.710930 0.234712
vt 0.541283 0.242166
vt 0.570013 0.236096
vt 0.590471 0.233101
vt 0.641379 0.328775
vt 0.622392 0.329098
vt 0.660369 0.328758
vt 0.672103 0.329572
vt 0.683186 0.332970
vt 0.582935 0.341091
vt 0.599659 0.333708
vt 0.610678 0.330117
vt 0.642227 0.440131
vt 0.639811 0.440418
vt 0.644652 0.440354
vt 0.647021 0.441044
vt 0.649155 0.442314
vt 0.633389 0.444178
vt 0.635342 0.442458
vt 0.637460 0.441167
vt 0.851825 0.294745
vt 0.871193 0.292984
vt 0.832390 0.294283
vt 0.813226 0.295879
vt 0.797840 0.302952
vt 0.928114 0.299104
vt 0.910365 0.294904
vt 0.891071 0.292126
vt 0.955921 0.293464
vt 0.943493 0.305025
vt 0.961655 0.278270
vt 0.956669 0.234520
vt 0.986301 0.144766
vt 0.906615 0.047927
vt 0.833958 0.047364
vt 0.785591 0.077022
vt 0.049830 0.960626
vt 0.062175 0.962483
vt 0.043913 0.949632
vt 0.036110 0.934583
vt 0.017829 0.921633
vt 0.009951 0.905549
vt 0.097328 0.977588
vt 0.078972 0.964747
vt 0.646173 0.445486
vt 0.651075 0.444097
vt 0.700030 0.340067
vt 0.739777 0.240210
vt 0.742388 0.081947
vt 0.714535 0.018759
vt 0.102356 0.954600
vt 0.115127 0.979577
vt 0.119509 0.936361
vt 0.133066 0.938010
vt 0.164165 0.915698
vn 0.698828 0.698828 -0.152575
vn -0.000000 0.988292 -0.152574
vn 0.000000 0.993074 0.117494
vn 0.702209 0.702209 0.117494
vn -0.698828 0.698828 -0.152574
vn -0.702209 0.702209 0.117494
vn -0.988292 -0.000000 -0.152573
vn -0.993074 0.000000 0.117494
vn -0.698828 -0.698828 -0.152573
vn -0.702209 -0.702209 0.117494
vn -0.000000 -0.988292 -0.152573
vn -0.000000 -0.993074 0.117494
vn 0.698829 -0.698827 -0.152574
vn 0.702209 -0.702209 0.117494
vn 0.988292 0.000000 -0.152575
vn 0.993074 0.000000 0.117494
vn 0.000000 0.645866 -0.763451
vn 0.456697 0.456695 -0.763451
vn -0.000000 0.000000 -1.000000
vn -0.456696 0.456696 -0.763451
vn -0.645866 0.000000 -0.763451
vn -0.456697 -0.456695 -0.763451
vn -0.000000 -0.645865 -0.763451
vn 0.456697 -0.456695 -0.763451
vn 0.645867 0.000000 -0.763450
vn 0.579170 0.579158 0.573706
vn -0.000000 0.819067 0.573698
vn 0.000000 0.000000 1.000000
vn -0.579152 0.579171 0.573711
vn -0.819046 0.000001 0.573728
vn -0.579148 -0.579173 0.573713
vn -0.000000 -0.819067 0.573698
vn 0.579166 -0.579160 0.573707
vn 0.819052 0.000001 0.573719
vn 0.647085 0.647084 -0.403191
vn -0.000000 0.915116 -0.403190
vn -0.647085 0.647085 -0.403190
vn -0.915117 0.000000 -0.403188
vn -0.647085 -0.647085 -0.403189
vn -0.000000 -0.915117 -0.403189
vn 0.647085 -0.647084 -0.403190
vn 0.915116 0.000000 -0.403191
vn 0.000000 0.999103 0.042357
vn 0.704104 0.708992 0.039604
vn -0.704102 0.708993 0.039604
vn -0.999319 0.000000 0.036908
vn -0.704103 -0.708993 0.039603
vn -0.000000 -0.999103 0.042356
vn 0.704104 -0.708992 0.039604
vn 0.999319 -0.000000 0.036908
vn -0.000000 0.985841 -0.167683
vn 0.683415 0.705978 -0.185846
vn -0.683414 0.705979 -0.185847
vn -0.978830 -0.000000 -0.204674
vn -0.683413 -0.705980 -0.185847
vn 0.000000 -0.985841 -0.167683
vn 0.683414 -0.705979 -0.185846
vn 0.978831 -0.000000 -0.204672
vn -0.000000 0.862019 0.506876
vn 0.606683 0.629748 0.485133
vn -0.606681 0.629750 0.485133
vn -0.885318 -0.000000 0.464987
vn -0.606682 -0.629748 0.485133
vn 0.000000 -0.862019 0.506875
vn 0.606684 -0.629746 0.485133
vn 0.885317 0.000000 0.464988
vn -0.000000 0.862913 0.505353
vn 0.541899 0.663946 0.515288
vn -0.541897 0.663948 0.515287
vn -0.854080 0.000000 0.520142
vn -0.541899 -0.663948 0.515285
vn 0.000000 -0.862914 0.505350
vn 0.541901 -0.663945 0.515286
vn 0.854083 0.000000 0.520137
vn -0.000000 0.976934 0.213542
vn 0.628637 0.754905 0.186907
vn -0.628634 0.754907 0.186906
vn -0.987966 0.000000 0.154674
vn -0.628637 -0.754904 0.186908
vn 0.000000 -0.976934 0.213543
vn 0.628641 -0.754902 0.186908
vn 0.987965 0.000000 0.154675
vn -0.000000 0.932166 0.362031
vn 0.495931 0.764075 0.412604
vn -0.495924 0.764085 0.412595
vn -0.869903 0.000000 0.493223
vn -0.495921 -0.764083 0.412600
vn 0.000000 -0.932165 0.362033
vn 0.495929 -0.764073 0.412609
vn 0.869904 0.000000 0.493222
vn -0.000001 0.953813 -0.300399
vn 0.441912 0.805586 -0.394646
vn -0.441902 0.805595 -0.394639
vn -0.824381 -0.000001 -0.566036
vn -0.441903 -0.805595 -0.394638
vn -0.000001 -0.953813 -0.300401
vn 0.441913 -0.805585 -0.394645
vn 0.824385 -0.000001 -0.566030
vn 0.000001 0.994824 -0.101616
vn 0.353299 0.917322 -0.183579
vn -0.353288 0.917326 -0.183576
vn -0.946366 0.000000 -0.323095
vn -0.353290 -0.917326 -0.183577
vn 0.000001 -0.994824 -0.101618
vn 0.353300 -0.917321 -0.183579
vn 0.946366 0.000000 -0.323096
vn 0.000001 0.999893 -0.014649
vn 0.344821 0.938167 -0.030681
vn -0.344808 0.938172 -0.030681
vn -0.998712 0.000000 -0.050744
vn -0.344809 -0.938171 -0.030681
vn 0.000001 -0.999893 -0.014649
vn 0.344822 -0.938166 -0.030681
vn 0.998712 0.000000 -0.050744
vn 0.000001 0.999801 0.019974
vn 0.338695 0.940106 0.038567
vn -0.338683 0.940110 0.038566
vn -0.997616 0.000000 0.069014
vn -0.338684 -0.940110 0.038566
vn 0.000001 -0.999801 0.019974
vn 0.338696 -0.940105 0.038567
vn 0.997616 0.000000 0.069015
vn 0.000000 0.997586 0.069448
vn 0.381498 0.918062 0.107806
vn -0.381488 0.918066 0.107804
vn -0.983814 0.000000 0.179194
vn -0.381487 -0.918066 0.107804
vn 0.000000 -0.997586 0.069448
vn 0.381498 -0.918062 0.107806
vn 0.983814 0.000000 0.179195
vn -0.000000 0.997300 0.073434
vn 0.428053 0.897115 0.109338
vn -0.428043 0.897120 0.109336
vn -0.982137 0.000000 0.188169
vn -0.428043 -0.897120 0.109337
vn -0.000000 -0.997300 0.073434
vn 0.428053 -0.897115 0.109339
vn 0.982137 0.000000 0.188170
s 1
g pCylinder25
usemtl standardSurface1SG
f 1/1/1 2/2/2 10/3/3 9/4/4
f 2/2/2 3/5/5 11/6/6 10/3/3
f 3/5/5 4/7/7 12/8/8 11/6/6
f 4/7/7 5/9/9 13/151/10 12/8/8
f 5/154/9 6/11/11 14/12/12 13/10/10
f 6/11/11 7/13/13 15/14/14 14/12/12
f 7/13/13 8/15/15 16/16/16 15/14/14
f 8/15/15 1/1/1 9/4/4 16/16/16
f 26/17/17 25/18/18 27/19/19
f 28/20/20 26/17/17 27/19/19
f 29/21/21 28/20/20 27/19/19
f 30/152/22 29/21/21 27/19/19
f 31/23/23 30/22/22 27/19/19
f 32/24/24 31/23/23 27/19/19
f 33/25/25 32/24/24 27/19/19
f 25/18/18 33/25/25 27/19/19
f 130/26/26 131/27/27 132/28/28
f 131/27/27 133/29/29 132/28/28
f 133/29/29 134/30/30 132/28/28
f 134/30/30 135/31/31 132/28/28
f 135/31/31 136/163/32 132/28/28
f 136/32/32 137/33/33 132/28/28
f 137/33/33 138/34/34 132/28/28
f 138/34/34 130/26/26 132/28/28
f 2/2/2 1/1/1 17/35/35 18/36/36
f 3/5/5 2/2/2 18/36/36 19/37/37
f 4/7/7 3/5/5 19/37/37 20/38/38
f 5/9/9 4/7/7 20/38/38 21/39/39
f 6/11/11 5/154/9 21/153/39 22/40/40
f 7/13/13 6/11/11 22/40/40 23/41/41
f 8/15/15 7/13/13 23/41/41 24/42/42
f 1/1/1 8/15/15 24/42/42 17/35/35
f 18/36/36 17/35/35 25/18/18 26/17/17
f 19/37/37 18/36/36 26/17/17 28/20/20
f 20/38/38 19/37/37 28/20/20 29/21/21
f 21/39/39 20/38/38 29/21/21 30/152/22
f 22/40/40 21/153/39 30/22/22 31/23/23
f 23/41/41 22/40/40 31/23/23 32/24/24
f 24/42/42 23/41/41 32/24/24 33/25/25
f 17/35/35 24/42/42 33/25/25 25/18/18
f 9/4/4 10/3/3 35/43/43 34/44/44
f 10/3/3 11/6/6 36/45/45 35/43/43
f 11/6/6 12/8/8 37/46/46 36/45/45
f 12/8/8 13/151/10 38/150/47 37/46/46
f 13/10/10 14/12/12 39/48/48 38/47/47
f 14/12/12 15/14/14 40/49/49 39/48/48
f 15/14/14 16/16/16 41/50/50 40/49/49
f 16/16/16 9/4/4 34/44/44 41/50/50
f 34/44/44 35/43/43 43/51/51 42/52/52
f 35/43/43 36/45/45 44/53/53 43/51/51
f 36/45/45 37/46/46 45/54/54 44/53/53
f 37/46/46 38/150/47 46/149/55 45/54/54
f 38/47/47 39/48/48 47/56/56 46/55/55
f 39/48/48 40/49/49 48/57/57 47/56/56
f 40/49/49 41/50/50 49/58/58 48/57/57
f 41/50/50 34/44/44 42/52/52 49/58/58
f 42/52/52 43/51/51 51/59/59 50/60/60
f 43/51/51 44/53/53 52/61/61 51/59/59
f 44/53/53 45/54/54 53/62/62 52/61/61
f 45/54/54 46/149/55 54/147/63 53/62/62
f 46/55/55 47/56/56 55/64/64 54/63/63
f 47/56/56 48/57/57 56/65/65 55/64/64
f 48/57/57 49/58/58 57/66/66 56/65/65
f 49/58/58 42/52/52 50/60/60 57/66/66
f 50/60/60 51/59/59 59/146/67 58/140/68
f 51/59/59 52/61/61 60/145/69 59/146/67
f 52/61/61 53/62/62 61/144/70 60/145/69
f 53/62/62 54/147/63 62/148/71 61/144/70
f 54/63/63 55/64/64 63/142/72 62/143/71
f 55/64/64 56/65/65 64/141/73 63/142/72
f 56/65/65 57/66/66 65/139/74 64/141/73
f 57/66/66 50/60/60 58/140/68 65/139/74
f 58/68/68 59/67/67 67/75/75 66/76/76
f 59/67/67 60/69/69 68/77/77 67/75/75
f 60/69/69 61/173/70 69/172/78 68/77/77
f 61/70/70 62/71/71 70/79/79 69/78/78
f 62/71/71 63/72/72 71/80/80 70/79/79
f 63/72/72 64/73/73 72/81/81 71/80/80
f 64/73/73 65/74/74 73/82/82 72/81/81
f 65/74/74 58/68/68 66/76/76 73/82/82
f 66/76/76 67/75/75 75/83/83 74/84/84
f 67/75/75 68/77/77 76/85/85 75/83/83
f 68/77/77 69/172/78 77/171/86 76/85/85
f 69/78/78 70/79/79 78/87/87 77/86/86
f 70/79/79 71/80/80 79/88/88 78/87/87
f 71/80/80 72/81/81 80/89/89 79/88/88
f 72/81/81 73/82/82 81/90/90 80/89/89
f 73/82/82 66/76/76 74/84/84 81/90/90
f 74/84/84 75/83/83 83/91/91 82/92/92
f 75/83/83 76/85/85 84/93/93 83/91/91
f 76/85/85 77/171/86 85/169/94 84/93/93
f 77/86/86 78/87/87 86/95/95 85/94/94
f 78/87/87 79/88/88 87/96/96 86/95/95
f 79/88/88 80/89/89 88/97/97 87/96/96
f 80/89/89 81/90/90 89/98/98 88/97/97
f 81/90/90 74/84/84 82/92/92 89/98/98
f 82/92/92 83/91/91 91/162/99 90/156/100
f 83/91/91 84/93/93 92/161/101 91/162/99
f 84/93/93 85/169/94 93/170/102 92/161/101
f 85/94/94 86/95/95 94/159/103 93/160/102
f 86/95/95 87/96/96 95/158/104 94/159/103
f 87/96/96 88/97/97 96/157/105 95/158/104
f 88/97/97 89/98/98 97/155/106 96/157/105
f 89/98/98 82/92/92 90/156/100 97/155/106
f 90/100/100 91/99/99 99/107/107 98/108/108
f 91/99/99 92/101/101 100/109/109 99/107/107
f 92/101/101 93/102/102 101/110/110 100/109/109
f 93/102/102 94/103/103 102/111/111 101/110/110
f 94/103/103 95/168/104 103/167/112 102/111/111
f 95/104/104 96/105/105 104/113/113 103/112/112
f 96/105/105 97/106/106 105/114/114 104/113/113
f 97/106/106 90/100/100 98/108/108 105/114/114
f 98/108/108 99/107/107 107/115/115 106/116/116
f 99/107/107 100/109/109 108/117/117 107/115/115
f 100/109/109 101/110/110 109/118/118 108/117/117
f 101/110/110 102/111/111 110/119/119 109/118/118
f 102/111/111 103/167/112 111/166/120 110/119/119
f 103/112/112 104/113/113 112/121/121 111/120/120
f 104/113/113 105/114/114 113/122/122 112/121/121
f 105/114/114 98/108/108 106/116/116 113/122/122
f 106/116/116 107/115/115 115/123/123 114/124/124
f 107/115/115 108/117/117 116/125/125 115/123/123
f 108/117/117 109/118/118 117/126/126 116/125/125
f 109/118/118 110/119/119 118/127/127 117/126/126
f 110/119/119 111/166/120 119/165/128 118/127/127
f 111/120/120 112/121/121 120/129/129 119/128/128
f 112/121/121 113/122/122 121/130/130 120/129/129
f 113/122/122 106/116/116 114/124/124 121/130/130
f 114/124/124 115/123/123 123/131/131 122/132/132
f 115/123/123 116/125/125 124/133/133 123/131/131
f 116/125/125 117/126/126 125/134/134 124/133/133
f 117/126/126 118/127/127 126/135/135 125/134/134
f 118/127/127 119/165/128 127/164/136 126/135/135
f 119/128/128 120/129/129 128/137/137 127/136/136
f 120/129/129 121/130/130 129/138/138 128/137/137
f 121/130/130 114/124/124 122/132/132 129/138/138
f 122/132/132 123/131/131 131/27/27 130/26/26
f 123/131/131 124/133/133 133/29/29 131/27/27
f 124/133/133 125/134/134 134/30/30 133/29/29
f 125/134/134 126/135/135 135/31/31 134/30/30
f 126/135/135 127/164/136 136/163/32 135/31/31
f 127/136/136 128/137/137 137/33/33 136/32/32
f 128/137/137 129/138/138 138/34/34 137/33/33
f 129/138/138 122/132/132 130/26/26 138/34/34
