# This file uses centimeters as units for non-parametric coordinates.

mtllib Int_lantern_hang_low.mtl
g default
v 0.070207 0.174030 0.082589
v -0.032355 0.174030 0.040106
v -0.134918 0.174030 0.082589
v -0.177401 0.174030 0.185152
v -0.134918 0.174030 0.287714
v -0.032355 0.174030 0.330197
v 0.070207 0.174030 0.287714
v 0.112690 0.174030 0.185152
v 0.120235 0.559641 0.032562
v -0.032355 0.559641 -0.030643
v -0.184945 0.559641 0.032562
v -0.248150 0.559641 0.185152
v -0.184945 0.559641 0.337741
v -0.032355 0.559641 0.400946
v 0.120235 0.559641 0.337741
v 0.183440 0.559641 0.185152
v 0.104666 0.574853 0.048130
v -0.032355 0.574853 -0.008626
v -0.169377 0.574853 0.048130
v -0.226133 0.574853 0.185152
v -0.169377 0.574853 0.322173
v -0.032355 0.574853 0.378929
v 0.104666 0.574853 0.322173
v 0.161422 0.574853 0.185152
v 0.123727 0.612085 0.029070
v -0.032355 0.612085 -0.035582
v -0.188437 0.612085 0.029070
v -0.253089 0.612085 0.185152
v -0.188437 0.612085 0.341234
v -0.032355 0.612085 0.405885
v 0.123727 0.612085 0.341234
v 0.188378 0.612085 0.185152
v 0.098991 0.641904 0.053806
v -0.032355 0.641904 -0.000600
v -0.163701 0.641904 0.053806
v -0.218107 0.641904 0.185152
v -0.163701 0.641904 0.316498
v -0.032355 0.641904 0.370903
v 0.098991 0.641904 0.316498
v 0.153397 0.641904 0.185152
v 0.035232 0.666219 0.117564
v -0.032355 0.666219 0.089569
v -0.099943 0.666219 0.117564
v -0.127938 0.666219 0.185152
v -0.099943 0.666219 0.252739
v -0.032355 0.666219 0.280734
v 0.035232 0.666219 0.252739
v 0.063228 0.666219 0.185152
v 0.015582 0.727105 0.137214
v -0.032355 0.727105 0.117358
v -0.080293 0.727105 0.137214
v -0.100149 0.727105 0.185152
v -0.080293 0.727105 0.233089
v -0.032355 0.727105 0.252945
v 0.015582 0.727105 0.233089
v 0.035439 0.727105 0.185152
v 0.122136 0.591035 0.030660
v 0.186128 0.591035 0.185152
v 0.122136 0.591035 0.339643
v -0.032355 0.591035 0.403635
v -0.186846 0.591035 0.339643
v -0.250839 0.591035 0.185152
v -0.186846 0.591035 0.030660
v -0.032355 0.591035 -0.033332
v 0.002400 0.737554 0.150396
v -0.032355 0.737554 0.136000
v -0.067111 0.737554 0.150396
v -0.081506 0.737554 0.185152
v -0.067111 0.737554 0.219907
v -0.032355 0.737554 0.234303
v 0.002400 0.737554 0.219907
v 0.016796 0.737554 0.185152
v 0.079398 0.183240 0.073399
v -0.032355 0.183240 0.027109
v -0.144108 0.183240 0.073399
v -0.190397 0.183240 0.185152
v -0.144108 0.183240 0.296905
v -0.032355 0.183240 0.343194
v 0.079398 0.183240 0.296905
v 0.125687 0.183240 0.185152
v 0.087611 0.195659 0.065186
v -0.032355 0.195659 0.015494
v -0.152321 0.195659 0.065186
v -0.202013 0.195659 0.185152
v -0.152321 0.195659 0.305117
v -0.032355 0.195659 0.354809
v 0.087611 0.195659 0.305117
v 0.137302 0.195659 0.185152
v 0.086967 0.155846 0.065829
v -0.032355 0.155846 0.016404
v -0.151678 0.155846 0.065829
v -0.201103 0.155846 0.185152
v -0.151678 0.155846 0.304474
v -0.032355 0.155846 0.353899
v 0.086967 0.155846 0.304474
v 0.136392 0.155846 0.185152
v 0.054016 0.132406 0.098781
v -0.032355 0.132406 0.063004
v -0.032355 0.132406 0.185152
v -0.118726 0.132406 0.098781
v -0.154502 0.132406 0.185152
v -0.118726 0.132406 0.271522
v -0.032355 0.132406 0.307299
v 0.054016 0.132406 0.271522
v 0.089792 0.132406 0.185152
v -0.014787 0.737554 0.167583
v -0.032355 0.737554 0.160306
v -0.049924 0.737554 0.167583
v -0.057200 0.737554 0.185152
v -0.049924 0.737554 0.202720
v -0.032355 0.737554 0.209997
v -0.014787 0.737554 0.202720
v -0.007510 0.737554 0.185152
v -0.018146 0.771636 0.155438
v -0.032355 0.771636 0.143130
v -0.046564 0.771636 0.155438
v -0.052450 0.771636 0.185152
v -0.046564 0.771636 0.214865
v -0.032355 0.771636 0.227173
v -0.018146 0.771636 0.214865
v -0.012261 0.771636 0.185152
v -0.020196 0.781538 0.159723
v -0.032355 0.781538 0.149191
v -0.032355 0.781538 0.185152
v -0.044515 0.781538 0.159723
v -0.049552 0.781538 0.185152
v -0.044515 0.781538 0.210580
v -0.032355 0.781538 0.221112
v -0.020196 0.781538 0.210580
v -0.015159 0.781538 0.185152
v 0.019340 0.884893 0.189025
v 0.038546 0.832789 0.187505
v 0.015290 0.782339 0.187424
v -0.036804 0.763096 0.188828
v -0.087221 0.786333 0.190896
v -0.106426 0.838438 0.192415
v -0.083170 0.888888 0.192497
v -0.031076 0.908131 0.191092
v 0.024251 0.890035 0.176368
v 0.045377 0.832719 0.174697
v 0.019796 0.777224 0.174607
v -0.037508 0.756057 0.176152
v -0.092966 0.781618 0.178427
v -0.114092 0.838933 0.180098
v -0.088511 0.894428 0.180187
v -0.031207 0.915595 0.178642
v 0.034907 0.899890 0.176181
v 0.059874 0.832154 0.174205
v 0.029642 0.766569 0.174100
v -0.038081 0.741554 0.175926
v -0.103622 0.771762 0.178614
v -0.128589 0.839497 0.180589
v -0.098357 0.905083 0.180695
v -0.030635 0.930098 0.178869
v 0.040652 0.904606 0.188650
v 0.067541 0.831659 0.186523
v 0.034982 0.761029 0.186409
v -0.037949 0.734089 0.188376
v -0.108533 0.766621 0.191270
v -0.135421 0.839567 0.193398
v -0.102863 0.910198 0.193511
v -0.029931 0.937137 0.191545
v 0.035742 0.899465 0.201307
v 0.060709 0.831729 0.199331
v 0.030477 0.766144 0.199226
v -0.037246 0.741128 0.201052
v -0.102788 0.771336 0.203740
v -0.127755 0.839072 0.205715
v -0.097522 0.904658 0.205821
v -0.029799 0.929673 0.203995
v 0.025086 0.889609 0.201494
v 0.046212 0.832294 0.199822
v 0.020630 0.776799 0.199733
v -0.036673 0.755632 0.201278
v -0.092132 0.781192 0.203552
v -0.113258 0.838508 0.205224
v -0.087676 0.894003 0.205313
v -0.030373 0.915170 0.203768
v -0.185760 0.154630 -0.117928
v 0.131359 0.154630 -0.117928
v -0.185760 0.896820 -0.117928
v 0.131359 0.896820 -0.117928
v -0.185760 0.896820 -0.195805
v 0.131359 0.896820 -0.195805
v -0.185760 0.154630 -0.195805
v 0.131359 0.154630 -0.195805
v -0.185760 1.126984 -0.117928
v 0.131359 1.126984 -0.117928
v 0.131359 1.126984 -0.195805
v -0.185760 1.126984 -0.195805
v -0.055419 1.299084 -0.126419
v 0.001019 1.299084 -0.126419
v 0.001019 1.299084 -0.187314
v -0.055419 1.299084 -0.187314
v -0.062189 0.000857 -0.195805
v 0.007789 0.000857 -0.195805
v 0.007789 0.000857 -0.117928
v -0.062189 0.000857 -0.117928
v 0.014327 1.024036 0.368329
v -0.070671 1.024036 0.368329
v -0.113171 1.085291 0.367907
v -0.070671 1.146545 0.367485
v 0.014327 1.146545 0.367485
v 0.056827 1.085291 0.367907
v 0.014327 1.023624 0.308449
v -0.070671 1.023624 0.308449
v -0.113171 1.084879 0.308027
v -0.070671 1.146133 0.307605
v 0.014327 1.146133 0.307605
v 0.056827 1.084879 0.308027
v -0.028172 1.085291 0.367907
v -0.028172 1.084879 0.308027
v -0.011719 1.118767 -0.147872
v -0.044624 1.118767 -0.147872
v -0.061077 1.085085 -0.147872
v -0.044624 1.051403 -0.147872
v -0.011719 1.051403 -0.147872
v 0.004734 1.085085 -0.147872
v -0.011719 1.118767 0.391055
v -0.044624 1.118767 0.391055
v -0.061077 1.085085 0.391055
v -0.044624 1.051403 0.391055
v -0.011719 1.051403 0.391055
v 0.004734 1.085085 0.391055
v -0.028172 1.085085 -0.147872
v -0.028172 1.085085 0.391055
v -0.026135 0.993656 0.158058
v -0.027655 0.954678 0.146278
v -0.027735 0.916937 0.160543
v -0.026331 0.902543 0.192497
v -0.024264 0.919925 0.223422
v -0.022744 0.958903 0.235202
v -0.022663 0.996644 0.220937
v -0.024068 1.011039 0.188983
v -0.038792 0.997501 0.155046
v -0.040463 0.954625 0.142087
v -0.040553 0.913111 0.157779
v -0.039007 0.897277 0.192928
v -0.036733 0.916398 0.226946
v -0.035061 0.959274 0.239904
v -0.034972 1.000788 0.224213
v -0.036517 1.016623 0.189064
v -0.038979 1.004874 0.148510
v -0.040954 0.954203 0.133195
v -0.041060 0.905140 0.151739
v -0.039234 0.886427 0.193280
v -0.036546 0.909025 0.233482
v -0.034571 0.959696 0.248797
v -0.034465 1.008759 0.230253
v -0.036291 1.027472 0.188712
v -0.026509 1.008402 0.144986
v -0.028637 0.953832 0.128493
v -0.028751 0.900996 0.148464
v -0.026784 0.880843 0.193199
v -0.023889 0.905179 0.236495
v -0.021762 0.959749 0.252987
v -0.021648 1.012585 0.233016
v -0.023615 1.032738 0.188281
v -0.013853 1.004556 0.147998
v -0.015828 0.953885 0.132683
v -0.015933 0.904822 0.151227
v -0.014108 0.886109 0.192768
v -0.011420 0.908707 0.232970
v -0.009445 0.959378 0.248285
v -0.009339 1.008440 0.229741
v -0.011165 1.027154 0.188200
v -0.013666 0.997183 0.154534
v -0.015337 0.954308 0.141576
v -0.015426 0.912793 0.157267
v -0.013881 0.896959 0.192416
v -0.011607 0.916080 0.226434
v -0.009936 0.958956 0.239393
v -0.009846 1.000470 0.223701
v -0.011392 1.016305 0.188552
v 0.007483 1.098544 0.189804
v 0.019263 1.059566 0.188285
v 0.004998 1.021826 0.188204
v -0.026956 1.007431 0.189608
v -0.057881 1.024814 0.191676
v -0.069662 1.063792 0.193195
v -0.055397 1.101532 0.193277
v -0.023442 1.115927 0.191872
v 0.010494 1.102390 0.177148
v 0.023453 1.059514 0.175476
v 0.007762 1.018000 0.175387
v -0.027388 1.002165 0.176932
v -0.061405 1.021286 0.179206
v -0.074364 1.064162 0.180878
v -0.058672 1.105676 0.180967
v -0.023523 1.121511 0.179422
v 0.017031 1.109763 0.176961
v 0.032346 1.059092 0.174985
v 0.013801 1.010029 0.174880
v -0.027739 0.991315 0.176706
v -0.067942 1.013913 0.179394
v -0.083256 1.064585 0.181369
v -0.064712 1.113647 0.181475
v -0.023172 1.132360 0.179649
v 0.020555 1.113290 0.189430
v 0.037048 1.058721 0.187303
v 0.017077 1.005884 0.187189
v -0.027659 0.985731 0.189155
v -0.070954 1.010068 0.192050
v -0.087446 1.064637 0.194177
v -0.067476 1.117473 0.194291
v -0.022740 1.137626 0.192325
v 0.017543 1.109445 0.202087
v 0.032858 1.058773 0.200111
v 0.014313 1.009711 0.200006
v -0.027227 0.990997 0.201832
v -0.067430 1.013595 0.204519
v -0.082744 1.064266 0.206495
v -0.064200 1.113329 0.206600
v -0.022660 1.132043 0.204774
v 0.011006 1.102072 0.202274
v 0.023965 1.059196 0.200602
v 0.008274 1.017682 0.200513
v -0.026876 1.001847 0.202058
v -0.060893 1.020968 0.204332
v -0.073852 1.063844 0.206004
v -0.058161 1.105358 0.206093
v -0.023011 1.121193 0.204548
vt 0.289381 0.030172
vt 0.373073 0.030280
vt 0.366424 0.274347
vt 0.284120 0.273045
vt 0.456745 0.032495
vt 0.448644 0.277898
vt 0.539424 0.036706
vt 0.532073 0.284115
vt 0.619472 0.043321
vt 0.618884 0.294054
vt 0.692590 0.055245
vt 0.017663 0.287967
vt 0.126284 0.037800
vt 0.113324 0.277046
vt 0.206615 0.032425
vt 0.200456 0.273783
vt 0.085135 0.750977
vt 0.057289 0.722304
vt 0.105822 0.703026
vt 0.125103 0.751554
vt 0.153774 0.723697
vt 0.154349 0.683728
vt 0.126492 0.655068
vt 0.086531 0.654496
vt 0.057869 0.682344
vt 0.843793 0.152495
vt 0.847159 0.149612
vt 0.849686 0.156721
vt 0.851582 0.149710
vt 0.855891 0.154506
vt 0.855578 0.160947
vt 0.852213 0.163831
vt 0.847790 0.163732
vt 0.843480 0.158936
vt 0.794774 0.023315
vt 0.716602 0.101146
vt 0.905061 0.023552
vt 0.982953 0.101710
vt 0.982848 0.212124
vt 0.904660 0.290084
vt 0.794253 0.289846
vt 0.716345 0.211557
vt 0.798802 0.034438
vt 0.727311 0.106173
vt 0.900053 0.034271
vt 0.971836 0.105760
vt 0.972129 0.207128
vt 0.900625 0.278969
vt 0.799268 0.279135
vt 0.727470 0.207538
vt 0.736706 0.109989
vt 0.802754 0.043779
vt 0.811850 0.064866
vt 0.758046 0.118479
vt 0.896251 0.043675
vt 0.887790 0.065027
vt 0.962501 0.109728
vt 0.941427 0.118863
vt 0.962725 0.203337
vt 0.941367 0.194887
vt 0.896667 0.269634
vt 0.887557 0.248554
vt 0.803077 0.269737
vt 0.811552 0.248393
vt 0.736815 0.203596
vt 0.757910 0.194504
vt 0.828863 0.105676
vt 0.798948 0.135318
vt 0.870972 0.105935
vt 0.900600 0.135939
vt 0.900438 0.178098
vt 0.870523 0.207755
vt 0.828394 0.207499
vt 0.798763 0.177480
vt 0.839850 0.128190
vt 0.822724 0.143472
vt 0.862749 0.129668
vt 0.877889 0.147009
vt 0.876653 0.169964
vt 0.859527 0.185249
vt 0.836622 0.183773
vt 0.821481 0.166429
vt 0.842441 0.135452
vt 0.829749 0.146818
vt 0.859414 0.136683
vt 0.870427 0.149694
vt 0.869625 0.166621
vt 0.856933 0.177989
vt 0.839957 0.176758
vt 0.828945 0.163746
vt 0.015054 0.739795
vt 0.067641 0.793210
vt 0.142609 0.793779
vt 0.196015 0.741166
vt 0.196568 0.666198
vt 0.143944 0.612817
vt 0.069009 0.612274
vt 0.015630 0.664861
vt 0.020982 0.737543
vt 0.070238 0.787427
vt 0.140354 0.787853
vt 0.190230 0.738572
vt 0.190643 0.668457
vt 0.141353 0.618605
vt 0.071267 0.618199
vt 0.021415 0.667457
vt 0.036483 0.730905
vt 0.076503 0.771772
vt 0.133710 0.772357
vt 0.174572 0.732316
vt 0.175150 0.675109
vt 0.135104 0.634266
vt 0.077917 0.633695
vt 0.037072 0.673719
vt 0.844665 0.142332
vt 0.836366 0.150214
vt 0.856106 0.143307
vt 0.862726 0.152114
vt 0.863007 0.163228
vt 0.854707 0.171110
vt 0.843266 0.170135
vt 0.836646 0.161328
vt 0.846327 0.147277
vt 0.841275 0.150610
vt 0.852352 0.146646
vt 0.859698 0.153139
vt 0.858097 0.162833
vt 0.853044 0.166166
vt 0.847019 0.166795
vt 0.839673 0.160303
vt 0.248854 0.963364
vt 0.252113 0.666322
vt 0.242100 0.666024
vt 0.242279 0.623941
vt 0.249168 0.923427
vt 0.239030 0.923580
vt 0.249665 0.880867
vt 0.239851 0.880720
vt 0.250345 0.837956
vt 0.240607 0.837775
vt 0.251011 0.794991
vt 0.241286 0.794821
vt 0.251601 0.752015
vt 0.241868 0.751869
vt 0.252059 0.709048
vt 0.242271 0.708932
vt 0.233053 0.665455
vt 0.233705 0.619534
vt 0.229746 0.923743
vt 0.230782 0.880403
vt 0.231593 0.837412
vt 0.232282 0.794467
vt 0.232860 0.751536
vt 0.233237 0.708618
vt 0.223404 0.665167
vt 0.224040 0.616939
vt 0.220009 0.924090
vt 0.221017 0.880319
vt 0.221860 0.837278
vt 0.222555 0.794343
vt 0.223130 0.751433
vt 0.223491 0.708516
vt 0.271604 0.665859
vt 0.268790 0.618724
vt 0.268191 0.924501
vt 0.268439 0.881474
vt 0.269085 0.838494
vt 0.269746 0.795494
vt 0.270350 0.752467
vt 0.270894 0.709346
vt 0.262283 0.666100
vt 0.259982 0.623503
vt 0.259164 0.923807
vt 0.259443 0.881072
vt 0.260080 0.838139
vt 0.260739 0.795157
vt 0.261338 0.752155
vt 0.261860 0.709114
vt 0.778431 0.674792
vt 0.773824 0.784036
vt 0.514886 0.782919
vt 0.515000 0.665048
vt 0.379661 0.711319
vt 0.379120 0.728788
vt 0.359331 0.704067
vt 0.514715 0.636797
vt 0.783597 0.810149
vt 0.847658 0.712296
vt 0.847135 0.748881
vt 0.824480 0.740820
vt 0.826441 0.719293
vt 0.433404 0.776006
vt 0.437387 0.668324
vt 0.426566 0.644043
vt 0.778790 0.925573
vt 0.778019 0.909531
vt 0.809731 0.905425
vt 0.810518 0.921650
vt 0.777685 0.895703
vt 0.806448 0.889236
vt 0.773539 0.877867
vt 0.806482 0.872702
vt 0.762368 0.843705
vt 0.825637 0.970884
vt 0.781652 0.949086
vt 0.812644 0.943411
vt 0.740361 0.911590
vt 0.846265 0.901405
vt 0.884527 0.662479
vt 0.900539 0.665332
vt 0.904467 0.954029
vt 0.888239 0.957079
vt 0.918515 0.665085
vt 0.922387 0.954078
vt 0.936436 0.665124
vt 0.940363 0.953839
vt 0.952661 0.662055
vt 0.956372 0.956696
vt 0.969680 0.649926
vt 0.871200 0.969179
vt 0.918375 0.646404
vt 0.922472 0.972758
vt 0.643112 0.823836
vt 0.600428 0.823550
vt 0.600702 0.877938
vt 0.644140 0.876583
vt 0.684829 0.822833
vt 0.687350 0.876223
vt 0.401148 0.823540
vt 0.724788 0.878994
vt 0.436645 0.826342
vt 0.435353 0.879917
vt 0.478751 0.826190
vt 0.479307 0.879138
vt 0.521266 0.824661
vt 0.522860 0.879244
vt 0.560686 0.823043
vt 0.561672 0.879363
vt 0.599075 0.869695
vt 0.644248 0.868880
vt 0.689523 0.867942
vt 0.730544 0.869190
vt 0.432962 0.871750
vt 0.479247 0.871442
vt 0.524245 0.870897
vt 0.561404 0.870228
vt 0.598157 0.857129
vt 0.644092 0.856458
vt 0.690632 0.855848
vt 0.733349 0.855177
vt 0.431963 0.859439
vt 0.479121 0.858817
vt 0.524373 0.858157
vt 0.560912 0.857641
vt 0.598155 0.844386
vt 0.643709 0.843835
vt 0.689476 0.843530
vt 0.730659 0.841042
vt 0.433186 0.847274
vt 0.479078 0.846392
vt 0.523567 0.845669
vt 0.560492 0.845127
vt 0.599542 0.836088
vt 0.643379 0.836141
vt 0.687043 0.835292
vt 0.724594 0.831454
vt 0.435334 0.839060
vt 0.478926 0.838693
vt 0.521955 0.837374
vt 0.560482 0.835991
vt 0.628471 0.956741
vt 0.671080 0.957850
vt 0.671528 0.971218
vt 0.628135 0.969132
vt 0.585563 0.956087
vt 0.584992 0.968927
vt 0.546503 0.955640
vt 0.546602 0.969012
vt 0.507073 0.954432
vt 0.507647 0.967034
vt 0.463886 0.953229
vt 0.463568 0.965417
vt 0.421497 0.952520
vt 0.419998 0.965694
vt 0.706362 0.957991
vt 0.382766 0.962269
vt 0.675559 0.911036
vt 0.629634 0.911815
vt 0.585887 0.909589
vt 0.547809 0.907048
vt 0.509093 0.908038
vt 0.464444 0.908138
vt 0.418720 0.905242
vt 0.376248 0.904667
vt 0.676004 0.923523
vt 0.629193 0.924208
vt 0.584366 0.922068
vt 0.547353 0.919940
vt 0.509669 0.920760
vt 0.464193 0.920740
vt 0.418127 0.917904
vt 0.374619 0.917812
vt 0.674852 0.936205
vt 0.628887 0.936815
vt 0.584000 0.934938
vt 0.546804 0.932911
vt 0.509048 0.933391
vt 0.463985 0.933130
vt 0.419148 0.930428
vt 0.377988 0.930583
vt 0.672605 0.944708
vt 0.628797 0.944487
vt 0.585168 0.943421
vt 0.546464 0.942398
vt 0.507502 0.941684
vt 0.463995 0.940795
vt 0.421030 0.939105
vt 0.383545 0.939530
vt 0.206057 0.022980
vt 0.289258 0.020743
vt 0.124640 0.028347
vt 0.698180 0.046889
vt 0.621433 0.034042
vt 0.540327 0.027319
vt 0.457220 0.023085
vt 0.373249 0.020859
vt 0.200705 0.289537
vt 0.283718 0.288825
vt 0.115222 0.292692
vt 0.026223 0.303525
vt 0.615557 0.309270
vt 0.530216 0.299761
vt 0.447381 0.293646
vt 0.365585 0.290125
vt 0.052457 0.048851
vt 0.046855 0.040281
vt 0.714008 0.312051
vt 0.704326 0.326617
vt 0.710673 0.946768
vt 0.386677 0.951129
vt 0.716776 0.938257
vt 0.720197 0.925585
vt 0.376863 0.970864
vt 0.714950 0.978202
vt 0.718450 0.912547
vt 0.709251 0.969464
vt 0.673504 0.979873
vt 0.417641 0.974371
vt 0.463143 0.972969
vt 0.508793 0.975365
vt 0.546506 0.978610
vt 0.583489 0.977301
vt 0.627959 0.976689
vt 0.257623 0.965303
vt 0.251049 0.626040
vt 0.214099 0.618347
vt 0.211352 0.971784
vt 0.266168 0.969551
vt 0.221130 0.973208
vt 0.230941 0.970637
vt 0.239843 0.965954
vt 0.213747 0.708377
vt 0.213681 0.664857
vt 0.213396 0.751309
vt 0.212826 0.794201
vt 0.212126 0.837126
vt 0.211271 0.880223
vt 0.210407 0.924341
vt 0.397368 0.836474
vt 0.402276 0.896203
vt 0.720905 0.892015
vt 0.719765 0.818862
vt 0.391459 0.846127
vt 0.388467 0.860132
vt 0.391140 0.874110
vt 0.397336 0.883561
vt 0.561513 0.892243
vt 0.601233 0.890623
vt 0.522110 0.891745
vt 0.479689 0.891440
vt 0.437669 0.892400
vt 0.685833 0.888982
vt 0.643997 0.889094
vt 0.812174 0.843360
vt 0.774109 0.972251
vt 0.972553 0.967888
vt 0.868305 0.651345
vt 0.788386 0.649413
vt 0.359978 0.735888
vt 0.421553 0.798719
vt 0.513375 0.810981
vt 0.870472 0.583370
vt 0.870385 0.622023
vt 0.779920 0.621820
vt 0.780007 0.583166
vt 0.898527 0.583433
vt 0.898440 0.622087
vt 0.761210 0.606716
vt 0.761229 0.598186
vt 0.919468 0.599368
vt 0.919453 0.606247
vn 0.698821 -0.152632 -0.698822
vn -0.000000 -0.152632 -0.988283
vn 0.000000 -0.123888 -0.992296
vn 0.701659 -0.123888 -0.701659
vn -0.698822 -0.152632 -0.698821
vn -0.701659 -0.123888 -0.701659
vn -0.988283 -0.152632 -0.000000
vn -0.992296 -0.123888 -0.000000
vn -0.698822 -0.152632 0.698821
vn -0.701660 -0.123888 0.701659
vn -0.000000 -0.152632 0.988283
vn 0.000000 -0.123888 0.992296
vn 0.698821 -0.152632 0.698822
vn 0.701660 -0.123888 0.701659
vn 0.988283 -0.152632 0.000000
vn 0.992296 -0.123888 0.000000
vn -0.000000 -0.957767 -0.287546
vn 0.203326 -0.957767 -0.203326
vn 0.000000 -1.000000 -0.000000
vn -0.203326 -0.957767 -0.203325
vn -0.287546 -0.957767 -0.000000
vn -0.203326 -0.957767 0.203325
vn -0.000000 -0.957767 0.287546
vn 0.203326 -0.957767 0.203325
vn 0.287546 -0.957767 0.000000
vn 0.624074 0.734685 -0.266025
vn 0.000000 0.805597 -0.592464
vn 0.000000 1.000000 0.000000
vn -0.624080 0.734681 -0.266025
vn -0.717685 0.696368 0.000000
vn -0.624080 0.734681 0.266025
vn 0.000000 0.805598 0.592463
vn 0.624074 0.734685 0.266024
vn 0.717680 0.696374 0.000000
vn -0.000000 -0.092308 -0.995731
vn 0.704087 -0.092301 -0.704089
vn -0.704088 -0.092313 -0.704087
vn -0.995730 -0.092319 -0.000000
vn -0.704088 -0.092313 0.704086
vn 0.000000 -0.092308 0.995731
vn 0.704088 -0.092301 0.704089
vn 0.995732 -0.092296 -0.000000
vn -0.000000 -0.523916 -0.851770
vn 0.602292 -0.523917 -0.602292
vn -0.602290 -0.523916 -0.602294
vn -0.851769 -0.523917 -0.000000
vn -0.602290 -0.523917 0.602294
vn 0.000000 -0.523916 0.851770
vn 0.602292 -0.523917 0.602292
vn 0.851770 -0.523917 -0.000000
vn 0.616567 0.489582 -0.616567
vn -0.000000 0.489585 -0.871956
vn -0.000000 0.879165 -0.476517
vn 0.336949 0.879165 -0.336949
vn -0.616567 0.489587 -0.616563
vn -0.336947 0.879166 -0.336948
vn -0.871953 0.489589 -0.000000
vn -0.476516 0.879166 0.000000
vn -0.616567 0.489587 0.616563
vn -0.336947 0.879166 0.336949
vn -0.000000 0.489585 0.871956
vn -0.000000 0.879165 0.476517
vn 0.616567 0.489582 0.616567
vn 0.336949 0.879165 0.336949
vn 0.871958 0.489580 -0.000000
vn 0.476518 0.879165 -0.000000
vn 0.000000 0.897971 -0.440054
vn 0.311164 0.897972 -0.311165
vn -0.311166 0.897971 -0.311166
vn -0.440055 0.897971 0.000000
vn -0.311166 0.897971 0.311166
vn -0.000000 0.897971 0.440054
vn 0.311164 0.897972 0.311165
vn 0.440051 0.897973 -0.000000
vn 0.000000 0.490638 -0.871363
vn 0.616147 0.490638 -0.616148
vn -0.616147 0.490639 -0.616146
vn -0.871363 0.490639 0.000000
vn -0.616147 0.490639 0.616146
vn 0.000000 0.490638 0.871363
vn 0.616147 0.490638 0.616148
vn 0.871364 0.490638 0.000000
vn -0.000000 0.937387 -0.348289
vn 0.246279 0.937387 -0.246278
vn -0.246278 0.937388 -0.246276
vn -0.348287 0.937388 0.000000
vn -0.246278 0.937388 0.246276
vn -0.000000 0.937387 0.348289
vn 0.246279 0.937387 0.246278
vn 0.348290 0.937387 -0.000000
vn -0.478725 0.735965 0.478726
vn 0.000000 0.735962 0.677022
vn 0.478727 0.735963 0.478727
vn 0.677022 0.735963 0.000000
vn 0.478727 0.735962 -0.478728
vn -0.000000 0.735962 -0.677023
vn -0.478725 0.735964 -0.478726
vn -0.677018 0.735967 0.000000
vn 0.679933 0.274557 -0.679933
vn -0.000000 0.274560 -0.961570
vn -0.679932 0.274563 -0.679932
vn -0.961569 0.274565 0.000000
vn -0.679931 0.274563 0.679933
vn 0.000000 0.274560 0.961570
vn 0.679933 0.274557 0.679933
vn 0.961572 0.274554 0.000000
vn 0.612790 -0.498974 -0.612792
vn 0.000000 -0.498973 -0.866617
vn -0.612791 -0.498973 -0.612791
vn -0.866618 -0.498973 0.000000
vn -0.612791 -0.498973 0.612792
vn 0.000000 -0.498973 0.866618
vn 0.612790 -0.498974 0.612792
vn 0.866617 -0.498974 0.000000
vn 0.000000 0.678003 -0.735059
vn 0.611683 0.706381 -0.356188
vn -0.611684 0.706380 -0.356188
vn -0.675954 0.736944 -0.000000
vn -0.611685 0.706380 0.356187
vn 0.000000 0.678003 0.735059
vn 0.611683 0.706381 0.356188
vn 0.675947 0.736950 -0.000000
vn 0.000001 -0.205027 -0.978756
vn 0.804132 -0.039146 -0.593161
vn -0.804130 -0.039146 -0.593163
vn -0.992435 0.122774 -0.000000
vn -0.804130 -0.039146 0.593163
vn 0.000001 -0.205028 0.978756
vn 0.804131 -0.039146 0.593161
vn 0.992435 0.122775 -0.000000
vn -0.998670 0.038911 0.033825
vn -0.734071 -0.678950 0.012900
vn -0.307428 -0.240257 -0.920741
vn -0.407164 0.030329 -0.912852
vn -0.678264 0.733987 0.034940
vn -0.286399 0.292323 -0.912427
vn 0.039459 0.999100 0.015589
vn -0.015870 0.392250 -0.919722
vn 0.734068 0.678953 -0.012893
vn 0.245949 0.271579 -0.930459
vn 0.998670 -0.038917 -0.033827
vn 0.345685 0.000995 -0.938350
vn 0.678257 -0.733994 -0.034946
vn 0.224914 -0.260994 -0.938773
vn -0.039469 -0.999099 -0.015586
vn -0.045611 -0.360928 -0.931478
vn 0.429626 0.434697 -0.791492
vn 0.593869 -0.010893 -0.804488
vn 0.394990 -0.442338 -0.805183
vn -0.050518 -0.606902 -0.793169
vn -0.481672 -0.408184 -0.775485
vn -0.645917 0.037411 -0.762490
vn -0.447036 0.468858 -0.761795
vn -0.001533 0.633419 -0.773808
vn 0.734062 0.678960 -0.012906
vn 0.998669 -0.038916 -0.033845
vn 0.678259 -0.733991 -0.034954
vn -0.039448 -0.999100 -0.015599
vn -0.734067 -0.678954 0.012893
vn -0.998670 0.038911 0.033835
vn -0.678267 0.733983 0.034951
vn 0.039457 0.999100 0.015592
vn 0.481678 0.408183 0.775482
vn 0.645918 -0.037410 0.762490
vn 0.447035 -0.468850 0.761800
vn 0.001523 -0.633416 0.773810
vn -0.429627 -0.434698 0.791491
vn -0.593871 0.010899 0.804487
vn -0.394989 0.442345 0.805180
vn 0.050518 0.606906 0.793166
vn -0.245943 -0.271571 0.930463
vn -0.345677 -0.000994 0.938353
vn -0.224913 0.260995 0.938774
vn 0.045614 0.360925 0.931479
vn 0.307433 0.240257 0.920740
vn 0.407171 -0.030330 0.912848
vn 0.286401 -0.292321 0.912427
vn 0.015873 -0.392245 0.919724
vn -0.266371 -0.036738 0.963170
vn 0.266371 -0.036738 0.963170
vn 0.238491 0.000000 0.971145
vn -0.238491 0.000000 0.971145
vn -0.248095 0.302953 0.920146
vn 0.248095 0.302952 0.920146
vn 0.248095 0.302952 -0.920146
vn -0.248095 0.302953 -0.920146
vn -0.238491 0.000000 -0.971145
vn 0.238491 0.000000 -0.971145
vn 0.266371 -0.036738 -0.963170
vn -0.266371 -0.036738 -0.963170
vn -0.256227 -0.322504 -0.911229
vn 0.256227 -0.322504 -0.911229
vn 0.256227 -0.322504 0.911229
vn -0.256227 -0.322504 0.911229
vn 0.304775 0.100498 0.947107
vn -0.304775 0.100499 0.947107
vn 0.304775 0.100498 -0.947107
vn -0.304775 0.100499 -0.947107
vn 0.398407 -0.826530 0.397644
vn -0.398406 -0.826530 0.397645
vn -0.398405 -0.831924 -0.386232
vn 0.398407 -0.831924 -0.386231
vn -0.916772 0.002749 0.399401
vn -0.916772 -0.002749 -0.399401
vn -0.398406 0.831924 0.386232
vn -0.398406 0.826530 -0.397645
vn 0.398407 0.831924 0.386230
vn 0.398407 0.826530 -0.397644
vn 0.916773 0.002749 0.399400
vn 0.916772 -0.002749 -0.399400
vn 0.000000 0.006882 0.999976
vn 0.000000 -0.006882 -0.999976
vn 0.563525 0.825801 -0.022180
vn -0.563525 0.825801 -0.022180
vn -0.563525 0.825801 0.022180
vn 0.563525 0.825801 0.022180
vn -0.999765 -0.000000 -0.021692
vn -0.999765 -0.000000 0.021692
vn -0.563531 -0.825797 -0.022180
vn -0.563531 -0.825797 0.022180
vn 0.563531 -0.825797 -0.022180
vn 0.563531 -0.825797 0.022180
vn 0.999765 0.000000 -0.021692
vn 0.999765 0.000000 0.021692
vn 0.000000 0.000000 -1.000000
vn 0.000000 0.000000 1.000000
vn 0.018802 0.031044 0.999341
vn 0.007510 -0.593453 0.804834
vn -0.832720 -0.303722 0.462959
vn -0.790390 0.037946 0.611428
vn 0.021460 0.653128 0.756943
vn -0.827038 0.365966 0.426705
vn 0.010897 0.998721 -0.049380
vn -0.872897 0.486939 0.030681
vn -0.007506 0.593457 -0.804831
vn -0.856094 0.354832 -0.375762
vn -0.018807 -0.031045 -0.999341
vn -0.838036 0.000265 -0.545615
vn -0.021456 -0.653124 -0.756947
vn -0.873643 -0.342914 -0.345194
vn -0.010903 -0.998720 0.049386
vn -0.889303 -0.451188 0.074625
vn -0.664674 0.466068 -0.583943
vn -0.662132 -0.010974 -0.749307
vn -0.683396 -0.484056 -0.546497
vn -0.686553 -0.723966 0.067212
vn -0.636985 -0.434766 0.636576
vn -0.606513 0.036471 0.794237
vn -0.625052 0.503007 0.596904
vn -0.663078 0.748527 -0.005945
vn -0.009873 0.617015 -0.786890
vn -0.023008 -0.032938 -0.999193
vn -0.026249 -0.675870 -0.736554
vn -0.012623 -0.998839 0.046496
vn 0.009870 -0.617014 0.786890
vn 0.023008 0.032937 0.999193
vn 0.026253 0.675871 0.736552
vn 0.012625 0.998839 -0.046498
vn 0.636981 0.434766 -0.636579
vn 0.606506 -0.036471 -0.794242
vn 0.625042 -0.503014 -0.596908
vn 0.663068 -0.748535 0.005943
vn 0.664668 -0.466074 0.583945
vn 0.662132 0.010977 0.749307
vn 0.683396 0.484054 0.546499
vn 0.686549 0.723971 -0.067212
vn 0.856087 -0.354838 0.375773
vn 0.838034 -0.000267 0.545618
vn 0.873641 0.342919 0.345191
vn 0.889302 0.451192 -0.074621
vn 0.832725 0.303728 -0.462945
vn 0.790393 -0.037941 -0.611424
vn 0.827037 -0.365968 -0.426706
vn 0.872893 -0.486946 -0.030677
vn -0.999341 0.031047 0.018813
vn -0.804843 -0.593441 0.007504
vn -0.462950 -0.303729 -0.832722
vn -0.611420 0.037940 -0.790396
vn -0.756945 0.653127 0.021463
vn -0.426708 0.365968 -0.827035
vn 0.049384 0.998720 0.010897
vn -0.030685 0.486938 -0.872898
vn 0.804835 0.593451 -0.007518
vn 0.375757 0.354830 -0.856097
vn 0.999341 -0.031045 -0.018823
vn 0.545602 0.000264 -0.838044
vn 0.756941 -0.653131 -0.021457
vn 0.345192 -0.342918 -0.873642
vn -0.049397 -0.998720 -0.010899
vn -0.074623 -0.451196 -0.889299
vn 0.583945 0.466072 -0.664669
vn 0.749305 -0.010974 -0.662135
vn 0.546497 -0.484053 -0.683399
vn -0.067204 -0.723966 -0.686554
vn -0.636576 -0.434769 -0.636983
vn -0.794244 0.036469 -0.606504
vn -0.596905 0.503011 -0.625047
vn 0.005945 0.748528 -0.663077
vn 0.786883 0.617023 -0.009885
vn 0.999192 -0.032942 -0.023012
vn 0.736553 -0.675871 -0.026246
vn -0.046507 -0.998838 -0.012617
vn -0.786894 -0.617009 0.009878
vn -0.999192 0.032941 0.023014
vn -0.736555 0.675868 0.026251
vn 0.046492 0.998839 0.012616
vn 0.636583 0.434763 0.636980
vn 0.794239 -0.036471 0.606510
vn 0.596903 -0.503008 0.625053
vn -0.005943 -0.748526 0.663079
vn -0.583937 -0.466072 0.664676
vn -0.749304 0.010971 0.662135
vn -0.546500 0.484057 0.683394
vn 0.067214 0.723971 0.686548
vn -0.375757 -0.354832 0.856097
vn -0.545601 -0.000271 0.838045
vn -0.345196 0.342919 0.873640
vn 0.074628 0.451197 0.889299
vn 0.462950 0.303727 0.832723
vn 0.611426 -0.037941 0.790392
vn 0.426703 -0.365961 0.827041
vn 0.030687 -0.486936 0.872898
s 1
g pCylinder32
usemtl standardSurface1SG
f 1/1/1 2/2/2 10/3/3 9/4/4
f 2/2/2 3/5/5 11/6/6 10/3/3
f 3/5/5 4/7/7 12/8/8 11/6/6
f 4/7/7 5/9/9 13/10/10 12/8/8
f 5/9/9 6/11/11 14/337/12 13/10/10
f 6/335/11 7/13/13 15/14/14 14/12/12
f 7/13/13 8/15/15 16/16/16 15/14/14
f 8/15/15 1/1/1 9/4/4 16/16/16
f 98/17/17 97/18/18 99/19/19
f 100/20/20 98/17/17 99/19/19
f 101/21/21 100/20/20 99/19/19
f 102/22/22 101/21/21 99/19/19
f 103/23/23 102/22/22 99/19/19
f 104/24/24 103/23/23 99/19/19
f 105/25/25 104/24/24 99/19/19
f 97/18/18 105/25/25 99/19/19
f 122/26/26 123/27/27 124/28/28
f 123/27/27 125/29/29 124/28/28
f 125/29/29 126/30/30 124/28/28
f 126/30/30 127/31/31 124/28/28
f 127/31/31 128/32/32 124/28/28
f 128/32/32 129/33/33 124/28/28
f 129/33/33 130/34/34 124/28/28
f 130/34/34 122/26/26 124/28/28
f 9/4/4 10/3/3 18/334/35 17/328/36
f 10/3/3 11/6/6 19/333/37 18/334/35
f 11/6/6 12/8/8 20/332/38 19/333/37
f 12/8/8 13/10/10 21/331/39 20/332/38
f 13/10/10 14/337/12 22/338/40 21/331/39
f 14/12/12 15/14/14 23/329/41 22/330/40
f 15/14/14 16/16/16 24/327/42 23/329/41
f 16/16/16 9/4/4 17/328/36 24/327/42
f 17/36/36 18/35/35 64/43/43 57/44/44
f 18/35/35 19/37/37 63/45/45 64/43/43
f 19/37/37 20/38/38 62/46/46 63/45/45
f 20/38/38 21/39/39 61/47/47 62/46/46
f 21/39/39 22/40/40 60/48/48 61/47/47
f 22/40/40 23/41/41 59/49/49 60/48/48
f 23/41/41 24/42/42 58/50/50 59/49/49
f 24/42/42 17/36/36 57/44/44 58/50/50
f 25/51/51 26/52/52 34/53/53 33/54/54
f 26/52/52 27/55/55 35/56/56 34/53/53
f 27/55/55 28/57/57 36/58/58 35/56/56
f 28/57/57 29/59/59 37/60/60 36/58/58
f 29/59/59 30/61/61 38/62/62 37/60/60
f 30/61/61 31/63/63 39/64/64 38/62/62
f 31/63/63 32/65/65 40/66/66 39/64/64
f 32/65/65 25/51/51 33/54/54 40/66/66
f 33/54/54 34/53/53 42/67/67 41/68/68
f 34/53/53 35/56/56 43/69/69 42/67/67
f 35/56/56 36/58/58 44/70/70 43/69/69
f 36/58/58 37/60/60 45/71/71 44/70/70
f 37/60/60 38/62/62 46/72/72 45/71/71
f 38/62/62 39/64/64 47/73/73 46/72/72
f 39/64/64 40/66/66 48/74/74 47/73/73
f 40/66/66 33/54/54 41/68/68 48/74/74
f 41/68/68 42/67/67 50/75/75 49/76/76
f 42/67/67 43/69/69 51/77/77 50/75/75
f 43/69/69 44/70/70 52/78/78 51/77/77
f 44/70/70 45/71/71 53/79/79 52/78/78
f 45/71/71 46/72/72 54/80/80 53/79/79
f 46/72/72 47/73/73 55/81/81 54/80/80
f 47/73/73 48/74/74 56/82/82 55/81/81
f 48/74/74 41/68/68 49/76/76 56/82/82
f 58/50/50 57/44/44 25/51/51 32/65/65
f 59/49/49 58/50/50 32/65/65 31/63/63
f 60/48/48 59/49/49 31/63/63 30/61/61
f 61/47/47 60/48/48 30/61/61 29/59/59
f 62/46/46 61/47/47 29/59/59 28/57/57
f 63/45/45 62/46/46 28/57/57 27/55/55
f 64/43/43 63/45/45 27/55/55 26/52/52
f 57/44/44 64/43/43 26/52/52 25/51/51
f 49/76/76 50/75/75 66/83/83 65/84/84
f 50/75/75 51/77/77 67/85/85 66/83/83
f 51/77/77 52/78/78 68/86/86 67/85/85
f 52/78/78 53/79/79 69/87/87 68/86/86
f 53/79/79 54/80/80 70/88/88 69/87/87
f 54/80/80 55/81/81 71/89/89 70/88/88
f 55/81/81 56/82/82 72/90/90 71/89/89
f 56/82/82 49/76/76 65/84/84 72/90/90
f 2/2/2 1/1/1 73/320/91 74/326/92
f 3/5/5 2/2/2 74/326/92 75/325/93
f 4/7/7 3/5/5 75/325/93 76/324/94
f 5/9/9 4/7/7 76/324/94 77/323/95
f 6/11/11 5/9/9 77/323/95 78/322/96
f 7/13/13 6/335/11 78/336/96 79/321/97
f 8/15/15 7/13/13 79/321/97 80/319/98
f 1/1/1 8/15/15 80/319/98 73/320/91
f 74/92/92 73/91/91 81/99/99 82/100/100
f 75/93/93 74/92/92 82/100/100 83/101/101
f 76/94/94 75/93/93 83/101/101 84/102/102
f 77/95/95 76/94/94 84/102/102 85/103/103
f 78/96/96 77/95/95 85/103/103 86/104/104
f 79/97/97 78/96/96 86/104/104 87/105/105
f 80/98/98 79/97/97 87/105/105 88/106/106
f 73/91/91 80/98/98 88/106/106 81/99/99
f 82/100/100 81/99/99 89/107/107 90/108/108
f 83/101/101 82/100/100 90/108/108 91/109/109
f 84/102/102 83/101/101 91/109/109 92/110/110
f 85/103/103 84/102/102 92/110/110 93/111/111
f 86/104/104 85/103/103 93/111/111 94/112/112
f 87/105/105 86/104/104 94/112/112 95/113/113
f 88/106/106 87/105/105 95/113/113 96/114/114
f 81/99/99 88/106/106 96/114/114 89/107/107
f 90/108/108 89/107/107 97/18/18 98/17/17
f 91/109/109 90/108/108 98/17/17 100/20/20
f 92/110/110 91/109/109 100/20/20 101/21/21
f 93/111/111 92/110/110 101/21/21 102/22/22
f 94/112/112 93/111/111 102/22/22 103/23/23
f 95/113/113 94/112/112 103/23/23 104/24/24
f 96/114/114 95/113/113 104/24/24 105/25/25
f 89/107/107 96/114/114 105/25/25 97/18/18
f 65/84/84 66/83/83 107/115/115 106/116/116
f 66/83/83 67/85/85 108/117/117 107/115/115
f 67/85/85 68/86/86 109/118/118 108/117/117
f 68/86/86 69/87/87 110/119/119 109/118/118
f 69/87/87 70/88/88 111/120/120 110/119/119
f 70/88/88 71/89/89 112/121/121 111/120/120
f 71/89/89 72/90/90 113/122/122 112/121/121
f 72/90/90 65/84/84 106/116/116 113/122/122
f 106/116/116 107/115/115 115/123/123 114/124/124
f 107/115/115 108/117/117 116/125/125 115/123/123
f 108/117/117 109/118/118 117/126/126 116/125/125
f 109/118/118 110/119/119 118/127/127 117/126/126
f 110/119/119 111/120/120 119/128/128 118/127/127
f 111/120/120 112/121/121 120/129/129 119/128/128
f 112/121/121 113/122/122 121/130/130 120/129/129
f 113/122/122 106/116/116 114/124/124 121/130/130
f 114/124/124 115/123/123 123/27/27 122/26/26
f 115/123/123 116/125/125 125/29/29 123/27/27
f 116/125/125 117/126/126 126/30/30 125/29/29
f 117/126/126 118/127/127 127/31/31 126/30/30
f 118/127/127 119/128/128 128/32/32 127/31/31
f 119/128/128 120/129/129 129/33/33 128/32/32
f 120/129/129 121/130/130 130/34/34 129/33/33
f 121/130/130 114/124/124 122/26/26 130/34/34
s 4
f 132/355/131 131/132/132 139/133/133 140/134/134
f 133/135/135 132/131/131 140/361/134 141/136/136
f 134/137/137 133/135/135 141/136/136 142/138/138
f 135/139/139 134/137/137 142/138/138 143/140/140
f 136/141/141 135/139/139 143/140/140 144/142/142
f 137/143/143 136/141/141 144/142/142 145/144/144
f 138/145/145 137/143/143 145/144/144 146/146/146
f 131/132/132 138/145/145 146/146/146 139/133/133
f 140/134/134 139/133/133 147/147/147 148/148/148
f 141/136/136 140/361/134 148/360/148 149/149/149
f 142/138/138 141/136/136 149/149/149 150/150/150
f 143/140/140 142/138/138 150/150/150 151/151/151
f 144/142/142 143/140/140 151/151/151 152/152/152
f 145/144/144 144/142/142 152/152/152 153/153/153
f 146/146/146 145/144/144 153/153/153 154/154/154
f 139/133/133 146/146/146 154/154/154 147/147/147
f 148/148/148 147/147/147 155/155/155 156/156/156
f 149/149/149 148/360/148 156/359/156 157/157/157
f 150/150/150 149/149/149 157/157/157 158/158/158
f 151/151/151 150/150/150 158/158/158 159/159/159
f 152/152/152 151/151/151 159/159/159 160/160/160
f 153/153/153 152/152/152 160/160/160 161/161/161
f 154/154/154 153/153/153 161/161/161 162/162/162
f 147/147/147 154/154/154 162/162/162 155/155/155
f 156/156/156 155/155/155 163/363/163 164/356/164
f 157/157/157 156/359/156 164/357/164 165/368/165
f 158/158/158 157/157/157 165/368/165 166/367/166
f 159/159/159 158/158/158 166/367/166 167/366/167
f 160/160/160 159/159/159 167/366/167 168/365/168
f 161/161/161 160/160/160 168/365/168 169/364/169
f 162/162/162 161/161/161 169/364/169 170/362/170
f 155/155/155 162/162/162 170/362/170 163/363/163
f 164/164/164 163/163/163 171/171/171 172/172/172
f 165/165/165 164/358/164 172/354/172 173/173/173
f 166/166/166 165/165/165 173/173/173 174/174/174
f 167/167/167 166/166/166 174/174/174 175/175/175
f 168/168/168 167/167/167 175/175/175 176/176/176
f 169/169/169 168/168/168 176/176/176 177/177/177
f 170/170/170 169/169/169 177/177/177 178/178/178
f 163/163/163 170/170/170 178/178/178 171/171/171
f 172/172/172 171/171/171 131/132/132 132/355/131
f 173/173/173 172/354/172 132/131/131 133/135/135
f 174/174/174 173/173/173 133/135/135 134/137/137
f 175/175/175 174/174/174 134/137/137 135/139/139
f 176/176/176 175/175/175 135/139/139 136/141/141
f 177/177/177 176/176/176 136/141/141 137/143/143
f 178/178/178 177/177/177 137/143/143 138/145/145
f 171/171/171 178/178/178 138/145/145 131/132/132
s 5
f 179/179/179 180/180/180 182/181/181 181/182/182
f 191/183/183 192/184/184 193/389/185 194/185/186
f 183/392/187 184/393/188 186/394/189 185/395/190
f 195/188/191 196/189/192 197/190/193 198/191/194
f 180/180/180 186/187/189 184/391/188 182/181/181
f 185/388/190 179/179/179 181/182/182 183/186/187
f 181/182/182 182/181/181 188/192/195 187/193/196
f 182/181/181 184/391/188 189/390/197 188/192/195
f 184/393/188 183/392/187 190/396/198 189/397/197
f 183/186/187 181/182/182 187/193/196 190/194/198
f 189/397/197 190/396/198 194/400/186 193/401/185
f 190/194/198 187/193/196 191/183/183 194/185/186
f 188/192/195 192/184/184 191/183/183 187/193/196
f 189/390/197 193/389/185 192/184/184 188/192/195
f 180/180/180 179/179/179 198/191/194 197/190/193
f 179/179/179 185/388/190 195/188/191 198/191/194
f 186/394/189 196/398/192 195/399/191 185/395/190
f 180/180/180 197/190/193 196/189/192 186/187/189
s 8
f 199/195/199 200/196/200 206/197/201 205/198/202
f 200/196/200 201/199/203 207/200/204 206/197/201
f 201/199/203 202/201/205 208/202/206 207/200/204
f 202/201/205 203/203/207 209/384/208 208/202/206
f 203/385/207 204/205/209 210/206/210 209/204/208
f 204/205/209 199/195/199 205/198/202 210/206/210
f 200/196/200 199/195/199 211/207/211
f 201/199/203 200/196/200 211/207/211
f 202/201/205 201/199/203 211/207/211
f 203/203/207 202/201/205 211/207/211
f 204/205/209 203/385/207 211/207/211
f 199/195/199 204/205/209 211/207/211
f 205/198/202 206/197/201 212/208/212
f 206/197/201 207/200/204 212/208/212
f 207/200/204 208/202/206 212/208/212
f 208/202/206 209/384/208 212/208/212
f 209/204/208 210/206/210 212/208/212
f 210/206/210 205/198/202 212/208/212
s 9
f 213/209/213 214/210/214 220/211/215 219/212/216
f 214/210/214 215/213/217 221/214/218 220/211/215
f 215/213/217 216/215/219 222/216/220 221/214/218
f 216/215/219 217/217/221 223/218/222 222/216/220
f 217/217/221 218/219/223 224/386/224 223/218/222
f 218/387/223 213/209/213 219/212/216 224/220/224
f 214/210/214 213/209/213 225/221/225
f 215/213/217 214/210/214 225/221/225
f 216/215/219 215/213/217 225/221/225
f 217/217/221 216/215/219 225/221/225
f 218/219/223 217/217/221 225/221/225
f 213/209/213 218/387/223 225/221/225
f 219/212/216 220/211/215 226/222/226
f 220/211/215 221/214/218 226/222/226
f 221/214/218 222/216/220 226/222/226
f 222/216/220 223/218/222 226/222/226
f 223/218/222 224/386/224 226/222/226
f 224/220/224 219/212/216 226/222/226
s 10
f 228/383/227 227/378/228 235/225/229 236/226/230
f 229/382/231 228/383/227 236/226/230 237/228/232
f 230/371/233 229/382/231 237/228/232 238/230/234
f 231/381/235 230/370/233 238/376/234 239/232/236
f 232/380/237 231/381/235 239/232/236 240/234/238
f 233/379/239 232/380/237 240/234/238 241/236/240
f 234/377/241 233/379/239 241/236/240 242/238/242
f 227/378/228 234/377/241 242/238/242 235/225/229
f 236/226/230 235/225/229 243/239/243 244/240/244
f 237/228/232 236/226/230 244/240/244 245/241/245
f 238/230/234 237/228/232 245/241/245 246/242/246
f 239/232/236 238/376/234 246/375/246 247/243/247
f 240/234/238 239/232/236 247/243/247 248/244/248
f 241/236/240 240/234/238 248/244/248 249/245/249
f 242/238/242 241/236/240 249/245/249 250/246/250
f 235/225/229 242/238/242 250/246/250 243/239/243
f 244/240/244 243/239/243 251/247/251 252/248/252
f 245/241/245 244/240/244 252/248/252 253/249/253
f 246/242/246 245/241/245 253/249/253 254/250/254
f 247/243/247 246/375/246 254/374/254 255/251/255
f 248/244/248 247/243/247 255/251/255 256/252/256
f 249/245/249 248/244/248 256/252/256 257/253/257
f 250/246/250 249/245/249 257/253/257 258/254/258
f 243/239/243 250/246/250 258/254/258 251/247/251
f 252/248/252 251/247/251 259/255/259 260/256/260
f 253/249/253 252/248/252 260/256/260 261/257/261
f 254/250/254 253/249/253 261/257/261 262/258/262
f 255/251/255 254/374/254 262/373/262 263/259/263
f 256/252/256 255/251/255 263/259/263 264/260/264
f 257/253/257 256/252/256 264/260/264 265/261/265
f 258/254/258 257/253/257 265/261/265 266/262/266
f 251/247/251 258/254/258 266/262/266 259/255/259
f 260/256/260 259/255/259 267/263/267 268/264/268
f 261/257/261 260/256/260 268/264/268 269/265/269
f 262/258/262 261/257/261 269/265/269 270/266/270
f 263/259/263 262/373/262 270/369/270 271/267/271
f 264/260/264 263/259/263 271/267/271 272/268/272
f 265/261/265 264/260/264 272/268/272 273/269/273
f 266/262/266 265/261/265 273/269/273 274/270/274
f 259/255/259 266/262/266 274/270/274 267/263/267
f 268/264/268 267/263/267 227/224/228 228/223/227
f 269/265/269 268/264/268 228/223/227 229/227/231
f 270/266/270 269/265/269 229/227/231 230/372/233
f 271/267/271 270/369/270 230/229/233 231/231/235
f 272/268/272 271/267/271 231/231/235 232/233/237
f 273/269/273 272/268/272 232/233/237 233/235/239
f 274/270/274 273/269/273 233/235/239 234/237/241
f 267/263/267 274/270/274 234/237/241 227/224/228
s 11
f 276/271/275 275/272/276 283/273/277 284/274/278
f 277/275/279 276/271/275 284/274/278 285/276/280
f 278/277/281 277/275/279 285/276/280 286/278/282
f 279/279/283 278/277/281 286/278/282 287/280/284
f 280/281/285 279/279/283 287/280/284 288/282/286
f 281/283/287 280/281/285 288/282/286 289/284/288
f 282/340/289 281/283/287 289/284/288 290/286/290
f 275/272/276 282/285/289 290/346/290 283/273/277
f 284/274/278 283/273/277 291/347/291 292/353/292
f 285/276/280 284/274/278 292/353/292 293/352/293
f 286/278/282 285/276/280 293/352/293 294/351/294
f 287/280/284 286/278/282 294/351/294 295/350/295
f 288/282/286 287/280/284 295/350/295 296/349/296
f 289/284/288 288/282/286 296/349/296 297/348/297
f 290/286/290 289/284/288 297/348/297 298/343/298
f 283/273/277 290/346/290 298/344/298 291/347/291
f 292/288/292 291/287/291 299/295/299 300/296/300
f 293/289/293 292/288/292 300/296/300 301/297/301
f 294/290/294 293/289/293 301/297/301 302/298/302
f 295/291/295 294/290/294 302/298/302 303/299/303
f 296/292/296 295/291/295 303/299/303 304/300/304
f 297/293/297 296/292/296 304/300/304 305/301/305
f 298/294/298 297/293/297 305/301/305 306/302/306
f 291/287/291 298/345/298 306/342/306 299/295/299
f 300/296/300 299/295/299 307/303/307 308/304/308
f 301/297/301 300/296/300 308/304/308 309/305/309
f 302/298/302 301/297/301 309/305/309 310/306/310
f 303/299/303 302/298/302 310/306/310 311/307/311
f 304/300/304 303/299/303 311/307/311 312/308/312
f 305/301/305 304/300/304 312/308/312 313/309/313
f 306/302/306 305/301/305 313/309/313 314/310/314
f 299/295/299 306/342/306 314/341/314 307/303/307
f 308/304/308 307/303/307 315/311/315 316/312/316
f 309/305/309 308/304/308 316/312/316 317/313/317
f 310/306/310 309/305/309 317/313/317 318/314/318
f 311/307/311 310/306/310 318/314/318 319/315/319
f 312/308/312 311/307/311 319/315/319 320/316/320
f 313/309/313 312/308/312 320/316/320 321/317/321
f 314/310/314 313/309/313 321/317/321 322/318/322
f 307/303/307 314/341/314 322/339/322 315/311/315
f 316/312/316 315/311/315 275/272/276 276/271/275
f 317/313/317 316/312/316 276/271/275 277/275/279
f 318/314/318 317/313/317 277/275/279 278/277/281
f 319/315/319 318/314/318 278/277/281 279/279/283
f 320/316/320 319/315/319 279/279/283 280/281/285
f 321/317/321 320/316/320 280/281/285 281/283/287
f 322/318/322 321/317/321 281/283/287 282/340/289
f 315/311/315 322/339/322 282/285/289 275/272/276
