# This file uses centimeters as units for non-parametric coordinates.

mtllib Int_brush_low.mtl
g default
v -0.041941 0.025156 -0.430391
v -0.004924 0.017689 -0.430391
v 0.032093 0.025156 -0.430391
v 0.047426 0.043183 -0.430391
v 0.032093 0.061210 -0.430391
v -0.004924 0.068678 -0.430391
v -0.041941 0.061210 -0.430391
v -0.057274 0.043183 -0.430391
v -0.041941 0.025156 -0.325691
v -0.004924 0.017689 -0.325691
v 0.032093 0.025156 -0.325691
v 0.047426 0.043183 -0.325691
v 0.032093 0.061210 -0.325691
v -0.004924 0.068678 -0.325691
v -0.041941 0.061210 -0.325691
v -0.057274 0.043183 -0.325691
v -0.027173 0.032348 -0.474020
v -0.004924 0.027860 -0.474020
v -0.004924 0.043183 -0.474020
v 0.017325 0.032348 -0.474020
v 0.026541 0.043183 -0.474020
v 0.017325 0.054018 -0.474020
v -0.004924 0.058506 -0.474020
v -0.027173 0.054018 -0.474020
v -0.036388 0.043183 -0.474020
v -0.031855 0.030068 -0.135311
v -0.004924 0.024635 -0.135311
v 0.022007 0.030068 -0.135311
v 0.033163 0.043183 -0.135311
v 0.022007 0.056298 -0.135311
v -0.004924 0.061732 -0.135311
v -0.031855 0.056298 -0.135311
v -0.043011 0.043183 -0.135311
v -0.035097 0.024514 -0.029922
v -0.004924 0.019151 -0.029922
v 0.025250 0.024514 -0.029922
v 0.037748 0.026818 -0.029922
v 0.025250 0.037546 -0.029922
v -0.004924 0.030682 -0.029922
v -0.035097 0.037546 -0.029922
v -0.047595 0.026818 -0.029922
v -0.087753 0.000245 -0.016062
v -0.004924 -0.013863 -0.016062
v 0.077905 0.000245 -0.016062
v 0.112214 0.022117 -0.016062
v 0.077905 0.031185 -0.016062
v -0.004924 0.047893 -0.016062
v -0.087753 0.031185 -0.016062
v -0.122062 0.022117 -0.016062
v -0.087753 0.000245 0.498678
v -0.004924 -0.013863 0.498678
v 0.077905 0.000245 0.498678
v 0.112214 0.022117 0.498678
v 0.077905 0.031185 0.498678
v -0.004924 0.047893 0.498678
v -0.087753 0.031185 0.498678
v -0.122062 0.022117 0.498678
v -0.071169 0.006576 0.516737
v -0.004924 -0.002441 0.516737
v -0.004924 0.027825 0.516737
v 0.061321 0.006576 0.516737
v 0.088761 0.015649 0.516737
v 0.061321 0.032231 0.516737
v -0.004924 0.042847 0.516737
v -0.071169 0.032231 0.516737
v -0.098609 0.015649 0.516737
v 0.086214 0.068833 0.044013
v -0.097169 0.056327 0.025053
v 0.086214 0.092880 0.482604
v -0.097169 0.067973 0.482604
v 0.086214 0.017141 0.482604
v -0.097169 0.012918 0.482604
v 0.086214 0.015015 0.025053
v -0.097169 0.015015 0.025053
v 0.086214 0.070115 0.395418
v 0.086214 0.013796 0.395418
v -0.097169 0.013369 0.395418
v -0.097169 0.068549 0.395418
v 0.086214 0.054227 0.233364
v 0.086214 0.015015 0.233364
v -0.097169 0.015015 0.233364
v -0.097169 0.058850 0.233364
v 0.086214 0.061452 0.111204
v 0.086214 0.015015 0.111204
v -0.097169 0.015015 0.111204
v -0.097169 0.073752 0.111204
v 0.014423 0.044984 0.025053
v 0.014423 0.067274 0.111204
v 0.014423 0.101307 0.233364
v 0.014423 0.098490 0.395418
v 0.014423 0.092207 0.482604
v 0.014423 0.015458 0.482604
v 0.014423 0.017489 0.395418
v 0.014423 0.015015 0.233364
v 0.014423 0.015015 0.111204
v 0.014423 0.015015 0.025053
v -0.046307 0.080577 0.395418
v -0.046307 0.065812 0.233364
v -0.046307 0.068269 0.111204
v -0.046307 0.087717 0.025053
v -0.046307 0.015015 0.025053
v -0.046307 0.015015 0.111204
v -0.046307 0.015015 0.233364
v -0.046307 0.015015 0.395418
v -0.046307 0.013367 0.482604
v -0.046307 0.063800 0.482604
vt 0.562822 0.472578
vt 0.585869 0.451644
vt 0.399753 0.553955
vt 0.577683 0.559359
vt 0.451102 0.468177
vt 0.432119 0.557472
vt 0.464794 0.478123
vt 0.452329 0.559542
vt 0.480742 0.482551
vt 0.472535 0.561820
vt 0.506251 0.484809
vt 0.504912 0.563646
vt 0.531711 0.484761
vt 0.537372 0.562590
vt 0.547889 0.481599
vt 0.557650 0.560849
vt 0.485082 0.427031
vt 0.534555 0.443027
vt 0.508375 0.434094
vt 0.481850 0.441331
vt 0.484041 0.449211
vt 0.493530 0.450659
vt 0.507838 0.448716
vt 0.522032 0.451604
vt 0.531685 0.450806
vt 0.488198 0.970634
vt 0.444730 0.977879
vt 0.468043 0.976166
vt 0.446529 0.968136
vt 0.445189 0.964981
vt 0.453836 0.966779
vt 0.467526 0.971559
vt 0.480680 0.968122
vt 0.489000 0.967544
vt 0.424986 0.723604
vt 0.557434 0.723347
vt 0.448478 0.722232
vt 0.463479 0.721318
vt 0.478674 0.720665
vt 0.502994 0.720315
vt 0.527294 0.721164
vt 0.542468 0.722145
vt 0.495030 0.832837
vt 0.431965 0.828425
vt 0.418508 0.834876
vt 0.500399 0.840345
vt 0.441564 0.833121
vt 0.434489 0.842809
vt 0.445955 0.834772
vt 0.442105 0.843649
vt 0.455104 0.833946
vt 0.447963 0.839997
vt 0.468067 0.830403
vt 0.467912 0.835560
vt 0.480824 0.833500
vt 0.487107 0.838704
vt 0.489917 0.833948
vt 0.492794 0.841600
vt 0.428466 0.976533
vt 0.493936 0.967284
vt 0.441012 0.962860
vt 0.447709 0.961088
vt 0.453227 0.962760
vt 0.467204 0.965960
vt 0.482188 0.963947
vt 0.488162 0.963375
vt 0.212247 0.580127
vt 0.260919 0.553271
vt 0.258806 0.631767
vt 0.200413 0.626139
vt 0.220817 0.903851
vt 0.261928 0.914633
vt 0.254095 0.967547
vt 0.186552 0.945030
vt 0.162515 0.618675
vt 0.610385 0.857164
vt 0.258066 0.529820
vt 0.193183 0.543981
vt 0.343921 0.568450
vt 0.363271 0.548609
vt 0.395521 0.621068
vt 0.349343 0.631072
vt 0.155041 0.864221
vt 0.197269 0.854233
vt 0.590917 0.857162
vt 0.351437 0.857015
vt 0.395742 0.867205
vt 0.361554 0.946107
vt 0.340295 0.917916
vt 0.260849 0.849159
vt 0.157254 0.724328
vt 0.188456 0.724859
vt 0.590919 0.833800
vt 0.359737 0.726641
vt 0.394772 0.726603
vt 0.259056 0.728291
vt 0.308663 0.633700
vt 0.305239 0.572291
vt 0.316920 0.726460
vt 0.310826 0.852733
vt 0.305289 0.924981
vt 0.313421 0.961694
vt 0.610387 0.833803
vt 0.610381 0.957903
vt 0.590907 0.957874
vt 0.316820 0.523208
vt 0.590910 0.934229
vt 0.610401 0.934241
vt 0.590913 0.890287
vt 0.610382 0.890290
vt 0.574431 0.934232
vt 0.574427 0.957879
vt 0.560634 0.957879
vt 0.560632 0.934234
vt 0.574443 0.890287
vt 0.560651 0.890284
vt 0.574448 0.857160
vt 0.560656 0.857158
vt 0.574451 0.833799
vt 0.560659 0.833797
vt 0.542766 0.813476
vt 0.553576 0.813579
vt 0.528839 0.811844
vt 0.502249 0.812747
vt 0.475682 0.811383
vt 0.461733 0.812773
vt 0.450928 0.812694
vt 0.424992 0.812635
vt 0.580909 0.725066
vt 0.579519 0.813926
vt 0.608850 0.557681
vt 0.532183 0.428410
vt 0.431426 0.447804
vt 0.491906 0.977230
vt 0.507874 0.974291
vt 0.519340 0.836807
vt 0.505404 0.829089
vn -0.445568 -0.892429 -0.070985
vn 0.000000 -0.998376 -0.056964
vn 0.000000 -0.999753 0.022247
vn -0.441189 -0.896967 0.028306
vn 0.445571 -0.892428 -0.070985
vn 0.441193 -0.896966 0.028306
vn 0.994761 -0.000000 -0.102232
vn 0.998979 -0.000000 0.045171
vn 0.445573 0.892427 -0.070986
vn 0.441196 0.896964 0.028306
vn 0.000000 0.998376 -0.056964
vn -0.000000 0.999753 0.022247
vn -0.445570 0.892428 -0.070985
vn -0.441193 0.896966 0.028306
vn -0.994761 -0.000000 -0.102231
vn -0.998979 0.000000 0.045171
vn 0.000000 -0.945301 -0.326198
vn -0.375652 -0.845980 -0.378421
vn 0.000001 0.000000 -1.000000
vn 0.375656 -0.845979 -0.378421
vn 0.855543 0.000000 -0.517731
vn 0.375661 0.845976 -0.378422
vn 0.000000 0.945301 -0.326200
vn -0.375658 0.845978 -0.378422
vn -0.855543 0.000001 -0.517731
vn -0.139009 -0.664828 0.733949
vn -0.000000 -0.635970 0.771714
vn -0.000000 0.000000 1.000000
vn 0.139009 -0.664827 0.733949
vn 0.508179 -0.081745 0.857363
vn 0.173682 0.802754 0.570456
vn -0.000000 0.887809 0.460212
vn -0.173682 0.802755 0.570456
vn -0.508177 -0.081744 0.857364
vn 0.000000 -0.999982 0.006093
vn -0.393691 -0.919205 0.008331
vn 0.393695 -0.919204 0.008331
vn 0.998038 0.022477 0.058434
vn 0.372602 0.923152 0.094654
vn 0.000000 0.994947 0.100399
vn -0.372598 0.923153 0.094654
vn -0.998038 0.022477 0.058433
vn 0.000000 -0.865308 -0.501240
vn -0.239749 -0.806224 -0.540855
vn 0.239752 -0.806222 -0.540856
vn 0.661803 -0.045181 -0.748315
vn 0.242062 0.970201 -0.010737
vn -0.000000 0.996614 0.082227
vn -0.242059 0.970202 -0.010735
vn -0.661802 -0.045181 -0.748316
vn 0.000000 -0.999242 -0.038943
vn -0.294131 -0.955110 -0.035370
vn 0.294133 -0.955110 -0.035370
vn 0.999408 -0.004972 -0.034037
vn 0.216433 0.976171 -0.015700
vn 0.000000 0.999959 -0.009071
vn -0.216432 0.976172 -0.015700
vn -0.999408 -0.004972 -0.034037
vn 0.000000 -0.999868 0.016264
vn -0.293841 -0.955767 0.012946
vn 0.293843 -0.955766 0.012946
vn 0.999813 0.002373 0.019203
vn 0.216898 0.976142 0.010063
vn -0.000000 0.999983 0.005768
vn -0.216897 0.976143 0.010063
vn -0.999813 0.002373 0.019203
vn 0.474106 0.809509 -0.346293
vn 0.118298 0.757400 -0.642145
vn 0.090097 0.991523 -0.093625
vn 0.635417 0.767953 -0.080582
vn 0.605983 0.628432 0.487706
vn -0.059119 0.809321 0.584385
vn 0.007530 -0.779849 0.625922
vn 0.568947 -0.612605 0.548647
vn 0.520230 -0.854026 0.000000
vn 0.000000 -1.000000 0.000000
vn 0.022979 -0.868356 -0.495409
vn 0.468487 -0.775284 -0.423620
vn -0.723243 0.501546 -0.474732
vn -0.634186 -0.644797 -0.426668
vn -0.706431 -0.707782 0.000000
vn -0.714977 0.698390 0.032543
vn 0.586022 -0.810285 0.004176
vn 0.767618 0.639823 -0.037283
vn 0.000386 -0.999999 0.001685
vn -0.748531 0.663029 -0.009663
vn -0.704069 -0.710112 -0.005335
vn -0.674146 -0.636257 0.375105
vn -0.695026 0.596551 0.401330
vn 0.030098 0.999304 -0.022017
vn 0.528721 -0.848794 0.001875
vn 0.752653 0.656793 -0.046232
vn -0.002621 -0.999991 0.003191
vn -0.758424 0.651709 -0.008271
vn -0.700936 -0.713222 -0.002066
vn 0.076530 0.994537 -0.070988
vn -0.060583 0.997880 -0.023760
vn 0.072096 0.916346 -0.393842
vn -0.244366 0.968598 -0.045869
vn -0.286107 0.958180 0.005852
vn -0.171828 0.717372 0.675168
vn 0.025023 -0.838690 0.544035
vn 0.022436 -0.999737 -0.004739
vn 0.010525 -0.999944 0.001048
vn 0.000000 -1.000000 0.000000
vn 0.000000 -0.847662 -0.530536
s 1
g pCylinder27
usemtl standardSurface1SG
f 1/1/1 2/2/2 10/131/3 9/4/4
f 2/133/2 3/5/5 11/6/6 10/3/3
f 3/5/5 4/7/7 12/8/8 11/6/6
f 4/7/7 5/9/9 13/10/10 12/8/8
f 5/9/9 6/11/11 14/12/12 13/10/10
f 6/11/11 7/13/13 15/14/14 14/12/12
f 7/13/13 8/15/15 16/16/16 15/14/14
f 8/15/15 1/1/1 9/4/4 16/16/16
f 18/132/17 17/18/18 19/19/19
f 20/20/20 18/17/17 19/19/19
f 21/21/21 20/20/20 19/19/19
f 22/22/22 21/21/21 19/19/19
f 23/23/23 22/22/22 19/19/19
f 24/24/24 23/23/23 19/19/19
f 25/25/25 24/24/24 19/19/19
f 17/18/18 25/25/25 19/19/19
f 58/26/26 59/134/27 60/28/28
f 59/27/27 61/29/29 60/28/28
f 61/29/29 62/30/30 60/28/28
f 62/30/30 63/31/31 60/28/28
f 63/31/31 64/32/32 60/28/28
f 64/32/32 65/33/33 60/28/28
f 65/33/33 66/34/34 60/28/28
f 66/34/34 58/26/26 60/28/28
f 2/2/2 1/1/1 17/18/18 18/132/17
f 3/5/5 2/133/2 18/17/17 20/20/20
f 4/7/7 3/5/5 20/20/20 21/21/21
f 5/9/9 4/7/7 21/21/21 22/22/22
f 6/11/11 5/9/9 22/22/22 23/23/23
f 7/13/13 6/11/11 23/23/23 24/24/24
f 8/15/15 7/13/13 24/24/24 25/25/25
f 1/1/1 8/15/15 25/25/25 17/18/18
f 9/4/4 10/131/3 27/129/35 26/36/36
f 10/3/3 11/6/6 28/37/37 27/35/35
f 11/6/6 12/8/8 29/38/38 28/37/37
f 12/8/8 13/10/10 30/39/39 29/38/38
f 13/10/10 14/12/12 31/40/40 30/39/39
f 14/12/12 15/14/14 32/41/41 31/40/40
f 15/14/14 16/16/16 33/42/42 32/41/41
f 16/16/16 9/4/4 26/36/36 33/42/42
f 26/36/36 27/129/35 35/130/43 34/122/44
f 27/35/35 28/37/37 36/127/45 35/128/43
f 28/37/37 29/38/38 37/126/46 36/127/45
f 29/38/38 30/39/39 38/125/47 37/126/46
f 30/39/39 31/40/40 39/124/48 38/125/47
f 31/40/40 32/41/41 40/123/49 39/124/48
f 32/41/41 33/42/42 41/121/50 40/123/49
f 33/42/42 26/36/36 34/122/44 41/121/50
f 34/43/44 35/137/43 43/136/51 42/46/52
f 35/44/43 36/47/45 44/48/53 43/45/51
f 36/47/45 37/49/46 45/50/54 44/48/53
f 37/49/46 38/51/47 46/52/55 45/50/54
f 38/51/47 39/53/48 47/54/56 46/52/55
f 39/53/48 40/55/49 48/56/57 47/54/56
f 40/55/49 41/57/50 49/58/58 48/56/57
f 41/57/50 34/43/44 42/46/52 49/58/58
f 42/46/52 43/136/51 51/135/59 50/60/60
f 43/45/51 44/48/53 52/61/61 51/59/59
f 44/48/53 45/50/54 53/62/62 52/61/61
f 45/50/54 46/52/55 54/63/63 53/62/62
f 46/52/55 47/54/56 55/64/64 54/63/63
f 47/54/56 48/56/57 56/65/65 55/64/64
f 48/56/57 49/58/58 57/66/66 56/65/65
f 49/58/58 42/46/52 50/60/60 57/66/66
f 50/60/60 51/135/59 59/134/27 58/26/26
f 51/59/59 52/61/61 61/29/29 59/27/27
f 52/61/61 53/62/62 62/30/30 61/29/29
f 53/62/62 54/63/63 63/31/31 62/30/30
f 54/63/63 55/64/64 64/32/32 63/31/31
f 55/64/64 56/65/65 65/33/33 64/32/32
f 56/65/65 57/66/66 66/34/34 65/33/33
f 57/66/66 50/60/60 58/26/26 66/34/34
s 3
f 67/67/67 87/68/68 88/69/69 83/70/70
f 69/71/71 91/72/72 92/73/73 71/74/74
f 84/76/75 95/85/76 96/93/77 73/103/78
f 73/78/78 96/77/77 87/68/68 67/67/67
f 68/79/79 74/80/80 85/81/81 86/82/82
f 73/78/78 67/67/67 83/70/70 84/75/75
f 76/83/83 75/84/84 69/71/71 71/74/74
f 71/104/74 92/105/73 93/107/85 76/108/83
f 78/86/86 77/87/87 72/88/88 70/89/89
f 75/84/84 90/90/90 91/72/72 69/71/71
f 80/91/91 79/92/92 75/84/84 76/83/83
f 76/108/83 93/107/85 94/109/93 80/110/91
f 82/94/94 81/95/95 77/87/87 78/86/86
f 79/92/92 89/96/96 90/90/90 75/84/84
f 84/75/75 83/70/70 79/92/92 80/91/91
f 80/110/91 94/109/93 95/85/76 84/76/75
f 86/82/82 85/81/81 81/95/95 82/94/94
f 83/70/70 88/69/69 89/96/96 79/92/92
f 99/97/97 100/98/98 68/79/79 86/82/82
f 98/99/99 99/97/97 86/82/82 82/94/94
f 97/100/100 98/99/99 82/94/94 78/86/86
f 106/101/101 97/100/100 78/86/86 70/89/89
f 105/102/102 106/101/101 70/89/89 72/88/88
f 104/111/103 105/112/102 72/113/88 77/114/87
f 103/115/104 104/111/103 77/114/87 81/116/95
f 102/117/105 103/115/104 81/116/95 85/118/81
f 101/119/106 102/117/105 85/118/81 74/120/80
f 100/98/98 101/106/106 74/80/80 68/79/79
f 90/90/90 89/96/96 98/99/99 97/100/100
f 89/96/96 88/69/69 99/97/97 98/99/99
f 88/69/69 87/68/68 100/98/98 99/97/97
f 87/68/68 96/77/77 101/106/106 100/98/98
f 96/93/77 95/85/76 102/117/105 101/119/106
f 95/85/76 94/109/93 103/115/104 102/117/105
f 94/109/93 93/107/85 104/111/103 103/115/104
f 93/107/85 92/105/73 105/112/102 104/111/103
f 92/73/73 91/72/72 106/101/101 105/102/102
f 91/72/72 90/90/90 97/100/100 106/101/101
