# This file uses centimeters as units for non-parametric coordinates.

mtllib Int_hammer_low.mtl
g default
v -0.004450 0.100058 -0.293474
v -0.070746 0.100058 -0.293474
v -0.103895 0.042644 -0.293474
v -0.070746 -0.014770 -0.293474
v -0.004450 -0.014770 -0.293474
v 0.028698 0.042644 -0.293474
v -0.004450 0.100058 -0.205512
v -0.070746 0.100058 -0.205512
v -0.103895 0.042644 -0.205512
v -0.070746 -0.014770 -0.205512
v -0.004450 -0.014770 -0.205512
v 0.028698 0.042644 -0.205512
v -0.008589 0.092890 -0.108681
v -0.066608 0.092890 -0.108681
v -0.095617 0.042644 -0.108681
v -0.066608 -0.007602 -0.108681
v -0.008589 -0.007602 -0.108681
v 0.020421 0.042644 -0.108681
v -0.019874 0.073342 0.088048
v -0.055322 0.073342 0.088048
v -0.073046 0.042644 0.088048
v -0.055322 0.011946 0.088048
v -0.019875 0.011946 0.088048
v -0.002151 0.042644 0.088048
v -0.013462 0.084449 0.270051
v -0.061734 0.084449 0.270051
v -0.085870 0.042644 0.270051
v -0.061734 0.000839 0.270051
v -0.013462 0.000839 0.270051
v 0.010674 0.042644 0.270051
v -0.019843 0.073396 0.406113
v -0.055353 0.073396 0.406113
v -0.073108 0.042644 0.406113
v -0.055353 0.011891 0.406113
v -0.019843 0.011891 0.406113
v -0.002088 0.042644 0.406113
v -0.013975 0.083560 0.488574
v -0.061221 0.083560 0.488574
v -0.037598 0.042644 0.488574
v -0.084844 0.042644 0.488574
v -0.061221 0.001728 0.488574
v -0.013975 0.001728 0.488574
v 0.009648 0.042644 0.488574
v -0.013270 0.084781 -0.397576
v -0.061926 0.084781 -0.397576
v -0.086254 0.042644 -0.397576
v -0.061926 0.000507 -0.397576
v -0.013270 0.000507 -0.397576
v 0.011058 0.042644 -0.397576
v -0.007732 0.094374 -0.461168
v -0.067464 0.094374 -0.461168
v -0.097331 0.042644 -0.461168
v -0.067464 -0.009086 -0.461168
v -0.007732 -0.009086 -0.461168
v 0.022134 0.042644 -0.461168
v -0.017168 0.078031 -0.483307
v -0.058029 0.078031 -0.483307
v -0.037598 0.042644 -0.483307
v -0.078459 0.042644 -0.483307
v -0.058029 0.007257 -0.483307
v -0.017168 0.007257 -0.483307
v 0.003263 0.042644 -0.483307
v 0.070783 0.093840 0.405876
v 0.070783 0.093840 0.351760
v 0.070783 0.042644 0.324703
v 0.070783 -0.008552 0.351760
v 0.070783 -0.008552 0.405876
v 0.070783 0.042644 0.432935
v 0.124343 0.105495 0.412037
v 0.124343 0.105495 0.345602
v 0.124343 0.042644 0.312384
v 0.124343 -0.020207 0.345602
v 0.124343 -0.020207 0.412037
v 0.124343 0.042644 0.445255
v 0.181275 0.085638 0.401541
v 0.181275 0.085638 0.356095
v 0.160822 0.042644 0.333373
v 0.160822 -0.000350 0.356095
v 0.160822 -0.000350 0.401541
v 0.160822 0.042644 0.424265
v 0.005928 0.117606 0.418438
v 0.005928 0.117606 0.339200
v 0.005928 0.042644 0.299581
v 0.005928 -0.032318 0.339200
v 0.005928 -0.032318 0.418438
v 0.005928 0.042644 0.458056
v -0.042464 0.125055 0.422374
v -0.042464 0.125055 0.335263
v -0.042464 0.042644 0.291708
v -0.042464 -0.039767 0.335263
v -0.042464 -0.039767 0.422374
v -0.042464 0.042644 0.465931
v -0.098339 0.105545 0.412064
v -0.098339 0.105545 0.345574
v -0.098339 0.042644 0.312330
v -0.098339 -0.020258 0.345574
v -0.098339 -0.020258 0.412064
v -0.098339 0.042644 0.445308
v -0.138249 0.087455 0.402502
v -0.138249 0.087455 0.355135
v -0.138249 0.042644 0.331452
v -0.138249 -0.002167 0.355135
v -0.138249 -0.002167 0.402502
v -0.138249 0.042644 0.426186
v -0.178160 0.110511 0.414688
v -0.178160 0.110511 0.342950
v -0.178160 0.042644 0.307080
v -0.178160 -0.025224 0.342950
v -0.178160 -0.025224 0.414688
v -0.178160 0.042644 0.450558
v -0.256485 0.110511 0.414688
v -0.256485 0.110511 0.342950
v -0.256485 0.042644 0.307080
v -0.256485 -0.025224 0.342950
v -0.256485 -0.025224 0.414688
v -0.256485 0.042644 0.450558
v -0.263968 0.096677 0.407377
v -0.263968 0.096677 0.350261
v -0.263968 0.042644 0.321704
v -0.263968 -0.011390 0.350261
v -0.263968 -0.011390 0.407377
v -0.263968 0.042644 0.435934
v -0.263968 0.096677 0.352831
vt 0.202303 0.118813
vt 0.237695 0.119307
vt 0.238175 0.168979
vt 0.202657 0.167403
vt 0.274683 0.118428
vt 0.060677 0.171101
vt 0.098108 0.118942
vt 0.097320 0.168759
vt 0.133044 0.118668
vt 0.132798 0.167349
vt 0.167609 0.118497
vt 0.167714 0.166878
vt 0.107594 0.712594
vt 0.114372 0.741456
vt 0.085986 0.732895
vt 0.079209 0.704033
vt 0.057602 0.724335
vt 0.064380 0.753199
vt 0.092766 0.761758
vt 0.116392 0.615711
vt 0.089396 0.635777
vt 0.086362 0.605391
vt 0.059719 0.620720
vt 0.058901 0.589057
vt 0.083653 0.571691
vt 0.112189 0.583447
vt 0.231619 0.223694
vt 0.199658 0.221063
vt 0.070998 0.229245
vt 0.103385 0.223867
vt 0.135617 0.221160
vt 0.167677 0.220303
vt 0.210740 0.333885
vt 0.189612 0.333310
vt 0.105371 0.336810
vt 0.125668 0.335216
vt 0.146721 0.334021
vt 0.168154 0.333364
vt 0.220305 0.437755
vt 0.194300 0.436994
vt 0.090574 0.438592
vt 0.117196 0.437604
vt 0.143109 0.436919
vt 0.168691 0.436697
vt 0.131722 0.634371
vt 0.136645 0.578555
vt 0.080933 0.657960
vt 0.035387 0.625689
vt 0.040043 0.570353
vt 0.090559 0.546501
vt 0.199309 0.058957
vt 0.230025 0.058824
vt 0.258867 0.058442
vt 0.105563 0.059971
vt 0.136290 0.059397
vt 0.167804 0.059088
vt 0.135797 0.746468
vt 0.122648 0.696546
vt 0.072840 0.682971
vt 0.036178 0.719317
vt 0.049324 0.769245
vt 0.099139 0.782819
vt 0.441511 0.084050
vt 0.454342 0.130454
vt 0.446541 0.127532
vt 0.437982 0.085925
vt 0.392773 0.065162
vt 0.399183 0.085845
vt 0.362926 0.107046
vt 0.371429 0.109983
vt 0.375494 0.153165
vt 0.379010 0.150855
vt 0.424025 0.172344
vt 0.417228 0.151932
vt 0.422961 0.122945
vt 0.422668 0.104602
vt 0.403013 0.098666
vt 0.387810 0.115258
vt 0.390634 0.135820
vt 0.411974 0.139751
vt 0.466260 0.059990
vt 0.489578 0.134939
vt 0.382929 0.038320
vt 0.327464 0.102570
vt 0.350682 0.177338
vt 0.433915 0.199158
vt 0.454714 0.275063
vt 0.346895 0.232876
vt 0.470475 0.398037
vt 0.375133 0.469387
vt 0.267319 0.427076
vt 0.251694 0.304177
vt 0.414618 0.308865
vt 0.353093 0.281449
vt 0.429250 0.381379
vt 0.369000 0.420783
vt 0.307458 0.393356
vt 0.292872 0.320837
vt 0.398216 0.323784
vt 0.351865 0.305445
vt 0.410135 0.375205
vt 0.370248 0.396770
vt 0.323857 0.378485
vt 0.311942 0.326994
vt 0.392503 0.321885
vt 0.350765 0.306882
vt 0.401329 0.366708
vt 0.371409 0.395274
vt 0.329532 0.380484
vt 0.320555 0.335436
vt 0.384412 0.337079
vt 0.360831 0.323460
vt 0.383798 0.364488
vt 0.361119 0.378704
vt 0.337293 0.365353
vt 0.337700 0.337448
vt 0.378885 0.340163
vt 0.378015 0.339798
vt 0.360691 0.329617
vt 0.378659 0.361538
vt 0.360812 0.372534
vt 0.342582 0.361883
vt 0.342638 0.340387
vt 0.167907 0.022410
vt 0.199986 0.022390
vt 0.135697 0.022468
vt 0.103169 0.022844
vt 0.264392 0.024553
vt 0.232017 0.022641
vt 0.168926 0.512688
vt 0.189817 0.512980
vt 0.147995 0.513353
vt 0.127254 0.515058
vt 0.106982 0.518152
vt 0.210409 0.514380
vt 0.076784 0.060551
vt 0.069648 0.025680
vt 0.062150 0.117894
vt 0.247123 0.438749
vt 0.230315 0.517355
vt 0.231187 0.335083
vt 0.263445 0.229061
vt 0.274653 0.171969
vt 0.442953 0.227287
vt 0.525812 0.141624
vt 0.328743 0.202533
vt 0.291190 0.095934
vt 0.373781 0.010222
vt 0.488133 0.034776
vn 0.498267 0.863021 -0.083210
vn -0.498266 0.863022 -0.083210
vn -0.499543 0.865232 0.042792
vn 0.499543 0.865232 0.042792
vn -0.996532 0.000000 -0.083210
vn -0.999084 -0.000000 0.042792
vn -0.498265 -0.863023 -0.083210
vn -0.499541 -0.865233 0.042792
vn 0.498266 -0.863022 -0.083210
vn 0.499542 -0.865233 0.042792
vn 0.996532 0.000000 -0.083210
vn 0.999084 -0.000000 0.042791
vn -0.310021 0.536971 -0.784569
vn 0.310021 0.536971 -0.784570
vn 0.000000 0.000000 -1.000000
vn -0.620041 -0.000000 -0.784570
vn -0.310020 -0.536971 -0.784570
vn 0.310020 -0.536971 -0.784570
vn 0.620040 -0.000000 -0.784570
vn 0.498161 0.862841 0.085679
vn -0.498161 0.862841 0.085678
vn 0.000000 0.000000 1.000000
vn -0.996323 0.000000 0.085678
vn -0.498161 -0.862841 0.085678
vn 0.498161 -0.862841 0.085679
vn 0.996323 0.000000 0.085680
vn -0.497384 0.861493 0.102176
vn 0.497384 0.861493 0.102176
vn -0.994766 0.000000 0.102176
vn -0.497383 -0.861493 0.102176
vn 0.497382 -0.861494 0.102175
vn 0.994766 -0.000001 0.102176
vn -0.499754 0.865598 0.031415
vn 0.499754 0.865598 0.031415
vn -0.999506 -0.000000 0.031415
vn -0.499752 -0.865598 0.031415
vn 0.499752 -0.865599 0.031415
vn 0.999506 -0.000001 0.031415
vn -0.500000 0.866025 -0.000471
vn 0.500000 0.866025 -0.000470
vn -1.000000 0.000000 -0.000471
vn -0.500000 -0.866026 -0.000471
vn 0.499999 -0.866026 -0.000471
vn 1.000000 -0.000000 -0.000471
vn -0.499995 0.866016 0.004568
vn 0.499994 0.866017 0.004568
vn -0.999990 0.000000 0.004568
vn -0.499994 -0.866017 0.004568
vn 0.499994 -0.866017 0.004568
vn 0.999990 -0.000000 0.004569
vn 0.499523 0.865197 -0.043713
vn -0.499523 0.865197 -0.043714
vn -0.999044 -0.000000 -0.043714
vn -0.499521 -0.865198 -0.043713
vn 0.499522 -0.865198 -0.043713
vn 0.999044 -0.000000 -0.043713
vn 0.499517 0.865187 -0.043973
vn -0.499517 0.865188 -0.043973
vn -0.999033 0.000000 -0.043973
vn -0.499515 -0.865188 -0.043973
vn 0.499516 -0.865188 -0.043973
vn 0.999033 0.000000 -0.043974
vn 0.137325 0.834929 -0.532950
vn 0.137320 0.834935 0.532942
vn 0.067640 0.853611 0.516500
vn 0.067641 0.853614 -0.516496
vn 0.128102 -0.000000 -0.991761
vn 0.060517 0.011137 -0.998105
vn 0.137325 -0.834929 -0.532949
vn 0.065242 -0.847974 -0.526007
vn 0.137320 -0.834936 0.532941
vn 0.065241 -0.847971 0.526012
vn 0.128094 0.000000 0.991762
vn 0.060516 0.011137 0.998105
vn 0.831170 0.458931 0.313910
vn 0.831169 0.458928 -0.313916
vn 0.544506 0.011179 -0.838683
vn 0.796536 -0.533316 -0.284788
vn 0.796538 -0.533317 0.284779
vn 0.544527 0.011177 0.838669
vn 0.275339 0.814303 -0.510979
vn 0.275339 0.814300 0.510983
vn 0.260689 0.000000 -0.965423
vn 0.275338 -0.814303 -0.510979
vn 0.275338 -0.814300 0.510983
vn 0.260691 0.000000 0.965422
vn -0.108468 0.843784 -0.525608
vn -0.108467 0.843788 0.525601
vn -0.103142 0.000000 -0.994667
vn -0.108467 -0.843784 -0.525608
vn -0.108466 -0.843788 0.525601
vn -0.103140 0.000000 0.994667
vn -0.392954 0.777065 -0.491688
vn -0.392953 0.777064 0.491690
vn -0.372596 -0.000000 -0.927994
vn -0.392954 -0.777066 -0.491687
vn -0.392952 -0.777065 0.491690
vn -0.372596 0.000000 0.927994
vn 0.090516 0.837965 -0.538165
vn 0.090515 0.837968 0.538160
vn 0.084219 -0.000000 -0.996447
vn 0.090515 -0.837965 -0.538165
vn 0.090514 -0.837969 0.538159
vn 0.084218 -0.000000 0.996447
vn 0.165225 0.835932 -0.523373
vn 0.165225 0.835932 0.523372
vn 0.158539 0.000000 -0.987353
vn 0.165226 -0.835932 -0.523372
vn 0.165225 -0.835932 0.523372
vn 0.158540 0.000000 0.987353
vn -0.116046 0.840916 -0.528577
vn -0.116046 0.840916 0.528576
vn -0.113975 0.000000 -0.993484
vn -0.116047 -0.840917 -0.528576
vn -0.116046 -0.840917 0.528575
vn -0.113974 -0.000000 0.993484
vn -0.992317 0.103692 -0.067493
vn -0.997679 0.068097 0.000000
vn -0.992317 0.103692 0.067493
vn -0.966891 -0.000000 -0.255189
vn -0.992317 -0.103692 -0.067492
vn -0.992317 -0.103692 0.067493
vn -0.966891 -0.000000 0.255189
s 1
g pCylinder24
usemtl standardSurface1SG
f 1/1/1 2/2/2 8/3/3 7/4/4
f 2/2/2 3/5/5 9/143/6 8/3/3
f 3/138/5 4/7/7 10/8/8 9/6/6
f 4/7/7 5/9/9 11/10/10 10/8/8
f 5/9/9 6/11/11 12/12/12 11/10/10
f 6/11/11 1/1/1 7/4/4 12/12/12
f 57/13/13 56/14/14 58/15/15
f 59/16/16 57/13/13 58/15/15
f 60/17/17 59/16/16 58/15/15
f 61/18/18 60/17/17 58/15/15
f 62/19/19 61/18/18 58/15/15
f 56/14/14 62/19/19 58/15/15
f 37/20/20 38/21/21 39/22/22
f 38/21/21 40/23/23 39/22/22
f 40/23/23 41/24/24 39/22/22
f 41/24/24 42/25/25 39/22/22
f 42/25/25 43/26/26 39/22/22
f 43/26/26 37/20/20 39/22/22
f 7/4/4 8/3/3 14/27/27 13/28/28
f 8/3/3 9/143/6 15/142/29 14/27/27
f 9/6/6 10/8/8 16/30/30 15/29/29
f 10/8/8 11/10/10 17/31/31 16/30/30
f 11/10/10 12/12/12 18/32/32 17/31/31
f 12/12/12 7/4/4 13/28/28 18/32/32
f 13/28/28 14/27/27 20/33/33 19/34/34
f 14/27/27 15/142/29 21/141/35 20/33/33
f 15/29/29 16/30/30 22/36/36 21/35/35
f 16/30/30 17/31/31 23/37/37 22/36/36
f 17/31/31 18/32/32 24/38/38 23/37/37
f 18/32/32 13/28/28 19/34/34 24/38/38
f 19/34/34 20/33/33 26/39/39 25/40/40
f 20/33/33 21/141/35 27/139/41 26/39/39
f 21/35/35 22/36/36 28/42/42 27/41/41
f 22/36/36 23/37/37 29/43/43 28/42/42
f 23/37/37 24/38/38 30/44/44 29/43/43
f 24/38/38 19/34/34 25/40/40 30/44/44
f 25/40/40 26/39/39 32/135/45 31/131/46
f 26/39/39 27/139/41 33/140/47 32/135/45
f 27/41/41 28/42/42 34/133/48 33/134/47
f 28/42/42 29/43/43 35/132/49 34/133/48
f 29/43/43 30/44/44 36/130/50 35/132/49
f 30/44/44 25/40/40 31/131/46 36/130/50
f 31/46/46 32/45/45 38/21/21 37/20/20
f 32/45/45 33/47/47 40/23/23 38/21/21
f 33/47/47 34/48/48 41/24/24 40/23/23
f 34/48/48 35/49/49 42/25/25 41/24/24
f 35/49/49 36/50/50 43/26/26 42/25/25
f 36/50/50 31/46/46 37/20/20 43/26/26
f 2/2/2 1/1/1 44/51/51 45/52/52
f 3/5/5 2/2/2 45/52/52 46/53/53
f 4/7/7 3/138/5 46/136/53 47/54/54
f 5/9/9 4/7/7 47/54/54 48/55/55
f 6/11/11 5/9/9 48/55/55 49/56/56
f 1/1/1 6/11/11 49/56/56 44/51/51
f 45/52/52 44/51/51 50/125/57 51/129/58
f 46/53/53 45/52/52 51/129/58 52/128/59
f 47/54/54 46/136/53 52/137/59 53/127/60
f 48/55/55 47/54/54 53/127/60 54/126/61
f 49/56/56 48/55/55 54/126/61 55/124/62
f 44/51/51 49/56/56 55/124/62 50/125/57
f 51/58/58 50/57/57 56/14/14 57/13/13
f 52/59/59 51/58/58 57/13/13 59/16/16
f 53/60/60 52/59/59 59/16/16 60/17/17
f 54/61/61 53/60/60 60/17/17 61/18/18
f 55/62/62 54/61/61 61/18/18 62/19/19
f 50/57/57 55/62/62 62/19/19 56/14/14
s 4
f 64/63/63 63/64/64 69/65/65 70/66/66
f 65/67/67 64/63/63 70/66/66 71/68/68
f 66/69/69 65/67/67 71/68/68 72/70/70
f 67/71/71 66/69/69 72/70/70 73/72/72
f 68/73/73 67/71/71 73/72/72 74/74/74
f 63/64/64 68/73/73 74/74/74 69/65/65
f 70/66/66 69/65/65 75/75/75 76/76/76
f 71/68/68 70/66/66 76/76/76 77/77/77
f 72/70/70 71/68/68 77/77/77 78/78/78
f 73/72/72 72/70/70 78/78/78 79/79/79
f 74/74/74 73/72/72 79/79/79 80/80/80
f 69/65/65 74/74/74 80/80/80 75/75/75
f 63/64/64 64/63/63 82/81/81 81/82/82
f 64/63/63 65/67/67 83/83/83 82/81/81
f 65/67/67 66/69/69 84/84/84 83/83/83
f 66/69/69 67/71/71 85/85/85 84/84/84
f 67/71/71 68/73/73 86/86/86 85/85/85
f 68/73/73 63/64/64 81/82/82 86/86/86
f 81/82/82 82/81/81 88/149/87 87/145/88
f 82/81/81 83/83/83 89/148/89 88/149/87
f 83/83/83 84/84/84 90/147/90 89/148/89
f 84/84/84 85/85/85 91/146/91 90/147/90
f 85/85/85 86/86/86 92/144/92 91/146/91
f 86/86/86 81/82/82 87/145/88 92/144/92
f 87/88/88 88/87/87 94/93/93 93/94/94
f 88/87/87 89/89/89 95/95/95 94/93/93
f 89/89/89 90/90/90 96/96/96 95/95/95
f 90/90/90 91/91/91 97/97/97 96/96/96
f 91/91/91 92/92/92 98/98/98 97/97/97
f 92/92/92 87/88/88 93/94/94 98/98/98
f 93/94/94 94/93/93 100/99/99 99/100/100
f 94/93/93 95/95/95 101/101/101 100/99/99
f 95/95/95 96/96/96 102/102/102 101/101/101
f 96/96/96 97/97/97 103/103/103 102/102/102
f 97/97/97 98/98/98 104/104/104 103/103/103
f 98/98/98 93/94/94 99/100/100 104/104/104
f 99/100/100 100/99/99 106/105/105 105/106/106
f 100/99/99 101/101/101 107/107/107 106/105/105
f 101/101/101 102/102/102 108/108/108 107/107/107
f 102/102/102 103/103/103 109/109/109 108/108/108
f 103/103/103 104/104/104 110/110/110 109/109/109
f 104/104/104 99/100/100 105/106/106 110/110/110
f 105/106/106 106/105/105 112/111/111 111/112/112
f 106/105/105 107/107/107 113/113/113 112/111/111
f 107/107/107 108/108/108 114/114/114 113/113/113
f 108/108/108 109/109/109 115/115/115 114/114/114
f 109/109/109 110/110/110 116/116/116 115/115/115
f 110/110/110 105/106/106 111/112/112 116/116/116
f 111/112/112 112/111/111 118/117/117 123/118/118 117/119/119
f 112/111/111 113/113/113 119/120/120 118/117/117
f 113/113/113 114/114/114 120/121/121 119/120/120
f 114/114/114 115/115/115 121/122/122 120/121/121
f 115/115/115 116/116/116 122/123/123 121/122/122
f 116/116/116 111/112/112 117/119/119 122/123/123
f 118/117/117 120/121/121 121/122/122 117/119/119 123/118/118
f 117/119/119 121/122/122 122/123/123
f 118/117/117 119/120/120 120/121/121
f 79/79/79 75/75/75 80/80/80
f 76/76/76 78/78/78 77/77/77
f 76/76/76 75/75/75 79/79/79 78/78/78
