# This file uses centimeters as units for non-parametric coordinates.

mtllib fol_ferns_low.mtl
g default
v -0.247442 0.666851 0.108457
v -0.173774 0.535545 0.116275
v 0.000263 0.442051 0.044932
v 0.061760 0.373431 0.077524
v 0.045223 0.375082 0.020461
v 0.116537 0.474044 -0.251702
v 0.069995 0.591999 -0.283336
v 0.011468 0.663613 -0.329539
v -0.350191 0.695242 -0.389475
v -0.434276 0.697561 -0.433765
v -0.487188 0.669875 -0.457623
v -0.493167 0.675535 -0.445239
v -0.457528 0.719120 -0.388757
v -0.389365 0.725999 -0.275929
v -0.293730 0.736290 0.022845
v -0.491418 0.674018 -0.452725
v -0.459684 0.729050 -0.425026
v -0.400325 0.796136 -0.372839
v -0.107551 0.803423 -0.114151
v -0.029908 0.704537 -0.029244
v 0.015016 0.550738 0.040282
v 0.050873 0.427287 0.061609
v -0.182016 0.722147 -0.363777
v -0.265780 0.854314 -0.260425
v -0.342413 0.755867 -0.139873
v 0.013937 0.550164 -0.114817
v 0.085369 0.427112 0.044127
v 0.050470 0.353169 0.144847
v 0.016760 0.283973 0.210227
v 0.085495 0.294159 0.206335
v 0.268395 0.437546 0.231837
v 0.356579 0.559293 0.246657
v 0.456498 0.636276 0.240429
v 0.557517 0.653385 -0.154262
v 0.617040 0.657502 -0.238400
v 0.654129 0.630604 -0.290704
v 0.639158 0.633696 -0.301095
v 0.562613 0.669612 -0.277953
v 0.422031 0.661893 -0.230502
v 0.058494 0.627883 -0.200934
v 0.648087 0.633584 -0.297046
v 0.604224 0.685429 -0.271439
v 0.527123 0.746905 -0.221550
v 0.193951 0.730043 0.043016
v 0.101458 0.623154 0.114759
v 0.038326 0.462384 0.156525
v 0.028462 0.339168 0.198894
v 0.508129 0.686988 0.028731
v 0.373423 0.794447 -0.101458
v 0.252396 0.671525 -0.214634
v 0.276306 0.605120 0.453847
v 0.118438 0.502791 0.265789
v 0.151013 0.435334 0.153317
v 0.162597 0.371467 0.061459
v 0.088354 0.381542 0.084606
v -0.084229 0.541385 0.146699
v -0.198920 0.684261 0.163617
v -0.317668 0.771404 0.200668
v -0.293095 0.706047 0.658488
v -0.329708 0.692292 0.765715
v -0.353897 0.650510 0.827190
v -0.333604 0.651916 0.835333
v -0.255282 0.698010 0.797410
v -0.116478 0.700597 0.709351
v 0.273989 0.671636 0.580645
v -0.344887 0.652575 0.833123
v -0.302853 0.716880 0.803462
v -0.231996 0.797497 0.740769
v 0.044494 0.837588 0.366571
v 0.117213 0.733059 0.246490
v 0.165360 0.561122 0.156864
v 0.156063 0.431222 0.086471
v -0.300129 0.783286 0.452724
v -0.101263 0.877980 0.580050
v 0.066163 0.716290 0.651543
v 0.550801 0.582477 0.045418
v 0.444891 0.520528 0.039460
v 0.265347 0.491351 0.121811
v 0.206881 0.437451 0.117146
v 0.220611 0.450312 0.156845
v 0.143108 0.553830 0.355258
v 0.207111 0.603320 0.374295
v 0.269313 0.617358 0.403834
v 0.625072 0.513339 0.443472
v 0.701234 0.531403 0.472405
v 0.749282 0.532773 0.490726
v 0.756654 0.533392 0.480459
v 0.729632 0.536750 0.434882
v 0.677184 0.519088 0.351970
v 0.609188 0.595617 0.115307
v 0.753597 0.534608 0.485981
v 0.723877 0.553420 0.457859
v 0.677303 0.582150 0.416239
v 0.454893 0.690360 0.252365
v 0.356859 0.669377 0.182331
v 0.268644 0.580061 0.120746
v 0.216538 0.478497 0.118169
v 0.454846 0.564800 0.417946
v 0.583714 0.635503 0.346896
v 0.642854 0.554460 0.241304
v -0.241575 0.473171 0.633497
v -0.150690 0.283230 0.545419
v 0.038785 0.170018 0.253829
v 0.143983 0.065544 0.222050
v 0.073876 0.079663 0.163210
v -0.011833 0.286327 -0.257821
v -0.082981 0.463169 -0.231954
v -0.193792 0.575102 -0.220943
v -0.786903 0.618572 0.079321
v -0.949912 0.627952 0.107711
v -1.055484 0.590488 0.126027
v -1.053607 0.595782 0.149733
v -0.945204 0.648570 0.195614
v -0.750273 0.636980 0.276889
v -0.365371 0.591049 0.578778
v -1.057187 0.595278 0.137657
v -0.975123 0.670855 0.151048
v -0.828917 0.759870 0.170552
v -0.175329 0.726850 0.213926
v -0.010443 0.567555 0.230224
v 0.080656 0.330129 0.250636
v 0.126160 0.147057 0.221147
v -0.504007 0.659501 -0.056194
v -0.522066 0.826041 0.191083
v -0.564467 0.652924 0.415081
v 0.389368 0.318834 -0.174065
v 0.273310 0.201874 -0.122033
v 0.133476 0.117415 0.089207
v 0.074245 0.024695 0.114416
v 0.121550 0.049167 0.157019
v 0.166805 0.188295 0.463364
v 0.246630 0.277112 0.452410
v 0.344199 0.315594 0.452543
v 0.846580 0.265031 0.274140
v 0.959508 0.312945 0.265292
v 1.033880 0.328892 0.258888
v 1.033830 0.331105 0.241511
v 0.960170 0.325818 0.201167
v 0.829410 0.281453 0.127642
v 0.517506 0.357534 -0.120967
v 1.034495 0.332364 0.250438
v 0.967925 0.349463 0.235086
v 0.865956 0.375340 0.214038
v 0.418117 0.459791 0.154717
v 0.243644 0.399305 0.125108
v 0.109445 0.244618 0.093883
v 0.074410 0.085819 0.113483
v 0.599995 0.291223 0.351414
v 0.674782 0.421991 0.189300
v 0.680580 0.315762 0.012911
v -0.353492 0.242461 -0.075290
v 0.016837 0.038987 -0.025630
v 0.005090 -0.105396 0.066515
v 0.052232 -0.231631 0.131837
v 0.116067 -0.198097 0.072689
v 0.231129 0.042169 -0.012793
v 0.441867 0.230695 -0.022717
v 0.535105 0.366461 -0.085809
v 0.140890 0.542060 -0.542777
v 0.094738 0.590139 -0.672775
v 0.065586 0.578909 -0.764766
v 0.037679 0.582585 -0.760596
v -0.008932 0.605282 -0.658983
v -0.089697 0.542491 -0.495414
v -0.415680 0.390026 -0.166525
v 0.051660 0.583493 -0.764479
v 0.041023 0.636249 -0.682696
v 0.027895 0.686017 -0.545468
v 0.027375 0.490977 -0.012256
v 0.023193 0.294624 0.095621
v 0.009666 0.040242 0.129287
v 0.050704 -0.147873 0.131746
v 0.321890 0.517984 -0.313054
v 0.026226 0.673925 -0.280500
v -0.238736 0.506308 -0.330360
v 0.466686 0.243561 0.319664
v 0.167452 0.040088 0.285294
v 0.122750 -0.104296 0.191604
v 0.072307 -0.230531 0.128066
v 0.011561 -0.196996 0.189493
v -0.150732 0.043269 0.277900
v -0.286129 0.231795 0.297254
v -0.397797 0.367561 0.363189
v 0.018285 0.543160 0.805290
v 0.071052 0.591240 0.933479
v 0.104888 0.580010 1.024318
v 0.132556 0.583685 1.019131
v 0.173918 0.606383 0.915910
v 0.246230 0.543591 0.749541
v 0.555062 0.391127 0.409041
v 0.118787 0.584594 1.023522
v 0.125225 0.637350 0.941427
v 0.131312 0.687118 0.803847
v 0.104521 0.492077 0.271115
v 0.103174 0.295725 0.163187
v 0.114963 0.041342 0.129057
v 0.073838 -0.146772 0.128101
v -0.174312 0.519085 0.582399
v 0.119408 0.675025 0.539067
v 0.386675 0.507409 0.579192
vt 0.571918 0.214771
vt 0.614311 0.114358
vt 0.754407 0.055156
vt 0.774879 0.003389
vt 0.797242 0.016790
vt 0.980370 0.118406
vt 0.964333 0.208563
vt 0.953210 0.284427
vt 0.787359 0.539206
vt 0.766888 0.586836
vt 0.753563 0.620435
vt 0.743020 0.617842
vt 0.727730 0.576989
vt 0.700568 0.509392
vt 0.586539 0.303835
vt 0.748282 0.619136
vt 0.746485 0.581705
vt 0.745230 0.524734
vt 0.759713 0.294637
vt 0.761354 0.211740
vt 0.757714 0.115954
vt 0.774035 0.037576
vt 0.862780 0.423345
vt 0.751816 0.420098
vt 0.648714 0.415915
vt 0.761354 0.211740
vt 0.757714 0.115954
vt 0.980370 0.118406
vt 0.964333 0.208563
vt 0.797242 0.016790
vt 0.774035 0.037576
vt 0.774879 0.003389
vt 0.748282 0.619136
vt 0.746485 0.581705
vt 0.766888 0.586836
vt 0.753563 0.620435
vt 0.759713 0.294637
vt 0.953210 0.284427
vt 0.862780 0.423345
vt 0.751816 0.420098
vt 0.745230 0.524734
vt 0.787359 0.539206
vt 0.727730 0.576989
vt 0.743020 0.617842
vt 0.700568 0.509392
vt 0.586539 0.303835
vt 0.648714 0.415915
vt 0.571918 0.214771
vt 0.614311 0.114358
vt 0.754407 0.055156
vt 0.761354 0.211740
vt 0.757714 0.115954
vt 0.980370 0.118406
vt 0.964333 0.208563
vt 0.797242 0.016790
vt 0.774035 0.037576
vt 0.774879 0.003389
vt 0.748282 0.619136
vt 0.746485 0.581705
vt 0.766888 0.586836
vt 0.753563 0.620435
vt 0.759713 0.294637
vt 0.953210 0.284427
vt 0.862780 0.423345
vt 0.751816 0.420098
vt 0.745230 0.524734
vt 0.787359 0.539206
vt 0.727730 0.576989
vt 0.743020 0.617842
vt 0.700568 0.509392
vt 0.586539 0.303835
vt 0.648714 0.415915
vt 0.571918 0.214771
vt 0.614311 0.114358
vt 0.754407 0.055156
vt 0.761354 0.211740
vt 0.757714 0.115954
vt 0.980370 0.118406
vt 0.964333 0.208563
vt 0.797242 0.016790
vt 0.774035 0.037576
vt 0.774879 0.003389
vt 0.748282 0.619136
vt 0.746485 0.581705
vt 0.766888 0.586836
vt 0.753563 0.620435
vt 0.759713 0.294637
vt 0.953210 0.284427
vt 0.862780 0.423345
vt 0.751816 0.420098
vt 0.745230 0.524734
vt 0.787359 0.539206
vt 0.727730 0.576989
vt 0.743020 0.617842
vt 0.700568 0.509392
vt 0.586539 0.303835
vt 0.648714 0.415915
vt 0.571918 0.214771
vt 0.614311 0.114358
vt 0.754407 0.055156
vt 0.761354 0.211740
vt 0.757714 0.115954
vt 0.980370 0.118406
vt 0.964333 0.208563
vt 0.797242 0.016790
vt 0.774035 0.037576
vt 0.774879 0.003389
vt 0.748282 0.619136
vt 0.746485 0.581705
vt 0.766888 0.586836
vt 0.753563 0.620435
vt 0.759713 0.294637
vt 0.953210 0.284427
vt 0.862780 0.423345
vt 0.751816 0.420098
vt 0.745230 0.524734
vt 0.787359 0.539206
vt 0.727730 0.576989
vt 0.743020 0.617842
vt 0.700568 0.509392
vt 0.586539 0.303835
vt 0.648714 0.415915
vt 0.571918 0.214771
vt 0.614311 0.114358
vt 0.754407 0.055156
vt 0.761354 0.211740
vt 0.757714 0.115954
vt 0.980370 0.118406
vt 0.964333 0.208563
vt 0.797242 0.016790
vt 0.774035 0.037576
vt 0.774879 0.003389
vt 0.748282 0.619136
vt 0.746485 0.581705
vt 0.766888 0.586836
vt 0.753563 0.620435
vt 0.759713 0.294637
vt 0.953210 0.284427
vt 0.862780 0.423345
vt 0.751816 0.420098
vt 0.745230 0.524734
vt 0.787359 0.539206
vt 0.727730 0.576989
vt 0.743020 0.617842
vt 0.700568 0.509392
vt 0.586539 0.303835
vt 0.648714 0.415915
vt 0.571918 0.214771
vt 0.614311 0.114358
vt 0.754407 0.055156
vt 0.761354 0.211740
vt 0.757714 0.115954
vt 0.980370 0.118406
vt 0.964333 0.208563
vt 0.797242 0.016790
vt 0.774035 0.037576
vt 0.774879 0.003389
vt 0.748282 0.619136
vt 0.746485 0.581705
vt 0.766888 0.586836
vt 0.753563 0.620435
vt 0.759713 0.294637
vt 0.953210 0.284427
vt 0.862780 0.423345
vt 0.751816 0.420098
vt 0.745230 0.524734
vt 0.787359 0.539206
vt 0.727730 0.576989
vt 0.743020 0.617842
vt 0.700568 0.509392
vt 0.586539 0.303835
vt 0.648714 0.415915
vt 0.571918 0.214771
vt 0.614311 0.114358
vt 0.754407 0.055156
vt 0.761354 0.211740
vt 0.757714 0.115954
vt 0.980370 0.118406
vt 0.964333 0.208563
vt 0.797242 0.016790
vt 0.774035 0.037576
vt 0.774879 0.003389
vt 0.748282 0.619136
vt 0.746485 0.581705
vt 0.766888 0.586836
vt 0.753563 0.620435
vt 0.759713 0.294637
vt 0.953210 0.284427
vt 0.862780 0.423345
vt 0.751816 0.420098
vt 0.745230 0.524734
vt 0.787359 0.539206
vt 0.727730 0.576989
vt 0.743020 0.617842
vt 0.700568 0.509392
vt 0.586539 0.303835
vt 0.648714 0.415915
vt 0.571918 0.214771
vt 0.614311 0.114358
vt 0.754407 0.055156
vn 0.670592 0.594863 0.443220
vn 0.770635 0.322723 0.549519
vn 0.919954 0.332877 0.207068
vn 0.864128 0.485561 0.132339
vn 0.967470 0.140386 0.210463
vn 0.905387 0.137107 0.401841
vn 0.973574 0.217433 0.069830
vn -0.297642 0.613674 -0.731309
vn -0.264262 0.767877 -0.583550
vn 0.355160 0.392223 -0.848542
vn 0.115636 0.437484 -0.891760
vn 0.370990 0.920930 0.119393
vn 0.655142 0.735782 -0.171506
vn 0.403943 0.756229 -0.514731
vn 0.031523 0.979518 -0.198875
vn -0.268505 0.831363 -0.486559
vn 0.245692 0.519477 -0.818400
vn -0.786730 0.501766 0.359564
vn -0.860330 0.499029 0.103938
vn -0.715739 0.631861 0.297440
vn 0.030036 0.855315 0.517237
vn -0.346710 0.870324 0.349755
vn 0.309338 0.595404 0.741488
vn 0.378149 0.356346 0.854413
vn 0.230827 0.013636 0.972899
vn -0.644691 0.487524 0.588807
vn -0.701154 0.196424 0.685420
vn -0.316989 0.258700 0.912465
vn -0.308059 0.497683 0.810809
vn -0.212120 0.218959 0.952398
vn -0.439110 0.216948 0.871846
vn -0.335488 0.257196 0.906255
vn 0.606793 0.740294 -0.289427
vn 0.449320 0.856178 -0.255091
vn 0.689737 0.606408 0.395642
vn 0.756196 0.639279 0.139610
vn -0.316251 0.907397 0.276797
vn -0.038917 0.825628 0.562872
vn 0.261021 0.895881 0.359534
vn 0.032422 0.999193 -0.023728
vn 0.353574 0.897046 -0.265131
vn 0.641339 0.723040 0.256704
vn -0.233289 0.495002 -0.836988
vn 0.021961 0.508328 -0.860884
vn -0.201204 0.633135 -0.747433
vn -0.587730 0.803745 -0.092564
vn -0.348093 0.854509 -0.385547
vn -0.852809 0.509504 0.114552
vn -0.998617 0.030895 0.042550
vn -0.925282 -0.057239 -0.374935
vn 0.505760 0.545908 -0.667975
vn 0.515085 0.267627 -0.814287
vn 0.078831 0.373020 -0.924468
vn 0.128925 0.609891 -0.781928
vn -0.057972 0.390261 -0.918878
vn 0.188100 0.388022 -0.902251
vn 0.137052 0.395192 -0.908317
vn -0.477025 0.656588 0.584243
vn -0.336701 0.780785 0.526315
vn -0.744451 0.665224 -0.057185
vn -0.736342 0.642327 0.212640
vn 0.277013 0.940001 -0.199152
vn -0.062797 0.913384 -0.402225
vn -0.299326 0.948475 -0.103920
vn 0.008071 0.977330 0.211568
vn -0.245957 0.821517 0.514408
vn -0.654678 0.751358 0.082810
vn 0.427793 0.363082 0.827746
vn 0.180181 0.363179 0.914131
vn 0.379476 0.511203 0.771148
vn 0.620577 0.781788 0.060750
vn 0.450484 0.789480 0.416875
vn 0.819410 0.507501 -0.266477
vn 0.963644 -0.038745 -0.264366
vn 0.963836 -0.110223 0.242634
vn -0.269238 0.890382 -0.367056
vn -0.563643 0.577049 -0.591034
vn -0.684431 0.683312 -0.254244
vn -0.497573 0.861224 -0.103516
vn -0.908996 0.236537 -0.343185
vn -0.831423 0.201033 -0.517998
vn -0.925925 0.225417 -0.303067
vn 0.172223 0.929073 0.327356
vn 0.203070 0.946634 0.250292
vn -0.339075 0.628772 0.699767
vn -0.209332 0.746969 0.631045
vn 0.152703 0.980605 0.122866
vn -0.151275 0.934800 0.321349
vn 0.043556 0.764771 0.642828
vn 0.356419 0.860714 0.363506
vn 0.365575 0.830543 0.420183
vn -0.075668 0.614443 0.785324
vn 0.665236 0.585022 -0.463908
vn 0.629016 0.731060 -0.264367
vn 0.753689 0.599280 -0.269844
vn 0.363533 0.894192 -0.261276
vn 0.628624 0.769058 -0.115679
vn 0.001662 0.814637 -0.579968
vn -0.220863 0.573847 -0.788619
vn -0.319998 0.000883 -0.947418
vn 0.828710 0.539684 0.148257
vn 0.962212 0.217258 0.164156
vn 0.926317 0.305593 -0.220339
vn 0.835607 0.496252 -0.235575
vn 0.960052 0.066273 -0.271859
vn 0.998462 0.023687 -0.050123
vn 0.923209 0.198215 -0.329234
vn -0.574769 0.759591 -0.304404
vn -0.454032 0.870247 -0.191115
vn -0.190536 0.551235 -0.812303
vn -0.379297 0.598866 -0.705332
vn 0.399195 0.915744 0.045345
vn 0.466040 0.813515 -0.347851
vn 0.061447 0.868472 -0.491916
vn -0.021320 0.999126 -0.035956
vn -0.390071 0.911235 -0.132268
vn -0.244481 0.672489 -0.698561
vn -0.366455 0.542958 0.755584
vn -0.574406 0.590581 0.566809
vn -0.327377 0.671562 0.664702
vn 0.337827 0.791727 0.508961
vn -0.012922 0.840975 0.540920
vn 0.671198 0.498462 0.548661
vn 0.784700 0.213673 0.581885
vn 0.706990 -0.167795 0.687030
vn -0.559487 0.823144 -0.096992
vn -0.884758 0.441205 -0.150138
vn -0.816132 0.525935 0.239416
vn -0.606376 0.746204 0.274751
vn -0.965050 0.020575 0.261258
vn -0.998501 -0.005231 0.054484
vn -0.949323 0.007372 0.314216
vn 0.105944 0.948274 0.299253
vn 0.100118 0.972687 0.209419
vn -0.095929 0.554022 0.826957
vn -0.039622 0.699074 0.713951
vn 0.005090 0.996679 0.081266
vn -0.131911 0.886834 0.442860
vn 0.176816 0.783910 0.595164
vn 0.303698 0.937300 0.170987
vn 0.337815 0.912056 0.232452
vn 0.157792 0.615038 0.772548
vn 0.244883 0.660644 -0.709635
vn 0.275643 0.806551 -0.522969
vn 0.391331 0.699373 -0.598112
vn 0.034799 0.928879 -0.368744
vn 0.331589 0.854605 -0.399624
vn -0.410015 0.789213 -0.457198
vn -0.665222 0.512148 -0.543308
vn -0.725743 -0.111737 -0.678832
vn -0.064736 0.155618 0.985694
vn -0.035696 -0.172616 0.984342
vn 0.407964 -0.066398 0.910581
vn 0.297397 0.255897 0.919822
vn 0.585355 0.063714 0.808270
vn 0.358625 0.058745 0.931632
vn 0.325624 0.006970 0.945474
vn 0.188062 0.867806 -0.459941
vn 0.106516 0.954923 -0.277085
vn 0.735906 0.665233 -0.126125
vn 0.595438 0.731273 -0.332706
vn -0.023860 0.728786 0.684326
vn 0.324342 0.654024 0.683414
vn 0.403092 0.857785 0.318938
vn 0.013385 0.967341 0.253123
vn 0.058308 0.979895 -0.190803
vn 0.600632 0.786332 -0.144648
vn -0.735490 0.638672 -0.226169
vn -0.547086 0.700127 -0.458823
vn -0.638071 0.757137 -0.140030
vn -0.431432 0.637588 0.638238
vn -0.471578 0.827714 0.304145
vn -0.462965 0.272651 0.843401
vn -0.675900 -0.300385 0.673000
vn -0.982760 -0.039140 0.180695
vn 0.027983 0.177672 -0.983692
vn 0.009480 -0.109756 -0.993913
vn -0.422788 -0.012535 -0.906142
vn -0.336084 0.244943 -0.909423
vn -0.549333 0.021665 -0.835322
vn -0.328577 -0.001215 -0.944477
vn -0.358809 0.006953 -0.933385
vn -0.166079 0.867314 0.469238
vn -0.091171 0.954954 0.282402
vn -0.729644 0.664077 0.163158
vn -0.580973 0.729086 0.361807
vn -0.002391 0.725008 -0.688736
vn -0.356107 0.659664 -0.661839
vn -0.415267 0.858992 -0.299476
vn -0.022470 0.967470 -0.251985
vn -0.048886 0.979908 0.193364
vn -0.593783 0.785349 0.175068
vn 0.744616 0.640195 0.188937
vn 0.565402 0.702674 0.431938
vn 0.643443 0.757924 0.107393
vn 0.412235 0.638633 -0.649777
vn 0.459351 0.825981 -0.326729
vn 0.433581 0.259715 -0.862877
vn 0.618240 -0.225068 -0.753076
vn 0.906987 -0.118440 -0.404161
s 1
g polySurface74
usemtl lambert2SG
f 20/20/1 21/21/2 6/6/3 7/7/4
f 5/5/5 22/22/6 4/4/7
f 6/6/3 21/21/2 22/22/6 5/5/5
f 16/16/8 17/17/9 10/10/10 11/11/11
f 19/19/12 20/20/1 7/7/4 8/8/13
f 23/23/14 24/24/15 19/19/12 8/8/13
f 17/17/9 18/18/16 9/9/17 10/10/10
f 13/13/18 17/17/9 16/16/8 12/12/19
f 14/14/20 18/18/16 17/17/9 13/13/18
f 15/15/21 19/19/12 24/24/15 25/25/22
f 1/1/23 20/20/1 19/19/12 15/15/21
f 1/1/23 2/2/24 21/21/2 20/20/1
f 22/22/6 21/21/2 2/2/24 3/3/25
f 4/4/7 22/22/6 3/3/25
f 18/18/16 24/24/15 23/23/14 9/9/17
f 25/25/22 24/24/15 18/18/16 14/14/20
s 3
f 45/26/26 46/27/27 31/28/28 32/29/29
f 30/30/30 47/31/31 29/32/32
f 31/28/28 46/27/27 47/31/31 30/30/30
f 41/33/33 42/34/34 35/35/35 36/36/36
f 44/37/37 45/26/26 32/29/29 33/38/38
f 48/39/39 49/40/40 44/37/37 33/38/38
f 42/34/34 43/41/41 34/42/42 35/35/35
f 38/43/43 42/34/34 41/33/33 37/44/44
f 39/45/45 43/41/41 42/34/34 38/43/43
f 40/46/46 44/37/37 49/40/40 50/47/47
f 26/48/48 45/26/26 44/37/37 40/46/46
f 26/48/48 27/49/49 46/27/27 45/26/26
f 47/31/31 46/27/27 27/49/49 28/50/50
f 29/32/32 47/31/31 28/50/50
f 43/41/41 49/40/40 48/39/39 34/42/42
f 50/47/47 49/40/40 43/41/41 39/45/45
s 5
f 70/51/51 71/52/52 56/53/53 57/54/54
f 55/55/55 72/56/56 54/57/57
f 56/53/53 71/52/52 72/56/56 55/55/55
f 66/58/58 67/59/59 60/60/60 61/61/61
f 69/62/62 70/51/51 57/54/54 58/63/63
f 73/64/64 74/65/65 69/62/62 58/63/63
f 67/59/59 68/66/66 59/67/67 60/60/60
f 63/68/68 67/59/59 66/58/58 62/69/69
f 64/70/70 68/66/66 67/59/59 63/68/68
f 65/71/71 69/62/62 74/65/65 75/72/72
f 51/73/73 70/51/51 69/62/62 65/71/71
f 51/73/73 52/74/74 71/52/52 70/51/51
f 72/56/56 71/52/52 52/74/74 53/75/75
f 54/57/57 72/56/56 53/75/75
f 68/66/66 74/65/65 73/64/64 59/67/67
f 75/72/72 74/65/65 68/66/66 64/70/70
s 7
f 95/76/76 96/77/77 81/78/78 82/79/79
f 80/80/80 97/81/81 79/82/82
f 81/78/78 96/77/77 97/81/81 80/80/80
f 91/83/83 92/84/84 85/85/85 86/86/86
f 94/87/87 95/76/76 82/79/79 83/88/88
f 98/89/89 99/90/90 94/87/87 83/88/88
f 92/84/84 93/91/91 84/92/92 85/85/85
f 88/93/93 92/84/84 91/83/83 87/94/94
f 89/95/95 93/91/91 92/84/84 88/93/93
f 90/96/96 94/87/87 99/90/90 100/97/97
f 76/98/98 95/76/76 94/87/87 90/96/96
f 76/98/98 77/99/99 96/77/77 95/76/76
f 97/81/81 96/77/77 77/99/99 78/100/100
f 79/82/82 97/81/81 78/100/100
f 93/91/91 99/90/90 98/89/89 84/92/92
f 100/97/97 99/90/90 93/91/91 89/95/95
s 9
f 120/101/101 121/102/102 106/103/103 107/104/104
f 105/105/105 122/106/106 104/107/107
f 106/103/103 121/102/102 122/106/106 105/105/105
f 116/108/108 117/109/109 110/110/110 111/111/111
f 119/112/112 120/101/101 107/104/104 108/113/113
f 123/114/114 124/115/115 119/112/112 108/113/113
f 117/109/109 118/116/116 109/117/117 110/110/110
f 113/118/118 117/109/109 116/108/108 112/119/119
f 114/120/120 118/116/116 117/109/109 113/118/118
f 115/121/121 119/112/112 124/115/115 125/122/122
f 101/123/123 120/101/101 119/112/112 115/121/121
f 101/123/123 102/124/124 121/102/102 120/101/101
f 122/106/106 121/102/102 102/124/124 103/125/125
f 104/107/107 122/106/106 103/125/125
f 118/116/116 124/115/115 123/114/114 109/117/117
f 125/122/122 124/115/115 118/116/116 114/120/120
s 11
f 145/126/126 146/127/127 131/128/128 132/129/129
f 130/130/130 147/131/131 129/132/132
f 131/128/128 146/127/127 147/131/131 130/130/130
f 141/133/133 142/134/134 135/135/135 136/136/136
f 144/137/137 145/126/126 132/129/129 133/138/138
f 148/139/139 149/140/140 144/137/137 133/138/138
f 142/134/134 143/141/141 134/142/142 135/135/135
f 138/143/143 142/134/134 141/133/133 137/144/144
f 139/145/145 143/141/141 142/134/134 138/143/143
f 140/146/146 144/137/137 149/140/140 150/147/147
f 126/148/148 145/126/126 144/137/137 140/146/146
f 126/148/148 127/149/149 146/127/127 145/126/126
f 147/131/131 146/127/127 127/149/149 128/150/150
f 129/132/132 147/131/131 128/150/150
f 143/141/141 149/140/140 148/139/139 134/142/142
f 150/147/147 149/140/140 143/141/141 139/145/145
s 13
f 170/151/151 171/152/152 156/153/153 157/154/154
f 155/155/155 172/156/156 154/157/157
f 156/153/153 171/152/152 172/156/156 155/155/155
f 166/158/158 167/159/159 160/160/160 161/161/161
f 169/162/162 170/151/151 157/154/154 158/163/163
f 173/164/164 174/165/165 169/162/162 158/163/163
f 167/159/159 168/166/166 159/167/167 160/160/160
f 163/168/168 167/159/159 166/158/158 162/169/169
f 164/170/170 168/166/166 167/159/159 163/168/168
f 165/171/171 169/162/162 174/165/165 175/172/172
f 151/173/173 170/151/151 169/162/162 165/171/171
f 151/173/173 152/174/174 171/152/152 170/151/151
f 172/156/156 171/152/152 152/174/174 153/175/175
f 154/157/157 172/156/156 153/175/175
f 168/166/166 174/165/165 173/164/164 159/167/167
f 175/172/172 174/165/165 168/166/166 164/170/170
s 15
f 195/176/176 196/177/177 181/178/178 182/179/179
f 180/180/180 197/181/181 179/182/182
f 181/178/178 196/177/177 197/181/181 180/180/180
f 191/183/183 192/184/184 185/185/185 186/186/186
f 194/187/187 195/176/176 182/179/179 183/188/188
f 198/189/189 199/190/190 194/187/187 183/188/188
f 192/184/184 193/191/191 184/192/192 185/185/185
f 188/193/193 192/184/184 191/183/183 187/194/194
f 189/195/195 193/191/191 192/184/184 188/193/193
f 190/196/196 194/187/187 199/190/190 200/197/197
f 176/198/198 195/176/176 194/187/187 190/196/196
f 176/198/198 177/199/199 196/177/177 195/176/176
f 197/181/181 196/177/177 177/199/199 178/200/200
f 179/182/182 197/181/181 178/200/200
f 193/191/191 199/190/190 198/189/189 184/192/192
f 200/197/197 199/190/190 193/191/191 189/195/195
