# This file uses centimeters as units for non-parametric coordinates.

mtllib fol_leafy_patch_low.mtl
g default
v -0.066927 0.074071 -0.539921
v 0.091520 0.095306 -0.504275
v 0.101784 0.178828 -0.380399
v -0.055763 0.200744 -0.352161
v -0.159678 0.151474 -0.427842
v -0.022561 0.104959 -0.391401
v 0.146602 0.056394 -0.459019
v 0.288321 0.034778 -0.365541
v 0.320171 0.083047 -0.254959
v 0.216910 0.162053 -0.216421
v 0.130170 0.178882 -0.267568
v 0.063455 0.138565 -0.396706
v 0.267785 0.123128 -0.235408
v 0.227988 0.123123 -0.333909
v 0.104421 0.098081 -0.427407
v 0.266139 0.046447 -0.271934
v 0.338669 -0.014515 -0.005985
v 0.266196 0.056159 0.182894
v 0.107650 0.201037 0.142834
v 0.057243 0.244065 -0.011197
v 0.107471 0.192573 -0.259101
v 0.185763 0.129657 0.162571
v 0.243711 0.139933 -0.005549
v 0.185644 0.120579 -0.265424
v -0.073762 0.177856 -0.065140
v 0.071136 0.193508 0.180145
v -0.019230 0.156599 0.378359
v -0.271174 0.097061 0.369999
v -0.368188 0.084743 0.229563
v -0.319566 0.115796 -0.021900
v -0.147045 0.126395 0.374118
v -0.170660 0.174519 0.215600
v -0.198462 0.146372 -0.043203
v 0.106865 0.183616 -0.226908
v 0.244254 0.189900 0.065801
v 0.106973 0.194494 0.279786
v -0.193353 0.193703 0.242958
v -0.288835 0.190073 0.073841
v -0.193691 0.184091 -0.204805
v -0.045386 0.194093 0.261102
v -0.026135 0.234040 0.072438
v -0.045611 0.183857 -0.215695
v -0.109826 0.192893 -0.331596
v -0.003348 0.203925 -0.299627
v -0.000411 0.240625 -0.193281
v -0.108357 0.248505 -0.170446
v -0.176485 0.225787 -0.236276
v -0.081921 0.192659 -0.225345
v 0.082297 0.033274 -0.508997
v 0.203704 0.141052 -0.304814
v 0.082670 0.207499 -0.142250
v -0.182386 0.179242 -0.152109
v -0.266741 0.116135 -0.269177
v -0.182930 0.025267 -0.476188
v -0.051797 0.193164 -0.147252
v -0.040571 0.158230 -0.313258
v -0.052256 0.029212 -0.492352
v -0.122820 0.222037 -0.209680
v -0.113887 0.180896 0.044203
v -0.250830 0.096601 0.131166
v -0.422778 0.037224 -0.018216
v -0.437658 0.057321 -0.171581
v -0.309804 0.148015 -0.319521
v -0.338061 0.066478 0.055383
v -0.307154 0.141771 -0.052088
v -0.217679 0.184485 -0.265404
v -0.108527 0.277827 0.012421
v -0.002367 0.268151 0.046370
v -0.000146 0.246206 0.161486
v -0.108141 0.244660 0.186879
v -0.175760 0.260177 0.116032
v -0.083353 0.228299 0.089482
v -0.061975 0.267027 -0.212141
v 0.094617 0.263350 -0.158893
v 0.098936 0.267986 0.017212
v -0.059815 0.274196 0.054709
v -0.160007 0.274510 -0.054496
v -0.024467 0.221272 -0.070484
v 0.138165 0.208191 -0.288796
v 0.220950 0.192112 -0.258543
v 0.223234 0.194284 -0.161292
v 0.139306 0.211955 -0.141455
v 0.086337 0.221118 -0.202294
v 0.148211 0.180377 -0.210431
v -0.367653 0.176491 -0.106003
v -0.272036 0.259770 -0.053988
v -0.241830 0.249730 0.119049
v -0.324326 0.158840 0.156205
v -0.397365 0.110863 0.049093
v -0.263960 0.163122 0.016517
v -0.278255 0.201866 -0.285534
v -0.211445 0.241790 -0.267834
v -0.211241 0.257047 -0.173218
v -0.279832 0.223988 -0.141855
v -0.321874 0.192353 -0.193677
v -0.236843 0.202284 -0.206413
v 0.140805 0.244406 -0.052851
v 0.235029 0.212278 -0.014886
v 0.237629 0.214609 0.104766
v 0.142105 0.248866 0.128407
v 0.081818 0.268039 0.053086
v 0.142643 0.209297 0.043602
vt 0.293128 0.187981
vt 0.373003 0.151320
vt 0.365532 0.057993
vt 0.279488 0.046802
vt 0.232543 0.109978
vt 0.307149 0.112416
vt 0.351136 0.859385
vt 0.340501 0.973453
vt 0.281392 0.967609
vt 0.246142 0.855163
vt 0.345379 0.782681
vt 0.286024 0.788456
vt 0.459248 0.863732
vt 0.406497 0.776735
vt 0.401364 0.979470
vt 0.351136 0.859385
vt 0.340501 0.973453
vt 0.281392 0.967609
vt 0.246142 0.855163
vt 0.345379 0.782681
vt 0.286024 0.788456
vt 0.459248 0.863732
vt 0.406497 0.776735
vt 0.401364 0.979470
vt 0.351136 0.859385
vt 0.340501 0.973453
vt 0.281392 0.967609
vt 0.246142 0.855163
vt 0.345379 0.782681
vt 0.286024 0.788456
vt 0.459248 0.863732
vt 0.406497 0.776735
vt 0.401364 0.979470
vt 0.351136 0.859385
vt 0.340501 0.973453
vt 0.281392 0.967609
vt 0.246142 0.855163
vt 0.345379 0.782681
vt 0.286024 0.788456
vt 0.459248 0.863732
vt 0.406497 0.776735
vt 0.401364 0.979470
vt 0.373003 0.151320
vt 0.307149 0.112416
vt 0.365532 0.057993
vt 0.293128 0.187981
vt 0.232543 0.109978
vt 0.279488 0.046802
vt 0.351136 0.859385
vt 0.340501 0.973453
vt 0.281392 0.967609
vt 0.246142 0.855163
vt 0.345379 0.782681
vt 0.286024 0.788456
vt 0.459248 0.863732
vt 0.406497 0.776735
vt 0.401364 0.979470
vt 0.351136 0.859385
vt 0.340501 0.973453
vt 0.281392 0.967609
vt 0.246142 0.855163
vt 0.345379 0.782681
vt 0.286024 0.788456
vt 0.459248 0.863732
vt 0.406497 0.776735
vt 0.401364 0.979470
vt 0.373003 0.151320
vt 0.307149 0.112416
vt 0.365532 0.057993
vt 0.293128 0.187981
vt 0.232543 0.109978
vt 0.279488 0.046802
vt 0.373003 0.151320
vt 0.307149 0.112416
vt 0.365532 0.057993
vt 0.293128 0.187981
vt 0.232543 0.109978
vt 0.279488 0.046802
vt 0.373003 0.151320
vt 0.307149 0.112416
vt 0.365532 0.057993
vt 0.293128 0.187981
vt 0.232543 0.109978
vt 0.279488 0.046802
vt 0.373003 0.151320
vt 0.307149 0.112416
vt 0.365532 0.057993
vt 0.293128 0.187981
vt 0.232543 0.109978
vt 0.279488 0.046802
vt 0.373003 0.151320
vt 0.307149 0.112416
vt 0.365532 0.057993
vt 0.293128 0.187981
vt 0.232543 0.109978
vt 0.279488 0.046802
vt 0.373003 0.151320
vt 0.307149 0.112416
vt 0.365532 0.057993
vt 0.293128 0.187981
vt 0.232543 0.109978
vt 0.279488 0.046802
vn -0.247149 0.911858 -0.327769
vn 0.019073 0.814297 -0.580135
vn -0.336557 0.665723 -0.665990
vn 0.130876 0.962114 -0.239184
vn 0.393972 0.778246 -0.488999
vn 0.143918 0.417450 -0.897231
vn 0.433018 0.768955 -0.470324
vn 0.341335 0.764670 -0.546599
vn 0.258159 0.844815 -0.468658
vn 0.314268 0.862413 -0.396836
vn 0.525804 0.789258 -0.317178
vn 0.413297 0.875302 -0.251063
vn 0.515855 0.673534 -0.529383
vn 0.619162 0.691635 -0.371859
vn 0.433689 0.646957 -0.627184
vn 0.687893 0.725662 -0.014776
vn 0.667620 0.731938 -0.136197
vn 0.549565 0.826233 -0.123763
vn 0.549688 0.834925 -0.027264
vn 0.663534 0.729336 0.166706
vn 0.536506 0.830465 0.149968
vn 0.788506 0.614567 -0.023783
vn 0.772149 0.609730 0.178929
vn 0.782547 0.605116 -0.146477
vn -0.229472 0.970321 0.076286
vn -0.240192 0.970414 -0.024598
vn -0.354218 0.935118 -0.009127
vn -0.348701 0.934135 0.076153
vn -0.202997 0.952925 0.225227
vn -0.330352 0.912162 0.242546
vn -0.131899 0.989832 0.053257
vn -0.111472 0.971188 0.210639
vn -0.142061 0.989156 -0.037275
vn 0.005194 0.999771 -0.020775
vn -0.001059 0.992976 -0.118314
vn -0.108520 0.987723 -0.112365
vn -0.110283 0.993453 -0.029824
vn 0.003501 0.992129 0.125171
vn -0.111550 0.986011 0.123853
vn 0.099221 0.994564 -0.031599
vn 0.098581 0.987246 0.125006
vn 0.098470 0.987559 -0.122598
vn -0.249429 0.961170 -0.118058
vn 0.003227 0.941574 -0.336790
vn -0.299998 0.827294 -0.474960
vn 0.099926 0.994704 -0.024056
vn 0.346094 0.893311 -0.286731
vn 0.118828 0.724106 -0.679375
vn -0.075917 0.899044 -0.431227
vn -0.082606 0.847214 -0.524790
vn -0.194443 0.836318 -0.512605
vn -0.189674 0.886422 -0.422232
vn -0.072764 0.955429 -0.286112
vn -0.178904 0.943063 -0.280403
vn 0.017846 0.899936 -0.435657
vn 0.017422 0.957357 -0.288381
vn 0.017879 0.847809 -0.530001
vn -0.441386 0.882269 0.163644
vn -0.401988 0.912813 0.071959
vn -0.492234 0.870098 0.025192
vn -0.528759 0.844618 0.083871
vn -0.493439 0.816169 0.300643
vn -0.612073 0.754085 0.238167
vn -0.352084 0.914981 0.197099
vn -0.414840 0.845609 0.335935
vn -0.311905 0.943067 0.115495
vn -0.254200 0.899903 0.354341
vn 0.037005 0.976792 0.210970
vn -0.209046 0.977904 -0.001630
vn 0.149793 0.853279 0.499477
vn 0.359450 0.921981 0.144039
vn 0.109888 0.984402 -0.137395
vn -0.224957 0.961987 0.154839
vn 0.038800 0.999093 -0.017536
vn -0.219801 0.954952 -0.199386
vn 0.134257 0.952826 0.272209
vn 0.361703 0.931608 -0.035730
vn 0.119944 0.926125 -0.357638
vn -0.063285 0.987383 0.145155
vn 0.217905 0.975847 -0.015509
vn -0.056471 0.979940 -0.191123
vn 0.277908 0.915954 0.289474
vn 0.546262 0.836834 -0.036154
vn 0.267104 0.888795 -0.372422
vn -0.843722 0.268552 0.464773
vn -0.726170 0.662403 0.184118
vn -0.907810 0.395869 -0.138450
vn -0.462855 0.749376 0.473499
vn -0.338985 0.934273 0.110563
vn -0.582879 0.779922 -0.227979
vn -0.702970 0.693972 0.155680
vn -0.506105 0.852127 -0.133184
vn -0.743834 0.564584 -0.357709
vn -0.314394 0.935778 0.159612
vn -0.138143 0.977376 -0.160167
vn -0.333435 0.804010 -0.492330
vn 0.059935 0.987614 0.145005
vn 0.357960 0.933652 -0.012589
vn 0.068388 0.979158 -0.191242
vn 0.389951 0.867655 0.308403
vn 0.691265 0.721679 -0.036512
vn 0.381516 0.838590 -0.388860
s 1
g polySurface82
usemtl lambert2SG
f 2/2/1 6/6/2 3/3/3
f 1/1/4 5/5/5 6/6/2
f 1/1/4 6/6/2 2/2/1
f 3/3/3 6/6/2 4/4/6
f 4/4/6 6/6/2 5/5/5
s 3
f 14/7/7 15/8/8 12/9/9 11/10/10
f 13/11/11 14/7/7 11/10/10 10/12/12
f 8/13/13 14/7/7 13/11/11 9/14/14
f 7/15/15 15/8/8 14/7/7 8/13/13
s 4
f 23/16/16 24/17/17 21/18/18 20/19/19
f 22/20/20 23/16/16 20/19/19 19/21/21
f 17/22/22 23/16/16 22/20/20 18/23/23
f 16/24/24 24/17/17 23/16/16 17/22/22
s 5
f 32/25/25 33/26/26 30/27/27 29/28/28
f 31/29/29 32/25/25 29/28/28 28/30/30
f 26/31/31 32/25/25 31/29/29 27/32/32
f 25/33/33 33/26/26 32/25/25 26/31/31
s 6
f 41/34/34 42/35/35 39/36/36 38/37/37
f 40/38/38 41/34/34 38/37/37 37/39/39
f 35/40/40 41/34/34 40/38/38 36/41/41
f 34/42/42 42/35/35 41/34/34 35/40/40
s 7
f 44/43/43 48/44/44 45/45/45
f 43/46/46 47/47/47 48/44/44
f 43/46/46 48/44/44 44/43/43
f 45/45/45 48/44/44 46/48/48
f 46/48/48 48/44/44 47/47/47
s 9
f 56/49/49 57/50/50 54/51/51 53/52/52
f 55/53/53 56/49/49 53/52/52 52/54/54
f 50/55/55 56/49/49 55/53/53 51/56/56
f 49/57/57 57/50/50 56/49/49 50/55/55
s 10
f 65/58/58 66/59/59 63/60/60 62/61/61
f 64/62/62 65/58/58 62/61/61 61/63/63
f 59/64/64 65/58/58 64/62/62 60/65/65
f 58/66/66 66/59/59 65/58/58 59/64/64
s 11
f 68/67/67 72/68/68 69/69/69
f 67/70/70 71/71/71 72/68/68
f 67/70/70 72/68/68 68/67/67
f 69/69/69 72/68/68 70/72/72
f 70/72/72 72/68/68 71/71/71
s 13
f 74/73/73 78/74/74 75/75/75
f 73/76/76 77/77/77 78/74/74
f 73/76/76 78/74/74 74/73/73
f 75/75/75 78/74/74 76/78/78
f 76/78/78 78/74/74 77/77/77
s 15
f 80/79/79 84/80/80 81/81/81
f 79/82/82 83/83/83 84/80/80
f 79/82/82 84/80/80 80/79/79
f 81/81/81 84/80/80 82/84/84
f 82/84/84 84/80/80 83/83/83
s 17
f 86/85/85 90/86/86 87/87/87
f 85/88/88 89/89/89 90/86/86
f 85/88/88 90/86/86 86/85/85
f 87/87/87 90/86/86 88/90/90
f 88/90/90 90/86/86 89/89/89
s 19
f 92/91/91 96/92/92 93/93/93
f 91/94/94 95/95/95 96/92/92
f 91/94/94 96/92/92 92/91/91
f 93/93/93 96/92/92 94/96/96
f 94/96/96 96/92/92 95/95/95
s 21
f 98/97/97 102/98/98 99/99/99
f 97/100/100 101/101/101 102/98/98
f 97/100/100 102/98/98 98/97/97
f 99/99/99 102/98/98 100/102/102
f 100/102/102 102/98/98 101/101/101
