# This file uses centimeters as units for non-parametric coordinates.

mtllib fol_treetrunk_low.mtl
g default
v 0.352117 0.033406 -0.419134
v 0.004601 0.031066 -0.591527
v -0.344319 0.021410 -0.419836
v -0.429327 -0.074069 -0.184087
v -0.322563 0.009561 0.288758
v 0.035019 0.014549 0.394334
v 0.292888 0.021477 0.278412
v 0.445444 0.030176 -0.055447
v 0.021540 0.021868 -0.042514
v 0.402491 0.416126 -0.347578
v 0.442099 0.760176 -0.329827
v 0.446843 1.063601 -0.323359
v 0.376651 1.390847 -0.368448
v 0.290042 1.520913 -0.380449
v 0.119111 1.659863 -0.417949
v 0.031498 1.675613 -0.388630
v -0.015941 1.695895 -0.375982
v -0.050720 1.775958 -0.374528
v -0.032115 2.011748 -0.398406
v 0.137070 4.223048 -0.201280
v 0.125937 5.125019 -0.145107
v 0.124605 0.502283 -0.476433
v 0.177778 0.821696 -0.442998
v 0.204338 1.097841 -0.432402
v 0.213597 1.371704 -0.475097
v 0.192931 1.460618 -0.449659
v 0.107447 1.521946 -0.438761
v 0.001036 1.530756 -0.422557
v -0.068120 1.563538 -0.403223
v -0.160794 1.742684 -0.420853
v -0.133677 2.019977 -0.442333
v 0.076133 4.227275 -0.226603
v 0.106907 5.125767 -0.153018
v -0.144912 0.596397 -0.336179
v -0.079515 0.879467 -0.335510
v -0.019556 1.107428 -0.328012
v -0.009192 1.303937 -0.366138
v -0.007786 1.372010 -0.359670
v -0.021691 1.407233 -0.350723
v -0.050564 1.410463 -0.336704
v -0.121176 1.452299 -0.325421
v -0.267709 1.707774 -0.367803
v -0.232339 2.026670 -0.395058
v 0.016933 4.230585 -0.197306
v 0.088417 5.126230 -0.143886
v -0.216748 0.573276 -0.024426
v -0.178219 0.899193 -0.043110
v -0.111917 1.113882 -0.090937
v -0.100879 1.237299 -0.120449
v -0.094997 1.284483 -0.132657
v -0.097201 1.316808 -0.141225
v -0.109368 1.321649 -0.141404
v -0.174454 1.385208 -0.154595
v -0.308617 1.691559 -0.239368
v -0.270309 2.027909 -0.284299
v -0.005852 4.231036 -0.130551
v 0.081301 5.126136 -0.123060
v -0.126340 0.579537 0.289733
v -0.061070 0.869619 0.244987
v -0.006158 1.094475 0.177350
v 0.013754 1.287687 0.127869
v 0.017320 1.343674 0.079504
v -0.009943 1.372029 0.042750
v -0.051549 1.370639 0.018553
v -0.135128 1.423627 -0.023149
v -0.259802 1.703671 -0.118756
v -0.225369 2.022982 -0.175792
v 0.021125 4.228367 -0.065441
v 0.089725 5.125538 -0.102741
v 0.150867 0.478441 0.408742
v 0.203897 0.807749 0.379078
v 0.227855 1.085265 0.312501
v 0.221286 1.361739 0.246004
v 0.205879 1.445633 0.154373
v 0.122948 1.503885 0.087144
v 0.015708 1.511710 0.048623
v -0.055034 1.550130 -0.000032
v -0.149899 1.737038 -0.077956
v -0.123847 2.014775 -0.133147
v 0.082061 4.224140 -0.040118
v 0.108756 5.124791 -0.094830
v 0.417856 0.511101 0.270788
v 0.460567 0.750316 0.251469
v 0.463589 1.054707 0.203541
v 0.395076 1.384303 0.123531
v 0.309319 1.500881 0.042212
v 0.121814 1.656377 -0.012006
v 0.041421 1.670607 -0.068942
v -0.007249 1.691519 -0.097668
v -0.043137 1.772030 -0.135961
v -0.025187 2.008083 -0.180538
v 0.141261 4.220830 -0.069415
v 0.127245 5.124327 -0.103962
v 0.505702 0.370269 -0.047979
v 0.559206 0.730623 -0.043062
v 0.554245 1.045762 -0.061504
v 0.465076 1.395066 -0.127378
v 0.326855 1.544628 -0.183182
v 0.114858 1.749731 -0.243097
v 0.048039 1.744174 -0.246830
v 0.009052 1.752052 -0.249366
v -0.001986 1.788114 -0.256543
v 0.012824 2.006821 -0.289898
v 0.164046 4.220379 -0.136171
v 0.134362 5.124423 -0.124787
v -0.042176 1.735205 -0.386326
v 0.000098 1.768967 -0.252889
v -0.033340 1.730687 -0.106029
v -0.122733 1.642695 -0.026232
v -0.215751 1.556556 -0.061421
v -0.258069 1.522816 -0.196218
v -0.224967 1.561280 -0.353978
v -0.135406 1.649181 -0.428337
v 0.218306 1.577486 -0.384545
v 0.237941 1.574592 0.009682
v 0.179656 1.468336 0.127051
v 0.006043 1.354768 0.064908
v -0.096206 1.297781 -0.136135
v -0.012852 1.386209 -0.356273
v 0.164929 1.485084 -0.445286
v 0.328408 1.468581 -0.366280
v 0.384664 1.480677 -0.157284
v 0.335628 1.451399 0.072702
v 0.213379 1.413349 0.191366
v 0.015684 1.324119 0.100360
v -0.097709 1.262856 -0.126762
v -0.009330 1.347159 -0.364476
v 0.203278 1.425732 -0.460704
v 0.141509 1.668189 -0.367768
v 0.128302 1.738652 -0.236223
v 0.153541 1.679857 -0.046512
v 0.126706 1.501849 0.089276
v -0.009280 1.371041 0.043967
v -0.097174 1.315813 -0.140954
v -0.021158 1.406103 -0.351038
v 0.111156 1.519907 -0.439096
v 0.246700 1.552272 -0.333779
v 0.309463 1.561352 -0.184934
v 0.275255 1.553729 -0.067280
v 0.202459 1.448973 0.150326
v 0.015769 1.345325 0.077362
v -0.095200 1.286458 -0.133170
v -0.008504 1.374103 -0.359186
v 0.189224 1.464235 -0.449030
v 0.248428 1.650317 -0.306976
v 0.221445 1.744892 -0.290864
v 0.208698 1.811117 -0.212442
v 0.255226 1.665071 -0.060828
v 0.210910 1.757186 -0.100068
v 0.273982 1.619181 -0.278743
v 0.333311 1.639656 -0.184885
v 0.291440 1.637054 -0.110409
v 0.268101 1.826601 -0.234202
v 0.240601 1.880962 -0.225419
v 0.221539 1.918605 -0.183724
v 0.249821 1.834679 -0.064639
v 0.228453 1.887595 -0.100930
v 0.282931 1.806885 -0.218782
v 0.308632 1.821039 -0.170072
v 0.283193 1.819581 -0.130805
v 0.180177 2.443428 -0.165426
v 0.190138 2.453598 -0.146020
v 0.170529 2.461476 -0.162492
v 0.165565 2.474009 -0.148686
v 0.181252 2.446481 -0.122490
v 0.171298 2.463914 -0.129248
v 0.186337 2.436903 -0.160345
v 0.204351 2.441793 -0.144477
v 0.194197 2.441274 -0.131377
v 0.395713 0.397363 -0.348690
v 0.582759 0.281879 0.104298
v 0.409206 0.479593 0.304477
v 0.220131 0.424603 0.411897
v -0.306808 0.332407 0.186462
v -0.238664 0.439626 -0.017875
v -0.275992 0.402893 -0.165594
v 0.103667 0.419518 -0.499634
v 0.487898 0.125947 0.108865
v 0.060887 0.172613 0.476089
v -0.361429 0.186435 0.229085
v -0.330276 0.281111 -0.262465
v 0.047309 0.194516 -0.574565
v 0.471022 0.048714 0.107238
v 0.393389 0.047032 0.333322
v 0.029148 0.009009 0.483899
v -0.329481 0.019615 0.225515
v -0.405238 -0.011807 -0.119893
v -0.379838 0.082659 -0.243506
v 0.013779 0.066193 -0.587882
v -0.389103 0.136045 0.138234
v -0.338855 0.295667 0.116414
v -0.285472 0.414196 -0.013712
v -0.368985 0.247274 -0.271881
v -0.321328 0.376846 -0.172625
v -0.433458 0.009000 0.039934
v -0.445939 -0.011046 -0.120903
v -0.419233 0.087651 -0.250061
v -0.480278 0.166133 0.104967
v -0.456104 0.297006 0.087415
v -0.439638 0.379987 -0.018612
v -0.469567 0.257444 -0.231993
v -0.448531 0.361573 -0.150852
v -0.501314 0.062005 0.023826
v -0.506891 0.045620 -0.108477
v -0.493741 0.126572 -0.214441
v -0.587163 0.083022 0.021950
v -0.637186 0.146370 0.009524
v -0.662530 0.185674 -0.044626
v -0.602952 0.127626 -0.145355
v -0.648350 0.177911 -0.108779
v -0.541765 0.032741 -0.014626
v -0.527585 0.024978 -0.078779
v -0.552929 0.064278 -0.132929
v -0.719158 -0.047430 -0.028662
v -0.713151 -0.022732 -0.031995
v -0.709928 -0.007455 -0.051983
v -0.716646 -0.030206 -0.092190
v -0.711375 -0.010553 -0.076916
v -0.724429 -0.067084 -0.043936
v -0.725877 -0.070181 -0.068869
v -0.722653 -0.054905 -0.088857
v -0.815193 -0.043983 -0.045423
v -0.814761 -0.040897 -0.057471
v -0.812915 -0.034613 -0.046687
v -0.811692 -0.028818 -0.054269
v -0.814241 -0.037449 -0.069521
v -0.812241 -0.029994 -0.063728
v -0.817192 -0.051436 -0.051217
v -0.817742 -0.052612 -0.060675
v -0.816519 -0.046818 -0.068257
v -0.623029 0.007224 -0.001885
v -0.600465 -0.029256 -0.028861
v -0.593328 -0.034916 -0.075340
v -0.605797 -0.006442 -0.114094
v -0.630570 0.039489 -0.122423
v -0.653134 0.075969 -0.095447
v -0.660272 0.081630 -0.048968
v -0.647802 0.053155 -0.010213
v 0.558127 0.118389 0.389152
v 0.504530 0.292808 0.285758
v 0.371875 0.439047 0.430443
v 0.191463 0.201595 0.714125
v 0.235163 0.374279 0.572267
v 0.509754 0.059805 0.507570
v 0.382457 0.053220 0.651683
v 0.247545 0.058273 0.600523
v 0.604590 0.195205 0.512815
v 0.569669 0.312411 0.511784
v 0.468390 0.380745 0.591298
v 0.308186 0.262756 0.785752
v 0.360079 0.360177 0.704779
v 0.552696 0.097784 0.593788
v 0.444387 0.077216 0.707269
v 0.343107 0.145550 0.786783
v 0.602460 0.088085 0.634562
v 0.624762 0.122828 0.681466
v 0.606910 0.143531 0.733720
v 0.509970 0.109639 0.746637
v 0.559362 0.138070 0.760715
v 0.553069 0.059654 0.620485
v 0.505521 0.054191 0.647479
v 0.487669 0.074895 0.699733
v 0.689462 -0.028300 0.851566
v 0.681649 -0.005995 0.849914
v 0.661924 0.006992 0.864155
v 0.633167 -0.015494 0.902521
v 0.641842 0.003059 0.885945
v 0.680788 -0.046852 0.868142
v 0.660705 -0.050786 0.889932
v 0.640982 -0.037799 0.904173
v 0.755288 -0.038260 0.963578
v 0.744649 -0.035995 0.973275
v 0.752324 -0.029800 0.962951
v 0.744842 -0.024874 0.968353
v 0.733933 -0.033403 0.982907
v 0.737225 -0.026366 0.976619
v 0.751997 -0.045299 0.969865
v 0.744380 -0.046791 0.978131
v 0.736898 -0.041863 0.983533
v 0.632208 0.033072 0.735284
v 0.590291 0.002832 0.731921
v 0.544650 -0.003144 0.762514
v 0.522024 0.018643 0.809143
v 0.535666 0.055431 0.844493
v 0.577583 0.085668 0.847856
v 0.623222 0.091646 0.817263
v 0.645849 0.069861 0.770634
v 0.545184 0.159120 -0.240587
v 0.479463 0.057252 -0.263221
v 0.215379 0.178393 -0.585366
v 0.241658 0.067715 -0.583067
v 0.506896 0.370735 -0.519068
v 0.504285 0.193569 -0.380075
v 0.487104 0.089869 -0.413807
v 0.459716 0.035557 -0.568566
v 0.346776 0.216598 -0.614335
v 0.324628 0.095322 -0.623604
v 0.528987 0.369413 -0.650241
v 0.637200 0.176398 -0.588169
v 0.614301 0.085924 -0.648204
v 0.516356 0.034963 -0.757890
v 0.377773 0.186800 -0.691361
v 0.378496 0.073800 -0.741011
v 0.482116 0.230128 -0.829681
v 0.547417 0.113654 -0.792223
v 0.533599 0.059055 -0.828452
v 0.474117 0.047156 -0.894301
v 0.369991 0.119523 -0.853858
v 0.391300 0.051738 -0.884457
v 0.398888 0.178287 -0.930976
v 0.431854 0.150462 -0.991892
v 0.421227 0.121149 -1.008037
v 0.388058 0.050424 -0.984545
v 0.355917 0.080820 -0.925180
v 0.392849 0.053896 -0.957633
v 0.188334 0.129243 -0.946092
v 0.202824 0.123400 -0.972987
v 0.185169 0.112144 -0.959834
v 0.198112 0.110401 -0.980147
v 0.182979 0.100313 -0.969344
v 0.188092 0.092948 -0.946369
v 0.185528 0.080575 -0.957795
v 0.107660 5.125369 -0.123727
vt 0.511915 0.109614
vt 0.579405 0.187773
vt 0.462248 0.176376
vt 0.495213 0.245124
vt 0.523241 0.277186
vt 0.609513 0.286704
vt 0.660165 0.238307
vt 0.659140 0.172382
vt 0.605401 0.108286
vt 0.453782 0.176989
vt 0.468426 0.131726
vt 0.496007 0.430609
vt 0.589504 0.475066
vt 0.560613 0.565007
vt 0.478341 0.526959
vt 0.538723 0.643698
vt 0.465651 0.609282
vt 0.506673 0.738639
vt 0.455092 0.724877
vt 0.497081 0.763708
vt 0.447472 0.761052
vt 0.443947 0.787568
vt 0.489474 0.781919
vt 0.489028 0.784331
vt 0.434012 0.806528
vt 0.443541 0.871021
vt 0.485548 0.828012
vt 0.501697 0.858289
vt 0.445562 0.897927
vt 0.502575 0.888328
vt 0.444550 0.914853
vt 0.492001 0.929958
vt 0.442446 0.931683
vt 0.898980 0.351222
vt 0.931159 0.350155
vt 0.914907 0.406701
vt 0.891826 0.403520
vt 0.878347 0.762770
vt 0.864532 0.760665
vt 0.833267 0.956197
vt 0.830218 0.955172
vt 0.493392 0.289910
vt 0.670955 0.531145
vt 0.634826 0.607557
vt 0.603445 0.677936
vt 0.576128 0.746144
vt 0.569162 0.765683
vt 0.564773 0.777670
vt 0.564451 0.778877
vt 0.559274 0.799244
vt 0.563608 0.810311
vt 0.560610 0.854345
vt 0.542539 0.923779
vt 0.959789 0.350264
vt 0.937195 0.413581
vt 0.892002 0.766191
vt 0.836624 0.957656
vt 0.531238 0.289052
vt 0.756868 0.564336
vt 0.713196 0.648311
vt 0.671557 0.708208
vt 0.646813 0.757499
vt 0.640797 0.770320
vt 0.636354 0.779201
vt 0.636031 0.780045
vt 0.630350 0.793102
vt 0.630508 0.799202
vt 0.622531 0.846359
vt 0.599776 0.921742
vt 0.988643 0.355073
vt 0.960911 0.421828
vt 0.906587 0.770065
vt 0.841081 0.959824
vt 0.598869 0.293188
vt 0.015864 0.562952
vt 0.095667 0.507264
vt 0.133923 0.584121
vt 0.066550 0.645162
vt 0.164407 0.653418
vt 0.100763 0.713955
vt 0.190941 0.718074
vt 0.124066 0.767692
vt 0.197220 0.737577
vt 0.130094 0.780583
vt 0.134402 0.789449
vt 0.200863 0.750345
vt 0.200972 0.751818
vt 0.134720 0.790294
vt 0.140058 0.803210
vt 0.203117 0.776599
vt 0.196941 0.793839
vt 0.140896 0.809033
vt 0.198525 0.841693
vt 0.151597 0.854628
vt 0.218288 0.902304
vt 0.175129 0.927537
vt 0.747619 0.357380
vt 0.773320 0.346090
vt 0.796168 0.410410
vt 0.772133 0.417364
vt 0.807126 0.759083
vt 0.792201 0.758715
vt 0.810540 0.954513
vt 0.806192 0.955446
vt 0.671717 0.256725
vt 0.178428 0.448316
vt 0.209443 0.534910
vt 0.230002 0.608982
vt 0.254470 0.693611
vt 0.263911 0.720480
vt 0.271811 0.739748
vt 0.272208 0.742247
vt 0.273160 0.788400
vt 0.255546 0.822145
vt 0.255232 0.857622
vt 0.263936 0.899446
vt 0.800948 0.345083
vt 0.819409 0.405657
vt 0.821037 0.759080
vt 0.814965 0.953538
vt 0.674695 0.162290
vt 0.278328 0.440928
vt 0.292040 0.508309
vt 0.303483 0.587445
vt 0.315453 0.693798
vt 0.321756 0.731326
vt 0.329559 0.755824
vt 0.352220 0.789254
vt 0.316610 0.842612
vt 0.314894 0.874129
vt 0.316239 0.894307
vt 0.318260 0.911041
vt 0.830686 0.349230
vt 0.842659 0.402100
vt 0.834956 0.759076
vt 0.819834 0.953461
vt 0.645913 0.113360
vt 0.393322 0.406399
vt 0.385850 0.504772
vt 0.384928 0.587715
vt 0.387880 0.705241
vt 0.389025 0.748852
vt 0.389615 0.783801
vt 0.388583 0.792184
vt 0.384156 0.884596
vt 0.382806 0.904614
vt 0.381981 0.917603
vt 0.382019 0.924478
vt 0.863977 0.352227
vt 0.867193 0.401147
vt 0.849755 0.759462
vt 0.825317 0.954024
vt 0.432526 0.944311
vt 0.381935 0.931472
vt 0.329043 0.926855
vt 0.281041 0.935073
vt 0.241997 0.956344
vt 0.207043 0.986171
vt 0.569264 0.985074
vt 0.520659 0.975278
vt 0.476358 0.960829
vt 0.842280 0.051265
vt 0.848315 0.057456
vt 0.845943 0.055238
vt 0.843541 0.054562
vt 0.839775 0.059480
vt 0.840722 0.056910
vt 0.274017 0.757300
vt 0.326907 0.798156
vt 0.332464 0.842594
vt 0.273110 0.786519
vt 0.201536 0.760625
vt 0.202986 0.775738
vt 0.136685 0.795092
vt 0.139898 0.802775
vt 0.562647 0.786038
vt 0.633986 0.784895
vt 0.630527 0.792673
vt 0.559490 0.798506
vt 0.486842 0.798639
vt 0.485640 0.826287
vt 0.442645 0.825225
vt 0.429330 0.864924
vt 0.383731 0.878310
vt 0.854158 0.052491
vt 0.850482 0.057642
vt 0.836303 0.060144
vt 0.832207 0.059621
vt 0.957703 0.270625
vt 0.928174 0.261493
vt 0.926564 0.225680
vt 0.949273 0.240599
vt 0.907672 0.236889
vt 0.903857 0.209383
vt 0.879681 0.257726
vt 0.876346 0.229453
vt 0.862167 0.285654
vt 0.856565 0.254182
vt 0.992373 0.231034
vt 0.973463 0.264111
vt 0.962375 0.238482
vt 0.974210 0.213299
vt 0.842481 0.284257
vt 0.815297 0.277175
vt 0.817454 0.253615
vt 0.839091 0.258110
vt 0.907709 0.186105
vt 0.919938 0.197018
vt 0.892526 0.179524
vt 0.872448 0.193000
vt 0.865099 0.208511
vt 0.927247 0.197925
vt 0.936684 0.186245
vt 0.833802 0.212378
vt 0.845849 0.212658
vt 0.686607 0.061927
vt 0.479747 0.024373
vt 0.478541 0.018958
vt 0.626392 0.033120
vt 0.793053 0.131398
vt 0.800709 0.114230
vt 0.789898 0.252282
vt 0.789897 0.281451
vt 0.607648 0.374582
vt 0.692689 0.391647
vt 0.530616 0.395784
vt 0.525851 0.432286
vt 0.475876 0.359696
vt 0.394170 0.326770
vt 0.380521 0.169432
vt 0.361672 0.166921
vt 0.053914 0.021649
vt 0.049595 0.025002
vt 0.049745 0.018451
vt 0.601438 0.336006
vt 0.698556 0.285688
vt 0.240411 0.107134
vt 0.243902 0.107667
vt 0.243152 0.109562
vt 0.241924 0.110848
vt 0.238408 0.110249
vt 0.240210 0.111024
vt 0.430228 0.175183
vt 0.469100 0.322381
vt 0.444800 0.125415
vt 0.045914 0.024483
vt 0.042971 0.020103
vt 0.244052 0.103267
vt 0.244195 0.105479
vt 0.236705 0.108768
vt 0.235317 0.106858
vt 0.577577 0.362997
vt 0.582184 0.331912
vt 0.531611 0.385008
vt 0.485584 0.352243
vt 0.477686 0.320781
vt 0.558495 0.302386
vt 0.530291 0.296000
vt 0.497922 0.296634
vt 0.348983 0.197583
vt 0.340456 0.243048
vt 0.316410 0.224887
vt 0.323329 0.192756
vt 0.309795 0.283787
vt 0.295175 0.248923
vt 0.263994 0.285375
vt 0.264629 0.253479
vt 0.221619 0.264176
vt 0.235889 0.240779
vt 0.340991 0.120841
vt 0.342091 0.157125
vt 0.319227 0.158521
vt 0.321354 0.124360
vt 0.196252 0.226686
vt 0.183105 0.187892
vt 0.204259 0.183352
vt 0.216339 0.214339
vt 0.281309 0.174441
vt 0.294678 0.160982
vt 0.268688 0.183743
vt 0.254701 0.188184
vt 0.237647 0.187891
vt 0.306868 0.145526
vt 0.313025 0.129427
vt 0.203281 0.174094
vt 0.218735 0.182435
vt 0.272995 0.152492
vt 0.281667 0.142086
vt 0.261301 0.160378
vt 0.248013 0.164678
vt 0.234352 0.163607
vt 0.288359 0.131643
vt 0.294297 0.121673
vt 0.210535 0.153972
vt 0.221844 0.159136
vt 0.259753 0.122465
vt 0.257474 0.129070
vt 0.251919 0.134225
vt 0.244250 0.135829
vt 0.237250 0.133487
vt 0.263741 0.110064
vt 0.261386 0.116039
vt 0.231922 0.129298
vt 0.226689 0.125478
vt 0.189329 0.237538
vt 0.190522 0.241543
vt 0.188675 0.241698
vt 0.186918 0.240860
vt 0.185010 0.237197
vt 0.185629 0.239150
vt 0.194920 0.239026
vt 0.192639 0.240541
vt 0.185127 0.235096
vt 0.185979 0.232685
vt 0.657794 0.098530
vt 0.732247 0.113758
vt 0.708373 0.145046
vt 0.775088 0.182451
vt 0.761846 0.235858
vt 0.727044 0.249752
vt 0.714195 0.170870
vt 0.702305 0.192672
vt 0.703473 0.225628
vt 0.171655 0.405772
vt 0.132033 0.442217
vt 0.122188 0.384422
vt 0.148484 0.374088
vt 0.072805 0.422461
vt 0.090824 0.376573
vt 0.033242 0.384909
vt 0.066336 0.353924
vt 0.019321 0.323773
vt 0.056072 0.327687
vt 0.222528 0.356162
vt 0.185772 0.376006
vt 0.174796 0.351272
vt 0.213852 0.337991
vt 0.017943 0.272448
vt 0.058465 0.266585
vt 0.082800 0.277781
vt 0.061939 0.303844
vt 0.149588 0.323362
vt 0.163958 0.334809
vt 0.137039 0.310735
vt 0.123798 0.300263
vt 0.108577 0.289072
vt 0.178493 0.339150
vt 0.191956 0.337368
vt 0.090454 0.260984
vt 0.095105 0.273970
vt 0.158481 0.297791
vt 0.169973 0.304985
vt 0.148546 0.289289
vt 0.140544 0.280827
vt 0.132335 0.273408
vt 0.182763 0.308560
vt 0.196879 0.308325
vt 0.118029 0.254220
vt 0.124593 0.265304
vt 0.180863 0.270252
vt 0.174566 0.271675
vt 0.167533 0.268652
vt 0.162222 0.262187
vt 0.160468 0.255057
vt 0.194877 0.267046
vt 0.187303 0.267977
vt 0.160834 0.248733
vt 0.159965 0.241605
vt 0.563492 0.061333
vt 0.556932 0.088507
vt 0.055380 0.016413
vt 0.050369 0.011631
vt 0.056156 0.013879
vt 0.157653 0.198627
vt 0.097556 0.250059
vt 0.095286 0.213292
vt 0.128003 0.163613
vt 0.067509 0.250363
vt 0.063600 0.213091
vt 0.028141 0.222873
vt 0.033581 0.179798
vt 0.189635 0.113071
vt 0.158136 0.110784
vt 0.223888 0.062622
vt 0.195431 0.093552
vt 0.172960 0.081390
vt 0.187690 0.046559
vt 0.079179 0.160653
vt 0.116492 0.136239
vt 0.059280 0.150923
vt 0.036022 0.125743
vt 0.141115 0.091636
vt 0.141682 0.059837
vt 0.152558 0.026984
vt 0.061984 0.112568
vt 0.093212 0.092958
vt 0.047066 0.108849
vt 0.039893 0.092181
vt 0.106813 0.053267
vt 0.110135 0.034014
vt 0.123517 0.017590
vt 0.063965 0.064983
vt 0.080492 0.059869
vt 0.055399 0.064140
vt 0.035907 0.064143
vt 0.092345 0.031251
vt 0.100317 0.019574
vt 0.096602 0.013702
vt 0.111782 0.908400
vt 0.115885 0.938643
vt 0.074268 0.926447
vt 0.095812 0.961641
vt 0.063321 0.963920
vt 0.037447 0.944145
vt 0.033344 0.913903
vt 0.053417 0.890906
vt 0.085907 0.888627
vn 0.074683 -0.995751 -0.053870
vn 0.067471 -0.997720 -0.001412
vn -0.072112 -0.964309 -0.254772
vn -0.139234 -0.875967 -0.461840
vn -0.039090 -0.994497 -0.097198
vn 0.066373 -0.994696 0.078574
vn 0.035947 -0.999283 0.011892
vn 0.076802 -0.996833 0.020616
vn 0.126030 -0.991812 -0.020649
vn -0.478270 0.153057 -0.864773
vn -0.034823 -0.657417 -0.752722
vn 0.752533 -0.035539 -0.657595
vn -0.079374 0.027702 -0.996460
vn 0.044212 0.064369 -0.996946
vn 0.740082 -0.031491 -0.671779
vn 0.065675 -0.029016 -0.997419
vn 0.772944 0.040510 -0.633180
vn 0.120910 -0.054463 -0.991168
vn 0.766698 0.140022 -0.626553
vn 0.052729 0.246717 -0.967652
vn 0.727812 0.508968 -0.459610
vn 0.591855 0.629475 -0.503456
vn 0.035586 0.395449 -0.917798
vn 0.153918 0.403126 -0.902108
vn 0.721718 0.481172 -0.497591
vn 0.063562 0.522327 -0.850373
vn 0.003585 0.030117 -0.999540
vn -0.264376 -0.121476 -0.956739
vn -0.080169 0.593213 -0.801044
vn -0.198186 -0.267634 -0.942918
vn 0.319286 0.373533 -0.870936
vn -0.161425 -0.187495 -0.968911
vn 0.500837 0.192413 -0.843884
vn 0.666640 -0.068733 -0.742204
vn -0.169003 -0.055358 -0.984060
vn -0.023539 0.075076 -0.996900
vn 0.708873 -0.008019 -0.705291
vn -0.010203 0.095511 -0.995376
vn 0.728552 0.012793 -0.684871
vn -0.028208 0.082552 -0.996188
vn 0.718093 0.052092 -0.693995
vn -0.693135 0.217640 -0.687165
vn -0.741381 0.105797 -0.662693
vn -0.729643 0.165368 -0.663531
vn -0.694572 0.063659 -0.716601
vn -0.623366 -0.080696 -0.777755
vn -0.689950 0.096016 -0.717461
vn -0.669409 0.117427 -0.733555
vn -0.603316 -0.169305 -0.779324
vn -0.263306 -0.510945 -0.818294
vn -0.429330 -0.616135 -0.660344
vn -0.546352 -0.605636 -0.578536
vn -0.681262 -0.454418 -0.573922
vn -0.820238 -0.068975 -0.567849
vn -0.746242 0.124649 -0.653901
vn -0.750854 0.135588 -0.646401
vn -0.755381 0.098917 -0.647777
vn -0.970725 -0.237627 -0.035008
vn -0.961504 0.270906 0.046046
vn -0.971181 0.233749 0.046573
vn -0.973346 0.227974 0.025007
vn -0.995208 0.097724 -0.003324
vn -0.984270 0.176022 0.015103
vn -0.982871 0.183649 -0.015442
vn -0.981854 -0.155674 0.108302
vn -0.351297 -0.934547 -0.056683
vn -0.602647 -0.797453 -0.029753
vn -0.768387 -0.639295 -0.029713
vn -0.897301 -0.441051 -0.018057
vn -0.999122 -0.028364 0.030846
vn -0.992856 0.118000 0.017720
vn -0.992648 0.112712 0.044122
vn -0.994809 0.096579 0.032068
vn -0.728750 -0.008399 0.684729
vn -0.676159 0.145155 0.722315
vn -0.696578 0.256098 0.670219
vn -0.687630 0.287715 0.666622
vn -0.696792 0.257314 0.669530
vn -0.701463 0.472574 0.533501
vn -0.708324 0.477798 0.519603
vn -0.619005 0.284707 0.731966
vn -0.407125 -0.044230 0.912301
vn -0.530157 -0.314521 0.787407
vn -0.676193 -0.304884 0.670678
vn -0.744833 -0.132727 0.653916
vn -0.782019 0.111210 0.613253
vn -0.727736 0.070731 0.682200
vn -0.705462 0.049995 0.706982
vn -0.713099 0.083454 0.696078
vn -0.459090 -0.503817 0.731714
vn -0.168342 0.007362 0.985701
vn 0.032013 0.166933 0.985448
vn 0.051219 0.260867 0.964015
vn 0.064867 0.352865 0.933423
vn -0.069599 0.725664 0.684520
vn -0.033937 0.772140 0.634545
vn 0.064343 0.780410 0.621949
vn -0.225765 0.460490 0.858475
vn -0.373130 0.326704 0.868354
vn -0.286274 0.257168 0.922991
vn -0.187759 0.278558 0.941887
vn -0.148748 0.261689 0.953621
vn 0.016858 -0.009582 0.999812
vn 0.033897 -0.027762 0.999040
vn 0.036223 0.059526 0.997569
vn 0.106282 -0.992920 0.053057
vn 0.820355 0.063553 0.568312
vn 0.777831 0.000450 0.628473
vn 0.782034 0.185120 0.595108
vn 0.765664 0.373635 0.523599
vn 0.578051 0.726535 0.371487
vn 0.500554 0.784382 0.366320
vn 0.777729 0.478690 0.407423
vn -0.174808 0.697435 0.695001
vn -0.169661 0.771453 0.613250
vn 0.208785 0.670367 0.712051
vn 0.421355 0.533662 0.733256
vn 0.660954 0.165859 0.731867
vn 0.757454 -0.070446 0.649077
vn 0.751497 -0.068556 0.656165
vn 0.762013 0.036553 0.646530
vn 0.588346 -0.808356 0.020243
vn 0.995005 -0.015397 -0.098631
vn 0.997326 -0.066441 -0.030426
vn 0.992292 0.122677 -0.017555
vn 0.946295 0.319412 -0.050017
vn 0.759625 0.650111 -0.018027
vn 0.720359 0.692735 -0.034658
vn 0.924016 0.378238 -0.055956
vn 0.015444 0.999878 0.002367
vn 0.023953 0.999697 -0.005634
vn 0.533228 0.845966 -0.003170
vn 0.910375 0.412921 -0.026715
vn 0.999692 -0.023741 -0.007285
vn 0.996654 -0.066119 -0.048046
vn 0.998488 -0.050351 -0.022057
vn 0.998924 0.033220 -0.032352
vn 0.714916 0.693025 -0.092796
vn 0.128861 0.140319 -0.981685
vn -0.904114 -0.047308 -0.424664
vn -0.996202 -0.081422 -0.030857
vn -0.032151 0.090104 0.995413
vn -0.987249 -0.083318 0.135634
vn 0.096258 0.535585 0.838978
vn 0.420928 0.539525 0.729200
vn -0.064768 0.739924 0.669566
vn -0.064139 0.549088 0.833300
vn -0.643714 0.196062 0.739725
vn -0.697539 0.134037 0.703899
vn -0.986048 -0.159524 0.047558
vn -0.984082 -0.169920 -0.052054
vn -0.588989 -0.209794 -0.780435
vn -0.570368 -0.235484 -0.786910
vn 0.120033 0.141822 -0.982588
vn 0.100943 0.152125 -0.983193
vn 0.494992 0.345504 -0.797251
vn 0.388300 0.567183 -0.726310
vn -0.385224 0.919835 -0.074207
vn 0.982466 0.179601 -0.050034
vn 0.791114 0.172984 -0.586699
vn 0.844600 0.132952 0.518627
vn 0.038944 0.625881 -0.778945
vn 0.657289 0.299078 -0.691754
vn -0.856234 0.512078 -0.068117
vn -0.718948 0.478027 0.504583
vn 0.597310 0.305605 0.741503
vn 0.867596 0.018441 -0.496929
vn 0.994509 0.033608 -0.099111
vn 0.888746 0.028411 0.457518
vn -0.533213 0.154588 -0.831737
vn 0.656452 0.222576 -0.720785
vn -0.996375 -0.043901 -0.072864
vn -0.956885 -0.022960 0.289559
vn 0.580125 0.128867 0.804269
vn 0.810583 0.155667 -0.564556
vn 0.981506 0.162052 -0.101905
vn 0.848877 0.106965 0.517655
vn 0.981148 0.191571 -0.025459
vn 0.682304 0.518086 -0.515799
vn 0.719387 0.586795 0.371691
vn -0.392045 0.493145 0.776601
vn -0.611605 0.409358 0.677027
vn -0.883961 0.464864 0.050156
vn -0.705061 0.446139 -0.551225
vn -0.282319 0.361707 -0.888518
vn -0.215565 0.617379 0.756554
vn -0.165643 0.796466 -0.581553
vn -0.940250 0.301124 -0.158917
vn -0.577271 0.265845 0.772065
vn -0.567181 0.259473 0.781652
vn -0.970507 0.239600 0.026599
vn -0.224348 -0.256394 0.940175
vn -0.227400 0.489085 0.842072
vn -0.243354 0.934944 0.258182
vn -0.281172 0.263996 -0.922631
vn -0.265850 0.845771 -0.462597
vn -0.363623 0.358427 -0.859830
vn -0.569498 0.365407 -0.736309
vn 0.038928 0.445354 -0.894508
vn -0.148305 -0.131267 -0.980191
vn -0.236053 -0.583792 -0.776830
vn -0.257228 -0.934810 -0.244875
vn -0.235699 -0.844558 0.480799
vn -0.277040 -0.483229 -0.830505
vn -0.577320 0.607226 0.545874
vn -0.776530 -0.043940 0.628546
vn -0.415267 0.892643 0.175332
vn -0.266428 0.863701 -0.427829
vn -0.179052 0.273434 -0.945079
vn -0.492410 -0.787040 0.371619
vn -0.410025 -0.893072 -0.185207
vn -0.328550 -0.393330 -0.858689
vn -0.439738 0.532709 0.723085
vn -0.435199 -0.061116 0.898257
vn -0.448272 0.866044 0.221405
vn -0.466789 0.789040 -0.399405
vn -0.480647 0.343680 -0.806760
vn -0.427261 -0.672642 0.604153
vn -0.498263 -0.808427 -0.313338
vn -0.517132 -0.270346 -0.812088
vn -0.670444 0.347656 0.655470
vn -0.374972 -0.190568 0.907237
vn -0.755848 0.630345 0.177088
vn -0.742395 0.558419 -0.370160
vn -0.607806 0.138673 -0.781883
vn 0.338731 -0.717191 0.609015
vn 0.581242 -0.788943 -0.199315
vn -0.173148 -0.445202 -0.878530
vn -0.642382 0.060026 0.764031
vn -0.017877 -0.329559 0.943966
vn -0.978614 0.164152 0.123970
vn -0.852871 0.143249 -0.502087
vn -0.339186 -0.073689 -0.937829
vn 0.390371 -0.758826 0.521339
vn 0.473230 -0.848702 -0.236130
vn 0.197817 -0.513773 -0.834809
vn -0.059737 -0.372026 0.926298
vn -0.425105 0.307785 0.851207
vn -0.718423 0.659345 0.221658
vn -0.647093 0.573725 -0.502105
vn -0.286272 0.056114 -0.956504
vn 0.125003 -0.963488 -0.236782
vn 0.110663 -0.887882 0.446564
vn 0.009895 -0.595689 -0.803155
vn 0.677871 0.287558 0.676610
vn 0.816102 -0.344680 -0.463868
vn 0.735347 0.611584 -0.291942
vn 0.296848 0.950408 0.092767
vn -0.540711 0.260614 0.799820
vn -0.128489 0.875192 0.466400
vn -0.066215 -0.983671 0.167355
vn 0.356987 -0.915736 -0.184356
vn -0.453539 -0.673939 0.583188
vn 0.982265 -0.176552 -0.063135
vn 0.948927 0.308798 0.064665
vn 0.952538 -0.261023 -0.156649
vn 0.323748 0.928898 0.179822
vn -0.406181 0.839791 0.360233
vn -0.731818 0.089782 0.675560
vn 0.375175 -0.926864 0.012895
vn 0.037511 -0.975531 0.216639
vn -0.185003 -0.913158 0.363203
vn 0.807970 0.582201 -0.090703
vn 0.974706 -0.034151 -0.220867
vn 0.435900 0.864474 0.250353
vn -0.034680 0.776031 0.629740
vn -0.353977 0.251872 0.900700
vn 0.527966 -0.839216 -0.130262
vn 0.033428 -0.920924 0.388305
vn -0.253460 -0.549032 0.796443
vn 0.910051 0.393173 0.131234
vn 0.897019 -0.267456 -0.351886
vn 0.631785 0.625093 0.458374
vn 0.314885 0.594269 0.740062
vn -0.024771 0.194643 0.980561
vn 0.064454 -0.748681 -0.659790
vn -0.509854 -0.723708 -0.465077
vn -0.440178 -0.582862 0.683019
vn 0.950986 0.299367 -0.077487
vn 0.765489 -0.417932 -0.489245
vn 0.553079 0.713018 0.430939
vn -0.094212 0.704397 0.703526
vn -0.703469 0.241479 0.668445
vn 0.160747 -0.872506 -0.461403
vn -0.442137 -0.882656 -0.159480
vn -0.838383 -0.464487 0.285245
vn 0.711695 -0.417995 -0.564597
vn 0.888800 0.417554 -0.188899
vn 0.564230 0.746646 0.352368
vn 0.049500 0.670346 0.740396
vn -0.570561 0.033036 0.820591
vn -0.242415 -0.969777 -0.027709
vn 0.181172 -0.913464 -0.364363
vn -0.580638 -0.717895 0.384039
vn 0.997874 -0.019052 -0.062322
vn 0.707748 -0.705762 -0.031499
vn -0.146435 -0.223050 0.963746
vn -0.201332 -0.964474 0.171044
vn 0.947879 0.187400 0.257694
vn 0.369459 0.928745 -0.030537
vn 0.667861 -0.722529 0.178645
vn 0.135491 -0.990531 0.022155
vn -0.533255 0.699999 -0.475016
vn -0.445310 -0.746355 -0.494624
vn 0.982476 0.152838 0.106683
vn 0.469119 0.846834 -0.250596
vn 0.762220 -0.636292 0.118964
vn 0.099838 -0.994862 0.016781
vn -0.768093 0.558871 -0.312565
vn -0.637558 -0.767202 -0.070143
vn 0.848324 0.256868 -0.462996
vn 0.205635 0.786623 -0.582184
vn 0.823821 -0.392887 -0.408607
vn 0.293453 -0.905980 -0.305099
vn -0.912153 0.402810 -0.075642
vn -0.506112 -0.859095 0.076205
vn 0.583308 0.520039 -0.623948
vn -0.010679 0.982898 -0.183840
vn 0.468111 -0.072424 -0.880697
vn 0.167774 -0.598910 -0.783045
vn -0.490022 -0.152458 0.858275
vn -0.232875 -0.970641 0.060212
vn 0.034030 0.999340 0.012745
vn 0.034030 0.999340 0.012745
vn 0.034030 0.999340 0.012745
vn 0.031338 0.999427 0.012775
vn 0.031338 0.999427 0.012775
vn 0.031338 0.999427 0.012775
vn 0.029441 0.999460 0.014586
vn 0.029441 0.999460 0.014586
vn 0.029441 0.999460 0.014586
vn 0.029505 0.999418 0.017115
vn 0.029505 0.999418 0.017115
vn 0.029505 0.999418 0.017115
vn 0.031443 0.999328 0.018846
vn 0.031443 0.999328 0.018846
vn 0.031443 0.999328 0.018846
vn 0.034286 0.999237 0.018717
vn 0.034286 0.999237 0.018717
vn 0.034286 0.999237 0.018717
vn 0.036092 0.999205 0.016938
vn 0.036092 0.999205 0.016938
vn 0.036092 0.999205 0.016938
vn 0.035993 0.999249 0.014363
vn 0.035993 0.999249 0.014363
vn 0.035993 0.999249 0.014363
s 1
g polySurface100
usemtl lambert4SG
f 1/1/1 9/2/2 2/3/3
f 2/3/3 9/2/2 3/4/4
f 3/4/4 9/2/2 4/5/5
f 4/5/5 9/2/2 5/6/6
f 5/6/6 9/2/2 6/7/7
f 6/7/7 9/2/2 7/8/8
f 7/8/8 9/2/2 8/9/9
f 8/9/9 9/2/2 1/1/1
f 1/1/1 2/3/3 189/10/10 291/11/11
f 10/12/12 22/13/13 23/14/14 11/15/15
f 11/15/15 23/14/14 24/16/16 12/17/17
f 12/17/17 24/16/16 25/18/18 13/19/19
f 13/19/19 25/18/18 128/20/20 121/21/21
f 14/22/22 26/23/23 144/24/24 137/25/25
f 15/26/26 27/27/27 28/28/28 16/29/29
f 16/29/29 28/28/28 29/30/30 17/31/31
f 17/31/31 29/30/30 113/32/32 106/33/33
f 18/34/34 30/35/35 31/36/36 19/37/37
f 32/38/38 20/39/39 19/37/37 31/36/36
f 33/40/40 21/41/41 20/39/39 32/38/38
f 2/3/3 3/4/4 188/42/42 189/10/10
f 22/13/13 34/43/43 35/44/44 23/14/14
f 23/14/14 35/44/44 36/45/45 24/16/16
f 24/16/16 36/45/45 37/46/46 25/18/18
f 25/18/18 37/46/46 127/47/47 128/20/20
f 26/23/23 38/48/48 143/49/49 144/24/24
f 27/27/27 39/50/50 40/51/51 28/28/28
f 28/28/28 40/51/51 41/52/52 29/30/30
f 29/30/30 41/52/52 112/53/53 113/32/32
f 30/35/35 42/54/54 43/55/55 31/36/36
f 44/56/56 32/38/38 31/36/36 43/55/55
f 45/57/57 33/40/40 32/38/38 44/56/56
f 3/4/4 4/5/5 187/58/58 188/42/42
f 34/43/43 46/59/59 47/60/60 35/44/44
f 35/44/44 47/60/60 48/61/61 36/45/45
f 36/45/45 48/61/61 49/62/62 37/46/46
f 37/46/46 49/62/62 126/63/63 127/47/47
f 38/48/48 50/64/64 142/65/65 143/49/49
f 39/50/50 51/66/66 52/67/67 40/51/51
f 40/51/51 52/67/67 53/68/68 41/52/52
f 41/52/52 53/68/68 111/69/69 112/53/53
f 42/54/54 54/70/70 55/71/71 43/55/55
f 56/72/72 44/56/56 43/55/55 55/71/71
f 57/73/73 45/57/57 44/56/56 56/72/72
f 4/5/5 5/6/6 186/74/74 187/58/58
f 46/75/59 58/76/75 59/77/76 47/78/60
f 47/78/60 59/77/76 60/79/77 48/80/61
f 48/80/61 60/79/77 61/81/78 49/82/62
f 49/82/62 61/81/78 125/83/79 126/84/63
f 50/85/64 62/86/80 141/87/81 142/88/65
f 51/89/66 63/90/82 64/91/83 52/92/67
f 52/92/67 64/91/83 65/93/84 53/94/68
f 53/94/68 65/93/84 110/95/85 111/96/69
f 54/97/70 66/98/86 67/99/87 55/100/71
f 68/101/88 56/102/72 55/100/71 67/99/87
f 69/103/89 57/104/73 56/102/72 68/101/88
f 5/6/6 6/7/7 185/105/90 186/74/74
f 58/76/75 70/106/91 71/107/92 59/77/76
f 59/77/76 71/107/92 72/108/93 60/79/77
f 60/79/77 72/108/93 73/109/94 61/81/78
f 61/81/78 73/109/94 124/110/95 125/83/79
f 62/86/80 74/111/96 140/112/97 141/87/81
f 63/90/82 75/113/98 76/114/99 64/91/83
f 64/91/83 76/114/99 77/115/100 65/93/84
f 65/93/84 77/115/100 109/116/101 110/95/85
f 66/98/86 78/117/102 79/118/103 67/99/87
f 80/119/104 68/101/88 67/99/87 79/118/103
f 81/120/105 69/103/89 68/101/88 80/119/104
f 6/7/7 7/8/8 184/121/106 185/105/90
f 70/106/91 82/122/107 83/123/108 71/107/92
f 71/107/92 83/123/108 84/124/109 72/108/93
f 72/108/93 84/124/109 85/125/110 73/109/94
f 73/109/94 85/125/110 123/126/111 124/110/95
f 74/111/96 86/127/112 139/128/113 140/112/97
f 75/113/98 87/129/114 88/130/115 76/114/99
f 76/114/99 88/130/115 89/131/116 77/115/100
f 77/115/100 89/131/116 108/132/117 109/116/101
f 78/117/102 90/133/118 91/134/119 79/118/103
f 92/135/120 80/119/104 79/118/103 91/134/119
f 93/136/121 81/120/105 80/119/104 92/135/120
f 7/8/8 8/9/9 183/137/122 184/121/106
f 82/122/107 94/138/123 95/139/124 83/123/108
f 83/123/108 95/139/124 96/140/125 84/124/109
f 84/124/109 96/140/125 97/141/126 85/125/110
f 85/125/110 97/141/126 122/142/127 123/126/111
f 86/127/112 98/143/128 138/144/129 139/128/113
f 87/129/114 99/145/130 100/146/131 88/130/115
f 88/130/115 100/146/131 101/147/132 89/131/116
f 89/131/116 101/147/132 107/148/133 108/132/117
f 90/133/118 102/149/134 103/150/135 91/134/119
f 104/151/136 92/135/120 91/134/119 103/150/135
f 105/152/137 93/136/121 92/135/120 104/151/136
f 94/138/123 10/12/12 11/15/15 95/139/124
f 95/139/124 11/15/15 12/17/17 96/140/125
f 96/140/125 12/17/17 13/19/19 97/141/126
f 97/141/126 13/19/19 121/21/21 122/142/127
f 98/143/128 14/22/22 137/25/25 138/144/129
f 99/145/130 15/26/26 16/29/29 100/146/131
f 100/146/131 16/29/29 17/31/31 101/147/132
f 101/147/132 17/31/31 106/33/33 107/148/133
f 102/149/134 18/34/34 19/37/37 103/150/135
f 19/37/37 20/39/39 104/151/136 103/150/135
f 20/39/39 21/41/41 105/152/137 104/151/136
f 107/148/133 106/33/33 18/153/34 102/154/134
f 108/132/117 107/148/133 102/154/134 90/155/118
f 109/116/101 108/132/117 90/155/118 78/156/102
f 110/95/85 109/116/101 78/156/102 66/157/86
f 111/96/69 110/95/85 66/157/86 54/158/70
f 112/53/53 111/69/69 54/159/70 42/160/54
f 113/32/32 112/53/53 42/160/54 30/161/35
f 106/33/33 113/32/32 30/161/35 18/153/34
f 162/162/138 161/163/139 163/164/140 164/165/141
f 165/166/142 162/162/138 164/165/141 166/167/143
f 116/168/144 115/169/145 131/170/146 132/171/147
f 117/172/148 116/168/144 132/171/147 133/173/149
f 118/174/150 117/172/148 133/173/149 134/175/151
f 119/176/152 118/177/150 134/178/151 135/179/153
f 120/180/154 119/176/152 135/179/153 136/181/155
f 114/182/156 120/180/154 136/181/155 129/183/157
f 122/142/127 121/21/21 14/22/22 98/143/128
f 123/126/111 122/142/127 98/143/128 86/127/112
f 124/110/95 123/126/111 86/127/112 74/111/96
f 125/83/79 124/110/95 74/111/96 62/86/80
f 126/84/63 125/83/79 62/86/80 50/85/64
f 127/47/47 126/63/63 50/64/64 38/48/48
f 128/20/20 127/47/47 38/48/48 26/23/23
f 121/21/21 128/20/20 26/23/23 14/22/22
f 130/184/158 129/183/157 15/26/26 99/145/130
f 131/170/146 130/184/158 99/145/130 87/129/114
f 132/171/147 131/170/146 87/129/114 75/113/98
f 133/173/149 132/171/147 75/113/98 63/90/82
f 134/175/151 133/173/149 63/90/82 51/89/66
f 135/179/153 134/178/151 51/66/66 39/50/50
f 136/181/155 135/179/153 39/50/50 27/27/27
f 129/183/157 136/181/155 27/27/27 15/26/26
f 168/185/159 167/186/160 161/163/139 162/162/138
f 169/187/161 168/188/159 162/162/138 165/166/142
f 140/112/97 139/128/113 115/169/145 116/168/144
f 141/87/81 140/112/97 116/168/144 117/172/148
f 142/88/65 141/87/81 117/172/148 118/174/150
f 143/49/49 142/65/65 118/177/150 119/176/152
f 144/24/24 143/49/49 119/176/152 120/180/154
f 137/25/25 144/24/24 120/180/154 114/182/156
f 114/189/156 129/190/157 146/191/162 145/192/163
f 129/190/157 130/193/158 147/194/164 146/191/162
f 130/193/158 131/195/146 149/196/165 147/194/164
f 131/195/146 115/197/145 148/198/166 149/196/165
f 138/199/129 137/200/25 150/201/167 151/202/168
f 137/200/25 114/189/156 145/192/163 150/201/167
f 139/203/113 138/204/129 151/205/168 152/206/169
f 115/197/145 139/203/113 152/206/169 148/198/166
f 145/192/163 146/191/162 154/207/170 153/208/171
f 146/191/162 147/194/164 155/209/172 154/207/170
f 147/194/164 149/196/165 157/210/173 155/209/172
f 149/196/165 148/198/166 156/211/174 157/210/173
f 151/202/168 150/201/167 158/212/175 159/213/176
f 150/201/167 145/192/163 153/208/171 158/212/175
f 152/206/169 151/205/168 159/214/176 160/215/177
f 148/198/166 152/206/169 160/215/177 156/211/174
f 153/208/171 154/207/170 163/164/140 161/163/139
f 154/207/170 155/209/172 164/165/141 163/164/140
f 155/209/172 157/210/173 166/167/143 164/165/141
f 157/210/173 156/211/174 165/166/142 166/167/143
f 159/213/176 158/212/175 167/186/160 168/185/159
f 158/212/175 153/208/171 161/163/139 167/186/160
f 160/215/177 159/214/176 168/188/159 169/187/161
f 156/211/174 160/215/177 169/187/161 165/166/142
f 171/216/178 170/217/179 10/218/12 94/219/123
f 172/220/180 171/216/178 94/219/123 82/221/107
f 173/222/181 172/220/180 82/221/107 70/223/91
f 174/224/182 173/222/181 70/223/91 58/225/75
f 175/226/183 174/224/182 58/225/75 46/227/59
f 176/228/184 175/226/183 46/227/59 34/229/43
f 177/230/185 176/228/184 34/229/43 22/231/13
f 170/217/179 177/230/185 22/231/13 10/218/12
f 316/232/186 317/233/187 318/234/188
f 180/235/189 179/236/190 173/222/181 174/224/182
f 223/237/191 222/238/192 224/239/193 225/240/194
f 226/241/195 223/237/191 225/240/194 227/242/196
f 182/243/197 181/244/198 176/228/184 177/230/185
f 170/217/179 290/245/199 182/243/197 177/230/185
f 317/233/187 319/246/200 320/247/201 318/234/188
f 186/74/74 185/105/90 179/236/190 180/235/189
f 229/248/202 228/249/203 222/238/192 223/237/191
f 230/250/204 229/251/202 223/237/191 226/241/195
f 189/10/10 188/42/42 181/244/198 182/243/197
f 290/245/199 291/11/11 189/10/10 182/243/197
f 180/235/189 174/224/182 191/252/205 190/253/206
f 174/224/182 175/226/183 192/254/207 191/252/205
f 175/226/183 176/228/184 194/255/208 192/254/207
f 176/228/184 181/244/198 193/256/209 194/255/208
f 187/58/58 186/74/74 195/257/210 196/258/211
f 186/74/74 180/235/189 190/253/206 195/257/210
f 188/42/42 187/58/58 196/258/211 197/259/212
f 181/244/198 188/42/42 197/259/212 193/256/209
f 190/260/206 191/261/205 199/262/213 198/263/214
f 191/261/205 192/264/207 200/265/215 199/262/213
f 192/264/207 194/266/208 202/267/216 200/265/215
f 194/266/208 193/268/209 201/269/217 202/267/216
f 196/270/211 195/271/210 203/272/218 204/273/219
f 195/271/210 190/260/206 198/263/214 203/272/218
f 197/274/212 196/275/211 204/276/219 205/277/220
f 193/268/209 197/274/212 205/277/220 201/269/217
f 198/263/214 199/262/213 207/278/221 206/279/222
f 199/262/213 200/265/215 208/280/223 207/278/221
f 200/265/215 202/267/216 210/281/224 208/280/223
f 202/267/216 201/269/217 209/282/225 210/281/224
f 204/273/219 203/272/218 211/283/226 212/284/227
f 203/272/218 198/263/214 206/279/222 211/283/226
f 205/277/220 204/276/219 212/285/227 213/286/228
f 201/269/217 205/277/220 213/286/228 209/282/225
f 206/279/222 207/278/221 238/287/229 231/288/230
f 207/278/221 208/280/223 237/289/231 238/287/229
f 208/280/223 210/281/224 236/290/232 237/289/231
f 210/281/224 209/282/225 235/291/233 236/290/232
f 212/284/227 211/283/226 232/292/234 233/293/235
f 211/283/226 206/279/222 231/288/230 232/292/234
f 213/286/228 212/285/227 233/294/235 234/295/236
f 209/282/225 213/286/228 234/295/236 235/291/233
f 214/296/237 215/297/238 224/239/193 222/238/192
f 215/297/238 216/298/239 225/240/194 224/239/193
f 216/298/239 218/299/240 227/242/196 225/240/194
f 218/299/240 217/300/241 226/241/195 227/242/196
f 220/301/242 219/302/243 228/249/203 229/248/202
f 219/302/243 214/296/237 222/238/192 228/249/203
f 221/303/244 220/304/242 229/251/202 230/250/204
f 217/300/241 221/303/244 230/250/204 226/241/195
f 232/292/234 231/288/230 214/296/237 219/302/243
f 233/293/235 232/292/234 219/302/243 220/301/242
f 234/295/236 233/294/235 220/304/242 221/303/244
f 235/291/233 234/295/236 221/303/244 217/300/241
f 236/290/232 235/291/233 217/300/241 218/299/240
f 237/289/231 236/290/232 218/299/240 216/298/239
f 238/287/229 237/289/231 216/298/239 215/297/238
f 231/288/230 238/287/229 215/297/238 214/296/237
f 272/305/245 271/306/246 273/307/247 274/308/248
f 275/309/249 272/305/245 274/308/248 276/310/250
f 278/311/251 277/312/252 271/306/246 272/305/245
f 279/313/253 278/314/251 272/305/245 275/309/249
f 178/315/254 171/216/178 240/316/255 239/317/256
f 171/216/178 172/220/180 241/318/257 240/316/255
f 172/220/180 173/222/181 243/319/258 241/318/257
f 173/222/181 242/320/259 243/319/258
f 184/121/106 183/137/122 244/321/260 245/322/261
f 183/137/122 178/315/254 239/317/256 244/321/260
f 185/105/90 184/121/106 245/322/261 246/323/262
f 173/222/181 179/236/190 242/320/259
f 239/324/256 240/325/255 248/326/263 247/327/264
f 240/325/255 241/328/257 249/329/265 248/326/263
f 241/328/257 243/330/258 251/331/266 249/329/265
f 243/330/258 242/332/259 250/333/267 251/331/266
f 245/334/261 244/335/260 252/336/268 253/337/269
f 244/335/260 239/324/256 247/327/264 252/336/268
f 246/338/262 245/339/261 253/340/269 254/341/270
f 242/332/259 246/338/262 254/341/270 250/333/267
f 247/327/264 248/326/263 256/342/271 255/343/272
f 248/326/263 249/329/265 257/344/273 256/342/271
f 249/329/265 251/331/266 259/345/274 257/344/273
f 251/331/266 250/333/267 258/346/275 259/345/274
f 253/337/269 252/336/268 260/347/276 261/348/277
f 252/336/268 247/327/264 255/343/272 260/347/276
f 254/341/270 253/340/269 261/349/277 262/350/278
f 250/333/267 254/341/270 262/350/278 258/346/275
f 255/343/272 256/342/271 287/351/279 280/352/280
f 256/342/271 257/344/273 286/353/281 287/351/279
f 257/344/273 259/345/274 285/354/282 286/353/281
f 259/345/274 258/346/275 284/355/283 285/354/282
f 261/348/277 260/347/276 281/356/284 282/357/285
f 260/347/276 255/343/272 280/352/280 281/356/284
f 262/350/278 261/349/277 282/358/285 283/359/286
f 258/346/275 262/350/278 283/359/286 284/355/283
f 263/360/287 264/361/288 273/307/247 271/306/246
f 264/361/288 265/362/289 274/308/248 273/307/247
f 265/362/289 267/363/290 276/310/250 274/308/248
f 267/363/290 266/364/291 275/309/249 276/310/250
f 269/365/292 268/366/293 277/312/252 278/311/251
f 268/366/293 263/360/287 271/306/246 277/312/252
f 270/367/294 269/368/292 278/314/251 279/313/253
f 266/364/291 270/367/294 279/313/253 275/309/249
f 281/356/284 280/352/280 263/360/287 268/366/293
f 282/357/285 281/356/284 268/366/293 269/365/292
f 283/359/286 282/358/285 269/368/292 270/367/294
f 284/355/283 283/359/286 270/367/294 266/364/291
f 285/354/282 284/355/283 266/364/291 267/363/290
f 286/353/281 285/354/282 267/363/290 265/362/289
f 287/351/279 286/353/281 265/362/289 264/361/288
f 280/352/280 287/351/279 264/361/288 263/360/287
f 242/320/259 179/236/190 185/105/90 246/323/262
f 178/315/254 288/369/295 170/217/179 171/216/178
f 183/137/122 289/370/296 288/369/295 178/315/254
f 8/9/9 1/1/1 289/370/296 183/137/122
f 318/234/188 321/371/297 316/232/186
f 320/372/201 322/373/298 321/371/297 318/234/188
f 170/374/179 288/375/295 293/376/299 292/377/300
f 288/375/295 289/378/296 294/379/301 293/376/299
f 289/378/296 1/380/1 295/381/302 294/379/301
f 290/382/199 170/374/179 292/377/300 296/383/303
f 1/384/1 291/385/11 297/386/304 295/387/302
f 291/385/11 290/382/199 296/383/303 297/386/304
f 292/377/300 293/376/299 299/388/305 298/389/306
f 293/376/299 294/379/301 300/390/307 299/388/305
f 294/379/301 295/381/302 301/391/308 300/390/307
f 296/383/303 292/377/300 298/389/306 302/392/309
f 295/387/302 297/386/304 303/393/310 301/394/308
f 297/386/304 296/383/303 302/392/309 303/393/310
f 298/389/306 299/388/305 305/395/311 304/396/312
f 299/388/305 300/390/307 306/397/313 305/395/311
f 300/390/307 301/391/308 307/398/314 306/397/313
f 302/392/309 298/389/306 304/396/312 308/399/315
f 301/394/308 303/393/310 309/400/316 307/401/314
f 303/393/310 302/392/309 308/399/315 309/400/316
f 304/396/312 305/395/311 311/402/317 310/403/318
f 305/395/311 306/397/313 312/404/319 311/402/317
f 306/397/313 307/398/314 313/405/320 312/404/319
f 308/399/315 304/396/312 310/403/318 314/406/321
f 307/401/314 309/400/316 315/407/322 313/408/320
f 309/400/316 308/399/315 314/406/321 315/407/322
f 310/403/318 311/402/317 317/233/187 316/232/186
f 311/402/317 312/404/319 319/246/200 317/233/187
f 312/404/319 313/405/320 320/247/201 319/246/200
f 314/406/321 310/403/318 316/232/186 321/371/297
f 313/408/320 315/407/322 322/373/298 320/372/201
f 315/407/322 314/406/321 321/371/297 322/373/298
s off
f 21/409/323 33/410/324 323/411/325
f 33/410/326 45/412/327 323/411/328
f 45/412/329 57/413/330 323/411/331
f 57/413/332 69/414/333 323/411/334
f 69/414/335 81/415/336 323/411/337
f 81/415/338 93/416/339 323/411/340
f 93/416/341 105/417/342 323/411/343
f 105/417/344 21/409/345 323/411/346
