# This file uses centimeters as units for non-parametric coordinates.

mtllib fol_treeleaves_low.mtl
g default
v 0.054850 5.516085 -0.124773
v 0.217418 5.134410 -0.338659
v 0.267918 4.859932 -0.628397
v -0.090660 4.528569 -0.633583
v -0.284835 4.349187 -0.423472
v -0.429494 4.641081 -0.230891
v -0.418958 4.903147 0.010902
v -0.175071 5.272577 -0.033808
v -0.177754 4.522218 -0.350983
v -0.006520 4.842397 -0.193421
v 0.067707 5.191772 -0.118816
v 0.074830 3.278018 -0.246527
v 0.650245 2.713981 -0.233150
v 1.069867 2.343555 -0.351602
v 1.080498 1.930566 -0.987838
v 0.794978 1.633470 -1.285188
v 0.390496 2.076856 -1.309707
v -0.024838 2.407070 -1.125410
v -0.023572 2.932291 -0.640884
v 0.669963 1.850178 -1.046574
v 0.398527 2.251534 -0.636467
v 0.191073 2.757139 -0.367267
v 0.020143 3.610048 0.838663
v -0.410774 3.972029 0.789827
v -0.461201 4.158248 0.548891
v -0.328121 4.480127 0.310575
v -0.208279 4.746526 0.268949
v 0.083830 5.012612 -0.002772
v 0.381644 4.742362 0.217243
v 0.546502 4.481747 0.312037
v 0.493451 4.221408 0.601949
v 0.333580 4.004427 0.852364
v 0.023074 3.784292 0.620170
v 0.033714 3.983371 0.371547
v 0.089159 4.320397 0.041029
v 0.079603 4.676406 -0.043639
v -0.459781 1.120445 1.116616
v -0.833066 1.593793 0.992693
v -0.830644 1.890611 0.743166
v -0.721288 2.342236 0.389023
v -0.539294 2.619863 0.199040
v -0.095695 2.687696 -0.116076
v 0.113899 2.589158 0.382680
v 0.208470 2.260098 0.682801
v 0.089230 1.853829 0.996339
v -0.120364 1.538903 1.211085
v -0.410115 1.391088 0.900557
v -0.346476 1.699274 0.656238
v -0.214504 2.127899 0.326936
v -0.154271 2.430137 0.086807
v 0.252745 2.582725 0.678294
v 0.112247 3.050906 0.819470
v -0.032773 3.282754 0.669917
v -0.148992 3.631654 0.431375
v -0.053545 3.879358 0.311506
v 0.054739 4.210775 -0.006634
v 0.281763 3.732950 -0.016041
v 0.352075 3.418305 -0.018753
v 0.461146 3.126731 0.215018
v 0.507933 2.909377 0.480209
v 0.145060 2.787563 0.517513
v 0.026101 3.019835 0.330784
v -0.094464 3.392510 0.052776
v -0.065651 3.766277 -0.036188
v -0.042200 2.599295 0.061750
v -0.017884 2.126153 0.524640
v 0.106702 1.846146 0.895734
v 0.713984 1.587413 1.171682
v 1.028646 1.336169 1.129656
v 1.018847 1.716230 0.801212
v 0.841542 1.945137 0.418878
v 0.351931 2.342516 0.179678
v 0.800483 1.478403 0.937384
v 0.408142 1.743986 0.565439
v 0.121864 2.144155 0.261937
v -0.088753 3.139901 -0.294987
v 0.030782 2.640101 -0.698311
v 0.032031 2.325767 -1.052371
v -0.419881 2.033103 -1.412310
v -0.704496 1.806078 -1.408842
v -0.796740 2.200312 -1.128578
v -0.753719 2.471987 -0.748155
v -0.397766 2.880058 -0.460764
v -0.560814 1.970707 -1.192777
v -0.325923 2.279303 -0.783526
v -0.167641 2.694867 -0.474664
v -0.171425 3.116693 -0.144100
v -0.581815 2.606597 -0.043588
v -0.900847 2.297289 0.141300
v -1.044346 2.020257 0.785150
v -0.927370 1.775447 1.085628
v -0.638588 2.181621 1.022016
v -0.313423 2.440612 0.782838
v -0.197110 2.853476 0.262397
v -0.790291 1.931820 0.828695
v -0.515789 2.225103 0.379872
v -0.301250 2.647445 0.048504
v 0.349032 1.638180 1.082539
v -0.046285 2.086721 1.179411
v -0.196464 2.367887 0.969569
v -0.324910 2.800003 0.612659
v -0.295195 3.070316 0.352389
v -0.111295 3.137107 -0.150547
v 0.339087 3.067862 0.141430
v 0.597671 2.760118 0.339436
v 0.693458 2.370548 0.667933
v 0.656767 2.063790 0.964290
v 0.257035 1.896487 0.874304
v 0.158982 2.190913 0.634661
v 0.063768 2.602172 0.285891
v -0.034453 2.890827 0.051649
v -0.009760 4.463892 -0.048816
v 0.097938 3.442090 -0.411263
v 0.055284 3.078863 -0.657502
v -0.429981 2.762138 -0.797336
v -0.711171 2.583619 -0.660859
v -0.764076 3.003625 -0.480353
v -0.676039 3.333522 -0.209985
v -0.290454 3.738578 -0.142736
v -0.544599 2.772319 -0.540933
v -0.265516 3.129317 -0.303272
v -0.070410 3.559022 -0.166814
v 0.683525 2.663497 -0.319782
v 0.788737 2.976722 -0.029684
v 0.670519 3.210275 0.061053
v 0.472021 3.572041 0.123986
v 0.329769 3.801382 0.081074
v -0.028940 4.207903 -0.036695
v 0.226830 3.816809 -0.392898
v 0.340747 3.563778 -0.562639
v 0.522989 3.237080 -0.604415
v 0.684907 2.976736 -0.553499
v 0.567368 2.879330 -0.270787
v 0.433850 3.125531 -0.220032
v 0.240492 3.470581 -0.180344
v 0.109934 3.711899 -0.129020
v 0.723348 3.679944 0.405476
v 0.717890 3.990991 0.551401
v 0.608238 4.164361 0.502971
v 0.481279 4.425898 0.311203
v 0.417484 4.584223 0.190224
v 0.210620 4.587871 0.031847
v 0.509879 4.552342 0.154853
v 0.645268 4.358063 0.185553
v 0.783820 4.123238 0.247981
v 0.872656 3.943709 0.321069
v 0.632316 3.837013 0.345388
v 0.529992 4.015718 0.274587
v 0.395878 4.263334 0.161530
v 0.295118 4.438637 0.092826
v 1.246727 1.092622 -0.111786
v 1.276248 1.573434 0.255359
v 1.045298 1.864431 0.342675
v 0.674274 2.302812 0.370450
v 0.424885 2.567534 0.273396
v -0.037959 2.614556 -0.000080
v 0.327450 2.510303 -0.385432
v 0.565431 2.183659 -0.578946
v 0.903067 1.790170 -0.583181
v 1.186546 1.490013 -0.469954
v 1.027331 1.355988 -0.079364
v 0.776186 1.655592 -0.049486
v 0.418824 2.070477 -0.051154
v 0.172930 2.364392 -0.019689
v 0.050487 5.478986 -0.123355
v -0.206800 5.205397 0.092209
v -0.341254 4.960245 0.181915
v -0.215435 4.680882 0.403408
v -0.019511 4.561159 0.413154
v 0.107399 4.800783 0.469418
v 0.224626 5.036572 0.377827
v 0.139816 5.352345 0.110878
v -0.021591 4.711397 0.322072
v -0.004085 4.990862 0.161781
v 0.021346 5.258322 -0.013313
v -0.052033 4.435791 -0.044866
v -0.614510 3.544122 -0.216986
v -0.938229 3.064072 -0.308106
v -1.001479 2.440293 0.089945
v -0.746837 2.121812 0.328595
v -0.561568 2.604376 0.596895
v -0.263482 3.069416 0.662751
v -0.138512 3.757917 0.303104
v -0.640984 2.439233 0.232492
v -0.420671 3.023804 0.092171
v -0.206970 3.580379 -0.035738
v -0.099195 2.738611 -0.211199
v 0.010431 2.128559 -0.726212
v -0.035611 1.723372 -1.127503
v -0.662943 1.305700 -1.213942
v -1.007327 1.031076 -0.960592
v -1.098971 1.506517 -0.605127
v -0.987602 1.871817 -0.193227
v -0.506873 2.399078 -0.154239
v -0.792706 1.259444 -0.814600
v -0.433486 1.685466 -0.510597
v -0.201225 2.208855 -0.302605
v -0.024817 4.559680 -0.109505
v 0.313497 3.607041 -0.422610
v 0.471688 3.344683 -0.647596
v 0.258719 3.033988 -0.997201
v 0.040208 2.818274 -1.042105
v -0.170360 3.125169 -0.904682
v -0.299174 3.362400 -0.643711
v -0.145685 3.744401 -0.386178
v 0.064152 2.978020 -0.864104
v 0.079164 3.272781 -0.536257
v 0.061758 3.633534 -0.315071
v 0.196766 3.318839 -0.132842
v 0.374617 2.860526 0.197126
v 0.597818 2.554104 0.398189
v 1.045072 2.200910 0.257618
v 1.146480 1.957524 0.059201
v 1.033890 2.316509 -0.180870
v 0.763565 2.593276 -0.357948
v 0.433350 3.030062 -0.263658
v 0.937413 2.141200 0.047980
v 0.558776 2.480827 -0.001191
v 0.307819 2.897253 -0.067605
v 0.664156 4.504193 0.070648
v 0.662101 4.783082 0.286535
v 0.509628 4.921509 0.296696
v 0.320917 5.134141 0.250500
v 0.296616 5.291509 0.155698
v 0.168106 5.438926 -0.088763
v 0.284126 5.220366 -0.239226
v 0.322930 5.030556 -0.314627
v 0.504444 4.852814 -0.260906
v 0.671636 4.717535 -0.146520
v 0.523887 4.627756 0.051221
v 0.363974 4.768064 0.024817
v 0.151808 4.995684 -0.040776
v 0.109679 5.227094 -0.066854
v -0.012293 2.546327 -0.110137
v 0.407472 2.207676 -0.354419
v 0.679613 2.008673 -0.619893
v 0.647814 1.783765 -1.161139
v 0.505260 1.555463 -1.352048
v 0.197215 1.830905 -1.183461
v -0.051172 1.991450 -0.877585
v -0.067043 2.323084 -0.432073
v 0.441561 1.667818 -1.105290
v 0.296733 1.874012 -0.660723
v 0.134940 2.187484 -0.319609
v -1.155418 1.552003 -0.384130
v -1.138335 2.031659 -0.769353
v -0.917900 2.348350 -0.807896
v -0.589162 2.828753 -0.758048
v -0.394312 3.122487 -0.609568
v -0.013638 3.219336 -0.226964
v -0.458323 3.080706 0.065328
v -0.708835 2.728272 0.207915
v -1.003243 2.296402 0.141649
v -1.224070 1.963249 -0.030013
v -0.957415 1.840111 -0.370550
v -0.732392 2.168088 -0.347812
v -0.422173 2.623636 -0.271564
v -0.201356 2.945312 -0.251501
v 0.201718 5.158449 -0.150235
v 0.606158 4.475803 0.086318
v 0.909953 3.982126 0.167445
v 0.880583 3.410058 -0.427905
v 0.550951 3.116762 -0.727824
v 0.289145 3.637412 -0.945704
v -0.044175 4.109475 -0.901668
v 0.050006 4.744567 -0.504096
v 0.461614 3.421248 -0.542245
v 0.261161 3.986608 -0.240908
v 0.172835 4.597073 -0.114149
v 0.180308 5.035363 -0.026333
v -0.058533 4.557829 -0.604268
v -0.152045 4.093583 -0.950916
v -0.511916 3.490340 -0.757492
v -0.575517 3.182343 -0.379954
v -0.699555 3.649020 -0.045820
v -0.598622 4.098750 0.262045
v -0.238197 4.764585 0.147919
v -0.441522 3.489314 -0.345667
v -0.211675 4.054641 -0.236814
v 0.004537 4.592892 -0.126077
v -0.176257 2.614261 -0.047543
v -0.555849 2.102901 -0.193074
v -0.906310 1.786651 -0.229517
v -1.341239 1.529840 0.175844
v -1.388788 1.327448 0.474733
v -1.126310 1.730317 0.580936
v -0.742463 2.000575 0.582099
v -0.394921 2.379810 0.248611
v -1.149971 1.481264 0.357522
v -0.704126 1.772506 0.172339
v -0.369775 2.175915 0.035912
vt 0.880068 0.995553
vt 0.790459 0.842763
vt 0.879100 0.876823
vt 0.885690 0.581463
vt 0.881477 0.732730
vt 0.734666 0.715968
vt 0.810466 0.557654
vt 0.893694 0.499574
vt 0.966161 0.606932
vt 0.992756 0.732930
vt 0.952996 0.905218
vt 0.880068 0.995553
vt 0.790459 0.842763
vt 0.879100 0.876823
vt 0.885690 0.581463
vt 0.881477 0.732730
vt 0.734666 0.715968
vt 0.810466 0.557654
vt 0.893694 0.499574
vt 0.966161 0.606932
vt 0.992756 0.732930
vt 0.952996 0.905218
vt 0.492809 0.899480
vt 0.587486 0.895883
vt 0.588160 0.986426
vt 0.455809 0.642397
vt 0.578306 0.638804
vt 0.589073 0.789682
vt 0.458849 0.801201
vt 0.473230 0.538426
vt 0.579304 0.530501
vt 0.581919 0.435426
vt 0.675862 0.523287
vt 0.715266 0.634788
vt 0.723835 0.777763
vt 0.677326 0.892470
vt 0.492809 0.899480
vt 0.587486 0.895883
vt 0.588160 0.986426
vt 0.455809 0.642397
vt 0.578306 0.638804
vt 0.589073 0.789682
vt 0.458849 0.801201
vt 0.473230 0.538426
vt 0.579304 0.530501
vt 0.581919 0.435426
vt 0.675862 0.523287
vt 0.715266 0.634788
vt 0.723835 0.777763
vt 0.677326 0.892470
vt 0.492809 0.899480
vt 0.587486 0.895883
vt 0.588160 0.986426
vt 0.455809 0.642397
vt 0.578306 0.638804
vt 0.589073 0.789682
vt 0.458849 0.801201
vt 0.473230 0.538426
vt 0.579304 0.530501
vt 0.581919 0.435426
vt 0.675862 0.523287
vt 0.715266 0.634788
vt 0.723835 0.777763
vt 0.677326 0.892470
vt 0.880068 0.995553
vt 0.790459 0.842763
vt 0.879100 0.876823
vt 0.885690 0.581463
vt 0.881477 0.732730
vt 0.734666 0.715968
vt 0.810466 0.557654
vt 0.893694 0.499574
vt 0.966161 0.606932
vt 0.992756 0.732930
vt 0.952996 0.905218
vt 0.880068 0.995553
vt 0.790459 0.842763
vt 0.879100 0.876823
vt 0.885690 0.581463
vt 0.881477 0.732730
vt 0.734666 0.715968
vt 0.810466 0.557654
vt 0.893694 0.499574
vt 0.966161 0.606932
vt 0.992756 0.732930
vt 0.952996 0.905218
vt 0.880068 0.995553
vt 0.790459 0.842763
vt 0.879100 0.876823
vt 0.885690 0.581463
vt 0.881477 0.732730
vt 0.734666 0.715968
vt 0.810466 0.557654
vt 0.893694 0.499574
vt 0.966161 0.606932
vt 0.992756 0.732930
vt 0.952996 0.905218
vt 0.492809 0.899480
vt 0.587486 0.895883
vt 0.588160 0.986426
vt 0.455809 0.642397
vt 0.578306 0.638804
vt 0.589073 0.789682
vt 0.458849 0.801201
vt 0.473230 0.538426
vt 0.579304 0.530501
vt 0.581919 0.435426
vt 0.675862 0.523287
vt 0.715266 0.634788
vt 0.723835 0.777763
vt 0.677326 0.892470
vt 0.880068 0.995553
vt 0.790459 0.842763
vt 0.879100 0.876823
vt 0.885690 0.581463
vt 0.881477 0.732730
vt 0.734666 0.715968
vt 0.810466 0.557654
vt 0.893694 0.499574
vt 0.966161 0.606932
vt 0.992756 0.732930
vt 0.952996 0.905218
vt 0.492809 0.899480
vt 0.587486 0.895883
vt 0.588160 0.986426
vt 0.455809 0.642397
vt 0.578306 0.638804
vt 0.589073 0.789682
vt 0.458849 0.801201
vt 0.473230 0.538426
vt 0.579304 0.530501
vt 0.581919 0.435426
vt 0.675862 0.523287
vt 0.715266 0.634788
vt 0.723835 0.777763
vt 0.677326 0.892470
vt 0.492809 0.899480
vt 0.587486 0.895883
vt 0.588160 0.986426
vt 0.455809 0.642397
vt 0.578306 0.638804
vt 0.589073 0.789682
vt 0.458849 0.801201
vt 0.473230 0.538426
vt 0.579304 0.530501
vt 0.581919 0.435426
vt 0.675862 0.523287
vt 0.715266 0.634788
vt 0.723835 0.777763
vt 0.677326 0.892470
vt 0.492809 0.899480
vt 0.587486 0.895883
vt 0.588160 0.986426
vt 0.455809 0.642397
vt 0.578306 0.638804
vt 0.589073 0.789682
vt 0.458849 0.801201
vt 0.473230 0.538426
vt 0.579304 0.530501
vt 0.581919 0.435426
vt 0.675862 0.523287
vt 0.715266 0.634788
vt 0.723835 0.777763
vt 0.677326 0.892470
vt 0.880068 0.995553
vt 0.790459 0.842763
vt 0.879100 0.876823
vt 0.885690 0.581463
vt 0.881477 0.732730
vt 0.734666 0.715968
vt 0.810466 0.557654
vt 0.893694 0.499574
vt 0.966161 0.606932
vt 0.992756 0.732930
vt 0.952996 0.905218
vt 0.880068 0.995553
vt 0.790459 0.842763
vt 0.879100 0.876823
vt 0.885690 0.581463
vt 0.881477 0.732730
vt 0.734666 0.715968
vt 0.810466 0.557654
vt 0.893694 0.499574
vt 0.966161 0.606932
vt 0.992756 0.732930
vt 0.952996 0.905218
vt 0.880068 0.995553
vt 0.790459 0.842763
vt 0.879100 0.876823
vt 0.885690 0.581463
vt 0.881477 0.732730
vt 0.734666 0.715968
vt 0.810466 0.557654
vt 0.893694 0.499574
vt 0.966161 0.606932
vt 0.992756 0.732930
vt 0.952996 0.905218
vt 0.880068 0.995553
vt 0.790459 0.842763
vt 0.879100 0.876823
vt 0.885690 0.581463
vt 0.881477 0.732730
vt 0.734666 0.715968
vt 0.810466 0.557654
vt 0.893694 0.499574
vt 0.966161 0.606932
vt 0.992756 0.732930
vt 0.952996 0.905218
vt 0.880068 0.995553
vt 0.790459 0.842763
vt 0.879100 0.876823
vt 0.885690 0.581463
vt 0.881477 0.732730
vt 0.734666 0.715968
vt 0.810466 0.557654
vt 0.893694 0.499574
vt 0.966161 0.606932
vt 0.992756 0.732930
vt 0.952996 0.905218
vt 0.492809 0.899480
vt 0.587486 0.895883
vt 0.588160 0.986426
vt 0.455809 0.642397
vt 0.578306 0.638804
vt 0.589073 0.789682
vt 0.458849 0.801201
vt 0.473230 0.538426
vt 0.579304 0.530501
vt 0.581919 0.435426
vt 0.675862 0.523287
vt 0.715266 0.634788
vt 0.723835 0.777763
vt 0.677326 0.892470
vt 0.880068 0.995553
vt 0.790459 0.842763
vt 0.879100 0.876823
vt 0.885690 0.581463
vt 0.881477 0.732730
vt 0.734666 0.715968
vt 0.810466 0.557654
vt 0.893694 0.499574
vt 0.966161 0.606932
vt 0.992756 0.732930
vt 0.952996 0.905218
vt 0.492809 0.899480
vt 0.587486 0.895883
vt 0.588160 0.986426
vt 0.455809 0.642397
vt 0.578306 0.638804
vt 0.589073 0.789682
vt 0.458849 0.801201
vt 0.473230 0.538426
vt 0.579304 0.530501
vt 0.581919 0.435426
vt 0.675862 0.523287
vt 0.715266 0.634788
vt 0.723835 0.777763
vt 0.677326 0.892470
vt 0.880068 0.995553
vt 0.790459 0.842763
vt 0.879100 0.876823
vt 0.885690 0.581463
vt 0.881477 0.732730
vt 0.734666 0.715968
vt 0.810466 0.557654
vt 0.893694 0.499574
vt 0.966161 0.606932
vt 0.992756 0.732930
vt 0.952996 0.905218
vt 0.880068 0.995553
vt 0.790459 0.842763
vt 0.879100 0.876823
vt 0.885690 0.581463
vt 0.881477 0.732730
vt 0.734666 0.715968
vt 0.810466 0.557654
vt 0.893694 0.499574
vt 0.966161 0.606932
vt 0.992756 0.732930
vt 0.952996 0.905218
vt 0.880068 0.995553
vt 0.790459 0.842763
vt 0.879100 0.876823
vt 0.885690 0.581463
vt 0.881477 0.732730
vt 0.734666 0.715968
vt 0.810466 0.557654
vt 0.893694 0.499574
vt 0.966161 0.606932
vt 0.992756 0.732930
vt 0.952996 0.905218
vn -0.581299 -0.037976 -0.812803
vn -0.790336 0.303591 -0.532167
vn -0.585517 0.194552 -0.786968
vn -0.530708 0.648803 -0.545348
vn -0.562024 0.486394 -0.668992
vn -0.735351 0.543731 -0.404494
vn -0.698034 0.640239 -0.320690
vn -0.551795 0.588882 -0.590542
vn -0.214041 0.589801 -0.778666
vn -0.295069 0.408526 -0.863736
vn -0.358218 0.164537 -0.919026
vn 0.588837 0.304918 -0.748529
vn 0.274220 0.517911 -0.810291
vn 0.576730 0.474224 -0.665202
vn 0.318864 0.818826 -0.477336
vn 0.446653 0.697090 -0.560863
vn 0.154227 0.702083 -0.695193
vn 0.056544 0.791560 -0.608470
vn 0.360665 0.776680 -0.516419
vn 0.633235 0.746746 -0.203432
vn 0.714072 0.615891 -0.332835
vn 0.779910 0.442616 -0.442528
vn 0.658103 0.019134 0.752685
vn 0.043560 0.020823 0.998834
vn 0.100843 -0.121300 0.987480
vn 0.505978 0.581234 0.637302
vn -0.042590 0.744014 0.666806
vn -0.052742 0.474914 0.878451
vn 0.575175 0.332265 0.747512
vn 0.475933 0.706533 0.523736
vn -0.094974 0.827357 0.553588
vn -0.080415 0.779821 0.620817
vn -0.637453 0.676387 0.368991
vn -0.587473 0.660771 0.467179
vn -0.598984 0.475289 0.644453
vn -0.594932 0.047327 0.802381
vn 0.375726 0.456369 0.806571
vn -0.205418 0.559565 0.802926
vn -0.162332 0.633105 0.756853
vn 0.351756 0.534087 0.768778
vn -0.157970 0.660160 0.734326
vn -0.199927 0.598591 0.775705
vn 0.343199 0.496389 0.797378
vn 0.390353 0.552771 0.736253
vn -0.187542 0.680714 0.708136
vn -0.210918 0.633206 0.744691
vn -0.665238 0.599276 0.445339
vn -0.631635 0.597260 0.494285
vn -0.649575 0.541089 0.534112
vn -0.714071 0.444342 0.540984
vn 0.976852 -0.184163 0.108834
vn 0.660919 -0.077293 0.746467
vn 0.675591 -0.229563 0.700627
vn 0.943039 0.318706 -0.095419
vn 0.637223 0.643848 0.423563
vn 0.702325 0.378826 0.602686
vn 0.993780 0.108048 0.026959
vn 0.908001 0.375942 -0.184939
vn 0.561089 0.722778 0.403448
vn 0.577823 0.669809 0.466344
vn -0.068646 0.681527 0.728566
vn 0.022164 0.652681 0.757309
vn 0.071589 0.458805 0.885648
vn 0.034734 0.085752 0.995711
vn 0.351391 0.480170 0.803717
vn 0.631906 0.684084 0.364313
vn 0.288484 0.623265 0.726854
vn 0.178400 0.920186 0.348471
vn 0.228025 0.820792 0.523741
vn 0.546078 0.821367 0.164790
vn 0.483469 0.875096 -0.021570
vn 0.159017 0.874502 0.458214
vn -0.216509 0.726156 0.652550
vn -0.127557 0.646679 0.752021
vn -0.030613 0.511833 0.858540
vn -0.179027 0.395449 -0.900872
vn -0.524277 0.609806 -0.594365
vn -0.122889 0.541854 -0.831440
vn -0.111883 0.864797 -0.489497
vn -0.107148 0.749573 -0.653192
vn -0.481493 0.774534 -0.410197
vn -0.466273 0.846120 -0.258207
vn -0.098157 0.821965 -0.561015
vn 0.349587 0.686406 -0.637679
vn 0.281066 0.591715 -0.755563
vn 0.213579 0.452170 -0.865983
vn -0.767645 0.413390 0.489724
vn -0.304764 0.655204 0.691250
vn -0.715136 0.562015 0.415596
vn -0.387842 0.888881 0.243861
vn -0.542874 0.775474 0.322379
vn -0.135400 0.808167 0.573178
vn 0.032075 0.876918 0.479568
vn -0.495074 0.834039 0.243475
vn -0.738666 0.667519 -0.093759
vn -0.814149 0.580561 0.010472
vn -0.890527 0.437890 0.123342
vn 0.739761 0.502208 0.447817
vn 0.252062 0.587097 0.769274
vn 0.258210 0.659875 0.705615
vn 0.694893 0.577440 0.428587
vn 0.247844 0.686056 0.684032
vn 0.239406 0.625061 0.742956
vn 0.705721 0.540766 0.457745
vn 0.707653 0.595888 0.379664
vn 0.207695 0.704533 0.678599
vn 0.211219 0.657945 0.722838
vn -0.330445 0.597058 0.730977
vn -0.275140 0.598201 0.752631
vn -0.264858 0.543274 0.796683
vn -0.309508 0.444962 0.840365
vn -0.461537 0.145061 -0.875181
vn -0.655050 0.411998 -0.633378
vn -0.406682 0.283375 -0.868509
vn -0.230522 0.719697 -0.654901
vn -0.268937 0.569025 -0.777099
vn -0.541353 0.662778 -0.517361
vn -0.489268 0.771354 -0.406977
vn -0.247243 0.665708 -0.704062
vn 0.163926 0.520893 -0.837734
vn 0.064954 0.391171 -0.918023
vn -0.016783 0.206005 -0.978407
vn 0.612696 0.349600 -0.708790
vn 0.921831 0.347505 -0.171662
vn 0.926929 0.301185 -0.223807
vn 0.604456 0.459511 -0.650755
vn 0.829980 0.527865 -0.180256
vn 0.874208 0.456593 -0.165175
vn 0.626550 0.417448 -0.658159
vn 0.561815 0.486989 -0.668734
vn 0.824353 0.548220 -0.141054
vn 0.858397 0.493646 -0.139525
vn 0.799202 0.448214 0.400476
vn 0.826125 0.443386 0.347744
vn 0.858987 0.380483 0.342598
vn 0.884381 0.235266 0.403137
vn 0.736691 0.009086 -0.676168
vn 0.697439 0.268912 0.664279
vn 0.605743 0.569874 0.555266
vn 0.836852 0.214642 -0.503595
vn 0.760992 0.512951 0.397206
vn 0.783005 0.364544 0.503996
vn 0.827856 0.095273 -0.552791
vn 0.800736 0.301331 -0.517708
vn 0.696010 0.595938 0.400535
vn 0.693857 0.570328 0.439645
vn -0.053640 0.344696 0.937181
vn -0.084743 0.312872 0.946007
vn -0.152865 0.225028 0.962286
vn -0.245451 0.120382 0.961905
vn 0.572881 0.442266 -0.690078
vn 0.805152 0.570295 -0.162773
vn 0.744002 0.641776 -0.185968
vn 0.546624 0.520826 -0.655700
vn 0.721113 0.668554 -0.181746
vn 0.777278 0.608967 -0.158111
vn 0.576984 0.483617 -0.658183
vn 0.500785 0.537738 -0.678271
vn 0.708899 0.690277 -0.144843
vn 0.752776 0.643925 -0.136707
vn 0.666187 0.628618 0.401290
vn 0.697137 0.625311 0.350694
vn 0.741951 0.570082 0.352866
vn 0.776568 0.476213 0.412508
vn -0.344223 0.455013 0.821264
vn 0.150546 0.418729 0.895545
vn -0.372901 0.443800 0.814854
vn -0.273076 0.564272 0.779119
vn -0.339149 0.502336 0.795385
vn 0.108048 0.517504 0.848832
vn 0.105809 0.567979 0.816213
vn -0.283758 0.494238 0.821712
vn -0.722113 0.437970 0.535476
vn -0.718892 0.411454 0.560267
vn -0.732653 0.367526 0.572839
vn -0.776098 0.147114 0.613213
vn -0.490710 0.250829 0.834439
vn -0.796478 0.269926 0.541075
vn -0.685820 0.471374 0.554488
vn -0.753814 0.406763 0.516051
vn -0.478657 0.384625 0.789273
vn -0.445269 0.443542 0.777822
vn -0.713183 0.409977 0.568585
vn -0.890584 0.438951 0.119090
vn -0.915528 0.376789 0.140852
vn -0.952050 0.272460 0.139161
vn -0.632725 0.248415 -0.733450
vn -0.746896 0.486454 -0.453331
vn -0.551687 0.418822 -0.721270
vn -0.409322 0.785321 -0.464464
vn -0.470131 0.652639 -0.594171
vn -0.653240 0.680960 -0.331015
vn -0.584255 0.779005 -0.227589
vn -0.440809 0.739506 -0.508741
vn -0.085383 0.689469 -0.719265
vn -0.199593 0.551248 -0.810116
vn -0.297277 0.372174 -0.879268
vn -0.012005 0.215600 -0.976408
vn -0.334342 0.396974 -0.854767
vn 0.027145 0.371391 -0.928080
vn -0.050661 0.790103 -0.610877
vn 0.018416 0.664467 -0.747091
vn -0.360990 0.651295 -0.667459
vn -0.401833 0.741395 -0.537460
vn -0.025654 0.745706 -0.665781
vn 0.418392 0.707523 -0.569526
vn 0.411033 0.582427 -0.701307
vn 0.411803 0.353789 -0.839793
vn 0.908414 0.286419 0.304547
vn 0.867711 0.467271 -0.169516
vn 0.843566 0.445117 0.300445
vn 0.602300 0.792640 0.094639
vn 0.718643 0.666607 0.197957
vn 0.716903 0.651278 -0.248773
vn 0.593035 0.736610 -0.325139
vn 0.648145 0.746832 0.148832
vn 0.455054 0.678749 0.576390
vn 0.574943 0.564967 0.591822
vn 0.681081 0.407839 0.608109
vn 0.822501 -0.070420 -0.564388
vn 0.998510 -0.053004 -0.012966
vn 0.961583 -0.270225 -0.048333
vn 0.610928 0.494479 -0.618269
vn 0.682723 0.719244 -0.128756
vn 0.888805 0.454427 -0.059351
vn 0.740450 0.291258 -0.605725
vn 0.533207 0.552847 -0.640352
vn 0.604765 0.790947 -0.093070
vn 0.665531 0.736339 -0.121956
vn 0.418055 0.736954 0.531157
vn 0.511163 0.711176 0.482641
vn 0.669152 0.514158 0.536543
vn 0.774631 0.048709 0.630535
vn 0.342351 0.574472 -0.743490
vn -0.157258 0.670155 -0.725370
vn 0.304624 0.705672 -0.639712
vn 0.018975 0.937789 -0.346686
vn 0.153622 0.865797 -0.476231
vn -0.281740 0.790425 -0.543922
vn -0.383796 0.825307 -0.414210
vn 0.084586 0.914892 -0.394737
vn 0.495500 0.852453 -0.166747
vn 0.542289 0.781225 -0.309210
vn 0.595908 0.665059 -0.450101
vn -0.764222 0.389593 0.513987
vn -0.870355 0.488990 -0.058070
vn -0.823805 0.566404 -0.023045
vn -0.737808 0.470047 0.484454
vn -0.803204 0.595282 -0.022440
vn -0.845954 0.530194 -0.057072
vn -0.764206 0.430032 0.480688
vn -0.700744 0.491638 0.516962
vn -0.784369 0.617767 -0.055944
vn -0.820329 0.567214 -0.073001
vn -0.602788 0.555562 -0.572710
vn -0.644800 0.549669 -0.531128
vn -0.682301 0.490244 -0.542333
vn -0.692171 0.392848 -0.605450
vn 0.743579 -0.080923 -0.663733
vn 0.489609 0.181016 -0.852946
vn 0.773823 0.114849 -0.622903
vn 0.606516 0.589437 -0.533575
vn 0.703105 0.406824 -0.583213
vn 0.424782 0.456237 -0.781926
vn 0.346655 0.607556 -0.714637
vn 0.659432 0.522757 -0.540254
vn 0.842574 0.494342 -0.213765
vn 0.900857 0.327637 -0.284799
vn 0.934127 0.106887 -0.340562
vn -0.826811 0.414229 -0.380525
vn -0.954289 0.298644 0.012034
vn -0.855801 0.351963 -0.379113
vn -0.845318 0.471838 -0.250613
vn -0.854774 0.408250 -0.320460
vn -0.921690 0.387599 0.015973
vn -0.893934 0.446880 0.034364
vn -0.873205 0.410500 -0.262685
vn -0.628128 0.454785 -0.631369
vn -0.662020 0.388669 -0.640832
vn -0.666924 0.336728 -0.664700
vn -0.915716 0.401580 -0.014093
vn -0.672558 0.646582 0.359995
vn -0.836638 0.543346 -0.069370
vn -0.495922 0.867052 -0.047779
vn -0.657036 0.750487 -0.071230
vn -0.482699 0.808672 0.336232
vn -0.329920 0.879987 0.341725
vn -0.564237 0.822632 -0.070093
vn -0.562727 0.649477 -0.511389
vn -0.691338 0.559876 -0.456717
vn -0.812708 0.425557 -0.398004
s 1
g polySurface106
usemtl lambert2SG
f 1/1/1 2/2/2 11/3/3
f 9/4/4 10/5/5 3/6/6 4/7/7
f 10/5/5 11/3/3 2/2/2 3/6/6
f 5/8/8 9/4/4 4/7/7
f 6/9/9 9/4/4 5/8/8
f 7/10/10 10/5/5 9/4/4 6/9/9
f 8/11/11 11/3/3 10/5/5 7/10/10
f 1/1/1 11/3/3 8/11/11
s 3
f 12/12/12 13/13/13 22/14/14
f 20/15/15 21/16/16 14/17/17 15/18/18
f 21/16/16 22/14/14 13/13/13 14/17/17
f 16/19/19 20/15/15 15/18/18
f 17/20/20 20/15/15 16/19/19
f 18/21/21 21/16/16 20/15/15 17/20/20
f 19/22/22 22/14/14 21/16/16 18/21/21
f 12/12/12 22/14/14 19/22/22
s 5
f 27/23/23 36/24/24 28/25/25
f 25/26/26 34/27/27 35/28/28 26/29/29
f 26/29/29 35/28/28 36/24/24 27/23/23
f 24/30/30 33/31/31 34/27/27 25/26/26
f 23/32/32 33/31/31 24/30/30
f 23/32/32 32/33/33 33/31/31
f 34/27/27 33/31/31 32/33/33 31/34/34
f 35/28/28 34/27/27 31/34/34 30/35/35
f 36/24/24 35/28/28 30/35/35 29/36/36
f 28/25/25 36/24/24 29/36/36
s 7
f 41/37/37 50/38/38 42/39/39
f 39/40/40 48/41/41 49/42/42 40/43/43
f 40/43/43 49/42/42 50/38/38 41/37/37
f 38/44/44 47/45/45 48/41/41 39/40/40
f 37/46/46 47/45/45 38/44/44
f 37/46/46 46/47/47 47/45/45
f 48/41/41 47/45/45 46/47/47 45/48/48
f 49/42/42 48/41/41 45/48/48 44/49/49
f 50/38/38 49/42/42 44/49/49 43/50/50
f 42/39/39 50/38/38 43/50/50
s 9
f 55/51/51 64/52/52 56/53/53
f 53/54/54 62/55/55 63/56/56 54/57/57
f 54/57/57 63/56/56 64/52/52 55/51/51
f 52/58/58 61/59/59 62/55/55 53/54/54
f 51/60/60 61/59/59 52/58/58
f 51/60/60 60/61/61 61/59/59
f 62/55/55 61/59/59 60/61/61 59/62/62
f 63/56/56 62/55/55 59/62/62 58/63/63
f 64/52/52 63/56/56 58/63/63 57/64/64
f 56/53/53 64/52/52 57/64/64
s 11
f 65/65/65 66/66/66 75/67/67
f 73/68/68 74/69/69 67/70/70 68/71/71
f 74/69/69 75/67/67 66/66/66 67/70/70
f 69/72/72 73/68/68 68/71/71
f 70/73/73 73/68/68 69/72/72
f 71/74/74 74/69/69 73/68/68 70/73/73
f 72/75/75 75/67/67 74/69/69 71/74/74
f 65/65/65 75/67/67 72/75/75
s 13
f 76/76/76 77/77/77 86/78/78
f 84/79/79 85/80/80 78/81/81 79/82/82
f 85/80/80 86/78/78 77/77/77 78/81/81
f 80/83/83 84/79/79 79/82/82
f 81/84/84 84/79/79 80/83/83
f 82/85/85 85/80/80 84/79/79 81/84/84
f 83/86/86 86/78/78 85/80/80 82/85/85
f 76/76/76 86/78/78 83/86/86
s 15
f 87/87/87 88/88/88 97/89/89
f 95/90/90 96/91/91 89/92/92 90/93/93
f 96/91/91 97/89/89 88/88/88 89/92/92
f 91/94/94 95/90/90 90/93/93
f 92/95/95 95/90/90 91/94/94
f 93/96/96 96/91/91 95/90/90 92/95/95
f 94/97/97 97/89/89 96/91/91 93/96/96
f 87/87/87 97/89/89 94/97/97
s 17
f 102/98/98 111/99/99 103/100/100
f 100/101/101 109/102/102 110/103/103 101/104/104
f 101/104/104 110/103/103 111/99/99 102/98/98
f 99/105/105 108/106/106 109/102/102 100/101/101
f 98/107/107 108/106/106 99/105/105
f 98/107/107 107/108/108 108/106/106
f 109/102/102 108/106/106 107/108/108 106/109/109
f 110/103/103 109/102/102 106/109/109 105/110/110
f 111/99/99 110/103/103 105/110/110 104/111/111
f 103/100/100 111/99/99 104/111/111
s 19
f 112/112/112 113/113/113 122/114/114
f 120/115/115 121/116/116 114/117/117 115/118/118
f 121/116/116 122/114/114 113/113/113 114/117/117
f 116/119/119 120/115/115 115/118/118
f 117/120/120 120/115/115 116/119/119
f 118/121/121 121/116/116 120/115/115 117/120/120
f 119/122/122 122/114/114 121/116/116 118/121/121
f 112/112/112 122/114/114 119/122/122
s 21
f 127/123/123 136/124/124 128/125/125
f 125/126/126 134/127/127 135/128/128 126/129/129
f 126/129/129 135/128/128 136/124/124 127/123/123
f 124/130/130 133/131/131 134/127/127 125/126/126
f 123/132/132 133/131/131 124/130/130
f 123/132/132 132/133/133 133/131/131
f 134/127/127 133/131/131 132/133/133 131/134/134
f 135/128/128 134/127/127 131/134/134 130/135/135
f 136/124/124 135/128/128 130/135/135 129/136/136
f 128/125/125 136/124/124 129/136/136
s 23
f 141/137/137 150/138/138 142/139/139
f 139/140/140 148/141/141 149/142/142 140/143/143
f 140/143/143 149/142/142 150/138/138 141/137/137
f 138/144/144 147/145/145 148/141/141 139/140/140
f 137/146/146 147/145/145 138/144/144
f 137/146/146 146/147/147 147/145/145
f 148/141/141 147/145/145 146/147/147 145/148/148
f 149/142/142 148/141/141 145/148/148 144/149/149
f 150/138/138 149/142/142 144/149/149 143/150/150
f 142/139/139 150/138/138 143/150/150
s 25
f 155/151/151 164/152/152 156/153/153
f 153/154/154 162/155/155 163/156/156 154/157/157
f 154/157/157 163/156/156 164/152/152 155/151/151
f 152/158/158 161/159/159 162/155/155 153/154/154
f 151/160/160 161/159/159 152/158/158
f 151/160/160 160/161/161 161/159/159
f 162/155/155 161/159/159 160/161/161 159/162/162
f 163/156/156 162/155/155 159/162/162 158/163/163
f 164/152/152 163/156/156 158/163/163 157/164/164
f 156/153/153 164/152/152 157/164/164
s 27
f 165/165/165 166/166/166 175/167/167
f 173/168/168 174/169/169 167/170/170 168/171/171
f 174/169/169 175/167/167 166/166/166 167/170/170
f 169/172/172 173/168/168 168/171/171
f 170/173/173 173/168/168 169/172/172
f 171/174/174 174/169/169 173/168/168 170/173/173
f 172/175/175 175/167/167 174/169/169 171/174/174
f 165/165/165 175/167/167 172/175/175
s 29
f 176/176/176 177/177/177 186/178/178
f 184/179/179 185/180/180 178/181/181 179/182/182
f 185/180/180 186/178/178 177/177/177 178/181/181
f 180/183/183 184/179/179 179/182/182
f 181/184/184 184/179/179 180/183/183
f 182/185/185 185/180/180 184/179/179 181/184/184
f 183/186/186 186/178/178 185/180/180 182/185/185
f 176/176/176 186/178/178 183/186/186
s 31
f 187/187/187 188/188/188 197/189/189
f 195/190/190 196/191/191 189/192/192 190/193/193
f 196/191/191 197/189/189 188/188/188 189/192/192
f 191/194/194 195/190/190 190/193/193
f 192/195/195 195/190/190 191/194/194
f 193/196/196 196/191/191 195/190/190 192/195/195
f 194/197/197 197/189/189 196/191/191 193/196/196
f 187/187/187 197/189/189 194/197/197
s 33
f 198/198/198 199/199/199 208/200/200
f 206/201/201 207/202/202 200/203/203 201/204/204
f 207/202/202 208/200/200 199/199/199 200/203/203
f 202/205/205 206/201/201 201/204/204
f 203/206/206 206/201/201 202/205/205
f 204/207/207 207/202/202 206/201/201 203/206/206
f 205/208/208 208/200/200 207/202/202 204/207/207
f 198/198/198 208/200/200 205/208/208
s 35
f 209/209/209 210/210/210 219/211/211
f 217/212/212 218/213/213 211/214/214 212/215/215
f 218/213/213 219/211/211 210/210/210 211/214/214
f 213/216/216 217/212/212 212/215/215
f 214/217/217 217/212/212 213/216/216
f 215/218/218 218/213/213 217/212/212 214/217/217
f 216/219/219 219/211/211 218/213/213 215/218/218
f 209/209/209 219/211/211 216/219/219
s 37
f 224/220/220 233/221/221 225/222/222
f 222/223/223 231/224/224 232/225/225 223/226/226
f 223/226/226 232/225/225 233/221/221 224/220/220
f 221/227/227 230/228/228 231/224/224 222/223/223
f 220/229/229 230/228/228 221/227/227
f 220/229/229 229/230/230 230/228/228
f 231/224/224 230/228/228 229/230/230 228/231/231
f 232/225/225 231/224/224 228/231/231 227/232/232
f 233/221/221 232/225/225 227/232/232 226/233/233
f 225/222/222 233/221/221 226/233/233
s 39
f 234/234/234 235/235/235 244/236/236
f 242/237/237 243/238/238 236/239/239 237/240/240
f 243/238/238 244/236/236 235/235/235 236/239/239
f 238/241/241 242/237/237 237/240/240
f 239/242/242 242/237/237 238/241/241
f 240/243/243 243/238/238 242/237/237 239/242/242
f 241/244/244 244/236/236 243/238/238 240/243/243
f 234/234/234 244/236/236 241/244/244
s 41
f 249/245/245 258/246/246 250/247/247
f 247/248/248 256/249/249 257/250/250 248/251/251
f 248/251/251 257/250/250 258/246/246 249/245/245
f 246/252/252 255/253/253 256/249/249 247/248/248
f 245/254/254 255/253/253 246/252/252
f 245/254/254 254/255/255 255/253/253
f 256/249/249 255/253/253 254/255/255 253/256/256
f 257/250/250 256/249/249 253/256/256 252/257/257
f 258/246/246 257/250/250 252/257/257 251/258/258
f 250/247/247 258/246/246 251/258/258
s 43
f 259/259/259 260/260/260 269/261/261
f 267/262/262 268/263/263 261/264/264 262/265/265
f 268/263/263 269/261/261 260/260/260 261/264/264
f 263/266/266 267/262/262 262/265/265
f 264/267/267 267/262/262 263/266/266
f 265/268/268 268/263/263 267/262/262 264/267/267
f 266/269/269 269/261/261 268/263/263 265/268/268
f 259/259/259 269/261/261 266/269/269
s 45
f 270/270/270 271/271/271 280/272/272
f 278/273/273 279/274/274 272/275/275 273/276/276
f 279/274/274 280/272/272 271/271/271 272/275/275
f 274/277/277 278/273/273 273/276/276
f 275/278/278 278/273/273 274/277/277
f 276/279/279 279/274/274 278/273/273 275/278/278
f 277/280/280 280/272/272 279/274/274 276/279/279
f 270/270/270 280/272/272 277/280/280
s 47
f 281/281/281 282/282/282 291/283/283
f 289/284/284 290/285/285 283/286/286 284/287/287
f 290/285/285 291/283/283 282/282/282 283/286/286
f 285/288/288 289/284/284 284/287/287
f 286/289/289 289/284/284 285/288/288
f 287/290/290 290/285/285 289/284/284 286/289/289
f 288/291/291 291/283/283 290/285/285 287/290/290
f 281/281/281 291/283/283 288/291/291
