# This file uses centimeters as units for non-parametric coordinates.

mtllib fol_bush_berry_low.mtl
g default
v -0.009542 0.391171 -0.288893
v -0.126450 0.336253 -0.311717
v -0.085433 0.225350 -0.254950
v 0.031473 0.280268 -0.232126
v -0.042032 0.423956 -0.201370
v -0.158938 0.369037 -0.224194
v -0.117924 0.258134 -0.167428
v -0.001016 0.313052 -0.144604
v -0.031246 0.291868 -0.315683
v -0.096220 0.357437 -0.140637
v 0.069544 0.337195 -0.029419
v 0.039995 0.301281 0.017088
v 0.069544 0.337195 0.063594
v 0.099092 0.373108 0.017088
v 0.031229 0.368718 -0.029419
v 0.001681 0.332804 0.017088
v 0.031229 0.368718 0.063594
v 0.060778 0.404632 0.017088
v 0.088700 0.321433 0.017088
v 0.012073 0.384480 0.017088
v -0.197742 0.340791 0.085232
v -0.236876 0.326214 0.114651
v -0.230111 0.367424 0.144071
v -0.190976 0.382002 0.114651
v -0.221978 0.360732 0.062872
v -0.261113 0.346155 0.092291
v -0.254348 0.387365 0.121711
v -0.215213 0.401943 0.092291
v -0.201808 0.344137 0.125831
v -0.250281 0.384019 0.081111
v 0.045563 0.395364 -0.184872
v -0.008471 0.364202 -0.125034
v 0.058796 0.333442 -0.080312
v 0.112829 0.364604 -0.140149
v 0.049463 0.451584 -0.152072
v -0.004570 0.420422 -0.092234
v 0.062697 0.389661 -0.047511
v 0.116731 0.420823 -0.107349
v 0.050229 0.336293 -0.148992
v 0.058031 0.448732 -0.083391
v -0.045824 0.329960 0.299055
v -0.073687 0.351295 0.323776
v -0.041338 0.364897 0.348497
v -0.013474 0.343563 0.323776
v -0.042465 0.356120 0.280265
v -0.070328 0.377454 0.304987
v -0.037979 0.391056 0.329708
v -0.010116 0.369722 0.304987
v -0.045260 0.334349 0.333170
v -0.038542 0.386668 0.295592
v -0.215144 0.237237 -0.046097
v -0.301052 0.252355 0.021864
v -0.265203 0.354491 0.044459
v -0.179295 0.339373 -0.023502
v -0.260168 0.267100 -0.109653
v -0.346075 0.282219 -0.041692
v -0.310226 0.384355 -0.019097
v -0.224319 0.369236 -0.087058
v -0.217662 0.280932 0.030959
v -0.307709 0.340659 -0.096153
v 0.094851 0.355867 0.114989
v 0.060198 0.332559 0.144409
v 0.057159 0.374210 0.173828
v 0.091812 0.397518 0.144409
v 0.066629 0.369602 0.092630
v 0.031977 0.346294 0.122049
v 0.028938 0.387945 0.151469
v 0.063591 0.411253 0.122049
v 0.090116 0.358171 0.155589
v 0.033673 0.385641 0.110869
v -0.124979 0.289106 -0.118351
v -0.151208 0.283562 -0.074867
v -0.121188 0.318217 -0.052341
v -0.094959 0.323762 -0.095825
v -0.149076 0.317108 -0.129316
v -0.175305 0.311564 -0.085832
v -0.145287 0.346219 -0.063306
v -0.119057 0.351763 -0.106790
v -0.111034 0.289661 -0.079863
v -0.159230 0.345664 -0.101794
v -0.117069 0.306580 -0.099693
v -0.168998 0.371370 -0.032056
v -0.115558 0.328353 0.050179
v -0.063629 0.263563 -0.017457
v -0.059043 0.362121 -0.108346
v -0.110971 0.426911 -0.040710
v -0.057532 0.383894 0.041526
v -0.005604 0.319104 -0.026111
v -0.145327 0.289696 -0.020430
v -0.029275 0.400778 -0.037737
v -0.027060 0.239815 0.337678
v -0.125746 0.203054 0.411865
v -0.108685 0.306973 0.486052
v -0.009999 0.343734 0.411865
v -0.088177 0.290100 0.281294
v -0.186863 0.253339 0.355480
v -0.169804 0.357259 0.429667
v -0.071117 0.394019 0.355480
v -0.037313 0.248251 0.440057
v -0.159550 0.348822 0.327288
v -0.209655 0.355867 0.257971
v -0.244308 0.332559 0.287391
v -0.247346 0.374210 0.316810
v -0.212693 0.397518 0.287391
v -0.237877 0.369602 0.235611
v -0.272529 0.346294 0.265031
v -0.275567 0.387945 0.294450
v -0.240914 0.411253 0.265031
v -0.214390 0.358171 0.298571
v -0.270832 0.385641 0.253851
v -0.146185 0.367034 0.152227
v -0.167449 0.319716 0.231016
v -0.189490 0.400851 0.273794
v -0.168228 0.448168 0.195005
v -0.213493 0.360418 0.130091
v -0.234756 0.313101 0.208879
v -0.256799 0.394235 0.251657
v -0.235535 0.441554 0.172869
v -0.134183 0.387250 0.224079
v -0.268801 0.374019 0.179806
v -0.136967 0.336514 0.227368
v -0.153320 0.304306 0.263489
v -0.136967 0.336514 0.299611
v -0.120614 0.368722 0.263489
v -0.171328 0.353960 0.227368
v -0.187681 0.321752 0.263489
v -0.171328 0.353960 0.299611
v -0.154975 0.386168 0.263489
v -0.119787 0.327790 0.263489
v -0.188508 0.362683 0.263489
v -0.098660 0.297527 0.100249
v -0.140407 0.318024 0.146756
v -0.098660 0.297527 0.193263
v -0.056914 0.277030 0.146756
v -0.076794 0.342064 0.100249
v -0.118539 0.362561 0.146756
v -0.076794 0.342064 0.193263
v -0.035047 0.321566 0.146756
v -0.109594 0.275258 0.146756
v -0.065859 0.364332 0.146756
v 0.014221 0.392362 0.149705
v -0.071758 0.401503 0.190543
v -0.075156 0.306973 0.204552
v 0.010825 0.297832 0.163713
v 0.045687 0.400770 0.214069
v -0.040295 0.409912 0.254908
v -0.043691 0.315381 0.268916
v 0.042289 0.306241 0.228077
v -0.046201 0.345464 0.144946
v 0.016731 0.362280 0.273674
v -0.060370 0.395572 -0.461825
v 0.458121 0.227020 -0.244648
v 0.353871 0.228421 -0.001453
v 0.017945 -0.108451 0.095375
v -0.358404 0.233321 0.053266
v -0.423178 0.278471 -0.254989
v -0.065345 0.336374 -0.188798
v -0.031052 0.161913 -0.025646
v 0.522316 0.216616 0.489132
v 0.069858 0.136190 0.580913
v -0.042476 0.244419 0.379328
v -0.033992 -0.006363 0.032406
v 0.277066 0.299384 -0.032630
v 0.530681 0.212210 0.132862
v 0.323450 0.278852 0.303013
v 0.147433 0.188815 0.166642
v -0.433812 0.187046 0.546888
v -0.507492 0.156628 0.085092
v -0.299188 0.271200 -0.006839
v 0.042132 0.012734 -0.010685
v 0.099563 0.282609 0.333317
v -0.078388 0.173323 0.569320
v -0.238106 0.265316 0.363492
v -0.096022 0.190983 0.184685
v -0.259101 0.338166 0.123229
v -0.282051 0.310272 0.159351
v -0.259101 0.338166 0.195472
v -0.236152 0.366060 0.159351
v -0.288860 0.362651 0.123229
v -0.311810 0.334756 0.159351
v -0.288860 0.362651 0.195472
v -0.265910 0.390545 0.159351
v -0.244222 0.325924 0.159351
v -0.303740 0.374893 0.159351
v 0.081498 0.339928 0.177778
v 0.054101 0.323192 0.206273
v 0.087055 0.312099 0.231443
v 0.114453 0.328835 0.202948
v 0.079650 0.368550 0.192812
v 0.052253 0.351814 0.221306
v 0.085208 0.340720 0.246477
v 0.112605 0.357456 0.217982
v 0.085200 0.311703 0.197094
v 0.081506 0.368946 0.227161
v 0.226553 0.408683 -0.161819
v 0.341313 0.325867 0.152909
v 0.197197 0.344106 0.208640
v 0.001206 0.154432 0.124329
v -0.118964 0.350885 -0.067866
v -0.015077 0.355155 -0.223426
v 0.107854 0.393690 -0.049213
v 0.045182 0.303556 0.040687
v 0.048459 0.331404 0.473435
v -0.181492 0.290842 0.324596
v -0.138170 0.339806 0.188915
v -0.002445 0.167754 0.062497
v 0.169308 0.342388 0.151385
v 0.200690 0.303174 0.330690
v 0.047104 0.354507 0.309976
v 0.026594 0.291885 0.184284
v -0.410300 0.321884 0.119332
v -0.240601 0.268055 -0.111862
v -0.102955 0.331891 -0.065302
v 0.033765 0.171859 0.098323
v -0.078165 0.364744 0.258527
v -0.265766 0.315104 0.287590
v -0.239809 0.356345 0.122597
v -0.103004 0.296842 0.112158
v 0.167539 0.336514 0.100272
v 0.151185 0.304306 0.136394
v 0.167539 0.336514 0.172516
v 0.183892 0.368722 0.136394
v 0.133178 0.353960 0.100272
v 0.116825 0.321752 0.136394
v 0.133178 0.353960 0.172516
v 0.149531 0.386168 0.136394
v 0.184719 0.327790 0.136394
v 0.115997 0.362683 0.136394
v 0.228543 0.362149 -0.040882
v 0.193889 0.290946 0.038306
v 0.228543 0.362149 0.117494
v 0.263196 0.433353 0.038306
v 0.152579 0.399119 -0.040882
v 0.117927 0.327916 0.038306
v 0.152579 0.399119 0.117494
v 0.187233 0.470323 0.038306
v 0.266524 0.343665 0.038306
v 0.114598 0.417604 0.038306
v 0.310396 0.340239 0.092150
v 0.213726 0.330935 0.185260
v 0.274825 0.223264 0.237937
v 0.371496 0.232568 0.144828
v 0.363861 0.400690 0.153699
v 0.267190 0.391386 0.246809
v 0.328289 0.283715 0.299486
v 0.424960 0.293019 0.206377
v 0.265879 0.251526 0.134269
v 0.372807 0.372428 0.257367
v 0.212367 0.359359 0.341747
v 0.177102 0.324475 0.353953
v 0.214059 0.291232 0.365727
v 0.249325 0.326117 0.353521
v 0.212294 0.372152 0.378097
v 0.177029 0.337268 0.390304
v 0.213986 0.304026 0.402077
v 0.249252 0.338910 0.389871
v 0.213250 0.318899 0.335562
v 0.213104 0.344486 0.408263
v 0.201772 0.324410 0.261429
v 0.197110 0.347867 0.297076
v 0.200216 0.312289 0.320893
v 0.204879 0.288833 0.285246
v 0.233878 0.328308 0.263064
v 0.229215 0.351764 0.298711
v 0.232322 0.316187 0.322528
v 0.236984 0.292731 0.286881
v 0.184942 0.316401 0.290344
v 0.249152 0.324196 0.293614
v -0.097277 0.362371 0.226879
v -0.129469 0.345988 0.263000
v -0.097277 0.362371 0.299122
v -0.065084 0.378754 0.263000
v -0.114754 0.396716 0.226879
v -0.146947 0.380333 0.263000
v -0.114754 0.396716 0.299122
v -0.082561 0.413099 0.263000
v -0.088537 0.345199 0.263000
v -0.123493 0.413888 0.263000
vt 0.016562 0.914804
vt 0.065510 0.914891
vt 0.114458 0.914979
vt 0.163406 0.915067
vt 0.212355 0.915155
vt 0.016490 0.954770
vt 0.065438 0.954858
vt 0.114386 0.954946
vt 0.163335 0.955033
vt 0.212283 0.955121
vt 0.041093 0.883252
vt 0.090041 0.883340
vt 0.138989 0.883427
vt 0.187937 0.883515
vt 0.040907 0.986410
vt 0.089856 0.986497
vt 0.138804 0.986585
vt 0.187752 0.986673
vt 0.016562 0.914804
vt 0.065510 0.914891
vt 0.065438 0.954858
vt 0.016490 0.954770
vt 0.114458 0.914979
vt 0.114386 0.954946
vt 0.163406 0.915067
vt 0.163335 0.955033
vt 0.212355 0.915155
vt 0.212283 0.955121
vt 0.041093 0.883252
vt 0.090041 0.883340
vt 0.138989 0.883427
vt 0.187937 0.883515
vt 0.040907 0.986410
vt 0.089856 0.986497
vt 0.138804 0.986585
vt 0.187752 0.986673
vt 0.016562 0.914804
vt 0.065510 0.914891
vt 0.065438 0.954858
vt 0.016490 0.954770
vt 0.114458 0.914979
vt 0.114386 0.954946
vt 0.163406 0.915067
vt 0.163335 0.955033
vt 0.212355 0.915155
vt 0.212283 0.955121
vt 0.041093 0.883252
vt 0.090041 0.883340
vt 0.138989 0.883427
vt 0.187937 0.883515
vt 0.040907 0.986410
vt 0.089856 0.986497
vt 0.138804 0.986585
vt 0.187752 0.986673
vt 0.016562 0.914804
vt 0.065510 0.914891
vt 0.065438 0.954858
vt 0.016490 0.954770
vt 0.114458 0.914979
vt 0.114386 0.954946
vt 0.163406 0.915067
vt 0.163335 0.955033
vt 0.212355 0.915155
vt 0.212283 0.955121
vt 0.041093 0.883252
vt 0.090041 0.883340
vt 0.138989 0.883427
vt 0.187937 0.883515
vt 0.040907 0.986410
vt 0.089856 0.986497
vt 0.138804 0.986585
vt 0.187752 0.986673
vt 0.016562 0.914804
vt 0.065510 0.914891
vt 0.065438 0.954858
vt 0.016490 0.954770
vt 0.114458 0.914979
vt 0.114386 0.954946
vt 0.163406 0.915067
vt 0.163335 0.955033
vt 0.212355 0.915155
vt 0.212283 0.955121
vt 0.041093 0.883252
vt 0.090041 0.883340
vt 0.138989 0.883427
vt 0.187937 0.883515
vt 0.040907 0.986410
vt 0.089856 0.986497
vt 0.138804 0.986585
vt 0.187752 0.986673
vt 0.016562 0.914804
vt 0.065510 0.914891
vt 0.065438 0.954858
vt 0.016490 0.954770
vt 0.114458 0.914979
vt 0.114386 0.954946
vt 0.163406 0.915067
vt 0.163335 0.955033
vt 0.212355 0.915155
vt 0.212283 0.955121
vt 0.041093 0.883252
vt 0.090041 0.883340
vt 0.138989 0.883427
vt 0.187937 0.883515
vt 0.040907 0.986410
vt 0.089856 0.986497
vt 0.138804 0.986585
vt 0.187752 0.986673
vt 0.016562 0.914804
vt 0.065510 0.914891
vt 0.065438 0.954858
vt 0.016490 0.954770
vt 0.114458 0.914979
vt 0.114386 0.954946
vt 0.163406 0.915067
vt 0.163335 0.955033
vt 0.212355 0.915155
vt 0.212283 0.955121
vt 0.041093 0.883252
vt 0.090041 0.883340
vt 0.138989 0.883427
vt 0.187937 0.883515
vt 0.040907 0.986410
vt 0.089856 0.986497
vt 0.138804 0.986585
vt 0.187752 0.986673
vt 0.016562 0.914804
vt 0.065510 0.914891
vt 0.065438 0.954858
vt 0.016490 0.954770
vt 0.114458 0.914979
vt 0.114386 0.954946
vt 0.163406 0.915067
vt 0.163335 0.955033
vt 0.212355 0.915155
vt 0.212283 0.955121
vt 0.041093 0.883252
vt 0.090041 0.883340
vt 0.138989 0.883427
vt 0.187937 0.883515
vt 0.040907 0.986410
vt 0.089856 0.986497
vt 0.138804 0.986585
vt 0.187752 0.986673
vt 0.016562 0.914804
vt 0.065510 0.914891
vt 0.065438 0.954858
vt 0.016490 0.954770
vt 0.114458 0.914979
vt 0.114386 0.954946
vt 0.163406 0.915067
vt 0.163335 0.955033
vt 0.212355 0.915155
vt 0.212283 0.955121
vt 0.041093 0.883252
vt 0.090041 0.883340
vt 0.138989 0.883427
vt 0.187937 0.883515
vt 0.040907 0.986410
vt 0.089856 0.986497
vt 0.138804 0.986585
vt 0.187752 0.986673
vt 0.016562 0.914804
vt 0.065510 0.914891
vt 0.065438 0.954858
vt 0.016490 0.954770
vt 0.114458 0.914979
vt 0.114386 0.954946
vt 0.163406 0.915067
vt 0.163335 0.955033
vt 0.212355 0.915155
vt 0.212283 0.955121
vt 0.041093 0.883252
vt 0.090041 0.883340
vt 0.138989 0.883427
vt 0.187937 0.883515
vt 0.040907 0.986410
vt 0.089856 0.986497
vt 0.138804 0.986585
vt 0.187752 0.986673
vt 0.016562 0.914804
vt 0.065510 0.914891
vt 0.065438 0.954858
vt 0.016490 0.954770
vt 0.114458 0.914979
vt 0.114386 0.954946
vt 0.163406 0.915067
vt 0.163335 0.955033
vt 0.212355 0.915155
vt 0.212283 0.955121
vt 0.041093 0.883252
vt 0.090041 0.883340
vt 0.138989 0.883427
vt 0.187937 0.883515
vt 0.040907 0.986410
vt 0.089856 0.986497
vt 0.138804 0.986585
vt 0.187752 0.986673
vt 0.016562 0.914804
vt 0.065510 0.914891
vt 0.065438 0.954858
vt 0.016490 0.954770
vt 0.114458 0.914979
vt 0.114386 0.954946
vt 0.163406 0.915067
vt 0.163335 0.955033
vt 0.212355 0.915155
vt 0.212283 0.955121
vt 0.041093 0.883252
vt 0.090041 0.883340
vt 0.138989 0.883427
vt 0.187937 0.883515
vt 0.040907 0.986410
vt 0.089856 0.986497
vt 0.138804 0.986585
vt 0.187752 0.986673
vt 0.016562 0.914804
vt 0.065510 0.914891
vt 0.065438 0.954858
vt 0.016490 0.954770
vt 0.114458 0.914979
vt 0.114386 0.954946
vt 0.163406 0.915067
vt 0.163335 0.955033
vt 0.212355 0.915155
vt 0.212283 0.955121
vt 0.041093 0.883252
vt 0.090041 0.883340
vt 0.138989 0.883427
vt 0.187937 0.883515
vt 0.040907 0.986410
vt 0.089856 0.986497
vt 0.138804 0.986585
vt 0.187752 0.986673
vt 0.016562 0.914804
vt 0.065510 0.914891
vt 0.065438 0.954858
vt 0.016490 0.954770
vt 0.114458 0.914979
vt 0.114386 0.954946
vt 0.163406 0.915067
vt 0.163335 0.955033
vt 0.212355 0.915155
vt 0.212283 0.955121
vt 0.041093 0.883252
vt 0.090041 0.883340
vt 0.138989 0.883427
vt 0.187937 0.883515
vt 0.040907 0.986410
vt 0.089856 0.986497
vt 0.138804 0.986585
vt 0.187752 0.986673
vt 0.016562 0.914804
vt 0.065510 0.914891
vt 0.065438 0.954858
vt 0.016490 0.954770
vt 0.114458 0.914979
vt 0.114386 0.954946
vt 0.163406 0.915067
vt 0.163335 0.955033
vt 0.212355 0.915155
vt 0.212283 0.955121
vt 0.041093 0.883252
vt 0.090041 0.883340
vt 0.138989 0.883427
vt 0.187937 0.883515
vt 0.040907 0.986410
vt 0.089856 0.986497
vt 0.138804 0.986585
vt 0.187752 0.986673
vt 0.331644 0.771983
vt 0.331747 0.715110
vt 0.450941 0.712301
vt 0.452233 0.669252
vt 0.340665 0.661826
vt 0.353041 0.602675
vt 0.250662 0.717021
vt 0.250898 0.655851
vt 0.331644 0.771983
vt 0.331747 0.715110
vt 0.450941 0.712301
vt 0.452233 0.669252
vt 0.340665 0.661826
vt 0.353041 0.602675
vt 0.250662 0.717021
vt 0.250898 0.655851
vt 0.331644 0.771983
vt 0.331747 0.715110
vt 0.450941 0.712301
vt 0.452233 0.669252
vt 0.340665 0.661826
vt 0.353041 0.602675
vt 0.250662 0.717021
vt 0.250898 0.655851
vt 0.016562 0.914804
vt 0.065510 0.914891
vt 0.065438 0.954858
vt 0.016490 0.954770
vt 0.114458 0.914979
vt 0.114386 0.954946
vt 0.163406 0.915067
vt 0.163335 0.955033
vt 0.212355 0.915155
vt 0.212283 0.955121
vt 0.041093 0.883252
vt 0.090041 0.883340
vt 0.138989 0.883427
vt 0.187937 0.883515
vt 0.040907 0.986410
vt 0.089856 0.986497
vt 0.138804 0.986585
vt 0.187752 0.986673
vt 0.016562 0.914804
vt 0.065510 0.914891
vt 0.065438 0.954858
vt 0.016490 0.954770
vt 0.114458 0.914979
vt 0.114386 0.954946
vt 0.163406 0.915067
vt 0.163335 0.955033
vt 0.212355 0.915155
vt 0.212283 0.955121
vt 0.041093 0.883252
vt 0.090041 0.883340
vt 0.138989 0.883427
vt 0.187937 0.883515
vt 0.040907 0.986410
vt 0.089856 0.986497
vt 0.138804 0.986585
vt 0.187752 0.986673
vt 0.331644 0.771983
vt 0.331747 0.715110
vt 0.450941 0.712301
vt 0.452233 0.669252
vt 0.340665 0.661826
vt 0.353041 0.602675
vt 0.250662 0.717021
vt 0.250898 0.655851
vt 0.331644 0.771983
vt 0.331747 0.715110
vt 0.450941 0.712301
vt 0.452233 0.669252
vt 0.340665 0.661826
vt 0.353041 0.602675
vt 0.250662 0.717021
vt 0.250898 0.655851
vt 0.331644 0.771983
vt 0.331747 0.715110
vt 0.450941 0.712301
vt 0.452233 0.669252
vt 0.340665 0.661826
vt 0.353041 0.602675
vt 0.250662 0.717021
vt 0.250898 0.655851
vt 0.016562 0.914804
vt 0.065510 0.914891
vt 0.065438 0.954858
vt 0.016490 0.954770
vt 0.114458 0.914979
vt 0.114386 0.954946
vt 0.163406 0.915067
vt 0.163335 0.955033
vt 0.212355 0.915155
vt 0.212283 0.955121
vt 0.041093 0.883252
vt 0.090041 0.883340
vt 0.138989 0.883427
vt 0.187937 0.883515
vt 0.040907 0.986410
vt 0.089856 0.986497
vt 0.138804 0.986585
vt 0.187752 0.986673
vt 0.016562 0.914804
vt 0.065510 0.914891
vt 0.065438 0.954858
vt 0.016490 0.954770
vt 0.114458 0.914979
vt 0.114386 0.954946
vt 0.163406 0.915067
vt 0.163335 0.955033
vt 0.212355 0.915155
vt 0.212283 0.955121
vt 0.041093 0.883252
vt 0.090041 0.883340
vt 0.138989 0.883427
vt 0.187937 0.883515
vt 0.040907 0.986410
vt 0.089856 0.986497
vt 0.138804 0.986585
vt 0.187752 0.986673
vt 0.016562 0.914804
vt 0.065510 0.914891
vt 0.065438 0.954858
vt 0.016490 0.954770
vt 0.114458 0.914979
vt 0.114386 0.954946
vt 0.163406 0.915067
vt 0.163335 0.955033
vt 0.212355 0.915155
vt 0.212283 0.955121
vt 0.041093 0.883252
vt 0.090041 0.883340
vt 0.138989 0.883427
vt 0.187937 0.883515
vt 0.040907 0.986410
vt 0.089856 0.986497
vt 0.138804 0.986585
vt 0.187752 0.986673
vt 0.016562 0.914804
vt 0.065510 0.914891
vt 0.065438 0.954858
vt 0.016490 0.954770
vt 0.114458 0.914979
vt 0.114386 0.954946
vt 0.163406 0.915067
vt 0.163335 0.955033
vt 0.212355 0.915155
vt 0.212283 0.955121
vt 0.041093 0.883252
vt 0.090041 0.883340
vt 0.138989 0.883427
vt 0.187937 0.883515
vt 0.040907 0.986410
vt 0.089856 0.986497
vt 0.138804 0.986585
vt 0.187752 0.986673
vt 0.016562 0.914804
vt 0.065510 0.914891
vt 0.065438 0.954858
vt 0.016490 0.954770
vt 0.114458 0.914979
vt 0.114386 0.954946
vt 0.163406 0.915067
vt 0.163335 0.955033
vt 0.212355 0.915155
vt 0.212283 0.955121
vt 0.041093 0.883252
vt 0.090041 0.883340
vt 0.138989 0.883427
vt 0.187937 0.883515
vt 0.040907 0.986410
vt 0.089856 0.986497
vt 0.138804 0.986585
vt 0.187752 0.986673
vt 0.016562 0.914804
vt 0.065510 0.914891
vt 0.065438 0.954858
vt 0.016490 0.954770
vt 0.114458 0.914979
vt 0.114386 0.954946
vt 0.163406 0.915067
vt 0.163335 0.955033
vt 0.212355 0.915155
vt 0.212283 0.955121
vt 0.041093 0.883252
vt 0.090041 0.883340
vt 0.138989 0.883427
vt 0.187937 0.883515
vt 0.040907 0.986410
vt 0.089856 0.986497
vt 0.138804 0.986585
vt 0.187752 0.986673
vn -0.312697 0.845521 -0.432799
vn -0.312697 0.845521 -0.432799
vn -0.312697 0.845521 -0.432799
vn -0.312697 0.845521 -0.432799
vn -0.891293 -0.418704 -0.174022
vn -0.891293 -0.418704 -0.174022
vn -0.891293 -0.418704 -0.174022
vn -0.891293 -0.418704 -0.174022
vn 0.312695 -0.845522 0.432798
vn 0.312695 -0.845522 0.432798
vn 0.312695 -0.845522 0.432798
vn 0.312695 -0.845522 0.432798
vn 0.891294 0.418705 0.174016
vn 0.891294 0.418705 0.174016
vn 0.891294 0.418705 0.174016
vn 0.891294 0.418705 0.174016
vn 0.073798 0.244695 -0.966788
vn 0.073798 0.244695 -0.966788
vn 0.073798 0.244695 -0.966788
vn -0.274659 -0.516665 -0.810937
vn -0.274659 -0.516665 -0.810937
vn -0.274659 -0.516665 -0.810937
vn 0.450437 -0.773704 -0.445522
vn 0.450437 -0.773704 -0.445522
vn 0.450437 -0.773704 -0.445522
vn 0.798877 -0.012364 -0.601368
vn 0.798877 -0.012364 -0.601368
vn 0.798877 -0.012364 -0.601368
vn -0.450438 0.773705 0.445518
vn -0.450438 0.773705 0.445518
vn -0.450438 0.773705 0.445518
vn -0.798882 0.012366 0.601361
vn -0.798882 0.012366 0.601361
vn -0.798882 0.012366 0.601361
vn -0.073798 -0.244697 0.966787
vn -0.073798 -0.244697 0.966787
vn -0.073798 -0.244697 0.966787
vn 0.274655 0.516664 0.810939
vn 0.274655 0.516664 0.810939
vn 0.274655 0.516664 0.810939
vn -0.449261 -0.546044 -0.707107
vn -0.449261 -0.546044 -0.707107
vn -0.449261 -0.546044 -0.707107
vn -0.449261 -0.546044 -0.707107
vn -0.449261 -0.546044 0.707107
vn -0.449261 -0.546044 0.707107
vn -0.449261 -0.546044 0.707107
vn -0.449261 -0.546044 0.707107
vn 0.449262 0.546044 0.707107
vn 0.449262 0.546044 0.707107
vn 0.449262 0.546044 0.707107
vn 0.449262 0.546044 0.707107
vn 0.449262 0.546044 -0.707107
vn 0.449262 0.546044 -0.707107
vn 0.449262 0.546044 -0.707107
vn 0.449262 0.546044 -0.707107
vn 0.345925 -0.836061 -0.425838
vn 0.345925 -0.836061 -0.425838
vn 0.345925 -0.836061 -0.425838
vn 0.345925 -0.836061 0.425838
vn 0.345925 -0.836061 0.425838
vn 0.345925 -0.836061 0.425838
vn 0.887046 -0.178373 0.425832
vn 0.887046 -0.178373 0.425832
vn 0.887046 -0.178373 0.425832
vn 0.887046 -0.178373 -0.425832
vn 0.887046 -0.178373 -0.425832
vn 0.887046 -0.178373 -0.425832
vn -0.887046 0.178373 -0.425831
vn -0.887046 0.178373 -0.425831
vn -0.887046 0.178373 -0.425831
vn -0.887046 0.178373 0.425832
vn -0.887046 0.178373 0.425832
vn -0.887046 0.178373 0.425832
vn -0.345926 0.836061 0.425837
vn -0.345926 0.836061 0.425837
vn -0.345926 0.836061 0.425837
vn -0.345926 0.836061 -0.425837
vn -0.345926 0.836061 -0.425837
vn -0.345926 0.836061 -0.425837
vn -0.132431 -0.806718 -0.575906
vn -0.132431 -0.806718 -0.575906
vn -0.132431 -0.806718 -0.575906
vn -0.132431 -0.806718 -0.575906
vn -0.766095 -0.285363 0.575904
vn -0.766095 -0.285363 0.575904
vn -0.766095 -0.285363 0.575904
vn -0.766095 -0.285363 0.575905
vn 0.132432 0.806718 0.575907
vn 0.132432 0.806718 0.575907
vn 0.132432 0.806718 0.575907
vn 0.132432 0.806718 0.575907
vn 0.766095 0.285364 -0.575904
vn 0.766095 0.285364 -0.575904
vn 0.766095 0.285364 -0.575904
vn 0.766095 0.285364 -0.575904
vn 0.422342 -0.898934 0.116381
vn 0.422342 -0.898934 0.116381
vn 0.422342 -0.898934 0.116381
vn 0.040733 -0.584963 0.810037
vn 0.040733 -0.584962 0.810037
vn 0.040733 -0.584963 0.810037
vn 0.581852 0.072723 0.810037
vn 0.581852 0.072723 0.810037
vn 0.581852 0.072723 0.810037
vn 0.963459 -0.241252 0.116382
vn 0.963459 -0.241252 0.116382
vn 0.963459 -0.241252 0.116382
vn -0.581852 -0.072723 -0.810037
vn -0.581852 -0.072723 -0.810037
vn -0.581852 -0.072723 -0.810037
vn -0.963459 0.241251 -0.116382
vn -0.963459 0.241251 -0.116382
vn -0.963459 0.241251 -0.116382
vn -0.422342 0.898935 -0.116380
vn -0.422342 0.898934 -0.116380
vn -0.422342 0.898935 -0.116380
vn -0.040732 0.584962 -0.810037
vn -0.040732 0.584962 -0.810037
vn -0.040732 0.584962 -0.810037
vn -0.778229 0.355869 -0.517413
vn -0.778229 0.355869 -0.517413
vn -0.778229 0.355869 -0.517413
vn -0.778229 0.355869 -0.517413
vn -0.625126 -0.360519 0.692275
vn -0.625126 -0.360519 0.692275
vn -0.625126 -0.360519 0.692275
vn -0.625126 -0.360519 0.692275
vn 0.778228 -0.355880 0.517408
vn 0.778228 -0.355880 0.517408
vn 0.778228 -0.355880 0.517408
vn 0.778228 -0.355880 0.517408
vn 0.625127 0.360518 -0.692274
vn 0.625127 0.360518 -0.692274
vn 0.625127 0.360518 -0.692274
vn 0.625127 0.360518 -0.692274
vn -0.516439 -0.473988 -0.713181
vn -0.516439 -0.473988 -0.713181
vn -0.516439 -0.473988 -0.713181
vn -0.424236 -0.905422 0.015325
vn -0.424236 -0.905422 0.015325
vn -0.424236 -0.905422 0.015325
vn 0.420914 -0.902627 -0.089979
vn 0.420914 -0.902627 -0.089979
vn 0.420914 -0.902627 -0.089979
vn 0.328712 -0.471191 -0.818491
vn 0.328712 -0.471191 -0.818491
vn 0.328712 -0.471191 -0.818491
vn -0.420907 0.902629 0.089986
vn -0.420908 0.902629 0.089986
vn -0.420907 0.902629 0.089986
vn -0.328706 0.471193 0.818492
vn -0.328706 0.471193 0.818492
vn -0.328706 0.471193 0.818492
vn 0.516437 0.473989 0.713181
vn 0.516437 0.473989 0.713181
vn 0.516437 0.473989 0.713181
vn 0.424234 0.905423 -0.015329
vn 0.424234 0.905423 -0.015329
vn 0.424234 0.905423 -0.015329
vn -0.753609 -0.316884 -0.575898
vn -0.753609 -0.316884 -0.575898
vn -0.753609 -0.316884 -0.575898
vn -0.753609 -0.316884 -0.575898
vn -0.649101 0.496995 0.575903
vn -0.649101 0.496995 0.575903
vn -0.649101 0.496995 0.575903
vn -0.649101 0.496995 0.575903
vn 0.753598 0.316891 0.575908
vn 0.753598 0.316891 0.575908
vn 0.753598 0.316891 0.575908
vn 0.753598 0.316891 0.575908
vn 0.649090 -0.497000 -0.575911
vn 0.649090 -0.497000 -0.575911
vn 0.649090 -0.497000 -0.575911
vn 0.649090 -0.497000 -0.575911
vn -0.536662 -0.835733 0.116380
vn -0.536662 -0.835733 0.116380
vn -0.536662 -0.835733 0.116380
vn -0.473722 -0.345591 0.810033
vn -0.473722 -0.345591 0.810033
vn -0.473722 -0.345591 0.810033
vn 0.371030 -0.454062 0.810040
vn 0.371030 -0.454062 0.810040
vn 0.371030 -0.454062 0.810040
vn 0.308094 -0.944211 0.116379
vn 0.308094 -0.944211 0.116379
vn 0.308094 -0.944211 0.116379
vn -0.371033 0.454071 -0.810034
vn -0.371033 0.454071 -0.810034
vn -0.371033 0.454071 -0.810034
vn -0.308095 0.944210 -0.116388
vn -0.308095 0.944209 -0.116388
vn -0.308095 0.944210 -0.116388
vn 0.536658 0.835738 -0.116365
vn 0.536658 0.835738 -0.116365
vn 0.536658 0.835738 -0.116365
vn 0.473716 0.345579 -0.810042
vn 0.473716 0.345579 -0.810042
vn 0.473716 0.345579 -0.810042
vn -0.324203 -0.923655 -0.204337
vn -0.324203 -0.923655 -0.204337
vn -0.324203 -0.923655 -0.204337
vn -0.324203 -0.923655 -0.204337
vn -0.776901 0.136722 0.614599
vn -0.776901 0.136722 0.614599
vn -0.776901 0.136722 0.614599
vn -0.776901 0.136722 0.614599
vn 0.324201 0.923656 0.204337
vn 0.324201 0.923656 0.204337
vn 0.324201 0.923656 0.204337
vn 0.324201 0.923656 0.204337
vn 0.776897 -0.136723 -0.614604
vn 0.776897 -0.136723 -0.614604
vn 0.776897 -0.136723 -0.614604
vn 0.776897 -0.136723 -0.614604
vn 0.235642 -0.842058 0.485193
vn 0.235642 -0.842057 0.485193
vn 0.235642 -0.842058 0.485193
vn -0.036988 -0.203462 0.978384
vn -0.036988 -0.203462 0.978384
vn -0.036988 -0.203462 0.978384
vn 0.626131 0.270450 0.731312
vn 0.626131 0.270450 0.731312
vn 0.626131 0.270450 0.731312
vn 0.898759 -0.368143 0.238123
vn 0.898759 -0.368143 0.238123
vn 0.898759 -0.368143 0.238123
vn -0.626135 -0.270452 -0.731307
vn -0.626135 -0.270452 -0.731307
vn -0.626135 -0.270452 -0.731307
vn -0.898763 0.368136 -0.238120
vn -0.898763 0.368135 -0.238120
vn -0.898763 0.368136 -0.238120
vn -0.235643 0.842057 -0.485194
vn -0.235643 0.842056 -0.485194
vn -0.235643 0.842056 -0.485194
vn 0.036987 0.203464 -0.978384
vn 0.036987 0.203464 -0.978384
vn 0.036987 0.203464 -0.978384
vn 0.059477 -0.815349 -0.575906
vn 0.059477 -0.815349 -0.575906
vn 0.059477 -0.815349 -0.575906
vn 0.059477 -0.815349 -0.575906
vn -0.678350 -0.456263 0.575904
vn -0.678350 -0.456263 0.575904
vn -0.678350 -0.456263 0.575904
vn -0.678350 -0.456263 0.575904
vn -0.059477 0.815349 0.575906
vn -0.059477 0.815349 0.575906
vn -0.059477 0.815349 0.575906
vn -0.059477 0.815349 0.575906
vn 0.678350 0.456263 -0.575904
vn 0.678350 0.456263 -0.575904
vn 0.678350 0.456263 -0.575904
vn 0.678350 0.456263 -0.575904
vn 0.620453 -0.775560 0.116380
vn 0.620453 -0.775560 0.116380
vn 0.620453 -0.775560 0.116380
vn 0.176110 -0.559306 0.810038
vn 0.176110 -0.559306 0.810038
vn 0.176110 -0.559307 0.810038
vn 0.548814 0.206498 0.810038
vn 0.548814 0.206498 0.810038
vn 0.548815 0.206498 0.810038
vn 0.993157 -0.009755 0.116383
vn 0.993157 -0.009755 0.116383
vn 0.993157 -0.009755 0.116383
vn -0.548815 -0.206498 -0.810038
vn -0.548815 -0.206498 -0.810037
vn -0.548815 -0.206498 -0.810038
vn -0.993156 0.009755 -0.116383
vn -0.993156 0.009755 -0.116383
vn -0.993157 0.009755 -0.116383
vn -0.620453 0.775560 -0.116381
vn -0.620453 0.775560 -0.116381
vn -0.620453 0.775560 -0.116381
vn -0.176112 0.559306 -0.810038
vn -0.176112 0.559306 -0.810038
vn -0.176112 0.559306 -0.810038
vn -0.587652 -0.678393 -0.440962
vn -0.587652 -0.678393 -0.440962
vn -0.587652 -0.678393 -0.440962
vn -0.587652 -0.678393 -0.440962
vn -0.513454 -0.108535 0.851226
vn -0.513453 -0.108535 0.851226
vn -0.513454 -0.108535 0.851226
vn -0.513453 -0.108535 0.851226
vn 0.587645 0.678398 0.440964
vn 0.587645 0.678398 0.440964
vn 0.587645 0.678398 0.440964
vn 0.587645 0.678398 0.440964
vn 0.513454 0.108526 -0.851227
vn 0.513454 0.108526 -0.851227
vn 0.513454 0.108526 -0.851227
vn 0.513454 0.108526 -0.851227
vn 0.145312 -0.988640 -0.038405
vn 0.145312 -0.988640 -0.038405
vn 0.145312 -0.988640 -0.038405
vn 0.189993 -0.645451 0.739794
vn 0.189993 -0.645451 0.739794
vn 0.189993 -0.645451 0.739794
vn 0.853115 -0.171533 0.492717
vn 0.853115 -0.171533 0.492717
vn 0.853115 -0.171533 0.492717
vn 0.808427 -0.514725 -0.285489
vn 0.808427 -0.514725 -0.285489
vn 0.808427 -0.514725 -0.285489
vn -0.853115 0.171533 -0.492718
vn -0.853115 0.171533 -0.492718
vn -0.853115 0.171533 -0.492718
vn -0.808436 0.514721 0.285472
vn -0.808435 0.514721 0.285472
vn -0.808436 0.514721 0.285472
vn -0.145313 0.988640 0.038401
vn -0.145313 0.988640 0.038401
vn -0.145313 0.988640 0.038401
vn -0.189992 0.645451 -0.739795
vn -0.189992 0.645451 -0.739795
vn -0.189992 0.645451 -0.739795
vn -0.498999 0.401681 -0.767888
vn -0.498999 0.401681 -0.767888
vn -0.498999 0.401681 -0.767888
vn -0.498999 0.401681 -0.767888
vn -0.484893 0.604984 0.631564
vn -0.484893 0.604984 0.631564
vn -0.484893 0.604984 0.631564
vn -0.484893 0.604984 0.631564
vn 0.499003 -0.401677 0.767888
vn 0.499003 -0.401677 0.767888
vn 0.499003 -0.401677 0.767888
vn 0.499003 -0.401677 0.767888
vn 0.484893 -0.604984 -0.631564
vn 0.484893 -0.604984 -0.631564
vn 0.484893 -0.604984 -0.631564
vn 0.484893 -0.604984 -0.631564
vn -0.873907 -0.306936 -0.376932
vn -0.873907 -0.306936 -0.376932
vn -0.873906 -0.306936 -0.376932
vn -0.865407 -0.184498 0.465866
vn -0.865407 -0.184498 0.465866
vn -0.865407 -0.184498 0.465866
vn -0.272877 -0.790744 0.547962
vn -0.272877 -0.790744 0.547962
vn -0.272877 -0.790744 0.547962
vn -0.281373 -0.913183 -0.294833
vn -0.281373 -0.913183 -0.294833
vn -0.281373 -0.913183 -0.294833
vn 0.272881 0.790745 -0.547959
vn 0.272881 0.790745 -0.547959
vn 0.272881 0.790745 -0.547959
vn 0.281377 0.913181 0.294834
vn 0.281377 0.913181 0.294834
vn 0.281377 0.913181 0.294834
vn 0.873907 0.306936 0.376931
vn 0.873907 0.306936 0.376931
vn 0.873907 0.306936 0.376931
vn 0.865411 0.184500 -0.465857
vn 0.865411 0.184500 -0.465857
vn 0.865411 0.184500 -0.465857
vn -0.132432 -0.806717 -0.575907
vn -0.132432 -0.806717 -0.575907
vn -0.132432 -0.806718 -0.575907
vn -0.132432 -0.806717 -0.575907
vn -0.766095 -0.285366 0.575904
vn -0.766095 -0.285366 0.575904
vn -0.766095 -0.285366 0.575904
vn -0.766095 -0.285366 0.575904
vn 0.132430 0.806719 0.575906
vn 0.132430 0.806719 0.575906
vn 0.132430 0.806719 0.575906
vn 0.132430 0.806719 0.575906
vn 0.766094 0.285366 -0.575905
vn 0.766094 0.285366 -0.575905
vn 0.766094 0.285366 -0.575905
vn 0.766094 0.285366 -0.575905
vn 0.422341 -0.898935 0.116378
vn 0.422341 -0.898935 0.116378
vn 0.422341 -0.898935 0.116378
vn 0.040731 -0.584962 0.810037
vn 0.040731 -0.584962 0.810037
vn 0.040731 -0.584962 0.810037
vn 0.581851 0.072726 0.810037
vn 0.581851 0.072726 0.810037
vn 0.581851 0.072726 0.810037
vn 0.963460 -0.241250 0.116377
vn 0.963460 -0.241250 0.116377
vn 0.963460 -0.241250 0.116377
vn -0.581847 -0.072733 -0.810040
vn -0.581847 -0.072733 -0.810040
vn -0.581847 -0.072733 -0.810040
vn -0.963462 0.241241 -0.116376
vn -0.963462 0.241241 -0.116376
vn -0.963462 0.241241 -0.116376
vn -0.422341 0.898935 -0.116377
vn -0.422342 0.898935 -0.116377
vn -0.422341 0.898935 -0.116377
vn -0.040730 0.584960 -0.810039
vn -0.040730 0.584960 -0.810039
vn -0.040730 0.584960 -0.810039
vn 0.059476 -0.815349 -0.575907
vn 0.059476 -0.815349 -0.575907
vn 0.059476 -0.815349 -0.575907
vn 0.059476 -0.815349 -0.575907
vn -0.678349 -0.456263 0.575904
vn -0.678349 -0.456263 0.575904
vn -0.678349 -0.456263 0.575904
vn -0.678349 -0.456263 0.575904
vn -0.059478 0.815349 0.575906
vn -0.059478 0.815349 0.575906
vn -0.059478 0.815349 0.575906
vn -0.059478 0.815349 0.575906
vn 0.678344 0.456261 -0.575913
vn 0.678344 0.456261 -0.575913
vn 0.678344 0.456261 -0.575913
vn 0.678344 0.456261 -0.575913
vn 0.620452 -0.775561 0.116380
vn 0.620452 -0.775561 0.116380
vn 0.620452 -0.775561 0.116380
vn 0.176111 -0.559306 0.810038
vn 0.176111 -0.559306 0.810038
vn 0.176111 -0.559306 0.810038
vn 0.548815 0.206498 0.810038
vn 0.548815 0.206498 0.810038
vn 0.548815 0.206498 0.810038
vn 0.993156 -0.009755 0.116383
vn 0.993157 -0.009755 0.116383
vn 0.993156 -0.009755 0.116383
vn -0.548825 -0.206496 -0.810031
vn -0.548825 -0.206496 -0.810031
vn -0.548825 -0.206496 -0.810031
vn -0.993157 0.009755 -0.116383
vn -0.993157 0.009755 -0.116383
vn -0.993157 0.009755 -0.116383
vn -0.620453 0.775560 -0.116381
vn -0.620453 0.775560 -0.116381
vn -0.620453 0.775560 -0.116381
vn -0.176114 0.559309 -0.810036
vn -0.176114 0.559309 -0.810036
vn -0.176114 0.559309 -0.810036
vn 0.233675 -0.860089 -0.453478
vn 0.233675 -0.860089 -0.453478
vn 0.233675 -0.860090 -0.453478
vn 0.233675 -0.860089 -0.453478
vn -0.225394 -0.501602 0.835221
vn -0.225394 -0.501602 0.835221
vn -0.225394 -0.501602 0.835221
vn -0.225394 -0.501602 0.835221
vn -0.233676 0.860089 0.453479
vn -0.233676 0.860089 0.453479
vn -0.233676 0.860089 0.453479
vn -0.233676 0.860089 0.453479
vn 0.225396 0.501602 -0.835220
vn 0.225396 0.501602 -0.835220
vn 0.225396 0.501602 -0.835220
vn 0.225396 0.501602 -0.835220
vn 0.895787 -0.443793 -0.024765
vn 0.895787 -0.443793 -0.024765
vn 0.895787 -0.443793 -0.024765
vn 0.619320 -0.227895 0.751336
vn 0.619320 -0.227895 0.751336
vn 0.619320 -0.227895 0.751337
vn 0.614340 0.592191 0.521437
vn 0.614340 0.592191 0.521437
vn 0.614340 0.592191 0.521437
vn 0.890810 0.376296 -0.254674
vn 0.890810 0.376296 -0.254674
vn 0.890810 0.376296 -0.254674
vn -0.614339 -0.592192 -0.521437
vn -0.614339 -0.592192 -0.521437
vn -0.614339 -0.592192 -0.521437
vn -0.890810 -0.376297 0.254674
vn -0.890810 -0.376297 0.254674
vn -0.890810 -0.376297 0.254674
vn -0.895788 0.443791 0.024766
vn -0.895788 0.443791 0.024766
vn -0.895788 0.443791 0.024766
vn -0.619321 0.227894 -0.751336
vn -0.619321 0.227894 -0.751336
vn -0.619322 0.227894 -0.751336
vn -0.320127 -0.630489 -0.707108
vn -0.320127 -0.630489 -0.707108
vn -0.320127 -0.630489 -0.707108
vn -0.320127 -0.630489 -0.707108
vn -0.320127 -0.630489 0.707108
vn -0.320127 -0.630489 0.707108
vn -0.320127 -0.630489 0.707108
vn -0.320127 -0.630489 0.707108
vn 0.320128 0.630494 0.707104
vn 0.320128 0.630494 0.707104
vn 0.320128 0.630494 0.707104
vn 0.320128 0.630494 0.707104
vn 0.320129 0.630494 -0.707103
vn 0.320129 0.630494 -0.707103
vn 0.320129 0.630494 -0.707103
vn 0.320129 0.630494 -0.707103
vn 0.519040 -0.741124 -0.425833
vn 0.519040 -0.741124 -0.425833
vn 0.519040 -0.741124 -0.425833
vn 0.519039 -0.741124 0.425833
vn 0.519039 -0.741124 0.425833
vn 0.519039 -0.741124 0.425833
vn 0.904621 0.018274 0.425825
vn 0.904621 0.018274 0.425825
vn 0.904621 0.018274 0.425825
vn 0.904621 0.018274 -0.425825
vn 0.904621 0.018274 -0.425825
vn 0.904621 0.018274 -0.425825
vn -0.904612 -0.018274 -0.425844
vn -0.904612 -0.018274 -0.425844
vn -0.904612 -0.018274 -0.425844
vn -0.904612 -0.018274 0.425844
vn -0.904612 -0.018274 0.425844
vn -0.904612 -0.018274 0.425844
vn -0.519036 0.741120 0.425844
vn -0.519036 0.741120 0.425844
vn -0.519036 0.741120 0.425844
vn -0.519035 0.741120 -0.425844
vn -0.519035 0.741120 -0.425844
vn -0.519035 0.741120 -0.425844
vn -0.634730 0.311648 -0.707102
vn -0.634730 0.311648 -0.707102
vn -0.634730 0.311648 -0.707102
vn -0.634730 0.311648 -0.707102
vn -0.634730 0.311648 0.707102
vn -0.634730 0.311648 0.707102
vn -0.634730 0.311648 0.707102
vn -0.634730 0.311648 0.707102
vn 0.634724 -0.311645 0.707109
vn 0.634724 -0.311645 0.707109
vn 0.634724 -0.311645 0.707109
vn 0.634724 -0.311645 0.707109
vn 0.634724 -0.311645 -0.707109
vn 0.634724 -0.311645 -0.707109
vn 0.634724 -0.311645 -0.707109
vn 0.634724 -0.311645 -0.707109
vn -0.734103 -0.528914 -0.425843
vn -0.734103 -0.528914 -0.425843
vn -0.734103 -0.528914 -0.425843
vn -0.734103 -0.528914 0.425843
vn -0.734103 -0.528914 0.425843
vn -0.734103 -0.528914 0.425843
vn 0.030402 -0.904287 0.425841
vn 0.030402 -0.904287 0.425841
vn 0.030402 -0.904287 0.425841
vn 0.030402 -0.904287 -0.425841
vn 0.030402 -0.904287 -0.425841
vn 0.030402 -0.904287 -0.425841
vn -0.030403 0.904288 -0.425840
vn -0.030403 0.904288 -0.425840
vn -0.030403 0.904288 -0.425840
vn -0.030403 0.904288 0.425840
vn -0.030403 0.904288 0.425840
vn -0.030403 0.904288 0.425840
vn 0.734098 0.528911 0.425855
vn 0.734098 0.528911 0.425855
vn 0.734098 0.528911 0.425855
vn 0.734099 0.528911 -0.425855
vn 0.734099 0.528911 -0.425855
vn 0.734099 0.528911 -0.425855
vn 0.035513 0.988572 -0.146505
vn 0.035513 0.988572 -0.146505
vn 0.035513 0.988572 -0.146505
vn 0.035513 0.988572 -0.146505
vn -0.899154 0.095599 0.427064
vn -0.899154 0.095599 0.427064
vn -0.899154 0.095599 0.427064
vn -0.899154 0.095599 0.427064
vn -0.035512 -0.988573 0.146503
vn -0.035512 -0.988573 0.146503
vn -0.035512 -0.988573 0.146503
vn -0.035512 -0.988573 0.146503
vn 0.899154 -0.095599 -0.427064
vn 0.899154 -0.095599 -0.427064
vn 0.899154 -0.095599 -0.427064
vn 0.899154 -0.095599 -0.427064
vn -0.326840 0.502309 -0.800538
vn -0.326840 0.502309 -0.800538
vn -0.326840 0.502309 -0.800538
vn -0.889727 -0.035464 -0.455114
vn -0.889727 -0.035464 -0.455114
vn -0.889727 -0.035464 -0.455114
vn -0.369615 -0.688403 -0.624088
vn -0.369615 -0.688403 -0.624088
vn -0.369615 -0.688403 -0.624088
vn 0.193259 -0.150616 -0.969518
vn 0.193259 -0.150616 -0.969519
vn 0.193259 -0.150616 -0.969519
vn 0.369616 0.688402 0.624089
vn 0.369616 0.688402 0.624089
vn 0.369616 0.688402 0.624089
vn -0.193259 0.150615 0.969519
vn -0.193259 0.150615 0.969519
vn -0.193259 0.150615 0.969519
vn 0.326841 -0.502308 0.800538
vn 0.326841 -0.502308 0.800538
vn 0.326841 -0.502308 0.800538
vn 0.889726 0.035463 0.455115
vn 0.889726 0.035463 0.455115
vn 0.889726 0.035463 0.455115
vn 0.068378 0.974746 0.212591
vn 0.047408 0.941042 0.334951
vn 0.099870 0.930225 0.353141
vn 0.027412 0.860931 0.507983
vn 0.065082 0.772116 0.632141
vn 0.043320 0.414704 0.908924
vn -0.028494 0.929193 0.368496
vn 0.077152 0.854892 0.513038
vn 0.060059 0.964210 0.258247
vn -0.011385 0.988432 0.151237
vn -0.074261 0.977254 0.198647
vn -0.142433 0.989570 -0.021553
vn -0.276224 0.958352 -0.072541
vn -0.547544 0.755861 -0.358984
vn 0.051867 0.997524 0.047495
vn -0.210205 0.976852 0.039683
vn -0.241917 0.958490 0.150907
vn -0.131473 0.987507 0.086861
vn -0.176329 0.984102 0.021268
vn 0.046808 0.998250 -0.036150
vn 0.102918 0.980005 -0.170289
vn 0.396851 0.800278 -0.449517
vn -0.030404 0.987460 0.154913
vn -0.011676 0.994154 -0.107335
vn -0.449259 -0.546048 -0.707105
vn -0.449259 -0.546048 -0.707105
vn -0.449259 -0.546048 -0.707105
vn -0.449259 -0.546048 -0.707105
vn -0.449259 -0.546049 0.707105
vn -0.449259 -0.546048 0.707105
vn -0.449259 -0.546048 0.707105
vn -0.449259 -0.546048 0.707105
vn 0.449259 0.546049 0.707105
vn 0.449259 0.546049 0.707105
vn 0.449259 0.546049 0.707105
vn 0.449259 0.546049 0.707105
vn 0.449259 0.546049 -0.707105
vn 0.449259 0.546049 -0.707105
vn 0.449259 0.546049 -0.707105
vn 0.449259 0.546049 -0.707105
vn 0.345922 -0.836061 -0.425840
vn 0.345922 -0.836061 -0.425840
vn 0.345922 -0.836061 -0.425840
vn 0.345922 -0.836061 0.425841
vn 0.345922 -0.836061 0.425841
vn 0.345922 -0.836061 0.425840
vn 0.887047 -0.178355 0.425838
vn 0.887047 -0.178355 0.425838
vn 0.887047 -0.178355 0.425838
vn 0.887047 -0.178355 -0.425838
vn 0.887047 -0.178355 -0.425838
vn 0.887047 -0.178355 -0.425838
vn -0.887047 0.178355 -0.425838
vn -0.887047 0.178355 -0.425838
vn -0.887047 0.178355 -0.425838
vn -0.887047 0.178355 0.425838
vn -0.887047 0.178355 0.425838
vn -0.887047 0.178355 0.425838
vn -0.345922 0.836060 0.425841
vn -0.345922 0.836060 0.425841
vn -0.345922 0.836060 0.425841
vn -0.345922 0.836060 -0.425841
vn -0.345922 0.836061 -0.425841
vn -0.345922 0.836060 -0.425841
vn -0.767717 0.258419 -0.586370
vn -0.767717 0.258419 -0.586370
vn -0.767717 0.258419 -0.586370
vn -0.767717 0.258419 -0.586370
vn -0.638249 -0.389872 0.663806
vn -0.638249 -0.389872 0.663806
vn -0.638249 -0.389872 0.663806
vn -0.638249 -0.389872 0.663806
vn 0.767712 -0.258433 0.586370
vn 0.767712 -0.258433 0.586370
vn 0.767712 -0.258433 0.586370
vn 0.767712 -0.258433 0.586370
vn 0.638243 0.389883 -0.663805
vn 0.638243 0.389883 -0.663805
vn 0.638243 0.389883 -0.663805
vn 0.638243 0.389883 -0.663805
vn -0.416799 -0.549963 -0.723754
vn -0.416799 -0.549963 -0.723754
vn -0.416799 -0.549963 -0.723754
vn -0.338828 -0.940397 0.029142
vn -0.338828 -0.940397 0.029142
vn -0.338828 -0.940397 0.029142
vn 0.507886 -0.861247 -0.017494
vn 0.507886 -0.861247 -0.017494
vn 0.507886 -0.861247 -0.017494
vn 0.429916 -0.470819 -0.770391
vn 0.429916 -0.470819 -0.770391
vn 0.429916 -0.470819 -0.770391
vn -0.507885 0.861247 0.017511
vn -0.507885 0.861247 0.017511
vn -0.507885 0.861247 0.017511
vn -0.429916 0.470820 0.770391
vn -0.429916 0.470820 0.770391
vn -0.429916 0.470820 0.770390
vn 0.416800 0.549963 0.723753
vn 0.416800 0.549963 0.723753
vn 0.416800 0.549963 0.723753
vn 0.338826 0.940397 -0.029149
vn 0.338826 0.940397 -0.029149
vn 0.338826 0.940397 -0.029149
vn -0.017849 0.993384 0.113443
vn -0.122079 0.974838 0.186517
vn -0.099111 0.966317 0.237507
vn -0.265521 0.916402 0.299510
vn -0.334698 0.843374 0.420355
vn -0.576895 0.522345 0.627971
vn -0.200065 0.967163 0.156749
vn -0.234750 0.911023 0.339012
vn -0.056909 0.988489 0.140182
vn -0.029159 0.999494 0.012703
vn -0.107767 0.994175 0.001815
vn 0.001354 0.979574 -0.201080
vn -0.059072 0.942377 -0.329296
vn -0.064154 0.706500 -0.704800
vn 0.089401 0.995880 -0.015163
vn -0.090606 0.974410 -0.205707
vn -0.193152 0.969735 -0.149353
vn -0.067870 0.990734 -0.117646
vn -0.053192 0.979363 -0.194985
vn 0.145117 0.986411 -0.077039
vn 0.277808 0.951961 -0.128816
vn 0.665896 0.739556 -0.098184
vn -0.045179 0.998977 0.001783
vn 0.154140 0.973674 -0.167929
vn -0.320129 -0.630489 -0.707107
vn -0.320129 -0.630489 -0.707107
vn -0.320129 -0.630489 -0.707107
vn -0.320129 -0.630489 -0.707107
vn -0.320129 -0.630489 0.707107
vn -0.320129 -0.630489 0.707107
vn -0.320129 -0.630489 0.707107
vn -0.320129 -0.630489 0.707107
vn 0.320128 0.630492 0.707106
vn 0.320128 0.630492 0.707106
vn 0.320128 0.630492 0.707106
vn 0.320128 0.630492 0.707106
vn 0.320128 0.630492 -0.707106
vn 0.320128 0.630492 -0.707106
vn 0.320128 0.630492 -0.707106
vn 0.320128 0.630492 -0.707106
vn 0.519028 -0.741130 -0.425836
vn 0.519028 -0.741130 -0.425836
vn 0.519028 -0.741130 -0.425836
vn 0.519028 -0.741130 0.425836
vn 0.519028 -0.741130 0.425836
vn 0.519028 -0.741130 0.425836
vn 0.904617 0.018285 0.425833
vn 0.904617 0.018285 0.425833
vn 0.904617 0.018285 0.425833
vn 0.904617 0.018285 -0.425832
vn 0.904617 0.018285 -0.425832
vn 0.904617 0.018285 -0.425832
vn -0.904613 -0.018295 -0.425840
vn -0.904613 -0.018295 -0.425840
vn -0.904613 -0.018295 -0.425840
vn -0.904613 -0.018295 0.425840
vn -0.904613 -0.018295 0.425840
vn -0.904613 -0.018295 0.425840
vn -0.519026 0.741128 0.425843
vn -0.519026 0.741128 0.425843
vn -0.519026 0.741128 0.425843
vn -0.519026 0.741128 -0.425843
vn -0.519026 0.741128 -0.425843
vn -0.519026 0.741128 -0.425843
vn -0.309436 -0.635807 -0.707106
vn -0.309436 -0.635807 -0.707106
vn -0.309436 -0.635807 -0.707106
vn -0.309436 -0.635807 -0.707106
vn -0.309436 -0.635806 0.707107
vn -0.309436 -0.635806 0.707107
vn -0.309436 -0.635806 0.707107
vn -0.309436 -0.635806 0.707107
vn 0.309434 0.635807 0.707107
vn 0.309434 0.635807 0.707107
vn 0.309434 0.635807 0.707107
vn 0.309434 0.635807 0.707107
vn 0.309435 0.635808 -0.707106
vn 0.309435 0.635808 -0.707106
vn 0.309435 0.635808 -0.707106
vn 0.309435 0.635808 -0.707106
vn 0.531470 -0.732259 -0.425837
vn 0.531470 -0.732259 -0.425837
vn 0.531470 -0.732259 -0.425837
vn 0.531469 -0.732259 0.425838
vn 0.531469 -0.732259 0.425838
vn 0.531469 -0.732259 0.425838
vn 0.904178 0.033554 0.425837
vn 0.904178 0.033554 0.425837
vn 0.904178 0.033554 0.425837
vn 0.904178 0.033554 -0.425837
vn 0.904178 0.033554 -0.425837
vn 0.904178 0.033554 -0.425837
vn -0.904178 -0.033554 -0.425837
vn -0.904178 -0.033554 -0.425837
vn -0.904178 -0.033554 -0.425837
vn -0.904178 -0.033554 0.425837
vn -0.904178 -0.033554 0.425837
vn -0.904178 -0.033554 0.425837
vn -0.531473 0.732254 0.425840
vn -0.531473 0.732254 0.425840
vn -0.531473 0.732254 0.425840
vn -0.531473 0.732255 -0.425840
vn -0.531473 0.732255 -0.425840
vn -0.531473 0.732255 -0.425840
vn -0.454133 0.800290 -0.391534
vn -0.454133 0.800290 -0.391534
vn -0.454133 0.800290 -0.391534
vn -0.454133 0.800290 -0.391534
vn -0.718523 -0.069153 0.692056
vn -0.718523 -0.069153 0.692056
vn -0.718523 -0.069153 0.692056
vn -0.718523 -0.069153 0.692056
vn 0.454135 -0.800289 0.391535
vn 0.454135 -0.800289 0.391535
vn 0.454135 -0.800289 0.391535
vn 0.454135 -0.800289 0.391535
vn 0.718523 0.069152 -0.692057
vn 0.718523 0.069152 -0.692057
vn 0.718523 0.069152 -0.692057
vn 0.718523 0.069152 -0.692057
vn -0.694025 0.006469 -0.719922
vn -0.694025 0.006469 -0.719922
vn -0.694025 0.006469 -0.719922
vn -0.853249 -0.517137 -0.067349
vn -0.853249 -0.517137 -0.067349
vn -0.853249 -0.517137 -0.067349
vn -0.147037 -0.957450 -0.248335
vn -0.147037 -0.957450 -0.248335
vn -0.147037 -0.957450 -0.248335
vn 0.012186 -0.433844 -0.900906
vn 0.012186 -0.433844 -0.900906
vn 0.012186 -0.433844 -0.900906
vn 0.147039 0.957450 0.248333
vn 0.147039 0.957450 0.248333
vn 0.147039 0.957450 0.248333
vn -0.012186 0.433844 0.900905
vn -0.012186 0.433844 0.900905
vn -0.012186 0.433844 0.900906
vn 0.694026 -0.006469 0.719921
vn 0.694026 -0.006469 0.719921
vn 0.694025 -0.006469 0.719921
vn 0.853249 0.517136 0.067353
vn 0.853249 0.517136 0.067353
vn 0.853249 0.517136 0.067353
vn -0.723481 0.650735 -0.230478
vn -0.723481 0.650735 -0.230478
vn -0.723481 0.650735 -0.230478
vn -0.723481 0.650735 -0.230478
vn -0.690350 -0.682878 0.238944
vn -0.690350 -0.682878 0.238944
vn -0.690350 -0.682878 0.238944
vn -0.690350 -0.682878 0.238944
vn 0.723475 -0.650740 0.230479
vn 0.723475 -0.650740 0.230479
vn 0.723475 -0.650740 0.230479
vn 0.723475 -0.650740 0.230479
vn 0.690346 0.682882 -0.238945
vn 0.690346 0.682882 -0.238945
vn 0.690346 0.682882 -0.238945
vn 0.690346 0.682882 -0.238945
vn -0.434193 0.126868 -0.891842
vn -0.434193 0.126868 -0.891842
vn -0.434193 0.126868 -0.891842
vn -0.414240 -0.676280 -0.609140
vn -0.414240 -0.676280 -0.609140
vn -0.414240 -0.676280 -0.609140
vn 0.437212 -0.656926 -0.614243
vn 0.437212 -0.656926 -0.614243
vn 0.437212 -0.656926 -0.614243
vn 0.417259 0.146223 -0.896947
vn 0.417259 0.146223 -0.896947
vn 0.417259 0.146223 -0.896947
vn -0.437215 0.656924 0.614242
vn -0.437215 0.656924 0.614242
vn -0.437215 0.656924 0.614242
vn -0.417263 -0.146224 0.896945
vn -0.417263 -0.146224 0.896945
vn -0.417263 -0.146224 0.896945
vn 0.434187 -0.126869 0.891844
vn 0.434188 -0.126869 0.891844
vn 0.434187 -0.126869 0.891844
vn 0.414235 0.676281 0.609142
vn 0.414235 0.676281 0.609142
vn 0.414235 0.676281 0.609142
vn -0.072367 0.828807 -0.554835
vn -0.072367 0.828807 -0.554835
vn -0.072367 0.828807 -0.554835
vn -0.072367 0.828807 -0.554835
vn -0.108626 0.546435 0.830427
vn -0.108626 0.546435 0.830427
vn -0.108626 0.546435 0.830427
vn -0.108626 0.546435 0.830427
vn 0.072367 -0.828807 0.554835
vn 0.072367 -0.828807 0.554835
vn 0.072367 -0.828807 0.554835
vn 0.072367 -0.828807 0.554835
vn 0.108625 -0.546435 -0.830427
vn 0.108625 -0.546435 -0.830427
vn 0.108625 -0.546435 -0.830427
vn 0.108625 -0.546435 -0.830427
vn -0.835085 0.403033 -0.374429
vn -0.835085 0.403033 -0.374429
vn -0.835085 0.403033 -0.374429
vn -0.856916 0.232980 0.459799
vn -0.856916 0.232980 0.459798
vn -0.856916 0.232980 0.459798
vn -0.747915 -0.595221 0.293829
vn -0.747915 -0.595221 0.293829
vn -0.747915 -0.595221 0.293829
vn -0.726082 -0.425175 -0.540399
vn -0.726082 -0.425175 -0.540399
vn -0.726082 -0.425175 -0.540399
vn 0.747915 0.595221 -0.293830
vn 0.747915 0.595221 -0.293830
vn 0.747915 0.595221 -0.293830
vn 0.726079 0.425169 0.540407
vn 0.726079 0.425169 0.540407
vn 0.726079 0.425169 0.540407
vn 0.835078 -0.403043 0.374435
vn 0.835078 -0.403043 0.374435
vn 0.835078 -0.403043 0.374435
vn 0.856914 -0.232992 -0.459797
vn 0.856914 -0.232992 -0.459797
vn 0.856914 -0.232992 -0.459797
vn -0.630203 -0.320699 -0.707104
vn -0.630203 -0.320699 -0.707104
vn -0.630203 -0.320699 -0.707104
vn -0.630203 -0.320699 -0.707104
vn -0.630203 -0.320699 0.707104
vn -0.630203 -0.320699 0.707104
vn -0.630203 -0.320699 0.707104
vn -0.630203 -0.320699 0.707104
vn 0.630203 0.320699 0.707104
vn 0.630203 0.320699 0.707104
vn 0.630203 0.320699 0.707104
vn 0.630203 0.320699 0.707104
vn 0.630203 0.320699 -0.707104
vn 0.630203 0.320699 -0.707104
vn 0.630203 0.320699 -0.707104
vn 0.630203 0.320699 -0.707104
vn -0.017457 -0.904629 -0.425842
vn -0.017457 -0.904629 -0.425842
vn -0.017457 -0.904629 -0.425842
vn -0.017457 -0.904629 0.425841
vn -0.017457 -0.904629 0.425841
vn -0.017457 -0.904629 0.425841
vn 0.741597 -0.518348 0.425851
vn 0.741597 -0.518348 0.425851
vn 0.741597 -0.518348 0.425851
vn 0.741597 -0.518348 -0.425851
vn 0.741597 -0.518348 -0.425851
vn 0.741597 -0.518348 -0.425851
vn -0.741597 0.518348 -0.425851
vn -0.741597 0.518348 -0.425851
vn -0.741597 0.518348 -0.425851
vn -0.741597 0.518348 0.425852
vn -0.741597 0.518348 0.425852
vn -0.741597 0.518348 0.425852
vn 0.017458 0.904629 0.425843
vn 0.017458 0.904629 0.425843
vn 0.017458 0.904629 0.425843
vn 0.017458 0.904629 -0.425843
vn 0.017458 0.904629 -0.425843
vn 0.017458 0.904629 -0.425843
s off
g pSphere25
usemtl lambert2SG
f 1/1/1 2/2/2 6/7/3 5/6/4
f 2/2/5 3/3/6 7/8/7 6/7/8
f 3/3/9 4/4/10 8/9/11 7/8/12
f 4/4/13 1/5/14 5/10/15 8/9/16
f 2/2/17 1/1/18 9/11/19
f 3/3/20 2/2/21 9/12/22
f 4/4/23 3/3/24 9/13/25
f 1/5/26 4/4/27 9/14/28
f 5/6/29 6/7/30 10/15/31
f 6/7/32 7/8/33 10/16/34
f 7/8/35 8/9/36 10/17/37
f 8/9/38 5/10/39 10/18/40
f 11/19/41 12/20/42 16/21/43 15/22/44
f 12/20/45 13/23/46 17/24/47 16/21/48
f 13/23/49 14/25/50 18/26/51 17/24/52
f 14/25/53 11/27/54 15/28/55 18/26/56
f 12/20/57 11/19/58 19/29/59
f 13/23/60 12/20/61 19/30/62
f 14/25/63 13/23/64 19/31/65
f 11/27/66 14/25/67 19/32/68
f 15/22/69 16/21/70 20/33/71
f 16/21/72 17/24/73 20/34/74
f 17/24/75 18/26/76 20/35/77
f 18/26/78 15/28/79 20/36/80
f 21/37/81 22/38/82 26/39/83 25/40/84
f 22/38/85 23/41/86 27/42/87 26/39/88
f 23/41/89 24/43/90 28/44/91 27/42/92
f 24/43/93 21/45/94 25/46/95 28/44/96
f 22/38/97 21/37/98 29/47/99
f 23/41/100 22/38/101 29/48/102
f 24/43/103 23/41/104 29/49/105
f 21/45/106 24/43/107 29/50/108
f 25/40/109 26/39/110 30/51/111
f 26/39/112 27/42/113 30/52/114
f 27/42/115 28/44/116 30/53/117
f 28/44/118 25/46/119 30/54/120
f 31/55/121 32/56/122 36/57/123 35/58/124
f 32/56/125 33/59/126 37/60/127 36/57/128
f 33/59/129 34/61/130 38/62/131 37/60/132
f 34/61/133 31/63/134 35/64/135 38/62/136
f 32/56/137 31/55/138 39/65/139
f 33/59/140 32/56/141 39/66/142
f 34/61/143 33/59/144 39/67/145
f 31/63/146 34/61/147 39/68/148
f 35/58/149 36/57/150 40/69/151
f 36/57/152 37/60/153 40/70/154
f 37/60/155 38/62/156 40/71/157
f 38/62/158 35/64/159 40/72/160
f 41/73/161 42/74/162 46/75/163 45/76/164
f 42/74/165 43/77/166 47/78/167 46/75/168
f 43/77/169 44/79/170 48/80/171 47/78/172
f 44/79/173 41/81/174 45/82/175 48/80/176
f 42/74/177 41/73/178 49/83/179
f 43/77/180 42/74/181 49/84/182
f 44/79/183 43/77/184 49/85/185
f 41/81/186 44/79/187 49/86/188
f 45/76/189 46/75/190 50/87/191
f 46/75/192 47/78/193 50/88/194
f 47/78/195 48/80/196 50/89/197
f 48/80/198 45/82/199 50/90/200
f 51/91/201 52/92/202 56/93/203 55/94/204
f 52/92/205 53/95/206 57/96/207 56/93/208
f 53/95/209 54/97/210 58/98/211 57/96/212
f 54/97/213 51/99/214 55/100/215 58/98/216
f 52/92/217 51/91/218 59/101/219
f 53/95/220 52/92/221 59/102/222
f 54/97/223 53/95/224 59/103/225
f 51/99/226 54/97/227 59/104/228
f 55/94/229 56/93/230 60/105/231
f 56/93/232 57/96/233 60/106/234
f 57/96/235 58/98/236 60/107/237
f 58/98/238 55/100/239 60/108/240
f 61/109/241 62/110/242 66/111/243 65/112/244
f 62/110/245 63/113/246 67/114/247 66/111/248
f 63/113/249 64/115/250 68/116/251 67/114/252
f 64/115/253 61/117/254 65/118/255 68/116/256
f 62/110/257 61/109/258 69/119/259
f 63/113/260 62/110/261 69/120/262
f 64/115/263 63/113/264 69/121/265
f 61/117/266 64/115/267 69/122/268
f 65/112/269 66/111/270 70/123/271
f 66/111/272 67/114/273 70/124/274
f 67/114/275 68/116/276 70/125/277
f 68/116/278 65/118/279 70/126/280
f 71/127/281 72/128/282 76/129/283 75/130/284
f 72/128/285 73/131/286 77/132/287 76/129/288
f 73/131/289 74/133/290 78/134/291 77/132/292
f 74/133/293 71/135/294 75/136/295 78/134/296
f 72/128/297 71/127/298 79/137/299
f 73/131/300 72/128/301 79/138/302
f 74/133/303 73/131/304 79/139/305
f 71/135/306 74/133/307 79/140/308
f 75/130/309 76/129/310 80/141/311
f 76/129/312 77/132/313 80/142/314
f 77/132/315 78/134/316 80/143/317
f 78/134/318 75/136/319 80/144/320
f 81/145/321 82/146/322 86/147/323 85/148/324
f 82/146/325 83/149/326 87/150/327 86/147/328
f 83/149/329 84/151/330 88/152/331 87/150/332
f 84/151/333 81/153/334 85/154/335 88/152/336
f 82/146/337 81/145/338 89/155/339
f 83/149/340 82/146/341 89/156/342
f 84/151/343 83/149/344 89/157/345
f 81/153/346 84/151/347 89/158/348
f 85/148/349 86/147/350 90/159/351
f 86/147/352 87/150/353 90/160/354
f 87/150/355 88/152/356 90/161/357
f 88/152/358 85/154/359 90/162/360
f 91/163/361 92/164/362 96/165/363 95/166/364
f 92/164/365 93/167/366 97/168/367 96/165/368
f 93/167/369 94/169/370 98/170/371 97/168/372
f 94/169/373 91/171/374 95/172/375 98/170/376
f 92/164/377 91/163/378 99/173/379
f 93/167/380 92/164/381 99/174/382
f 94/169/383 93/167/384 99/175/385
f 91/171/386 94/169/387 99/176/388
f 95/166/389 96/165/390 100/177/391
f 96/165/392 97/168/393 100/178/394
f 97/168/395 98/170/396 100/179/397
f 98/170/398 95/172/399 100/180/400
f 101/181/401 102/182/402 106/183/403 105/184/404
f 102/182/405 103/185/406 107/186/407 106/183/408
f 103/185/409 104/187/410 108/188/411 107/186/412
f 104/187/413 101/189/414 105/190/415 108/188/416
f 102/182/417 101/181/418 109/191/419
f 103/185/420 102/182/421 109/192/422
f 104/187/423 103/185/424 109/193/425
f 101/189/426 104/187/427 109/194/428
f 105/184/429 106/183/430 110/195/431
f 106/183/432 107/186/433 110/196/434
f 107/186/435 108/188/436 110/197/437
f 108/188/438 105/190/439 110/198/440
f 111/199/441 112/200/442 116/201/443 115/202/444
f 112/200/445 113/203/446 117/204/447 116/201/448
f 113/203/449 114/205/450 118/206/451 117/204/452
f 114/205/453 111/207/454 115/208/455 118/206/456
f 112/200/457 111/199/458 119/209/459
f 113/203/460 112/200/461 119/210/462
f 114/205/463 113/203/464 119/211/465
f 111/207/466 114/205/467 119/212/468
f 115/202/469 116/201/470 120/213/471
f 116/201/472 117/204/473 120/214/474
f 117/204/475 118/206/476 120/215/477
f 118/206/478 115/208/479 120/216/480
f 121/217/481 122/218/482 126/219/483 125/220/484
f 122/218/485 123/221/486 127/222/487 126/219/488
f 123/221/489 124/223/490 128/224/491 127/222/492
f 124/223/493 121/225/494 125/226/495 128/224/496
f 122/218/497 121/217/498 129/227/499
f 123/221/500 122/218/501 129/228/502
f 124/223/503 123/221/504 129/229/505
f 121/225/506 124/223/507 129/230/508
f 125/220/509 126/219/510 130/231/511
f 126/219/512 127/222/513 130/232/514
f 127/222/515 128/224/516 130/233/517
f 128/224/518 125/226/519 130/234/520
f 131/235/521 132/236/522 136/237/523 135/238/524
f 132/236/525 133/239/526 137/240/527 136/237/528
f 133/239/529 134/241/530 138/242/531 137/240/532
f 134/241/533 131/243/534 135/244/535 138/242/536
f 132/236/537 131/235/538 139/245/539
f 133/239/540 132/236/541 139/246/542
f 134/241/543 133/239/544 139/247/545
f 131/243/546 134/241/547 139/248/548
f 135/238/549 136/237/550 140/249/551
f 136/237/552 137/240/553 140/250/554
f 137/240/555 138/242/556 140/251/557
f 138/242/558 135/244/559 140/252/560
f 141/253/561 142/254/562 146/255/563 145/256/564
f 142/254/565 143/257/566 147/258/567 146/255/568
f 143/257/569 144/259/570 148/260/571 147/258/572
f 144/259/573 141/261/574 145/262/575 148/260/576
f 142/254/577 141/253/578 149/263/579
f 143/257/580 142/254/581 149/264/582
f 144/259/583 143/257/584 149/265/585
f 141/261/586 144/259/587 149/266/588
f 145/256/589 146/255/590 150/267/591
f 146/255/592 147/258/593 150/268/594
f 147/258/595 148/260/596 150/269/597
f 148/260/598 145/262/599 150/270/600
s 1
f 151/271/601 157/272/602 152/273/603
f 153/274/604 158/275/605 154/276/606
f 152/273/603 157/272/602 158/275/605 153/274/604
f 151/271/601 156/277/607 157/272/602
f 158/275/605 157/272/602 156/277/607 155/278/608
f 154/276/606 158/275/605 155/278/608
s 2
f 159/279/609 165/280/610 160/281/611
f 161/282/612 166/283/613 162/284/614
f 160/281/611 165/280/610 166/283/613 161/282/612
f 159/279/609 164/285/615 165/280/610
f 166/283/613 165/280/610 164/285/615 163/286/616
f 162/284/614 166/283/613 163/286/616
s 3
f 167/287/617 173/288/618 168/289/619
f 169/290/620 174/291/621 170/292/622
f 168/289/619 173/288/618 174/291/621 169/290/620
f 167/287/617 172/293/623 173/288/618
f 174/291/621 173/288/618 172/293/623 171/294/624
f 170/292/622 174/291/621 171/294/624
s off
f 175/295/625 176/296/626 180/297/627 179/298/628
f 176/296/629 177/299/630 181/300/631 180/297/632
f 177/299/633 178/301/634 182/302/635 181/300/636
f 178/301/637 175/303/638 179/304/639 182/302/640
f 176/296/641 175/295/642 183/305/643
f 177/299/644 176/296/645 183/306/646
f 178/301/647 177/299/648 183/307/649
f 175/303/650 178/301/651 183/308/652
f 179/298/653 180/297/654 184/309/655
f 180/297/656 181/300/657 184/310/658
f 181/300/659 182/302/660 184/311/661
f 182/302/662 179/304/663 184/312/664
f 185/313/665 186/314/666 190/315/667 189/316/668
f 186/314/669 187/317/670 191/318/671 190/315/672
f 187/317/673 188/319/674 192/320/675 191/318/676
f 188/319/677 185/321/678 189/322/679 192/320/680
f 186/314/681 185/313/682 193/323/683
f 187/317/684 186/314/685 193/324/686
f 188/319/687 187/317/688 193/325/689
f 185/321/690 188/319/691 193/326/692
f 189/316/693 190/315/694 194/327/695
f 190/315/696 191/318/697 194/328/698
f 191/318/699 192/320/700 194/329/701
f 192/320/702 189/322/703 194/330/704
s 4
f 195/331/705 201/332/706 196/333/707
f 197/334/708 202/335/709 198/336/710
f 196/333/707 201/332/706 202/335/709 197/334/708
f 195/331/705 200/337/711 201/332/706
f 202/335/709 201/332/706 200/337/711 199/338/712
f 198/336/710 202/335/709 199/338/712
s 5
f 203/339/713 209/340/714 204/341/715
f 205/342/716 210/343/717 206/344/718
f 204/341/715 209/340/714 210/343/717 205/342/716
f 203/339/713 208/345/719 209/340/714
f 210/343/717 209/340/714 208/345/719 207/346/720
f 206/344/718 210/343/717 207/346/720
s 6
f 211/347/721 217/348/722 212/349/723
f 213/350/724 218/351/725 214/352/726
f 212/349/723 217/348/722 218/351/725 213/350/724
f 211/347/721 216/353/727 217/348/722
f 218/351/725 217/348/722 216/353/727 215/354/728
f 214/352/726 218/351/725 215/354/728
s off
f 219/355/729 220/356/730 224/357/731 223/358/732
f 220/356/733 221/359/734 225/360/735 224/357/736
f 221/359/737 222/361/738 226/362/739 225/360/740
f 222/361/741 219/363/742 223/364/743 226/362/744
f 220/356/745 219/355/746 227/365/747
f 221/359/748 220/356/749 227/366/750
f 222/361/751 221/359/752 227/367/753
f 219/363/754 222/361/755 227/368/756
f 223/358/757 224/357/758 228/369/759
f 224/357/760 225/360/761 228/370/762
f 225/360/763 226/362/764 228/371/765
f 226/362/766 223/364/767 228/372/768
f 229/373/769 230/374/770 234/375/771 233/376/772
f 230/374/773 231/377/774 235/378/775 234/375/776
f 231/377/777 232/379/778 236/380/779 235/378/780
f 232/379/781 229/381/782 233/382/783 236/380/784
f 230/374/785 229/373/786 237/383/787
f 231/377/788 230/374/789 237/384/790
f 232/379/791 231/377/792 237/385/793
f 229/381/794 232/379/795 237/386/796
f 233/376/797 234/375/798 238/387/799
f 234/375/800 235/378/801 238/388/802
f 235/378/803 236/380/804 238/389/805
f 236/380/806 233/382/807 238/390/808
f 239/391/809 240/392/810 244/393/811 243/394/812
f 240/392/813 241/395/814 245/396/815 244/393/816
f 241/395/817 242/397/818 246/398/819 245/396/820
f 242/397/821 239/399/822 243/400/823 246/398/824
f 240/392/825 239/391/826 247/401/827
f 241/395/828 240/392/829 247/402/830
f 242/397/831 241/395/832 247/403/833
f 239/399/834 242/397/835 247/404/836
f 243/394/837 244/393/838 248/405/839
f 244/393/840 245/396/841 248/406/842
f 245/396/843 246/398/844 248/407/845
f 246/398/846 243/400/847 248/408/848
f 249/409/849 250/410/850 254/411/851 253/412/852
f 250/410/853 251/413/854 255/414/855 254/411/856
f 251/413/857 252/415/858 256/416/859 255/414/860
f 252/415/861 249/417/862 253/418/863 256/416/864
f 250/410/865 249/409/866 257/419/867
f 251/413/868 250/410/869 257/420/870
f 252/415/871 251/413/872 257/421/873
f 249/417/874 252/415/875 257/422/876
f 253/412/877 254/411/878 258/423/879
f 254/411/880 255/414/881 258/424/882
f 255/414/883 256/416/884 258/425/885
f 256/416/886 253/418/887 258/426/888
f 259/427/889 260/428/890 264/429/891 263/430/892
f 260/428/893 261/431/894 265/432/895 264/429/896
f 261/431/897 262/433/898 266/434/899 265/432/900
f 262/433/901 259/435/902 263/436/903 266/434/904
f 260/428/905 259/427/906 267/437/907
f 261/431/908 260/428/909 267/438/910
f 262/433/911 261/431/912 267/439/913
f 259/435/914 262/433/915 267/440/916
f 263/430/917 264/429/918 268/441/919
f 264/429/920 265/432/921 268/442/922
f 265/432/923 266/434/924 268/443/925
f 266/434/926 263/436/927 268/444/928
f 269/445/929 270/446/930 274/447/931 273/448/932
f 270/446/933 271/449/934 275/450/935 274/447/936
f 271/449/937 272/451/938 276/452/939 275/450/940
f 272/451/941 269/453/942 273/454/943 276/452/944
f 270/446/945 269/445/946 277/455/947
f 271/449/948 270/446/949 277/456/950
f 272/451/951 271/449/952 277/457/953
f 269/453/954 272/451/955 277/458/956
f 273/448/957 274/447/958 278/459/959
f 274/447/960 275/450/961 278/460/962
f 275/450/963 276/452/964 278/461/965
f 276/452/966 273/454/967 278/462/968
