# This file uses centimeters as units for non-parametric coordinates.

mtllib fol_ferns_budded_low.mtl
g default
v 0.152879 1.803191 -0.137984
v 0.195273 1.635821 -0.081623
v 0.121315 1.505413 -0.104231
v 0.119027 1.409701 -0.095098
v 0.077293 1.289331 -0.175338
v 0.071325 0.848333 -0.008259
v 0.015219 0.272353 0.065522
v -0.047935 0.250164 0.032843
v -0.020135 0.708539 -0.035687
v -0.076522 0.880251 -0.100263
v -0.029397 1.331305 -0.214939
v -0.162576 1.579978 -0.279709
v -0.099376 1.824085 -0.294009
v 0.067956 1.866986 -0.287543
v -0.121086 1.495360 -0.247508
v 0.054603 1.794443 -0.281911
v 0.034331 1.584267 -0.254871
v 0.030544 1.480875 -0.237967
v 0.038920 1.346544 -0.208261
v 0.525157 1.500784 0.155505
v 0.501688 1.332013 0.183304
v 0.411283 1.236270 0.120791
v 0.382810 1.149073 0.110571
v 0.349805 1.057005 0.013483
v 0.169283 0.645386 0.067016
v -0.049969 0.131724 0.008064
v -0.100559 0.132156 -0.040284
v 0.062283 0.546524 -0.006099
v 0.077127 0.723895 -0.043759
v 0.276239 1.129097 -0.041850
v 0.236927 1.399039 -0.088645
v 0.359657 1.604075 -0.038636
v 0.524362 1.593911 0.023043
v 0.242343 1.307608 -0.065773
v 0.492404 1.531301 0.010869
v 0.412538 1.343799 -0.010491
v 0.377523 1.249509 -0.016326
v 0.341218 1.122597 -0.013861
v -0.239095 0.778745 -0.115183
v -0.173631 0.617412 -0.067140
v 0.030569 0.502537 -0.038711
v 0.070839 0.418224 0.026082
v 0.086652 0.420253 -0.037089
v 0.304332 0.541846 -0.255538
v 0.277698 0.686777 -0.311175
v 0.247750 0.774768 -0.387223
v -0.061744 0.813630 -0.643493
v -0.116956 0.816479 -0.731828
v -0.153913 0.782461 -0.783613
v -0.166408 0.789416 -0.775181
v -0.163808 0.842969 -0.702023
v -0.161484 0.851421 -0.557554
v -0.235712 0.864065 -0.221807
v -0.160621 0.787552 -0.781307
v -0.145844 0.855169 -0.737566
v -0.118407 0.937598 -0.655392
v 0.016203 0.946551 -0.248865
v 0.042908 0.825051 -0.125612
v 0.047107 0.636079 -0.034978
v 0.069306 0.484397 0.005003
v 0.083372 0.846688 -0.526383
v -0.052979 1.009079 -0.474696
v -0.192064 0.888119 -0.402785
v 0.131642 0.635375 -0.182480
v 0.111624 0.484181 0.007473
v 0.023008 0.393328 0.083622
v -0.044987 0.308308 0.126953
v 0.022265 0.320823 0.161182
v 0.181436 0.497001 0.286230
v 0.256787 0.646591 0.348912
v 0.354864 0.741179 0.398131
v 0.668269 0.762200 0.080011
v 0.771062 0.767260 0.033152
v 0.835043 0.734210 0.004070
v 0.826595 0.738009 -0.014030
v 0.741328 0.782138 -0.034335
v 0.581996 0.772654 -0.066939
v 0.221350 0.730867 -0.239469
v 0.832820 0.737872 -0.005270
v 0.777148 0.801573 -0.005211
v 0.676599 0.877107 -0.000488
v 0.215083 0.856390 0.066317
v 0.087900 0.725057 0.083249
v 0.005063 0.527519 0.087984
v -0.027652 0.376126 0.122674
v 0.520547 0.803488 0.226095
v 0.464772 0.935522 0.028475
v 0.412568 0.784490 -0.145484
v 0.066463 0.702898 0.500877
v 0.020671 0.577167 0.235669
v 0.113568 0.494284 0.147106
v 0.175212 0.415811 0.066490
v 0.092121 0.428190 0.047460
v -0.105598 0.624588 0.011072
v -0.223563 0.800137 -0.036170
v -0.356477 0.907209 -0.066581
v -0.585748 0.826906 0.380613
v -0.679576 0.810005 0.461980
v -0.736399 0.758668 0.506864
v -0.721670 0.760396 0.525771
v -0.626566 0.817030 0.533056
v -0.446518 0.820209 0.526216
v -0.005677 0.784625 0.619700
v -0.731139 0.761205 0.517454
v -0.674963 0.840216 0.512546
v -0.573265 0.939269 0.492252
v -0.104961 0.988528 0.290338
v 0.030156 0.860095 0.216713
v 0.125201 0.648838 0.158380
v 0.155225 0.489231 0.086577
v -0.478906 0.921809 0.181837
v -0.360781 1.038158 0.412138
v -0.241635 0.839492 0.572211
v 0.551759 0.675076 0.265440
v 0.454729 0.598960 0.201374
v 0.239243 0.563111 0.180334
v 0.186438 0.496885 0.143664
v 0.177544 0.512687 0.188840
v -0.005316 0.639878 0.334021
v 0.044805 0.700686 0.387358
v 0.087428 0.717935 0.449649
v 0.402530 0.590127 0.683439
v 0.458710 0.612323 0.752857
v 0.494113 0.614006 0.796715
v 0.506759 0.614766 0.791057
v 0.506306 0.618892 0.732982
v 0.502365 0.597191 0.625516
v 0.568510 0.691222 0.363845
v 0.500818 0.616261 0.794601
v 0.488181 0.639375 0.751570
v 0.467025 0.674675 0.686457
v 0.346760 0.807631 0.408551
v 0.292536 0.781849 0.288138
v 0.242952 0.672108 0.181144
v 0.195021 0.547317 0.149961
v 0.255377 0.653357 0.565360
v 0.416631 0.740229 0.569151
v 0.530895 0.640653 0.501758
v -0.523164 0.540773 0.385361
v -0.388493 0.307395 0.352071
v -0.048177 0.168293 0.180401
v 0.068994 0.039926 0.208331
v 0.035048 0.057274 0.113926
v 0.186119 0.311200 -0.332146
v 0.104459 0.528484 -0.346892
v -0.006573 0.666015 -0.397589
v -0.733990 0.719427 -0.440361
v -0.904050 0.730951 -0.503390
v -1.014149 0.684919 -0.544278
v -1.025448 0.691425 -0.520789
v -0.948080 0.756284 -0.417533
v -0.808278 0.742044 -0.233022
v -0.610237 0.685609 0.265243
v -1.022177 0.690805 -0.534201
v -0.951835 0.783666 -0.476249
v -0.824110 0.893038 -0.377125
v -0.228971 0.852466 0.024495
v -0.081784 0.656742 0.130888
v -0.006757 0.365019 0.200475
v 0.052611 0.140080 0.197644
v -0.391282 0.769715 -0.412665
v -0.544792 0.974341 -0.188410
v -0.708517 0.761634 0.000367
v 0.519926 0.351141 -0.031500
v 0.381296 0.207434 -0.046238
v 0.132322 0.103660 0.076709
v 0.062313 -0.010265 0.067913
v 0.083619 0.019804 0.134360
v -0.042505 0.190750 0.449488
v 0.039147 0.299878 0.483146
v 0.131489 0.347160 0.537095
v 0.705747 0.285034 0.645241
v 0.817591 0.343905 0.699155
v 0.891566 0.363499 0.734114
v 0.901106 0.366218 0.717627
v 0.853591 0.359722 0.638782
v 0.770295 0.305212 0.497010
v 0.612005 0.398691 0.089477
v 0.896810 0.367766 0.726450
v 0.842226 0.388774 0.675187
v 0.757254 0.420570 0.599002
v 0.365792 0.524334 0.295774
v 0.216867 0.450015 0.171485
v 0.106981 0.259953 0.067881
v 0.062985 0.064838 0.067120
v 0.429559 0.317215 0.582411
v 0.589823 0.477889 0.470114
v 0.692615 0.347367 0.306240
v -0.238184 0.257302 -0.347724
v 0.085191 0.007296 -0.096404
v 0.023235 -0.170106 -0.015606
v 0.031853 -0.325210 0.072271
v 0.124945 -0.284007 0.051460
v 0.281083 0.011205 0.033964
v 0.486164 0.242845 0.140813
v 0.609280 0.409659 0.132487
v 0.487964 0.625416 -0.517805
v 0.515960 0.684491 -0.666395
v 0.539093 0.670693 -0.769608
v 0.510359 0.675209 -0.781053
v 0.410158 0.703097 -0.710519
v 0.243429 0.625946 -0.600141
v -0.246760 0.438614 -0.468445
v 0.525744 0.676325 -0.777019
v 0.470555 0.741146 -0.705423
v 0.382421 0.802295 -0.582685
v 0.087795 0.562651 -0.077923
v 0.024326 0.321395 0.021948
v -0.007058 0.008838 0.046375
v 0.030457 -0.222297 0.071342
v 0.532682 0.595835 -0.200371
v 0.234677 0.787438 -0.332633
v 0.011215 0.581488 -0.526019
v 0.320806 0.258655 0.478800
v 0.056336 0.008649 0.281180
v 0.065678 -0.168754 0.167780
v 0.052948 -0.323857 0.079773
v -0.038474 -0.282654 0.104446
v -0.240963 0.012558 0.098658
v -0.379884 0.244198 0.042301
v -0.522025 0.411012 0.043155
v -0.371795 0.626769 0.691427
v -0.392527 0.685844 0.841952
v -0.410588 0.672045 0.946658
v -0.381520 0.676561 0.957008
v -0.285403 0.704449 0.882055
v -0.125137 0.627298 0.764362
v 0.355211 0.439966 0.612208
v -0.396985 0.677677 0.953571
v -0.345600 0.742498 0.879363
v -0.263942 0.803648 0.752408
v 0.004550 0.564003 0.233036
v 0.062811 0.322747 0.130066
v 0.092805 0.010190 0.104242
v 0.054378 -0.220944 0.080651
v -0.431267 0.597187 0.374067
v -0.129157 0.788790 0.495047
v 0.101858 0.582841 0.680485
vt 0.255604 0.574036
vt 0.273854 0.511498
vt 0.242708 0.466865
vt 0.240744 0.432770
vt 0.210026 0.398058
vt 0.224202 0.228713
vt 0.202298 0.020693
vt 0.176011 0.014776
vt 0.186413 0.180901
vt 0.162443 0.245430
vt 0.170688 0.414030
vt 0.124720 0.503443
vt 0.149404 0.590841
vt 0.204624 0.608938
vt 0.140924 0.471924
vt 0.199243 0.582955
vt 0.191334 0.507041
vt 0.190024 0.469484
vt 0.193869 0.420231
vt 0.255604 0.574036
vt 0.204624 0.608938
vt 0.199243 0.582955
vt 0.242708 0.466865
vt 0.190024 0.469484
vt 0.193869 0.420231
vt 0.240744 0.432770
vt 0.191334 0.507041
vt 0.273854 0.511498
vt 0.224202 0.228713
vt 0.186413 0.180901
vt 0.176011 0.014776
vt 0.202298 0.020693
vt 0.210026 0.398058
vt 0.162443 0.245430
vt 0.149404 0.590841
vt 0.124720 0.503443
vt 0.140924 0.471924
vt 0.170688 0.414030
vt 0.761354 0.211740
vt 0.757714 0.115954
vt 0.980370 0.118406
vt 0.964333 0.208563
vt 0.797242 0.016790
vt 0.774035 0.037576
vt 0.774879 0.003389
vt 0.748282 0.619136
vt 0.746485 0.581705
vt 0.766888 0.586836
vt 0.753563 0.620435
vt 0.759713 0.294637
vt 0.953210 0.284427
vt 0.862780 0.423345
vt 0.751816 0.420098
vt 0.745230 0.524734
vt 0.787359 0.539206
vt 0.727730 0.576989
vt 0.743020 0.617842
vt 0.700568 0.509392
vt 0.586539 0.303835
vt 0.648714 0.415915
vt 0.571918 0.214771
vt 0.614311 0.114358
vt 0.754407 0.055156
vt 0.761354 0.211740
vt 0.757714 0.115954
vt 0.980370 0.118406
vt 0.964333 0.208563
vt 0.797242 0.016790
vt 0.774035 0.037576
vt 0.774879 0.003389
vt 0.748282 0.619136
vt 0.746485 0.581705
vt 0.766888 0.586836
vt 0.753563 0.620435
vt 0.759713 0.294637
vt 0.953210 0.284427
vt 0.862780 0.423345
vt 0.751816 0.420098
vt 0.745230 0.524734
vt 0.787359 0.539206
vt 0.727730 0.576989
vt 0.743020 0.617842
vt 0.700568 0.509392
vt 0.586539 0.303835
vt 0.648714 0.415915
vt 0.571918 0.214771
vt 0.614311 0.114358
vt 0.754407 0.055156
vt 0.761354 0.211740
vt 0.757714 0.115954
vt 0.980370 0.118406
vt 0.964333 0.208563
vt 0.797242 0.016790
vt 0.774035 0.037576
vt 0.774879 0.003389
vt 0.748282 0.619136
vt 0.746485 0.581705
vt 0.766888 0.586836
vt 0.753563 0.620435
vt 0.759713 0.294637
vt 0.953210 0.284427
vt 0.862780 0.423345
vt 0.751816 0.420098
vt 0.745230 0.524734
vt 0.787359 0.539206
vt 0.727730 0.576989
vt 0.743020 0.617842
vt 0.700568 0.509392
vt 0.586539 0.303835
vt 0.648714 0.415915
vt 0.571918 0.214771
vt 0.614311 0.114358
vt 0.754407 0.055156
vt 0.761354 0.211740
vt 0.757714 0.115954
vt 0.980370 0.118406
vt 0.964333 0.208563
vt 0.797242 0.016790
vt 0.774035 0.037576
vt 0.774879 0.003389
vt 0.748282 0.619136
vt 0.746485 0.581705
vt 0.766888 0.586836
vt 0.753563 0.620435
vt 0.759713 0.294637
vt 0.953210 0.284427
vt 0.862780 0.423345
vt 0.751816 0.420098
vt 0.745230 0.524734
vt 0.787359 0.539206
vt 0.727730 0.576989
vt 0.743020 0.617842
vt 0.700568 0.509392
vt 0.586539 0.303835
vt 0.648714 0.415915
vt 0.571918 0.214771
vt 0.614311 0.114358
vt 0.754407 0.055156
vt 0.761354 0.211740
vt 0.757714 0.115954
vt 0.980370 0.118406
vt 0.964333 0.208563
vt 0.797242 0.016790
vt 0.774035 0.037576
vt 0.774879 0.003389
vt 0.748282 0.619136
vt 0.746485 0.581705
vt 0.766888 0.586836
vt 0.753563 0.620435
vt 0.759713 0.294637
vt 0.953210 0.284427
vt 0.862780 0.423345
vt 0.751816 0.420098
vt 0.745230 0.524734
vt 0.787359 0.539206
vt 0.727730 0.576989
vt 0.743020 0.617842
vt 0.700568 0.509392
vt 0.586539 0.303835
vt 0.648714 0.415915
vt 0.571918 0.214771
vt 0.614311 0.114358
vt 0.754407 0.055156
vt 0.761354 0.211740
vt 0.757714 0.115954
vt 0.980370 0.118406
vt 0.964333 0.208563
vt 0.797242 0.016790
vt 0.774035 0.037576
vt 0.774879 0.003389
vt 0.748282 0.619136
vt 0.746485 0.581705
vt 0.766888 0.586836
vt 0.753563 0.620435
vt 0.759713 0.294637
vt 0.953210 0.284427
vt 0.862780 0.423345
vt 0.751816 0.420098
vt 0.745230 0.524734
vt 0.787359 0.539206
vt 0.727730 0.576989
vt 0.743020 0.617842
vt 0.700568 0.509392
vt 0.586539 0.303835
vt 0.648714 0.415915
vt 0.571918 0.214771
vt 0.614311 0.114358
vt 0.754407 0.055156
vt 0.761354 0.211740
vt 0.757714 0.115954
vt 0.980370 0.118406
vt 0.964333 0.208563
vt 0.797242 0.016790
vt 0.774035 0.037576
vt 0.774879 0.003389
vt 0.748282 0.619136
vt 0.746485 0.581705
vt 0.766888 0.586836
vt 0.753563 0.620435
vt 0.759713 0.294637
vt 0.953210 0.284427
vt 0.862780 0.423345
vt 0.751816 0.420098
vt 0.745230 0.524734
vt 0.787359 0.539206
vt 0.727730 0.576989
vt 0.743020 0.617842
vt 0.700568 0.509392
vt 0.586539 0.303835
vt 0.648714 0.415915
vt 0.571918 0.214771
vt 0.614311 0.114358
vt 0.754407 0.055156
vt 0.761354 0.211740
vt 0.757714 0.115954
vt 0.980370 0.118406
vt 0.964333 0.208563
vt 0.797242 0.016790
vt 0.774035 0.037576
vt 0.774879 0.003389
vt 0.748282 0.619136
vt 0.746485 0.581705
vt 0.766888 0.586836
vt 0.753563 0.620435
vt 0.759713 0.294637
vt 0.953210 0.284427
vt 0.862780 0.423345
vt 0.751816 0.420098
vt 0.745230 0.524734
vt 0.787359 0.539206
vt 0.727730 0.576989
vt 0.743020 0.617842
vt 0.700568 0.509392
vt 0.586539 0.303835
vt 0.648714 0.415915
vt 0.571918 0.214771
vt 0.614311 0.114358
vt 0.754407 0.055156
vn -0.780932 0.094639 0.617404
vn -0.527371 0.161821 0.834082
vn -0.464604 0.114392 0.878099
vn -0.800692 0.183567 0.570259
vn -0.513305 0.204979 0.833368
vn -0.379393 0.195564 0.904332
vn -0.828485 0.054218 0.557380
vn -0.476437 0.161891 0.864175
vn -0.781230 0.133431 0.609816
vn -0.468921 0.260555 0.843934
vn -0.486582 0.198497 0.850786
vn -0.496963 0.157717 0.853319
vn -0.496963 0.157717 0.853319
vn -0.337991 0.246941 0.908175
vn -0.451144 0.280029 0.847380
vn -0.095060 0.107036 0.989701
vn -0.094493 0.141245 0.985455
vn -0.083740 0.218000 0.972350
vn -0.178336 0.241238 0.953939
vn -0.895389 0.271018 0.353310
vn -0.693424 0.220566 0.685940
vn -0.665929 0.152831 0.730193
vn -0.872863 0.374575 0.312736
vn -0.672800 0.260683 0.692376
vn -0.569697 0.196536 0.798009
vn -0.932418 0.251815 0.259204
vn -0.656201 0.202082 0.727024
vn -0.882305 0.310791 0.353479
vn -0.618890 0.298616 0.726501
vn -0.654548 0.242193 0.716177
vn -0.675044 0.206859 0.708185
vn -0.675044 0.206859 0.708185
vn -0.519986 0.233039 0.821771
vn -0.599052 0.309748 0.738371
vn -0.372976 0.023382 0.927547
vn -0.363128 0.055288 0.930097
vn -0.333681 0.121227 0.934859
vn -0.400910 0.172739 0.899685
vn 0.368058 0.556159 0.745131
vn 0.395973 0.293805 0.869991
vn 0.699682 0.295601 0.650434
vn 0.696991 0.439889 0.566305
vn 0.732556 0.125458 0.669046
vn 0.584648 0.122697 0.801955
vn 0.827824 0.187589 0.528695
vn 0.128428 0.566753 -0.813817
vn 0.072108 0.732913 -0.676490
vn 0.744162 0.356050 -0.565200
vn 0.559759 0.398133 -0.726746
vn 0.283821 0.907126 0.310755
vn 0.692310 0.693440 0.199620
vn 0.647213 0.716783 -0.259495
vn 0.141020 0.974897 -0.172303
vn 0.012532 0.801192 -0.598277
vn 0.643346 0.475682 -0.599860
vn -0.883615 0.459672 -0.089024
vn -0.816782 0.456950 -0.352228
vn -0.802565 0.586846 -0.107240
vn -0.252789 0.826477 0.503025
vn -0.521040 0.842597 0.136192
vn -0.109340 0.546587 0.830234
vn -0.106843 0.318471 0.941892
vn -0.290563 0.012344 0.956776
vn -0.871621 0.452935 0.187421
vn -0.954882 0.175898 0.239292
vn -0.736922 0.231675 0.635038
vn -0.694669 0.448493 0.562396
vn -0.664918 0.196210 0.720684
vn -0.819960 0.194597 0.538329
vn -0.737064 0.228532 0.636010
vn 0.711052 0.700887 0.056235
vn 0.556420 0.830901 -0.000389
vn 0.414314 0.562913 0.715174
vn 0.609164 0.595686 0.523524
vn -0.444822 0.891461 0.086200
vn -0.351461 0.788592 0.504577
vn 0.051101 0.873554 0.484037
vn 0.045174 0.998971 -0.004012
vn 0.478894 0.875898 -0.058854
vn 0.449271 0.681671 0.577477
vn 0.226774 0.453231 -0.862065
vn 0.464649 0.465932 -0.752999
vn 0.211106 0.588452 -0.780486
vn -0.502881 0.765896 -0.400643
vn -0.113568 0.825421 -0.552977
vn -0.823030 0.452566 -0.343229
vn -0.881161 0.026186 -0.472092
vn -0.611135 -0.050770 -0.789897
vn 0.793920 0.510561 -0.330179
vn 0.863751 0.237833 -0.444264
vn 0.539138 0.337956 -0.771437
vn 0.526921 0.559885 -0.639439
vn 0.418007 0.353527 -0.836833
vn 0.627239 0.351380 -0.695056
vn 0.576146 0.357879 -0.734833
vn -0.736721 0.612063 0.287439
vn -0.587169 0.745530 0.315305
vn -0.645743 0.622227 -0.442550
vn -0.776748 0.598789 -0.195226
vn 0.368773 0.928902 -0.033880
vn 0.170196 0.891283 -0.420295
vn -0.232808 0.935403 -0.266124
vn -0.109600 0.972659 0.204749
vn -0.505299 0.789471 0.348438
vn -0.645638 0.711768 -0.276657
vn -0.049426 0.328434 0.943233
vn -0.308525 0.328439 0.892715
vn -0.061527 0.467429 0.881887
vn 0.549386 0.742177 0.383859
vn 0.189706 0.751898 0.631397
vn 0.873595 0.449131 0.187385
vn 0.963338 -0.036018 0.265861
vn 0.712118 -0.097880 0.695203
vn -0.051917 0.870925 -0.488665
vn -0.194799 0.538172 -0.820015
vn -0.491469 0.632290 -0.598888
vn -0.410519 0.833123 -0.370649
vn -0.617712 0.212289 -0.757209
vn -0.461057 0.180438 -0.868832
vn -0.665427 0.202936 -0.718348
vn -0.016728 0.913285 0.406978
vn 0.058251 0.934696 0.350643
vn -0.672673 0.585264 0.452744
vn -0.529547 0.707904 0.467388
vn 0.077356 0.976081 0.203181
vn -0.322182 0.918726 0.228343
vn -0.307326 0.724582 0.616873
vn 0.135527 0.834667 0.533819
vn 0.113742 0.796686 0.593594
vn -0.480623 0.570703 0.665807
vn 0.837858 0.541628 -0.068066
vn 0.716841 0.690959 0.093352
vn 0.818013 0.555271 0.150097
vn 0.488483 0.871483 -0.043604
vn 0.645331 0.728507 0.229838
vn 0.312698 0.776093 -0.547631
vn 0.213473 0.524875 -0.823976
vn 0.200624 0.000794 -0.979668
vn 0.658560 0.501845 0.560759
vn 0.752986 0.197098 0.627826
vn 0.921512 0.270928 0.278233
vn 0.863583 0.451807 0.223817
vn 0.967308 0.059389 0.246553
vn 0.889794 0.021845 0.455840
vn 0.973095 0.175154 0.149689
vn -0.361966 0.720598 -0.591371
vn -0.321196 0.846875 -0.423835
vn 0.250451 0.508213 -0.824011
vn 0.028256 0.554950 -0.831404
vn 0.348617 0.900963 0.258323
vn 0.624114 0.778399 -0.067659
vn 0.325883 0.841655 -0.430600
vn -0.000789 0.998854 -0.047860
vn -0.297148 0.892561 -0.339174
vn 0.148168 0.628913 -0.763226
vn -0.719584 0.500024 0.481845
vn -0.811027 0.546678 0.208274
vn -0.648520 0.627748 0.430528
vn 0.041812 0.754548 0.654912
vn -0.307734 0.810652 0.498140
vn 0.315363 0.448039 0.836545
vn 0.386074 0.187777 0.903154
vn 0.265536 -0.149892 0.952378
vn -0.463618 0.795585 -0.390004
vn -0.701716 0.407508 -0.584408
vn -0.855584 0.472215 -0.212105
vn -0.705806 0.704447 -0.074787
vn -0.965901 0.018344 -0.258262
vn -0.893280 -0.003649 -0.449487
vn -0.984132 0.006933 -0.177300
vn -0.065693 0.936109 0.345520
vn -0.017957 0.967079 0.253841
vn -0.515721 0.510091 0.688359
vn -0.414779 0.657293 0.629226
vn -0.039335 0.995830 0.082319
vn -0.366871 0.863412 0.346302
vn -0.157777 0.745922 0.647076
vn 0.193878 0.923533 0.330906
vn 0.195405 0.892316 0.406927
vn -0.262513 0.571227 0.777681
vn 0.595875 0.617682 -0.513227
vn 0.538412 0.772657 -0.336325
vn 0.673464 0.657457 -0.337929
vn 0.238127 0.912942 -0.331410
vn 0.530976 0.824592 -0.195225
vn -0.138544 0.747420 -0.649745
vn -0.310253 0.463744 -0.829870
vn -0.285817 -0.099796 -0.953074
vn -0.553782 0.144221 0.820077
vn -0.526803 -0.154403 0.835846
vn -0.103449 -0.057874 0.992950
vn -0.205760 0.220128 0.953523
vn 0.100092 0.056474 0.993374
vn -0.150570 0.052770 0.987190
vn -0.172779 0.006548 0.984939
vn 0.428306 0.841556 -0.329147
vn 0.250696 0.945917 -0.205896
vn 0.733341 0.622417 0.273509
vn 0.722563 0.691185 0.012882
vn -0.383196 0.694591 0.608855
vn -0.072782 0.601811 0.795315
vn 0.203352 0.830060 0.519278
vn -0.124102 0.961482 0.245255
vn 0.161839 0.975129 -0.151429
vn 0.632948 0.750657 0.189448
vn -0.543964 0.595415 -0.591256
vn -0.254942 0.658391 -0.708185
vn -0.511839 0.718716 -0.470603
vn -0.727241 0.587394 0.355089
vn -0.604490 0.796101 0.028566
vn -0.835582 0.232850 0.497578
vn -0.932911 -0.269058 0.239343
vn -0.940296 -0.034926 -0.338561
vn 0.521414 0.163310 -0.837531
vn 0.507290 -0.097830 -0.856205
vn 0.088654 -0.010721 -0.996005
vn 0.166948 0.212522 -0.962789
vn -0.055791 0.019276 -0.998256
vn 0.183666 -0.000097 -0.982989
vn 0.137723 0.006536 -0.990449
vn -0.412912 0.840960 0.349701
vn -0.239183 0.945931 0.219101
vn -0.747057 0.621234 -0.236590
vn -0.724569 0.688868 0.021467
vn 0.361417 0.690793 -0.626245
vn 0.033154 0.606302 -0.794543
vn -0.225491 0.831440 -0.507800
vn 0.114885 0.961643 -0.249087
vn -0.154321 0.975136 0.159046
vn -0.642880 0.749571 -0.157633
vn 0.571919 0.596968 0.562618
vn 0.286003 0.661055 0.693692
vn 0.534331 0.719572 0.443516
vn 0.716462 0.587187 -0.376688
vn 0.605102 0.794157 -0.056270
vn 0.818818 0.222378 -0.529231
vn 0.919400 -0.201245 -0.337942
vn 0.988579 -0.105798 0.107324
s 1
g polySurface75
usemtl lambert2SG
f 1/1/1 14/14/2 16/16/3
f 3/3/4 18/18/5 19/19/6 4/4/7
f 1/1/1 16/16/3 17/17/8 2/2/9
f 6/6/10 9/9/11 8/8/12 7/7/13
f 5/5/14 10/10/15 9/9/11 6/6/10
f 4/4/7 19/19/6 5/5/14
f 2/2/9 17/17/8 18/18/5 3/3/4
f 16/16/3 14/14/2 13/13/16
f 17/17/8 16/16/3 13/13/16 12/12/17
f 18/18/5 17/17/8 12/12/17 15/15/18
f 19/19/6 18/18/5 15/15/18 11/11/19
f 5/5/14 19/19/6 11/11/19 10/10/15
s 4
f 20/20/20 33/21/21 35/22/22
f 22/23/23 37/24/24 38/25/25 23/26/26
f 20/20/20 35/22/22 36/27/27 21/28/28
f 25/29/29 28/30/30 27/31/31 26/32/32
f 24/33/33 29/34/34 28/30/30 25/29/29
f 23/26/26 38/25/25 24/33/33
f 21/28/28 36/27/27 37/24/24 22/23/23
f 35/22/22 33/21/21 32/35/35
f 36/27/27 35/22/22 32/35/35 31/36/36
f 37/24/24 36/27/27 31/36/36 34/37/37
f 38/25/25 37/24/24 34/37/37 30/38/38
f 24/33/33 38/25/25 30/38/38 29/34/34
s 7
f 58/39/39 59/40/40 44/41/41 45/42/42
f 43/43/43 60/44/44 42/45/45
f 44/41/41 59/40/40 60/44/44 43/43/43
f 54/46/46 55/47/47 48/48/48 49/49/49
f 57/50/50 58/39/39 45/42/42 46/51/51
f 61/52/52 62/53/53 57/50/50 46/51/51
f 55/47/47 56/54/54 47/55/55 48/48/48
f 51/56/56 55/47/47 54/46/46 50/57/57
f 52/58/58 56/54/54 55/47/47 51/56/56
f 53/59/59 57/50/50 62/53/53 63/60/60
f 39/61/61 58/39/39 57/50/50 53/59/59
f 39/61/61 40/62/62 59/40/40 58/39/39
f 60/44/44 59/40/40 40/62/62 41/63/63
f 42/45/45 60/44/44 41/63/63
f 56/54/54 62/53/53 61/52/52 47/55/55
f 63/60/60 62/53/53 56/54/54 52/58/58
s 9
f 83/64/64 84/65/65 69/66/66 70/67/67
f 68/68/68 85/69/69 67/70/70
f 69/66/66 84/65/65 85/69/69 68/68/68
f 79/71/71 80/72/72 73/73/73 74/74/74
f 82/75/75 83/64/64 70/67/67 71/76/76
f 86/77/77 87/78/78 82/75/75 71/76/76
f 80/72/72 81/79/79 72/80/80 73/73/73
f 76/81/81 80/72/72 79/71/71 75/82/82
f 77/83/83 81/79/79 80/72/72 76/81/81
f 78/84/84 82/75/75 87/78/78 88/85/85
f 64/86/86 83/64/64 82/75/75 78/84/84
f 64/86/86 65/87/87 84/65/65 83/64/64
f 85/69/69 84/65/65 65/87/87 66/88/88
f 67/70/70 85/69/69 66/88/88
f 81/79/79 87/78/78 86/77/77 72/80/80
f 88/85/85 87/78/78 81/79/79 77/83/83
s 11
f 108/89/89 109/90/90 94/91/91 95/92/92
f 93/93/93 110/94/94 92/95/95
f 94/91/91 109/90/90 110/94/94 93/93/93
f 104/96/96 105/97/97 98/98/98 99/99/99
f 107/100/100 108/89/89 95/92/92 96/101/101
f 111/102/102 112/103/103 107/100/100 96/101/101
f 105/97/97 106/104/104 97/105/105 98/98/98
f 101/106/106 105/97/97 104/96/96 100/107/107
f 102/108/108 106/104/104 105/97/97 101/106/106
f 103/109/109 107/100/100 112/103/103 113/110/110
f 89/111/111 108/89/89 107/100/100 103/109/109
f 89/111/111 90/112/112 109/90/90 108/89/89
f 110/94/94 109/90/90 90/112/112 91/113/113
f 92/95/95 110/94/94 91/113/113
f 106/104/104 112/103/103 111/102/102 97/105/105
f 113/110/110 112/103/103 106/104/104 102/108/108
s 13
f 133/114/114 134/115/115 119/116/116 120/117/117
f 118/118/118 135/119/119 117/120/120
f 119/116/116 134/115/115 135/119/119 118/118/118
f 129/121/121 130/122/122 123/123/123 124/124/124
f 132/125/125 133/114/114 120/117/117 121/126/126
f 136/127/127 137/128/128 132/125/125 121/126/126
f 130/122/122 131/129/129 122/130/130 123/123/123
f 126/131/131 130/122/122 129/121/121 125/132/132
f 127/133/133 131/129/129 130/122/122 126/131/131
f 128/134/134 132/125/125 137/128/128 138/135/135
f 114/136/136 133/114/114 132/125/125 128/134/134
f 114/136/136 115/137/137 134/115/115 133/114/114
f 135/119/119 134/115/115 115/137/137 116/138/138
f 117/120/120 135/119/119 116/138/138
f 131/129/129 137/128/128 136/127/127 122/130/130
f 138/135/135 137/128/128 131/129/129 127/133/133
s 15
f 158/139/139 159/140/140 144/141/141 145/142/142
f 143/143/143 160/144/144 142/145/145
f 144/141/141 159/140/140 160/144/144 143/143/143
f 154/146/146 155/147/147 148/148/148 149/149/149
f 157/150/150 158/139/139 145/142/142 146/151/151
f 161/152/152 162/153/153 157/150/150 146/151/151
f 155/147/147 156/154/154 147/155/155 148/148/148
f 151/156/156 155/147/147 154/146/146 150/157/157
f 152/158/158 156/154/154 155/147/147 151/156/156
f 153/159/159 157/150/150 162/153/153 163/160/160
f 139/161/161 158/139/139 157/150/150 153/159/159
f 139/161/161 140/162/162 159/140/140 158/139/139
f 160/144/144 159/140/140 140/162/162 141/163/163
f 142/145/145 160/144/144 141/163/163
f 156/154/154 162/153/153 161/152/152 147/155/155
f 163/160/160 162/153/153 156/154/154 152/158/158
s 17
f 183/164/164 184/165/165 169/166/166 170/167/167
f 168/168/168 185/169/169 167/170/170
f 169/166/166 184/165/165 185/169/169 168/168/168
f 179/171/171 180/172/172 173/173/173 174/174/174
f 182/175/175 183/164/164 170/167/167 171/176/176
f 186/177/177 187/178/178 182/175/175 171/176/176
f 180/172/172 181/179/179 172/180/180 173/173/173
f 176/181/181 180/172/172 179/171/171 175/182/182
f 177/183/183 181/179/179 180/172/172 176/181/181
f 178/184/184 182/175/175 187/178/178 188/185/185
f 164/186/186 183/164/164 182/175/175 178/184/184
f 164/186/186 165/187/187 184/165/165 183/164/164
f 185/169/169 184/165/165 165/187/187 166/188/188
f 167/170/170 185/169/169 166/188/188
f 181/179/179 187/178/178 186/177/177 172/180/180
f 188/185/185 187/178/178 181/179/179 177/183/183
s 19
f 208/189/189 209/190/190 194/191/191 195/192/192
f 193/193/193 210/194/194 192/195/195
f 194/191/191 209/190/190 210/194/194 193/193/193
f 204/196/196 205/197/197 198/198/198 199/199/199
f 207/200/200 208/189/189 195/192/192 196/201/201
f 211/202/202 212/203/203 207/200/200 196/201/201
f 205/197/197 206/204/204 197/205/205 198/198/198
f 201/206/206 205/197/197 204/196/196 200/207/207
f 202/208/208 206/204/204 205/197/197 201/206/206
f 203/209/209 207/200/200 212/203/203 213/210/210
f 189/211/211 208/189/189 207/200/200 203/209/209
f 189/211/211 190/212/212 209/190/190 208/189/189
f 210/194/194 209/190/190 190/212/212 191/213/213
f 192/195/195 210/194/194 191/213/213
f 206/204/204 212/203/203 211/202/202 197/205/205
f 213/210/210 212/203/203 206/204/204 202/208/208
s 21
f 233/214/214 234/215/215 219/216/216 220/217/217
f 218/218/218 235/219/219 217/220/220
f 219/216/216 234/215/215 235/219/219 218/218/218
f 229/221/221 230/222/222 223/223/223 224/224/224
f 232/225/225 233/214/214 220/217/217 221/226/226
f 236/227/227 237/228/228 232/225/225 221/226/226
f 230/222/222 231/229/229 222/230/230 223/223/223
f 226/231/231 230/222/222 229/221/221 225/232/232
f 227/233/233 231/229/229 230/222/222 226/231/231
f 228/234/234 232/225/225 237/228/228 238/235/235
f 214/236/236 233/214/214 232/225/225 228/234/234
f 214/236/236 215/237/237 234/215/215 233/214/214
f 235/219/219 234/215/215 215/237/237 216/238/238
f 217/220/220 235/219/219 216/238/238
f 231/229/229 237/228/228 236/227/227 222/230/230
f 238/235/235 237/228/228 231/229/229 227/233/233
