# This file uses centimeters as units for non-parametric coordinates.

mtllib Ballista_Bottom_element_low.mtl
g default
v 0.270294 0.407905 -0.153403
v 0.270294 0.427118 -0.136850
v -0.351395 0.427118 -0.136850
v -0.351395 0.407905 -0.153403
v 0.286301 0.427118 -0.153403
v 0.270294 0.407905 -0.285838
v 0.286301 0.427118 -0.285838
v 0.286301 0.580837 -0.153403
v 0.270294 0.580837 -0.136850
v 0.270294 0.427118 -0.302390
v -0.351395 0.407905 -0.285838
v -0.351395 0.427118 -0.302390
v 0.270294 0.580837 -0.302390
v 0.286301 0.580837 -0.285838
v 0.270294 0.600049 -0.153403
v -0.351395 0.600049 -0.153403
v -0.351395 0.580837 -0.136850
v 0.270294 0.600049 -0.285838
v -0.351395 0.580837 -0.302390
v -0.351395 0.600049 -0.285838
v -0.367402 0.580837 -0.153403
v -0.367402 0.427118 -0.153403
v -0.367402 0.580837 -0.285838
v -0.367402 0.427118 -0.285838
v 0.270294 0.407905 0.306295
v 0.270294 0.427118 0.322847
v -0.351395 0.427118 0.322847
v -0.351395 0.407905 0.306295
v 0.286301 0.427118 0.306295
v 0.270294 0.407905 0.173860
v 0.286301 0.427118 0.173860
v 0.286301 0.580837 0.306295
v 0.270294 0.580837 0.322847
v 0.270294 0.427118 0.157307
v -0.351395 0.407905 0.173860
v -0.351395 0.427118 0.157307
v 0.270294 0.580837 0.157307
v 0.286301 0.580837 0.173860
v 0.270294 0.600049 0.306295
v -0.351395 0.600049 0.306295
v -0.351395 0.580837 0.322847
v 0.270294 0.600049 0.173860
v -0.351395 0.580837 0.157307
v -0.351395 0.600049 0.173860
v -0.367402 0.580837 0.306295
v -0.367402 0.427118 0.306295
v -0.367402 0.580837 0.173860
v -0.367402 0.427118 0.173860
v -0.196119 0.414184 0.226266
v -0.319093 0.414184 0.226266
v -0.319093 0.414184 0.116783
v -0.306797 0.414184 0.104798
v -0.208415 0.414184 0.104798
v -0.196119 0.414184 0.116783
v -0.306797 0.414184 0.366299
v -0.319093 0.414184 0.354315
v -0.196119 0.414184 0.354315
v -0.208415 0.414184 0.366299
v -0.196119 0.625323 0.354315
v -0.208415 0.631075 0.366299
v -0.196119 0.780081 0.221293
v -0.208415 0.793992 0.226266
v -0.208415 0.631075 0.104798
v -0.196119 0.631075 0.116783
v -0.208415 0.793992 0.104798
v -0.196119 0.780081 0.116783
v -0.306797 0.793992 0.226266
v -0.319093 0.780081 0.221293
v -0.319093 0.625323 0.354315
v -0.306797 0.631075 0.366299
v -0.306797 0.793992 0.104798
v -0.319093 0.780081 0.116783
v -0.306797 0.631075 0.104798
v -0.319093 0.631075 0.116783
v -0.196119 0.631075 0.226266
v -0.319093 0.631075 0.226266
v -0.249171 -0.004035 -0.322142
v -0.394387 -0.004035 -0.180602
v -0.394387 0.261168 -0.180602
v -0.249171 0.261168 -0.322142
v -0.582846 0.048367 -0.232093
v -0.637164 0.048367 -0.034507
v -0.637164 0.208766 -0.034507
v -0.582846 0.208766 -0.232093
v -0.447541 -0.004035 0.012744
v -0.394387 -0.004035 0.206091
v -0.394387 0.261168 0.206091
v -0.447541 0.261168 0.012744
v -0.529653 0.053462 0.344017
v -0.390681 0.053462 0.479471
v -0.390681 0.203671 0.479471
v -0.529653 0.203671 0.344017
v -0.249171 -0.004035 0.347631
v -0.050801 -0.004035 0.399438
v -0.050801 0.261168 0.399438
v -0.249171 0.261168 0.347631
v -0.009220 0.042909 0.586061
v 0.207296 0.042909 0.529515
v 0.207296 0.214225 0.529515
v -0.009220 0.214225 0.586061
v 0.147569 -0.004035 0.347631
v 0.292786 -0.004035 0.206091
v 0.292786 0.261168 0.206091
v 0.147569 0.261168 0.347631
v 0.477862 0.038380 0.269885
v 0.538945 0.038380 0.047692
v 0.538945 0.218754 0.047692
v 0.477862 0.218754 0.269885
v 0.345939 -0.004035 0.012744
v 0.292786 -0.004035 -0.180602
v 0.292786 0.261168 -0.180602
v 0.345939 0.261168 0.012744
v 0.434395 0.046607 -0.312346
v 0.282736 0.046607 -0.460165
v 0.282736 0.210527 -0.460165
v 0.434395 0.210527 -0.312346
v 0.147569 -0.004035 -0.322142
v -0.050801 -0.004035 -0.373949
v -0.050801 0.261168 -0.373949
v 0.147569 0.261168 -0.322142
v -0.095161 0.045108 -0.559847
v -0.306118 0.045108 -0.504753
v -0.306118 0.212025 -0.504753
v -0.095161 0.212025 -0.559847
v -0.050801 -0.004035 0.012744
v -0.050801 0.261168 0.012744
v -0.566085 0.006357 0.012744
v -0.497050 0.006357 -0.238374
v -0.566085 0.250777 0.012744
v -0.497050 0.250777 -0.238374
v -0.308443 0.006357 0.447693
v -0.497050 0.006357 0.263862
v -0.308443 0.250777 0.447693
v -0.497050 0.250777 0.263862
v 0.206841 0.006357 0.447693
v -0.050801 0.006357 0.514980
v 0.206841 0.250777 0.447693
v -0.050801 0.250777 0.514980
v 0.464483 0.006357 0.012744
v 0.395448 0.006357 0.263862
v 0.464483 0.250777 0.012744
v 0.395448 0.250777 0.263862
v 0.206841 0.006357 -0.422205
v 0.395448 0.006357 -0.238374
v 0.206841 0.250777 -0.422205
v 0.395448 0.250777 -0.238374
v -0.308443 0.006357 -0.422205
v -0.050801 0.006357 -0.489492
v -0.308443 0.250777 -0.422205
v -0.050801 0.250777 -0.489492
v 0.032382 1.096193 -0.118227
v 0.032382 1.150115 -0.069003
v 0.091670 1.150115 -0.069003
v 0.091670 1.096193 -0.118227
v 0.032382 1.169851 -0.001761
v 0.091670 1.169851 -0.001761
v 0.032382 1.150115 0.065480
v 0.091670 1.150115 0.065480
v 0.032382 1.096193 0.114704
v 0.091670 1.096193 0.114704
v 0.032382 1.022535 0.132721
v 0.091670 1.022535 0.132721
v 0.032382 1.022535 -0.136244
v 0.091670 1.022535 -0.136244
v 0.032382 1.022535 -0.001761
v 0.170336 1.096193 -0.118227
v 0.170336 1.150115 -0.069003
v 0.170336 1.022535 -0.001761
v 0.170336 1.169851 -0.001761
v 0.170336 1.150115 0.065480
v 0.170336 1.096193 0.114704
v 0.170336 1.022535 0.132721
v 0.170336 1.022535 -0.136244
v 0.091670 0.419571 0.132721
v 0.032382 0.419571 0.132721
v 0.091670 0.419571 -0.136244
v 0.032382 0.419571 -0.136244
v 0.032382 0.419571 -0.001761
v 0.170336 0.419571 0.132721
v 0.170336 0.419571 -0.001761
v 0.170336 0.419571 -0.136244
v 0.091670 0.403099 0.132721
v 0.032382 0.403099 0.132721
v 0.091670 0.403099 -0.136244
v 0.032382 0.403099 -0.136244
v 0.032382 0.403099 -0.001761
v 0.170336 0.403099 0.132721
v 0.170336 0.403099 -0.001761
v 0.170336 0.403099 -0.136244
v 0.091670 0.403099 -0.001881
v -0.314369 0.276862 -0.429107
v -0.529399 0.276862 -0.193244
v -0.529399 0.432853 -0.193244
v -0.314369 0.432853 -0.429107
v -0.561123 0.276862 0.120765
v -0.561123 0.432853 0.120765
v -0.397423 0.276862 0.392978
v -0.397423 0.432853 0.392978
v -0.100828 0.276862 0.519419
v -0.100828 0.432853 0.519419
v 0.215374 0.276862 0.451792
v 0.272425 0.432853 0.451792
v 0.430404 0.276862 0.215929
v 0.430404 0.432853 0.215929
v 0.462127 0.276862 -0.098080
v 0.462127 0.432853 -0.098080
v 0.298428 0.276862 -0.370293
v 0.298428 0.432853 -0.370293
v 0.001833 0.276862 -0.496734
v 0.001833 0.432853 -0.496734
v -0.049498 0.276862 0.011342
v -0.049498 0.432853 0.011342
v 0.109785 0.414184 -0.227118
v 0.232759 0.414184 -0.227118
v 0.232759 0.414184 -0.117635
v 0.220463 0.414184 -0.105651
v 0.122081 0.414184 -0.105651
v 0.109785 0.414184 -0.117635
v 0.220463 0.414184 -0.367151
v 0.232759 0.414184 -0.355167
v 0.109785 0.414184 -0.355167
v 0.122081 0.414184 -0.367151
v 0.109785 0.625323 -0.355167
v 0.122081 0.631075 -0.367151
v 0.109785 0.780081 -0.222145
v 0.122081 0.793992 -0.227118
v 0.122081 0.631075 -0.105651
v 0.109785 0.631075 -0.117635
v 0.122081 0.793992 -0.105651
v 0.109785 0.780081 -0.117635
v 0.220463 0.793992 -0.227118
v 0.232759 0.780081 -0.222145
v 0.232759 0.625323 -0.355167
v 0.220463 0.631075 -0.367151
v 0.220463 0.793992 -0.105651
v 0.232759 0.780081 -0.117635
v 0.220463 0.631075 -0.105651
v 0.232759 0.631075 -0.117635
v 0.109785 0.631075 -0.227118
v 0.232759 0.631075 -0.227118
v -0.264609 1.096193 -0.118227
v -0.264609 1.150115 -0.069003
v -0.206473 1.150115 -0.069003
v -0.206473 1.096193 -0.118227
v -0.264609 1.169851 -0.001761
v -0.206473 1.169851 -0.001761
v -0.264609 1.150115 0.065480
v -0.206473 1.150115 0.065480
v -0.264609 1.096193 0.114704
v -0.206473 1.096193 0.114704
v -0.264609 1.022535 0.132721
v -0.206473 1.022535 0.132721
v -0.264609 1.022535 -0.136244
v -0.206473 1.022535 -0.136244
v -0.264609 1.022535 -0.001761
v -0.129334 1.096193 -0.118227
v -0.129334 1.150115 -0.069003
v -0.129334 1.022535 -0.001761
v -0.129334 1.169851 -0.001761
v -0.129334 1.150115 0.065480
v -0.129334 1.096193 0.114704
v -0.129334 1.022535 0.132721
v -0.129334 1.022535 -0.136244
v -0.206473 0.419571 0.132721
v -0.264609 0.419571 0.132721
v -0.206473 0.419571 -0.136244
v -0.264609 0.419571 -0.136244
v -0.264609 0.419571 -0.001761
v -0.129334 0.419571 0.132721
v -0.129334 0.419571 -0.001761
v -0.129334 0.419571 -0.136244
v -0.206473 0.403099 0.132721
v -0.264609 0.403099 0.132721
v -0.206473 0.403099 -0.136244
v -0.264609 0.403099 -0.136244
v -0.264609 0.403099 -0.001761
v -0.264609 0.403099 -0.001972
v -0.129334 0.403099 0.132721
v -0.129334 0.403099 -0.001761
v -0.129334 0.403099 -0.136244
v -0.206473 0.403099 -0.001881
v 0.232759 0.414184 0.226266
v 0.109785 0.414184 0.226266
v 0.109785 0.414184 0.116783
v 0.122081 0.414184 0.104798
v 0.220463 0.414184 0.104798
v 0.232759 0.414184 0.116783
v 0.122081 0.414184 0.366299
v 0.109785 0.414184 0.354315
v 0.232759 0.414184 0.354315
v 0.220463 0.414184 0.366299
v 0.232759 0.625323 0.354315
v 0.220463 0.631075 0.366299
v 0.232759 0.780081 0.221293
v 0.220463 0.793992 0.226266
v 0.220463 0.631075 0.104798
v 0.232759 0.631075 0.116783
v 0.220463 0.793992 0.104798
v 0.232759 0.780081 0.116783
v 0.122081 0.793992 0.226266
v 0.109785 0.780081 0.221293
v 0.109785 0.625323 0.354315
v 0.122081 0.631075 0.366299
v 0.122081 0.793992 0.104798
v 0.109785 0.780081 0.116783
v 0.122081 0.631075 0.104798
v 0.109785 0.631075 0.116783
v 0.232759 0.631075 0.226266
v 0.109785 0.631075 0.226266
v -0.319093 0.414184 -0.227118
v -0.196119 0.414184 -0.227118
v -0.196119 0.414184 -0.117635
v -0.208415 0.414184 -0.105651
v -0.306797 0.414184 -0.105651
v -0.319093 0.414184 -0.117635
v -0.208415 0.414184 -0.367151
v -0.196119 0.414184 -0.355167
v -0.319093 0.414184 -0.355167
v -0.306797 0.414184 -0.367151
v -0.319093 0.625323 -0.355167
v -0.306797 0.631075 -0.367151
v -0.319093 0.780081 -0.222145
v -0.306797 0.793992 -0.227118
v -0.306797 0.631075 -0.105651
v -0.319093 0.631075 -0.117635
v -0.306797 0.793992 -0.105651
v -0.319093 0.780081 -0.117635
v -0.208415 0.793992 -0.227118
v -0.196119 0.780081 -0.222145
v -0.196119 0.625323 -0.355167
v -0.208415 0.631075 -0.367151
v -0.208415 0.793992 -0.105651
v -0.196119 0.780081 -0.117635
v -0.208415 0.631075 -0.105651
v -0.196119 0.631075 -0.117635
v -0.319093 0.631075 -0.227118
v -0.196119 0.631075 -0.227118
vt 0.788290 0.306244
vt 0.788342 0.301651
vt 0.900923 0.302935
vt 0.900870 0.307527
vt 0.935440 0.417551
vt 0.934387 0.408227
vt 0.985629 0.407806
vt 0.984755 0.416907
vt 0.927033 0.416749
vt 0.936242 0.474823
vt 0.927675 0.475854
vt 0.787964 0.334818
vt 0.788017 0.330226
vt 0.900597 0.331510
vt 0.900545 0.336102
vt 0.993321 0.415877
vt 0.993963 0.474981
vt 0.985557 0.474180
vt 0.787269 0.395822
vt 0.787321 0.391230
vt 0.899901 0.392513
vt 0.899849 0.397105
vt 0.935367 0.483925
vt 0.986609 0.483504
vt 0.787594 0.367247
vt 0.787647 0.362655
vt 0.900227 0.363938
vt 0.900175 0.368531
vt 0.823075 0.408991
vt 0.822422 0.418539
vt 0.757561 0.421195
vt 0.756132 0.411522
vt 0.832954 0.417062
vt 0.834995 0.475103
vt 0.824656 0.474391
vt 0.826086 0.484064
vt 0.759143 0.486595
vt 0.759795 0.477047
vt 0.747222 0.420483
vt 0.749264 0.478524
vt 0.788660 0.273815
vt 0.901240 0.275098
vt 0.655233 0.367678
vt 0.655334 0.362954
vt 0.771145 0.365433
vt 0.771043 0.370157
vt 0.853452 0.415224
vt 0.853007 0.405936
vt 0.903921 0.407052
vt 0.902763 0.416121
vt 0.845074 0.414160
vt 0.852464 0.472493
vt 0.843869 0.473255
vt 0.657290 0.271565
vt 0.657391 0.266841
vt 0.773202 0.269320
vt 0.773101 0.274044
vt 0.911299 0.415659
vt 0.910152 0.474455
vt 0.901775 0.473391
vt 0.655947 0.334319
vt 0.656048 0.329595
vt 0.771859 0.332074
vt 0.771757 0.336798
vt 0.851306 0.481563
vt 0.902535 0.482743
vt 0.656576 0.304924
vt 0.656677 0.300200
vt 0.772488 0.302679
vt 0.772387 0.307403
vt 0.723476 0.404767
vt 0.721959 0.414216
vt 0.657125 0.410967
vt 0.656581 0.401203
vt 0.732581 0.413703
vt 0.729339 0.471690
vt 0.719108 0.470040
vt 0.719652 0.479804
vt 0.653096 0.476268
vt 0.654273 0.466790
vt 0.646849 0.409674
vt 0.643651 0.467304
vt 0.770515 0.394828
vt 0.654705 0.392349
vt 0.517614 0.129897
vt 0.516234 0.112319
vt 0.530168 0.109555
vt 0.532219 0.109813
vt 0.542764 0.124225
vt 0.539597 0.126021
vt 0.495041 0.113518
vt 0.497451 0.112807
vt 0.492653 0.126812
vt 0.489920 0.124925
vt 0.491077 0.163332
vt 0.487961 0.164207
vt 0.512846 0.192807
vt 0.511233 0.195905
vt 0.538500 0.167732
vt 0.535412 0.167544
vt 0.533751 0.198041
vt 0.531369 0.194649
vt 0.507260 0.052691
vt 0.508923 0.055424
vt 0.491666 0.081441
vt 0.488647 0.080763
vt 0.525367 0.051030
vt 0.524003 0.053842
vt 0.535932 0.076189
vt 0.532634 0.076337
vt 0.515066 0.166752
vt 0.512985 0.078035
vt 0.550711 0.073781
vt 0.470674 0.078278
vt 0.501345 0.038690
vt 0.533377 0.039702
vt 0.375541 0.178023
vt 0.359659 0.196686
vt 0.324034 0.173357
vt 0.342760 0.148714
vt 0.338826 0.216658
vt 0.309184 0.230178
vt 0.308603 0.207290
vt 0.327076 0.200512
vt 0.281089 0.226788
vt 0.256548 0.221611
vt 0.261869 0.178712
vt 0.291515 0.184136
vt 0.228885 0.211423
vt 0.205415 0.191930
vt 0.224437 0.180947
vt 0.237401 0.194939
vt 0.194192 0.167191
vt 0.187121 0.144364
vt 0.225094 0.126312
vt 0.236004 0.155962
vt 0.179739 0.118273
vt 0.182798 0.083941
vt 0.204423 0.095242
vt 0.200946 0.115952
vt 0.198984 0.062844
vt 0.214600 0.044298
vt 0.250636 0.066943
vt 0.232117 0.091790
vt 0.233351 0.023167
vt 0.266372 0.007910
vt 0.266915 0.033498
vt 0.246858 0.040771
vt 0.293784 0.013118
vt 0.318264 0.018412
vt 0.313127 0.061422
vt 0.283390 0.056049
vt 0.345981 0.027278
vt 0.371370 0.048651
vt 0.350565 0.060334
vt 0.336895 0.045175
vt 0.381159 0.073483
vt 0.388070 0.096473
vt 0.349922 0.114217
vt 0.339111 0.084436
vt 0.394882 0.122942
vt 0.391670 0.156543
vt 0.370638 0.145381
vt 0.374147 0.125000
vt 0.057639 0.101259
vt 0.075448 0.104531
vt 0.061291 0.136272
vt 0.040809 0.107368
vt 0.029467 0.121222
vt 0.026652 0.139109
vt 0.033119 0.156235
vt 0.047134 0.168013
vt 0.064943 0.171285
vt 0.081773 0.165176
vt 0.093115 0.151322
vt 0.095930 0.133435
vt 0.089463 0.116309
vt 0.287513 0.120102
vt 0.034675 0.098692
vt 0.056534 0.090757
vt 0.300497 0.198415
vt 0.295247 0.231622
vt 0.326900 0.187546
vt 0.351226 0.210619
vt 0.016260 0.139950
vt 0.019916 0.116719
vt 0.228455 0.169006
vt 0.196630 0.180818
vt 0.249211 0.188585
vt 0.239921 0.220494
vt 0.042876 0.177530
vt 0.024673 0.162233
vt 0.215646 0.092694
vt 0.188441 0.072370
vt 0.211702 0.121770
vt 0.179504 0.130927
vt 0.087907 0.173852
vt 0.066048 0.181787
vt 0.274518 0.041835
vt 0.279617 0.008044
vt 0.247459 0.052707
vt 0.222504 0.030259
vt 0.106322 0.132594
vt 0.102666 0.155825
vt 0.346769 0.071502
vt 0.378889 0.059772
vt 0.325750 0.051473
vt 0.334867 0.019380
vt 0.079705 0.095014
vt 0.097908 0.110310
vt 0.359246 0.147911
vt 0.386153 0.168456
vt 0.363265 0.118904
vt 0.395544 0.110075
vt 0.034136 0.090215
vt 0.051335 0.083972
vt 0.008569 0.135421
vt 0.011262 0.118304
vt 0.036478 0.182335
vt 0.021181 0.169480
vt 0.089391 0.181593
vt 0.070050 0.188613
vt 0.113847 0.136296
vt 0.110907 0.154977
vt 0.086354 0.090310
vt 0.101259 0.102834
vt 0.978717 0.229235
vt 0.957628 0.248220
vt 0.950314 0.236705
vt 0.967119 0.221463
vt 0.931385 0.256848
vt 0.929503 0.243461
vt 0.903598 0.253724
vt 0.907627 0.240735
vt 0.878359 0.238685
vt 0.887910 0.228559
vt 0.859578 0.213716
vt 0.873342 0.209088
vt 0.992094 0.202648
vt 0.977870 0.200623
vt 0.160551 0.102478
vt 0.151837 0.100012
vt 0.159298 0.084633
vt 0.168930 0.100163
vt 0.174727 0.093686
vt 0.176391 0.084783
vt 0.173475 0.075841
vt 0.145122 0.093426
vt 0.952734 0.212218
vt 0.941583 0.223152
vt 0.925123 0.196989
vt 0.927429 0.227770
vt 0.912730 0.225423
vt 0.900072 0.216305
vt 0.892282 0.202028
vt 0.958437 0.196810
vt 0.869955 0.049567
vt 0.856829 0.043276
vt 0.960235 0.044796
vt 0.972703 0.037058
vt 0.119877 0.021072
vt 0.134053 0.012280
vt 0.105700 0.029864
vt 0.885503 0.057513
vt 0.915520 0.053524
vt 0.945448 0.053090
vt 0.873366 0.045107
vt 0.863025 0.037071
vt 0.956134 0.041405
vt 0.966409 0.031184
vt 0.118800 0.019336
vt 0.132976 0.010543
vt 0.104623 0.028128
vt 0.886059 0.054948
vt 0.915076 0.049325
vt 0.944648 0.050200
vt 0.913948 0.030814
vt 0.913552 0.016792
vt 0.624400 0.439691
vt 0.555978 0.509756
vt 0.538561 0.477904
vt 0.591500 0.424110
vt 0.460054 0.525618
vt 0.464859 0.489650
vt 0.372694 0.481144
vt 0.397923 0.454929
vt 0.327248 0.392563
vt 0.363318 0.386263
vt 0.340291 0.293636
vt 0.377774 0.299406
vt 0.412532 0.223960
vt 0.428761 0.257092
vt 0.507589 0.209751
vt 0.502421 0.245732
vt 0.594140 0.254065
vt 0.568899 0.280301
vt 0.639031 0.341868
vt 0.603167 0.348433
vt 0.037491 0.078933
vt 0.019276 0.063940
vt 0.050802 0.042742
vt 0.060790 0.080102
vt 0.080274 0.067001
vt 0.088501 0.044634
vt 0.064112 0.006551
vt 0.082327 0.021544
vt 0.040813 0.005382
vt 0.021330 0.018483
vt 0.013103 0.040850
vt 0.483781 0.368072
vt 0.436437 0.111151
vt 0.433726 0.092991
vt 0.447998 0.089112
vt 0.450156 0.089248
vt 0.462189 0.103315
vt 0.459041 0.105452
vt 0.411841 0.095705
vt 0.414289 0.094808
vt 0.410208 0.109609
vt 0.407247 0.107780
vt 0.411186 0.147648
vt 0.408010 0.148765
vt 0.435936 0.176715
vt 0.434478 0.180044
vt 0.460852 0.148830
vt 0.457633 0.148849
vt 0.458011 0.180671
vt 0.455304 0.177312
vt 0.420135 0.031691
vt 0.422056 0.034412
vt 0.406154 0.062662
vt 0.402969 0.062116
vt 0.438744 0.028601
vt 0.437547 0.031628
vt 0.451595 0.053926
vt 0.448191 0.054342
vt 0.436410 0.149527
vt 0.427984 0.057576
vt 0.466703 0.050198
vt 0.384136 0.060658
vt 0.412962 0.017563
vt 0.446163 0.016201
vt 0.753633 0.221587
vt 0.766519 0.231852
vt 0.761796 0.243497
vt 0.743602 0.230338
vt 0.781870 0.235126
vt 0.782752 0.247466
vt 0.797009 0.231076
vt 0.803229 0.242033
vt 0.809363 0.220269
vt 0.820219 0.228001
vt 0.816305 0.204562
vt 0.831389 0.207952
vt 0.746216 0.206173
vt 0.731091 0.210237
vt 0.781051 0.202727
vt 0.173112 0.151829
vt 0.171732 0.160180
vt 0.157139 0.152024
vt 0.166441 0.166345
vt 0.158658 0.168673
vt 0.150467 0.166539
vt 0.144064 0.160516
vt 0.170213 0.143531
vt 0.823774 0.047854
vt 0.811545 0.053882
vt 0.736455 0.047776
vt 0.748584 0.053830
vt 0.780106 0.051040
vt 0.105988 0.101897
vt 0.119062 0.093405
vt 0.132136 0.084912
vt 0.820583 0.043539
vt 0.810971 0.051252
vt 0.739975 0.043849
vt 0.749143 0.051230
vt 0.780166 0.046513
vt 0.780123 0.046491
vt 0.104948 0.100296
vt 0.118022 0.091803
vt 0.131096 0.083311
vt 0.780265 0.032997
vt 0.730298 0.243237
vt 0.712317 0.216138
vt 0.719516 0.036769
vt 0.725937 0.030540
vt 0.781068 0.014132
vt 0.834460 0.032562
vt 0.840910 0.038101
vt 0.850298 0.212418
vt 0.834985 0.239190
vt 0.812056 0.257788
vt 0.784322 0.265268
vt 0.755643 0.260407
vt 0.636238 0.182422
vt 0.621698 0.191891
vt 0.613471 0.171914
vt 0.613931 0.168640
vt 0.626670 0.167259
vt 0.628521 0.168842
vt 0.640827 0.213816
vt 0.637700 0.211885
vt 0.646505 0.195791
vt 0.647372 0.197627
vt 0.675643 0.181920
vt 0.678008 0.184227
vt 0.683479 0.150881
vt 0.686541 0.150027
vt 0.651732 0.144309
vt 0.653395 0.146942
vt 0.675565 0.135275
vt 0.674581 0.138255
vt 0.561240 0.219056
vt 0.563796 0.216632
vt 0.600244 0.228363
vt 0.600321 0.231630
vt 0.552744 0.197886
vt 0.556617 0.199250
vt 0.579738 0.184888
vt 0.580791 0.187845
vt 0.664282 0.162918
vt 0.588312 0.207073
vt 0.642230 0.128266
vt 0.688897 0.193457
vt 0.701620 0.147198
vt 0.681892 0.122711
vt 0.595872 0.080458
vt 0.596839 0.098414
vt 0.574645 0.095450
vt 0.571945 0.093341
vt 0.577304 0.081191
vt 0.579685 0.080350
vt 0.626428 0.092603
vt 0.623075 0.094409
vt 0.613191 0.078168
vt 0.615287 0.078341
vt 0.615835 0.044829
vt 0.619131 0.043902
vt 0.592034 0.021716
vt 0.592854 0.018525
vt 0.569689 0.046807
vt 0.572914 0.046678
vt 0.573927 0.020735
vt 0.576091 0.023162
vt 0.589901 0.166752
vt 0.589049 0.163202
vt 0.618460 0.136565
vt 0.621433 0.138188
vt 0.566498 0.163411
vt 0.569728 0.160642
vt 0.568815 0.132449
vt 0.572015 0.133035
vt 0.592893 0.045182
vt 0.593170 0.136246
vt 0.550367 0.047025
vt 0.633055 0.038909
vt 0.598125 0.003525
vt 0.565928 0.008547
vn 0.027615 -0.991661 0.125884
vn 0.023997 -0.093870 0.995295
vn -0.023997 -0.093870 0.995295
vn -0.027615 -0.991661 0.125884
vn 0.991313 -0.085849 0.099646
vn 0.027615 -0.991661 0.125884
vn 0.027614 -0.991661 -0.125884
vn 0.991313 -0.085849 -0.099646
vn 0.023997 -0.093870 0.995295
vn 0.991313 -0.085849 0.099646
vn 0.991313 0.085849 0.099646
vn 0.023997 0.093870 0.995295
vn 0.023997 -0.093869 -0.995295
vn 0.027614 -0.991661 -0.125884
vn -0.027614 -0.991661 -0.125884
vn -0.023997 -0.093869 -0.995295
vn 0.991313 -0.085849 -0.099646
vn 0.023997 -0.093869 -0.995295
vn 0.023997 0.093869 -0.995295
vn 0.991313 0.085849 -0.099646
vn 0.023997 0.093870 0.995295
vn 0.027614 0.991661 0.125884
vn -0.027614 0.991661 0.125884
vn -0.023997 0.093870 0.995295
vn 0.027614 0.991661 0.125884
vn 0.991313 0.085849 0.099646
vn 0.991313 0.085849 -0.099646
vn 0.027614 0.991661 -0.125884
vn 0.027614 0.991661 -0.125884
vn 0.023997 0.093869 -0.995295
vn -0.023997 0.093869 -0.995295
vn -0.027614 0.991661 -0.125884
vn -0.023997 0.093870 0.995295
vn -0.991313 0.085849 0.099646
vn -0.991313 -0.085849 0.099646
vn -0.023997 -0.093870 0.995295
vn -0.991313 0.085849 0.099646
vn -0.027614 0.991661 0.125884
vn -0.027614 0.991661 -0.125884
vn -0.991313 0.085849 -0.099646
vn -0.991313 0.085849 -0.099646
vn -0.023997 0.093869 -0.995295
vn -0.023997 -0.093869 -0.995295
vn -0.991313 -0.085849 -0.099646
vn -0.027615 -0.991661 0.125884
vn -0.991313 -0.085849 0.099646
vn -0.991313 -0.085849 -0.099646
vn -0.027614 -0.991661 -0.125884
vn 0.991313 -0.085849 0.099646
vn 0.991313 -0.085849 -0.099646
vn 0.991313 0.085849 -0.099646
vn 0.991313 0.085849 0.099646
vn 0.027614 0.991661 0.125884
vn 0.027614 0.991661 -0.125884
vn -0.027614 0.991661 -0.125884
vn -0.027614 0.991661 0.125884
vn -0.991313 0.085849 0.099646
vn -0.991313 0.085849 -0.099646
vn -0.991313 -0.085849 -0.099646
vn -0.991313 -0.085849 0.099646
vn -0.027615 -0.991661 0.125884
vn -0.027614 -0.991661 -0.125884
vn 0.027614 -0.991661 -0.125884
vn 0.027615 -0.991661 0.125884
vn 0.023997 -0.093869 -0.995295
vn -0.023997 -0.093869 -0.995295
vn -0.023997 0.093869 -0.995295
vn 0.023997 0.093869 -0.995295
vn -0.023997 -0.093870 0.995295
vn 0.023997 -0.093870 0.995295
vn 0.023997 0.093870 0.995295
vn -0.023997 0.093870 0.995295
vn 0.027615 -0.991661 0.125884
vn 0.991313 -0.085849 0.099646
vn 0.023997 -0.093870 0.995295
vn 0.023997 -0.093869 -0.995295
vn 0.991313 -0.085849 -0.099646
vn 0.027614 -0.991661 -0.125884
vn 0.023997 0.093870 0.995295
vn 0.991313 0.085849 0.099646
vn 0.027614 0.991661 0.125884
vn 0.027614 0.991661 -0.125884
vn 0.991313 0.085849 -0.099646
vn 0.023997 0.093869 -0.995295
vn -0.023997 0.093870 0.995295
vn -0.027614 0.991661 0.125884
vn -0.991313 0.085849 0.099646
vn -0.991313 0.085849 -0.099646
vn -0.027614 0.991661 -0.125884
vn -0.023997 0.093869 -0.995295
vn -0.023997 -0.093870 0.995295
vn -0.991313 -0.085849 0.099646
vn -0.027615 -0.991661 0.125884
vn -0.027614 -0.991661 -0.125884
vn -0.991313 -0.085849 -0.099646
vn -0.023997 -0.093869 -0.995295
vn 0.027614 -0.991661 0.125884
vn 0.023997 -0.093870 0.995295
vn -0.023997 -0.093870 0.995295
vn -0.027614 -0.991661 0.125884
vn 0.991313 -0.085849 0.099646
vn 0.027614 -0.991661 0.125884
vn 0.027614 -0.991661 -0.125884
vn 0.991313 -0.085849 -0.099646
vn 0.023997 -0.093870 0.995295
vn 0.991313 -0.085849 0.099646
vn 0.991313 0.085849 0.099646
vn 0.023997 0.093870 0.995295
vn 0.023997 -0.093870 -0.995295
vn 0.027614 -0.991661 -0.125884
vn -0.027614 -0.991661 -0.125884
vn -0.023997 -0.093870 -0.995295
vn 0.991313 -0.085849 -0.099646
vn 0.023997 -0.093870 -0.995295
vn 0.023997 0.093870 -0.995295
vn 0.991313 0.085849 -0.099646
vn 0.023997 0.093870 0.995295
vn 0.027614 0.991661 0.125884
vn -0.027614 0.991661 0.125884
vn -0.023997 0.093870 0.995295
vn 0.027614 0.991661 0.125884
vn 0.991313 0.085849 0.099646
vn 0.991313 0.085849 -0.099646
vn 0.027614 0.991661 -0.125884
vn 0.027614 0.991661 -0.125884
vn 0.023997 0.093870 -0.995295
vn -0.023997 0.093870 -0.995295
vn -0.027614 0.991661 -0.125884
vn -0.023997 0.093870 0.995295
vn -0.991313 0.085849 0.099646
vn -0.991313 -0.085849 0.099646
vn -0.023997 -0.093870 0.995295
vn -0.991313 0.085849 0.099646
vn -0.027614 0.991661 0.125884
vn -0.027614 0.991661 -0.125884
vn -0.991313 0.085849 -0.099646
vn -0.991313 0.085849 -0.099646
vn -0.023997 0.093870 -0.995295
vn -0.023997 -0.093870 -0.995295
vn -0.991313 -0.085849 -0.099646
vn -0.027614 -0.991661 0.125884
vn -0.991313 -0.085849 0.099646
vn -0.991313 -0.085849 -0.099646
vn -0.027614 -0.991661 -0.125884
vn 0.991313 -0.085849 0.099646
vn 0.991313 -0.085849 -0.099646
vn 0.991313 0.085849 -0.099646
vn 0.991313 0.085849 0.099646
vn 0.027614 0.991661 0.125884
vn 0.027614 0.991661 -0.125884
vn -0.027614 0.991661 -0.125884
vn -0.027614 0.991661 0.125884
vn -0.991313 0.085849 0.099646
vn -0.991313 0.085849 -0.099646
vn -0.991313 -0.085849 -0.099646
vn -0.991313 -0.085849 0.099646
vn -0.023997 -0.093870 0.995295
vn 0.023997 -0.093870 0.995295
vn 0.023997 0.093870 0.995295
vn -0.023997 0.093870 0.995295
vn 0.027614 -0.991661 0.125884
vn 0.991313 -0.085849 0.099646
vn 0.023997 -0.093870 0.995295
vn 0.023997 -0.093870 -0.995295
vn 0.991313 -0.085849 -0.099646
vn 0.027614 -0.991661 -0.125884
vn 0.023997 0.093870 0.995295
vn 0.991313 0.085849 0.099646
vn 0.027614 0.991661 0.125884
vn 0.027614 0.991661 -0.125884
vn 0.991313 0.085849 -0.099646
vn 0.023997 0.093870 -0.995295
vn -0.023997 0.093870 0.995295
vn -0.027614 0.991661 0.125884
vn -0.991313 0.085849 0.099646
vn -0.991313 0.085849 -0.099646
vn -0.027614 0.991661 -0.125884
vn -0.023997 0.093870 -0.995295
vn -0.023997 -0.093870 0.995295
vn -0.991313 -0.085849 0.099646
vn -0.027614 -0.991661 0.125884
vn -0.027614 -0.991661 -0.125884
vn -0.991313 -0.085849 -0.099646
vn -0.023997 -0.093870 -0.995295
vn -0.023997 0.093870 -0.995295
vn 0.023997 0.093870 -0.995295
vn 0.023997 -0.093870 -0.995295
vn -0.023997 -0.093870 -0.995295
vn -0.027614 -0.991661 -0.125884
vn 0.027614 -0.991661 -0.125884
vn 0.027614 -0.991661 0.125884
vn -0.027614 -0.991661 0.125884
vn 0.848786 -0.528737 0.000000
vn -0.848786 -0.528737 0.000000
vn -0.764348 -0.640144 -0.077375
vn -0.079077 -0.678571 -0.730266
vn 0.079077 -0.678571 -0.730266
vn 0.764348 -0.640144 -0.077375
vn -0.072718 -0.730007 0.679560
vn -0.760284 -0.646151 0.066760
vn -0.848786 -0.528737 0.000000
vn 0.848786 -0.528737 0.000000
vn 0.760284 -0.646152 0.066760
vn 0.072718 -0.730007 0.679560
vn 0.072718 -0.730007 0.679560
vn 0.760284 -0.646152 0.066760
vn 0.989668 0.047500 0.135281
vn 0.099672 0.345628 0.933063
vn 0.099672 0.345628 0.933063
vn 0.989668 0.047500 0.135281
vn 0.985232 0.143165 0.093921
vn 0.100013 0.845034 0.525277
vn 0.764348 -0.640144 -0.077375
vn 0.079077 -0.678571 -0.730266
vn 0.105920 0.000000 -0.994375
vn 0.994653 0.000000 -0.103270
vn 0.994653 0.000000 -0.103270
vn 0.105920 0.000000 -0.994375
vn 0.095726 0.597146 -0.796400
vn 0.987316 0.090153 -0.130690
vn -0.100013 0.845034 0.525277
vn -0.985232 0.143166 0.093921
vn -0.989668 0.047500 0.135281
vn -0.099672 0.345628 0.933063
vn -0.985232 0.143166 0.093921
vn -0.100013 0.845034 0.525277
vn -0.095726 0.597146 -0.796400
vn -0.987316 0.090153 -0.130690
vn -0.099672 0.345628 0.933063
vn -0.989668 0.047500 0.135281
vn -0.760284 -0.646151 0.066760
vn -0.072718 -0.730007 0.679560
vn -0.987316 0.090153 -0.130690
vn -0.095726 0.597146 -0.796400
vn -0.105920 0.000000 -0.994375
vn -0.994653 0.000000 -0.103270
vn -0.994653 0.000000 -0.103270
vn -0.105920 0.000000 -0.994375
vn -0.079077 -0.678571 -0.730266
vn -0.764348 -0.640144 -0.077375
vn 0.100013 0.845034 0.525277
vn 0.985232 0.143165 0.093921
vn 0.987316 0.090153 -0.130690
vn 0.095726 0.597146 -0.796400
vn 0.989668 0.047500 0.135281
vn 0.760284 -0.646152 0.066760
vn 0.848786 -0.528737 0.000000
vn 1.000000 0.000000 0.000000
vn -0.989668 0.047500 0.135281
vn -1.000000 0.000000 0.000000
vn -0.848786 -0.528737 0.000000
vn -0.760284 -0.646151 0.066760
vn 0.105920 0.000000 -0.994375
vn 0.079077 -0.678571 -0.730266
vn -0.079077 -0.678571 -0.730266
vn -0.105920 0.000000 -0.994375
vn -0.099672 0.345628 0.933063
vn -0.072718 -0.730007 0.679560
vn 0.072718 -0.730007 0.679560
vn 0.099672 0.345628 0.933063
vn 0.994653 0.000000 -0.103270
vn 1.000000 0.000000 0.000000
vn 0.848786 -0.528737 0.000000
vn 0.764348 -0.640144 -0.077375
vn -0.100013 0.845034 0.525277
vn 0.100013 0.845034 0.525277
vn 0.095726 0.597146 -0.796400
vn -0.095726 0.597146 -0.796400
vn -0.848786 -0.528737 0.000000
vn -1.000000 0.000000 0.000000
vn -0.994653 0.000000 -0.103270
vn -0.764348 -0.640144 -0.077375
vn -0.099672 0.345628 0.933063
vn 0.099672 0.345628 0.933063
vn 0.100013 0.845034 0.525277
vn -0.100013 0.845034 0.525277
vn -0.985232 0.143166 0.093921
vn -1.000000 0.000000 0.000000
vn -0.989668 0.047500 0.135281
vn -0.994653 0.000000 -0.103270
vn -1.000000 0.000000 0.000000
vn -0.985232 0.143166 0.093921
vn -0.987316 0.090153 -0.130690
vn 0.105920 0.000000 -0.994375
vn -0.105920 0.000000 -0.994375
vn -0.095726 0.597146 -0.796400
vn 0.095726 0.597146 -0.796400
vn 0.985232 0.143165 0.093921
vn 1.000000 0.000000 0.000000
vn 0.994653 0.000000 -0.103270
vn 0.987316 0.090153 -0.130690
vn 0.989668 0.047500 0.135281
vn 1.000000 0.000000 0.000000
vn 0.985232 0.143165 0.093921
vn -0.533225 -0.813683 -0.231499
vn -0.225147 -0.806142 -0.547214
vn -0.225147 0.806142 -0.547214
vn -0.533225 0.813683 -0.231499
vn -0.736524 -0.372142 -0.564839
vn -0.921255 -0.372002 0.113593
vn -0.921255 0.372002 0.113593
vn -0.736524 0.372142 -0.564839
vn -0.463114 -0.810202 0.359303
vn -0.576225 -0.813994 -0.073343
vn -0.576225 0.813993 -0.073343
vn -0.463114 0.810202 0.359303
vn -0.850295 -0.376334 0.367928
vn -0.354732 -0.375994 0.856034
vn -0.354732 0.375994 0.856034
vn -0.850295 0.376334 0.367928
vn 0.071419 -0.805869 0.587770
vn -0.348117 -0.809619 0.472579
vn -0.348117 0.809619 0.472579
vn 0.071419 0.805869 0.587771
vn -0.102124 -0.359571 0.927513
vn 0.546109 -0.359006 0.756888
vn 0.546109 0.359006 0.756888
vn -0.102124 0.359571 0.927513
vn 0.533225 -0.813683 0.231499
vn 0.225148 -0.806142 0.547214
vn 0.225148 0.806142 0.547214
vn 0.533225 0.813683 0.231499
vn 0.749924 -0.354574 0.558473
vn 0.929923 -0.353680 -0.100769
vn 0.929923 0.353680 -0.100769
vn 0.749924 0.354574 0.558473
vn 0.463113 -0.810202 -0.359303
vn 0.576225 -0.813993 0.073343
vn 0.576225 0.813994 0.073343
vn 0.463113 0.810202 -0.359303
vn 0.851430 -0.367260 -0.374416
vn 0.360598 -0.367812 -0.857137
vn 0.360598 0.367812 -0.857137
vn 0.851430 0.367260 -0.374416
vn -0.071419 -0.805869 -0.587770
vn 0.348117 -0.809619 -0.472579
vn 0.348117 0.809619 -0.472579
vn -0.071419 0.805869 -0.587770
vn 0.104554 -0.363387 -0.925753
vn -0.547415 -0.362989 -0.754040
vn -0.547415 0.362989 -0.754040
vn 0.104554 0.363387 -0.925753
vn -0.225147 -0.806142 -0.547214
vn -0.533225 -0.813683 -0.231499
vn 0.000000 -1.000000 0.000000
vn -0.463114 -0.810202 0.359303
vn -0.225147 -0.806142 -0.547214
vn 0.000000 -1.000000 0.000000
vn -0.576225 -0.813994 -0.073343
vn -0.463114 -0.810202 0.359303
vn 0.000000 -1.000000 0.000000
vn 0.071419 -0.805869 0.587770
vn -0.576225 -0.813994 -0.073343
vn 0.000000 -1.000000 0.000000
vn -0.348117 -0.809619 0.472579
vn 0.071419 -0.805869 0.587770
vn 0.000000 -1.000000 0.000000
vn 0.533225 -0.813683 0.231499
vn -0.348117 -0.809619 0.472579
vn 0.000000 -1.000000 0.000000
vn 0.225148 -0.806142 0.547214
vn 0.533225 -0.813683 0.231499
vn 0.000000 -1.000000 0.000000
vn 0.463113 -0.810202 -0.359303
vn 0.225148 -0.806142 0.547214
vn 0.000000 -1.000000 0.000000
vn 0.576225 -0.813993 0.073343
vn 0.463113 -0.810202 -0.359303
vn 0.000000 -1.000000 0.000000
vn -0.071419 -0.805869 -0.587770
vn 0.576225 -0.813993 0.073343
vn 0.000000 -1.000000 0.000000
vn 0.348117 -0.809619 -0.472579
vn -0.071419 -0.805869 -0.587770
vn 0.000000 -1.000000 0.000000
vn -0.533225 -0.813683 -0.231499
vn 0.348117 -0.809619 -0.472579
vn 0.000000 -1.000000 0.000000
vn -0.533225 0.813683 -0.231499
vn -0.225147 0.806142 -0.547214
vn 0.000000 1.000000 0.000000
vn -0.225147 0.806142 -0.547214
vn -0.463114 0.810202 0.359303
vn 0.000000 1.000000 0.000000
vn -0.463114 0.810202 0.359303
vn -0.576225 0.813993 -0.073343
vn 0.000000 1.000000 0.000000
vn -0.576225 0.813993 -0.073343
vn 0.071419 0.805869 0.587771
vn 0.000000 1.000000 0.000000
vn 0.071419 0.805869 0.587771
vn -0.348117 0.809619 0.472579
vn 0.000000 1.000000 0.000000
vn -0.348117 0.809619 0.472579
vn 0.533225 0.813683 0.231499
vn 0.000000 1.000000 0.000000
vn 0.533225 0.813683 0.231499
vn 0.225148 0.806142 0.547214
vn 0.000000 1.000000 0.000000
vn 0.225148 0.806142 0.547214
vn 0.463113 0.810202 -0.359303
vn 0.000000 1.000000 0.000000
vn 0.463113 0.810202 -0.359303
vn 0.576225 0.813994 0.073343
vn 0.000000 1.000000 0.000000
vn 0.576225 0.813994 0.073343
vn -0.071419 0.805869 -0.587770
vn 0.000000 1.000000 0.000000
vn -0.071419 0.805869 -0.587770
vn 0.348117 0.809619 -0.472579
vn 0.000000 1.000000 0.000000
vn 0.348117 0.809619 -0.472579
vn -0.533225 0.813683 -0.231499
vn 0.000000 1.000000 0.000000
vn -0.225147 -0.806142 -0.547214
vn -0.463114 -0.810202 0.359303
vn -0.289397 -0.657790 0.695386
vn 0.089527 -0.657728 -0.747917
vn -0.463114 -0.810202 0.359303
vn -0.463114 0.810202 0.359303
vn -0.289396 0.657790 0.695386
vn -0.289397 -0.657790 0.695386
vn -0.463114 0.810202 0.359303
vn -0.225147 0.806142 -0.547214
vn 0.089527 0.657727 -0.747917
vn -0.289396 0.657790 0.695386
vn -0.225147 0.806142 -0.547214
vn -0.225147 -0.806142 -0.547214
vn 0.089527 -0.657728 -0.747917
vn 0.089527 0.657727 -0.747917
vn -0.576225 -0.813994 -0.073343
vn 0.071419 -0.805869 0.587770
vn 0.433747 -0.653626 0.620191
vn -0.611283 -0.653785 -0.445980
vn 0.071419 -0.805869 0.587770
vn 0.071419 0.805869 0.587771
vn 0.433747 0.653626 0.620191
vn 0.433747 -0.653626 0.620191
vn 0.071419 0.805869 0.587771
vn -0.576225 0.813993 -0.073343
vn -0.611283 0.653785 -0.445980
vn 0.433747 0.653626 0.620191
vn -0.576225 0.813993 -0.073343
vn -0.576225 -0.813994 -0.073343
vn -0.611283 -0.653785 -0.445980
vn -0.611283 0.653785 -0.445980
vn -0.348117 -0.809619 0.472579
vn 0.533225 -0.813683 0.231499
vn 0.732730 -0.670422 -0.116795
vn -0.690139 -0.670390 0.272554
vn 0.533225 -0.813683 0.231499
vn 0.533225 0.813683 0.231499
vn 0.732730 0.670422 -0.116795
vn 0.732730 -0.670422 -0.116795
vn 0.533225 0.813683 0.231499
vn -0.348117 0.809619 0.472579
vn -0.690139 0.670390 0.272554
vn 0.732730 0.670422 -0.116795
vn -0.348117 0.809619 0.472579
vn -0.348117 -0.809619 0.472579
vn -0.690139 -0.670390 0.272554
vn -0.690139 0.670390 0.272554
vn 0.225148 -0.806142 0.547214
vn 0.463113 -0.810202 -0.359303
vn 0.242843 -0.670425 -0.701112
vn -0.132432 -0.670521 0.729975
vn 0.463113 -0.810202 -0.359303
vn 0.463113 0.810202 -0.359303
vn 0.242843 0.670425 -0.701112
vn 0.242843 -0.670425 -0.701112
vn 0.463113 0.810202 -0.359303
vn 0.225148 0.806142 0.547214
vn -0.132432 0.670521 0.729975
vn 0.242843 0.670425 -0.701112
vn 0.225148 0.806142 0.547214
vn 0.225148 -0.806142 0.547214
vn -0.132432 -0.670521 0.729975
vn -0.132432 0.670521 0.729975
vn 0.576225 -0.813993 0.073343
vn -0.071419 -0.805869 -0.587770
vn -0.450559 -0.662651 -0.598240
vn 0.588757 -0.662777 0.462700
vn -0.071419 -0.805869 -0.587770
vn -0.071419 0.805869 -0.587770
vn -0.450559 0.662651 -0.598240
vn -0.450559 -0.662651 -0.598240
vn -0.071419 0.805869 -0.587770
vn 0.576225 0.813994 0.073343
vn 0.588757 0.662777 0.462700
vn -0.450559 0.662651 -0.598240
vn 0.576225 0.813994 0.073343
vn 0.576225 -0.813993 0.073343
vn 0.588757 -0.662777 0.462700
vn 0.588757 0.662777 0.462700
vn 0.348117 -0.809619 -0.472579
vn -0.533225 -0.813683 -0.231499
vn -0.736875 -0.667463 0.107273
vn 0.688920 -0.667401 -0.282783
vn -0.533225 -0.813683 -0.231499
vn -0.533225 0.813683 -0.231499
vn -0.736875 0.667464 0.107273
vn -0.736875 -0.667463 0.107273
vn -0.533225 0.813683 -0.231499
vn 0.348117 0.809619 -0.472579
vn 0.688919 0.667401 -0.282783
vn -0.736875 0.667464 0.107273
vn 0.348117 0.809619 -0.472579
vn 0.348117 -0.809619 -0.472579
vn 0.688920 -0.667401 -0.282783
vn 0.688919 0.667401 -0.282783
vn 0.089527 -0.657728 -0.747917
vn -0.289397 -0.657790 0.695386
vn -0.921255 -0.372002 0.113593
vn -0.736524 -0.372142 -0.564839
vn -0.289397 -0.657790 0.695386
vn -0.289396 0.657790 0.695386
vn -0.921255 0.372002 0.113593
vn -0.921255 -0.372002 0.113593
vn -0.289396 0.657790 0.695386
vn 0.089527 0.657727 -0.747917
vn -0.736524 0.372142 -0.564839
vn -0.921255 0.372002 0.113593
vn 0.089527 0.657727 -0.747917
vn 0.089527 -0.657728 -0.747917
vn -0.736524 -0.372142 -0.564839
vn -0.736524 0.372142 -0.564839
vn -0.611283 -0.653785 -0.445980
vn 0.433747 -0.653626 0.620191
vn -0.354732 -0.375994 0.856034
vn -0.850295 -0.376334 0.367928
vn 0.433747 -0.653626 0.620191
vn 0.433747 0.653626 0.620191
vn -0.354732 0.375994 0.856034
vn -0.354732 -0.375994 0.856034
vn 0.433747 0.653626 0.620191
vn -0.611283 0.653785 -0.445980
vn -0.850295 0.376334 0.367928
vn -0.354732 0.375994 0.856034
vn -0.611283 0.653785 -0.445980
vn -0.611283 -0.653785 -0.445980
vn -0.850295 -0.376334 0.367928
vn -0.850295 0.376334 0.367928
vn -0.690139 -0.670390 0.272554
vn 0.732730 -0.670422 -0.116795
vn 0.546109 -0.359006 0.756888
vn -0.102124 -0.359571 0.927513
vn 0.732730 -0.670422 -0.116795
vn 0.732730 0.670422 -0.116795
vn 0.546109 0.359006 0.756888
vn 0.546109 -0.359006 0.756888
vn 0.732730 0.670422 -0.116795
vn -0.690139 0.670390 0.272554
vn -0.102124 0.359571 0.927513
vn 0.546109 0.359006 0.756888
vn -0.690139 0.670390 0.272554
vn -0.690139 -0.670390 0.272554
vn -0.102124 -0.359571 0.927513
vn -0.102124 0.359571 0.927513
vn -0.132432 -0.670521 0.729975
vn 0.242843 -0.670425 -0.701112
vn 0.929923 -0.353680 -0.100769
vn 0.749924 -0.354574 0.558473
vn 0.242843 -0.670425 -0.701112
vn 0.242843 0.670425 -0.701112
vn 0.929923 0.353680 -0.100769
vn 0.929923 -0.353680 -0.100769
vn 0.242843 0.670425 -0.701112
vn -0.132432 0.670521 0.729975
vn 0.749924 0.354574 0.558473
vn 0.929923 0.353680 -0.100769
vn -0.132432 0.670521 0.729975
vn -0.132432 -0.670521 0.729975
vn 0.749924 -0.354574 0.558473
vn 0.749924 0.354574 0.558473
vn 0.588757 -0.662777 0.462700
vn -0.450559 -0.662651 -0.598240
vn 0.360598 -0.367812 -0.857137
vn 0.851430 -0.367260 -0.374416
vn -0.450559 -0.662651 -0.598240
vn -0.450559 0.662651 -0.598240
vn 0.360598 0.367812 -0.857137
vn 0.360598 -0.367812 -0.857137
vn -0.450559 0.662651 -0.598240
vn 0.588757 0.662777 0.462700
vn 0.851430 0.367260 -0.374416
vn 0.360598 0.367812 -0.857137
vn 0.588757 0.662777 0.462700
vn 0.588757 -0.662777 0.462700
vn 0.851430 -0.367260 -0.374416
vn 0.851430 0.367260 -0.374416
vn 0.688920 -0.667401 -0.282783
vn -0.736875 -0.667463 0.107273
vn -0.547415 -0.362989 -0.754040
vn 0.104554 -0.363387 -0.925753
vn -0.736875 -0.667463 0.107273
vn -0.736875 0.667464 0.107273
vn -0.547415 0.362989 -0.754040
vn -0.547415 -0.362989 -0.754040
vn -0.736875 0.667464 0.107273
vn 0.688919 0.667401 -0.282783
vn 0.104554 0.363387 -0.925753
vn -0.547415 0.362989 -0.754040
vn 0.688919 0.667401 -0.282783
vn 0.688920 -0.667401 -0.282783
vn 0.104554 -0.363387 -0.925753
vn 0.104554 0.363387 -0.925753
vn -0.697790 0.333981 -0.633677
vn -0.707795 0.597035 -0.377592
vn 0.000000 0.845159 -0.534516
vn 0.000000 0.466257 -0.884649
vn -0.707795 0.597035 -0.377592
vn -0.712893 0.701273 0.000000
vn 0.000000 1.000000 0.000000
vn 0.000000 0.845159 -0.534516
vn -0.712893 0.701273 0.000000
vn -0.707796 0.597034 0.377591
vn 0.000000 0.845159 0.534516
vn 0.000000 1.000000 0.000000
vn -0.707796 0.597034 0.377591
vn -0.697790 0.333982 0.633676
vn 0.000000 0.466258 0.884649
vn 0.000000 0.845159 0.534516
vn -0.697790 0.333982 0.633676
vn -0.904836 0.011333 0.425609
vn 0.000000 0.026619 0.999646
vn 0.000000 0.466258 0.884649
vn -0.904836 0.011333 -0.425610
vn -0.697790 0.333981 -0.633677
vn 0.000000 0.466257 -0.884649
vn 0.000000 0.026619 -0.999646
vn -0.707795 0.597035 -0.377592
vn -0.697790 0.333981 -0.633677
vn -1.000000 0.000000 0.000000
vn -0.712893 0.701273 0.000000
vn -0.707795 0.597035 -0.377592
vn -1.000000 0.000000 0.000000
vn -0.707796 0.597034 0.377591
vn -0.712893 0.701273 0.000000
vn -1.000000 0.000000 0.000000
vn -0.697790 0.333982 0.633676
vn -0.707796 0.597034 0.377591
vn -1.000000 0.000000 0.000000
vn -0.904836 0.011333 0.425609
vn -0.697790 0.333982 0.633676
vn -1.000000 0.000000 0.000000
vn -0.697790 0.333981 -0.633677
vn -0.904836 0.011333 -0.425610
vn -1.000000 0.000000 0.000000
vn 0.591809 0.375840 -0.713096
vn 0.602619 0.674461 -0.426559
vn 1.000000 0.000000 0.000000
vn 0.602619 0.674461 -0.426559
vn 0.608174 0.793804 0.000000
vn 1.000000 0.000000 0.000000
vn 0.608174 0.793804 0.000000
vn 0.602619 0.674461 0.426559
vn 1.000000 0.000000 0.000000
vn 0.602619 0.674461 0.426559
vn 0.591810 0.375840 0.713096
vn 1.000000 0.000000 0.000000
vn 0.591810 0.375840 0.713096
vn 0.848252 0.014097 0.529406
vn 1.000000 0.000000 0.000000
vn 0.848251 0.014097 -0.529406
vn 0.591809 0.375840 -0.713096
vn 1.000000 0.000000 0.000000
vn 0.000000 0.000000 1.000000
vn 0.000000 0.026619 0.999646
vn -0.904836 0.011333 0.425609
vn -0.915025 0.000000 0.403397
vn -0.904836 0.011333 -0.425610
vn 0.000000 0.026619 -0.999646
vn 0.000000 0.000000 -1.000000
vn -0.915025 0.000000 -0.403397
vn -0.904836 0.011333 0.425609
vn -1.000000 0.000000 0.000000
vn -1.000000 0.000000 0.000000
vn -0.915025 0.000000 0.403397
vn -1.000000 0.000000 0.000000
vn -0.904836 0.011333 -0.425610
vn -0.915025 0.000000 -0.403397
vn -1.000000 0.000000 0.000000
vn 1.000000 0.000000 0.000000
vn 0.848252 0.014097 0.529406
vn 0.863169 0.000000 0.504915
vn 1.000000 0.000000 0.000000
vn 0.848251 0.014097 -0.529406
vn 1.000000 0.000000 0.000000
vn 1.000000 0.000000 0.000000
vn 0.863169 0.000000 -0.504915
vn 0.000000 -0.992588 0.121526
vn 0.000000 0.000000 1.000000
vn -0.915025 0.000000 0.403397
vn -0.265746 -0.956898 0.117156
vn -0.915025 0.000000 -0.403397
vn 0.000000 0.000000 -1.000000
vn 0.000000 -0.992575 -0.121633
vn -0.265963 -0.956826 -0.117252
vn -0.915025 0.000000 0.403397
vn -1.000000 0.000000 0.000000
vn -0.267699 -0.963503 0.000000
vn -0.265746 -0.956898 0.117156
vn -1.000000 0.000000 0.000000
vn -0.915025 0.000000 -0.403397
vn -0.265963 -0.956826 -0.117252
vn -0.267699 -0.963503 0.000000
vn 1.000000 0.000000 0.000000
vn 0.863169 0.000000 0.504915
vn 0.203409 -0.971837 0.118985
vn 0.204952 -0.978772 0.000000
vn 0.863169 0.000000 -0.504915
vn 1.000000 0.000000 0.000000
vn 0.204952 -0.978772 0.000000
vn 0.203581 -0.971789 -0.119086
vn 0.000000 -0.992575 -0.121633
vn 0.000000 -1.000000 0.000000
vn -0.267699 -0.963503 0.000000
vn -0.265963 -0.956826 -0.117252
vn 0.000000 -1.000000 0.000000
vn 0.000000 -0.992588 0.121526
vn -0.265746 -0.956898 0.117156
vn -0.267699 -0.963503 0.000000
vn 0.000000 0.026619 -0.999646
vn 0.000000 0.466257 -0.884649
vn 0.591809 0.375840 -0.713096
vn 0.848251 0.014097 -0.529406
vn 0.000000 0.000000 -1.000000
vn 0.000000 0.026619 -0.999646
vn 0.848251 0.014097 -0.529406
vn 0.863169 0.000000 -0.504915
vn 0.000000 -0.992575 -0.121633
vn 0.000000 0.000000 -1.000000
vn 0.863169 0.000000 -0.504915
vn 0.203581 -0.971789 -0.119086
vn 0.204952 -0.978772 0.000000
vn 0.000000 -1.000000 0.000000
vn 0.000000 -0.992575 -0.121633
vn 0.203581 -0.971789 -0.119086
vn 0.203409 -0.971837 0.118985
vn 0.000000 -0.992588 0.121526
vn 0.000000 -1.000000 0.000000
vn 0.204952 -0.978772 0.000000
vn 0.863169 0.000000 0.504915
vn 0.000000 0.000000 1.000000
vn 0.000000 -0.992588 0.121526
vn 0.203409 -0.971837 0.118985
vn 0.848252 0.014097 0.529406
vn 0.000000 0.026619 0.999646
vn 0.000000 0.000000 1.000000
vn 0.863169 0.000000 0.504915
vn 0.000000 0.466258 0.884649
vn 0.000000 0.026619 0.999646
vn 0.848252 0.014097 0.529406
vn 0.591810 0.375840 0.713096
vn 0.000000 0.845159 0.534516
vn 0.000000 0.466258 0.884649
vn 0.591810 0.375840 0.713096
vn 0.602619 0.674461 0.426559
vn 0.000000 1.000000 0.000000
vn 0.000000 0.845159 0.534516
vn 0.602619 0.674461 0.426559
vn 0.608174 0.793804 0.000000
vn 0.000000 0.845159 -0.534516
vn 0.000000 1.000000 0.000000
vn 0.608174 0.793804 0.000000
vn 0.602619 0.674461 -0.426559
vn 0.000000 0.466257 -0.884649
vn 0.000000 0.845159 -0.534516
vn 0.602619 0.674461 -0.426559
vn 0.591809 0.375840 -0.713096
vn -0.299329 -0.797421 -0.523948
vn -0.547740 -0.799728 -0.245797
vn -0.547740 0.799728 -0.245797
vn -0.299329 0.797421 -0.523948
vn -0.547740 -0.799728 -0.245797
vn -0.585114 -0.800181 0.131726
vn -0.585114 0.800181 0.131726
vn -0.547740 0.799728 -0.245797
vn -0.585114 -0.800181 0.131726
vn -0.394414 -0.798154 0.455398
vn -0.394414 0.798154 0.455398
vn -0.585114 0.800181 0.131726
vn -0.394414 -0.798154 0.455398
vn -0.057772 -0.796449 0.601939
vn -0.057772 0.796449 0.601939
vn -0.394414 0.798154 0.455398
vn -0.057772 -0.796449 0.601939
vn 0.299329 -0.797421 0.523948
vn 0.299329 0.797421 0.523948
vn -0.057772 0.796449 0.601939
vn 0.299329 -0.797421 0.523948
vn 0.547740 -0.799728 0.245797
vn 0.547740 0.799728 0.245797
vn 0.299329 0.797421 0.523948
vn 0.547740 -0.799728 0.245797
vn 0.585114 -0.800181 -0.131726
vn 0.585114 0.800181 -0.131726
vn 0.547740 0.799728 0.245797
vn 0.585114 -0.800181 -0.131726
vn 0.394414 -0.798154 -0.455398
vn 0.394414 0.798154 -0.455398
vn 0.585114 0.800181 -0.131726
vn 0.394414 -0.798154 -0.455398
vn 0.057773 -0.796449 -0.601940
vn 0.057773 0.796449 -0.601939
vn 0.394414 0.798154 -0.455398
vn 0.057773 -0.796449 -0.601940
vn -0.299329 -0.797421 -0.523948
vn -0.299329 0.797421 -0.523948
vn 0.057773 0.796449 -0.601939
vn -0.547740 -0.799728 -0.245797
vn -0.299329 -0.797421 -0.523948
vn 0.000000 -1.000000 0.000000
vn -0.585114 -0.800181 0.131726
vn -0.547740 -0.799728 -0.245797
vn 0.000000 -1.000000 0.000000
vn -0.394414 -0.798154 0.455398
vn -0.585114 -0.800181 0.131726
vn 0.000000 -1.000000 0.000000
vn -0.057772 -0.796449 0.601939
vn -0.394414 -0.798154 0.455398
vn 0.000000 -1.000000 0.000000
vn 0.547740 -0.799728 0.245797
vn 0.299329 -0.797421 0.523948
vn 0.000000 -1.000000 0.000000
vn 0.585114 -0.800181 -0.131726
vn 0.547740 -0.799728 0.245797
vn 0.000000 -1.000000 0.000000
vn 0.394414 -0.798154 -0.455398
vn 0.585114 -0.800181 -0.131726
vn 0.000000 -1.000000 0.000000
vn 0.057773 -0.796449 -0.601940
vn 0.394414 -0.798154 -0.455398
vn 0.000000 -1.000000 0.000000
vn -0.299329 -0.797421 -0.523948
vn 0.057773 -0.796449 -0.601940
vn 0.000000 -1.000000 0.000000
vn -0.299329 0.797421 -0.523948
vn -0.547740 0.799728 -0.245797
vn 0.000000 1.000000 0.000000
vn -0.547740 0.799728 -0.245797
vn -0.585114 0.800181 0.131726
vn 0.000000 1.000000 0.000000
vn -0.585114 0.800181 0.131726
vn -0.394414 0.798154 0.455398
vn 0.000000 1.000000 0.000000
vn -0.394414 0.798154 0.455398
vn -0.057772 0.796449 0.601939
vn 0.000000 1.000000 0.000000
vn 0.299329 0.797421 0.523948
vn 0.547740 0.799728 0.245797
vn 0.000000 1.000000 0.000000
vn 0.547740 0.799728 0.245797
vn 0.585114 0.800181 -0.131726
vn 0.000000 1.000000 0.000000
vn 0.585114 0.800181 -0.131726
vn 0.394414 0.798154 -0.455398
vn 0.000000 1.000000 0.000000
vn 0.394414 0.798154 -0.455398
vn 0.057773 0.796449 -0.601939
vn 0.000000 1.000000 0.000000
vn 0.057773 0.796449 -0.601939
vn -0.299329 0.797421 -0.523948
vn 0.000000 1.000000 0.000000
vn -0.057772 0.796449 0.601939
vn 0.299329 0.797421 0.523948
vn 0.000000 1.000000 0.000000
vn 0.299329 -0.797421 0.523948
vn -0.057772 -0.796449 0.601939
vn 0.000000 -1.000000 0.000000
vn -0.848786 -0.528736 0.000000
vn 0.848786 -0.528736 0.000000
vn 0.764348 -0.640144 0.077375
vn 0.079077 -0.678570 0.730267
vn -0.079077 -0.678570 0.730267
vn -0.764348 -0.640144 0.077375
vn 0.072718 -0.730007 -0.679560
vn 0.760284 -0.646151 -0.066760
vn 0.848786 -0.528736 0.000000
vn -0.848786 -0.528736 0.000000
vn -0.760284 -0.646151 -0.066760
vn -0.072718 -0.730007 -0.679560
vn -0.072718 -0.730007 -0.679560
vn -0.760284 -0.646151 -0.066760
vn -0.989668 0.047500 -0.135281
vn -0.099672 0.345628 -0.933063
vn -0.099672 0.345628 -0.933063
vn -0.989668 0.047500 -0.135281
vn -0.985232 0.143165 -0.093920
vn -0.100013 0.845033 -0.525277
vn -0.764348 -0.640144 0.077375
vn -0.079077 -0.678570 0.730267
vn -0.105920 0.000000 0.994375
vn -0.994653 0.000000 0.103270
vn -0.994653 0.000000 0.103270
vn -0.105920 0.000000 0.994375
vn -0.095726 0.597146 0.796400
vn -0.987316 0.090152 0.130690
vn 0.100013 0.845033 -0.525277
vn 0.985232 0.143166 -0.093920
vn 0.989668 0.047500 -0.135281
vn 0.099672 0.345628 -0.933063
vn 0.985232 0.143166 -0.093920
vn 0.100013 0.845033 -0.525277
vn 0.095726 0.597146 0.796400
vn 0.987316 0.090152 0.130690
vn 0.099672 0.345628 -0.933063
vn 0.989668 0.047500 -0.135281
vn 0.760284 -0.646151 -0.066760
vn 0.072718 -0.730007 -0.679560
vn 0.987316 0.090152 0.130690
vn 0.095726 0.597146 0.796400
vn 0.105920 0.000000 0.994375
vn 0.994653 0.000000 0.103270
vn 0.994653 0.000000 0.103270
vn 0.105920 0.000000 0.994375
vn 0.079077 -0.678570 0.730267
vn 0.764348 -0.640144 0.077375
vn -0.100013 0.845033 -0.525277
vn -0.985232 0.143165 -0.093920
vn -0.987316 0.090152 0.130690
vn -0.095726 0.597146 0.796400
vn -0.989668 0.047500 -0.135281
vn -0.760284 -0.646151 -0.066760
vn -0.848786 -0.528736 0.000000
vn -1.000000 0.000000 0.000000
vn 0.989668 0.047500 -0.135281
vn 1.000000 0.000000 0.000000
vn 0.848786 -0.528736 0.000000
vn 0.760284 -0.646151 -0.066760
vn -0.105920 0.000000 0.994375
vn -0.079077 -0.678570 0.730267
vn 0.079077 -0.678570 0.730267
vn 0.105920 0.000000 0.994375
vn 0.099672 0.345628 -0.933063
vn 0.072718 -0.730007 -0.679560
vn -0.072718 -0.730007 -0.679560
vn -0.099672 0.345628 -0.933063
vn -0.994653 0.000000 0.103270
vn -1.000000 0.000000 0.000000
vn -0.848786 -0.528736 0.000000
vn -0.764348 -0.640144 0.077375
vn 0.100013 0.845033 -0.525277
vn -0.100013 0.845033 -0.525277
vn -0.095726 0.597146 0.796400
vn 0.095726 0.597146 0.796400
vn 0.848786 -0.528736 0.000000
vn 1.000000 0.000000 0.000000
vn 0.994653 0.000000 0.103270
vn 0.764348 -0.640144 0.077375
vn 0.099672 0.345628 -0.933063
vn -0.099672 0.345628 -0.933063
vn -0.100013 0.845033 -0.525277
vn 0.100013 0.845033 -0.525277
vn 0.985232 0.143166 -0.093920
vn 1.000000 0.000000 0.000000
vn 0.989668 0.047500 -0.135281
vn 0.994653 0.000000 0.103270
vn 1.000000 0.000000 0.000000
vn 0.985232 0.143166 -0.093920
vn 0.987316 0.090152 0.130690
vn -0.105920 0.000000 0.994375
vn 0.105920 0.000000 0.994375
vn 0.095726 0.597146 0.796400
vn -0.095726 0.597146 0.796400
vn -0.985232 0.143165 -0.093920
vn -1.000000 0.000000 0.000000
vn -0.994653 0.000000 0.103270
vn -0.987316 0.090152 0.130690
vn -0.989668 0.047500 -0.135281
vn -1.000000 0.000000 0.000000
vn -0.985232 0.143165 -0.093920
vn -0.704777 0.330777 -0.627595
vn -0.714687 0.591141 -0.373864
vn 0.000000 0.845158 -0.534516
vn 0.000000 0.466258 -0.884649
vn -0.714687 0.591141 -0.373864
vn -0.719731 0.694253 0.000000
vn 0.000000 1.000000 0.000000
vn 0.000000 0.845158 -0.534516
vn -0.719731 0.694253 0.000000
vn -0.714687 0.591141 0.373864
vn 0.000000 0.845159 0.534516
vn 0.000000 1.000000 0.000000
vn -0.714687 0.591141 0.373864
vn -0.704778 0.330776 0.627595
vn 0.000000 0.466258 0.884649
vn 0.000000 0.845159 0.534516
vn -0.704778 0.330776 0.627595
vn -0.908007 0.011152 0.418807
vn 0.000000 0.026619 0.999646
vn 0.000000 0.466258 0.884649
vn -0.908006 0.011152 -0.418808
vn -0.704777 0.330777 -0.627595
vn 0.000000 0.466258 -0.884649
vn 0.000000 0.026619 -0.999646
vn -0.714687 0.591141 -0.373864
vn -0.704777 0.330777 -0.627595
vn -1.000000 0.000000 0.000000
vn -0.719731 0.694253 0.000000
vn -0.714687 0.591141 -0.373864
vn -1.000000 0.000000 0.000000
vn -0.714687 0.591141 0.373864
vn -0.719731 0.694253 0.000000
vn -1.000000 0.000000 0.000000
vn -0.704778 0.330776 0.627595
vn -0.714687 0.591141 0.373864
vn -1.000000 0.000000 0.000000
vn -0.908007 0.011152 0.418807
vn -0.704778 0.330776 0.627595
vn -1.000000 0.000000 0.000000
vn -0.704777 0.330777 -0.627595
vn -0.908006 0.011152 -0.418808
vn -1.000000 0.000000 0.000000
vn 0.599345 0.373235 -0.708153
vn 0.610137 0.669615 -0.423495
vn 1.000000 0.000000 0.000000
vn 0.610137 0.669615 -0.423495
vn 0.615679 0.787997 0.000000
vn 1.000000 0.000000 0.000000
vn 0.615679 0.787997 0.000000
vn 0.610137 0.669616 0.423494
vn 1.000000 0.000000 0.000000
vn 0.610137 0.669616 0.423494
vn 0.599345 0.373235 0.708153
vn 1.000000 0.000000 0.000000
vn 0.599345 0.373235 0.708153
vn 0.852864 0.013899 0.521949
vn 1.000000 0.000000 0.000000
vn 0.852863 0.013899 -0.521949
vn 0.599345 0.373235 -0.708153
vn 1.000000 0.000000 0.000000
vn 0.000000 0.000000 1.000000
vn 0.000000 0.026619 0.999646
vn -0.908007 0.011152 0.418807
vn -0.917902 0.000000 0.396808
vn -0.908006 0.011152 -0.418808
vn 0.000000 0.026619 -0.999646
vn 0.000000 0.000000 -1.000000
vn -0.917899 0.000000 -0.396815
vn -0.908007 0.011152 0.418807
vn -1.000000 0.000000 0.000000
vn -1.000000 0.000000 0.000000
vn -0.917902 0.000000 0.396808
vn -1.000000 0.000000 0.000000
vn -0.908006 0.011152 -0.418808
vn -0.917899 0.000000 -0.396815
vn -1.000000 0.000000 0.000000
vn 1.000000 0.000000 0.000000
vn 0.852864 0.013899 0.521949
vn 0.867432 0.000000 0.497556
vn 1.000000 0.000000 0.000000
vn 0.852863 0.013899 -0.521949
vn 1.000000 0.000000 0.000000
vn 1.000000 0.000000 0.000000
vn 0.867432 0.000000 -0.497556
vn 0.000000 -0.992593 0.121486
vn 0.000000 0.000000 1.000000
vn -0.917902 0.000000 0.396808
vn -0.270433 -0.955614 0.116908
vn -0.917899 0.000000 -0.396815
vn 0.000000 0.000000 -1.000000
vn 0.000000 -0.992570 -0.121673
vn -0.270844 -0.955465 -0.117177
vn -0.917902 0.000000 0.396808
vn -1.000000 0.000000 0.000000
vn -0.140209 -0.990122 0.000000
vn -0.270433 -0.955614 0.116908
vn -1.000000 0.000000 0.000000
vn -0.917899 0.000000 -0.396815
vn -0.270844 -0.955465 -0.117177
vn -0.141386 -0.989955 0.000000
vn 1.000000 0.000000 0.000000
vn 0.867432 0.000000 0.497556
vn 0.207266 -0.971034 0.118887
vn 0.208835 -0.977951 0.000000
vn 0.867432 0.000000 -0.497556
vn 1.000000 0.000000 0.000000
vn 0.208835 -0.977951 0.000000
vn 0.207440 -0.970984 -0.118987
vn 0.000000 -0.992570 -0.121673
vn 0.000000 -1.000000 0.000000
vn -0.141386 -0.989955 0.000000
vn -0.270844 -0.955465 -0.117177
vn 0.000000 -1.000000 0.000000
vn 0.000000 -0.992593 0.121486
vn -0.270433 -0.955614 0.116908
vn -0.140209 -0.990122 0.000000
vn -0.141386 -0.989955 0.000000
vn -1.000000 0.000000 0.000000
vn -0.141386 -0.989955 0.000000
vn -0.140209 -0.990122 0.000000
vn 0.000000 0.026619 -0.999646
vn 0.000000 0.466258 -0.884649
vn 0.599345 0.373235 -0.708153
vn 0.852863 0.013899 -0.521949
vn 0.000000 0.000000 -1.000000
vn 0.000000 0.026619 -0.999646
vn 0.852863 0.013899 -0.521949
vn 0.867432 0.000000 -0.497556
vn 0.000000 -0.992570 -0.121673
vn 0.000000 0.000000 -1.000000
vn 0.867432 0.000000 -0.497556
vn 0.207440 -0.970984 -0.118987
vn 0.208835 -0.977951 0.000000
vn 0.000000 -1.000000 0.000000
vn 0.000000 -0.992570 -0.121673
vn 0.207440 -0.970984 -0.118987
vn 0.207266 -0.971034 0.118887
vn 0.000000 -0.992593 0.121486
vn 0.000000 -1.000000 0.000000
vn 0.208835 -0.977951 0.000000
vn 0.867432 0.000000 0.497556
vn 0.000000 0.000000 1.000000
vn 0.000000 -0.992593 0.121486
vn 0.207266 -0.971034 0.118887
vn 0.852864 0.013899 0.521949
vn 0.000000 0.026619 0.999646
vn 0.000000 0.000000 1.000000
vn 0.867432 0.000000 0.497556
vn 0.000000 0.466258 0.884649
vn 0.000000 0.026619 0.999646
vn 0.852864 0.013899 0.521949
vn 0.599345 0.373235 0.708153
vn 0.000000 0.845159 0.534516
vn 0.000000 0.466258 0.884649
vn 0.599345 0.373235 0.708153
vn 0.610137 0.669616 0.423494
vn 0.000000 1.000000 0.000000
vn 0.000000 0.845159 0.534516
vn 0.610137 0.669616 0.423494
vn 0.615679 0.787997 0.000000
vn 0.000000 0.845158 -0.534516
vn 0.000000 1.000000 0.000000
vn 0.615679 0.787997 0.000000
vn 0.610137 0.669615 -0.423495
vn 0.000000 0.466258 -0.884649
vn 0.000000 0.845158 -0.534516
vn 0.610137 0.669615 -0.423495
vn 0.599345 0.373235 -0.708153
vn 0.848786 -0.528736 0.000000
vn -0.848786 -0.528736 0.000000
vn -0.764348 -0.640145 -0.077375
vn -0.079077 -0.678570 -0.730266
vn 0.079077 -0.678570 -0.730266
vn 0.764348 -0.640145 -0.077375
vn -0.072718 -0.730007 0.679561
vn -0.760284 -0.646151 0.066760
vn -0.848786 -0.528736 0.000000
vn 0.848786 -0.528736 0.000000
vn 0.760284 -0.646151 0.066760
vn 0.072718 -0.730007 0.679561
vn 0.072718 -0.730007 0.679561
vn 0.760284 -0.646151 0.066760
vn 0.989668 0.047500 0.135281
vn 0.099672 0.345628 0.933063
vn 0.099672 0.345628 0.933063
vn 0.989668 0.047500 0.135281
vn 0.985232 0.143165 0.093921
vn 0.100013 0.845034 0.525277
vn 0.764348 -0.640145 -0.077375
vn 0.079077 -0.678570 -0.730266
vn 0.105920 0.000000 -0.994375
vn 0.994653 0.000000 -0.103270
vn 0.994653 0.000000 -0.103270
vn 0.105920 0.000000 -0.994375
vn 0.095726 0.597146 -0.796400
vn 0.987316 0.090153 -0.130690
vn -0.100013 0.845034 0.525277
vn -0.985232 0.143165 0.093920
vn -0.989668 0.047500 0.135281
vn -0.099672 0.345628 0.933063
vn -0.985232 0.143165 0.093920
vn -0.100013 0.845034 0.525277
vn -0.095726 0.597146 -0.796400
vn -0.987316 0.090152 -0.130690
vn -0.099672 0.345628 0.933063
vn -0.989668 0.047500 0.135281
vn -0.760284 -0.646151 0.066760
vn -0.072718 -0.730007 0.679561
vn -0.987316 0.090152 -0.130690
vn -0.095726 0.597146 -0.796400
vn -0.105920 0.000000 -0.994375
vn -0.994653 0.000000 -0.103270
vn -0.994653 0.000000 -0.103270
vn -0.105920 0.000000 -0.994375
vn -0.079077 -0.678570 -0.730266
vn -0.764348 -0.640145 -0.077375
vn 0.100013 0.845034 0.525277
vn 0.985232 0.143165 0.093921
vn 0.987316 0.090153 -0.130690
vn 0.095726 0.597146 -0.796400
vn 0.989668 0.047500 0.135281
vn 0.760284 -0.646151 0.066760
vn 0.848786 -0.528736 0.000000
vn 1.000000 0.000000 0.000000
vn -0.989668 0.047500 0.135281
vn -1.000000 0.000000 0.000000
vn -0.848786 -0.528736 0.000000
vn -0.760284 -0.646151 0.066760
vn 0.105920 0.000000 -0.994375
vn 0.079077 -0.678570 -0.730266
vn -0.079077 -0.678570 -0.730266
vn -0.105920 0.000000 -0.994375
vn -0.099672 0.345628 0.933063
vn -0.072718 -0.730007 0.679561
vn 0.072718 -0.730007 0.679561
vn 0.099672 0.345628 0.933063
vn 0.994653 0.000000 -0.103270
vn 1.000000 0.000000 0.000000
vn 0.848786 -0.528736 0.000000
vn 0.764348 -0.640145 -0.077375
vn -0.100013 0.845034 0.525277
vn 0.100013 0.845034 0.525277
vn 0.095726 0.597146 -0.796400
vn -0.095726 0.597146 -0.796400
vn -0.848786 -0.528736 0.000000
vn -1.000000 0.000000 0.000000
vn -0.994653 0.000000 -0.103270
vn -0.764348 -0.640145 -0.077375
vn -0.099672 0.345628 0.933063
vn 0.099672 0.345628 0.933063
vn 0.100013 0.845034 0.525277
vn -0.100013 0.845034 0.525277
vn -0.985232 0.143165 0.093920
vn -1.000000 0.000000 0.000000
vn -0.989668 0.047500 0.135281
vn -0.994653 0.000000 -0.103270
vn -1.000000 0.000000 0.000000
vn -0.985232 0.143165 0.093920
vn -0.987316 0.090152 -0.130690
vn 0.105920 0.000000 -0.994375
vn -0.105920 0.000000 -0.994375
vn -0.095726 0.597146 -0.796400
vn 0.095726 0.597146 -0.796400
vn 0.985232 0.143165 0.093921
vn 1.000000 0.000000 0.000000
vn 0.994653 0.000000 -0.103270
vn 0.987316 0.090153 -0.130690
vn 0.989668 0.047500 0.135281
vn 1.000000 0.000000 0.000000
vn 0.985232 0.143165 0.093921
vn -0.848786 -0.528736 0.000000
vn 0.848786 -0.528736 0.000000
vn 0.764348 -0.640144 0.077375
vn 0.079077 -0.678570 0.730266
vn -0.079077 -0.678570 0.730266
vn -0.764348 -0.640144 0.077375
vn 0.072718 -0.730007 -0.679560
vn 0.760284 -0.646151 -0.066760
vn 0.848786 -0.528736 0.000000
vn -0.848786 -0.528736 0.000000
vn -0.760284 -0.646151 -0.066760
vn -0.072718 -0.730007 -0.679560
vn -0.072718 -0.730007 -0.679560
vn -0.760284 -0.646151 -0.066760
vn -0.989668 0.047500 -0.135281
vn -0.099672 0.345628 -0.933063
vn -0.099672 0.345628 -0.933063
vn -0.989668 0.047500 -0.135281
vn -0.985232 0.143165 -0.093921
vn -0.100013 0.845033 -0.525277
vn -0.764348 -0.640144 0.077375
vn -0.079077 -0.678570 0.730266
vn -0.105920 0.000000 0.994375
vn -0.994653 0.000000 0.103270
vn -0.994653 0.000000 0.103270
vn -0.105920 0.000000 0.994375
vn -0.095726 0.597146 0.796400
vn -0.987316 0.090153 0.130690
vn 0.100013 0.845033 -0.525277
vn 0.985232 0.143166 -0.093920
vn 0.989668 0.047500 -0.135281
vn 0.099672 0.345628 -0.933063
vn 0.985232 0.143166 -0.093920
vn 0.100013 0.845033 -0.525277
vn 0.095726 0.597146 0.796400
vn 0.987316 0.090152 0.130690
vn 0.099672 0.345628 -0.933063
vn 0.989668 0.047500 -0.135281
vn 0.760284 -0.646151 -0.066760
vn 0.072718 -0.730007 -0.679560
vn 0.987316 0.090152 0.130690
vn 0.095726 0.597146 0.796400
vn 0.105920 0.000000 0.994375
vn 0.994653 0.000000 0.103270
vn 0.994653 0.000000 0.103270
vn 0.105920 0.000000 0.994375
vn 0.079077 -0.678570 0.730266
vn 0.764348 -0.640144 0.077375
vn -0.100013 0.845033 -0.525277
vn -0.985232 0.143165 -0.093921
vn -0.987316 0.090153 0.130690
vn -0.095726 0.597146 0.796400
vn -0.989668 0.047500 -0.135281
vn -0.760284 -0.646151 -0.066760
vn -0.848786 -0.528736 0.000000
vn -1.000000 0.000000 0.000000
vn 0.989668 0.047500 -0.135281
vn 1.000000 0.000000 0.000000
vn 0.848786 -0.528736 0.000000
vn 0.760284 -0.646151 -0.066760
vn -0.105920 0.000000 0.994375
vn -0.079077 -0.678570 0.730266
vn 0.079077 -0.678570 0.730266
vn 0.105920 0.000000 0.994375
vn 0.099672 0.345628 -0.933063
vn 0.072718 -0.730007 -0.679560
vn -0.072718 -0.730007 -0.679560
vn -0.099672 0.345628 -0.933063
vn -0.994653 0.000000 0.103270
vn -1.000000 0.000000 0.000000
vn -0.848786 -0.528736 0.000000
vn -0.764348 -0.640144 0.077375
vn 0.100013 0.845033 -0.525277
vn -0.100013 0.845033 -0.525277
vn -0.095726 0.597146 0.796400
vn 0.095726 0.597146 0.796400
vn 0.848786 -0.528736 0.000000
vn 1.000000 0.000000 0.000000
vn 0.994653 0.000000 0.103270
vn 0.764348 -0.640144 0.077375
vn 0.099672 0.345628 -0.933063
vn -0.099672 0.345628 -0.933063
vn -0.100013 0.845033 -0.525277
vn 0.100013 0.845033 -0.525277
vn 0.985232 0.143166 -0.093920
vn 1.000000 0.000000 0.000000
vn 0.989668 0.047500 -0.135281
vn 0.994653 0.000000 0.103270
vn 1.000000 0.000000 0.000000
vn 0.985232 0.143166 -0.093920
vn 0.987316 0.090152 0.130690
vn -0.105920 0.000000 0.994375
vn 0.105920 0.000000 0.994375
vn 0.095726 0.597146 0.796400
vn -0.095726 0.597146 0.796400
vn -0.985232 0.143165 -0.093921
vn -1.000000 0.000000 0.000000
vn -0.994653 0.000000 0.103270
vn -0.987316 0.090153 0.130690
vn -0.989668 0.047500 -0.135281
vn -1.000000 0.000000 0.000000
vn -0.985232 0.143165 -0.093921
s off
g polySurface19
usemtl initialShadingGroup
f 1/1/1 2/2/2 3/3/3 4/4/4
f 5/5/5 1/6/6 6/7/7 7/8/8
f 2/9/9 5/5/10 8/10/11 9/11/12
f 10/12/13 6/13/14 11/14/15 12/15/16
f 7/8/17 10/16/18 13/17/19 14/18/20
f 9/19/21 15/20/22 16/21/23 17/22/24
f 15/23/25 8/10/26 14/18/27 18/24/28
f 18/25/29 13/26/30 19/27/31 20/28/32
f 17/29/33 21/30/34 22/31/35 3/32/36
f 21/30/37 16/33/38 20/34/39 23/35/40
f 23/35/41 19/36/42 12/37/43 24/38/44
f 4/39/45 22/31/46 24/38/47 11/40/48
f 5/5/49 7/8/50 14/18/51 8/10/52
f 15/20/53 18/25/54 20/28/55 16/21/56
f 21/30/57 23/35/58 24/38/59 22/31/60
f 4/4/61 11/14/62 6/13/63 1/1/64
f 10/12/65 12/15/66 19/27/67 13/26/68
f 3/3/69 2/2/70 9/41/71 17/42/72
f 1/6/73 5/5/74 2/9/75
f 10/16/76 7/8/77 6/7/78
f 9/11/79 8/10/80 15/23/81
f 18/24/82 14/18/83 13/17/84
f 17/29/85 16/33/86 21/30/87
f 23/35/88 20/34/89 19/36/90
f 3/32/91 22/31/92 4/39/93
f 11/40/94 24/38/95 12/37/96
f 25/43/97 26/44/98 27/45/99 28/46/100
f 29/47/101 25/48/102 30/49/103 31/50/104
f 26/51/105 29/47/106 32/52/107 33/53/108
f 34/54/109 30/55/110 35/56/111 36/57/112
f 31/50/113 34/58/114 37/59/115 38/60/116
f 33/61/117 39/62/118 40/63/119 41/64/120
f 39/65/121 32/52/122 38/60/123 42/66/124
f 42/67/125 37/68/126 43/69/127 44/70/128
f 41/71/129 45/72/130 46/73/131 27/74/132
f 45/72/133 40/75/134 44/76/135 47/77/136
f 47/77/137 43/78/138 36/79/139 48/80/140
f 28/81/141 46/73/142 48/80/143 35/82/144
f 29/47/145 31/50/146 38/60/147 32/52/148
f 39/62/149 42/67/150 44/70/151 40/63/152
f 45/72/153 47/77/154 48/80/155 46/73/156
f 27/45/157 26/44/158 33/61/159 41/64/160
f 25/48/161 29/47/162 26/51/163
f 34/58/164 31/50/165 30/49/166
f 33/53/167 32/52/168 39/65/169
f 42/66/170 38/60/171 37/59/172
f 41/71/173 40/75/174 45/72/175
f 47/77/176 44/76/177 43/78/178
f 27/74/179 46/73/180 28/81/181
f 35/82/182 48/80/183 36/79/184
f 43/69/185 37/68/186 34/54/187 36/57/188
f 35/83/189 30/84/190 25/43/191 28/46/192
f 49/85/193 50/86/194 51/87/195 52/88/196 53/89/197 54/90/198
f 55/91/199 56/92/200 50/86/201 49/85/202 57/93/203 58/94/204
f 58/94/205 57/93/206 59/95/207 60/96/208
f 60/96/209 59/95/210 61/97/211 62/98/212
f 54/90/213 53/89/214 63/99/215 64/100/216
f 64/100/217 63/99/218 65/101/219 66/102/220
f 67/103/221 68/104/222 69/105/223 70/106/224
f 68/104/225 67/103/226 71/107/227 72/108/228
f 70/106/229 69/105/230 56/92/231 55/91/232
f 72/108/233 71/107/234 73/109/235 74/110/236
f 74/110/237 73/109/238 52/88/239 51/87/240
f 62/98/241 61/97/242 66/102/243 65/101/244
f 59/95/245 57/93/246 49/85/247 75/111/248
f 69/105/249 76/112/250 50/86/251 56/92/252
f 63/113/253 53/89/254 52/88/255 73/109/256
f 70/106/257 55/91/258 58/94/259 60/114/260
f 64/100/261 75/111/262 49/85/263 54/90/264
f 67/103/265 62/115/266 65/116/267 71/107/268
f 50/86/269 76/112/270 74/110/271 51/87/272
f 70/106/273 60/114/274 62/115/275 67/103/276
f 68/104/277 76/112/278 69/105/279
f 74/110/280 76/112/281 68/104/282 72/108/283
f 63/113/284 73/109/285 71/107/286 65/116/287
f 61/97/288 75/111/289 64/100/290 66/102/291
f 59/95/292 75/111/293 61/97/294
f 77/117/295 78/118/296 79/119/297 80/120/298
f 81/121/299 82/122/300 83/123/301 84/124/302
f 85/125/303 86/126/304 87/127/305 88/128/306
f 89/129/307 90/130/308 91/131/309 92/132/310
f 93/133/311 94/134/312 95/135/313 96/136/314
f 97/137/315 98/138/316 99/139/317 100/140/318
f 101/141/319 102/142/320 103/143/321 104/144/322
f 105/145/323 106/146/324 107/147/325 108/148/326
f 109/149/327 110/150/328 111/151/329 112/152/330
f 113/153/331 114/154/332 115/155/333 116/156/334
f 117/157/335 118/158/336 119/159/337 120/160/338
f 121/161/339 122/162/340 123/163/341 124/164/342
f 78/165/343 77/166/344 125/167/345
f 85/168/346 78/165/347 125/167/348
f 86/169/349 85/168/350 125/167/351
f 93/170/352 86/169/353 125/167/354
f 94/171/355 93/170/356 125/167/357
f 101/172/358 94/171/359 125/167/360
f 102/173/361 101/172/362 125/167/363
f 109/174/364 102/173/365 125/167/366
f 110/175/367 109/174/368 125/167/369
f 117/176/370 110/175/371 125/167/372
f 118/177/373 117/176/374 125/167/375
f 77/166/376 118/177/377 125/167/378
f 80/120/379 79/119/380 126/178/381
f 79/119/382 88/128/383 126/178/384
f 88/128/385 87/127/386 126/178/387
f 87/127/388 96/136/389 126/178/390
f 96/136/391 95/135/392 126/178/393
f 95/135/394 104/144/395 126/178/396
f 104/144/397 103/143/398 126/178/399
f 103/143/400 112/152/401 126/178/402
f 112/152/403 111/151/404 126/178/405
f 111/151/406 120/160/407 126/178/408
f 120/160/409 119/159/410 126/178/411
f 119/159/412 80/120/413 126/178/414
f 78/165/415 85/168/416 127/179/417 128/180/418
f 85/125/419 88/128/420 129/181/421 127/182/422
f 88/128/423 79/119/424 130/183/425 129/181/426
f 79/119/427 78/118/428 128/184/429 130/183/430
f 86/169/431 93/170/432 131/185/433 132/186/434
f 93/133/435 96/136/436 133/187/437 131/188/438
f 96/136/439 87/127/440 134/189/441 133/187/442
f 87/127/443 86/126/444 132/190/445 134/189/446
f 94/171/447 101/172/448 135/191/449 136/192/450
f 101/141/451 104/144/452 137/193/453 135/194/454
f 104/144/455 95/135/456 138/195/457 137/193/458
f 95/135/459 94/134/460 136/196/461 138/195/462
f 102/173/463 109/174/464 139/197/465 140/198/466
f 109/149/467 112/152/468 141/199/469 139/200/470
f 112/152/471 103/143/472 142/201/473 141/199/474
f 103/143/475 102/142/476 140/202/477 142/201/478
f 110/175/479 117/176/480 143/203/481 144/204/482
f 117/157/483 120/160/484 145/205/485 143/206/486
f 120/160/487 111/151/488 146/207/489 145/205/490
f 111/151/491 110/150/492 144/208/493 146/207/494
f 118/177/495 77/166/496 147/209/497 148/210/498
f 77/117/499 80/120/500 149/211/501 147/212/502
f 80/120/503 119/159/504 150/213/505 149/211/506
f 119/159/507 118/158/508 148/214/509 150/213/510
f 128/180/511 127/179/512 82/215/513 81/216/514
f 127/182/515 129/181/516 83/123/517 82/122/518
f 129/181/519 130/183/520 84/124/521 83/123/522
f 130/183/523 128/184/524 81/121/525 84/124/526
f 132/186/527 131/185/528 90/217/529 89/218/530
f 131/188/531 133/187/532 91/131/533 90/130/534
f 133/187/535 134/189/536 92/132/537 91/131/538
f 134/189/539 132/190/540 89/129/541 92/132/542
f 136/192/543 135/191/544 98/219/545 97/220/546
f 135/194/547 137/193/548 99/139/549 98/138/550
f 137/193/551 138/195/552 100/140/553 99/139/554
f 138/195/555 136/196/556 97/137/557 100/140/558
f 140/198/559 139/197/560 106/221/561 105/222/562
f 139/200/563 141/199/564 107/147/565 106/146/566
f 141/199/567 142/201/568 108/148/569 107/147/570
f 142/201/571 140/202/572 105/145/573 108/148/574
f 144/204/575 143/203/576 114/223/577 113/224/578
f 143/206/579 145/205/580 115/155/581 114/154/582
f 145/205/583 146/207/584 116/156/585 115/155/586
f 146/207/587 144/208/588 113/153/589 116/156/590
f 148/210/591 147/209/592 122/225/593 121/226/594
f 147/212/595 149/211/596 123/163/597 122/162/598
f 149/211/599 150/213/600 124/164/601 123/163/602
f 150/213/603 148/214/604 121/161/605 124/164/606
f 151/227/607 152/228/608 153/229/609 154/230/610
f 152/228/611 155/231/612 156/232/613 153/229/614
f 155/231/615 157/233/616 158/234/617 156/232/618
f 157/233/619 159/235/620 160/236/621 158/234/622
f 159/235/623 161/237/624 162/238/625 160/236/626
f 163/239/627 151/227/628 154/230/629 164/240/630
f 152/241/631 151/242/632 165/243/633
f 155/244/634 152/241/635 165/243/636
f 157/245/637 155/244/638 165/243/639
f 159/246/640 157/245/641 165/243/642
f 161/247/643 159/246/644 165/243/645
f 151/242/646 163/248/647 165/243/648
f 166/249/649 167/250/650 168/251/651
f 167/250/652 169/252/653 168/251/654
f 169/252/655 170/253/656 168/251/657
f 170/253/658 171/254/659 168/251/660
f 171/254/661 172/255/662 168/251/663
f 173/256/664 166/249/665 168/251/666
f 174/257/667 162/238/668 161/237/669 175/258/670
f 163/239/671 164/240/672 176/259/673 177/260/674
f 161/247/675 165/243/676 178/261/677 175/262/678
f 165/243/679 163/248/680 177/263/681 178/261/682
f 168/251/683 172/255/684 179/264/685 180/265/686
f 173/256/687 168/251/688 180/265/689 181/266/690
f 182/267/691 174/257/692 175/258/693 183/268/694
f 177/260/695 176/259/696 184/269/697 185/270/698
f 175/262/699 178/261/700 186/271/701 183/272/702
f 178/261/703 177/263/704 185/273/705 186/271/706
f 180/265/707 179/264/708 187/274/709 188/275/710
f 181/266/711 180/265/712 188/275/713 189/276/714
f 184/269/715 190/277/716 186/278/717 185/270/718
f 190/277/719 182/267/720 183/268/721 186/278/722
f 164/240/723 154/230/724 166/249/725 173/256/726
f 176/259/727 164/240/728 173/256/729 181/266/730
f 184/269/731 176/259/732 181/266/733 189/276/734
f 188/275/735 190/277/736 184/269/737 189/276/738
f 187/274/739 182/267/740 190/277/741 188/275/742
f 179/264/743 174/257/744 182/267/745 187/274/746
f 172/255/747 162/238/748 174/257/749 179/264/750
f 160/236/751 162/238/752 172/255/753 171/254/754
f 158/234/755 160/236/756 171/254/757 170/253/758
f 156/232/759 158/234/760 170/253/761 169/252/762
f 153/229/763 156/232/764 169/252/765 167/250/766
f 154/230/767 153/229/768 167/250/769 166/249/770
f 191/279/771 192/280/772 193/281/773 194/282/774
f 192/280/775 195/283/776 196/284/777 193/281/778
f 195/283/779 197/285/780 198/286/781 196/284/782
f 197/285/783 199/287/784 200/288/785 198/286/786
f 199/287/787 201/289/788 202/290/789 200/288/790
f 201/289/791 203/291/792 204/292/793 202/290/794
f 203/291/795 205/293/796 206/294/797 204/292/798
f 205/293/799 207/295/800 208/296/801 206/294/802
f 207/295/803 209/297/804 210/298/805 208/296/806
f 209/297/807 191/279/808 194/282/809 210/298/810
f 192/299/811 191/300/812 211/301/813
f 195/302/814 192/299/815 211/301/816
f 197/303/817 195/302/818 211/301/819
f 199/304/820 197/303/821 211/301/822
f 203/305/823 201/306/824 211/301/825
f 205/307/826 203/305/827 211/301/828
f 207/308/829 205/307/830 211/301/831
f 209/309/832 207/308/833 211/301/834
f 191/300/835 209/309/836 211/301/837
f 194/282/838 193/281/839 212/310/840
f 193/281/841 196/284/842 212/310/843
f 196/284/844 198/286/845 212/310/846
f 198/286/847 200/288/848 212/310/849
f 202/290/850 204/292/851 212/310/852
f 204/292/853 206/294/854 212/310/855
f 206/294/856 208/296/857 212/310/858
f 208/296/859 210/298/860 212/310/861
f 210/298/862 194/282/863 212/310/864
f 200/288/865 202/290/866 212/310/867
f 201/306/868 199/304/869 211/301/870
f 213/311/871 214/312/872 215/313/873 216/314/874 217/315/875 218/316/876
f 219/317/877 220/318/878 214/312/879 213/311/880 221/319/881 222/320/882
f 222/320/883 221/319/884 223/321/885 224/322/886
f 224/322/887 223/321/888 225/323/889 226/324/890
f 218/316/891 217/315/892 227/325/893 228/326/894
f 228/326/895 227/325/896 229/327/897 230/328/898
f 231/329/899 232/330/900 233/331/901 234/332/902
f 232/330/903 231/329/904 235/333/905 236/334/906
f 234/332/907 233/331/908 220/318/909 219/317/910
f 236/334/911 235/333/912 237/335/913 238/336/914
f 238/336/915 237/335/916 216/314/917 215/313/918
f 226/324/919 225/323/920 230/328/921 229/327/922
f 223/321/923 221/319/924 213/311/925 239/337/926
f 233/331/927 240/338/928 214/312/929 220/318/930
f 227/339/931 217/315/932 216/314/933 237/335/934
f 234/332/935 219/317/936 222/320/937 224/340/938
f 228/326/939 239/337/940 213/311/941 218/316/942
f 231/329/943 226/341/944 229/342/945 235/333/946
f 214/312/947 240/338/948 238/336/949 215/313/950
f 234/332/951 224/340/952 226/341/953 231/329/954
f 232/330/955 240/338/956 233/331/957
f 238/336/958 240/338/959 232/330/960 236/334/961
f 227/339/962 237/335/963 235/333/964 229/342/965
f 225/323/966 239/337/967 228/326/968 230/328/969
f 223/321/970 239/337/971 225/323/972
f 241/343/973 242/344/974 243/345/975 244/346/976
f 242/344/977 245/347/978 246/348/979 243/345/980
f 245/347/981 247/349/982 248/350/983 246/348/984
f 247/349/985 249/351/986 250/352/987 248/350/988
f 249/351/989 251/353/990 252/354/991 250/352/992
f 253/355/993 241/343/994 244/346/995 254/356/996
f 242/344/997 241/343/998 255/357/999
f 245/347/1000 242/344/1001 255/357/1002
f 247/349/1003 245/347/1004 255/357/1005
f 249/351/1006 247/349/1007 255/357/1008
f 251/353/1009 249/351/1010 255/357/1011
f 241/343/1012 253/355/1013 255/357/1014
f 256/358/1015 257/359/1016 258/360/1017
f 257/359/1018 259/361/1019 258/360/1020
f 259/361/1021 260/362/1022 258/360/1023
f 260/362/1024 261/363/1025 258/360/1026
f 261/363/1027 262/364/1028 258/360/1029
f 263/365/1030 256/358/1031 258/360/1032
f 264/366/1033 252/354/1034 251/353/1035 265/367/1036
f 253/355/1037 254/356/1038 266/368/1039 267/369/1040
f 251/353/1041 255/357/1042 268/370/1043 265/367/1044
f 255/357/1045 253/355/1046 267/369/1047 268/370/1048
f 258/360/1049 262/364/1050 269/371/1051 270/372/1052
f 263/365/1053 258/360/1054 270/372/1055 271/373/1056
f 272/374/1057 264/366/1058 265/367/1059 273/375/1060
f 267/369/1061 266/368/1062 274/376/1063 275/377/1064
f 265/367/1065 268/370/1066 276/378/1067 273/375/1068
f 268/370/1069 267/369/1070 275/377/1071 277/379/1072
f 270/372/1073 269/371/1074 278/380/1075 279/381/1076
f 271/373/1077 270/372/1078 279/381/1079 280/382/1080
f 274/376/1081 281/383/1082 277/379/1083 275/377/1084
f 281/383/1085 272/374/1086 273/375/1087 276/378/1088 277/379/1089
f 268/370/1090 277/379/1091 276/378/1092
f 254/356/1093 244/346/1094 256/384/1095 263/385/1096
f 266/368/1097 254/356/1098 263/385/1099 271/386/1100
f 274/376/1101 266/368/1102 271/386/1103 280/387/1104
f 279/388/1105 281/383/1106 274/376/1107 280/387/1108
f 278/389/1109 272/374/1110 281/383/1111 279/388/1112
f 269/390/1113 264/366/1114 272/374/1115 278/389/1116
f 262/391/1117 252/354/1118 264/366/1119 269/390/1120
f 250/352/1121 252/354/1122 262/391/1123 261/392/1124
f 248/350/1125 250/352/1126 261/392/1127 260/393/1128
f 246/348/1129 248/350/1130 260/393/1131 259/394/1132
f 243/345/1133 246/348/1134 259/394/1135 257/395/1136
f 244/346/1137 243/345/1138 257/395/1139 256/384/1140
f 282/396/1141 283/397/1142 284/398/1143 285/399/1144 286/400/1145 287/401/1146
f 288/402/1147 289/403/1148 283/397/1149 282/396/1150 290/404/1151 291/405/1152
f 291/405/1153 290/404/1154 292/406/1155 293/407/1156
f 293/407/1157 292/406/1158 294/408/1159 295/409/1160
f 287/401/1161 286/400/1162 296/410/1163 297/411/1164
f 297/411/1165 296/410/1166 298/412/1167 299/413/1168
f 300/414/1169 301/415/1170 302/416/1171 303/417/1172
f 301/415/1173 300/414/1174 304/418/1175 305/419/1176
f 303/417/1177 302/416/1178 289/403/1179 288/402/1180
f 305/419/1181 304/418/1182 306/420/1183 307/421/1184
f 307/421/1185 306/420/1186 285/399/1187 284/398/1188
f 295/409/1189 294/408/1190 299/413/1191 298/412/1192
f 292/406/1193 290/404/1194 282/396/1195 308/422/1196
f 302/416/1197 309/423/1198 283/397/1199 289/403/1200
f 296/410/1201 286/400/1202 285/399/1203 306/424/1204
f 303/425/1205 288/402/1206 291/405/1207 293/407/1208
f 297/411/1209 308/422/1210 282/396/1211 287/401/1212
f 300/426/1213 295/409/1214 298/412/1215 304/427/1216
f 283/397/1217 309/423/1218 307/421/1219 284/398/1220
f 303/425/1221 293/407/1222 295/409/1223 300/426/1224
f 301/415/1225 309/423/1226 302/416/1227
f 307/421/1228 309/423/1229 301/415/1230 305/419/1231
f 296/410/1232 306/424/1233 304/427/1234 298/412/1235
f 294/408/1236 308/422/1237 297/411/1238 299/413/1239
f 292/406/1240 308/422/1241 294/408/1242
f 310/428/1243 311/429/1244 312/430/1245 313/431/1246 314/432/1247 315/433/1248
f 316/434/1249 317/435/1250 311/429/1251 310/428/1252 318/436/1253 319/437/1254
f 319/437/1255 318/436/1256 320/438/1257 321/439/1258
f 321/439/1259 320/438/1260 322/440/1261 323/441/1262
f 315/433/1263 314/432/1264 324/442/1265 325/443/1266
f 325/443/1267 324/442/1268 326/444/1269 327/445/1270
f 328/446/1271 329/447/1272 330/448/1273 331/449/1274
f 329/447/1275 328/446/1276 332/450/1277 333/451/1278
f 331/449/1279 330/448/1280 317/435/1281 316/434/1282
f 333/451/1283 332/450/1284 334/452/1285 335/453/1286
f 335/453/1287 334/452/1288 313/431/1289 312/430/1290
f 323/441/1291 322/440/1292 327/445/1293 326/444/1294
f 320/438/1295 318/436/1296 310/428/1297 336/454/1298
f 330/448/1299 337/455/1300 311/429/1301 317/435/1302
f 324/442/1303 314/432/1304 313/431/1305 334/456/1306
f 331/457/1307 316/434/1308 319/437/1309 321/439/1310
f 325/443/1311 336/454/1312 310/428/1313 315/433/1314
f 328/458/1315 323/441/1316 326/444/1317 332/459/1318
f 311/429/1319 337/455/1320 335/453/1321 312/430/1322
f 331/457/1323 321/439/1324 323/441/1325 328/458/1326
f 329/447/1327 337/455/1328 330/448/1329
f 335/453/1330 337/455/1331 329/447/1332 333/451/1333
f 324/442/1334 334/456/1335 332/459/1336 326/444/1337
f 322/440/1338 336/454/1339 325/443/1340 327/445/1341
f 320/438/1342 336/454/1343 322/440/1344
