# This file uses centimeters as units for non-parametric coordinates.

mtllib Ballista_Topelement_low.mtl
g default
v -0.046883 1.041698 -0.828889
v -0.041617 1.041698 -0.982491
v 0.116025 1.041698 -0.828889
v -0.039629 1.178603 -0.982491
v 0.025748 1.130403 -0.389539
v 0.025748 1.088676 -0.389539
v 0.056403 1.136291 -0.508497
v 0.056403 1.082788 -0.508497
v 0.173017 1.175817 -0.706984
v 0.173017 1.043261 -0.706984
v 0.039649 1.175056 -0.729686
v 0.039649 1.044023 -0.729686
v 0.041616 1.176092 -0.753758
v 0.041616 1.042239 -0.753758
v 0.116025 1.177381 -0.828889
v 0.173097 1.177101 -0.731683
v 0.173097 1.041978 -0.731683
v 0.081814 1.042059 -0.756924
v 0.081814 1.177020 -0.756924
v 0.159067 1.177317 -0.747454
v 0.159067 1.041762 -0.747454
v 0.111381 1.041698 -0.768871
v 0.111381 1.177381 -0.768871
v -0.042093 1.130075 -0.389539
v -0.042093 1.135729 -0.508497
v -0.042093 1.172221 -0.706984
v -0.042093 1.171791 -0.729686
v -0.042093 1.165720 -0.753758
v -0.042093 1.144782 -0.828889
v -0.042093 1.042258 -0.753758
v -0.042093 1.044078 -0.729686
v -0.042093 1.046825 -0.706984
v -0.042093 1.083350 -0.508497
v -0.042093 1.089004 -0.389539
v -0.042093 1.046101 -0.217072
v -0.042093 1.172978 -0.217072
v 0.020472 1.046094 -0.217072
v 0.020472 1.172985 -0.217072
v -0.042093 1.041698 -0.008369
v -0.042093 1.177381 -0.008369
v 0.059826 1.041698 -0.008369
v 0.059826 1.177381 -0.008369
v -0.042093 1.041698 0.056828
v -0.042093 1.177381 0.056828
v 0.044324 1.041698 0.056828
v 0.044324 1.177381 0.056828
v -0.042093 1.041698 0.200835
v -0.042093 1.165131 0.200835
v 0.044324 1.041698 0.200835
v 0.044324 1.175087 0.200835
v -0.042093 1.039201 0.330499
v -0.042093 1.147560 0.330499
v 0.089314 1.041698 0.330499
v 0.089314 1.175629 0.330499
v -0.042093 1.039201 0.415985
v -0.042093 1.147560 0.415985
v 0.133036 1.041698 0.415985
v 0.133036 1.177381 0.415985
v -0.042093 1.039201 0.482538
v -0.042093 1.147560 0.482538
v 0.133036 1.041698 0.482538
v 0.133036 1.177381 0.482538
v -0.042093 1.040339 0.908247
v -0.042093 1.157820 0.908247
v 0.037123 1.041626 0.908247
v 0.037123 1.167130 0.908247
v -0.042093 1.040429 0.924312
v -0.042093 1.158283 0.924312
v 0.013358 1.041240 0.924312
v 0.013358 1.163249 0.924312
v 0.030387 1.049613 -0.237245
v 0.030387 1.169466 -0.237245
v 0.107603 1.177381 -0.124260
v 0.107603 1.041698 -0.124260
v 0.095544 1.050004 -0.255419
v 0.095544 1.169075 -0.255419
v 0.127663 1.175317 -0.216542
v 0.127663 1.043762 -0.216542
v -0.109935 1.130403 -0.389539
v -0.109935 1.088676 -0.389539
v -0.140589 1.136291 -0.508497
v -0.140589 1.082788 -0.508497
v -0.257203 1.175817 -0.706984
v -0.257203 1.043261 -0.706984
v -0.123835 1.175056 -0.729686
v -0.123835 1.044023 -0.729686
v -0.125803 1.176092 -0.753758
v -0.125803 1.042239 -0.753758
v -0.200211 1.177381 -0.828889
v -0.200211 1.041698 -0.828889
v -0.257284 1.177101 -0.731683
v -0.257284 1.041978 -0.731683
v -0.166001 1.042059 -0.756924
v -0.166001 1.177020 -0.756924
v -0.243253 1.177317 -0.747454
v -0.243253 1.041762 -0.747454
v -0.195568 1.041698 -0.768871
v -0.195568 1.177381 -0.768871
v -0.104658 1.046094 -0.217072
v -0.104658 1.172985 -0.217072
v -0.144012 1.041698 -0.008369
v -0.144012 1.177381 -0.008369
v -0.128510 1.041698 0.056828
v -0.128510 1.177381 0.056828
v -0.128510 1.041698 0.200835
v -0.128510 1.175087 0.200835
v -0.173501 1.041698 0.330499
v -0.173501 1.175629 0.330499
v -0.217222 1.041698 0.415985
v -0.217222 1.177381 0.415985
v -0.217222 1.041698 0.482538
v -0.217222 1.177381 0.482538
v -0.121309 1.041626 0.908247
v -0.121309 1.167130 0.908247
v -0.097544 1.041240 0.924312
v -0.097544 1.163249 0.924312
v -0.114574 1.049613 -0.237245
v -0.114574 1.169466 -0.237245
v -0.191789 1.177381 -0.124260
v -0.191789 1.041698 -0.124260
v -0.179730 1.050004 -0.255419
v -0.179730 1.169075 -0.255419
v -0.211849 1.175317 -0.216542
v -0.211849 1.043762 -0.216542
v 0.025748 1.127401 -0.389539
v 0.020472 1.163856 -0.217072
v 0.030387 1.160843 -0.237245
v 0.095544 1.160509 -0.255419
v 0.127663 1.165853 -0.216542
v 0.107603 1.167620 -0.124260
v 0.059826 1.167620 -0.008369
v 0.044324 1.167620 0.056828
v 0.044324 1.165484 0.200835
v 0.089314 1.165824 0.330499
v 0.133036 1.167620 0.415985
v 0.133036 1.167620 0.482538
v 0.037123 1.157482 0.908247
v 0.013358 1.153626 0.924312
v -0.042093 1.148691 0.924312
v -0.097544 1.153626 0.924312
v -0.121309 1.157482 0.908247
v -0.217222 1.167620 0.482538
v -0.217222 1.167620 0.415985
v -0.173501 1.165824 0.330499
v -0.128510 1.165484 0.200835
v -0.128510 1.167620 0.056828
v -0.144012 1.167620 -0.008369
v -0.191789 1.167620 -0.124260
v -0.211849 1.165853 -0.216542
v -0.179730 1.160509 -0.255419
v -0.114574 1.160843 -0.237245
v -0.104658 1.163856 -0.217072
v -0.109935 1.127401 -0.389539
v -0.140589 1.132441 -0.508497
v -0.257203 1.166281 -0.706984
v -0.257284 1.167380 -0.731683
v -0.243253 1.167565 -0.747454
v -0.195568 1.167620 -0.768871
v -0.166001 1.167311 -0.756924
v -0.123835 1.165629 -0.729686
v -0.125803 1.166465 -0.753758
v -0.200211 1.167620 -0.828889
v -0.040105 1.152588 -0.982491
v 0.116025 1.167620 -0.828889
v 0.041616 1.166465 -0.753758
v 0.039649 1.165629 -0.729686
v 0.081814 1.167311 -0.756924
v 0.111381 1.167620 -0.768871
v 0.159067 1.167565 -0.747454
v 0.173097 1.167380 -0.731683
v 0.173017 1.166281 -0.706984
v 0.056403 1.132441 -0.508497
v -0.377902 1.128260 -0.419882
v -0.325366 1.128168 -0.375773
v -0.219051 1.128082 -0.403556
v -0.169818 1.128065 -0.553568
v -0.260388 1.151901 -0.705441
v -0.306386 1.151932 -0.723036
v -0.508421 1.157373 -0.687932
v -0.642060 1.166013 -0.595245
v -0.711114 1.174600 -0.482662
v -0.735959 1.177704 -0.356270
v -0.732043 1.177575 -0.268216
v -0.677903 1.177160 -0.129411
v -0.641863 1.176829 -0.053659
v -0.656756 1.176677 -0.024451
v -0.689255 1.176672 -0.033722
v -0.729203 1.176585 -0.027412
v -0.734445 1.176479 0.020129
v -0.707265 1.176462 0.065978
v -0.644760 1.176462 0.088577
v -0.593343 1.176475 0.056885
v -0.570838 1.176617 -0.001705
v -0.586606 1.177130 -0.103264
v -0.603088 1.176257 -0.197540
v -0.600033 1.172602 -0.280648
v -0.564185 1.165298 -0.388833
v -0.521841 1.158460 -0.500976
v -0.447257 1.152492 -0.594915
v -0.363981 1.148352 -0.614007
v -0.303893 1.135142 -0.574836
v -0.293599 1.128174 -0.516476
v -0.325560 1.128212 -0.460922
v -0.374311 1.128272 -0.447248
v -0.181649 1.128069 -0.465491
v -0.308968 1.128195 -0.488477
v -0.404109 1.152058 -0.725370
v -0.334682 1.144280 -0.607455
v -0.374311 1.055723 -0.447248
v -0.325366 1.094371 -0.375773
v -0.219051 1.094457 -0.403556
v -0.325560 1.055782 -0.460922
v -0.303893 1.048852 -0.574836
v -0.260388 1.070637 -0.705441
v -0.306386 1.070607 -0.723036
v -0.334682 1.039713 -0.607455
v -0.404109 1.070481 -0.725370
v -0.363981 1.035643 -0.614007
v -0.508418 1.070177 -0.687930
v -0.447257 1.031502 -0.594915
v -0.181649 1.094469 -0.465491
v -0.308968 1.055799 -0.488477
v -0.169818 1.094473 -0.553568
v -0.293599 1.055820 -0.516476
v -0.377902 1.055734 -0.419882
v -0.642060 1.059918 -0.595245
v -0.521841 1.025535 -0.500976
v -0.600033 1.011392 -0.280648
v -0.735959 1.044834 -0.356270
v -0.732043 1.044963 -0.268216
v -0.603088 1.007737 -0.197540
v -0.711114 1.047939 -0.482662
v -0.564185 1.018697 -0.388833
v -0.586606 1.006864 -0.103264
v -0.677903 1.045379 -0.129411
v -0.641863 1.045710 -0.053659
v -0.570838 1.007378 -0.001705
v -0.644760 1.007532 0.088577
v -0.689255 1.045866 -0.033722
v -0.729203 1.045953 -0.027412
v -0.707265 1.007532 0.065978
v -0.656756 1.045861 -0.024451
v -0.593343 1.007519 0.056885
v -0.734445 1.007514 0.020129
v -0.658164 1.123922 0.003990
v -0.685969 1.123922 -0.007422
v -0.709755 1.123922 0.010952
v -0.705736 1.123922 0.040739
v -0.677930 1.123922 0.052151
v -0.654145 1.123922 0.033777
v -0.658164 1.234003 0.003990
v -0.685969 1.234003 -0.007422
v -0.709755 1.234003 0.010952
v -0.705736 1.234003 0.040739
v -0.677930 1.234003 0.052151
v -0.654145 1.234003 0.033777
v -0.681950 1.123922 0.022364
v -0.681950 1.234003 0.022364
v 0.293716 1.128260 -0.419882
v 0.241180 1.128168 -0.375773
v 0.134864 1.128082 -0.403556
v 0.085632 1.128065 -0.553568
v 0.176202 1.151901 -0.705441
v 0.222199 1.151932 -0.723036
v 0.424231 1.152362 -0.687930
v 0.557874 1.162620 -0.595245
v 0.626927 1.174600 -0.482662
v 0.651772 1.177704 -0.356270
v 0.647857 1.177575 -0.268216
v 0.593716 1.177160 -0.129411
v 0.557677 1.176829 -0.053659
v 0.572570 1.176677 -0.024451
v 0.605069 1.176672 -0.033722
v 0.645016 1.176585 -0.027412
v 0.650258 1.176479 0.020129
v 0.623078 1.176462 0.065978
v 0.560574 1.176462 0.088577
v 0.509157 1.176475 0.056885
v 0.486651 1.176617 -0.001705
v 0.502419 1.177130 -0.103264
v 0.518902 1.176257 -0.197540
v 0.515846 1.172602 -0.280648
v 0.479998 1.165298 -0.388833
v 0.437654 1.158460 -0.500976
v 0.363070 1.152492 -0.594915
v 0.279795 1.148352 -0.614007
v 0.219707 1.135142 -0.574836
v 0.209413 1.128174 -0.516476
v 0.241374 1.128212 -0.460922
v 0.290125 1.128272 -0.447248
v 0.097463 1.128069 -0.465491
v 0.224782 1.128195 -0.488477
v 0.319923 1.152058 -0.725370
v 0.250496 1.144280 -0.607455
v 0.290125 1.055723 -0.447248
v 0.241180 1.094371 -0.375773
v 0.134864 1.094457 -0.403556
v 0.241374 1.055782 -0.460922
v 0.219707 1.048852 -0.574836
v 0.176202 1.070637 -0.705441
v 0.222199 1.070607 -0.723036
v 0.250496 1.039713 -0.607455
v 0.319923 1.070481 -0.725370
v 0.279795 1.035643 -0.614007
v 0.424231 1.070177 -0.687930
v 0.363070 1.031502 -0.594915
v 0.097463 1.094469 -0.465491
v 0.224782 1.055799 -0.488477
v 0.085632 1.094473 -0.553568
v 0.209413 1.055820 -0.516476
v 0.293716 1.055734 -0.419882
v 0.557874 1.059918 -0.595245
v 0.437654 1.025535 -0.500976
v 0.515846 1.011392 -0.280648
v 0.651772 1.044834 -0.356270
v 0.647857 1.044963 -0.268216
v 0.518948 1.007671 -0.195464
v 0.626927 1.047939 -0.482662
v 0.479998 1.018697 -0.388833
v 0.502419 1.006864 -0.103264
v 0.593716 1.045379 -0.129411
v 0.557677 1.045710 -0.053659
v 0.486651 1.007378 -0.001705
v 0.560574 1.007532 0.088577
v 0.605069 1.045866 -0.033722
v 0.645016 1.045953 -0.027412
v 0.623078 1.007532 0.065978
v 0.572570 1.045861 -0.024451
v 0.509157 1.007519 0.056885
v 0.650258 1.007514 0.020129
v 0.625000 1.123922 0.000294
v 0.597194 1.123922 -0.011118
v 0.573409 1.123922 0.007256
v 0.577428 1.123922 0.037043
v 0.605233 1.123922 0.048455
v 0.629019 1.123922 0.030081
v 0.625000 1.234003 0.000294
v 0.597194 1.234003 -0.011118
v 0.573409 1.234003 0.007256
v 0.577428 1.234003 0.037043
v 0.605233 1.234003 0.048455
v 0.629019 1.234003 0.030081
v 0.601214 1.123922 0.018668
v 0.601214 1.234003 0.018668
vt 0.283164 0.610948
vt 0.281528 0.642308
vt 0.249884 0.610357
vt 0.164662 0.727709
vt 0.178076 0.728318
vt 0.198407 0.765735
vt 0.179175 0.772172
vt 0.256972 0.843373
vt 0.216159 0.840817
vt 0.253260 0.863249
vt 0.244211 0.882585
vt 0.206946 0.861102
vt 0.216616 0.852210
vt 0.224582 0.902689
vt 0.221832 0.909536
vt 0.180606 0.874584
vt 0.181919 0.867250
vt 0.212788 0.943353
vt 0.183281 0.910429
vt 0.142186 0.986123
vt 0.142220 0.952325
vt 0.255405 0.854385
vt 0.217612 0.846930
vt 0.238672 0.585283
vt 0.265846 0.590356
vt 0.257137 0.595792
vt 0.238571 0.590335
vt 0.236382 0.891579
vt 0.197301 0.863200
vt 0.175765 0.862249
vt 0.213356 0.842118
vt 0.215183 0.847274
vt 0.196202 0.860106
vt 0.251056 0.598136
vt 0.241385 0.593603
vt 0.214054 0.851305
vt 0.205680 0.859045
vt 0.138916 0.773850
vt 0.138129 0.727448
vt 0.163577 0.727720
vt 0.177670 0.772636
vt 0.140366 0.857302
vt 0.140503 0.863972
vt 0.140642 0.871001
vt 0.176461 0.873437
vt 0.140954 0.891188
vt 0.181205 0.908173
vt 0.142132 0.943568
vt 0.282460 0.595579
vt 0.265358 0.595279
vt 0.282548 0.590645
vt 0.282631 0.585971
vt 0.283368 0.544736
vt 0.263251 0.544388
vt 0.283802 0.520414
vt 0.269944 0.520161
vt 0.144699 0.235608
vt 0.125823 0.232398
vt 0.125121 0.201107
vt 0.156170 0.204062
vt 0.284451 0.484112
vt 0.271668 0.483884
vt 0.210338 0.683107
vt 0.166305 0.661121
vt 0.136555 0.658481
vt 0.162882 0.658043
vt 0.285212 0.441466
vt 0.264391 0.441094
vt 0.236603 0.634136
vt 0.229406 0.654244
vt 0.193618 0.647252
vt 0.196275 0.633407
vt 0.134177 0.572250
vt 0.169818 0.569435
vt 0.285450 0.428147
vt 0.267796 0.427832
vt 0.217264 0.536802
vt 0.220531 0.558199
vt 0.173661 0.568086
vt 0.170219 0.543725
vt 0.133576 0.545879
vt 0.166459 0.544297
vt 0.285976 0.398728
vt 0.268321 0.398412
vt 0.220060 0.487892
vt 0.171813 0.489137
vt 0.132387 0.490460
vt 0.167964 0.489011
vt 0.131317 0.443295
vt 0.182413 0.437541
vt 0.286449 0.372235
vt 0.259599 0.371758
vt 0.231835 0.438544
vt 0.186087 0.437967
vt 0.286761 0.354772
vt 0.250980 0.354133
vt 0.240857 0.399478
vt 0.195331 0.404034
vt 0.130639 0.413089
vt 0.192158 0.404160
vt 0.287004 0.341176
vt 0.251223 0.340537
vt 0.242173 0.369352
vt 0.195879 0.380690
vt 0.129860 0.388934
vt 0.192531 0.381907
vt 0.126049 0.241479
vt 0.149800 0.242582
vt 0.288557 0.254207
vt 0.272372 0.253917
vt 0.172039 0.209903
vt 0.152462 0.241137
vt 0.288616 0.250925
vt 0.277286 0.250722
vt 0.125908 0.235777
vt 0.143691 0.237913
vt 0.214024 0.676971
vt 0.173515 0.659092
vt 0.184959 0.608066
vt 0.170367 0.657548
vt 0.232682 0.599216
vt 0.188444 0.607226
vt 0.269547 0.488020
vt 0.254199 0.464592
vt 0.193548 0.633814
vt 0.191655 0.646302
vt 0.256173 0.491509
vt 0.249730 0.483368
vt 0.079059 0.767742
vt 0.098215 0.729859
vt 0.111596 0.728737
vt 0.098566 0.773511
vt 0.022763 0.848007
vt 0.064100 0.843019
vt 0.038984 0.885599
vt 0.027298 0.868096
vt 0.064297 0.853992
vt 0.073331 0.863269
vt 0.061129 0.911474
vt 0.058354 0.904688
vt 0.099320 0.868483
vt 0.100931 0.875719
vt 0.070804 0.945073
vt 0.099379 0.911450
vt 0.024588 0.859178
vt 0.063110 0.848979
vt 0.326588 0.586853
vt 0.326508 0.591905
vt 0.307759 0.596696
vt 0.299249 0.590953
vt 0.046686 0.893701
vt 0.083628 0.865241
vt 0.105238 0.863298
vt 0.084622 0.862086
vt 0.065466 0.849273
vt 0.066952 0.844230
vt 0.323579 0.595071
vt 0.313752 0.599256
vt 0.074813 0.861112
vt 0.066670 0.853229
vt 0.100093 0.773908
vt 0.112681 0.728710
vt 0.105005 0.874444
vt 0.101393 0.909137
vt 0.314487 0.611510
vt 0.299562 0.595890
vt 0.303484 0.545107
vt 0.297661 0.520656
vt 0.094212 0.205527
vt 0.107122 0.236488
vt 0.297233 0.484340
vt 0.064501 0.685793
vt 0.107054 0.662653
vt 0.110261 0.659391
vt 0.306034 0.441838
vt 0.043345 0.660244
vt 0.035047 0.640165
vt 0.075451 0.635984
vt 0.078916 0.649202
vt 0.098467 0.571274
vt 0.303105 0.428462
vt 0.046617 0.561850
vt 0.049724 0.540578
vt 0.096817 0.545468
vt 0.094570 0.570129
vt 0.100600 0.545871
vt 0.303631 0.399043
vt 0.044740 0.491914
vt 0.092962 0.491038
vt 0.096798 0.490723
vt 0.313298 0.372717
vt 0.030830 0.443444
vt 0.076261 0.440641
vt 0.079901 0.440035
vt 0.322542 0.355411
vt 0.020281 0.405136
vt 0.065037 0.407162
vt 0.068194 0.407151
vt 0.322785 0.341815
vt 0.016501 0.375202
vt 0.063755 0.384058
vt 0.067170 0.385111
vt 0.304742 0.254495
vt 0.078597 0.212117
vt 0.099637 0.242374
vt 0.102365 0.243695
vt 0.299945 0.251127
vt 0.108242 0.238744
vt 0.060793 0.679688
vt 0.099657 0.661211
vt 0.102719 0.659372
vt 0.085262 0.610283
vt 0.037077 0.604775
vt 0.081694 0.609602
vt 0.315381 0.465685
vt 0.299205 0.488550
vt 0.080820 0.648298
vt 0.078216 0.636255
vt 0.319176 0.484608
vt 0.312446 0.492514
vt 0.473194 0.808561
vt 0.471413 0.817284
vt 0.452423 0.829039
vt 0.456592 0.810171
vt 0.486961 0.830565
vt 0.494799 0.828728
vt 0.509282 0.844777
vt 0.502200 0.849760
vt 0.498559 0.824954
vt 0.504128 0.810981
vt 0.524816 0.812172
vt 0.519426 0.830900
vt 0.474166 0.822225
vt 0.477085 0.827023
vt 0.470825 0.849899
vt 0.458604 0.840159
vt 0.469566 0.805338
vt 0.498716 0.790569
vt 0.525335 0.783521
vt 0.475778 0.756362
vt 0.464433 0.747112
vt 0.488725 0.736093
vt 0.501369 0.745058
vt 0.487328 0.772790
vt 0.516462 0.761955
vt 0.449561 0.739233
vt 0.433712 0.730548
vt 0.449468 0.724496
vt 0.463763 0.728139
vt 0.427386 0.710871
vt 0.436144 0.703132
vt 0.453459 0.708644
vt 0.450836 0.715254
vt 0.427404 0.721492
vt 0.446647 0.719469
vt 0.445373 0.701500
vt 0.435452 0.953437
vt 0.435322 0.972884
vt 0.411225 0.984126
vt 0.422056 0.949919
vt 0.346055 0.939547
vt 0.339743 0.930360
vt 0.373125 0.914852
vt 0.385470 0.927052
vt 0.329468 0.909332
vt 0.319842 0.883091
vt 0.355064 0.875965
vt 0.366994 0.905071
vt 0.393737 0.980134
vt 0.375171 0.969891
vt 0.402836 0.940612
vt 0.412693 0.945018
vt 0.439842 0.958984
vt 0.304131 0.841198
vt 0.351757 0.835412
vt 0.302857 0.771600
vt 0.307796 0.748374
vt 0.347740 0.733347
vt 0.347526 0.759314
vt 0.300133 0.806406
vt 0.350342 0.795806
vt 0.359202 0.681602
vt 0.351211 0.706024
vt 0.322927 0.709628
vt 0.332196 0.687149
vt 0.345849 0.653587
vt 0.355607 0.659266
vt 0.328962 0.669258
vt 0.330142 0.658697
vt 0.360193 0.668680
vt 0.332217 0.677364
vt 0.336445 0.652047
vt 0.443639 0.979799
vt 0.412786 0.993929
vt 0.436618 0.932489
vt 0.451176 0.944237
vt 0.327570 0.955552
vt 0.318964 0.943652
vt 0.401871 0.898048
vt 0.406981 0.910069
vt 0.306747 0.919651
vt 0.293517 0.891736
vt 0.391977 0.866425
vt 0.399125 0.889843
vt 0.390975 0.990008
vt 0.369444 0.978890
vt 0.418535 0.922477
vt 0.427202 0.927364
vt 0.456246 0.953655
vt 0.272180 0.847081
vt 0.391311 0.831430
vt 0.263547 0.764044
vt 0.269497 0.735690
vt 0.400279 0.732177
vt 0.397688 0.758155
vt 0.261935 0.805698
vt 0.394390 0.794053
vt 0.286102 0.690857
vt 0.296642 0.664881
vt 0.402282 0.668142
vt 0.402656 0.701954
vt 0.307671 0.642491
vt 0.319658 0.630540
vt 0.358761 0.613415
vt 0.381252 0.627028
vt 0.301172 0.654020
vt 0.395077 0.645997
vt 0.337630 0.614389
vt 0.452738 0.589193
vt 0.506919 0.594338
vt 0.502829 0.633611
vt 0.484406 0.612706
vt 0.529840 0.643795
vt 0.493990 0.660038
vt 0.498080 0.688250
vt 0.466428 0.664816
vt 0.443901 0.683105
vt 0.448011 0.643856
vt 0.420984 0.633648
vt 0.456913 0.617482
vt 0.535464 0.569601
vt 0.558584 0.579090
vt 0.538807 0.594367
vt 0.515687 0.584878
vt 0.519029 0.609645
vt 0.542149 0.619134
vt 0.561926 0.603856
vt 0.475411 0.638817
vt 0.462178 0.872305
vt 0.478431 0.866773
vt 0.490344 0.882698
vt 0.467550 0.879730
vt 0.458602 0.898781
vt 0.452454 0.923245
vt 0.443699 0.921576
vt 0.450473 0.900382
vt 0.445346 0.898438
vt 0.428299 0.912866
vt 0.415301 0.897590
vt 0.434197 0.887697
vt 0.467063 0.885531
vt 0.489264 0.895748
vt 0.481936 0.910066
vt 0.466361 0.891269
vt 0.464214 0.867744
vt 0.402661 0.870942
vt 0.430613 0.866259
vt 0.437614 0.824451
vt 0.408820 0.824705
vt 0.416874 0.810935
vt 0.444499 0.810629
vt 0.401834 0.846954
vt 0.433751 0.844756
vt 0.454928 0.797262
vt 0.436905 0.792882
vt 0.448765 0.783403
vt 0.466108 0.782395
vt 0.463694 0.761258
vt 0.443562 0.775316
vt 0.438298 0.770230
vt 0.452198 0.757716
vt 0.449278 0.777491
vt 0.468182 0.771226
vt 0.442851 0.760100
vt 0.511723 0.986907
vt 0.487969 0.974964
vt 0.488420 0.955527
vt 0.501910 0.952403
vt 0.584629 0.935227
vt 0.578115 0.944219
vt 0.539104 0.930581
vt 0.551768 0.918728
vt 0.606266 0.888874
vt 0.595191 0.914541
vt 0.558167 0.909119
vt 0.571152 0.880380
vt 0.548193 0.973728
vt 0.529326 0.983431
vt 0.511409 0.947774
vt 0.521382 0.943651
vt 0.483868 0.960939
vt 0.623132 0.847387
vt 0.575714 0.839948
vt 0.622892 0.754782
vt 0.626747 0.778081
vt 0.582645 0.763689
vt 0.583726 0.737781
vt 0.628005 0.812807
vt 0.578399 0.800244
vt 0.601642 0.692800
vt 0.609711 0.715582
vt 0.581505 0.710883
vt 0.575019 0.685749
vt 0.605403 0.664509
vt 0.605943 0.675123
vt 0.579977 0.663595
vt 0.590051 0.658487
vt 0.602207 0.683030
vt 0.574828 0.672741
vt 0.599520 0.657501
vt 0.509861 0.996657
vt 0.479446 0.981623
vt 0.472964 0.945882
vt 0.487847 0.934574
vt 0.605170 0.948994
vt 0.596203 0.960700
vt 0.518095 0.913007
vt 0.523551 0.901101
vt 0.630639 0.897722
vt 0.617955 0.925100
vt 0.526547 0.892950
vt 0.534506 0.869704
vt 0.553659 0.982892
vt 0.531788 0.993385
vt 0.497399 0.929729
vt 0.506195 0.925092
vt 0.467623 0.955138
vt 0.653841 0.854472
vt 0.536323 0.834713
vt 0.661788 0.744035
vt 0.666383 0.772436
vt 0.532367 0.761026
vt 0.530664 0.733816
vt 0.666122 0.813885
vt 0.534470 0.797136
vt 0.638481 0.672482
vt 0.647518 0.698799
vt 0.530743 0.702956
vt 0.533062 0.669489
vt 0.617581 0.636976
vt 0.628815 0.649581
vt 0.556420 0.629796
vt 0.579642 0.617569
vt 0.634607 0.661431
vt 0.541527 0.647872
vt 0.600645 0.619793
vt 0.368592 0.514743
vt 0.422775 0.519887
vt 0.418684 0.559160
vt 0.400261 0.538255
vt 0.445694 0.569344
vt 0.409845 0.585587
vt 0.413934 0.613799
vt 0.382283 0.590366
vt 0.359756 0.608654
vt 0.363865 0.569405
vt 0.336839 0.559197
vt 0.372767 0.543031
vt 0.469481 0.538661
vt 0.492601 0.548150
vt 0.472824 0.563428
vt 0.449705 0.553939
vt 0.453047 0.578705
vt 0.476166 0.588194
vt 0.495943 0.572917
vt 0.391266 0.564366
vn 0.000001 -0.999995 0.003168
vn 0.688092 -0.259463 -0.677649
vn 0.890657 -0.339819 -0.302083
vn 0.995937 0.000000 0.090053
vn 0.680172 -0.732981 -0.010262
vn 0.399490 -0.846786 0.351228
vn 0.888736 0.000000 0.458420
vn 0.399490 -0.846786 0.351228
vn 0.551288 -0.733752 0.397101
vn 0.897826 0.000000 0.440350
vn 0.888736 0.000000 0.458420
vn 0.504117 -0.214617 -0.836544
vn 0.120887 -0.172268 -0.977604
vn 0.123039 0.000000 -0.992402
vn 0.515560 0.000000 -0.856854
vn -0.040954 -0.918032 -0.394385
vn 0.550709 -0.708586 0.441165
vn 0.789692 0.000000 0.613504
vn -0.080619 0.000000 -0.996745
vn 0.550709 -0.708586 0.441165
vn 0.890657 -0.339819 -0.302083
vn 0.946386 0.000002 -0.323038
vn 0.789692 0.000000 0.613504
vn 0.890657 -0.339819 -0.302083
vn 0.688092 -0.259463 -0.677649
vn 0.712493 -0.000020 -0.701680
vn 0.946386 0.000002 -0.323038
vn 0.551288 -0.733752 0.397101
vn 0.722644 -0.652118 -0.229189
vn 0.942881 0.000000 -0.333131
vn 0.897826 0.000000 0.440350
vn 0.551288 -0.733752 0.397101
vn -0.040954 -0.918032 -0.394385
vn -0.431905 -0.486800 -0.759266
vn 0.722644 -0.652118 -0.229189
vn -0.431905 -0.486800 -0.759266
vn -0.040954 -0.918032 -0.394385
vn -0.080619 0.000000 -0.996745
vn -0.477768 0.000000 -0.878486
vn -0.037157 0.998943 -0.027069
vn 0.044799 0.980177 0.192995
vn 0.073011 0.997194 0.016554
vn -0.081018 0.993784 -0.076349
vn 0.722644 -0.652118 -0.229189
vn 0.504117 -0.214617 -0.836544
vn 0.515560 0.000000 -0.856854
vn 0.942881 0.000000 -0.333131
vn 0.722644 -0.652118 -0.229189
vn -0.431905 -0.486800 -0.759266
vn 0.120887 -0.172268 -0.977604
vn 0.504117 -0.214617 -0.836544
vn 0.120887 -0.172268 -0.977604
vn -0.431905 -0.486800 -0.759266
vn -0.477768 0.000000 -0.878486
vn 0.123039 0.000000 -0.992402
vn -0.081018 0.993784 -0.076349
vn 0.073011 0.997194 0.016554
vn 0.167358 0.947882 -0.271129
vn 0.044953 0.919800 -0.389805
vn 0.000000 0.988369 0.152076
vn 0.000000 0.994065 -0.108784
vn 0.067826 0.993620 -0.090108
vn 0.025124 0.983231 0.180624
vn 0.000000 0.985303 0.170818
vn 0.000000 0.988369 0.152076
vn 0.025124 0.983231 0.180624
vn 0.044799 0.980177 0.192995
vn 0.000000 0.999900 -0.014159
vn 0.000000 0.985303 0.170818
vn 0.044799 0.980177 0.192995
vn -0.037157 0.998943 -0.027069
vn 0.000000 0.980678 -0.195631
vn 0.000000 0.999900 -0.014159
vn -0.037157 0.998943 -0.027069
vn -0.102340 0.982708 -0.154311
vn 0.000097 0.999788 0.020575
vn 0.000000 0.980678 -0.195631
vn -0.102340 0.982708 -0.154311
vn 0.006427 0.999011 -0.044007
vn 0.014501 0.999892 0.002507
vn 0.000097 0.999788 0.020575
vn 0.006427 0.999011 -0.044007
vn -0.000003 -0.999811 0.019422
vn 0.000001 -0.999995 0.003168
vn 0.890657 -0.339819 -0.302083
vn 0.550709 -0.708586 0.441165
vn 0.000000 -0.996988 0.077554
vn -0.000003 -0.999811 0.019422
vn 0.550709 -0.708586 0.441165
vn -0.040954 -0.918032 -0.394385
vn 0.000000 -0.984664 0.174460
vn 0.000000 -0.996988 0.077554
vn -0.040954 -0.918032 -0.394385
vn 0.551288 -0.733752 0.397101
vn 0.000000 -0.988356 0.152159
vn 0.000000 -0.984664 0.174460
vn 0.551288 -0.733752 0.397101
vn 0.399490 -0.846786 0.351228
vn 0.000000 -0.994065 -0.108784
vn 0.000000 -0.988356 0.152159
vn 0.399490 -0.846786 0.351228
vn 0.680172 -0.732981 -0.010262
vn 0.219151 0.000000 0.975691
vn 0.000000 0.000000 1.000000
vn 0.000000 -0.175642 0.984454
vn 0.199981 -0.190131 0.961175
vn 0.000000 -0.993912 -0.110174
vn 0.000000 -0.994065 -0.108784
vn 0.680172 -0.732981 -0.010262
vn 0.200124 -0.975052 -0.096044
vn 0.200124 -0.975052 -0.096044
vn 0.680172 -0.732981 -0.010262
vn 0.995937 0.000000 0.090053
vn 0.997563 0.000000 -0.069770
vn 0.067826 0.993620 -0.090108
vn 0.000000 0.994065 -0.108784
vn 0.000000 0.993912 -0.110174
vn 0.010764 0.996394 -0.084160
vn 0.000000 -0.999880 -0.015522
vn 0.000000 -0.993912 -0.110174
vn 0.200124 -0.975052 -0.096044
vn 0.677499 -0.700358 0.224707
vn 0.862281 -0.499880 -0.081183
vn 0.172369 -0.549982 -0.817196
vn 0.239496 0.000000 -0.970897
vn 0.997978 0.000000 -0.063554
vn 0.000000 0.993912 -0.110174
vn 0.000000 0.999880 -0.015522
vn 0.072811 0.997311 0.008303
vn 0.010764 0.996394 -0.084160
vn 0.000000 -1.000000 0.000000
vn 0.000000 -0.999880 -0.015522
vn 0.677499 -0.700358 0.224707
vn 0.800706 -0.596078 0.059680
vn 0.800706 -0.596078 0.059680
vn 0.677499 -0.700358 0.224707
vn 0.944024 0.000000 0.329878
vn 0.997203 0.000000 0.074739
vn 0.000000 0.999880 -0.015522
vn 0.000000 0.999429 0.033794
vn 0.066463 0.996992 0.039872
vn 0.072811 0.997311 0.008303
vn 0.000000 -0.999981 -0.006175
vn 0.000000 -1.000000 0.000000
vn 0.800706 -0.596078 0.059680
vn 0.750831 -0.648244 -0.126621
vn 0.750831 -0.648244 -0.126621
vn 0.800706 -0.596078 0.059680
vn 0.997203 0.000000 0.074739
vn 0.986935 0.000000 -0.161118
vn 0.000000 0.999429 0.033794
vn 0.000000 0.997211 0.074632
vn -0.034897 0.997476 0.061840
vn 0.066463 0.996992 0.039872
vn 0.000000 0.997211 0.074632
vn 0.000000 0.997708 0.067669
vn -0.107905 0.993708 0.030019
vn -0.034897 0.997476 0.061840
vn 0.000000 -0.999968 -0.008030
vn 0.000000 -0.999981 -0.006175
vn 0.750831 -0.648244 -0.126621
vn 0.667227 -0.691772 -0.276150
vn 0.667227 -0.691772 -0.276150
vn 0.750831 -0.648244 -0.126621
vn 0.986935 0.000000 -0.161118
vn 0.924238 0.000000 -0.381816
vn 0.000000 -0.999998 -0.002205
vn 0.000000 -0.999968 -0.008030
vn 0.667227 -0.691772 -0.276150
vn 0.669088 -0.718486 -0.190001
vn 0.669088 -0.718486 -0.190001
vn 0.667227 -0.691772 -0.276150
vn 0.924238 0.000000 -0.381816
vn 0.961588 0.000000 -0.274497
vn 0.000000 0.997708 0.067669
vn 0.000000 0.999797 0.020130
vn -0.107037 0.994249 -0.003485
vn -0.107905 0.993708 0.030019
vn 0.000000 -0.999997 0.002409
vn 0.000000 -0.999998 -0.002205
vn 0.669088 -0.718486 -0.190001
vn 0.715181 -0.685137 0.138214
vn 0.715181 -0.685137 0.138214
vn 0.669088 -0.718486 -0.190001
vn 0.961588 0.000000 -0.274497
vn 0.981793 0.000000 0.189952
vn 0.000000 0.999797 0.020130
vn 0.000000 0.999898 -0.014263
vn -0.075740 0.997126 0.001902
vn -0.107037 0.994249 -0.003485
vn 0.000000 0.999898 -0.014263
vn 0.000000 0.999865 -0.016457
vn -0.083581 0.996500 0.001495
vn -0.075740 0.997126 0.001902
vn 0.000000 -0.999996 0.002915
vn 0.000000 -0.999997 0.002409
vn 0.715181 -0.685137 0.138214
vn 0.647340 -0.742260 0.173205
vn 0.647340 -0.742260 0.173205
vn 0.715181 -0.685137 0.138214
vn 0.981793 0.000000 0.189952
vn 0.966610 0.000000 0.256251
vn 0.000000 -0.175642 0.984454
vn 0.000000 -0.999996 0.002915
vn 0.647340 -0.742260 0.173205
vn 0.199981 -0.190131 0.961175
vn 0.199981 -0.190131 0.961175
vn 0.647340 -0.742260 0.173205
vn 0.966610 0.000000 0.256251
vn 0.219151 0.000000 0.975691
vn 0.000000 0.999865 -0.016457
vn 0.000000 0.877079 0.480347
vn -0.009362 0.909892 0.414740
vn -0.083581 0.996500 0.001495
vn -0.329656 -0.725765 -0.603815
vn 0.200124 -0.975052 -0.096044
vn 0.997563 0.000000 -0.069770
vn -0.470191 0.000000 -0.882565
vn 0.010764 0.996394 -0.084160
vn 0.072811 0.997311 0.008303
vn 0.110251 0.993889 0.005438
vn -0.062852 0.992487 -0.104974
vn 0.677499 -0.700358 0.224707
vn 0.832935 -0.489810 0.257498
vn 0.950447 0.000000 0.310887
vn 0.944024 0.000000 0.329878
vn 0.677499 -0.700358 0.224707
vn 0.200124 -0.975052 -0.096044
vn -0.329656 -0.725765 -0.603815
vn 0.832935 -0.489810 0.257498
vn 0.172369 -0.549982 -0.817196
vn -0.329656 -0.725765 -0.603815
vn -0.470191 0.000000 -0.882565
vn 0.239496 0.000000 -0.970897
vn -0.062852 0.992487 -0.104974
vn 0.110251 0.993889 0.005438
vn 0.089246 0.993784 -0.066553
vn -0.019340 0.985743 -0.167145
vn 0.832935 -0.489810 0.257498
vn 0.862281 -0.499880 -0.081183
vn 0.997978 0.000000 -0.063554
vn 0.950447 0.000000 0.310887
vn 0.832935 -0.489810 0.257498
vn -0.329656 -0.725765 -0.603815
vn 0.172369 -0.549982 -0.817196
vn 0.862281 -0.499880 -0.081183
vn -0.399490 -0.846786 0.351228
vn -0.680172 -0.732981 -0.010262
vn -0.995937 0.000000 0.090053
vn -0.888736 0.000000 0.458419
vn -0.551288 -0.733752 0.397101
vn -0.399490 -0.846786 0.351228
vn -0.888736 0.000000 0.458419
vn -0.897826 0.000000 0.440350
vn -0.120887 -0.172268 -0.977604
vn -0.504116 -0.214617 -0.836544
vn -0.515560 0.000000 -0.856854
vn -0.123039 0.000000 -0.992402
vn -0.560290 -0.696264 0.448656
vn 0.040954 -0.918032 -0.394385
vn 0.080619 0.000000 -0.996745
vn -0.789691 0.000000 0.613504
vn -0.895617 -0.325051 -0.303664
vn -0.560290 -0.696264 0.448656
vn -0.789691 0.000000 0.613504
vn -0.946430 0.000928 -0.322909
vn 0.688092 -0.259463 -0.677649
vn -0.895617 -0.325051 -0.303664
vn -0.946430 0.000928 -0.322909
vn 0.712493 -0.000020 -0.701680
vn -0.722644 -0.652118 -0.229189
vn -0.551288 -0.733752 0.397101
vn -0.897826 0.000000 0.440350
vn -0.942881 0.000000 -0.333131
vn -0.551288 -0.733752 0.397101
vn -0.722644 -0.652118 -0.229189
vn 0.431905 -0.486800 -0.759266
vn 0.040954 -0.918032 -0.394385
vn 0.040954 -0.918032 -0.394385
vn 0.431905 -0.486800 -0.759266
vn 0.477768 0.000000 -0.878486
vn 0.080619 0.000000 -0.996745
vn 0.037157 0.998943 -0.027069
vn 0.081018 0.993784 -0.076349
vn -0.073011 0.997194 0.016554
vn -0.044799 0.980177 0.192995
vn -0.504116 -0.214617 -0.836544
vn -0.722644 -0.652118 -0.229189
vn -0.942881 0.000000 -0.333131
vn -0.515560 0.000000 -0.856854
vn -0.722644 -0.652118 -0.229189
vn -0.504116 -0.214617 -0.836544
vn -0.120887 -0.172268 -0.977604
vn 0.431905 -0.486800 -0.759266
vn 0.431905 -0.486800 -0.759266
vn -0.120887 -0.172268 -0.977604
vn -0.123039 0.000000 -0.992402
vn 0.477768 0.000000 -0.878486
vn 0.081018 0.993784 -0.076349
vn -0.044953 0.919800 -0.389804
vn -0.167358 0.947883 -0.271127
vn -0.073011 0.997194 0.016554
vn -0.025124 0.983231 0.180624
vn -0.067826 0.993620 -0.090108
vn 0.000000 0.994065 -0.108784
vn 0.000000 0.988369 0.152076
vn -0.044799 0.980177 0.192995
vn -0.025124 0.983231 0.180624
vn 0.000000 0.988369 0.152076
vn 0.000000 0.985303 0.170818
vn 0.000000 0.999900 -0.014159
vn 0.037157 0.998943 -0.027069
vn -0.044799 0.980177 0.192995
vn 0.000000 0.985303 0.170818
vn 0.000000 0.980678 -0.195631
vn 0.102340 0.982708 -0.154312
vn 0.037157 0.998943 -0.027069
vn 0.000000 0.999900 -0.014159
vn 0.000097 0.999788 0.020575
vn -0.006198 0.999043 -0.043299
vn 0.102340 0.982708 -0.154312
vn 0.000000 0.980678 -0.195631
vn -0.895617 -0.325051 -0.303664
vn 0.688092 -0.259463 -0.677649
vn 0.000001 -0.999995 0.003168
vn -0.560290 -0.696264 0.448656
vn -0.895617 -0.325051 -0.303664
vn 0.000001 -0.999995 0.003168
vn -0.000003 -0.999811 0.019422
vn 0.040954 -0.918032 -0.394385
vn -0.560290 -0.696264 0.448656
vn -0.000003 -0.999811 0.019422
vn 0.000000 -0.996988 0.077554
vn -0.551288 -0.733752 0.397101
vn 0.040954 -0.918032 -0.394385
vn 0.000000 -0.996988 0.077554
vn 0.000000 -0.984664 0.174460
vn -0.399490 -0.846786 0.351228
vn -0.551288 -0.733752 0.397101
vn 0.000000 -0.984664 0.174460
vn 0.000000 -0.988356 0.152159
vn -0.680172 -0.732981 -0.010262
vn -0.399490 -0.846786 0.351228
vn 0.000000 -0.988356 0.152159
vn 0.000000 -0.994065 -0.108784
vn -0.199981 -0.190130 0.961175
vn 0.000000 -0.175642 0.984454
vn 0.000000 0.000000 1.000000
vn -0.219151 0.000000 0.975691
vn 0.000000 -0.994065 -0.108784
vn 0.000000 -0.993912 -0.110174
vn -0.200124 -0.975052 -0.096044
vn -0.680172 -0.732981 -0.010262
vn -0.680172 -0.732981 -0.010262
vn -0.200124 -0.975052 -0.096044
vn -0.997563 0.000000 -0.069770
vn -0.995937 0.000000 0.090053
vn -0.067826 0.993620 -0.090108
vn -0.010764 0.996394 -0.084160
vn 0.000000 0.993912 -0.110174
vn 0.000000 0.994065 -0.108784
vn 0.000000 -0.993912 -0.110174
vn 0.000000 -0.999880 -0.015522
vn -0.677499 -0.700358 0.224708
vn -0.200124 -0.975052 -0.096044
vn -0.172369 -0.549982 -0.817196
vn -0.862281 -0.499880 -0.081183
vn -0.997978 0.000000 -0.063554
vn -0.239496 0.000000 -0.970897
vn -0.010764 0.996394 -0.084160
vn -0.072811 0.997311 0.008303
vn 0.000000 0.999880 -0.015522
vn 0.000000 0.993912 -0.110174
vn 0.000000 -0.999880 -0.015522
vn 0.000000 -1.000000 0.000000
vn -0.800706 -0.596078 0.059680
vn -0.677499 -0.700358 0.224708
vn -0.677499 -0.700358 0.224708
vn -0.800706 -0.596078 0.059680
vn -0.997203 0.000000 0.074739
vn -0.944024 0.000000 0.329878
vn -0.072811 0.997311 0.008303
vn -0.066463 0.996992 0.039872
vn 0.000000 0.999429 0.033794
vn 0.000000 0.999880 -0.015522
vn 0.000000 -1.000000 0.000000
vn 0.000000 -0.999981 -0.006175
vn -0.750831 -0.648244 -0.126621
vn -0.800706 -0.596078 0.059680
vn -0.800706 -0.596078 0.059680
vn -0.750831 -0.648244 -0.126621
vn -0.986935 0.000000 -0.161118
vn -0.997203 0.000000 0.074739
vn -0.066463 0.996992 0.039872
vn 0.034897 0.997476 0.061841
vn 0.000000 0.997211 0.074632
vn 0.000000 0.999429 0.033794
vn -0.750831 -0.648244 -0.126621
vn 0.000000 -0.999981 -0.006175
vn 0.000000 -0.999968 -0.008030
vn -0.667227 -0.691772 -0.276151
vn -0.750831 -0.648244 -0.126621
vn -0.667227 -0.691772 -0.276151
vn -0.924238 0.000000 -0.381816
vn -0.986935 0.000000 -0.161118
vn 0.034897 0.997476 0.061841
vn 0.107905 0.993708 0.030019
vn 0.000000 0.997708 0.067669
vn 0.000000 0.997211 0.074632
vn 0.000000 -0.999968 -0.008030
vn 0.000000 -0.999998 -0.002205
vn -0.669088 -0.718486 -0.190001
vn -0.667227 -0.691772 -0.276151
vn -0.667227 -0.691772 -0.276151
vn -0.669088 -0.718486 -0.190001
vn -0.961588 0.000000 -0.274497
vn -0.924238 0.000000 -0.381816
vn 0.107905 0.993708 0.030019
vn 0.107037 0.994249 -0.003485
vn 0.000000 0.999797 0.020130
vn 0.000000 0.997708 0.067669
vn 0.000000 -0.999998 -0.002205
vn 0.000000 -0.999997 0.002409
vn -0.715181 -0.685137 0.138214
vn -0.669088 -0.718486 -0.190001
vn -0.669088 -0.718486 -0.190001
vn -0.715181 -0.685137 0.138214
vn -0.981793 0.000000 0.189952
vn -0.961588 0.000000 -0.274497
vn 0.107037 0.994249 -0.003485
vn 0.075740 0.997126 0.001902
vn 0.000000 0.999898 -0.014263
vn 0.000000 0.999797 0.020130
vn -0.715181 -0.685137 0.138214
vn 0.000000 -0.999997 0.002409
vn 0.000000 -0.999996 0.002915
vn -0.647340 -0.742260 0.173205
vn -0.715181 -0.685137 0.138214
vn -0.647340 -0.742260 0.173205
vn -0.966610 0.000000 0.256251
vn -0.981793 0.000000 0.189952
vn 0.075740 0.997126 0.001902
vn 0.083581 0.996500 0.001495
vn 0.000000 0.999865 -0.016457
vn 0.000000 0.999898 -0.014263
vn 0.000000 -0.999996 0.002915
vn 0.000000 -0.175642 0.984454
vn -0.199981 -0.190130 0.961175
vn -0.647340 -0.742260 0.173205
vn -0.647340 -0.742260 0.173205
vn -0.199981 -0.190130 0.961175
vn -0.219151 0.000000 0.975691
vn -0.966610 0.000000 0.256251
vn 0.083581 0.996500 0.001495
vn 0.009362 0.909893 0.414738
vn 0.000000 0.877079 0.480347
vn 0.000000 0.999865 -0.016457
vn -0.200124 -0.975052 -0.096044
vn 0.329656 -0.725764 -0.603815
vn 0.470191 0.000000 -0.882565
vn -0.997563 0.000000 -0.069770
vn -0.010764 0.996394 -0.084160
vn 0.062852 0.992487 -0.104973
vn -0.110251 0.993889 0.005438
vn -0.072811 0.997311 0.008303
vn -0.832935 -0.489810 0.257498
vn -0.677499 -0.700358 0.224708
vn -0.944024 0.000000 0.329878
vn -0.950447 0.000000 0.310887
vn -0.677499 -0.700358 0.224708
vn -0.832935 -0.489810 0.257498
vn 0.329656 -0.725764 -0.603815
vn -0.200124 -0.975052 -0.096044
vn 0.329656 -0.725764 -0.603815
vn -0.172369 -0.549982 -0.817196
vn -0.239496 0.000000 -0.970897
vn 0.470191 0.000000 -0.882565
vn 0.062852 0.992487 -0.104973
vn 0.019340 0.985743 -0.167145
vn -0.089246 0.993784 -0.066553
vn -0.110251 0.993889 0.005438
vn -0.862281 -0.499880 -0.081183
vn -0.832935 -0.489810 0.257498
vn -0.950447 0.000000 0.310887
vn -0.997978 0.000000 -0.063554
vn -0.832935 -0.489810 0.257498
vn -0.862281 -0.499880 -0.081183
vn -0.172369 -0.549982 -0.817196
vn 0.329656 -0.725764 -0.603815
vn 0.997563 0.000000 -0.069770
vn 0.995937 0.000000 0.090053
vn 0.067826 0.993620 -0.090108
vn 0.010764 0.996394 -0.084160
vn -0.470191 0.000000 -0.882565
vn 0.997563 0.000000 -0.069770
vn 0.010764 0.996394 -0.084160
vn -0.062852 0.992487 -0.104974
vn 0.239496 0.000000 -0.970897
vn -0.470191 0.000000 -0.882565
vn -0.062852 0.992487 -0.104974
vn -0.019340 0.985743 -0.167145
vn 0.997978 0.000000 -0.063554
vn 0.239496 0.000000 -0.970897
vn -0.019340 0.985743 -0.167145
vn 0.089246 0.993784 -0.066553
vn 0.110251 0.993889 0.005438
vn 0.950447 0.000000 0.310887
vn 0.997978 0.000000 -0.063554
vn 0.089246 0.993784 -0.066553
vn 0.072811 0.997311 0.008303
vn 0.944024 0.000000 0.329878
vn 0.950447 0.000000 0.310887
vn 0.110251 0.993889 0.005438
vn 0.997203 0.000000 0.074739
vn 0.944024 0.000000 0.329878
vn 0.072811 0.997311 0.008303
vn 0.066463 0.996992 0.039872
vn 0.986935 0.000000 -0.161118
vn 0.997203 0.000000 0.074739
vn 0.066463 0.996992 0.039872
vn -0.034897 0.997476 0.061840
vn -0.034897 0.997476 0.061840
vn -0.107905 0.993708 0.030019
vn 0.924238 0.000000 -0.381816
vn 0.986935 0.000000 -0.161118
vn 0.961588 0.000000 -0.274497
vn 0.924238 0.000000 -0.381816
vn -0.107905 0.993708 0.030019
vn -0.107037 0.994249 -0.003485
vn 0.981793 0.000000 0.189952
vn 0.961588 0.000000 -0.274497
vn -0.107037 0.994249 -0.003485
vn -0.075740 0.997126 0.001902
vn -0.075740 0.997126 0.001902
vn -0.083581 0.996500 0.001495
vn 0.966610 0.000000 0.256251
vn 0.981793 0.000000 0.189952
vn 0.219151 0.000000 0.975691
vn 0.966610 0.000000 0.256251
vn -0.083581 0.996500 0.001495
vn -0.009362 0.909892 0.414740
vn -0.009362 0.909892 0.414740
vn 0.000000 0.877079 0.480347
vn 0.000000 0.000000 1.000000
vn 0.219151 0.000000 0.975691
vn 0.000000 0.877079 0.480347
vn 0.009362 0.909893 0.414738
vn -0.219151 0.000000 0.975691
vn 0.000000 0.000000 1.000000
vn -0.966610 0.000000 0.256251
vn -0.219151 0.000000 0.975691
vn 0.009362 0.909893 0.414738
vn 0.083581 0.996500 0.001495
vn 0.075740 0.997126 0.001902
vn -0.981793 0.000000 0.189952
vn -0.966610 0.000000 0.256251
vn 0.083581 0.996500 0.001495
vn -0.961588 0.000000 -0.274497
vn -0.981793 0.000000 0.189952
vn 0.075740 0.997126 0.001902
vn 0.107037 0.994249 -0.003485
vn -0.924238 0.000000 -0.381816
vn -0.961588 0.000000 -0.274497
vn 0.107037 0.994249 -0.003485
vn 0.107905 0.993708 0.030019
vn 0.034897 0.997476 0.061841
vn -0.986935 0.000000 -0.161118
vn -0.924238 0.000000 -0.381816
vn 0.107905 0.993708 0.030019
vn -0.997203 0.000000 0.074739
vn -0.986935 0.000000 -0.161118
vn 0.034897 0.997476 0.061841
vn -0.066463 0.996992 0.039872
vn -0.944024 0.000000 0.329878
vn -0.997203 0.000000 0.074739
vn -0.066463 0.996992 0.039872
vn -0.072811 0.997311 0.008303
vn -0.072811 0.997311 0.008303
vn -0.110251 0.993889 0.005438
vn -0.950447 0.000000 0.310887
vn -0.944024 0.000000 0.329878
vn -0.110251 0.993889 0.005438
vn -0.089246 0.993784 -0.066553
vn -0.997978 0.000000 -0.063554
vn -0.950447 0.000000 0.310887
vn -0.239496 0.000000 -0.970897
vn -0.997978 0.000000 -0.063554
vn -0.089246 0.993784 -0.066553
vn 0.019340 0.985743 -0.167145
vn 0.470191 0.000000 -0.882565
vn -0.239496 0.000000 -0.970897
vn 0.019340 0.985743 -0.167145
vn 0.062852 0.992487 -0.104973
vn -0.997563 0.000000 -0.069770
vn 0.470191 0.000000 -0.882565
vn 0.062852 0.992487 -0.104973
vn -0.010764 0.996394 -0.084160
vn -0.995937 0.000000 0.090053
vn -0.997563 0.000000 -0.069770
vn -0.010764 0.996394 -0.084160
vn -0.067826 0.993620 -0.090108
vn -0.888736 0.000000 0.458419
vn -0.995937 0.000000 0.090053
vn -0.067826 0.993620 -0.090108
vn -0.025124 0.983231 0.180624
vn -0.897826 0.000000 0.440350
vn -0.888736 0.000000 0.458419
vn -0.025124 0.983231 0.180624
vn -0.044799 0.980177 0.192995
vn -0.044799 0.980177 0.192995
vn -0.073011 0.997194 0.016554
vn -0.942881 0.000000 -0.333131
vn -0.897826 0.000000 0.440350
vn -0.073011 0.997194 0.016554
vn -0.167358 0.947883 -0.271127
vn -0.515560 0.000000 -0.856854
vn -0.942881 0.000000 -0.333131
vn -0.167358 0.947883 -0.271127
vn -0.044953 0.919800 -0.389804
vn -0.123039 0.000000 -0.992402
vn -0.515560 0.000000 -0.856854
vn 0.477768 0.000000 -0.878486
vn -0.123039 0.000000 -0.992402
vn -0.044953 0.919800 -0.389804
vn 0.081018 0.993784 -0.076349
vn 0.080619 0.000000 -0.996745
vn 0.477768 0.000000 -0.878486
vn 0.081018 0.993784 -0.076349
vn 0.037157 0.998943 -0.027069
vn 0.037157 0.998943 -0.027069
vn 0.102340 0.982708 -0.154312
vn -0.789691 0.000000 0.613504
vn 0.080619 0.000000 -0.996745
vn 0.102340 0.982708 -0.154312
vn -0.006198 0.999043 -0.043299
vn -0.946430 0.000928 -0.322909
vn -0.789691 0.000000 0.613504
vn 0.006427 0.999011 -0.044007
vn 0.946386 0.000002 -0.323038
vn 0.712493 -0.000020 -0.701680
vn 0.014501 0.999892 0.002507
vn -0.102340 0.982708 -0.154311
vn 0.789692 0.000000 0.613504
vn 0.946386 0.000002 -0.323038
vn 0.006427 0.999011 -0.044007
vn -0.037157 0.998943 -0.027069
vn -0.080619 0.000000 -0.996745
vn 0.789692 0.000000 0.613504
vn -0.102340 0.982708 -0.154311
vn -0.477768 0.000000 -0.878486
vn -0.080619 0.000000 -0.996745
vn -0.037157 0.998943 -0.027069
vn -0.081018 0.993784 -0.076349
vn 0.123039 0.000000 -0.992402
vn -0.477768 0.000000 -0.878486
vn -0.081018 0.993784 -0.076349
vn 0.044953 0.919800 -0.389805
vn 0.167358 0.947882 -0.271129
vn 0.515560 0.000000 -0.856854
vn 0.123039 0.000000 -0.992402
vn 0.044953 0.919800 -0.389805
vn 0.073011 0.997194 0.016554
vn 0.942881 0.000000 -0.333131
vn 0.515560 0.000000 -0.856854
vn 0.167358 0.947882 -0.271129
vn 0.044799 0.980177 0.192995
vn 0.897826 0.000000 0.440350
vn 0.942881 0.000000 -0.333131
vn 0.073011 0.997194 0.016554
vn 0.888736 0.000000 0.458420
vn 0.897826 0.000000 0.440350
vn 0.044799 0.980177 0.192995
vn 0.025124 0.983231 0.180624
vn 0.995937 0.000000 0.090053
vn 0.888736 0.000000 0.458420
vn 0.025124 0.983231 0.180624
vn 0.067826 0.993620 -0.090108
vn 0.000097 0.999788 0.020575
vn 0.014501 0.999892 0.002507
vn -0.006198 0.999043 -0.043299
vn -0.006198 0.999043 -0.043299
vn 0.014501 0.999892 0.002507
vn 0.712493 -0.000020 -0.701680
vn -0.946430 0.000928 -0.322909
vn -0.326451 -0.921016 -0.212506
vn -0.007045 -0.998994 0.044287
vn 0.388647 -0.735694 0.554714
vn -0.082379 -0.592886 0.801062
vn 0.016186 -0.992628 0.120114
vn -0.098445 -0.978473 0.181380
vn 0.166174 -0.615096 -0.770742
vn 0.629825 -0.631604 -0.452103
vn 0.066593 -0.942515 0.327462
vn 0.272535 -0.929033 0.250246
vn -0.364363 -0.628550 -0.687142
vn -0.125798 -0.597858 -0.791670
vn -0.007847 -0.998915 -0.045909
vn 0.024508 -0.999606 0.013706
vn 0.725565 -0.656525 -0.206228
vn 0.572509 -0.795438 0.198777
vn -0.007045 -0.998994 0.044287
vn -0.007847 -0.998915 -0.045909
vn 0.572509 -0.795438 0.198777
vn 0.388647 -0.735694 0.554714
vn -0.819845 -0.298568 0.488581
vn -0.326451 -0.921016 -0.212506
vn -0.082379 -0.592886 0.801062
vn 0.024508 -0.999606 0.013706
vn 0.016186 -0.992628 0.120114
vn 0.629825 -0.631604 -0.452103
vn 0.725565 -0.656525 -0.206228
vn -0.098445 -0.978473 0.181380
vn 0.066593 -0.942515 0.327462
vn -0.125798 -0.597858 -0.791670
vn 0.166174 -0.615096 -0.770742
vn 0.272535 -0.929033 0.250246
vn 0.454503 -0.878323 0.148242
vn -0.530315 -0.656565 -0.536366
vn -0.364363 -0.628550 -0.687142
vn 0.594988 -0.797145 0.102710
vn 0.664311 -0.747206 -0.019372
vn -0.854906 -0.482748 0.189974
vn -0.737549 -0.666955 -0.105795
vn 0.454503 -0.878323 0.148242
vn 0.546723 -0.825100 0.142493
vn -0.664996 -0.685714 -0.295934
vn -0.530315 -0.656565 -0.536366
vn 0.546723 -0.825100 0.142493
vn 0.594988 -0.797145 0.102710
vn -0.737549 -0.666955 -0.105795
vn -0.664996 -0.685714 -0.295934
vn 0.844353 -0.525292 -0.105526
vn 0.942157 -0.333335 0.035045
vn -0.825874 -0.543221 0.151137
vn -0.837564 -0.435912 0.329344
vn 0.664311 -0.747206 -0.019372
vn 0.844353 -0.525292 -0.105526
vn -0.837564 -0.435912 0.329344
vn -0.854906 -0.482748 0.189974
vn 0.073193 -0.399887 0.913637
vn -0.796487 -0.321497 0.512102
vn -0.968742 -0.234574 -0.080706
vn 0.030139 -0.574633 -0.817856
vn 0.942157 -0.333335 0.035045
vn 0.729631 -0.393911 0.558993
vn -0.320680 -0.758743 -0.566986
vn -0.825874 -0.543221 0.151137
vn 0.729631 -0.393911 0.558993
vn 0.073193 -0.399887 0.913637
vn 0.030139 -0.574633 -0.817856
vn -0.320680 -0.758743 -0.566986
vn -0.796487 -0.321497 0.512102
vn -0.972135 -0.053260 0.228290
vn -0.968742 -0.234574 -0.080706
vn -0.401963 0.758481 -0.512965
vn -0.133770 0.781865 0.608928
vn 0.269698 0.860822 0.431566
vn -0.174196 0.944803 -0.277494
vn 0.561437 0.728501 -0.392524
vn 0.128933 0.718453 -0.683521
vn -0.173479 0.886163 0.429675
vn -0.249862 0.930878 0.266526
vn -0.097627 0.702288 -0.705167
vn -0.289664 0.748370 -0.596688
vn 0.382921 0.810232 0.443730
vn 0.103006 0.822218 0.559774
vn 0.389434 0.912166 0.127651
vn 0.608204 0.772853 -0.181069
vn -0.276895 0.959240 0.056464
vn -0.281118 0.945881 -0.162117
vn 0.269698 0.860822 0.431566
vn 0.389434 0.912166 0.127651
vn -0.281118 0.945881 -0.162117
vn -0.174196 0.944803 -0.277494
vn -0.843624 0.211844 0.493376
vn -0.133770 0.781865 0.608928
vn -0.401963 0.758481 -0.512965
vn 0.608204 0.772853 -0.181069
vn 0.561437 0.728501 -0.392524
vn -0.249862 0.930878 0.266526
vn -0.276895 0.959240 0.056464
vn 0.128933 0.718453 -0.683521
vn -0.097627 0.702288 -0.705167
vn 0.103006 0.822218 0.559774
vn -0.173479 0.886163 0.429675
vn -0.289664 0.748370 -0.596688
vn -0.444308 0.755379 -0.481656
vn 0.569046 0.777446 0.267889
vn 0.382921 0.810232 0.443730
vn -0.649130 0.755856 -0.085510
vn -0.808027 0.553747 0.201137
vn 0.778722 0.623807 -0.066760
vn 0.704189 0.701106 0.112103
vn -0.444308 0.755379 -0.481656
vn -0.582588 0.769375 -0.262020
vn 0.652475 0.733325 0.191078
vn 0.569046 0.777446 0.267889
vn -0.582588 0.769375 -0.262020
vn -0.649130 0.755856 -0.085510
vn 0.704189 0.701106 0.112103
vn 0.652475 0.733325 0.191078
vn 0.958576 0.281952 0.040434
vn 0.892674 0.426193 -0.146606
vn -0.782267 0.529211 0.328624
vn -0.690211 0.709248 0.143440
vn 0.892674 0.426193 -0.146606
vn 0.778722 0.623807 -0.066760
vn -0.808027 0.553747 0.201137
vn -0.782267 0.529211 0.328624
vn -0.756917 0.296923 0.582163
vn 0.074483 0.347983 0.934537
vn 0.029621 0.682356 -0.730420
vn -0.946177 0.312135 -0.085561
vn 0.725763 0.346121 0.594533
vn 0.958576 0.281952 0.040434
vn -0.690211 0.709248 0.143440
vn -0.177543 0.890919 -0.418021
vn 0.074483 0.347983 0.934537
vn 0.725763 0.346121 0.594533
vn -0.177543 0.890919 -0.418021
vn 0.029621 0.682356 -0.730420
vn -0.967530 0.049858 0.247791
vn -0.756917 0.296923 0.582163
vn -0.946177 0.312135 -0.085561
vn -0.133770 0.781865 0.608928
vn -0.082379 -0.592886 0.801062
vn 0.388647 -0.735694 0.554714
vn 0.269698 0.860822 0.431566
vn -0.174196 0.944803 -0.277494
vn -0.007045 -0.998994 0.044287
vn -0.326451 -0.921016 -0.212506
vn -0.401963 0.758481 -0.512965
vn 0.561437 0.728501 -0.392524
vn 0.629825 -0.631604 -0.452103
vn 0.166174 -0.615096 -0.770742
vn 0.128933 0.718453 -0.683521
vn -0.173479 0.886163 0.429675
vn -0.098445 -0.978473 0.181380
vn 0.016186 -0.992628 0.120114
vn -0.249862 0.930878 0.266526
vn -0.097627 0.702288 -0.705167
vn -0.125798 -0.597858 -0.791670
vn -0.364363 -0.628550 -0.687142
vn -0.289664 0.748370 -0.596688
vn 0.382921 0.810232 0.443730
vn 0.272535 -0.929033 0.250246
vn 0.066593 -0.942515 0.327462
vn 0.103006 0.822218 0.559774
vn 0.389434 0.912166 0.127651
vn 0.572509 -0.795438 0.198777
vn 0.725565 -0.656525 -0.206228
vn 0.608204 0.772853 -0.181069
vn -0.276895 0.959240 0.056464
vn 0.024508 -0.999606 0.013706
vn -0.007847 -0.998915 -0.045909
vn -0.281118 0.945881 -0.162117
vn 0.269698 0.860822 0.431566
vn 0.388647 -0.735694 0.554714
vn 0.572509 -0.795438 0.198777
vn 0.389434 0.912166 0.127651
vn -0.281118 0.945881 -0.162117
vn -0.007847 -0.998915 -0.045909
vn -0.007045 -0.998994 0.044287
vn -0.174196 0.944803 -0.277494
vn -0.843624 0.211844 0.493376
vn -0.819845 -0.298568 0.488581
vn -0.082379 -0.592886 0.801062
vn -0.133770 0.781865 0.608928
vn -0.401963 0.758481 -0.512965
vn -0.326451 -0.921016 -0.212506
vn -0.819845 -0.298568 0.488581
vn -0.843624 0.211844 0.493376
vn 0.608204 0.772853 -0.181069
vn 0.725565 -0.656525 -0.206228
vn 0.629825 -0.631604 -0.452103
vn 0.561437 0.728501 -0.392524
vn -0.249862 0.930878 0.266526
vn 0.016186 -0.992628 0.120114
vn 0.024508 -0.999606 0.013706
vn -0.276895 0.959240 0.056464
vn 0.128933 0.718453 -0.683521
vn 0.166174 -0.615096 -0.770742
vn -0.125798 -0.597858 -0.791670
vn -0.097627 0.702288 -0.705167
vn 0.103006 0.822218 0.559774
vn 0.066593 -0.942515 0.327462
vn -0.098445 -0.978473 0.181380
vn -0.173479 0.886163 0.429675
vn -0.289664 0.748370 -0.596688
vn -0.364363 -0.628550 -0.687142
vn -0.530315 -0.656565 -0.536366
vn -0.444308 0.755379 -0.481656
vn 0.569046 0.777446 0.267889
vn 0.454503 -0.878323 0.148242
vn 0.272535 -0.929033 0.250246
vn 0.382921 0.810232 0.443730
vn -0.649130 0.755856 -0.085510
vn -0.737549 -0.666955 -0.105795
vn -0.854906 -0.482748 0.189974
vn -0.808027 0.553747 0.201137
vn 0.778722 0.623807 -0.066760
vn 0.664311 -0.747206 -0.019372
vn 0.594988 -0.797145 0.102710
vn 0.704189 0.701106 0.112103
vn -0.444308 0.755379 -0.481656
vn -0.530315 -0.656565 -0.536366
vn -0.664996 -0.685714 -0.295934
vn -0.582588 0.769375 -0.262020
vn 0.652475 0.733325 0.191078
vn 0.546723 -0.825100 0.142493
vn 0.454503 -0.878323 0.148242
vn 0.569046 0.777446 0.267889
vn -0.582588 0.769375 -0.262020
vn -0.664996 -0.685714 -0.295934
vn -0.737549 -0.666955 -0.105795
vn -0.649130 0.755856 -0.085510
vn 0.704189 0.701106 0.112103
vn 0.594988 -0.797145 0.102710
vn 0.546723 -0.825100 0.142493
vn 0.652475 0.733325 0.191078
vn -0.782267 0.529211 0.328624
vn -0.837564 -0.435912 0.329344
vn -0.825874 -0.543221 0.151137
vn -0.690211 0.709248 0.143440
vn 0.958576 0.281952 0.040434
vn 0.942157 -0.333335 0.035045
vn 0.844353 -0.525292 -0.105526
vn 0.892674 0.426193 -0.146606
vn -0.808027 0.553747 0.201137
vn -0.854906 -0.482748 0.189974
vn -0.837564 -0.435912 0.329344
vn -0.782267 0.529211 0.328624
vn 0.892674 0.426193 -0.146606
vn 0.844353 -0.525292 -0.105526
vn 0.664311 -0.747206 -0.019372
vn 0.778722 0.623807 -0.066760
vn 0.029621 0.682356 -0.730420
vn 0.030139 -0.574633 -0.817856
vn -0.968742 -0.234574 -0.080706
vn -0.946177 0.312135 -0.085561
vn -0.756917 0.296923 0.582163
vn -0.796487 -0.321497 0.512102
vn 0.073193 -0.399887 0.913637
vn 0.074483 0.347983 0.934537
vn -0.690211 0.709248 0.143440
vn -0.825874 -0.543221 0.151137
vn -0.320680 -0.758743 -0.566986
vn -0.177543 0.890919 -0.418021
vn 0.725763 0.346121 0.594533
vn 0.729631 -0.393911 0.558993
vn 0.942157 -0.333335 0.035045
vn 0.958576 0.281952 0.040434
vn -0.177543 0.890919 -0.418021
vn -0.320680 -0.758743 -0.566986
vn 0.030139 -0.574633 -0.817856
vn 0.029621 0.682356 -0.730420
vn 0.074483 0.347983 0.934537
vn 0.073193 -0.399887 0.913637
vn 0.729631 -0.393911 0.558993
vn 0.725763 0.346121 0.594533
vn -0.972135 -0.053260 0.228290
vn -0.796487 -0.321497 0.512102
vn -0.756917 0.296923 0.582163
vn -0.967530 0.049858 0.247791
vn -0.946177 0.312135 -0.085561
vn -0.968742 -0.234574 -0.080706
vn 0.788126 -0.090638 -0.608804
vn -0.133180 -0.090638 -0.986939
vn -0.133180 0.090638 -0.986939
vn 0.788126 0.090638 -0.608804
vn -0.133180 -0.090638 -0.986939
vn -0.921304 -0.090638 -0.378131
vn -0.921304 0.090638 -0.378131
vn -0.133180 0.090638 -0.986939
vn -0.921304 -0.090638 -0.378131
vn -0.788124 -0.090638 0.608807
vn -0.788123 0.090638 0.608807
vn -0.921304 0.090638 -0.378131
vn -0.788124 -0.090638 0.608807
vn 0.133181 -0.090638 0.986939
vn 0.133181 0.090638 0.986939
vn -0.788123 0.090638 0.608807
vn 0.133181 -0.090638 0.986939
vn 0.921304 -0.090638 0.378131
vn 0.921304 0.090638 0.378131
vn 0.133181 0.090638 0.986939
vn 0.921304 -0.090638 0.378131
vn 0.788126 -0.090638 -0.608804
vn 0.788126 0.090638 -0.608804
vn 0.921304 0.090638 0.378131
vn -0.133180 -0.090638 -0.986939
vn 0.788126 -0.090638 -0.608804
vn 0.000000 -1.000000 0.000000
vn -0.921304 -0.090638 -0.378131
vn -0.133180 -0.090638 -0.986939
vn 0.000000 -1.000000 0.000000
vn -0.788124 -0.090638 0.608807
vn -0.921304 -0.090638 -0.378131
vn 0.000000 -1.000000 0.000000
vn 0.133181 -0.090638 0.986939
vn -0.788124 -0.090638 0.608807
vn 0.000000 -1.000000 0.000000
vn 0.921304 -0.090638 0.378131
vn 0.133181 -0.090638 0.986939
vn 0.000000 -1.000000 0.000000
vn 0.788126 -0.090638 -0.608804
vn 0.921304 -0.090638 0.378131
vn 0.000000 -1.000000 0.000000
vn 0.788126 0.090638 -0.608804
vn -0.133180 0.090638 -0.986939
vn 0.000000 1.000000 0.000000
vn -0.133180 0.090638 -0.986939
vn -0.921304 0.090638 -0.378131
vn 0.000000 1.000000 0.000000
vn -0.921304 0.090638 -0.378131
vn -0.788123 0.090638 0.608807
vn 0.000000 1.000000 0.000000
vn -0.788123 0.090638 0.608807
vn 0.133181 0.090638 0.986939
vn 0.000000 1.000000 0.000000
vn 0.133181 0.090638 0.986939
vn 0.921304 0.090638 0.378131
vn 0.000000 1.000000 0.000000
vn 0.921304 0.090638 0.378131
vn 0.788126 0.090638 -0.608804
vn 0.000000 1.000000 0.000000
vn 0.326451 -0.921016 -0.212505
vn 0.082379 -0.592886 0.801062
vn -0.388647 -0.735695 0.554713
vn 0.007045 -0.998994 0.044286
vn -0.016186 -0.992628 0.120114
vn -0.629825 -0.631604 -0.452103
vn -0.166174 -0.615096 -0.770742
vn 0.098445 -0.978473 0.181380
vn -0.066593 -0.942515 0.327462
vn 0.123386 -0.602605 -0.788443
vn 0.359122 -0.639766 -0.679507
vn -0.272535 -0.929033 0.250246
vn 0.007846 -0.998915 -0.045910
vn -0.572509 -0.795438 0.198777
vn -0.725565 -0.656525 -0.206228
vn -0.024509 -0.999606 0.013707
vn 0.007045 -0.998994 0.044286
vn -0.388647 -0.735695 0.554713
vn -0.572509 -0.795438 0.198777
vn 0.007846 -0.998915 -0.045910
vn 0.819845 -0.298568 0.488581
vn 0.082379 -0.592886 0.801062
vn 0.326451 -0.921016 -0.212505
vn -0.024509 -0.999606 0.013707
vn -0.725565 -0.656525 -0.206228
vn -0.629825 -0.631604 -0.452103
vn -0.016186 -0.992628 0.120114
vn 0.098445 -0.978473 0.181380
vn -0.166174 -0.615096 -0.770742
vn 0.123386 -0.602605 -0.788443
vn -0.066593 -0.942515 0.327462
vn -0.272535 -0.929033 0.250246
vn 0.359122 -0.639766 -0.679507
vn 0.525813 -0.665122 -0.530221
vn -0.454503 -0.878323 0.148241
vn -0.594974 -0.797238 0.102071
vn 0.736806 -0.667792 -0.105690
vn 0.853966 -0.484680 0.189279
vn -0.665729 -0.745937 -0.019580
vn -0.454503 -0.878323 0.148241
vn 0.525813 -0.665122 -0.530221
vn 0.663459 -0.687748 -0.294659
vn -0.546723 -0.825100 0.142493
vn -0.546723 -0.825100 0.142493
vn 0.663459 -0.687748 -0.294659
vn 0.736806 -0.667792 -0.105690
vn -0.594974 -0.797238 0.102071
vn -0.844858 -0.524329 -0.106276
vn 0.838982 -0.432288 0.330510
vn 0.825875 -0.543221 0.151137
vn -0.942157 -0.333334 0.035044
vn -0.665729 -0.745937 -0.019580
vn 0.853966 -0.484680 0.189279
vn 0.838982 -0.432288 0.330510
vn -0.844858 -0.524329 -0.106276
vn -0.073193 -0.399887 0.913637
vn -0.030139 -0.574634 -0.817856
vn 0.968742 -0.234574 -0.080706
vn 0.796487 -0.321498 0.512102
vn -0.942157 -0.333334 0.035044
vn 0.825875 -0.543221 0.151137
vn 0.320680 -0.758744 -0.566985
vn -0.729630 -0.393911 0.558993
vn -0.729630 -0.393911 0.558993
vn 0.320680 -0.758744 -0.566985
vn -0.030139 -0.574634 -0.817856
vn -0.073193 -0.399887 0.913637
vn 0.796487 -0.321498 0.512102
vn 0.968742 -0.234574 -0.080706
vn 0.972135 -0.053260 0.228290
vn -0.269698 0.860822 0.431565
vn 0.133770 0.781865 0.608928
vn 0.401963 0.758481 -0.512965
vn 0.174196 0.944803 -0.277495
vn -0.128933 0.718453 -0.683521
vn -0.561437 0.728501 -0.392524
vn 0.249862 0.930878 0.266526
vn 0.173479 0.886162 0.429676
vn 0.295336 0.745722 -0.597223
vn 0.104940 0.710239 -0.696095
vn -0.090881 0.825107 0.557619
vn -0.370214 0.822047 0.432643
vn -0.608204 0.772853 -0.181069
vn -0.389434 0.912166 0.127650
vn 0.281117 0.945881 -0.162118
vn 0.276895 0.959240 0.056464
vn -0.389434 0.912166 0.127650
vn -0.269698 0.860822 0.431565
vn 0.174196 0.944803 -0.277495
vn 0.281117 0.945881 -0.162118
vn 0.843624 0.211844 0.493376
vn 0.401963 0.758481 -0.512965
vn 0.133770 0.781865 0.608928
vn -0.561437 0.728501 -0.392524
vn -0.608204 0.772853 -0.181069
vn 0.276895 0.959240 0.056464
vn 0.249862 0.930878 0.266526
vn 0.104940 0.710239 -0.696095
vn -0.128933 0.718453 -0.683521
vn 0.173479 0.886162 0.429676
vn -0.090881 0.825107 0.557619
vn 0.441382 0.755614 -0.483973
vn 0.295336 0.745722 -0.597223
vn -0.370214 0.822047 0.432643
vn -0.567015 0.783746 0.253451
vn 0.808027 0.553747 0.201137
vn 0.649130 0.755856 -0.085509
vn -0.706160 0.699158 0.111875
vn -0.778805 0.623768 -0.066157
vn 0.577229 0.772389 -0.264995
vn 0.441382 0.755614 -0.483973
vn -0.567015 0.783746 0.253451
vn -0.652824 0.734278 0.186164
vn 0.649130 0.755856 -0.085509
vn 0.577229 0.772389 -0.264995
vn -0.652824 0.734278 0.186164
vn -0.706160 0.699158 0.111875
vn 0.690212 0.709248 0.143439
vn 0.782267 0.529211 0.328624
vn -0.891910 0.427528 -0.147363
vn -0.958576 0.281951 0.040434
vn 0.782267 0.529211 0.328624
vn 0.808027 0.553747 0.201137
vn -0.778805 0.623768 -0.066157
vn -0.891910 0.427528 -0.147363
vn 0.946177 0.312135 -0.085561
vn -0.029621 0.682355 -0.730420
vn -0.074483 0.347983 0.934537
vn 0.756917 0.296923 0.582162
vn 0.177543 0.890919 -0.418021
vn 0.690212 0.709248 0.143439
vn -0.958576 0.281951 0.040434
vn -0.725763 0.346121 0.594532
vn -0.029621 0.682355 -0.730420
vn 0.177543 0.890919 -0.418021
vn -0.725763 0.346121 0.594532
vn -0.074483 0.347983 0.934537
vn 0.967530 0.049858 0.247791
vn 0.946177 0.312135 -0.085561
vn 0.756917 0.296923 0.582162
vn 0.133770 0.781865 0.608928
vn -0.269698 0.860822 0.431565
vn -0.388647 -0.735695 0.554713
vn 0.082379 -0.592886 0.801062
vn 0.174196 0.944803 -0.277495
vn 0.401963 0.758481 -0.512965
vn 0.326451 -0.921016 -0.212505
vn 0.007045 -0.998994 0.044286
vn -0.561437 0.728501 -0.392524
vn -0.128933 0.718453 -0.683521
vn -0.166174 -0.615096 -0.770742
vn -0.629825 -0.631604 -0.452103
vn 0.173479 0.886162 0.429676
vn 0.249862 0.930878 0.266526
vn -0.016186 -0.992628 0.120114
vn 0.098445 -0.978473 0.181380
vn 0.104940 0.710239 -0.696095
vn 0.295336 0.745722 -0.597223
vn 0.359122 -0.639766 -0.679507
vn 0.123386 -0.602605 -0.788443
vn -0.370214 0.822047 0.432643
vn -0.090881 0.825107 0.557619
vn -0.066593 -0.942515 0.327462
vn -0.272535 -0.929033 0.250246
vn -0.389434 0.912166 0.127650
vn -0.608204 0.772853 -0.181069
vn -0.725565 -0.656525 -0.206228
vn -0.572509 -0.795438 0.198777
vn 0.276895 0.959240 0.056464
vn 0.281117 0.945881 -0.162118
vn 0.007846 -0.998915 -0.045910
vn -0.024509 -0.999606 0.013707
vn -0.269698 0.860822 0.431565
vn -0.389434 0.912166 0.127650
vn -0.572509 -0.795438 0.198777
vn -0.388647 -0.735695 0.554713
vn 0.281117 0.945881 -0.162118
vn 0.174196 0.944803 -0.277495
vn 0.007045 -0.998994 0.044286
vn 0.007846 -0.998915 -0.045910
vn 0.843624 0.211844 0.493376
vn 0.133770 0.781865 0.608928
vn 0.082379 -0.592886 0.801062
vn 0.819845 -0.298568 0.488581
vn 0.401963 0.758481 -0.512965
vn 0.843624 0.211844 0.493376
vn 0.819845 -0.298568 0.488581
vn 0.326451 -0.921016 -0.212505
vn -0.608204 0.772853 -0.181069
vn -0.561437 0.728501 -0.392524
vn -0.629825 -0.631604 -0.452103
vn -0.725565 -0.656525 -0.206228
vn 0.249862 0.930878 0.266526
vn 0.276895 0.959240 0.056464
vn -0.024509 -0.999606 0.013707
vn -0.016186 -0.992628 0.120114
vn -0.128933 0.718453 -0.683521
vn 0.104940 0.710239 -0.696095
vn 0.123386 -0.602605 -0.788443
vn -0.166174 -0.615096 -0.770742
vn -0.090881 0.825107 0.557619
vn 0.173479 0.886162 0.429676
vn 0.098445 -0.978473 0.181380
vn -0.066593 -0.942515 0.327462
vn 0.295336 0.745722 -0.597223
vn 0.441382 0.755614 -0.483973
vn 0.525813 -0.665122 -0.530221
vn 0.359122 -0.639766 -0.679507
vn -0.567015 0.783746 0.253451
vn -0.370214 0.822047 0.432643
vn -0.272535 -0.929033 0.250246
vn -0.454503 -0.878323 0.148241
vn 0.649130 0.755856 -0.085509
vn 0.808027 0.553747 0.201137
vn 0.853966 -0.484680 0.189279
vn 0.736806 -0.667792 -0.105690
vn -0.778805 0.623768 -0.066157
vn -0.706160 0.699158 0.111875
vn -0.594974 -0.797238 0.102071
vn -0.665729 -0.745937 -0.019580
vn 0.441382 0.755614 -0.483973
vn 0.577229 0.772389 -0.264995
vn 0.663459 -0.687748 -0.294659
vn 0.525813 -0.665122 -0.530221
vn -0.652824 0.734278 0.186164
vn -0.567015 0.783746 0.253451
vn -0.454503 -0.878323 0.148241
vn -0.546723 -0.825100 0.142493
vn 0.577229 0.772389 -0.264995
vn 0.649130 0.755856 -0.085509
vn 0.736806 -0.667792 -0.105690
vn 0.663459 -0.687748 -0.294659
vn -0.706160 0.699158 0.111875
vn -0.652824 0.734278 0.186164
vn -0.546723 -0.825100 0.142493
vn -0.594974 -0.797238 0.102071
vn 0.782267 0.529211 0.328624
vn 0.690212 0.709248 0.143439
vn 0.825875 -0.543221 0.151137
vn 0.838982 -0.432288 0.330510
vn -0.958576 0.281951 0.040434
vn -0.891910 0.427528 -0.147363
vn -0.844858 -0.524329 -0.106276
vn -0.942157 -0.333334 0.035044
vn 0.808027 0.553747 0.201137
vn 0.782267 0.529211 0.328624
vn 0.838982 -0.432288 0.330510
vn 0.853966 -0.484680 0.189279
vn -0.891910 0.427528 -0.147363
vn -0.778805 0.623768 -0.066157
vn -0.665729 -0.745937 -0.019580
vn -0.844858 -0.524329 -0.106276
vn -0.029621 0.682355 -0.730420
vn 0.946177 0.312135 -0.085561
vn 0.968742 -0.234574 -0.080706
vn -0.030139 -0.574634 -0.817856
vn 0.756917 0.296923 0.582162
vn -0.074483 0.347983 0.934537
vn -0.073193 -0.399887 0.913637
vn 0.796487 -0.321498 0.512102
vn 0.690212 0.709248 0.143439
vn 0.177543 0.890919 -0.418021
vn 0.320680 -0.758744 -0.566985
vn 0.825875 -0.543221 0.151137
vn -0.725763 0.346121 0.594532
vn -0.958576 0.281951 0.040434
vn -0.942157 -0.333334 0.035044
vn -0.729630 -0.393911 0.558993
vn 0.177543 0.890919 -0.418021
vn -0.029621 0.682355 -0.730420
vn -0.030139 -0.574634 -0.817856
vn 0.320680 -0.758744 -0.566985
vn -0.074483 0.347983 0.934537
vn -0.725763 0.346121 0.594532
vn -0.729630 -0.393911 0.558993
vn -0.073193 -0.399887 0.913637
vn 0.972135 -0.053260 0.228290
vn 0.968742 -0.234574 -0.080706
vn 0.946177 0.312135 -0.085561
vn 0.967530 0.049858 0.247791
vn 0.756917 0.296923 0.582162
vn 0.796487 -0.321498 0.512102
vn 0.788124 -0.090638 -0.608807
vn -0.133181 -0.090638 -0.986939
vn -0.133181 0.090638 -0.986939
vn 0.788123 0.090638 -0.608807
vn -0.133181 -0.090638 -0.986939
vn -0.921304 -0.090638 -0.378131
vn -0.921304 0.090638 -0.378131
vn -0.133181 0.090638 -0.986939
vn -0.921304 -0.090638 -0.378131
vn -0.788124 -0.090638 0.608807
vn -0.788124 0.090638 0.608807
vn -0.921304 0.090638 -0.378131
vn -0.788124 -0.090638 0.608807
vn 0.133180 -0.090639 0.986939
vn 0.133180 0.090638 0.986939
vn -0.788124 0.090638 0.608807
vn 0.133180 -0.090639 0.986939
vn 0.921304 -0.090639 0.378131
vn 0.921304 0.090638 0.378131
vn 0.133180 0.090638 0.986939
vn 0.921304 -0.090639 0.378131
vn 0.788124 -0.090638 -0.608807
vn 0.788123 0.090638 -0.608807
vn 0.921304 0.090638 0.378131
vn -0.133181 -0.090638 -0.986939
vn 0.788124 -0.090638 -0.608807
vn 0.000000 -1.000000 0.000000
vn -0.921304 -0.090638 -0.378131
vn -0.133181 -0.090638 -0.986939
vn 0.000000 -1.000000 0.000000
vn -0.788124 -0.090638 0.608807
vn -0.921304 -0.090638 -0.378131
vn 0.000000 -1.000000 0.000000
vn 0.133180 -0.090639 0.986939
vn -0.788124 -0.090638 0.608807
vn 0.000000 -1.000000 0.000000
vn 0.921304 -0.090639 0.378131
vn 0.133180 -0.090639 0.986939
vn 0.000000 -1.000000 0.000000
vn 0.788124 -0.090638 -0.608807
vn 0.921304 -0.090639 0.378131
vn 0.000000 -1.000000 0.000000
vn 0.788123 0.090638 -0.608807
vn -0.133181 0.090638 -0.986939
vn 0.000000 1.000000 0.000000
vn -0.133181 0.090638 -0.986939
vn -0.921304 0.090638 -0.378131
vn 0.000000 1.000000 0.000000
vn -0.921304 0.090638 -0.378131
vn -0.788124 0.090638 0.608807
vn 0.000000 1.000000 0.000000
vn -0.788124 0.090638 0.608807
vn 0.133180 0.090638 0.986939
vn 0.000000 1.000000 0.000000
vn 0.133180 0.090638 0.986939
vn 0.921304 0.090638 0.378131
vn 0.000000 1.000000 0.000000
vn 0.921304 0.090638 0.378131
vn 0.788123 0.090638 -0.608807
vn 0.000000 1.000000 0.000000
s off
g polySurface18
usemtl initialShadingGroup
f 1/1/1 2/2/2 3/3/3
f 125/4/4 6/5/5 8/6/6 172/7/7
f 8/6/8 10/8/9 171/9/10 172/7/11
f 21/10/12 22/11/13 168/12/14 169/13/15
f 12/14/16 14/15/17 165/16/18 166/17/19
f 14/15/20 3/18/21 164/19/22 165/16/23
f 3/18/24 2/20/25 163/21/26 164/19/27
f 10/8/28 17/22/29 170/23/30 171/9/31
f 10/24/32 12/25/33 18/26/34 17/27/35
f 18/28/36 12/14/37 166/17/38 167/29/39
f 11/30/40 9/31/41 16/32/42 19/33/43
f 17/22/44 21/10/45 169/13/46 170/23/47
f 17/27/48 18/26/49 22/34/50 21/35/51
f 22/11/52 18/28/53 167/29/54 168/12/55
f 19/33/56 16/32/57 20/36/58 23/37/59
f 25/38/60 24/39/61 5/40/62 7/41/63
f 26/42/64 25/38/65 7/41/66 9/31/67
f 27/43/68 26/42/69 9/31/70 11/30/71
f 28/44/72 27/43/73 11/30/74 13/45/75
f 29/46/76 28/44/77 13/45/78 15/47/79
f 4/48/80 29/46/81 15/47/82
f 30/49/83 1/1/84 3/3/85 14/50/86
f 31/51/87 30/49/88 14/50/89 12/25/90
f 32/52/91 31/51/92 12/25/93 10/24/94
f 33/53/95 32/52/96 10/24/97 8/54/98
f 34/55/99 33/53/100 8/54/101 6/56/102
f 138/57/103 139/58/104 67/59/105 69/60/106
f 35/61/107 34/55/108 6/56/109 37/62/110
f 37/63/111 6/5/112 125/4/113 126/64/114
f 5/40/115 24/39/116 36/65/117 38/66/118
f 39/67/119 35/61/120 37/62/121 41/68/122
f 78/69/123 75/70/124 128/71/125 129/72/126
f 36/65/127 40/73/128 42/74/129 38/66/130
f 43/75/131 39/67/132 41/68/133 45/76/134
f 45/77/135 41/78/136 131/79/137 132/80/138
f 40/73/139 44/81/140 46/82/141 42/74/142
f 47/83/143 43/75/144 45/76/145 49/84/146
f 49/85/147 45/77/148 132/80/149 133/86/150
f 44/81/151 48/87/152 50/88/153 46/82/154
f 48/87/155 52/89/156 54/90/157 50/88/158
f 51/91/159 47/83/160 49/84/161 53/92/162
f 53/93/163 49/85/164 133/86/165 134/94/166
f 55/95/167 51/91/168 53/92/169 57/96/170
f 57/97/171 53/93/172 134/94/173 135/98/174
f 52/89/175 56/99/176 58/100/177 54/90/178
f 59/101/179 55/95/180 57/96/181 61/102/182
f 61/103/183 57/97/184 135/98/185 136/104/186
f 56/99/187 60/105/188 62/106/189 58/100/190
f 60/105/191 64/107/192 66/108/193 62/106/194
f 63/109/195 59/101/196 61/102/197 65/110/198
f 65/111/199 61/103/200 136/104/201 137/112/202
f 67/113/203 63/109/204 65/110/205 69/114/206
f 69/60/207 65/111/208 137/112/209 138/57/210
f 64/107/211 68/115/212 70/116/213 66/108/214
f 71/117/215 37/63/216 126/64/217 127/118/218
f 38/66/219 42/74/220 73/119/221 72/120/222
f 41/78/223 74/121/224 130/122/225 131/79/226
f 41/68/227 37/62/228 71/123/229 74/124/230
f 75/70/231 71/117/232 127/118/233 128/71/234
f 72/120/235 73/119/236 77/125/237 76/126/238
f 74/121/239 78/69/240 129/72/241 130/122/242
f 74/124/243 71/123/244 75/127/245 78/128/246
f 82/129/247 80/130/248 153/131/249 154/132/250
f 84/133/251 82/129/252 154/132/253 155/134/254
f 97/135/255 96/136/256 157/137/257 158/138/258
f 88/139/259 86/140/260 160/141/261 161/142/262
f 90/143/263 88/139/264 161/142/265 162/144/266
f 2/20/267 90/143/268 162/144/269 163/21/270
f 92/145/271 84/133/272 155/134/273 156/146/274
f 84/147/275 92/148/276 93/149/277 86/150/278
f 86/140/279 93/151/280 159/152/281 160/141/282
f 85/153/283 94/154/284 91/155/285 83/156/286
f 96/136/287 92/145/288 156/146/289 157/137/290
f 92/148/291 96/157/292 97/158/293 93/149/294
f 93/151/295 97/135/296 158/138/297 159/152/298
f 94/154/299 98/159/300 95/160/301 91/155/302
f 81/161/303 79/162/304 24/39/305 25/38/306
f 83/156/307 81/161/308 25/38/309 26/42/310
f 27/43/311 85/153/312 83/156/313 26/42/314
f 28/44/315 87/163/316 85/153/317 27/43/318
f 29/46/319 89/164/320 87/163/321 28/44/322
f 90/165/323 2/2/324 1/1/325
f 88/166/326 90/165/327 1/1/328 30/49/329
f 86/150/330 88/166/331 30/49/332 31/51/333
f 84/147/334 86/150/335 31/51/336 32/52/337
f 82/167/338 84/147/339 32/52/340 33/53/341
f 80/168/342 82/167/343 33/53/344 34/55/345
f 115/169/346 67/59/347 139/58/348 140/170/349
f 34/55/350 35/61/351 99/171/352 80/168/353
f 80/130/354 99/172/355 152/173/356 153/131/357
f 79/162/358 100/174/359 36/65/360 24/39/361
f 35/61/362 39/67/363 101/175/364 99/171/365
f 121/176/366 124/177/367 149/178/368 150/179/369
f 100/174/370 102/180/371 40/73/372 36/65/373
f 39/67/374 43/75/375 103/181/376 101/175/377
f 101/182/378 103/183/379 146/184/380 147/185/381
f 102/180/382 104/186/383 44/81/384 40/73/385
f 43/75/386 47/83/387 105/187/388 103/181/389
f 103/183/390 105/188/391 145/189/392 146/184/393
f 104/186/394 106/190/395 48/87/396 44/81/397
f 105/187/398 47/83/399 51/91/400 107/191/401
f 105/188/402 107/192/403 144/193/404 145/189/405
f 106/190/406 108/194/407 52/89/408 48/87/409
f 51/91/410 55/95/411 109/195/412 107/191/413
f 107/192/414 109/196/415 143/197/416 144/193/417
f 108/194/418 110/198/419 56/99/420 52/89/421
f 55/95/422 59/101/423 111/199/424 109/195/425
f 109/196/426 111/200/427 142/201/428 143/197/429
f 110/198/430 112/202/431 60/105/432 56/99/433
f 111/199/434 59/101/435 63/109/436 113/203/437
f 111/200/438 113/204/439 141/205/440 142/201/441
f 112/202/442 114/206/443 64/107/444 60/105/445
f 63/109/446 67/113/447 115/207/448 113/203/449
f 113/204/450 115/169/451 140/170/452 141/205/453
f 114/206/454 116/208/455 68/115/456 64/107/457
f 99/172/458 117/209/459 151/210/460 152/173/461
f 100/174/462 118/211/463 119/212/464 102/180/465
f 120/213/466 101/182/467 147/185/468 148/214/469
f 101/175/470 120/215/471 117/216/472 99/171/473
f 117/209/474 121/176/475 150/179/476 151/210/477
f 118/211/478 122/217/479 123/218/480 119/212/481
f 124/177/482 120/213/483 148/214/484 149/178/485
f 120/215/486 124/219/487 121/220/488 117/216/489
f 126/64/490 125/4/491 5/40/492 38/66/493
f 127/118/494 126/64/495 38/66/496 72/120/497
f 128/71/498 127/118/499 72/120/500 76/126/501
f 129/72/502 128/71/503 76/126/504 77/125/505
f 73/119/506 130/122/507 129/72/508 77/125/509
f 42/74/510 131/79/511 130/122/512 73/119/513
f 132/80/514 131/79/515 42/74/516 46/82/517
f 133/86/518 132/80/519 46/82/520 50/88/521
f 50/88/522 54/90/523 134/94/524 133/86/525
f 135/98/526 134/94/527 54/90/528 58/100/529
f 136/104/530 135/98/531 58/100/532 62/106/533
f 62/106/534 66/108/535 137/112/536 136/104/537
f 138/57/538 137/112/539 66/108/540 70/116/541
f 70/116/542 68/115/543 139/58/544 138/57/545
f 68/115/546 116/208/547 140/170/548 139/58/549
f 141/205/550 140/170/551 116/208/552 114/206/553
f 112/202/554 142/201/555 141/205/556 114/206/557
f 143/197/558 142/201/559 112/202/560 110/198/561
f 144/193/562 143/197/563 110/198/564 108/194/565
f 106/190/566 145/189/567 144/193/568 108/194/569
f 146/184/570 145/189/571 106/190/572 104/186/573
f 147/185/574 146/184/575 104/186/576 102/180/577
f 102/180/578 119/212/579 148/214/580 147/185/581
f 119/212/582 123/218/583 149/178/584 148/214/585
f 150/179/586 149/178/587 123/218/588 122/217/589
f 151/210/590 150/179/591 122/217/592 118/211/593
f 152/173/594 151/210/595 118/211/596 100/174/597
f 153/131/598 152/173/599 100/174/600 79/162/601
f 154/132/602 153/131/603 79/162/604 81/161/605
f 155/134/606 154/132/607 81/161/608 83/156/609
f 83/156/610 91/155/611 156/146/612 155/134/613
f 91/155/614 95/160/615 157/137/616 156/146/617
f 95/160/618 98/159/619 158/138/620 157/137/621
f 159/152/622 158/138/623 98/159/624 94/154/625
f 160/141/626 159/152/627 94/154/628 85/153/629
f 85/153/630 87/163/631 161/142/632 160/141/633
f 87/163/634 89/164/635 162/144/636 161/142/637
f 15/47/638 164/19/639 163/21/640 4/48/641
f 13/45/642 165/16/643 164/19/644 15/47/645
f 11/30/646 166/17/647 165/16/648 13/45/649
f 167/29/650 166/17/651 11/30/652 19/33/653
f 168/12/654 167/29/655 19/33/656 23/37/657
f 20/36/658 169/13/659 168/12/660 23/37/661
f 16/32/662 170/23/663 169/13/664 20/36/665
f 9/31/666 171/9/667 170/23/668 16/32/669
f 172/7/670 171/9/671 9/31/672 7/41/673
f 125/4/674 172/7/675 7/41/676 5/40/677
f 29/46/678 4/48/679 89/164/680
f 89/164/681 4/48/682 163/21/683 162/144/684
f 209/221/685 212/222/686 211/223/687 210/224/688
f 213/225/689 216/226/690 215/227/691 214/228/692
f 218/229/693 220/230/694 219/231/695 217/232/696
f 222/233/697 224/234/698 223/235/699 221/236/700
f 212/222/701 222/233/702 221/236/703 211/223/704
f 225/237/705 209/221/706 210/224/707
f 224/234/708 213/225/709 214/228/710 223/235/711
f 216/226/712 218/229/713 217/232/714 215/227/715
f 220/230/716 227/238/717 226/239/718 219/231/719
f 228/240/720 231/241/721 230/242/722 229/243/723
f 227/238/724 233/244/725 232/245/726 226/239/727
f 233/244/728 228/240/729 229/243/730 232/245/731
f 234/246/732 237/247/733 236/248/734 235/249/735
f 231/241/736 234/246/737 235/249/738 230/242/739
f 238/250/740 241/251/741 240/252/742 239/253/743
f 237/247/744 243/254/745 242/255/746 236/248/747
f 243/254/748 238/250/749 239/253/750 242/255/751
f 241/251/752 244/256/753 240/252/754
f 204/257/755 174/258/756 175/259/757 203/260/758
f 177/261/759 178/262/760 208/263/761 201/264/762
f 207/265/763 179/266/764 199/267/765 200/268/766
f 205/269/767 176/270/768 202/271/769 206/272/770
f 175/259/771 205/269/772 206/272/773 203/260/774
f 173/273/775 174/258/776 204/257/777
f 176/270/778 177/261/779 201/264/780 202/271/781
f 178/262/782 207/265/783 200/268/784 208/263/785
f 179/266/786 180/274/787 198/275/788 199/267/789
f 182/276/790 183/277/791 195/278/792 196/279/793
f 180/274/794 181/280/795 197/281/796 198/275/797
f 181/280/798 182/276/799 196/279/800 197/281/801
f 193/282/802 194/283/803 184/284/804 185/285/805
f 194/283/806 195/278/807 183/277/808 184/284/809
f 190/286/810 191/287/811 187/288/812 188/289/813
f 192/290/814 193/282/815 185/285/816 186/291/817
f 191/287/818 192/290/819 186/291/820 187/288/821
f 189/292/822 190/286/823 188/289/824
f 174/258/825 210/293/826 211/294/827 175/259/828
f 203/260/829 212/295/830 209/296/831 204/257/832
f 177/261/833 214/297/834 215/298/835 178/262/836
f 208/263/837 216/299/838 213/300/839 201/264/840
f 207/265/841 217/301/842 219/302/843 179/266/844
f 199/267/845 220/303/846 218/304/847 200/268/848
f 205/269/849 221/305/850 223/306/851 176/270/852
f 202/271/853 224/307/854 222/308/855 206/272/856
f 175/259/857 211/294/858 221/305/859 205/269/860
f 206/272/861 222/308/862 212/295/863 203/260/864
f 173/273/865 225/309/866 210/293/867 174/258/868
f 204/257/869 209/296/870 225/309/871 173/273/872
f 176/270/873 223/306/874 214/297/875 177/261/876
f 201/264/877 213/300/878 224/307/879 202/271/880
f 178/262/881 215/298/882 217/301/883 207/265/884
f 200/268/885 218/304/886 216/299/887 208/263/888
f 179/266/889 219/302/890 226/310/891 180/274/892
f 198/275/893 227/311/894 220/303/895 199/267/896
f 182/276/897 229/312/898 230/313/899 183/277/900
f 195/278/901 231/314/902 228/315/903 196/279/904
f 180/274/905 226/310/906 232/316/907 181/280/908
f 197/281/909 233/317/910 227/311/911 198/275/912
f 181/280/913 232/316/914 229/312/915 182/276/916
f 196/279/917 228/315/918 233/317/919 197/281/920
f 184/284/921 235/318/922 236/319/923 185/285/924
f 193/282/925 237/320/926 234/321/927 194/283/928
f 183/277/929 230/313/930 235/318/931 184/284/932
f 194/283/933 234/321/934 231/314/935 195/278/936
f 187/288/937 239/322/938 240/323/939 188/289/940
f 190/286/941 241/324/942 238/325/943 191/287/944
f 185/285/945 236/319/946 242/326/947 186/291/948
f 192/290/949 243/327/950 237/320/951 193/282/952
f 186/291/953 242/326/954 239/322/955 187/288/956
f 191/287/957 238/325/958 243/327/959 192/290/960
f 244/328/961 241/324/962 190/286/963 189/292/964 188/289/965 240/323/966
f 245/329/967 246/330/968 252/331/969 251/332/970
f 246/330/971 247/333/972 253/334/973 252/331/974
f 247/333/975 248/335/976 254/336/977 253/334/978
f 248/335/979 249/337/980 255/338/981 254/336/982
f 249/337/983 250/339/984 256/340/985 255/338/986
f 250/339/987 245/329/988 251/332/989 256/340/990
f 246/341/991 245/342/992 257/343/993
f 247/344/994 246/341/995 257/343/996
f 248/345/997 247/344/998 257/343/999
f 249/346/1000 248/345/1001 257/343/1002
f 250/347/1003 249/346/1004 257/343/1005
f 245/342/1006 250/347/1007 257/343/1008
f 251/332/1009 252/331/1010 258/348/1011
f 252/331/1012 253/334/1013 258/348/1014
f 253/334/1015 254/336/1016 258/348/1017
f 254/336/1018 255/338/1019 258/348/1020
f 255/338/1021 256/340/1022 258/348/1023
f 256/340/1024 251/332/1025 258/348/1026
f 295/349/1027 296/350/1028 297/351/1029 298/352/1030
f 299/353/1031 300/354/1032 301/355/1033 302/356/1034
f 304/357/1035 303/358/1036 305/359/1037 306/360/1038
f 308/361/1039 307/362/1040 309/363/1041 310/364/1042
f 298/352/1043 297/351/1044 307/362/1045 308/361/1046
f 311/365/1047 296/350/1048 295/349/1049
f 310/364/1050 309/363/1051 300/354/1052 299/353/1053
f 302/356/1054 301/355/1055 303/358/1056 304/357/1057
f 306/360/1058 305/359/1059 312/366/1060 313/367/1061
f 314/368/1062 315/369/1063 316/370/1064 317/371/1065
f 313/367/1066 312/366/1067 318/372/1068 319/373/1069
f 319/373/1070 318/372/1071 315/369/1072 314/368/1073
f 320/374/1074 321/375/1075 322/376/1076 323/377/1077
f 317/371/1078 316/370/1079 321/375/1080 320/374/1081
f 324/378/1082 325/379/1083 326/380/1084 327/381/1085
f 323/377/1086 322/376/1087 328/382/1088 329/383/1089
f 329/383/1090 328/382/1091 325/379/1092 324/378/1093
f 327/381/1094 326/380/1095 330/384/1096
f 261/385/1097 260/386/1098 290/387/1099 289/388/1100
f 264/389/1101 263/390/1102 287/391/1103 294/392/1104
f 265/393/1105 293/394/1106 286/395/1107 285/396/1108
f 262/397/1109 291/398/1110 292/399/1111 288/400/1112
f 291/398/1113 261/385/1114 289/388/1115 292/399/1116
f 259/401/1117 290/387/1118 260/386/1119
f 263/390/1120 262/397/1121 288/400/1122 287/391/1123
f 293/394/1124 264/389/1125 294/392/1126 286/395/1127
f 266/402/1128 265/393/1129 285/396/1130 284/403/1131
f 269/404/1132 268/405/1133 282/406/1134 281/407/1135
f 267/408/1136 266/402/1137 284/403/1138 283/409/1139
f 268/405/1140 267/408/1141 283/409/1142 282/406/1143
f 271/410/1144 270/411/1145 280/412/1146 279/413/1147
f 270/411/1148 269/404/1149 281/407/1150 280/412/1151
f 274/414/1152 273/415/1153 277/416/1154 276/417/1155
f 272/418/1156 271/410/1157 279/413/1158 278/419/1159
f 273/415/1160 272/418/1161 278/419/1162 277/416/1163
f 275/420/1164 274/414/1165 276/417/1166
f 260/386/1167 261/385/1168 297/421/1169 296/422/1170
f 289/388/1171 290/387/1172 295/423/1173 298/424/1174
f 263/390/1175 264/389/1176 301/425/1177 300/426/1178
f 294/392/1179 287/391/1180 299/427/1181 302/428/1182
f 293/394/1183 265/393/1184 305/429/1185 303/430/1186
f 285/396/1187 286/395/1188 304/431/1189 306/432/1190
f 291/398/1191 262/397/1192 309/433/1193 307/434/1194
f 288/400/1195 292/399/1196 308/435/1197 310/436/1198
f 261/385/1199 291/398/1200 307/434/1201 297/421/1202
f 292/399/1203 289/388/1204 298/424/1205 308/435/1206
f 259/401/1207 260/386/1208 296/422/1209 311/437/1210
f 290/387/1211 259/401/1212 311/437/1213 295/423/1214
f 262/397/1215 263/390/1216 300/426/1217 309/433/1218
f 287/391/1219 288/400/1220 310/436/1221 299/427/1222
f 264/389/1223 293/394/1224 303/430/1225 301/425/1226
f 286/395/1227 294/392/1228 302/428/1229 304/431/1230
f 265/393/1231 266/402/1232 312/438/1233 305/429/1234
f 284/403/1235 285/396/1236 306/432/1237 313/439/1238
f 268/405/1239 269/404/1240 316/440/1241 315/441/1242
f 281/407/1243 282/406/1244 314/442/1245 317/443/1246
f 266/402/1247 267/408/1248 318/444/1249 312/438/1250
f 283/409/1251 284/403/1252 313/439/1253 319/445/1254
f 267/408/1255 268/405/1256 315/441/1257 318/444/1258
f 282/406/1259 283/409/1260 319/445/1261 314/442/1262
f 270/411/1263 271/410/1264 322/446/1265 321/447/1266
f 279/413/1267 280/412/1268 320/448/1269 323/449/1270
f 269/404/1271 270/411/1272 321/447/1273 316/440/1274
f 280/412/1275 281/407/1276 317/443/1277 320/448/1278
f 273/415/1279 274/414/1280 326/450/1281 325/451/1282
f 276/417/1283 277/416/1284 324/452/1285 327/453/1286
f 271/410/1287 272/418/1288 328/454/1289 322/446/1290
f 278/419/1291 279/413/1292 323/449/1293 329/455/1294
f 272/418/1295 273/415/1296 325/451/1297 328/454/1298
f 277/416/1299 278/419/1300 329/455/1301 324/452/1302
f 330/456/1303 326/450/1304 274/414/1305 275/420/1306 276/417/1307 327/453/1308
f 331/457/1309 332/458/1310 338/459/1311 337/460/1312
f 332/458/1313 333/461/1314 339/462/1315 338/459/1316
f 333/461/1317 334/463/1318 340/464/1319 339/462/1320
f 334/463/1321 335/465/1322 341/466/1323 340/464/1324
f 335/465/1325 336/467/1326 342/468/1327 341/466/1328
f 336/467/1329 331/457/1330 337/460/1331 342/468/1332
f 332/469/1333 331/470/1334 343/471/1335
f 333/472/1336 332/469/1337 343/471/1338
f 334/473/1339 333/472/1340 343/471/1341
f 335/474/1342 334/473/1343 343/471/1344
f 336/475/1345 335/474/1346 343/471/1347
f 331/470/1348 336/475/1349 343/471/1350
f 337/460/1351 338/459/1352 344/476/1353
f 338/459/1354 339/462/1355 344/476/1356
f 339/462/1357 340/464/1358 344/476/1359
f 340/464/1360 341/466/1361 344/476/1362
f 341/466/1363 342/468/1364 344/476/1365
f 342/468/1366 337/460/1367 344/476/1368
