# This file uses centimeters as units for non-parametric coordinates.

mtllib handheld_ballista.mtl
g default
v -0.046883 1.041698 -0.828889
v -0.041617 1.041698 -0.982491
v 0.116025 1.041698 -0.828889
v -0.039629 1.178603 -0.982491
v -0.658164 1.123922 0.003990
v -0.685969 1.123922 -0.007422
v -0.709755 1.123922 0.010952
v -0.705736 1.123922 0.040739
v -0.677930 1.123922 0.052151
v -0.654145 1.123922 0.033777
v -0.658164 1.234003 0.003990
v -0.685969 1.234003 -0.007422
v -0.709755 1.234003 0.010952
v -0.705736 1.234003 0.040739
v -0.677930 1.234003 0.052151
v -0.654145 1.234003 0.033777
v -0.681950 1.123922 0.022364
v -0.681950 1.234003 0.022364
v 0.625000 1.123922 0.000294
v 0.597194 1.123922 -0.011118
v 0.573409 1.123922 0.007256
v 0.577428 1.123922 0.037043
v 0.605233 1.123922 0.048455
v 0.629019 1.123922 0.030081
v 0.625000 1.234003 0.000294
v 0.597194 1.234003 -0.011118
v 0.573409 1.234003 0.007256
v 0.577428 1.234003 0.037043
v 0.605233 1.234003 0.048455
v 0.629019 1.234003 0.030081
v 0.601214 1.123922 0.018668
v 0.601214 1.234003 0.018668
v 0.293716 1.128260 -0.419882
v 0.241180 1.128168 -0.375773
v 0.134864 1.128082 -0.403556
v 0.085632 1.128065 -0.553568
v 0.176202 1.151901 -0.705441
v 0.222199 1.151932 -0.723036
v 0.424231 1.152362 -0.687930
v 0.557874 1.162620 -0.595245
v 0.626927 1.174600 -0.482662
v 0.651772 1.177704 -0.356270
v 0.647857 1.177575 -0.268216
v 0.593716 1.177160 -0.129411
v 0.557677 1.176829 -0.053659
v 0.572570 1.176677 -0.024451
v 0.605069 1.176672 -0.033722
v 0.645016 1.176585 -0.027412
v 0.650258 1.176479 0.020129
v 0.623078 1.176462 0.065978
v 0.560574 1.176462 0.088577
v 0.509157 1.176475 0.056885
v 0.486651 1.176617 -0.001705
v 0.502419 1.177130 -0.103264
v 0.518902 1.176257 -0.197540
v 0.515846 1.172602 -0.280648
v 0.479998 1.165298 -0.388833
v 0.437654 1.158460 -0.500976
v 0.363070 1.152492 -0.594915
v 0.279795 1.148352 -0.614007
v 0.219707 1.135142 -0.574836
v 0.209413 1.128174 -0.516476
v 0.241374 1.128212 -0.460922
v 0.290125 1.128272 -0.447248
v 0.097463 1.128069 -0.465491
v 0.224782 1.128195 -0.488477
v 0.319923 1.152058 -0.725370
v 0.250496 1.144280 -0.607455
v 0.290125 1.055723 -0.447248
v 0.241180 1.094371 -0.375773
v 0.134864 1.094457 -0.403556
v 0.241374 1.055782 -0.460922
v 0.219707 1.048852 -0.574836
v 0.176202 1.070637 -0.705441
v 0.222199 1.070607 -0.723036
v 0.250496 1.039713 -0.607455
v 0.319923 1.070481 -0.725370
v 0.279795 1.035643 -0.614007
v 0.424231 1.070177 -0.687930
v 0.363070 1.031502 -0.594915
v 0.097463 1.094469 -0.465491
v 0.224782 1.055799 -0.488477
v 0.085632 1.094473 -0.553568
v 0.209413 1.055820 -0.516476
v 0.293716 1.055734 -0.419882
v 0.557874 1.059918 -0.595245
v 0.437654 1.025535 -0.500976
v 0.515846 1.011392 -0.280648
v 0.651772 1.044834 -0.356270
v 0.647857 1.044963 -0.268216
v 0.518948 1.007671 -0.195464
v 0.626927 1.047939 -0.482662
v 0.479998 1.018697 -0.388833
v 0.502419 1.006864 -0.103264
v 0.593716 1.045379 -0.129411
v 0.557677 1.045710 -0.053659
v 0.486651 1.007378 -0.001705
v 0.560574 1.007532 0.088577
v 0.605069 1.045866 -0.033722
v 0.645016 1.045953 -0.027412
v 0.623078 1.007532 0.065978
v 0.572570 1.045861 -0.024451
v 0.509157 1.007519 0.056885
v 0.650258 1.007514 0.020129
v -0.377902 1.128260 -0.419882
v -0.325366 1.128168 -0.375773
v -0.219051 1.128082 -0.403556
v -0.169818 1.128065 -0.553568
v -0.260388 1.151901 -0.705441
v -0.306386 1.151932 -0.723036
v -0.508421 1.157373 -0.687932
v -0.642060 1.166013 -0.595245
v -0.711114 1.174600 -0.482662
v -0.735959 1.177704 -0.356270
v -0.732043 1.177575 -0.268216
v -0.677903 1.177160 -0.129411
v -0.641863 1.176829 -0.053659
v -0.656756 1.176677 -0.024451
v -0.689255 1.176672 -0.033722
v -0.729203 1.176585 -0.027412
v -0.734445 1.176479 0.020129
v -0.707265 1.176462 0.065978
v -0.644760 1.176462 0.088577
v -0.593343 1.176475 0.056885
v -0.570838 1.176617 -0.001705
v -0.586606 1.177130 -0.103264
v -0.603088 1.176257 -0.197540
v -0.600033 1.172602 -0.280648
v -0.564185 1.165298 -0.388833
v -0.521841 1.158460 -0.500976
v -0.447257 1.152492 -0.594915
v -0.363981 1.148352 -0.614007
v -0.303893 1.135142 -0.574836
v -0.293599 1.128174 -0.516476
v -0.325560 1.128212 -0.460922
v -0.374311 1.128272 -0.447248
v -0.181649 1.128069 -0.465491
v -0.308968 1.128195 -0.488477
v -0.404109 1.152058 -0.725370
v -0.334682 1.144280 -0.607455
v -0.374311 1.055723 -0.447248
v -0.325366 1.094371 -0.375773
v -0.219051 1.094457 -0.403556
v -0.325560 1.055782 -0.460922
v -0.303893 1.048852 -0.574836
v -0.260388 1.070637 -0.705441
v -0.306386 1.070607 -0.723036
v -0.334682 1.039713 -0.607455
v -0.404109 1.070481 -0.725370
v -0.363981 1.035643 -0.614007
v -0.508418 1.070177 -0.687930
v -0.447257 1.031502 -0.594915
v -0.181649 1.094469 -0.465491
v -0.308968 1.055799 -0.488477
v -0.169818 1.094473 -0.553568
v -0.293599 1.055820 -0.516476
v -0.377902 1.055734 -0.419882
v -0.642060 1.059918 -0.595245
v -0.521841 1.025535 -0.500976
v -0.600033 1.011392 -0.280648
v -0.735959 1.044834 -0.356270
v -0.732043 1.044963 -0.268216
v -0.603088 1.007737 -0.197540
v -0.711114 1.047939 -0.482662
v -0.564185 1.018697 -0.388833
v -0.586606 1.006864 -0.103264
v -0.677903 1.045379 -0.129411
v -0.641863 1.045710 -0.053659
v -0.570838 1.007378 -0.001705
v -0.644760 1.007532 0.088577
v -0.689255 1.045866 -0.033722
v -0.729203 1.045953 -0.027412
v -0.707265 1.007532 0.065978
v -0.656756 1.045861 -0.024451
v -0.593343 1.007519 0.056885
v -0.734445 1.007514 0.020129
v 0.025748 1.130403 -0.389539
v 0.025748 1.088676 -0.389539
v 0.056403 1.136291 -0.508497
v 0.056403 1.082788 -0.508497
v 0.173017 1.175817 -0.706984
v 0.173017 1.043261 -0.706984
v 0.039649 1.175056 -0.729686
v 0.039649 1.044023 -0.729686
v 0.041616 1.176092 -0.753758
v 0.041616 1.042239 -0.753758
v 0.116025 1.177381 -0.828889
v 0.173097 1.177101 -0.731683
v 0.173097 1.041978 -0.731683
v 0.081814 1.042059 -0.756924
v 0.081814 1.177020 -0.756924
v 0.159067 1.177317 -0.747454
v 0.159067 1.041762 -0.747454
v 0.111381 1.041698 -0.768871
v 0.111381 1.177381 -0.768871
v -0.042093 1.130075 -0.389539
v -0.042093 1.135729 -0.508497
v -0.042093 1.172221 -0.706984
v -0.042093 1.171791 -0.729686
v -0.042093 1.165720 -0.753758
v -0.042093 1.144782 -0.828889
v -0.042093 1.042258 -0.753758
v -0.042093 1.044078 -0.729686
v -0.042093 1.046825 -0.706984
v -0.042093 1.083350 -0.508497
v -0.042093 1.089004 -0.389539
v -0.042093 1.046101 -0.217072
v -0.042093 1.172978 -0.217072
v 0.020472 1.046094 -0.217072
v 0.020472 1.172985 -0.217072
v -0.042093 1.041698 -0.008369
v -0.042093 1.177381 -0.008369
v 0.059826 1.041698 -0.008369
v 0.059826 1.177381 -0.008369
v -0.042093 1.041698 0.056828
v -0.042093 1.177381 0.056828
v 0.044324 1.041698 0.056828
v 0.044324 1.177381 0.056828
v -0.042093 1.041698 0.200835
v -0.042093 1.165131 0.200835
v 0.044324 1.041698 0.200835
v 0.044324 1.175087 0.200835
v -0.042093 1.039201 0.330499
v -0.042093 1.147560 0.330499
v 0.089314 1.041698 0.330499
v 0.089314 1.175629 0.330499
v -0.042093 1.039201 0.415985
v -0.042093 1.147560 0.415985
v 0.133036 1.041698 0.415985
v 0.133036 1.177381 0.415985
v -0.042093 1.039201 0.482538
v -0.042093 1.147560 0.482538
v 0.133036 1.041698 0.482538
v 0.133036 1.177381 0.482538
v -0.042093 1.040339 0.908247
v -0.042093 1.157820 0.908247
v 0.037123 1.041626 0.908247
v 0.037123 1.167130 0.908247
v -0.042093 1.040429 0.924312
v -0.042093 1.158283 0.924312
v 0.013358 1.041240 0.924312
v 0.013358 1.163249 0.924312
v 0.030387 1.049613 -0.237245
v 0.030387 1.169466 -0.237245
v 0.107603 1.177381 -0.124260
v 0.107603 1.041698 -0.124260
v 0.095544 1.050004 -0.255419
v 0.095544 1.169075 -0.255419
v 0.127663 1.175317 -0.216542
v 0.127663 1.043762 -0.216542
v -0.109935 1.130403 -0.389539
v -0.109935 1.088676 -0.389539
v -0.140589 1.136291 -0.508497
v -0.140589 1.082788 -0.508497
v -0.257203 1.175817 -0.706984
v -0.257203 1.043261 -0.706984
v -0.123835 1.175056 -0.729686
v -0.123835 1.044023 -0.729686
v -0.125803 1.176092 -0.753758
v -0.125803 1.042239 -0.753758
v -0.200211 1.177381 -0.828889
v -0.200211 1.041698 -0.828889
v -0.257284 1.177101 -0.731683
v -0.257284 1.041978 -0.731683
v -0.166001 1.042059 -0.756924
v -0.166001 1.177020 -0.756924
v -0.243253 1.177317 -0.747454
v -0.243253 1.041762 -0.747454
v -0.195568 1.041698 -0.768871
v -0.195568 1.177381 -0.768871
v -0.104658 1.046094 -0.217072
v -0.104658 1.172985 -0.217072
v -0.144012 1.041698 -0.008369
v -0.144012 1.177381 -0.008369
v -0.128510 1.041698 0.056828
v -0.128510 1.177381 0.056828
v -0.128510 1.041698 0.200835
v -0.128510 1.175087 0.200835
v -0.173501 1.041698 0.330499
v -0.173501 1.175629 0.330499
v -0.217222 1.041698 0.415985
v -0.217222 1.177381 0.415985
v -0.217222 1.041698 0.482538
v -0.217222 1.177381 0.482538
v -0.121309 1.041626 0.908247
v -0.121309 1.167130 0.908247
v -0.097544 1.041240 0.924312
v -0.097544 1.163249 0.924312
v -0.114574 1.049613 -0.237245
v -0.114574 1.169466 -0.237245
v -0.191789 1.177381 -0.124260
v -0.191789 1.041698 -0.124260
v -0.179730 1.050004 -0.255419
v -0.179730 1.169075 -0.255419
v -0.211849 1.175317 -0.216542
v -0.211849 1.043762 -0.216542
v 0.025748 1.127401 -0.389539
v 0.020472 1.163856 -0.217072
v 0.030387 1.160843 -0.237245
v 0.095544 1.160509 -0.255419
v 0.127663 1.165853 -0.216542
v 0.107603 1.167620 -0.124260
v 0.059826 1.167620 -0.008369
v 0.044324 1.167620 0.056828
v 0.044324 1.165484 0.200835
v 0.089314 1.165824 0.330499
v 0.133036 1.167620 0.415985
v 0.133036 1.167620 0.482538
v 0.037123 1.157482 0.908247
v 0.013358 1.153626 0.924312
v -0.042093 1.148691 0.924312
v -0.097544 1.153626 0.924312
v -0.121309 1.157482 0.908247
v -0.217222 1.167620 0.482538
v -0.217222 1.167620 0.415985
v -0.173501 1.165824 0.330499
v -0.128510 1.165484 0.200835
v -0.128510 1.167620 0.056828
v -0.144012 1.167620 -0.008369
v -0.191789 1.167620 -0.124260
v -0.211849 1.165853 -0.216542
v -0.179730 1.160509 -0.255419
v -0.114574 1.160843 -0.237245
v -0.104658 1.163856 -0.217072
v -0.109935 1.127401 -0.389539
v -0.140589 1.132441 -0.508497
v -0.257203 1.166281 -0.706984
v -0.257284 1.167380 -0.731683
v -0.243253 1.167565 -0.747454
v -0.195568 1.167620 -0.768871
v -0.166001 1.167311 -0.756924
v -0.123835 1.165629 -0.729686
v -0.125803 1.166465 -0.753758
v -0.200211 1.167620 -0.828889
v -0.040105 1.152588 -0.982491
v 0.116025 1.167620 -0.828889
v 0.041616 1.166465 -0.753758
v 0.039649 1.165629 -0.729686
v 0.081814 1.167311 -0.756924
v 0.111381 1.167620 -0.768871
v 0.159067 1.167565 -0.747454
v 0.173097 1.167380 -0.731683
v 0.173017 1.166281 -0.706984
v 0.056403 1.132441 -0.508497
vt 0.283164 0.610948
vt 0.281528 0.642308
vt 0.249884 0.610357
vt 0.452738 0.589193
vt 0.506919 0.594338
vt 0.502829 0.633611
vt 0.484406 0.612706
vt 0.529840 0.643795
vt 0.493990 0.660038
vt 0.498080 0.688250
vt 0.466428 0.664816
vt 0.443901 0.683105
vt 0.448011 0.643856
vt 0.420984 0.633648
vt 0.456913 0.617482
vt 0.535464 0.569601
vt 0.558584 0.579090
vt 0.538807 0.594367
vt 0.515687 0.584878
vt 0.519029 0.609645
vt 0.542149 0.619134
vt 0.561926 0.603856
vt 0.475411 0.638817
vt 0.368592 0.514743
vt 0.422775 0.519887
vt 0.418684 0.559160
vt 0.400261 0.538255
vt 0.445694 0.569344
vt 0.409845 0.585587
vt 0.413934 0.613799
vt 0.382283 0.590366
vt 0.359756 0.608654
vt 0.363865 0.569405
vt 0.336839 0.559197
vt 0.372767 0.543031
vt 0.469481 0.538661
vt 0.492601 0.548150
vt 0.472824 0.563428
vt 0.449705 0.553939
vt 0.453047 0.578705
vt 0.476166 0.588194
vt 0.495943 0.572917
vt 0.391266 0.564366
vt 0.462178 0.872305
vt 0.478431 0.866773
vt 0.490344 0.882698
vt 0.467550 0.879730
vt 0.458602 0.898781
vt 0.452454 0.923245
vt 0.443699 0.921576
vt 0.450473 0.900382
vt 0.445346 0.898438
vt 0.428299 0.912866
vt 0.415301 0.897590
vt 0.434197 0.887697
vt 0.467063 0.885531
vt 0.489264 0.895748
vt 0.481936 0.910066
vt 0.466361 0.891269
vt 0.464214 0.867744
vt 0.402661 0.870942
vt 0.430613 0.866259
vt 0.437614 0.824451
vt 0.408820 0.824705
vt 0.416874 0.810935
vt 0.444499 0.810629
vt 0.401834 0.846954
vt 0.433751 0.844756
vt 0.454928 0.797262
vt 0.436905 0.792882
vt 0.448765 0.783403
vt 0.466108 0.782395
vt 0.463694 0.761258
vt 0.443562 0.775316
vt 0.438298 0.770230
vt 0.452198 0.757716
vt 0.449278 0.777491
vt 0.468182 0.771226
vt 0.442851 0.760100
vt 0.511723 0.986907
vt 0.487969 0.974964
vt 0.488420 0.955527
vt 0.501910 0.952403
vt 0.584629 0.935227
vt 0.578115 0.944219
vt 0.539104 0.930581
vt 0.551768 0.918728
vt 0.606266 0.888874
vt 0.595191 0.914541
vt 0.558167 0.909119
vt 0.571152 0.880380
vt 0.548193 0.973728
vt 0.529326 0.983431
vt 0.511409 0.947774
vt 0.521382 0.943651
vt 0.483868 0.960939
vt 0.623132 0.847387
vt 0.575714 0.839948
vt 0.622892 0.754782
vt 0.626747 0.778081
vt 0.582645 0.763689
vt 0.583726 0.737781
vt 0.628005 0.812807
vt 0.578399 0.800244
vt 0.601642 0.692800
vt 0.609711 0.715582
vt 0.581505 0.710883
vt 0.575019 0.685749
vt 0.605403 0.664509
vt 0.605943 0.675123
vt 0.579977 0.663595
vt 0.590051 0.658487
vt 0.602207 0.683030
vt 0.574828 0.672741
vt 0.599520 0.657501
vt 0.509861 0.996657
vt 0.479446 0.981623
vt 0.472964 0.945882
vt 0.487847 0.934574
vt 0.605170 0.948994
vt 0.596203 0.960700
vt 0.518095 0.913007
vt 0.523551 0.901101
vt 0.630639 0.897722
vt 0.617955 0.925100
vt 0.526547 0.892950
vt 0.534506 0.869704
vt 0.553659 0.982892
vt 0.531788 0.993385
vt 0.497399 0.929729
vt 0.506195 0.925092
vt 0.467623 0.955138
vt 0.653841 0.854472
vt 0.536323 0.834713
vt 0.661788 0.744035
vt 0.666383 0.772436
vt 0.532367 0.761026
vt 0.530664 0.733816
vt 0.666122 0.813885
vt 0.534470 0.797136
vt 0.638481 0.672482
vt 0.647518 0.698799
vt 0.530743 0.702956
vt 0.533062 0.669489
vt 0.617581 0.636976
vt 0.628815 0.649581
vt 0.556420 0.629796
vt 0.579642 0.617569
vt 0.634607 0.661431
vt 0.541527 0.647872
vt 0.600645 0.619793
vt 0.473194 0.808561
vt 0.471413 0.817284
vt 0.452423 0.829039
vt 0.456592 0.810171
vt 0.486961 0.830565
vt 0.494799 0.828728
vt 0.509282 0.844777
vt 0.502200 0.849760
vt 0.498559 0.824954
vt 0.504128 0.810981
vt 0.524816 0.812172
vt 0.519426 0.830900
vt 0.474166 0.822225
vt 0.477085 0.827023
vt 0.470825 0.849899
vt 0.458604 0.840159
vt 0.469566 0.805338
vt 0.498716 0.790569
vt 0.525335 0.783521
vt 0.475778 0.756362
vt 0.464433 0.747112
vt 0.488725 0.736093
vt 0.501369 0.745058
vt 0.487328 0.772790
vt 0.516462 0.761955
vt 0.449561 0.739233
vt 0.433712 0.730548
vt 0.449468 0.724496
vt 0.463763 0.728139
vt 0.427386 0.710871
vt 0.436144 0.703132
vt 0.453459 0.708644
vt 0.450836 0.715254
vt 0.427404 0.721492
vt 0.446647 0.719469
vt 0.445373 0.701500
vt 0.435452 0.953437
vt 0.435322 0.972884
vt 0.411225 0.984126
vt 0.422056 0.949919
vt 0.346055 0.939547
vt 0.339743 0.930360
vt 0.373125 0.914852
vt 0.385470 0.927052
vt 0.329468 0.909332
vt 0.319842 0.883091
vt 0.355064 0.875965
vt 0.366994 0.905071
vt 0.393737 0.980134
vt 0.375171 0.969891
vt 0.402836 0.940612
vt 0.412693 0.945018
vt 0.439842 0.958984
vt 0.304131 0.841198
vt 0.351757 0.835412
vt 0.302857 0.771600
vt 0.307796 0.748374
vt 0.347740 0.733347
vt 0.347526 0.759314
vt 0.300133 0.806406
vt 0.350342 0.795806
vt 0.359202 0.681602
vt 0.351211 0.706024
vt 0.322927 0.709628
vt 0.332196 0.687149
vt 0.345849 0.653587
vt 0.355607 0.659266
vt 0.328962 0.669258
vt 0.330142 0.658697
vt 0.360193 0.668680
vt 0.332217 0.677364
vt 0.336445 0.652047
vt 0.443639 0.979799
vt 0.412786 0.993929
vt 0.436618 0.932489
vt 0.451176 0.944237
vt 0.327570 0.955552
vt 0.318964 0.943652
vt 0.401871 0.898048
vt 0.406981 0.910069
vt 0.306747 0.919651
vt 0.293517 0.891736
vt 0.391977 0.866425
vt 0.399125 0.889843
vt 0.390975 0.990008
vt 0.369444 0.978890
vt 0.418535 0.922477
vt 0.427202 0.927364
vt 0.456246 0.953655
vt 0.272180 0.847081
vt 0.391311 0.831430
vt 0.263547 0.764044
vt 0.269497 0.735690
vt 0.400279 0.732177
vt 0.397688 0.758155
vt 0.261935 0.805698
vt 0.394390 0.794053
vt 0.286102 0.690857
vt 0.296642 0.664881
vt 0.402282 0.668142
vt 0.402656 0.701954
vt 0.307671 0.642491
vt 0.319658 0.630540
vt 0.358761 0.613415
vt 0.381252 0.627028
vt 0.301172 0.654020
vt 0.395077 0.645997
vt 0.337630 0.614389
vt 0.164662 0.727709
vt 0.178076 0.728318
vt 0.198407 0.765735
vt 0.179175 0.772172
vt 0.256972 0.843373
vt 0.216159 0.840817
vt 0.253260 0.863249
vt 0.244211 0.882585
vt 0.206946 0.861102
vt 0.216616 0.852210
vt 0.224582 0.902689
vt 0.221832 0.909536
vt 0.180606 0.874584
vt 0.181919 0.867250
vt 0.212788 0.943353
vt 0.183281 0.910429
vt 0.142186 0.986123
vt 0.142220 0.952325
vt 0.255405 0.854385
vt 0.217612 0.846930
vt 0.238672 0.585283
vt 0.265846 0.590356
vt 0.257137 0.595792
vt 0.238571 0.590335
vt 0.236382 0.891579
vt 0.197301 0.863200
vt 0.175765 0.862249
vt 0.213356 0.842118
vt 0.215183 0.847274
vt 0.196202 0.860106
vt 0.251056 0.598136
vt 0.241385 0.593603
vt 0.214054 0.851305
vt 0.205680 0.859045
vt 0.138916 0.773850
vt 0.138129 0.727448
vt 0.163577 0.727720
vt 0.177670 0.772636
vt 0.140366 0.857302
vt 0.140503 0.863972
vt 0.140642 0.871001
vt 0.176461 0.873437
vt 0.140954 0.891188
vt 0.181205 0.908173
vt 0.142132 0.943568
vt 0.282460 0.595579
vt 0.265358 0.595279
vt 0.282548 0.590645
vt 0.282631 0.585971
vt 0.283368 0.544736
vt 0.263251 0.544388
vt 0.283802 0.520414
vt 0.269944 0.520161
vt 0.144699 0.235608
vt 0.125823 0.232398
vt 0.125121 0.201107
vt 0.156170 0.204062
vt 0.284451 0.484112
vt 0.271668 0.483884
vt 0.210338 0.683107
vt 0.166305 0.661121
vt 0.136555 0.658481
vt 0.162882 0.658043
vt 0.285212 0.441466
vt 0.264391 0.441094
vt 0.236603 0.634136
vt 0.229406 0.654244
vt 0.193618 0.647252
vt 0.196275 0.633407
vt 0.134177 0.572250
vt 0.169818 0.569435
vt 0.285450 0.428147
vt 0.267796 0.427832
vt 0.217264 0.536802
vt 0.220531 0.558199
vt 0.173661 0.568086
vt 0.170219 0.543725
vt 0.133576 0.545879
vt 0.166459 0.544297
vt 0.285976 0.398728
vt 0.268321 0.398412
vt 0.220060 0.487892
vt 0.171813 0.489137
vt 0.132387 0.490460
vt 0.167964 0.489011
vt 0.131317 0.443295
vt 0.182413 0.437541
vt 0.286449 0.372235
vt 0.259599 0.371758
vt 0.231835 0.438544
vt 0.186087 0.437967
vt 0.286761 0.354772
vt 0.250980 0.354133
vt 0.240857 0.399478
vt 0.195331 0.404034
vt 0.130639 0.413089
vt 0.192158 0.404160
vt 0.287004 0.341176
vt 0.251223 0.340537
vt 0.242173 0.369352
vt 0.195879 0.380690
vt 0.129860 0.388934
vt 0.192531 0.381907
vt 0.126049 0.241479
vt 0.149800 0.242582
vt 0.288557 0.254207
vt 0.272372 0.253917
vt 0.172039 0.209903
vt 0.152462 0.241137
vt 0.288616 0.250925
vt 0.277286 0.250722
vt 0.125908 0.235777
vt 0.143691 0.237913
vt 0.214024 0.676971
vt 0.173515 0.659092
vt 0.184959 0.608066
vt 0.170367 0.657548
vt 0.232682 0.599216
vt 0.188444 0.607226
vt 0.269547 0.488020
vt 0.254199 0.464592
vt 0.193548 0.633814
vt 0.191655 0.646302
vt 0.256173 0.491509
vt 0.249730 0.483368
vt 0.079059 0.767742
vt 0.098215 0.729859
vt 0.111596 0.728737
vt 0.098566 0.773511
vt 0.022763 0.848007
vt 0.064100 0.843019
vt 0.038984 0.885599
vt 0.027298 0.868096
vt 0.064297 0.853992
vt 0.073331 0.863269
vt 0.061129 0.911474
vt 0.058354 0.904688
vt 0.099320 0.868483
vt 0.100931 0.875719
vt 0.070804 0.945073
vt 0.099379 0.911450
vt 0.024588 0.859178
vt 0.063110 0.848979
vt 0.326588 0.586853
vt 0.326508 0.591905
vt 0.307759 0.596696
vt 0.299249 0.590953
vt 0.046686 0.893701
vt 0.083628 0.865241
vt 0.105238 0.863298
vt 0.084622 0.862086
vt 0.065466 0.849273
vt 0.066952 0.844230
vt 0.323579 0.595071
vt 0.313752 0.599256
vt 0.074813 0.861112
vt 0.066670 0.853229
vt 0.100093 0.773908
vt 0.112681 0.728710
vt 0.105005 0.874444
vt 0.101393 0.909137
vt 0.314487 0.611510
vt 0.299562 0.595890
vt 0.303484 0.545107
vt 0.297661 0.520656
vt 0.094212 0.205527
vt 0.107122 0.236488
vt 0.297233 0.484340
vt 0.064501 0.685793
vt 0.107054 0.662653
vt 0.110261 0.659391
vt 0.306034 0.441838
vt 0.043345 0.660244
vt 0.035047 0.640165
vt 0.075451 0.635984
vt 0.078916 0.649202
vt 0.098467 0.571274
vt 0.303105 0.428462
vt 0.046617 0.561850
vt 0.049724 0.540578
vt 0.096817 0.545468
vt 0.094570 0.570129
vt 0.100600 0.545871
vt 0.303631 0.399043
vt 0.044740 0.491914
vt 0.092962 0.491038
vt 0.096798 0.490723
vt 0.313298 0.372717
vt 0.030830 0.443444
vt 0.076261 0.440641
vt 0.079901 0.440035
vt 0.322542 0.355411
vt 0.020281 0.405136
vt 0.065037 0.407162
vt 0.068194 0.407151
vt 0.322785 0.341815
vt 0.016501 0.375202
vt 0.063755 0.384058
vt 0.067170 0.385111
vt 0.304742 0.254495
vt 0.078597 0.212117
vt 0.099637 0.242374
vt 0.102365 0.243695
vt 0.299945 0.251127
vt 0.108242 0.238744
vt 0.060793 0.679688
vt 0.099657 0.661211
vt 0.102719 0.659372
vt 0.085262 0.610283
vt 0.037077 0.604775
vt 0.081694 0.609602
vt 0.315381 0.465685
vt 0.299205 0.488550
vt 0.080820 0.648298
vt 0.078216 0.636255
vt 0.319176 0.484608
vt 0.312446 0.492514
vn 0.000001 -0.999995 0.003168
vn 0.688092 -0.259463 -0.677649
vn 0.890657 -0.339819 -0.302083
vn 0.788126 -0.090638 -0.608804
vn -0.133180 -0.090638 -0.986939
vn -0.133180 0.090638 -0.986939
vn 0.788126 0.090638 -0.608804
vn -0.133180 -0.090638 -0.986939
vn -0.921304 -0.090638 -0.378131
vn -0.921304 0.090638 -0.378131
vn -0.133180 0.090638 -0.986939
vn -0.921304 -0.090638 -0.378131
vn -0.788124 -0.090638 0.608807
vn -0.788123 0.090638 0.608807
vn -0.921304 0.090638 -0.378131
vn -0.788124 -0.090638 0.608807
vn 0.133181 -0.090638 0.986939
vn 0.133181 0.090638 0.986939
vn -0.788123 0.090638 0.608807
vn 0.133181 -0.090638 0.986939
vn 0.921304 -0.090638 0.378131
vn 0.921304 0.090638 0.378131
vn 0.133181 0.090638 0.986939
vn 0.921304 -0.090638 0.378131
vn 0.788126 -0.090638 -0.608804
vn 0.788126 0.090638 -0.608804
vn 0.921304 0.090638 0.378131
vn -0.133180 -0.090638 -0.986939
vn 0.788126 -0.090638 -0.608804
vn 0.000000 -1.000000 0.000000
vn -0.921304 -0.090638 -0.378131
vn -0.133180 -0.090638 -0.986939
vn 0.000000 -1.000000 0.000000
vn -0.788124 -0.090638 0.608807
vn -0.921304 -0.090638 -0.378131
vn 0.000000 -1.000000 0.000000
vn 0.133181 -0.090638 0.986939
vn -0.788124 -0.090638 0.608807
vn 0.000000 -1.000000 0.000000
vn 0.921304 -0.090638 0.378131
vn 0.133181 -0.090638 0.986939
vn 0.000000 -1.000000 0.000000
vn 0.788126 -0.090638 -0.608804
vn 0.921304 -0.090638 0.378131
vn 0.000000 -1.000000 0.000000
vn 0.788126 0.090638 -0.608804
vn -0.133180 0.090638 -0.986939
vn 0.000000 1.000000 0.000000
vn -0.133180 0.090638 -0.986939
vn -0.921304 0.090638 -0.378131
vn 0.000000 1.000000 0.000000
vn -0.921304 0.090638 -0.378131
vn -0.788123 0.090638 0.608807
vn 0.000000 1.000000 0.000000
vn -0.788123 0.090638 0.608807
vn 0.133181 0.090638 0.986939
vn 0.000000 1.000000 0.000000
vn 0.133181 0.090638 0.986939
vn 0.921304 0.090638 0.378131
vn 0.000000 1.000000 0.000000
vn 0.921304 0.090638 0.378131
vn 0.788126 0.090638 -0.608804
vn 0.000000 1.000000 0.000000
vn 0.788124 -0.090638 -0.608807
vn -0.133181 -0.090638 -0.986939
vn -0.133181 0.090638 -0.986939
vn 0.788123 0.090638 -0.608807
vn -0.133181 -0.090638 -0.986939
vn -0.921304 -0.090638 -0.378131
vn -0.921304 0.090638 -0.378131
vn -0.133181 0.090638 -0.986939
vn -0.921304 -0.090638 -0.378131
vn -0.788124 -0.090638 0.608807
vn -0.788124 0.090638 0.608807
vn -0.921304 0.090638 -0.378131
vn -0.788124 -0.090638 0.608807
vn 0.133180 -0.090639 0.986939
vn 0.133180 0.090638 0.986939
vn -0.788124 0.090638 0.608807
vn 0.133180 -0.090639 0.986939
vn 0.921304 -0.090639 0.378131
vn 0.921304 0.090638 0.378131
vn 0.133180 0.090638 0.986939
vn 0.921304 -0.090639 0.378131
vn 0.788124 -0.090638 -0.608807
vn 0.788123 0.090638 -0.608807
vn 0.921304 0.090638 0.378131
vn -0.133181 -0.090638 -0.986939
vn 0.788124 -0.090638 -0.608807
vn 0.000000 -1.000000 0.000000
vn -0.921304 -0.090638 -0.378131
vn -0.133181 -0.090638 -0.986939
vn 0.000000 -1.000000 0.000000
vn -0.788124 -0.090638 0.608807
vn -0.921304 -0.090638 -0.378131
vn 0.000000 -1.000000 0.000000
vn 0.133180 -0.090639 0.986939
vn -0.788124 -0.090638 0.608807
vn 0.000000 -1.000000 0.000000
vn 0.921304 -0.090639 0.378131
vn 0.133180 -0.090639 0.986939
vn 0.000000 -1.000000 0.000000
vn 0.788124 -0.090638 -0.608807
vn 0.921304 -0.090639 0.378131
vn 0.000000 -1.000000 0.000000
vn 0.788123 0.090638 -0.608807
vn -0.133181 0.090638 -0.986939
vn 0.000000 1.000000 0.000000
vn -0.133181 0.090638 -0.986939
vn -0.921304 0.090638 -0.378131
vn 0.000000 1.000000 0.000000
vn -0.921304 0.090638 -0.378131
vn -0.788124 0.090638 0.608807
vn 0.000000 1.000000 0.000000
vn -0.788124 0.090638 0.608807
vn 0.133180 0.090638 0.986939
vn 0.000000 1.000000 0.000000
vn 0.133180 0.090638 0.986939
vn 0.921304 0.090638 0.378131
vn 0.000000 1.000000 0.000000
vn 0.921304 0.090638 0.378131
vn 0.788123 0.090638 -0.608807
vn 0.000000 1.000000 0.000000
vn 0.326451 -0.921016 -0.212505
vn 0.082379 -0.592886 0.801062
vn -0.388647 -0.735695 0.554713
vn 0.007045 -0.998994 0.044286
vn -0.016186 -0.992628 0.120114
vn -0.629825 -0.631604 -0.452103
vn -0.166174 -0.615096 -0.770742
vn 0.098445 -0.978473 0.181380
vn -0.066593 -0.942515 0.327462
vn 0.123386 -0.602605 -0.788443
vn 0.359122 -0.639766 -0.679507
vn -0.272535 -0.929033 0.250246
vn 0.007846 -0.998915 -0.045910
vn -0.572509 -0.795438 0.198777
vn -0.725565 -0.656525 -0.206228
vn -0.024509 -0.999606 0.013707
vn 0.007045 -0.998994 0.044286
vn -0.388647 -0.735695 0.554713
vn -0.572509 -0.795438 0.198777
vn 0.007846 -0.998915 -0.045910
vn 0.819845 -0.298568 0.488581
vn 0.082379 -0.592886 0.801062
vn 0.326451 -0.921016 -0.212505
vn -0.024509 -0.999606 0.013707
vn -0.725565 -0.656525 -0.206228
vn -0.629825 -0.631604 -0.452103
vn -0.016186 -0.992628 0.120114
vn 0.098445 -0.978473 0.181380
vn -0.166174 -0.615096 -0.770742
vn 0.123386 -0.602605 -0.788443
vn -0.066593 -0.942515 0.327462
vn -0.272535 -0.929033 0.250246
vn 0.359122 -0.639766 -0.679507
vn 0.525813 -0.665122 -0.530221
vn -0.454503 -0.878323 0.148241
vn -0.594974 -0.797238 0.102071
vn 0.736806 -0.667792 -0.105690
vn 0.853966 -0.484680 0.189279
vn -0.665729 -0.745937 -0.019580
vn -0.454503 -0.878323 0.148241
vn 0.525813 -0.665122 -0.530221
vn 0.663459 -0.687748 -0.294659
vn -0.546723 -0.825100 0.142493
vn -0.546723 -0.825100 0.142493
vn 0.663459 -0.687748 -0.294659
vn 0.736806 -0.667792 -0.105690
vn -0.594974 -0.797238 0.102071
vn -0.844858 -0.524329 -0.106276
vn 0.838982 -0.432288 0.330510
vn 0.825875 -0.543221 0.151137
vn -0.942157 -0.333334 0.035044
vn -0.665729 -0.745937 -0.019580
vn 0.853966 -0.484680 0.189279
vn 0.838982 -0.432288 0.330510
vn -0.844858 -0.524329 -0.106276
vn -0.073193 -0.399887 0.913637
vn -0.030139 -0.574634 -0.817856
vn 0.968742 -0.234574 -0.080706
vn 0.796487 -0.321498 0.512102
vn -0.942157 -0.333334 0.035044
vn 0.825875 -0.543221 0.151137
vn 0.320680 -0.758744 -0.566985
vn -0.729630 -0.393911 0.558993
vn -0.729630 -0.393911 0.558993
vn 0.320680 -0.758744 -0.566985
vn -0.030139 -0.574634 -0.817856
vn -0.073193 -0.399887 0.913637
vn 0.796487 -0.321498 0.512102
vn 0.968742 -0.234574 -0.080706
vn 0.972135 -0.053260 0.228290
vn -0.269698 0.860822 0.431565
vn 0.133770 0.781865 0.608928
vn 0.401963 0.758481 -0.512965
vn 0.174196 0.944803 -0.277495
vn -0.128933 0.718453 -0.683521
vn -0.561437 0.728501 -0.392524
vn 0.249862 0.930878 0.266526
vn 0.173479 0.886162 0.429676
vn 0.295336 0.745722 -0.597223
vn 0.104940 0.710239 -0.696095
vn -0.090881 0.825107 0.557619
vn -0.370214 0.822047 0.432643
vn -0.608204 0.772853 -0.181069
vn -0.389434 0.912166 0.127650
vn 0.281117 0.945881 -0.162118
vn 0.276895 0.959240 0.056464
vn -0.389434 0.912166 0.127650
vn -0.269698 0.860822 0.431565
vn 0.174196 0.944803 -0.277495
vn 0.281117 0.945881 -0.162118
vn 0.843624 0.211844 0.493376
vn 0.401963 0.758481 -0.512965
vn 0.133770 0.781865 0.608928
vn -0.561437 0.728501 -0.392524
vn -0.608204 0.772853 -0.181069
vn 0.276895 0.959240 0.056464
vn 0.249862 0.930878 0.266526
vn 0.104940 0.710239 -0.696095
vn -0.128933 0.718453 -0.683521
vn 0.173479 0.886162 0.429676
vn -0.090881 0.825107 0.557619
vn 0.441382 0.755614 -0.483973
vn 0.295336 0.745722 -0.597223
vn -0.370214 0.822047 0.432643
vn -0.567015 0.783746 0.253451
vn 0.808027 0.553747 0.201137
vn 0.649130 0.755856 -0.085509
vn -0.706160 0.699158 0.111875
vn -0.778805 0.623768 -0.066157
vn 0.577229 0.772389 -0.264995
vn 0.441382 0.755614 -0.483973
vn -0.567015 0.783746 0.253451
vn -0.652824 0.734278 0.186164
vn 0.649130 0.755856 -0.085509
vn 0.577229 0.772389 -0.264995
vn -0.652824 0.734278 0.186164
vn -0.706160 0.699158 0.111875
vn 0.690212 0.709248 0.143439
vn 0.782267 0.529211 0.328624
vn -0.891910 0.427528 -0.147363
vn -0.958576 0.281951 0.040434
vn 0.782267 0.529211 0.328624
vn 0.808027 0.553747 0.201137
vn -0.778805 0.623768 -0.066157
vn -0.891910 0.427528 -0.147363
vn 0.946177 0.312135 -0.085561
vn -0.029621 0.682355 -0.730420
vn -0.074483 0.347983 0.934537
vn 0.756917 0.296923 0.582162
vn 0.177543 0.890919 -0.418021
vn 0.690212 0.709248 0.143439
vn -0.958576 0.281951 0.040434
vn -0.725763 0.346121 0.594532
vn -0.029621 0.682355 -0.730420
vn 0.177543 0.890919 -0.418021
vn -0.725763 0.346121 0.594532
vn -0.074483 0.347983 0.934537
vn 0.967530 0.049858 0.247791
vn 0.946177 0.312135 -0.085561
vn 0.756917 0.296923 0.582162
vn 0.133770 0.781865 0.608928
vn -0.269698 0.860822 0.431565
vn -0.388647 -0.735695 0.554713
vn 0.082379 -0.592886 0.801062
vn 0.174196 0.944803 -0.277495
vn 0.401963 0.758481 -0.512965
vn 0.326451 -0.921016 -0.212505
vn 0.007045 -0.998994 0.044286
vn -0.561437 0.728501 -0.392524
vn -0.128933 0.718453 -0.683521
vn -0.166174 -0.615096 -0.770742
vn -0.629825 -0.631604 -0.452103
vn 0.173479 0.886162 0.429676
vn 0.249862 0.930878 0.266526
vn -0.016186 -0.992628 0.120114
vn 0.098445 -0.978473 0.181380
vn 0.104940 0.710239 -0.696095
vn 0.295336 0.745722 -0.597223
vn 0.359122 -0.639766 -0.679507
vn 0.123386 -0.602605 -0.788443
vn -0.370214 0.822047 0.432643
vn -0.090881 0.825107 0.557619
vn -0.066593 -0.942515 0.327462
vn -0.272535 -0.929033 0.250246
vn -0.389434 0.912166 0.127650
vn -0.608204 0.772853 -0.181069
vn -0.725565 -0.656525 -0.206228
vn -0.572509 -0.795438 0.198777
vn 0.276895 0.959240 0.056464
vn 0.281117 0.945881 -0.162118
vn 0.007846 -0.998915 -0.045910
vn -0.024509 -0.999606 0.013707
vn -0.269698 0.860822 0.431565
vn -0.389434 0.912166 0.127650
vn -0.572509 -0.795438 0.198777
vn -0.388647 -0.735695 0.554713
vn 0.281117 0.945881 -0.162118
vn 0.174196 0.944803 -0.277495
vn 0.007045 -0.998994 0.044286
vn 0.007846 -0.998915 -0.045910
vn 0.843624 0.211844 0.493376
vn 0.133770 0.781865 0.608928
vn 0.082379 -0.592886 0.801062
vn 0.819845 -0.298568 0.488581
vn 0.401963 0.758481 -0.512965
vn 0.843624 0.211844 0.493376
vn 0.819845 -0.298568 0.488581
vn 0.326451 -0.921016 -0.212505
vn -0.608204 0.772853 -0.181069
vn -0.561437 0.728501 -0.392524
vn -0.629825 -0.631604 -0.452103
vn -0.725565 -0.656525 -0.206228
vn 0.249862 0.930878 0.266526
vn 0.276895 0.959240 0.056464
vn -0.024509 -0.999606 0.013707
vn -0.016186 -0.992628 0.120114
vn -0.128933 0.718453 -0.683521
vn 0.104940 0.710239 -0.696095
vn 0.123386 -0.602605 -0.788443
vn -0.166174 -0.615096 -0.770742
vn -0.090881 0.825107 0.557619
vn 0.173479 0.886162 0.429676
vn 0.098445 -0.978473 0.181380
vn -0.066593 -0.942515 0.327462
vn 0.295336 0.745722 -0.597223
vn 0.441382 0.755614 -0.483973
vn 0.525813 -0.665122 -0.530221
vn 0.359122 -0.639766 -0.679507
vn -0.567015 0.783746 0.253451
vn -0.370214 0.822047 0.432643
vn -0.272535 -0.929033 0.250246
vn -0.454503 -0.878323 0.148241
vn 0.649130 0.755856 -0.085509
vn 0.808027 0.553747 0.201137
vn 0.853966 -0.484680 0.189279
vn 0.736806 -0.667792 -0.105690
vn -0.778805 0.623768 -0.066157
vn -0.706160 0.699158 0.111875
vn -0.594974 -0.797238 0.102071
vn -0.665729 -0.745937 -0.019580
vn 0.441382 0.755614 -0.483973
vn 0.577229 0.772389 -0.264995
vn 0.663459 -0.687748 -0.294659
vn 0.525813 -0.665122 -0.530221
vn -0.652824 0.734278 0.186164
vn -0.567015 0.783746 0.253451
vn -0.454503 -0.878323 0.148241
vn -0.546723 -0.825100 0.142493
vn 0.577229 0.772389 -0.264995
vn 0.649130 0.755856 -0.085509
vn 0.736806 -0.667792 -0.105690
vn 0.663459 -0.687748 -0.294659
vn -0.706160 0.699158 0.111875
vn -0.652824 0.734278 0.186164
vn -0.546723 -0.825100 0.142493
vn -0.594974 -0.797238 0.102071
vn 0.782267 0.529211 0.328624
vn 0.690212 0.709248 0.143439
vn 0.825875 -0.543221 0.151137
vn 0.838982 -0.432288 0.330510
vn -0.958576 0.281951 0.040434
vn -0.891910 0.427528 -0.147363
vn -0.844858 -0.524329 -0.106276
vn -0.942157 -0.333334 0.035044
vn 0.808027 0.553747 0.201137
vn 0.782267 0.529211 0.328624
vn 0.838982 -0.432288 0.330510
vn 0.853966 -0.484680 0.189279
vn -0.891910 0.427528 -0.147363
vn -0.778805 0.623768 -0.066157
vn -0.665729 -0.745937 -0.019580
vn -0.844858 -0.524329 -0.106276
vn -0.029621 0.682355 -0.730420
vn 0.946177 0.312135 -0.085561
vn 0.968742 -0.234574 -0.080706
vn -0.030139 -0.574634 -0.817856
vn 0.756917 0.296923 0.582162
vn -0.074483 0.347983 0.934537
vn -0.073193 -0.399887 0.913637
vn 0.796487 -0.321498 0.512102
vn 0.690212 0.709248 0.143439
vn 0.177543 0.890919 -0.418021
vn 0.320680 -0.758744 -0.566985
vn 0.825875 -0.543221 0.151137
vn -0.725763 0.346121 0.594532
vn -0.958576 0.281951 0.040434
vn -0.942157 -0.333334 0.035044
vn -0.729630 -0.393911 0.558993
vn 0.177543 0.890919 -0.418021
vn -0.029621 0.682355 -0.730420
vn -0.030139 -0.574634 -0.817856
vn 0.320680 -0.758744 -0.566985
vn -0.074483 0.347983 0.934537
vn -0.725763 0.346121 0.594532
vn -0.729630 -0.393911 0.558993
vn -0.073193 -0.399887 0.913637
vn 0.972135 -0.053260 0.228290
vn 0.968742 -0.234574 -0.080706
vn 0.946177 0.312135 -0.085561
vn 0.967530 0.049858 0.247791
vn 0.756917 0.296923 0.582162
vn 0.796487 -0.321498 0.512102
vn -0.326451 -0.921016 -0.212506
vn -0.007045 -0.998994 0.044287
vn 0.388647 -0.735694 0.554714
vn -0.082379 -0.592886 0.801062
vn 0.016186 -0.992628 0.120114
vn -0.098445 -0.978473 0.181380
vn 0.166174 -0.615096 -0.770742
vn 0.629825 -0.631604 -0.452103
vn 0.066593 -0.942515 0.327462
vn 0.272535 -0.929033 0.250246
vn -0.364363 -0.628550 -0.687142
vn -0.125798 -0.597858 -0.791670
vn -0.007847 -0.998915 -0.045909
vn 0.024508 -0.999606 0.013706
vn 0.725565 -0.656525 -0.206228
vn 0.572509 -0.795438 0.198777
vn -0.007045 -0.998994 0.044287
vn -0.007847 -0.998915 -0.045909
vn 0.572509 -0.795438 0.198777
vn 0.388647 -0.735694 0.554714
vn -0.819845 -0.298568 0.488581
vn -0.326451 -0.921016 -0.212506
vn -0.082379 -0.592886 0.801062
vn 0.024508 -0.999606 0.013706
vn 0.016186 -0.992628 0.120114
vn 0.629825 -0.631604 -0.452103
vn 0.725565 -0.656525 -0.206228
vn -0.098445 -0.978473 0.181380
vn 0.066593 -0.942515 0.327462
vn -0.125798 -0.597858 -0.791670
vn 0.166174 -0.615096 -0.770742
vn 0.272535 -0.929033 0.250246
vn 0.454503 -0.878323 0.148242
vn -0.530315 -0.656565 -0.536366
vn -0.364363 -0.628550 -0.687142
vn 0.594988 -0.797145 0.102710
vn 0.664311 -0.747206 -0.019372
vn -0.854906 -0.482748 0.189974
vn -0.737549 -0.666955 -0.105795
vn 0.454503 -0.878323 0.148242
vn 0.546723 -0.825100 0.142493
vn -0.664996 -0.685714 -0.295934
vn -0.530315 -0.656565 -0.536366
vn 0.546723 -0.825100 0.142493
vn 0.594988 -0.797145 0.102710
vn -0.737549 -0.666955 -0.105795
vn -0.664996 -0.685714 -0.295934
vn 0.844353 -0.525292 -0.105526
vn 0.942157 -0.333335 0.035045
vn -0.825874 -0.543221 0.151137
vn -0.837564 -0.435912 0.329344
vn 0.664311 -0.747206 -0.019372
vn 0.844353 -0.525292 -0.105526
vn -0.837564 -0.435912 0.329344
vn -0.854906 -0.482748 0.189974
vn 0.073193 -0.399887 0.913637
vn -0.796487 -0.321497 0.512102
vn -0.968742 -0.234574 -0.080706
vn 0.030139 -0.574633 -0.817856
vn 0.942157 -0.333335 0.035045
vn 0.729631 -0.393911 0.558993
vn -0.320680 -0.758743 -0.566986
vn -0.825874 -0.543221 0.151137
vn 0.729631 -0.393911 0.558993
vn 0.073193 -0.399887 0.913637
vn 0.030139 -0.574633 -0.817856
vn -0.320680 -0.758743 -0.566986
vn -0.796487 -0.321497 0.512102
vn -0.972135 -0.053260 0.228290
vn -0.968742 -0.234574 -0.080706
vn -0.401963 0.758481 -0.512965
vn -0.133770 0.781865 0.608928
vn 0.269698 0.860822 0.431566
vn -0.174196 0.944803 -0.277494
vn 0.561437 0.728501 -0.392524
vn 0.128933 0.718453 -0.683521
vn -0.173479 0.886163 0.429675
vn -0.249862 0.930878 0.266526
vn -0.097627 0.702288 -0.705167
vn -0.289664 0.748370 -0.596688
vn 0.382921 0.810232 0.443730
vn 0.103006 0.822218 0.559774
vn 0.389434 0.912166 0.127651
vn 0.608204 0.772853 -0.181069
vn -0.276895 0.959240 0.056464
vn -0.281118 0.945881 -0.162117
vn 0.269698 0.860822 0.431566
vn 0.389434 0.912166 0.127651
vn -0.281118 0.945881 -0.162117
vn -0.174196 0.944803 -0.277494
vn -0.843624 0.211844 0.493376
vn -0.133770 0.781865 0.608928
vn -0.401963 0.758481 -0.512965
vn 0.608204 0.772853 -0.181069
vn 0.561437 0.728501 -0.392524
vn -0.249862 0.930878 0.266526
vn -0.276895 0.959240 0.056464
vn 0.128933 0.718453 -0.683521
vn -0.097627 0.702288 -0.705167
vn 0.103006 0.822218 0.559774
vn -0.173479 0.886163 0.429675
vn -0.289664 0.748370 -0.596688
vn -0.444308 0.755379 -0.481656
vn 0.569046 0.777446 0.267889
vn 0.382921 0.810232 0.443730
vn -0.649130 0.755856 -0.085510
vn -0.808027 0.553747 0.201137
vn 0.778722 0.623807 -0.066760
vn 0.704189 0.701106 0.112103
vn -0.444308 0.755379 -0.481656
vn -0.582588 0.769375 -0.262020
vn 0.652475 0.733325 0.191078
vn 0.569046 0.777446 0.267889
vn -0.582588 0.769375 -0.262020
vn -0.649130 0.755856 -0.085510
vn 0.704189 0.701106 0.112103
vn 0.652475 0.733325 0.191078
vn 0.958576 0.281952 0.040434
vn 0.892674 0.426193 -0.146606
vn -0.782267 0.529211 0.328624
vn -0.690211 0.709248 0.143440
vn 0.892674 0.426193 -0.146606
vn 0.778722 0.623807 -0.066760
vn -0.808027 0.553747 0.201137
vn -0.782267 0.529211 0.328624
vn -0.756917 0.296923 0.582163
vn 0.074483 0.347983 0.934537
vn 0.029621 0.682356 -0.730420
vn -0.946177 0.312135 -0.085561
vn 0.725763 0.346121 0.594533
vn 0.958576 0.281952 0.040434
vn -0.690211 0.709248 0.143440
vn -0.177543 0.890919 -0.418021
vn 0.074483 0.347983 0.934537
vn 0.725763 0.346121 0.594533
vn -0.177543 0.890919 -0.418021
vn 0.029621 0.682356 -0.730420
vn -0.967530 0.049858 0.247791
vn -0.756917 0.296923 0.582163
vn -0.946177 0.312135 -0.085561
vn -0.133770 0.781865 0.608928
vn -0.082379 -0.592886 0.801062
vn 0.388647 -0.735694 0.554714
vn 0.269698 0.860822 0.431566
vn -0.174196 0.944803 -0.277494
vn -0.007045 -0.998994 0.044287
vn -0.326451 -0.921016 -0.212506
vn -0.401963 0.758481 -0.512965
vn 0.561437 0.728501 -0.392524
vn 0.629825 -0.631604 -0.452103
vn 0.166174 -0.615096 -0.770742
vn 0.128933 0.718453 -0.683521
vn -0.173479 0.886163 0.429675
vn -0.098445 -0.978473 0.181380
vn 0.016186 -0.992628 0.120114
vn -0.249862 0.930878 0.266526
vn -0.097627 0.702288 -0.705167
vn -0.125798 -0.597858 -0.791670
vn -0.364363 -0.628550 -0.687142
vn -0.289664 0.748370 -0.596688
vn 0.382921 0.810232 0.443730
vn 0.272535 -0.929033 0.250246
vn 0.066593 -0.942515 0.327462
vn 0.103006 0.822218 0.559774
vn 0.389434 0.912166 0.127651
vn 0.572509 -0.795438 0.198777
vn 0.725565 -0.656525 -0.206228
vn 0.608204 0.772853 -0.181069
vn -0.276895 0.959240 0.056464
vn 0.024508 -0.999606 0.013706
vn -0.007847 -0.998915 -0.045909
vn -0.281118 0.945881 -0.162117
vn 0.269698 0.860822 0.431566
vn 0.388647 -0.735694 0.554714
vn 0.572509 -0.795438 0.198777
vn 0.389434 0.912166 0.127651
vn -0.281118 0.945881 -0.162117
vn -0.007847 -0.998915 -0.045909
vn -0.007045 -0.998994 0.044287
vn -0.174196 0.944803 -0.277494
vn -0.843624 0.211844 0.493376
vn -0.819845 -0.298568 0.488581
vn -0.082379 -0.592886 0.801062
vn -0.133770 0.781865 0.608928
vn -0.401963 0.758481 -0.512965
vn -0.326451 -0.921016 -0.212506
vn -0.819845 -0.298568 0.488581
vn -0.843624 0.211844 0.493376
vn 0.608204 0.772853 -0.181069
vn 0.725565 -0.656525 -0.206228
vn 0.629825 -0.631604 -0.452103
vn 0.561437 0.728501 -0.392524
vn -0.249862 0.930878 0.266526
vn 0.016186 -0.992628 0.120114
vn 0.024508 -0.999606 0.013706
vn -0.276895 0.959240 0.056464
vn 0.128933 0.718453 -0.683521
vn 0.166174 -0.615096 -0.770742
vn -0.125798 -0.597858 -0.791670
vn -0.097627 0.702288 -0.705167
vn 0.103006 0.822218 0.559774
vn 0.066593 -0.942515 0.327462
vn -0.098445 -0.978473 0.181380
vn -0.173479 0.886163 0.429675
vn -0.289664 0.748370 -0.596688
vn -0.364363 -0.628550 -0.687142
vn -0.530315 -0.656565 -0.536366
vn -0.444308 0.755379 -0.481656
vn 0.569046 0.777446 0.267889
vn 0.454503 -0.878323 0.148242
vn 0.272535 -0.929033 0.250246
vn 0.382921 0.810232 0.443730
vn -0.649130 0.755856 -0.085510
vn -0.737549 -0.666955 -0.105795
vn -0.854906 -0.482748 0.189974
vn -0.808027 0.553747 0.201137
vn 0.778722 0.623807 -0.066760
vn 0.664311 -0.747206 -0.019372
vn 0.594988 -0.797145 0.102710
vn 0.704189 0.701106 0.112103
vn -0.444308 0.755379 -0.481656
vn -0.530315 -0.656565 -0.536366
vn -0.664996 -0.685714 -0.295934
vn -0.582588 0.769375 -0.262020
vn 0.652475 0.733325 0.191078
vn 0.546723 -0.825100 0.142493
vn 0.454503 -0.878323 0.148242
vn 0.569046 0.777446 0.267889
vn -0.582588 0.769375 -0.262020
vn -0.664996 -0.685714 -0.295934
vn -0.737549 -0.666955 -0.105795
vn -0.649130 0.755856 -0.085510
vn 0.704189 0.701106 0.112103
vn 0.594988 -0.797145 0.102710
vn 0.546723 -0.825100 0.142493
vn 0.652475 0.733325 0.191078
vn -0.782267 0.529211 0.328624
vn -0.837564 -0.435912 0.329344
vn -0.825874 -0.543221 0.151137
vn -0.690211 0.709248 0.143440
vn 0.958576 0.281952 0.040434
vn 0.942157 -0.333335 0.035045
vn 0.844353 -0.525292 -0.105526
vn 0.892674 0.426193 -0.146606
vn -0.808027 0.553747 0.201137
vn -0.854906 -0.482748 0.189974
vn -0.837564 -0.435912 0.329344
vn -0.782267 0.529211 0.328624
vn 0.892674 0.426193 -0.146606
vn 0.844353 -0.525292 -0.105526
vn 0.664311 -0.747206 -0.019372
vn 0.778722 0.623807 -0.066760
vn 0.029621 0.682356 -0.730420
vn 0.030139 -0.574633 -0.817856
vn -0.968742 -0.234574 -0.080706
vn -0.946177 0.312135 -0.085561
vn -0.756917 0.296923 0.582163
vn -0.796487 -0.321497 0.512102
vn 0.073193 -0.399887 0.913637
vn 0.074483 0.347983 0.934537
vn -0.690211 0.709248 0.143440
vn -0.825874 -0.543221 0.151137
vn -0.320680 -0.758743 -0.566986
vn -0.177543 0.890919 -0.418021
vn 0.725763 0.346121 0.594533
vn 0.729631 -0.393911 0.558993
vn 0.942157 -0.333335 0.035045
vn 0.958576 0.281952 0.040434
vn -0.177543 0.890919 -0.418021
vn -0.320680 -0.758743 -0.566986
vn 0.030139 -0.574633 -0.817856
vn 0.029621 0.682356 -0.730420
vn 0.074483 0.347983 0.934537
vn 0.073193 -0.399887 0.913637
vn 0.729631 -0.393911 0.558993
vn 0.725763 0.346121 0.594533
vn -0.972135 -0.053260 0.228290
vn -0.796487 -0.321497 0.512102
vn -0.756917 0.296923 0.582163
vn -0.967530 0.049858 0.247791
vn -0.946177 0.312135 -0.085561
vn -0.968742 -0.234574 -0.080706
vn 0.995937 0.000000 0.090053
vn 0.680172 -0.732981 -0.010262
vn 0.399490 -0.846786 0.351228
vn 0.888736 0.000000 0.458420
vn 0.399490 -0.846786 0.351228
vn 0.551288 -0.733752 0.397101
vn 0.897826 0.000000 0.440350
vn 0.888736 0.000000 0.458420
vn 0.504117 -0.214617 -0.836544
vn 0.120887 -0.172268 -0.977604
vn 0.123039 0.000000 -0.992402
vn 0.515560 0.000000 -0.856854
vn -0.040954 -0.918032 -0.394385
vn 0.550709 -0.708586 0.441165
vn 0.789692 0.000000 0.613504
vn -0.080619 0.000000 -0.996745
vn 0.550709 -0.708586 0.441165
vn 0.890657 -0.339819 -0.302083
vn 0.946386 0.000002 -0.323038
vn 0.789692 0.000000 0.613504
vn 0.890657 -0.339819 -0.302083
vn 0.688092 -0.259463 -0.677649
vn 0.712493 -0.000020 -0.701680
vn 0.946386 0.000002 -0.323038
vn 0.551288 -0.733752 0.397101
vn 0.722644 -0.652118 -0.229189
vn 0.942881 0.000000 -0.333131
vn 0.897826 0.000000 0.440350
vn 0.551288 -0.733752 0.397101
vn -0.040954 -0.918032 -0.394385
vn -0.431905 -0.486800 -0.759266
vn 0.722644 -0.652118 -0.229189
vn -0.431905 -0.486800 -0.759266
vn -0.040954 -0.918032 -0.394385
vn -0.080619 0.000000 -0.996745
vn -0.477768 0.000000 -0.878486
vn -0.037157 0.998943 -0.027069
vn 0.044799 0.980177 0.192995
vn 0.073011 0.997194 0.016554
vn -0.081018 0.993784 -0.076349
vn 0.722644 -0.652118 -0.229189
vn 0.504117 -0.214617 -0.836544
vn 0.515560 0.000000 -0.856854
vn 0.942881 0.000000 -0.333131
vn 0.722644 -0.652118 -0.229189
vn -0.431905 -0.486800 -0.759266
vn 0.120887 -0.172268 -0.977604
vn 0.504117 -0.214617 -0.836544
vn 0.120887 -0.172268 -0.977604
vn -0.431905 -0.486800 -0.759266
vn -0.477768 0.000000 -0.878486
vn 0.123039 0.000000 -0.992402
vn -0.081018 0.993784 -0.076349
vn 0.073011 0.997194 0.016554
vn 0.167358 0.947882 -0.271129
vn 0.044953 0.919800 -0.389805
vn 0.000000 0.988369 0.152076
vn 0.000000 0.994065 -0.108784
vn 0.067826 0.993620 -0.090108
vn 0.025124 0.983231 0.180624
vn 0.000000 0.985303 0.170818
vn 0.000000 0.988369 0.152076
vn 0.025124 0.983231 0.180624
vn 0.044799 0.980177 0.192995
vn 0.000000 0.999900 -0.014159
vn 0.000000 0.985303 0.170818
vn 0.044799 0.980177 0.192995
vn -0.037157 0.998943 -0.027069
vn 0.000000 0.980678 -0.195631
vn 0.000000 0.999900 -0.014159
vn -0.037157 0.998943 -0.027069
vn -0.102340 0.982708 -0.154311
vn 0.000097 0.999788 0.020575
vn 0.000000 0.980678 -0.195631
vn -0.102340 0.982708 -0.154311
vn 0.006427 0.999011 -0.044007
vn 0.014501 0.999892 0.002507
vn 0.000097 0.999788 0.020575
vn 0.006427 0.999011 -0.044007
vn -0.000003 -0.999811 0.019422
vn 0.000001 -0.999995 0.003168
vn 0.890657 -0.339819 -0.302083
vn 0.550709 -0.708586 0.441165
vn 0.000000 -0.996988 0.077554
vn -0.000003 -0.999811 0.019422
vn 0.550709 -0.708586 0.441165
vn -0.040954 -0.918032 -0.394385
vn 0.000000 -0.984664 0.174460
vn 0.000000 -0.996988 0.077554
vn -0.040954 -0.918032 -0.394385
vn 0.551288 -0.733752 0.397101
vn 0.000000 -0.988356 0.152159
vn 0.000000 -0.984664 0.174460
vn 0.551288 -0.733752 0.397101
vn 0.399490 -0.846786 0.351228
vn 0.000000 -0.994065 -0.108784
vn 0.000000 -0.988356 0.152159
vn 0.399490 -0.846786 0.351228
vn 0.680172 -0.732981 -0.010262
vn 0.219151 0.000000 0.975691
vn 0.000000 0.000000 1.000000
vn 0.000000 -0.175642 0.984454
vn 0.199981 -0.190131 0.961175
vn 0.000000 -0.993912 -0.110174
vn 0.000000 -0.994065 -0.108784
vn 0.680172 -0.732981 -0.010262
vn 0.200124 -0.975052 -0.096044
vn 0.200124 -0.975052 -0.096044
vn 0.680172 -0.732981 -0.010262
vn 0.995937 0.000000 0.090053
vn 0.997563 0.000000 -0.069770
vn 0.067826 0.993620 -0.090108
vn 0.000000 0.994065 -0.108784
vn 0.000000 0.993912 -0.110174
vn 0.010764 0.996394 -0.084160
vn 0.000000 -0.999880 -0.015522
vn 0.000000 -0.993912 -0.110174
vn 0.200124 -0.975052 -0.096044
vn 0.677499 -0.700358 0.224707
vn 0.862281 -0.499880 -0.081183
vn 0.172369 -0.549982 -0.817196
vn 0.239496 0.000000 -0.970897
vn 0.997978 0.000000 -0.063554
vn 0.000000 0.993912 -0.110174
vn 0.000000 0.999880 -0.015522
vn 0.072811 0.997311 0.008303
vn 0.010764 0.996394 -0.084160
vn 0.000000 -1.000000 0.000000
vn 0.000000 -0.999880 -0.015522
vn 0.677499 -0.700358 0.224707
vn 0.800706 -0.596078 0.059680
vn 0.800706 -0.596078 0.059680
vn 0.677499 -0.700358 0.224707
vn 0.944024 0.000000 0.329878
vn 0.997203 0.000000 0.074739
vn 0.000000 0.999880 -0.015522
vn 0.000000 0.999429 0.033794
vn 0.066463 0.996992 0.039872
vn 0.072811 0.997311 0.008303
vn 0.000000 -0.999981 -0.006175
vn 0.000000 -1.000000 0.000000
vn 0.800706 -0.596078 0.059680
vn 0.750831 -0.648244 -0.126621
vn 0.750831 -0.648244 -0.126621
vn 0.800706 -0.596078 0.059680
vn 0.997203 0.000000 0.074739
vn 0.986935 0.000000 -0.161118
vn 0.000000 0.999429 0.033794
vn 0.000000 0.997211 0.074632
vn -0.034897 0.997476 0.061840
vn 0.066463 0.996992 0.039872
vn 0.000000 0.997211 0.074632
vn 0.000000 0.997708 0.067669
vn -0.107905 0.993708 0.030019
vn -0.034897 0.997476 0.061840
vn 0.000000 -0.999968 -0.008030
vn 0.000000 -0.999981 -0.006175
vn 0.750831 -0.648244 -0.126621
vn 0.667227 -0.691772 -0.276150
vn 0.667227 -0.691772 -0.276150
vn 0.750831 -0.648244 -0.126621
vn 0.986935 0.000000 -0.161118
vn 0.924238 0.000000 -0.381816
vn 0.000000 -0.999998 -0.002205
vn 0.000000 -0.999968 -0.008030
vn 0.667227 -0.691772 -0.276150
vn 0.669088 -0.718486 -0.190001
vn 0.669088 -0.718486 -0.190001
vn 0.667227 -0.691772 -0.276150
vn 0.924238 0.000000 -0.381816
vn 0.961588 0.000000 -0.274497
vn 0.000000 0.997708 0.067669
vn 0.000000 0.999797 0.020130
vn -0.107037 0.994249 -0.003485
vn -0.107905 0.993708 0.030019
vn 0.000000 -0.999997 0.002409
vn 0.000000 -0.999998 -0.002205
vn 0.669088 -0.718486 -0.190001
vn 0.715181 -0.685137 0.138214
vn 0.715181 -0.685137 0.138214
vn 0.669088 -0.718486 -0.190001
vn 0.961588 0.000000 -0.274497
vn 0.981793 0.000000 0.189952
vn 0.000000 0.999797 0.020130
vn 0.000000 0.999898 -0.014263
vn -0.075740 0.997126 0.001902
vn -0.107037 0.994249 -0.003485
vn 0.000000 0.999898 -0.014263
vn 0.000000 0.999865 -0.016457
vn -0.083581 0.996500 0.001495
vn -0.075740 0.997126 0.001902
vn 0.000000 -0.999996 0.002915
vn 0.000000 -0.999997 0.002409
vn 0.715181 -0.685137 0.138214
vn 0.647340 -0.742260 0.173205
vn 0.647340 -0.742260 0.173205
vn 0.715181 -0.685137 0.138214
vn 0.981793 0.000000 0.189952
vn 0.966610 0.000000 0.256251
vn 0.000000 -0.175642 0.984454
vn 0.000000 -0.999996 0.002915
vn 0.647340 -0.742260 0.173205
vn 0.199981 -0.190131 0.961175
vn 0.199981 -0.190131 0.961175
vn 0.647340 -0.742260 0.173205
vn 0.966610 0.000000 0.256251
vn 0.219151 0.000000 0.975691
vn 0.000000 0.999865 -0.016457
vn 0.000000 0.877079 0.480347
vn -0.009362 0.909892 0.414740
vn -0.083581 0.996500 0.001495
vn -0.329656 -0.725765 -0.603815
vn 0.200124 -0.975052 -0.096044
vn 0.997563 0.000000 -0.069770
vn -0.470191 0.000000 -0.882565
vn 0.010764 0.996394 -0.084160
vn 0.072811 0.997311 0.008303
vn 0.110251 0.993889 0.005438
vn -0.062852 0.992487 -0.104974
vn 0.677499 -0.700358 0.224707
vn 0.832935 -0.489810 0.257498
vn 0.950447 0.000000 0.310887
vn 0.944024 0.000000 0.329878
vn 0.677499 -0.700358 0.224707
vn 0.200124 -0.975052 -0.096044
vn -0.329656 -0.725765 -0.603815
vn 0.832935 -0.489810 0.257498
vn 0.172369 -0.549982 -0.817196
vn -0.329656 -0.725765 -0.603815
vn -0.470191 0.000000 -0.882565
vn 0.239496 0.000000 -0.970897
vn -0.062852 0.992487 -0.104974
vn 0.110251 0.993889 0.005438
vn 0.089246 0.993784 -0.066553
vn -0.019340 0.985743 -0.167145
vn 0.832935 -0.489810 0.257498
vn 0.862281 -0.499880 -0.081183
vn 0.997978 0.000000 -0.063554
vn 0.950447 0.000000 0.310887
vn 0.832935 -0.489810 0.257498
vn -0.329656 -0.725765 -0.603815
vn 0.172369 -0.549982 -0.817196
vn 0.862281 -0.499880 -0.081183
vn -0.399490 -0.846786 0.351228
vn -0.680172 -0.732981 -0.010262
vn -0.995937 0.000000 0.090053
vn -0.888736 0.000000 0.458419
vn -0.551288 -0.733752 0.397101
vn -0.399490 -0.846786 0.351228
vn -0.888736 0.000000 0.458419
vn -0.897826 0.000000 0.440350
vn -0.120887 -0.172268 -0.977604
vn -0.504116 -0.214617 -0.836544
vn -0.515560 0.000000 -0.856854
vn -0.123039 0.000000 -0.992402
vn -0.560290 -0.696264 0.448656
vn 0.040954 -0.918032 -0.394385
vn 0.080619 0.000000 -0.996745
vn -0.789691 0.000000 0.613504
vn -0.895617 -0.325051 -0.303664
vn -0.560290 -0.696264 0.448656
vn -0.789691 0.000000 0.613504
vn -0.946430 0.000928 -0.322909
vn 0.688092 -0.259463 -0.677649
vn -0.895617 -0.325051 -0.303664
vn -0.946430 0.000928 -0.322909
vn 0.712493 -0.000020 -0.701680
vn -0.722644 -0.652118 -0.229189
vn -0.551288 -0.733752 0.397101
vn -0.897826 0.000000 0.440350
vn -0.942881 0.000000 -0.333131
vn -0.551288 -0.733752 0.397101
vn -0.722644 -0.652118 -0.229189
vn 0.431905 -0.486800 -0.759266
vn 0.040954 -0.918032 -0.394385
vn 0.040954 -0.918032 -0.394385
vn 0.431905 -0.486800 -0.759266
vn 0.477768 0.000000 -0.878486
vn 0.080619 0.000000 -0.996745
vn 0.037157 0.998943 -0.027069
vn 0.081018 0.993784 -0.076349
vn -0.073011 0.997194 0.016554
vn -0.044799 0.980177 0.192995
vn -0.504116 -0.214617 -0.836544
vn -0.722644 -0.652118 -0.229189
vn -0.942881 0.000000 -0.333131
vn -0.515560 0.000000 -0.856854
vn -0.722644 -0.652118 -0.229189
vn -0.504116 -0.214617 -0.836544
vn -0.120887 -0.172268 -0.977604
vn 0.431905 -0.486800 -0.759266
vn 0.431905 -0.486800 -0.759266
vn -0.120887 -0.172268 -0.977604
vn -0.123039 0.000000 -0.992402
vn 0.477768 0.000000 -0.878486
vn 0.081018 0.993784 -0.076349
vn -0.044953 0.919800 -0.389804
vn -0.167358 0.947883 -0.271127
vn -0.073011 0.997194 0.016554
vn -0.025124 0.983231 0.180624
vn -0.067826 0.993620 -0.090108
vn 0.000000 0.994065 -0.108784
vn 0.000000 0.988369 0.152076
vn -0.044799 0.980177 0.192995
vn -0.025124 0.983231 0.180624
vn 0.000000 0.988369 0.152076
vn 0.000000 0.985303 0.170818
vn 0.000000 0.999900 -0.014159
vn 0.037157 0.998943 -0.027069
vn -0.044799 0.980177 0.192995
vn 0.000000 0.985303 0.170818
vn 0.000000 0.980678 -0.195631
vn 0.102340 0.982708 -0.154312
vn 0.037157 0.998943 -0.027069
vn 0.000000 0.999900 -0.014159
vn 0.000097 0.999788 0.020575
vn -0.006198 0.999043 -0.043299
vn 0.102340 0.982708 -0.154312
vn 0.000000 0.980678 -0.195631
vn -0.895617 -0.325051 -0.303664
vn 0.688092 -0.259463 -0.677649
vn 0.000001 -0.999995 0.003168
vn -0.560290 -0.696264 0.448656
vn -0.895617 -0.325051 -0.303664
vn 0.000001 -0.999995 0.003168
vn -0.000003 -0.999811 0.019422
vn 0.040954 -0.918032 -0.394385
vn -0.560290 -0.696264 0.448656
vn -0.000003 -0.999811 0.019422
vn 0.000000 -0.996988 0.077554
vn -0.551288 -0.733752 0.397101
vn 0.040954 -0.918032 -0.394385
vn 0.000000 -0.996988 0.077554
vn 0.000000 -0.984664 0.174460
vn -0.399490 -0.846786 0.351228
vn -0.551288 -0.733752 0.397101
vn 0.000000 -0.984664 0.174460
vn 0.000000 -0.988356 0.152159
vn -0.680172 -0.732981 -0.010262
vn -0.399490 -0.846786 0.351228
vn 0.000000 -0.988356 0.152159
vn 0.000000 -0.994065 -0.108784
vn -0.199981 -0.190130 0.961175
vn 0.000000 -0.175642 0.984454
vn 0.000000 0.000000 1.000000
vn -0.219151 0.000000 0.975691
vn 0.000000 -0.994065 -0.108784
vn 0.000000 -0.993912 -0.110174
vn -0.200124 -0.975052 -0.096044
vn -0.680172 -0.732981 -0.010262
vn -0.680172 -0.732981 -0.010262
vn -0.200124 -0.975052 -0.096044
vn -0.997563 0.000000 -0.069770
vn -0.995937 0.000000 0.090053
vn -0.067826 0.993620 -0.090108
vn -0.010764 0.996394 -0.084160
vn 0.000000 0.993912 -0.110174
vn 0.000000 0.994065 -0.108784
vn 0.000000 -0.993912 -0.110174
vn 0.000000 -0.999880 -0.015522
vn -0.677499 -0.700358 0.224708
vn -0.200124 -0.975052 -0.096044
vn -0.172369 -0.549982 -0.817196
vn -0.862281 -0.499880 -0.081183
vn -0.997978 0.000000 -0.063554
vn -0.239496 0.000000 -0.970897
vn -0.010764 0.996394 -0.084160
vn -0.072811 0.997311 0.008303
vn 0.000000 0.999880 -0.015522
vn 0.000000 0.993912 -0.110174
vn 0.000000 -0.999880 -0.015522
vn 0.000000 -1.000000 0.000000
vn -0.800706 -0.596078 0.059680
vn -0.677499 -0.700358 0.224708
vn -0.677499 -0.700358 0.224708
vn -0.800706 -0.596078 0.059680
vn -0.997203 0.000000 0.074739
vn -0.944024 0.000000 0.329878
vn -0.072811 0.997311 0.008303
vn -0.066463 0.996992 0.039872
vn 0.000000 0.999429 0.033794
vn 0.000000 0.999880 -0.015522
vn 0.000000 -1.000000 0.000000
vn 0.000000 -0.999981 -0.006175
vn -0.750831 -0.648244 -0.126621
vn -0.800706 -0.596078 0.059680
vn -0.800706 -0.596078 0.059680
vn -0.750831 -0.648244 -0.126621
vn -0.986935 0.000000 -0.161118
vn -0.997203 0.000000 0.074739
vn -0.066463 0.996992 0.039872
vn 0.034897 0.997476 0.061841
vn 0.000000 0.997211 0.074632
vn 0.000000 0.999429 0.033794
vn -0.750831 -0.648244 -0.126621
vn 0.000000 -0.999981 -0.006175
vn 0.000000 -0.999968 -0.008030
vn -0.667227 -0.691772 -0.276151
vn -0.750831 -0.648244 -0.126621
vn -0.667227 -0.691772 -0.276151
vn -0.924238 0.000000 -0.381816
vn -0.986935 0.000000 -0.161118
vn 0.034897 0.997476 0.061841
vn 0.107905 0.993708 0.030019
vn 0.000000 0.997708 0.067669
vn 0.000000 0.997211 0.074632
vn 0.000000 -0.999968 -0.008030
vn 0.000000 -0.999998 -0.002205
vn -0.669088 -0.718486 -0.190001
vn -0.667227 -0.691772 -0.276151
vn -0.667227 -0.691772 -0.276151
vn -0.669088 -0.718486 -0.190001
vn -0.961588 0.000000 -0.274497
vn -0.924238 0.000000 -0.381816
vn 0.107905 0.993708 0.030019
vn 0.107037 0.994249 -0.003485
vn 0.000000 0.999797 0.020130
vn 0.000000 0.997708 0.067669
vn 0.000000 -0.999998 -0.002205
vn 0.000000 -0.999997 0.002409
vn -0.715181 -0.685137 0.138214
vn -0.669088 -0.718486 -0.190001
vn -0.669088 -0.718486 -0.190001
vn -0.715181 -0.685137 0.138214
vn -0.981793 0.000000 0.189952
vn -0.961588 0.000000 -0.274497
vn 0.107037 0.994249 -0.003485
vn 0.075740 0.997126 0.001902
vn 0.000000 0.999898 -0.014263
vn 0.000000 0.999797 0.020130
vn -0.715181 -0.685137 0.138214
vn 0.000000 -0.999997 0.002409
vn 0.000000 -0.999996 0.002915
vn -0.647340 -0.742260 0.173205
vn -0.715181 -0.685137 0.138214
vn -0.647340 -0.742260 0.173205
vn -0.966610 0.000000 0.256251
vn -0.981793 0.000000 0.189952
vn 0.075740 0.997126 0.001902
vn 0.083581 0.996500 0.001495
vn 0.000000 0.999865 -0.016457
vn 0.000000 0.999898 -0.014263
vn 0.000000 -0.999996 0.002915
vn 0.000000 -0.175642 0.984454
vn -0.199981 -0.190130 0.961175
vn -0.647340 -0.742260 0.173205
vn -0.647340 -0.742260 0.173205
vn -0.199981 -0.190130 0.961175
vn -0.219151 0.000000 0.975691
vn -0.966610 0.000000 0.256251
vn 0.083581 0.996500 0.001495
vn 0.009362 0.909893 0.414738
vn 0.000000 0.877079 0.480347
vn 0.000000 0.999865 -0.016457
vn -0.200124 -0.975052 -0.096044
vn 0.329656 -0.725764 -0.603815
vn 0.470191 0.000000 -0.882565
vn -0.997563 0.000000 -0.069770
vn -0.010764 0.996394 -0.084160
vn 0.062852 0.992487 -0.104973
vn -0.110251 0.993889 0.005438
vn -0.072811 0.997311 0.008303
vn -0.832935 -0.489810 0.257498
vn -0.677499 -0.700358 0.224708
vn -0.944024 0.000000 0.329878
vn -0.950447 0.000000 0.310887
vn -0.677499 -0.700358 0.224708
vn -0.832935 -0.489810 0.257498
vn 0.329656 -0.725764 -0.603815
vn -0.200124 -0.975052 -0.096044
vn 0.329656 -0.725764 -0.603815
vn -0.172369 -0.549982 -0.817196
vn -0.239496 0.000000 -0.970897
vn 0.470191 0.000000 -0.882565
vn 0.062852 0.992487 -0.104973
vn 0.019340 0.985743 -0.167145
vn -0.089246 0.993784 -0.066553
vn -0.110251 0.993889 0.005438
vn -0.862281 -0.499880 -0.081183
vn -0.832935 -0.489810 0.257498
vn -0.950447 0.000000 0.310887
vn -0.997978 0.000000 -0.063554
vn -0.832935 -0.489810 0.257498
vn -0.862281 -0.499880 -0.081183
vn -0.172369 -0.549982 -0.817196
vn 0.329656 -0.725764 -0.603815
vn 0.997563 0.000000 -0.069770
vn 0.995937 0.000000 0.090053
vn 0.067826 0.993620 -0.090108
vn 0.010764 0.996394 -0.084160
vn -0.470191 0.000000 -0.882565
vn 0.997563 0.000000 -0.069770
vn 0.010764 0.996394 -0.084160
vn -0.062852 0.992487 -0.104974
vn 0.239496 0.000000 -0.970897
vn -0.470191 0.000000 -0.882565
vn -0.062852 0.992487 -0.104974
vn -0.019340 0.985743 -0.167145
vn 0.997978 0.000000 -0.063554
vn 0.239496 0.000000 -0.970897
vn -0.019340 0.985743 -0.167145
vn 0.089246 0.993784 -0.066553
vn 0.110251 0.993889 0.005438
vn 0.950447 0.000000 0.310887
vn 0.997978 0.000000 -0.063554
vn 0.089246 0.993784 -0.066553
vn 0.072811 0.997311 0.008303
vn 0.944024 0.000000 0.329878
vn 0.950447 0.000000 0.310887
vn 0.110251 0.993889 0.005438
vn 0.997203 0.000000 0.074739
vn 0.944024 0.000000 0.329878
vn 0.072811 0.997311 0.008303
vn 0.066463 0.996992 0.039872
vn 0.986935 0.000000 -0.161118
vn 0.997203 0.000000 0.074739
vn 0.066463 0.996992 0.039872
vn -0.034897 0.997476 0.061840
vn -0.034897 0.997476 0.061840
vn -0.107905 0.993708 0.030019
vn 0.924238 0.000000 -0.381816
vn 0.986935 0.000000 -0.161118
vn 0.961588 0.000000 -0.274497
vn 0.924238 0.000000 -0.381816
vn -0.107905 0.993708 0.030019
vn -0.107037 0.994249 -0.003485
vn 0.981793 0.000000 0.189952
vn 0.961588 0.000000 -0.274497
vn -0.107037 0.994249 -0.003485
vn -0.075740 0.997126 0.001902
vn -0.075740 0.997126 0.001902
vn -0.083581 0.996500 0.001495
vn 0.966610 0.000000 0.256251
vn 0.981793 0.000000 0.189952
vn 0.219151 0.000000 0.975691
vn 0.966610 0.000000 0.256251
vn -0.083581 0.996500 0.001495
vn -0.009362 0.909892 0.414740
vn -0.009362 0.909892 0.414740
vn 0.000000 0.877079 0.480347
vn 0.000000 0.000000 1.000000
vn 0.219151 0.000000 0.975691
vn 0.000000 0.877079 0.480347
vn 0.009362 0.909893 0.414738
vn -0.219151 0.000000 0.975691
vn 0.000000 0.000000 1.000000
vn -0.966610 0.000000 0.256251
vn -0.219151 0.000000 0.975691
vn 0.009362 0.909893 0.414738
vn 0.083581 0.996500 0.001495
vn 0.075740 0.997126 0.001902
vn -0.981793 0.000000 0.189952
vn -0.966610 0.000000 0.256251
vn 0.083581 0.996500 0.001495
vn -0.961588 0.000000 -0.274497
vn -0.981793 0.000000 0.189952
vn 0.075740 0.997126 0.001902
vn 0.107037 0.994249 -0.003485
vn -0.924238 0.000000 -0.381816
vn -0.961588 0.000000 -0.274497
vn 0.107037 0.994249 -0.003485
vn 0.107905 0.993708 0.030019
vn 0.034897 0.997476 0.061841
vn -0.986935 0.000000 -0.161118
vn -0.924238 0.000000 -0.381816
vn 0.107905 0.993708 0.030019
vn -0.997203 0.000000 0.074739
vn -0.986935 0.000000 -0.161118
vn 0.034897 0.997476 0.061841
vn -0.066463 0.996992 0.039872
vn -0.944024 0.000000 0.329878
vn -0.997203 0.000000 0.074739
vn -0.066463 0.996992 0.039872
vn -0.072811 0.997311 0.008303
vn -0.072811 0.997311 0.008303
vn -0.110251 0.993889 0.005438
vn -0.950447 0.000000 0.310887
vn -0.944024 0.000000 0.329878
vn -0.110251 0.993889 0.005438
vn -0.089246 0.993784 -0.066553
vn -0.997978 0.000000 -0.063554
vn -0.950447 0.000000 0.310887
vn -0.239496 0.000000 -0.970897
vn -0.997978 0.000000 -0.063554
vn -0.089246 0.993784 -0.066553
vn 0.019340 0.985743 -0.167145
vn 0.470191 0.000000 -0.882565
vn -0.239496 0.000000 -0.970897
vn 0.019340 0.985743 -0.167145
vn 0.062852 0.992487 -0.104973
vn -0.997563 0.000000 -0.069770
vn 0.470191 0.000000 -0.882565
vn 0.062852 0.992487 -0.104973
vn -0.010764 0.996394 -0.084160
vn -0.995937 0.000000 0.090053
vn -0.997563 0.000000 -0.069770
vn -0.010764 0.996394 -0.084160
vn -0.067826 0.993620 -0.090108
vn -0.888736 0.000000 0.458419
vn -0.995937 0.000000 0.090053
vn -0.067826 0.993620 -0.090108
vn -0.025124 0.983231 0.180624
vn -0.897826 0.000000 0.440350
vn -0.888736 0.000000 0.458419
vn -0.025124 0.983231 0.180624
vn -0.044799 0.980177 0.192995
vn -0.044799 0.980177 0.192995
vn -0.073011 0.997194 0.016554
vn -0.942881 0.000000 -0.333131
vn -0.897826 0.000000 0.440350
vn -0.073011 0.997194 0.016554
vn -0.167358 0.947883 -0.271127
vn -0.515560 0.000000 -0.856854
vn -0.942881 0.000000 -0.333131
vn -0.167358 0.947883 -0.271127
vn -0.044953 0.919800 -0.389804
vn -0.123039 0.000000 -0.992402
vn -0.515560 0.000000 -0.856854
vn 0.477768 0.000000 -0.878486
vn -0.123039 0.000000 -0.992402
vn -0.044953 0.919800 -0.389804
vn 0.081018 0.993784 -0.076349
vn 0.080619 0.000000 -0.996745
vn 0.477768 0.000000 -0.878486
vn 0.081018 0.993784 -0.076349
vn 0.037157 0.998943 -0.027069
vn 0.037157 0.998943 -0.027069
vn 0.102340 0.982708 -0.154312
vn -0.789691 0.000000 0.613504
vn 0.080619 0.000000 -0.996745
vn 0.102340 0.982708 -0.154312
vn -0.006198 0.999043 -0.043299
vn -0.946430 0.000928 -0.322909
vn -0.789691 0.000000 0.613504
vn 0.006427 0.999011 -0.044007
vn 0.946386 0.000002 -0.323038
vn 0.712493 -0.000020 -0.701680
vn 0.014501 0.999892 0.002507
vn -0.102340 0.982708 -0.154311
vn 0.789692 0.000000 0.613504
vn 0.946386 0.000002 -0.323038
vn 0.006427 0.999011 -0.044007
vn -0.037157 0.998943 -0.027069
vn -0.080619 0.000000 -0.996745
vn 0.789692 0.000000 0.613504
vn -0.102340 0.982708 -0.154311
vn -0.477768 0.000000 -0.878486
vn -0.080619 0.000000 -0.996745
vn -0.037157 0.998943 -0.027069
vn -0.081018 0.993784 -0.076349
vn 0.123039 0.000000 -0.992402
vn -0.477768 0.000000 -0.878486
vn -0.081018 0.993784 -0.076349
vn 0.044953 0.919800 -0.389805
vn 0.167358 0.947882 -0.271129
vn 0.515560 0.000000 -0.856854
vn 0.123039 0.000000 -0.992402
vn 0.044953 0.919800 -0.389805
vn 0.073011 0.997194 0.016554
vn 0.942881 0.000000 -0.333131
vn 0.515560 0.000000 -0.856854
vn 0.167358 0.947882 -0.271129
vn 0.044799 0.980177 0.192995
vn 0.897826 0.000000 0.440350
vn 0.942881 0.000000 -0.333131
vn 0.073011 0.997194 0.016554
vn 0.888736 0.000000 0.458420
vn 0.897826 0.000000 0.440350
vn 0.044799 0.980177 0.192995
vn 0.025124 0.983231 0.180624
vn 0.995937 0.000000 0.090053
vn 0.888736 0.000000 0.458420
vn 0.025124 0.983231 0.180624
vn 0.067826 0.993620 -0.090108
vn 0.000097 0.999788 0.020575
vn 0.014501 0.999892 0.002507
vn -0.006198 0.999043 -0.043299
vn -0.006198 0.999043 -0.043299
vn 0.014501 0.999892 0.002507
vn 0.712493 -0.000020 -0.701680
vn -0.946430 0.000928 -0.322909
s off
g Ballista_low:pCylinder24
usemtl initialShadingGroup
f 1/1/1 2/2/2 3/3/3
f 5/4/4 6/5/5 12/6/6 11/7/7
f 6/5/8 7/8/9 13/9/10 12/6/11
f 7/8/12 8/10/13 14/11/14 13/9/15
f 8/10/16 9/12/17 15/13/18 14/11/19
f 9/12/20 10/14/21 16/15/22 15/13/23
f 10/14/24 5/4/25 11/7/26 16/15/27
f 6/16/28 5/17/29 17/18/30
f 7/19/31 6/16/32 17/18/33
f 8/20/34 7/19/35 17/18/36
f 9/21/37 8/20/38 17/18/39
f 10/22/40 9/21/41 17/18/42
f 5/17/43 10/22/44 17/18/45
f 11/7/46 12/6/47 18/23/48
f 12/6/49 13/9/50 18/23/51
f 13/9/52 14/11/53 18/23/54
f 14/11/55 15/13/56 18/23/57
f 15/13/58 16/15/59 18/23/60
f 16/15/61 11/7/62 18/23/63
f 19/24/64 20/25/65 26/26/66 25/27/67
f 20/25/68 21/28/69 27/29/70 26/26/71
f 21/28/72 22/30/73 28/31/74 27/29/75
f 22/30/76 23/32/77 29/33/78 28/31/79
f 23/32/80 24/34/81 30/35/82 29/33/83
f 24/34/84 19/24/85 25/27/86 30/35/87
f 20/36/88 19/37/89 31/38/90
f 21/39/91 20/36/92 31/38/93
f 22/40/94 21/39/95 31/38/96
f 23/41/97 22/40/98 31/38/99
f 24/42/100 23/41/101 31/38/102
f 19/37/103 24/42/104 31/38/105
f 25/27/106 26/26/107 32/43/108
f 26/26/109 27/29/110 32/43/111
f 27/29/112 28/31/113 32/43/114
f 28/31/115 29/33/116 32/43/117
f 29/33/118 30/35/119 32/43/120
f 30/35/121 25/27/122 32/43/123
f 69/44/124 70/45/125 71/46/126 72/47/127
f 73/48/128 74/49/129 75/50/130 76/51/131
f 78/52/132 77/53/133 79/54/134 80/55/135
f 82/56/136 81/57/137 83/58/138 84/59/139
f 72/47/140 71/46/141 81/57/142 82/56/143
f 85/60/144 70/45/145 69/44/146
f 84/59/147 83/58/148 74/49/149 73/48/150
f 76/51/151 75/50/152 77/53/153 78/52/154
f 80/55/155 79/54/156 86/61/157 87/62/158
f 88/63/159 89/64/160 90/65/161 91/66/162
f 87/62/163 86/61/164 92/67/165 93/68/166
f 93/68/167 92/67/168 89/64/169 88/63/170
f 94/69/171 95/70/172 96/71/173 97/72/174
f 91/66/175 90/65/176 95/70/177 94/69/178
f 98/73/179 99/74/180 100/75/181 101/76/182
f 97/72/183 96/71/184 102/77/185 103/78/186
f 103/78/187 102/77/188 99/74/189 98/73/190
f 101/76/191 100/75/192 104/79/193
f 35/80/194 34/81/195 64/82/196 63/83/197
f 38/84/198 37/85/199 61/86/200 68/87/201
f 39/88/202 67/89/203 60/90/204 59/91/205
f 36/92/206 65/93/207 66/94/208 62/95/209
f 65/93/210 35/80/211 63/83/212 66/94/213
f 33/96/214 64/82/215 34/81/216
f 37/85/217 36/92/218 62/95/219 61/86/220
f 67/89/221 38/84/222 68/87/223 60/90/224
f 40/97/225 39/88/226 59/91/227 58/98/228
f 43/99/229 42/100/230 56/101/231 55/102/232
f 41/103/233 40/97/234 58/98/235 57/104/236
f 42/100/237 41/103/238 57/104/239 56/101/240
f 45/105/241 44/106/242 54/107/243 53/108/244
f 44/106/245 43/99/246 55/102/247 54/107/248
f 48/109/249 47/110/250 51/111/251 50/112/252
f 46/113/253 45/105/254 53/108/255 52/114/256
f 47/110/257 46/113/258 52/114/259 51/111/260
f 49/115/261 48/109/262 50/112/263
f 34/81/264 35/80/265 71/116/266 70/117/267
f 63/83/268 64/82/269 69/118/270 72/119/271
f 37/85/272 38/84/273 75/120/274 74/121/275
f 68/87/276 61/86/277 73/122/278 76/123/279
f 67/89/280 39/88/281 79/124/282 77/125/283
f 59/91/284 60/90/285 78/126/286 80/127/287
f 65/93/288 36/92/289 83/128/290 81/129/291
f 62/95/292 66/94/293 82/130/294 84/131/295
f 35/80/296 65/93/297 81/129/298 71/116/299
f 66/94/300 63/83/301 72/119/302 82/130/303
f 33/96/304 34/81/305 70/117/306 85/132/307
f 64/82/308 33/96/309 85/132/310 69/118/311
f 36/92/312 37/85/313 74/121/314 83/128/315
f 61/86/316 62/95/317 84/131/318 73/122/319
f 38/84/320 67/89/321 77/125/322 75/120/323
f 60/90/324 68/87/325 76/123/326 78/126/327
f 39/88/328 40/97/329 86/133/330 79/124/331
f 58/98/332 59/91/333 80/127/334 87/134/335
f 42/100/336 43/99/337 90/135/338 89/136/339
f 55/102/340 56/101/341 88/137/342 91/138/343
f 40/97/344 41/103/345 92/139/346 86/133/347
f 57/104/348 58/98/349 87/134/350 93/140/351
f 41/103/352 42/100/353 89/136/354 92/139/355
f 56/101/356 57/104/357 93/140/358 88/137/359
f 44/106/360 45/105/361 96/141/362 95/142/363
f 53/108/364 54/107/365 94/143/366 97/144/367
f 43/99/368 44/106/369 95/142/370 90/135/371
f 54/107/372 55/102/373 91/138/374 94/143/375
f 47/110/376 48/109/377 100/145/378 99/146/379
f 50/112/380 51/111/381 98/147/382 101/148/383
f 45/105/384 46/113/385 102/149/386 96/141/387
f 52/114/388 53/108/389 97/144/390 103/150/391
f 46/113/392 47/110/393 99/146/394 102/149/395
f 51/111/396 52/114/397 103/150/398 98/147/399
f 104/151/400 100/145/401 48/109/402 49/115/403 50/112/404 101/148/405
f 141/152/406 144/153/407 143/154/408 142/155/409
f 145/156/410 148/157/411 147/158/412 146/159/413
f 150/160/414 152/161/415 151/162/416 149/163/417
f 154/164/418 156/165/419 155/166/420 153/167/421
f 144/153/422 154/164/423 153/167/424 143/154/425
f 157/168/426 141/152/427 142/155/428
f 156/165/429 145/156/430 146/159/431 155/166/432
f 148/157/433 150/160/434 149/163/435 147/158/436
f 152/161/437 159/169/438 158/170/439 151/162/440
f 160/171/441 163/172/442 162/173/443 161/174/444
f 159/169/445 165/175/446 164/176/447 158/170/448
f 165/175/449 160/171/450 161/174/451 164/176/452
f 166/177/453 169/178/454 168/179/455 167/180/456
f 163/172/457 166/177/458 167/180/459 162/173/460
f 170/181/461 173/182/462 172/183/463 171/184/464
f 169/178/465 175/185/466 174/186/467 168/179/468
f 175/185/469 170/181/470 171/184/471 174/186/472
f 173/182/473 176/187/474 172/183/475
f 136/188/476 106/189/477 107/190/478 135/191/479
f 109/192/480 110/193/481 140/194/482 133/195/483
f 139/196/484 111/197/485 131/198/486 132/199/487
f 137/200/488 108/201/489 134/202/490 138/203/491
f 107/190/492 137/200/493 138/203/494 135/191/495
f 105/204/496 106/189/497 136/188/498
f 108/201/499 109/192/500 133/195/501 134/202/502
f 110/193/503 139/196/504 132/199/505 140/194/506
f 111/197/507 112/205/508 130/206/509 131/198/510
f 114/207/511 115/208/512 127/209/513 128/210/514
f 112/205/515 113/211/516 129/212/517 130/206/518
f 113/211/519 114/207/520 128/210/521 129/212/522
f 125/213/523 126/214/524 116/215/525 117/216/526
f 126/214/527 127/209/528 115/208/529 116/215/530
f 122/217/531 123/218/532 119/219/533 120/220/534
f 124/221/535 125/213/536 117/216/537 118/222/538
f 123/218/539 124/221/540 118/222/541 119/219/542
f 121/223/543 122/217/544 120/220/545
f 106/189/546 142/224/547 143/225/548 107/190/549
f 135/191/550 144/226/551 141/227/552 136/188/553
f 109/192/554 146/228/555 147/229/556 110/193/557
f 140/194/558 148/230/559 145/231/560 133/195/561
f 139/196/562 149/232/563 151/233/564 111/197/565
f 131/198/566 152/234/567 150/235/568 132/199/569
f 137/200/570 153/236/571 155/237/572 108/201/573
f 134/202/574 156/238/575 154/239/576 138/203/577
f 107/190/578 143/225/579 153/236/580 137/200/581
f 138/203/582 154/239/583 144/226/584 135/191/585
f 105/204/586 157/240/587 142/224/588 106/189/589
f 136/188/590 141/227/591 157/240/592 105/204/593
f 108/201/594 155/237/595 146/228/596 109/192/597
f 133/195/598 145/231/599 156/238/600 134/202/601
f 110/193/602 147/229/603 149/232/604 139/196/605
f 132/199/606 150/235/607 148/230/608 140/194/609
f 111/197/610 151/233/611 158/241/612 112/205/613
f 130/206/614 159/242/615 152/234/616 131/198/617
f 114/207/618 161/243/619 162/244/620 115/208/621
f 127/209/622 163/245/623 160/246/624 128/210/625
f 112/205/626 158/241/627 164/247/628 113/211/629
f 129/212/630 165/248/631 159/242/632 130/206/633
f 113/211/634 164/247/635 161/243/636 114/207/637
f 128/210/638 160/246/639 165/248/640 129/212/641
f 116/215/642 167/249/643 168/250/644 117/216/645
f 125/213/646 169/251/647 166/252/648 126/214/649
f 115/208/650 162/244/651 167/249/652 116/215/653
f 126/214/654 166/252/655 163/245/656 127/209/657
f 119/219/658 171/253/659 172/254/660 120/220/661
f 122/217/662 173/255/663 170/256/664 123/218/665
f 117/216/666 168/250/667 174/257/668 118/222/669
f 124/221/670 175/258/671 169/251/672 125/213/673
f 118/222/674 174/257/675 171/253/676 119/219/677
f 123/218/678 170/256/679 175/258/680 124/221/681
f 176/259/682 173/255/683 122/217/684 121/223/685 120/220/686 172/254/687
f 297/260/688 178/261/689 180/262/690 344/263/691
f 180/262/692 182/264/693 343/265/694 344/263/695
f 193/266/696 194/267/697 340/268/698 341/269/699
f 184/270/700 186/271/701 337/272/702 338/273/703
f 186/271/704 3/274/705 336/275/706 337/272/707
f 3/274/708 2/276/709 335/277/710 336/275/711
f 182/264/712 189/278/713 342/279/714 343/265/715
f 182/280/716 184/281/717 190/282/718 189/283/719
f 190/284/720 184/270/721 338/273/722 339/285/723
f 183/286/724 181/287/725 188/288/726 191/289/727
f 189/278/728 193/266/729 341/269/730 342/279/731
f 189/283/732 190/282/733 194/290/734 193/291/735
f 194/267/736 190/284/737 339/285/738 340/268/739
f 191/289/740 188/288/741 192/292/742 195/293/743
f 197/294/744 196/295/745 177/296/746 179/297/747
f 198/298/748 197/294/749 179/297/750 181/287/751
f 199/299/752 198/298/753 181/287/754 183/286/755
f 200/300/756 199/299/757 183/286/758 185/301/759
f 201/302/760 200/300/761 185/301/762 187/303/763
f 4/304/764 201/302/765 187/303/766
f 202/305/767 1/1/768 3/3/769 186/306/770
f 203/307/771 202/305/772 186/306/773 184/281/774
f 204/308/775 203/307/776 184/281/777 182/280/778
f 205/309/779 204/308/780 182/280/781 180/310/782
f 206/311/783 205/309/784 180/310/785 178/312/786
f 310/313/787 311/314/788 239/315/789 241/316/790
f 207/317/791 206/311/792 178/312/793 209/318/794
f 209/319/795 178/261/796 297/260/797 298/320/798
f 177/296/799 196/295/800 208/321/801 210/322/802
f 211/323/803 207/317/804 209/318/805 213/324/806
f 250/325/807 247/326/808 300/327/809 301/328/810
f 208/321/811 212/329/812 214/330/813 210/322/814
f 215/331/815 211/323/816 213/324/817 217/332/818
f 217/333/819 213/334/820 303/335/821 304/336/822
f 212/329/823 216/337/824 218/338/825 214/330/826
f 219/339/827 215/331/828 217/332/829 221/340/830
f 221/341/831 217/333/832 304/336/833 305/342/834
f 216/337/835 220/343/836 222/344/837 218/338/838
f 220/343/839 224/345/840 226/346/841 222/344/842
f 223/347/843 219/339/844 221/340/845 225/348/846
f 225/349/847 221/341/848 305/342/849 306/350/850
f 227/351/851 223/347/852 225/348/853 229/352/854
f 229/353/855 225/349/856 306/350/857 307/354/858
f 224/345/859 228/355/860 230/356/861 226/346/862
f 231/357/863 227/351/864 229/352/865 233/358/866
f 233/359/867 229/353/868 307/354/869 308/360/870
f 228/355/871 232/361/872 234/362/873 230/356/874
f 232/361/875 236/363/876 238/364/877 234/362/878
f 235/365/879 231/357/880 233/358/881 237/366/882
f 237/367/883 233/359/884 308/360/885 309/368/886
f 239/369/887 235/365/888 237/366/889 241/370/890
f 241/316/891 237/367/892 309/368/893 310/313/894
f 236/363/895 240/371/896 242/372/897 238/364/898
f 243/373/899 209/319/900 298/320/901 299/374/902
f 210/322/903 214/330/904 245/375/905 244/376/906
f 213/334/907 246/377/908 302/378/909 303/335/910
f 213/324/911 209/318/912 243/379/913 246/380/914
f 247/326/915 243/373/916 299/374/917 300/327/918
f 244/376/919 245/375/920 249/381/921 248/382/922
f 246/377/923 250/325/924 301/328/925 302/378/926
f 246/380/927 243/379/928 247/383/929 250/384/930
f 254/385/931 252/386/932 325/387/933 326/388/934
f 256/389/935 254/385/936 326/388/937 327/390/938
f 269/391/939 268/392/940 329/393/941 330/394/942
f 260/395/943 258/396/944 332/397/945 333/398/946
f 262/399/947 260/395/948 333/398/949 334/400/950
f 2/276/951 262/399/952 334/400/953 335/277/954
f 264/401/955 256/389/956 327/390/957 328/402/958
f 256/403/959 264/404/960 265/405/961 258/406/962
f 258/396/963 265/407/964 331/408/965 332/397/966
f 257/409/967 266/410/968 263/411/969 255/412/970
f 268/392/971 264/401/972 328/402/973 329/393/974
f 264/404/975 268/413/976 269/414/977 265/405/978
f 265/407/979 269/391/980 330/394/981 331/408/982
f 266/410/983 270/415/984 267/416/985 263/411/986
f 253/417/987 251/418/988 196/295/989 197/294/990
f 255/412/991 253/417/992 197/294/993 198/298/994
f 199/299/995 257/409/996 255/412/997 198/298/998
f 200/300/999 259/419/1000 257/409/1001 199/299/1002
f 201/302/1003 261/420/1004 259/419/1005 200/300/1006
f 262/421/1007 2/2/1008 1/1/1009
f 260/422/1010 262/421/1011 1/1/1012 202/305/1013
f 258/406/1014 260/422/1015 202/305/1016 203/307/1017
f 256/403/1018 258/406/1019 203/307/1020 204/308/1021
f 254/423/1022 256/403/1023 204/308/1024 205/309/1025
f 252/424/1026 254/423/1027 205/309/1028 206/311/1029
f 287/425/1030 239/315/1031 311/314/1032 312/426/1033
f 206/311/1034 207/317/1035 271/427/1036 252/424/1037
f 252/386/1038 271/428/1039 324/429/1040 325/387/1041
f 251/418/1042 272/430/1043 208/321/1044 196/295/1045
f 207/317/1046 211/323/1047 273/431/1048 271/427/1049
f 293/432/1050 296/433/1051 321/434/1052 322/435/1053
f 272/430/1054 274/436/1055 212/329/1056 208/321/1057
f 211/323/1058 215/331/1059 275/437/1060 273/431/1061
f 273/438/1062 275/439/1063 318/440/1064 319/441/1065
f 274/436/1066 276/442/1067 216/337/1068 212/329/1069
f 215/331/1070 219/339/1071 277/443/1072 275/437/1073
f 275/439/1074 277/444/1075 317/445/1076 318/440/1077
f 276/442/1078 278/446/1079 220/343/1080 216/337/1081
f 277/443/1082 219/339/1083 223/347/1084 279/447/1085
f 277/444/1086 279/448/1087 316/449/1088 317/445/1089
f 278/446/1090 280/450/1091 224/345/1092 220/343/1093
f 223/347/1094 227/351/1095 281/451/1096 279/447/1097
f 279/448/1098 281/452/1099 315/453/1100 316/449/1101
f 280/450/1102 282/454/1103 228/355/1104 224/345/1105
f 227/351/1106 231/357/1107 283/455/1108 281/451/1109
f 281/452/1110 283/456/1111 314/457/1112 315/453/1113
f 282/454/1114 284/458/1115 232/361/1116 228/355/1117
f 283/455/1118 231/357/1119 235/365/1120 285/459/1121
f 283/456/1122 285/460/1123 313/461/1124 314/457/1125
f 284/458/1126 286/462/1127 236/363/1128 232/361/1129
f 235/365/1130 239/369/1131 287/463/1132 285/459/1133
f 285/460/1134 287/425/1135 312/426/1136 313/461/1137
f 286/462/1138 288/464/1139 240/371/1140 236/363/1141
f 271/428/1142 289/465/1143 323/466/1144 324/429/1145
f 272/430/1146 290/467/1147 291/468/1148 274/436/1149
f 292/469/1150 273/438/1151 319/441/1152 320/470/1153
f 273/431/1154 292/471/1155 289/472/1156 271/427/1157
f 289/465/1158 293/432/1159 322/435/1160 323/466/1161
f 290/467/1162 294/473/1163 295/474/1164 291/468/1165
f 296/433/1166 292/469/1167 320/470/1168 321/434/1169
f 292/471/1170 296/475/1171 293/476/1172 289/472/1173
f 298/320/1174 297/260/1175 177/296/1176 210/322/1177
f 299/374/1178 298/320/1179 210/322/1180 244/376/1181
f 300/327/1182 299/374/1183 244/376/1184 248/382/1185
f 301/328/1186 300/327/1187 248/382/1188 249/381/1189
f 245/375/1190 302/378/1191 301/328/1192 249/381/1193
f 214/330/1194 303/335/1195 302/378/1196 245/375/1197
f 304/336/1198 303/335/1199 214/330/1200 218/338/1201
f 305/342/1202 304/336/1203 218/338/1204 222/344/1205
f 222/344/1206 226/346/1207 306/350/1208 305/342/1209
f 307/354/1210 306/350/1211 226/346/1212 230/356/1213
f 308/360/1214 307/354/1215 230/356/1216 234/362/1217
f 234/362/1218 238/364/1219 309/368/1220 308/360/1221
f 310/313/1222 309/368/1223 238/364/1224 242/372/1225
f 242/372/1226 240/371/1227 311/314/1228 310/313/1229
f 240/371/1230 288/464/1231 312/426/1232 311/314/1233
f 313/461/1234 312/426/1235 288/464/1236 286/462/1237
f 284/458/1238 314/457/1239 313/461/1240 286/462/1241
f 315/453/1242 314/457/1243 284/458/1244 282/454/1245
f 316/449/1246 315/453/1247 282/454/1248 280/450/1249
f 278/446/1250 317/445/1251 316/449/1252 280/450/1253
f 318/440/1254 317/445/1255 278/446/1256 276/442/1257
f 319/441/1258 318/440/1259 276/442/1260 274/436/1261
f 274/436/1262 291/468/1263 320/470/1264 319/441/1265
f 291/468/1266 295/474/1267 321/434/1268 320/470/1269
f 322/435/1270 321/434/1271 295/474/1272 294/473/1273
f 323/466/1274 322/435/1275 294/473/1276 290/467/1277
f 324/429/1278 323/466/1279 290/467/1280 272/430/1281
f 325/387/1282 324/429/1283 272/430/1284 251/418/1285
f 326/388/1286 325/387/1287 251/418/1288 253/417/1289
f 327/390/1290 326/388/1291 253/417/1292 255/412/1293
f 255/412/1294 263/411/1295 328/402/1296 327/390/1297
f 263/411/1298 267/416/1299 329/393/1300 328/402/1301
f 267/416/1302 270/415/1303 330/394/1304 329/393/1305
f 331/408/1306 330/394/1307 270/415/1308 266/410/1309
f 332/397/1310 331/408/1311 266/410/1312 257/409/1313
f 257/409/1314 259/419/1315 333/398/1316 332/397/1317
f 259/419/1318 261/420/1319 334/400/1320 333/398/1321
f 187/303/1322 336/275/1323 335/277/1324 4/304/1325
f 185/301/1326 337/272/1327 336/275/1328 187/303/1329
f 183/286/1330 338/273/1331 337/272/1332 185/301/1333
f 339/285/1334 338/273/1335 183/286/1336 191/289/1337
f 340/268/1338 339/285/1339 191/289/1340 195/293/1341
f 192/292/1342 341/269/1343 340/268/1344 195/293/1345
f 188/288/1346 342/279/1347 341/269/1348 192/292/1349
f 181/287/1350 343/265/1351 342/279/1352 188/288/1353
f 344/263/1354 343/265/1355 181/287/1356 179/297/1357
f 297/260/1358 344/263/1359 179/297/1360 177/296/1361
f 201/302/1362 4/304/1363 261/420/1364
f 261/420/1365 4/304/1366 335/277/1367 334/400/1368
