# This file uses centimeters as units for non-parametric coordinates.

mtllib Healthbox_low.mtl
g default
v 0.358723 0.471160 0.444854
v 0.417368 0.471160 0.444854
v 0.358723 0.525391 0.444854
v 0.417368 0.525391 0.444854
v 0.358723 0.525391 0.385657
v 0.417368 0.525391 0.385657
v 0.358723 0.471160 0.385657
v 0.417368 0.471160 0.385657
v 0.377421 0.560429 0.444854
v 0.398669 0.560429 0.444854
v 0.398669 0.560429 0.385657
v 0.377421 0.560429 0.385657
v 0.464195 0.472180 -0.265511
v 0.464195 0.444385 -0.277024
v 0.464195 0.416589 -0.265511
v 0.464195 0.405077 -0.237716
v 0.464195 0.416589 -0.209920
v 0.464195 0.444385 -0.198407
v 0.464195 0.472180 -0.209920
v 0.464195 0.483693 -0.237716
v 0.111436 0.472180 -0.265511
v 0.111436 0.444385 -0.277024
v 0.111436 0.416589 -0.265511
v 0.111436 0.405077 -0.237716
v 0.111436 0.416589 -0.209920
v 0.111436 0.444385 -0.198407
v 0.111436 0.472180 -0.209920
v 0.111436 0.483693 -0.237716
v 0.464195 0.444385 -0.237716
v 0.111436 0.444385 -0.237716
v 0.417368 0.442003 0.444854
v 0.358723 0.442003 0.444854
v 0.417368 0.405657 0.444854
v 0.358723 0.405657 0.444854
v 0.417368 0.405657 0.385657
v 0.358723 0.405657 0.385657
v 0.417368 0.442003 0.385657
v 0.358723 0.442003 0.385657
v 0.398669 0.382174 0.444854
v 0.377421 0.382174 0.444854
v 0.377421 0.382174 0.385657
v 0.398669 0.382174 0.385657
v -0.408398 0.471160 0.444854
v -0.349752 0.471160 0.444854
v -0.408398 0.525391 0.444854
v -0.349752 0.525391 0.444854
v -0.408398 0.525391 0.385657
v -0.349752 0.525391 0.385657
v -0.408398 0.471160 0.385657
v -0.349752 0.471160 0.385657
v -0.389699 0.560429 0.444854
v -0.368451 0.560429 0.444854
v -0.368451 0.560429 0.385657
v -0.389699 0.560429 0.385657
v -0.349752 0.442003 0.444854
v -0.408398 0.442003 0.444854
v -0.349752 0.405657 0.444854
v -0.408398 0.405657 0.444854
v -0.349752 0.405657 0.385657
v -0.408398 0.405657 0.385657
v -0.349752 0.442003 0.385657
v -0.408398 0.442003 0.385657
v -0.368451 0.382174 0.444854
v -0.389699 0.382174 0.444854
v -0.389699 0.382174 0.385657
v -0.368451 0.382174 0.385657
v -0.494955 0.465453 0.397807
v -0.494955 0.465453 -0.237966
v 0.510437 0.465453 -0.237966
v 0.510437 0.465453 0.397807
v -0.494955 0.445566 0.397807
v -0.494955 0.445566 -0.237966
v 0.510437 0.445566 -0.237966
v 0.510437 0.445566 0.397807
v -0.464713 0.446164 0.378683
v -0.464713 0.446164 -0.218842
v -0.464713 0.464855 0.378683
v -0.464713 0.464855 -0.218842
v 0.480193 0.464855 -0.218842
v 0.480193 0.446164 -0.218842
v 0.480193 0.446164 0.378683
v 0.480193 0.464855 0.378683
v -0.447333 0.624208 0.350185
v -0.494955 0.576586 0.397807
v 0.462814 0.624208 0.350185
v 0.510437 0.576586 0.397807
v -0.447333 0.624208 -0.190344
v -0.494955 0.576586 -0.237966
v 0.462814 0.624208 -0.190344
v 0.510437 0.576586 -0.237966
v -0.463170 0.002290 0.366022
v -0.494955 0.034076 0.397807
v 0.510437 0.034076 0.397807
v 0.478651 0.002290 0.366022
v -0.463170 0.002290 -0.206180
v -0.494955 0.034076 -0.237966
v 0.478651 0.002290 -0.206180
v 0.510437 0.034076 -0.237966
v -0.074075 0.472180 -0.265511
v -0.074075 0.444385 -0.277024
v -0.074075 0.416589 -0.265511
v -0.074075 0.405077 -0.237716
v -0.074075 0.416589 -0.209920
v -0.074075 0.444385 -0.198407
v -0.074075 0.472180 -0.209920
v -0.074075 0.483693 -0.237716
v -0.426835 0.472180 -0.265511
v -0.426835 0.444385 -0.277024
v -0.426835 0.416589 -0.265511
v -0.426835 0.405077 -0.237716
v -0.426835 0.416589 -0.209920
v -0.426835 0.444385 -0.198407
v -0.426835 0.472180 -0.209920
v -0.426835 0.483693 -0.237716
v -0.074075 0.444385 -0.237716
v -0.426835 0.444385 -0.237716
vt 0.536618 0.380166
vt 0.499701 0.345992
vt 0.451979 0.329768
vt 0.550144 0.332112
vt 0.585746 0.204243
vt 0.576079 0.200087
vt 0.584108 0.175704
vt 0.594005 0.179649
vt 0.548793 0.432896
vt 0.449541 0.427232
vt 0.469654 0.381490
vt 0.502754 0.413560
vt 0.606266 0.216206
vt 0.559733 0.210723
vt 0.563332 0.163986
vt 0.610177 0.169041
vt 0.118312 0.156909
vt 0.118169 0.140475
vt 0.310862 0.138797
vt 0.311005 0.155231
vt 0.118026 0.124041
vt 0.310719 0.122363
vt 0.117883 0.107607
vt 0.310576 0.105929
vt 0.117740 0.091173
vt 0.310433 0.089495
vt 0.117597 0.074739
vt 0.310290 0.073061
vt 0.117454 0.058305
vt 0.310147 0.056627
vt 0.117311 0.041871
vt 0.310004 0.040193
vt 0.117168 0.025437
vt 0.309861 0.023759
vt 0.495900 0.469361
vt 0.488987 0.484266
vt 0.474451 0.468469
vt 0.490248 0.453932
vt 0.475342 0.447020
vt 0.459914 0.452672
vt 0.453002 0.467578
vt 0.458653 0.483006
vt 0.473559 0.489918
vt 0.519072 0.484642
vt 0.511728 0.469944
vt 0.533143 0.468429
vt 0.516929 0.454358
vt 0.531627 0.447014
vt 0.547213 0.452215
vt 0.554557 0.466913
vt 0.549357 0.482499
vt 0.534658 0.489843
vt 0.586495 0.348663
vt 0.573618 0.403348
vt 0.554681 0.431714
vt 0.559610 0.328181
vt 0.466460 0.172025
vt 0.478308 0.173114
vt 0.475912 0.201935
vt 0.464128 0.200799
vt 0.661527 0.336697
vt 0.654420 0.435953
vt 0.626217 0.414695
vt 0.643509 0.365774
vt 0.448422 0.164636
vt 0.492383 0.163958
vt 0.493815 0.209491
vt 0.450224 0.210134
vt 0.610837 0.237345
vt 0.577448 0.275353
vt 0.556510 0.320356
vt 0.562121 0.220574
vt 0.663597 0.185077
vt 0.659909 0.196460
vt 0.632065 0.188952
vt 0.635924 0.177815
vt 0.661684 0.225965
vt 0.658838 0.327074
vt 0.613429 0.305281
vt 0.646095 0.275372
vt 0.675158 0.161128
vt 0.672260 0.214256
vt 0.619632 0.212302
vt 0.622629 0.160763
vt 0.478679 0.237258
vt 0.465411 0.290359
vt 0.447107 0.319477
vt 0.449349 0.219522
vt 0.520338 0.172734
vt 0.531969 0.174638
vt 0.527587 0.202950
vt 0.516023 0.201003
vt 0.550992 0.220892
vt 0.547500 0.321935
vt 0.519251 0.302604
vt 0.531915 0.249237
vt 0.503031 0.164172
vt 0.546517 0.166575
vt 0.544750 0.211668
vt 0.501631 0.209256
vt 0.082248 0.632146
vt 0.074955 0.393047
vt 0.083805 0.392914
vt 0.090761 0.631816
vt 0.029902 0.026915
vt 0.037428 0.411079
vt 0.028458 0.411254
vt 0.021094 0.026990
vt 0.032031 0.627597
vt 0.040939 0.627421
vt 0.069190 0.022713
vt 0.077809 0.022636
vt 0.068254 0.640128
vt 0.065781 0.398890
vt 0.093249 0.398988
vt 0.104698 0.638174
vt 0.038771 0.014690
vt 0.047200 0.417640
vt 0.019288 0.417519
vt 0.011903 0.015695
vt 0.022542 0.622443
vt 0.050160 0.622371
vt 0.060244 0.011852
vt 0.086529 0.010842
vt 0.173451 0.586255
vt 0.148121 0.610153
vt 0.147107 0.207929
vt 0.172073 0.232383
vt 0.384741 0.585628
vt 0.409852 0.609992
vt 0.408441 0.207593
vt 0.383239 0.231568
vt 0.442781 0.636910
vt 0.117926 0.639798
vt 0.438428 0.177730
vt 0.114339 0.180787
vt 0.462795 0.633594
vt 0.454376 0.642346
vt 0.452812 0.506783
vt 0.461289 0.515453
vt 0.657129 0.631236
vt 0.665606 0.639906
vt 0.655624 0.513095
vt 0.664042 0.504343
vt 0.397802 0.985850
vt 0.019743 0.980909
vt 0.021765 0.826176
vt 0.399824 0.831117
vt 0.645081 0.815102
vt 0.261881 0.811923
vt 0.263183 0.655086
vt 0.646382 0.658265
vt 0.020861 0.653075
vt 0.019560 0.809913
vt 0.636873 0.988975
vt 0.638895 0.834241
vt 0.495031 0.033081
vt 0.495165 0.048238
vt 0.317442 0.049811
vt 0.317308 0.034654
vt 0.495299 0.063395
vt 0.317576 0.064969
vt 0.495433 0.078552
vt 0.317710 0.080126
vt 0.495567 0.093710
vt 0.317845 0.095283
vt 0.495701 0.108867
vt 0.317979 0.110440
vt 0.495835 0.124024
vt 0.318113 0.125597
vt 0.495970 0.139181
vt 0.318247 0.140755
vt 0.496104 0.154339
vt 0.318381 0.155912
vt 0.660268 0.469361
vt 0.653356 0.484266
vt 0.638819 0.468469
vt 0.654616 0.453932
vt 0.639710 0.447020
vt 0.624282 0.452672
vt 0.617370 0.467578
vt 0.623022 0.483006
vt 0.637927 0.489918
vt 0.574982 0.484642
vt 0.567639 0.469944
vt 0.589053 0.468429
vt 0.572839 0.454358
vt 0.587537 0.447014
vt 0.603123 0.452215
vt 0.610467 0.466913
vt 0.605267 0.482499
vt 0.590568 0.489843
vn 0.000000 0.000000 1.000000
vn 0.000000 0.000000 1.000000
vn 0.000000 0.000000 1.000000
vn 0.000000 0.000000 1.000000
vn 0.000000 1.000000 0.000000
vn 0.000000 1.000000 0.000000
vn 0.000000 1.000000 0.000000
vn 0.000000 1.000000 0.000000
vn 0.000000 0.000000 -1.000000
vn 0.000000 0.000000 -1.000000
vn 0.000000 0.000000 -1.000000
vn 0.000000 0.000000 -1.000000
vn 0.000000 -1.000000 0.000000
vn 0.000000 -1.000000 0.000000
vn 0.000000 -1.000000 0.000000
vn 0.000000 -1.000000 0.000000
vn 1.000000 0.000000 0.000000
vn 1.000000 0.000000 0.000000
vn 1.000000 0.000000 0.000000
vn 1.000000 0.000000 0.000000
vn -1.000000 0.000000 0.000000
vn -1.000000 0.000000 0.000000
vn -1.000000 0.000000 0.000000
vn -1.000000 0.000000 0.000000
vn 0.000000 0.000000 1.000000
vn 0.000000 0.000000 1.000000
vn 0.000000 0.000000 1.000000
vn 0.000000 0.000000 1.000000
vn 0.882230 0.470819 0.000000
vn 0.882230 0.470819 0.000000
vn 0.882230 0.470819 0.000000
vn 0.882230 0.470819 0.000000
vn 0.000000 0.000000 -1.000000
vn 0.000000 0.000000 -1.000000
vn 0.000000 0.000000 -1.000000
vn 0.000000 0.000000 -1.000000
vn -0.882232 0.470814 0.000000
vn -0.882232 0.470814 0.000000
vn -0.882232 0.470814 0.000000
vn -0.882232 0.470814 0.000000
vn 0.000000 0.382686 -0.923878
vn 0.000000 0.382686 -0.923878
vn 0.000000 0.382686 -0.923878
vn 0.000000 0.382686 -0.923878
vn 0.000000 -0.382685 -0.923879
vn 0.000000 -0.382685 -0.923879
vn 0.000000 -0.382685 -0.923879
vn 0.000000 -0.382685 -0.923879
vn 0.000000 -0.923879 -0.382684
vn 0.000000 -0.923879 -0.382684
vn 0.000000 -0.923879 -0.382684
vn 0.000000 -0.923879 -0.382684
vn 0.000000 -0.923879 0.382684
vn 0.000000 -0.923879 0.382684
vn 0.000000 -0.923879 0.382684
vn 0.000000 -0.923879 0.382684
vn 0.000000 -0.382683 0.923880
vn 0.000000 -0.382683 0.923880
vn 0.000000 -0.382683 0.923880
vn 0.000000 -0.382683 0.923880
vn 0.000000 0.382684 0.923879
vn 0.000000 0.382684 0.923879
vn 0.000000 0.382684 0.923879
vn 0.000000 0.382684 0.923879
vn 0.000000 0.923880 0.382683
vn 0.000000 0.923880 0.382683
vn 0.000000 0.923880 0.382683
vn 0.000000 0.923880 0.382683
vn 0.000000 0.923880 -0.382683
vn 0.000000 0.923880 -0.382683
vn 0.000000 0.923880 -0.382683
vn 0.000000 0.923880 -0.382683
vn 1.000000 0.000000 0.000000
vn 1.000000 0.000000 0.000000
vn 1.000000 0.000000 0.000000
vn 1.000000 0.000000 0.000000
vn 1.000000 0.000000 0.000000
vn 1.000000 0.000000 0.000000
vn 1.000000 0.000000 0.000000
vn 1.000000 0.000000 0.000000
vn 1.000000 0.000000 0.000000
vn 1.000000 -0.000002 0.000000
vn 1.000000 0.000000 0.000000
vn 1.000000 0.000000 0.000000
vn 1.000000 0.000000 0.000000
vn 1.000000 -0.000002 0.000000
vn 1.000000 0.000000 0.000000
vn 1.000000 0.000002 0.000000
vn 1.000000 0.000000 0.000000
vn 1.000000 0.000000 0.000000
vn 1.000000 0.000000 0.000000
vn 1.000000 0.000002 0.000000
vn 1.000000 0.000000 0.000000
vn 1.000000 0.000000 0.000000
vn 1.000000 0.000000 0.000000
vn 1.000000 0.000000 0.000000
vn -1.000000 0.000000 0.000000
vn -1.000000 -0.000001 0.000000
vn -1.000000 0.000000 0.000000
vn -1.000000 -0.000001 0.000000
vn -1.000000 -0.000001 0.000000
vn -1.000000 0.000000 0.000000
vn -1.000000 -0.000001 0.000000
vn -1.000000 0.000000 0.000000
vn -1.000000 0.000000 0.000000
vn -1.000000 0.000000 0.000000
vn -1.000000 0.000000 0.000000
vn -1.000000 0.000000 0.000000
vn -1.000000 0.000000 0.000000
vn -1.000000 0.000000 0.000000
vn -1.000000 0.000000 0.000000
vn -1.000000 0.000000 0.000000
vn -1.000000 0.000000 0.000000
vn -1.000000 0.000000 0.000000
vn -1.000000 0.000000 0.000000
vn -1.000000 0.000000 0.000000
vn -1.000000 0.000000 0.000000
vn -1.000000 0.000000 0.000000
vn -1.000000 0.000000 0.000000
vn -1.000000 0.000000 0.000000
vn 0.000000 0.000000 1.000000
vn 0.000000 0.000000 1.000000
vn 0.000000 0.000000 1.000000
vn 0.000000 0.000000 1.000000
vn 0.000000 -1.000000 0.000000
vn 0.000000 -1.000000 0.000000
vn 0.000000 -1.000000 0.000000
vn 0.000000 -1.000000 0.000000
vn 0.000000 0.000000 -1.000000
vn 0.000000 0.000000 -1.000000
vn 0.000000 0.000000 -1.000000
vn 0.000000 0.000000 -1.000000
vn 0.000000 1.000000 0.000000
vn 0.000000 1.000000 0.000000
vn 0.000000 1.000000 0.000000
vn 0.000000 1.000000 0.000000
vn -1.000000 0.000000 0.000000
vn -1.000000 0.000000 0.000000
vn -1.000000 0.000000 0.000000
vn -1.000000 0.000000 0.000000
vn 1.000000 0.000000 0.000000
vn 1.000000 0.000000 0.000000
vn 1.000000 0.000000 0.000000
vn 1.000000 0.000000 0.000000
vn 0.000000 0.000000 1.000000
vn 0.000000 0.000000 1.000000
vn 0.000000 0.000000 1.000000
vn 0.000000 0.000000 1.000000
vn -0.782295 -0.622908 0.000000
vn -0.782295 -0.622908 0.000000
vn -0.782295 -0.622908 0.000000
vn -0.782295 -0.622908 0.000000
vn 0.000000 0.000000 -1.000000
vn 0.000000 0.000000 -1.000000
vn 0.000000 0.000000 -1.000000
vn 0.000000 0.000000 -1.000000
vn 0.782291 -0.622913 0.000000
vn 0.782291 -0.622913 0.000000
vn 0.782291 -0.622913 0.000000
vn 0.782291 -0.622913 0.000000
vn 0.000000 0.000000 1.000000
vn 0.000000 0.000000 1.000000
vn 0.000000 0.000000 1.000000
vn 0.000000 0.000000 1.000000
vn 0.000000 1.000000 0.000000
vn 0.000000 1.000000 0.000000
vn 0.000000 1.000000 0.000000
vn 0.000000 1.000000 0.000000
vn 0.000000 0.000000 -1.000000
vn 0.000000 0.000000 -1.000000
vn 0.000000 0.000000 -1.000000
vn 0.000000 0.000000 -1.000000
vn 0.000000 -1.000000 0.000000
vn 0.000000 -1.000000 0.000000
vn 0.000000 -1.000000 0.000000
vn 0.000000 -1.000000 0.000000
vn 1.000000 0.000000 0.000000
vn 1.000000 0.000000 0.000000
vn 1.000000 0.000000 0.000000
vn 1.000000 0.000000 0.000000
vn -1.000000 0.000000 0.000000
vn -1.000000 0.000000 0.000000
vn -1.000000 0.000000 0.000000
vn -1.000000 0.000000 0.000000
vn 0.000000 0.000000 1.000000
vn 0.000000 0.000000 1.000000
vn 0.000000 0.000000 1.000000
vn 0.000000 0.000000 1.000000
vn 0.882226 0.470827 0.000000
vn 0.882226 0.470827 0.000000
vn 0.882226 0.470827 0.000000
vn 0.882226 0.470827 0.000000
vn 0.000000 0.000000 -1.000000
vn 0.000000 0.000000 -1.000000
vn 0.000000 0.000000 -1.000000
vn 0.000000 0.000000 -1.000000
vn -0.882226 0.470827 0.000000
vn -0.882226 0.470827 0.000000
vn -0.882226 0.470827 0.000000
vn -0.882226 0.470827 0.000000
vn 0.000000 0.000000 1.000000
vn 0.000000 0.000000 1.000000
vn 0.000000 0.000000 1.000000
vn 0.000000 0.000000 1.000000
vn 0.000000 -1.000000 0.000000
vn 0.000000 -1.000000 0.000000
vn 0.000000 -1.000000 0.000000
vn 0.000000 -1.000000 0.000000
vn 0.000000 0.000000 -1.000000
vn 0.000000 0.000000 -1.000000
vn 0.000000 0.000000 -1.000000
vn 0.000000 0.000000 -1.000000
vn 0.000000 1.000000 0.000000
vn 0.000000 1.000000 0.000000
vn 0.000000 1.000000 0.000000
vn 0.000000 1.000000 0.000000
vn -1.000000 0.000000 0.000000
vn -1.000000 0.000000 0.000000
vn -1.000000 0.000000 0.000000
vn -1.000000 0.000000 0.000000
vn 1.000000 0.000000 0.000000
vn 1.000000 0.000000 0.000000
vn 1.000000 0.000000 0.000000
vn 1.000000 0.000000 0.000000
vn 0.000000 0.000000 1.000000
vn 0.000000 0.000000 1.000000
vn 0.000000 0.000000 1.000000
vn 0.000000 0.000000 1.000000
vn -0.782285 -0.622921 0.000000
vn -0.782285 -0.622921 0.000000
vn -0.782285 -0.622921 0.000000
vn -0.782285 -0.622921 0.000000
vn 0.000000 0.000000 -1.000000
vn 0.000000 0.000000 -1.000000
vn 0.000000 0.000000 -1.000000
vn 0.000000 0.000000 -1.000000
vn 0.782285 -0.622921 0.000000
vn 0.782285 -0.622921 0.000000
vn 0.782285 -0.622921 0.000000
vn 0.782285 -0.622921 0.000000
vn -1.000000 0.000000 0.000000
vn -1.000000 0.000000 0.000000
vn -1.000000 0.000000 0.000000
vn -1.000000 0.000000 0.000000
vn 0.000000 0.000000 -1.000000
vn 0.000000 0.000000 -1.000000
vn 0.000000 0.000000 -1.000000
vn 0.000000 0.000000 -1.000000
vn 1.000000 0.000000 0.000000
vn 1.000000 0.000000 0.000000
vn 1.000000 0.000000 0.000000
vn 1.000000 0.000000 0.000000
vn 0.000000 0.000000 1.000000
vn 0.000000 0.000000 1.000000
vn 0.000000 0.000000 1.000000
vn 0.000000 0.000000 1.000000
vn -0.019777 0.999804 0.000000
vn -0.019777 0.999804 0.000000
vn -0.019777 0.999804 0.000000
vn -0.019777 0.999804 0.000000
vn -0.019773 -0.999805 0.000000
vn -0.019773 -0.999805 0.000000
vn -0.019773 -0.999805 0.000000
vn -0.019773 -0.999805 0.000000
vn 0.000000 -0.999511 -0.031260
vn 0.000000 -0.999511 -0.031260
vn 0.000000 -0.999511 -0.031260
vn 0.000000 -0.999511 -0.031260
vn 0.000000 0.999511 -0.031269
vn 0.000000 0.999511 -0.031269
vn 0.000000 0.999511 -0.031269
vn 0.000000 0.999511 -0.031269
vn 0.019777 0.999804 0.000000
vn 0.019777 0.999804 0.000000
vn 0.019777 0.999804 0.000000
vn 0.019777 0.999804 0.000000
vn 0.019772 -0.999805 0.000000
vn 0.019772 -0.999805 0.000000
vn 0.019772 -0.999805 0.000000
vn 0.019772 -0.999805 0.000000
vn 0.000000 0.999511 0.031262
vn 0.000000 0.999511 0.031262
vn 0.000000 0.999511 0.031262
vn 0.000000 0.999511 0.031262
vn 0.000000 -0.999511 0.031260
vn 0.000000 -0.999511 0.031260
vn 0.000000 -0.999511 0.031260
vn 0.000000 -0.999511 0.031260
vn 0.000000 0.707109 0.707104
vn 0.000000 0.707109 0.707105
vn 0.000000 0.707109 0.707104
vn 0.000000 0.707109 0.707104
vn -0.707104 0.707110 0.000000
vn -0.707104 0.707110 0.000000
vn -0.707104 0.707110 0.000000
vn -0.707104 0.707110 0.000000
vn 0.707101 0.707113 0.000000
vn 0.707101 0.707113 0.000000
vn 0.707101 0.707113 0.000000
vn 0.707101 0.707113 0.000000
vn 0.000000 0.707110 -0.707104
vn 0.000000 0.707110 -0.707104
vn 0.000000 0.707110 -0.707104
vn 0.000000 0.707110 -0.707104
vn 0.000000 1.000000 0.000000
vn 0.000000 1.000000 0.000000
vn 0.000000 1.000000 0.000000
vn 0.000000 1.000000 0.000000
vn -1.000000 0.000000 0.000000
vn -1.000000 0.000000 0.000000
vn -1.000000 0.000000 0.000000
vn -1.000000 0.000000 0.000000
vn 0.000000 0.000000 -1.000000
vn 0.000000 0.000000 -1.000000
vn 0.000000 0.000000 -1.000000
vn 0.000000 0.000000 -1.000000
vn 1.000000 0.000000 0.000000
vn 1.000000 0.000000 0.000000
vn 1.000000 0.000000 0.000000
vn 1.000000 0.000000 0.000000
vn 0.000000 0.000000 1.000000
vn 0.000000 0.000000 1.000000
vn 0.000000 0.000000 1.000000
vn 0.000000 0.000000 1.000000
vn -0.707108 -0.707106 0.000000
vn -0.707108 -0.707106 0.000000
vn -0.707108 -0.707106 0.000000
vn -0.707108 -0.707106 0.000000
vn 0.000000 -0.707107 0.707106
vn 0.000000 -0.707107 0.707106
vn 0.000000 -0.707107 0.707106
vn 0.000000 -0.707107 0.707106
vn 0.707104 -0.707110 0.000000
vn 0.707104 -0.707110 0.000000
vn 0.707104 -0.707110 0.000000
vn 0.707104 -0.707110 0.000000
vn 0.000000 -0.707107 -0.707106
vn 0.000000 -0.707108 -0.707106
vn 0.000000 -0.707107 -0.707106
vn 0.000000 -0.707107 -0.707106
vn 0.000000 0.000000 1.000000
vn 0.000000 0.000000 1.000000
vn 0.000000 0.000000 1.000000
vn 0.000000 0.000000 1.000000
vn 0.000000 0.000000 -1.000000
vn 0.000000 0.000000 -1.000000
vn 0.000000 0.000000 -1.000000
vn 0.000000 0.000000 -1.000000
vn 0.000000 -1.000000 0.000000
vn 0.000000 -1.000000 0.000000
vn 0.000000 -1.000000 0.000000
vn 0.000000 -1.000000 0.000000
vn 1.000000 0.000000 0.000000
vn 1.000000 0.000000 0.000000
vn 1.000000 0.000000 0.000000
vn 1.000000 0.000000 0.000000
vn -1.000000 0.000000 0.000000
vn -1.000000 0.000000 0.000000
vn -1.000000 0.000000 0.000000
vn -1.000000 0.000000 0.000000
vn 0.000000 0.382686 -0.923878
vn 0.000000 0.382686 -0.923878
vn 0.000000 0.382686 -0.923878
vn 0.000000 0.382686 -0.923878
vn 0.000000 -0.382685 -0.923879
vn 0.000000 -0.382685 -0.923879
vn 0.000000 -0.382685 -0.923879
vn 0.000000 -0.382685 -0.923879
vn 0.000000 -0.923879 -0.382684
vn 0.000000 -0.923879 -0.382684
vn 0.000000 -0.923879 -0.382684
vn 0.000000 -0.923879 -0.382684
vn 0.000000 -0.923879 0.382684
vn 0.000000 -0.923879 0.382684
vn 0.000000 -0.923879 0.382684
vn 0.000000 -0.923879 0.382684
vn 0.000000 -0.382683 0.923880
vn 0.000000 -0.382683 0.923880
vn 0.000000 -0.382683 0.923880
vn 0.000000 -0.382683 0.923880
vn 0.000000 0.382685 0.923879
vn 0.000000 0.382685 0.923879
vn 0.000000 0.382685 0.923879
vn 0.000000 0.382685 0.923879
vn 0.000000 0.923879 0.382684
vn 0.000000 0.923879 0.382684
vn 0.000000 0.923879 0.382684
vn 0.000000 0.923879 0.382684
vn 0.000000 0.923879 -0.382684
vn 0.000000 0.923879 -0.382684
vn 0.000000 0.923879 -0.382684
vn 0.000000 0.923879 -0.382684
vn 1.000000 0.000000 0.000000
vn 1.000000 0.000000 0.000000
vn 1.000000 0.000000 0.000000
vn 1.000000 0.000000 0.000000
vn 1.000000 0.000000 0.000000
vn 1.000000 0.000000 0.000000
vn 1.000000 0.000000 0.000000
vn 1.000000 0.000000 0.000000
vn 1.000000 0.000000 0.000000
vn 1.000000 0.000001 0.000000
vn 1.000000 0.000000 0.000000
vn 1.000000 0.000000 0.000000
vn 1.000000 0.000001 0.000000
vn 1.000000 0.000001 0.000000
vn 1.000000 0.000000 0.000000
vn 1.000000 0.000000 0.000000
vn 1.000000 0.000001 0.000000
vn 1.000000 0.000000 0.000000
vn 1.000000 0.000000 0.000000
vn 1.000000 0.000000 0.000000
vn 1.000000 0.000000 0.000000
vn 1.000000 0.000000 0.000000
vn 1.000000 0.000000 0.000000
vn 1.000000 0.000000 0.000000
vn -1.000000 0.000000 0.000000
vn -1.000000 0.000000 0.000000
vn -1.000000 0.000000 0.000000
vn -1.000000 0.000000 0.000000
vn -1.000000 0.000000 0.000000
vn -1.000000 0.000000 0.000000
vn -1.000000 0.000000 0.000000
vn -1.000000 0.000000 0.000000
vn -1.000000 0.000000 0.000000
vn -1.000000 0.000000 0.000000
vn -1.000000 0.000000 0.000000
vn -1.000000 0.000000 0.000000
vn -1.000000 0.000000 0.000000
vn -1.000000 0.000000 0.000000
vn -1.000000 0.000000 0.000000
vn -1.000000 0.000000 0.000000
vn -1.000000 0.000000 0.000000
vn -1.000000 0.000000 0.000000
vn -1.000000 0.000000 0.000000
vn -1.000000 0.000000 0.000000
vn -1.000000 0.000000 0.000000
vn -1.000000 0.000000 0.000000
vn -1.000000 0.000000 0.000000
vn -1.000000 0.000000 0.000000
s off
g healthbox_low:polySurface22
usemtl initialShadingGroup
f 1/1/1 2/2/2 4/3/3 3/4/4
f 9/5/5 10/6/6 11/7/7 12/8/8
f 5/9/9 6/10/10 8/11/11 7/12/12
f 7/12/13 8/11/14 2/2/15 1/1/16
f 2/2/17 8/11/18 6/10/19 4/3/20
f 7/12/21 1/1/22 3/4/23 5/9/24
f 3/13/25 4/14/26 10/6/27 9/5/28
f 4/14/29 6/15/30 11/7/31 10/6/32
f 6/15/33 5/16/34 12/8/35 11/7/36
f 5/16/37 3/13/38 9/5/39 12/8/40
f 13/17/41 14/18/42 22/19/43 21/20/44
f 14/18/45 15/21/46 23/22/47 22/19/48
f 15/21/49 16/23/50 24/24/51 23/22/52
f 16/23/53 17/25/54 25/26/55 24/24/56
f 17/25/57 18/27/58 26/28/59 25/26/60
f 18/27/61 19/29/62 27/30/63 26/28/64
f 19/29/65 20/31/66 28/32/67 27/30/68
f 20/31/69 13/33/70 21/34/71 28/32/72
f 14/35/73 13/36/74 29/37/75
f 15/38/76 14/35/77 29/37/78
f 16/39/79 15/38/80 29/37/81
f 17/40/82 16/39/83 29/37/84
f 18/41/85 17/40/86 29/37/87
f 19/42/88 18/41/89 29/37/90
f 20/43/91 19/42/92 29/37/93
f 13/36/94 20/43/95 29/37/96
f 21/44/97 22/45/98 30/46/99
f 22/45/100 23/47/101 30/46/102
f 23/47/103 24/48/104 30/46/105
f 24/48/106 25/49/107 30/46/108
f 25/49/109 26/50/110 30/46/111
f 26/50/112 27/51/113 30/46/114
f 27/51/115 28/52/116 30/46/117
f 28/52/118 21/44/119 30/46/120
f 31/53/121 32/54/122 34/55/123 33/56/124
f 39/57/125 40/58/126 41/59/127 42/60/128
f 35/61/129 36/62/130 38/63/131 37/64/132
f 37/64/133 38/63/134 32/54/135 31/53/136
f 32/54/137 38/63/138 36/62/139 34/55/140
f 37/64/141 31/53/142 33/56/143 35/61/144
f 33/65/145 34/66/146 40/58/147 39/57/148
f 34/66/149 36/67/150 41/59/151 40/58/152
f 36/67/153 35/68/154 42/60/155 41/59/156
f 35/68/157 33/65/158 39/57/159 42/60/160
f 43/69/161 44/70/162 46/71/163 45/72/164
f 51/73/165 52/74/166 53/75/167 54/76/168
f 47/77/169 48/78/170 50/79/171 49/80/172
f 49/80/173 50/79/174 44/70/175 43/69/176
f 44/70/177 50/79/178 48/78/179 46/71/180
f 49/80/181 43/69/182 45/72/183 47/77/184
f 45/81/185 46/82/186 52/74/187 51/73/188
f 46/82/189 48/83/190 53/75/191 52/74/192
f 48/83/193 47/84/194 54/76/195 53/75/196
f 47/84/197 45/81/198 51/73/199 54/76/200
f 55/85/201 56/86/202 58/87/203 57/88/204
f 63/89/205 64/90/206 65/91/207 66/92/208
f 59/93/209 60/94/210 62/95/211 61/96/212
f 61/96/213 62/95/214 56/86/215 55/85/216
f 56/86/217 62/95/218 60/94/219 58/87/220
f 61/96/221 55/85/222 57/88/223 59/93/224
f 57/97/225 58/98/226 64/90/227 63/89/228
f 58/98/229 60/99/230 65/91/231 64/90/232
f 60/99/233 59/100/234 66/92/235 65/91/236
f 59/100/237 57/97/238 63/89/239 66/92/240
f 76/101/241 75/102/242 77/103/243 78/104/244
f 78/105/245 79/106/246 80/107/247 76/108/248
f 81/109/249 80/107/250 79/106/251 82/110/252
f 75/102/253 81/111/254 82/112/255 77/103/256
f 72/113/257 71/114/258 75/102/259 76/101/260
f 67/115/261 68/116/262 78/104/263 77/103/264
f 68/117/265 69/118/266 79/106/267 78/105/268
f 73/119/269 72/120/270 76/108/271 80/107/272
f 74/121/273 73/119/274 80/107/275 81/109/276
f 69/118/277 70/122/278 82/110/279 79/106/280
f 71/114/281 74/123/282 81/111/283 75/102/284
f 70/124/285 67/115/286 77/103/287 82/112/288
f 83/125/289 84/126/290 86/127/291 85/128/292
f 84/126/293 83/125/294 87/129/295 88/130/296
f 85/128/297 86/127/298 90/131/299 89/132/300
f 88/130/301 87/129/302 89/132/303 90/131/304
f 83/125/305 85/128/306 89/132/307 87/129/308
f 68/133/309 67/134/310 84/126/311 88/130/312
f 88/130/313 90/131/314 69/135/315 68/133/316
f 70/136/317 69/135/318 90/131/319 86/127/320
f 67/134/321 70/136/322 86/127/323 84/126/324
f 91/137/325 92/138/326 96/139/327 95/140/328
f 92/138/329 91/137/330 94/141/331 93/142/332
f 93/142/333 94/141/334 97/143/335 98/144/336
f 95/140/337 96/139/338 98/144/339 97/143/340
f 92/145/341 93/146/342 74/147/343 71/148/344
f 72/149/345 73/150/346 98/151/347 96/152/348
f 95/140/349 97/143/350 94/141/351 91/137/352
f 93/153/353 98/151/354 73/150/355 74/154/356
f 96/155/357 92/145/358 71/148/359 72/156/360
f 99/157/361 100/158/362 108/159/363 107/160/364
f 100/158/365 101/161/366 109/162/367 108/159/368
f 101/161/369 102/163/370 110/164/371 109/162/372
f 102/163/373 103/165/374 111/166/375 110/164/376
f 103/165/377 104/167/378 112/168/379 111/166/380
f 104/167/381 105/169/382 113/170/383 112/168/384
f 105/169/385 106/171/386 114/172/387 113/170/388
f 106/171/389 99/173/390 107/174/391 114/172/392
f 100/175/393 99/176/394 115/177/395
f 101/178/396 100/175/397 115/177/398
f 102/179/399 101/178/400 115/177/401
f 103/180/402 102/179/403 115/177/404
f 104/181/405 103/180/406 115/177/407
f 105/182/408 104/181/409 115/177/410
f 106/183/411 105/182/412 115/177/413
f 99/176/414 106/183/415 115/177/416
f 107/184/417 108/185/418 116/186/419
f 108/185/420 109/187/421 116/186/422
f 109/187/423 110/188/424 116/186/425
f 110/188/426 111/189/427 116/186/428
f 111/189/429 112/190/430 116/186/431
f 112/190/432 113/191/433 116/186/434
f 113/191/435 114/192/436 116/186/437
f 114/192/438 107/184/439 116/186/440
