# This file uses centimeters as units for non-parametric coordinates.

mtllib Ing_iron_low.mtl
g default
v -0.180609 0.008412 0.505442
v -0.178058 0.024734 0.513111
v -0.192316 0.024414 0.499956
v 0.226835 0.024414 0.499956
v 0.212091 0.025165 0.512901
v 0.215128 0.008412 0.505442
v -0.102759 0.230259 0.371160
v -0.089846 0.232597 0.382012
v -0.088450 0.241040 0.367714
v 0.122969 0.241040 0.367714
v 0.124242 0.232482 0.382068
v 0.137278 0.230259 0.371160
v -0.102766 0.230224 -0.206291
v -0.088450 0.241040 -0.202863
v -0.089846 0.232597 -0.217160
v 0.124365 0.232597 -0.217160
v 0.122940 0.241040 -0.202839
v 0.137285 0.230224 -0.206291
v -0.192316 0.024414 -0.335105
v -0.177572 0.025165 -0.348050
v -0.180609 0.008412 -0.340591
v 0.215128 0.008412 -0.340591
v 0.212577 0.024734 -0.348260
v 0.226835 0.024414 -0.335105
vt 0.514749 0.520780
vt 0.515433 0.512771
vt 0.859525 0.509246
vt 0.860475 0.517189
vt 0.507616 0.520471
vt 0.516355 0.682613
vt 0.508992 0.682937
vt 0.517835 0.989261
vt 0.509035 0.978631
vt 0.606914 0.887682
vt 0.611496 0.893705
vt 0.517306 0.690556
vt 0.862081 0.679021
vt 0.861398 0.687031
vt 0.509325 0.711224
vt 0.516726 0.699152
vt 0.620751 0.784083
vt 0.615575 0.789549
vt 0.614392 0.886201
vt 0.877725 0.896891
vt 0.879006 0.904728
vt 0.622042 0.791908
vt 0.888255 0.795059
vt 0.885314 0.802579
vt 0.884098 0.899267
vt 0.990419 0.977523
vt 0.983054 0.989623
vt 0.892843 0.801116
vt 0.981802 0.699486
vt 0.990651 0.710064
vt 0.867839 0.516865
vt 0.869215 0.679330
vn -0.034982 -0.999248 0.016755
vn -0.954282 0.298446 0.016614
vn -0.954330 0.298301 -0.016481
vn -0.035008 -0.999252 -0.016419
vn -0.051807 0.453229 0.889887
vn -0.034982 -0.999248 0.016755
vn 0.035008 -0.999252 0.016419
vn 0.052256 0.452353 0.890307
vn -0.954282 0.298446 0.016614
vn -0.051807 0.453229 0.889887
vn -0.020350 0.552033 0.833574
vn -0.903456 0.428365 0.016448
vn 0.954307 0.298369 0.016577
vn 0.035008 -0.999252 0.016419
vn 0.034982 -0.999248 -0.016755
vn 0.954284 0.298440 -0.016618
vn 0.052256 0.452353 0.890307
vn 0.954307 0.298369 0.016577
vn 0.903382 0.428513 0.016680
vn 0.020328 0.552146 0.833500
vn -0.903456 0.428365 0.016448
vn -0.050082 0.998632 0.015057
vn -0.050071 0.998634 -0.014964
vn -0.903412 0.428450 -0.016633
vn -0.050082 0.998632 0.015057
vn -0.020350 0.552033 0.833574
vn 0.020328 0.552146 0.833500
vn 0.050105 0.998632 0.014954
vn 0.050105 0.998632 0.014954
vn 0.903382 0.428513 0.016680
vn 0.903442 0.428394 -0.016462
vn 0.050073 0.998633 -0.014984
vn -0.903412 0.428450 -0.016633
vn -0.020267 0.552046 -0.833567
vn -0.052310 0.452397 -0.890281
vn -0.954330 0.298301 -0.016481
vn -0.020267 0.552046 -0.833567
vn -0.050071 0.998634 -0.014964
vn 0.050073 0.998633 -0.014984
vn 0.020380 0.552013 -0.833587
vn 0.020380 0.552013 -0.833587
vn 0.903442 0.428394 -0.016462
vn 0.954284 0.298440 -0.016618
vn 0.051881 0.453266 -0.889864
vn -0.035008 -0.999252 -0.016419
vn -0.052310 0.452397 -0.890281
vn 0.051881 0.453266 -0.889864
vn 0.034982 -0.999248 -0.016755
vn -0.051807 0.453229 0.889887
vn 0.052256 0.452353 0.890307
vn 0.020328 0.552146 0.833500
vn -0.020350 0.552033 0.833574
vn -0.050082 0.998632 0.015057
vn 0.050105 0.998632 0.014954
vn 0.050073 0.998633 -0.014984
vn -0.050071 0.998634 -0.014964
vn -0.020267 0.552046 -0.833567
vn 0.020380 0.552013 -0.833587
vn 0.051881 0.453266 -0.889864
vn -0.052310 0.452397 -0.890281
vn -0.035008 -0.999252 -0.016419
vn 0.034982 -0.999248 -0.016755
vn 0.035008 -0.999252 0.016419
vn -0.034982 -0.999248 0.016755
vn 0.954307 0.298369 0.016577
vn 0.954284 0.298440 -0.016618
vn 0.903442 0.428394 -0.016462
vn 0.903382 0.428513 0.016680
vn -0.954330 0.298301 -0.016481
vn -0.954282 0.298446 0.016614
vn -0.903456 0.428365 0.016448
vn -0.903412 0.428450 -0.016633
vn -0.034982 -0.999248 0.016755
vn -0.051807 0.453229 0.889887
vn -0.954282 0.298446 0.016614
vn 0.954307 0.298369 0.016577
vn 0.052256 0.452353 0.890307
vn 0.035008 -0.999252 0.016419
vn -0.903456 0.428365 0.016448
vn -0.020350 0.552033 0.833574
vn -0.050082 0.998632 0.015057
vn 0.050105 0.998632 0.014954
vn 0.020328 0.552146 0.833500
vn 0.903382 0.428513 0.016680
vn -0.903412 0.428450 -0.016633
vn -0.050071 0.998634 -0.014964
vn -0.020267 0.552046 -0.833567
vn 0.020380 0.552013 -0.833587
vn 0.050073 0.998633 -0.014984
vn 0.903442 0.428394 -0.016462
vn -0.954330 0.298301 -0.016481
vn -0.052310 0.452397 -0.890281
vn -0.035008 -0.999252 -0.016419
vn 0.034982 -0.999248 -0.016755
vn 0.051881 0.453266 -0.889864
vn 0.954284 0.298440 -0.016618
s off
g Ing_iron_low:Ore_2
usemtl initialShadingGroup
f 1/1/1 3/2/2 19/3/3 21/4/4
f 2/5/5 1/1/6 6/6/7 5/7/8
f 3/8/9 2/9/10 8/10/11 7/11/12
f 4/12/13 6/6/14 22/13/15 24/14/16
f 5/15/17 4/16/18 12/17/19 11/18/20
f 7/11/21 9/19/22 14/20/23 13/21/24
f 9/19/25 8/10/26 11/18/27 10/22/28
f 10/22/29 12/17/30 18/23/31 17/24/32
f 13/21/33 15/25/34 20/26/35 19/27/36
f 15/25/37 14/20/38 17/24/39 16/28/40
f 16/28/41 18/23/42 24/29/43 23/30/44
f 21/4/45 20/31/46 23/32/47 22/13/48
f 2/9/49 5/15/50 11/18/51 8/10/52
f 9/19/53 10/22/54 17/24/55 14/20/56
f 15/25/57 16/28/58 23/30/59 20/26/60
f 21/4/61 22/13/62 6/6/63 1/1/64
f 4/16/65 24/29/66 18/23/67 12/17/68
f 19/27/69 3/8/70 7/11/71 13/21/72
f 1/1/73 2/5/74 3/2/75
f 4/12/76 5/7/77 6/6/78
f 7/11/79 8/10/80 9/19/81
f 10/22/82 11/18/83 12/17/84
f 13/21/85 14/20/86 15/25/87
f 16/28/88 17/24/89 18/23/90
f 19/3/91 20/31/92 21/4/93
f 22/13/94 23/32/95 24/14/96
