# This file uses centimeters as units for non-parametric coordinates.

mtllib Sword_first_low.mtl
g default
v 0.134227 1.894923 0.104707
v 0.000591 2.140366 0.064322
v 0.000704 1.910873 0.104707
v -0.090952 1.938659 0.104707
v -0.025717 0.755092 0.033032
v 0.002710 0.691405 0.033032
v 0.044959 0.748590 0.033032
v -0.066789 0.648607 0.044459
v 0.002749 0.647772 0.030648
v 0.002786 0.546507 0.044459
v 0.081184 0.646408 0.044459
v 0.000495 2.335396 0.031005
v -0.174873 1.964099 0.044459
v 0.181763 1.889244 0.044459
v 0.085972 0.749195 0.036941
v -0.071687 0.749935 0.039778
v -0.191666 1.964099 0.022898
v 0.000495 2.370787 0.012442
v 0.198556 1.889244 0.022898
v -0.066789 0.648607 0.015578
v 0.002786 0.546507 0.015578
v 0.081184 0.646408 0.015578
v 0.085773 0.744942 0.016158
v -0.071591 0.747945 0.016130
v 0.134227 1.894923 -0.081652
v 0.000591 2.140366 -0.041267
v 0.000704 1.910873 -0.081652
v -0.090952 1.938659 -0.081652
v -0.025717 0.755092 -0.009977
v 0.002710 0.691405 -0.009977
v 0.044959 0.748590 -0.009977
v -0.066789 0.648607 -0.021404
v 0.002749 0.647772 -0.007593
v 0.002786 0.546507 -0.021404
v 0.081184 0.646408 -0.021404
v 0.000495 2.335396 -0.007950
v -0.174873 1.964099 -0.021404
v 0.181763 1.889244 -0.021404
v 0.085972 0.749195 -0.013886
v -0.071687 0.749935 -0.016723
v 0.060949 0.536724 -0.035223
v 0.017516 0.536724 -0.052548
v -0.025918 0.536724 -0.035223
v -0.043908 0.536724 0.006605
v -0.025918 0.536724 0.048432
v 0.017516 0.536724 0.065758
v 0.060949 0.536724 0.048432
v 0.078940 0.536724 0.006605
v 0.040046 0.654438 -0.015093
v 0.017516 0.654438 -0.024080
v -0.005015 0.654438 -0.015093
v -0.014347 0.654438 0.006605
v -0.005015 0.654438 0.028302
v 0.017516 0.654438 0.037290
v 0.040046 0.654438 0.028302
v 0.049378 0.654438 0.006605
v 0.017516 0.660316 0.006605
v 0.049597 0.451564 -0.024290
v 0.017516 0.451564 -0.037087
v -0.014565 0.451564 -0.024290
v -0.027854 0.451564 0.006605
v -0.014565 0.451564 0.037500
v 0.017516 0.451564 0.050297
v 0.049597 0.451564 0.037500
v 0.062886 0.451564 0.006605
v 0.046135 0.372565 -0.020956
v 0.017516 0.372565 -0.032372
v -0.011103 0.372565 -0.020956
v -0.022958 0.372565 0.006605
v -0.011103 0.372565 0.034166
v 0.017516 0.372565 0.045582
v 0.046135 0.372565 0.034166
v 0.057989 0.372565 0.006605
v 0.044580 0.327442 -0.019458
v 0.017517 0.327442 -0.030254
v -0.009548 0.327442 -0.019458
v -0.020758 0.327442 0.006605
v -0.009548 0.327442 0.032668
v 0.017517 0.327442 0.043464
v 0.044580 0.327442 0.032668
v 0.055790 0.327442 0.006605
v 0.043183 0.272650 -0.018113
v 0.017517 0.272650 -0.028352
v -0.008151 0.272650 -0.018113
v -0.018783 0.272650 0.006605
v -0.008151 0.272650 0.031323
v 0.017517 0.272650 0.041562
v 0.043183 0.272650 0.031323
v 0.053815 0.272650 0.006605
v 0.065829 0.192074 -0.039921
v 0.017517 0.192074 -0.059193
v -0.030797 0.192074 -0.039921
v -0.050808 0.192074 0.006605
v -0.030797 0.192074 0.053131
v 0.017517 0.192074 0.072403
v 0.065829 0.192074 0.053131
v 0.085841 0.192074 0.006605
v 0.055653 0.118477 -0.030121
v 0.017517 0.118477 -0.045334
v -0.020620 0.118477 -0.030121
v -0.036417 0.118477 0.006605
v -0.020620 0.118477 0.043331
v 0.017517 0.118477 0.058544
v 0.055653 0.118477 0.043331
v 0.071450 0.118477 0.006605
v 0.049614 0.204698 -0.023916
v 0.017883 0.204698 -0.036574
v -0.013849 0.204698 -0.023916
v -0.026992 0.204698 0.006642
v -0.013849 0.204698 0.037200
v 0.017883 0.204698 0.049857
v 0.049614 0.204698 0.037200
v 0.062757 0.204698 0.006642
v 0.077546 0.130982 -0.051205
v 0.017517 0.130982 -0.075151
v -0.042514 0.130982 -0.051205
v -0.067379 0.130982 0.006605
v -0.042514 0.130982 0.064415
v 0.017517 0.130982 0.088361
v 0.077546 0.130982 0.064415
v 0.102412 0.130982 0.006605
v 0.077546 0.056681 -0.051205
v 0.017517 0.056681 -0.075151
v -0.042514 0.056681 -0.051205
v -0.067379 0.056681 0.006605
v -0.042514 0.056681 0.064415
v 0.017517 0.056681 0.088361
v 0.077546 0.056681 0.064415
v 0.102412 0.056681 0.006605
v 0.050427 0.020979 -0.025089
v 0.017517 0.020979 -0.038217
v -0.015394 0.020979 -0.025089
v -0.029026 0.020979 0.006605
v -0.015394 0.020979 0.038299
v 0.017517 0.020979 0.051427
v 0.050427 0.020979 0.038299
v 0.064060 0.020979 0.006605
v 0.030684 -0.000985 -0.006076
v 0.017517 -0.000985 -0.011328
v 0.017517 -0.000985 0.006605
v 0.004349 -0.000985 -0.006076
v -0.001105 -0.000985 0.006605
v 0.004349 -0.000985 0.019285
v 0.017517 -0.000985 0.024538
v 0.030684 -0.000985 0.019285
v 0.036138 -0.000985 0.006605
v 0.056139 0.139222 -0.030590
v 0.017517 0.139222 -0.045996
v -0.021107 0.139222 -0.030590
v -0.037105 0.139222 0.006605
v -0.021107 0.139222 0.043800
v 0.017517 0.139222 0.059206
v 0.056139 0.139222 0.043800
v 0.072137 0.139222 0.006605
v 0.263203 0.538813 0.032511
v 0.274986 0.561227 0.060069
v 0.251111 0.615340 0.071484
v 0.289577 0.669454 0.060069
v 0.280514 0.691868 0.032511
v -0.222242 0.534629 0.032511
v -0.237096 0.557043 0.060069
v -0.194525 0.611157 0.071484
v -0.261558 0.665270 0.060069
v -0.265600 0.687685 0.032511
v 0.251111 0.615340 0.032511
v -0.214757 0.611157 0.032511
v 0.271789 0.669454 -0.041666
v 0.257351 0.615340 -0.053081
v -0.222714 0.611157 -0.053081
v -0.215817 0.665270 -0.041666
v 0.290239 0.561227 -0.041666
v -0.230715 0.557043 -0.041666
v 0.282723 0.538813 -0.014108
v -0.234944 0.534629 -0.014108
v 0.257751 0.691868 -0.014108
v -0.237734 0.687685 -0.014108
v 0.251111 0.615340 -0.014108
v -0.226908 0.611157 -0.014108
v 0.235449 0.538573 0.032511
v 0.253127 0.538573 -0.014108
v 0.260455 0.560988 -0.041666
v 0.229905 0.615101 -0.053081
v 0.243912 0.669214 -0.041666
v 0.229424 0.691629 -0.014108
v 0.249292 0.691629 0.032511
v 0.258067 0.669214 0.060069
v 0.225633 0.615101 0.071484
v 0.245709 0.560988 0.060069
v -0.184849 0.534951 0.032511
v -0.195068 0.534951 -0.014108
v -0.190587 0.557366 -0.041666
v -0.185735 0.611479 -0.053081
v -0.178258 0.665592 -0.041666
v -0.199567 0.688007 -0.014108
v -0.223534 0.688007 0.032511
v -0.219105 0.665592 0.060069
v -0.160198 0.611479 0.071484
v -0.197651 0.557366 0.060069
vt 0.212401 0.731025
vt 0.152177 0.848999
vt 0.149391 0.736675
vt 0.105601 0.750421
vt 0.153073 0.113249
vt 0.169440 0.079590
vt 0.191330 0.109724
vt 0.169390 0.064660
vt 0.142995 0.062056
vt 0.169935 0.035709
vt 0.198490 0.061933
vt 0.142541 0.946921
vt 0.055446 0.763603
vt 0.128309 0.109829
vt 0.283821 0.730559
vt 0.213574 0.109541
vt 0.133560 0.056508
vt 0.169908 0.029410
vt 0.207527 0.056332
vt 0.141567 0.973033
vt 0.042250 0.770314
vt 0.297572 0.731744
vt 0.115798 0.106984
vt 0.224554 0.105637
vt 0.388811 0.742710
vt 0.458270 0.750846
vt 0.458027 0.876604
vt 0.506114 0.765088
vt 0.450243 0.106304
vt 0.465865 0.139834
vt 0.427954 0.136912
vt 0.449979 0.080654
vt 0.449259 0.008547
vt 0.493689 0.081101
vt 0.400898 0.080668
vt 0.459513 0.988506
vt 0.560727 0.777986
vt 0.490637 0.137238
vt 0.348594 0.740608
vt 0.406003 0.137822
vt 0.120235 0.046270
vt 0.169857 0.017152
vt 0.220411 0.046068
vt 0.142637 0.987141
vt 0.018609 0.771699
vt 0.321091 0.734720
vt 0.097915 0.105494
vt 0.241334 0.105561
vt 0.657754 0.784549
vt 0.690327 0.767606
vt 0.749706 0.849630
vt 0.739914 0.868161
vt 0.720124 0.756074
vt 0.760400 0.837588
vt 0.747663 0.748699
vt 0.771692 0.830752
vt 0.775093 0.744390
vt 0.783972 0.828271
vt 0.804589 0.742717
vt 0.797709 0.829683
vt 0.837030 0.743833
vt 0.813056 0.835156
vt 0.873596 0.748227
vt 0.829712 0.845856
vt 0.581485 0.836540
vt 0.732498 0.895049
vt 0.975829 0.906301
vt 0.976524 0.911072
vt 0.934938 0.947844
vt 0.892082 0.935670
vt 0.899450 0.936710
vt 0.902335 0.942526
vt 0.904478 0.951341
vt 0.907651 0.962330
vt 0.914409 0.974572
vt 0.990678 0.919832
vt 0.782203 0.858423
vt 0.625144 0.695211
vt 0.665370 0.691288
vt 0.701100 0.687074
vt 0.733327 0.683061
vt 0.764227 0.679126
vt 0.795585 0.675146
vt 0.827403 0.670921
vt 0.859227 0.665579
vt 0.579025 0.697273
vt 0.630119 0.604385
vt 0.663577 0.607175
vt 0.695341 0.607797
vt 0.725020 0.606798
vt 0.753809 0.604399
vt 0.782801 0.600606
vt 0.811581 0.595356
vt 0.839738 0.588413
vt 0.595643 0.598617
vt 0.639192 0.557557
vt 0.667620 0.561695
vt 0.695768 0.563546
vt 0.722703 0.563564
vt 0.749081 0.562006
vt 0.775549 0.558883
vt 0.801335 0.554129
vt 0.825634 0.547516
vt 0.611732 0.550492
vt 0.650019 0.508010
vt 0.673734 0.511168
vt 0.697979 0.512963
vt 0.721667 0.513454
vt 0.745086 0.512798
vt 0.768534 0.510991
vt 0.791053 0.508152
vt 0.811507 0.504645
vt 0.628226 0.503781
vt 0.655227 0.457326
vt 0.677796 0.459776
vt 0.700236 0.461416
vt 0.721920 0.462109
vt 0.743453 0.462020
vt 0.765435 0.461065
vt 0.787310 0.459423
vt 0.808357 0.458094
vt 0.633341 0.455100
vt 0.679315 0.447073
vt 0.656276 0.444136
vt 0.661428 0.418151
vt 0.682434 0.421792
vt 0.701438 0.448795
vt 0.702980 0.424165
vt 0.722114 0.449515
vt 0.722613 0.425294
vt 0.742657 0.449553
vt 0.742139 0.425180
vt 0.764392 0.448656
vt 0.762372 0.423847
vt 0.786825 0.446666
vt 0.782914 0.421283
vt 0.811510 0.443810
vt 0.803213 0.417119
vt 0.630807 0.440104
vt 0.640632 0.412890
vt 0.882518 0.831228
vt 0.904104 0.807573
vt 0.920006 0.819600
vt 0.895763 0.843178
vt 0.862439 0.854957
vt 0.874558 0.865813
vt 0.846291 0.878530
vt 0.858748 0.887148
vt 0.833789 0.901942
vt 0.846678 0.908377
vt 0.823848 0.925350
vt 0.836953 0.931062
vt 0.814909 0.948183
vt 0.828346 0.955147
vt 0.804820 0.968536
vt 0.817144 0.982325
vt 0.922708 0.783492
vt 0.946691 0.790377
vt 0.947994 0.849467
vt 0.920346 0.868113
vt 0.895574 0.886723
vt 0.879734 0.903827
vt 0.869575 0.921542
vt 0.862649 0.941606
vt 0.857621 0.964929
vt 0.853750 0.994636
vt 0.983055 0.828039
vt 0.964150 0.878579
vt 0.938903 0.889110
vt 0.907060 0.905255
vt 0.893180 0.918094
vt 0.886169 0.931843
vt 0.882779 0.947812
vt 0.882068 0.966524
vt 0.885499 0.988340
vt 0.994103 0.871964
vt 0.870449 0.820890
vt 0.891854 0.797239
vt 0.850095 0.845786
vt 0.833804 0.871138
vt 0.821566 0.896244
vt 0.812138 0.920681
vt 0.803753 0.943424
vt 0.794309 0.963834
vt 0.910725 0.773648
vt 0.540075 0.137578
vt 0.552818 0.091317
vt 0.575860 0.091429
vt 0.563484 0.137693
vt 0.525839 0.044529
vt 0.550836 0.044668
vt 0.532459 0.014783
vt 0.557302 0.014915
vt 0.546987 0.359015
vt 0.537105 0.329187
vt 0.561692 0.329321
vt 0.570292 0.359147
vt 0.557047 0.282700
vt 0.578437 0.282853
vt 0.524667 0.236361
vt 0.551104 0.236496
vt 0.532274 0.206550
vt 0.558475 0.206682
vt 0.551566 0.167533
vt 0.575343 0.167637
vt 0.378499 0.903181
vt 0.369322 0.955041
vt 0.340605 0.903181
vt 0.371600 0.843708
vt 0.343023 0.826846
vt 0.269550 0.850666
vt 0.297431 0.832548
vt 0.296846 0.903554
vt 0.261279 0.902518
vt 0.265753 0.961384
vt 0.293525 0.978460
vt 0.340214 0.973736
vt 0.272650 0.174994
vt 0.263066 0.123538
vt 0.299538 0.122197
vt 0.271832 0.075422
vt 0.294201 0.053840
vt 0.335551 0.051125
vt 0.364280 0.065043
vt 0.346090 0.120549
vt 0.384876 0.115642
vt 0.370672 0.186979
vt 0.346370 0.205914
vt 0.301383 0.194349
vt 0.555226 0.398197
vt 0.530389 0.398070
vt 0.923121 0.361215
vt 0.931472 0.400394
vt 0.933542 0.016956
vt 0.929464 0.046734
vt 0.924771 0.093099
vt 0.917875 0.139435
vt 0.935453 0.169439
vt 0.955370 0.208676
vt 0.951650 0.238494
vt 0.902323 0.285043
vt 0.933876 0.331402
vt 0.954489 0.361401
vt 0.964934 0.400550
vt 0.967034 0.017150
vt 0.963149 0.046928
vt 0.955810 0.093241
vt 0.949411 0.139591
vt 0.967488 0.169603
vt 0.990667 0.208854
vt 0.987273 0.238660
vt 0.931146 0.285237
vt 0.966988 0.331612
vn 0.244886 0.001502 0.969551
vn 0.053091 0.284458 0.957217
vn -0.008456 -0.031944 0.999454
vn 0.053091 0.284458 0.957217
vn -0.267354 0.001397 0.963597
vn -0.008456 -0.031944 0.999454
vn -0.008456 -0.031944 0.999454
vn -0.267354 0.001397 0.963597
vn -0.176375 -0.056697 0.982689
vn 0.001379 -0.034325 0.999410
vn 0.001379 -0.034325 0.999410
vn 0.136658 -0.060995 0.988739
vn 0.244886 0.001502 0.969551
vn -0.008456 -0.031944 0.999454
vn 0.008009 0.072097 0.997366
vn -0.401804 -0.161371 0.901395
vn -0.017560 -0.780782 0.624557
vn 0.386459 -0.167029 0.907056
vn 0.008009 0.072097 0.997366
vn -0.017560 -0.780782 0.624557
vn 0.077247 0.418090 0.905115
vn -0.569973 0.037521 0.820806
vn -0.267354 0.001397 0.963597
vn 0.053091 0.284458 0.957217
vn 0.001379 -0.034325 0.999410
vn -0.176375 -0.056697 0.982689
vn -0.554140 -0.064595 0.829913
vn -0.401804 -0.161371 0.901395
vn 0.008009 0.072097 0.997366
vn 0.664028 0.035504 0.746864
vn 0.244886 0.001502 0.969551
vn 0.136658 -0.060995 0.988739
vn 0.657711 -0.073176 0.749707
vn 0.077247 0.418090 0.905115
vn 0.053091 0.284458 0.957217
vn 0.244886 0.001502 0.969551
vn 0.664028 0.035504 0.746864
vn -0.935058 -0.354495 0.000000
vn -0.014856 -0.999890 0.000000
vn -0.017560 -0.780782 0.624557
vn -0.401804 -0.161371 0.901395
vn -0.014856 -0.999890 0.000000
vn 0.916657 -0.399675 0.000000
vn 0.386459 -0.167029 0.907056
vn -0.017560 -0.780782 0.624557
vn 0.657711 -0.073176 0.749707
vn 0.136658 -0.060995 0.988739
vn 0.001379 -0.034325 0.999410
vn 0.008009 0.072097 0.997366
vn 0.386459 -0.167029 0.907056
vn -0.554140 -0.064595 0.829913
vn -0.176375 -0.056697 0.982689
vn -0.267354 0.001397 0.963597
vn -0.569973 0.037521 0.820806
vn 0.143751 0.987291 -0.067765
vn -0.999784 0.020298 -0.004522
vn -0.569973 0.037521 0.820806
vn 0.077247 0.418090 0.905115
vn 0.999407 0.034120 -0.004616
vn 0.143751 0.987291 -0.067765
vn 0.077247 0.418090 0.905115
vn 0.664028 0.035504 0.746864
vn -0.554140 -0.064595 0.829913
vn -0.996081 -0.088394 -0.002896
vn -0.935058 -0.354495 0.000000
vn -0.401804 -0.161371 0.901395
vn 0.657711 -0.073176 0.749707
vn 0.996149 -0.087413 -0.006766
vn 0.999407 0.034120 -0.004616
vn 0.664028 0.035504 0.746864
vn 0.916657 -0.399675 0.000000
vn 0.996149 -0.087413 -0.006766
vn 0.657711 -0.073176 0.749707
vn 0.386459 -0.167029 0.907056
vn -0.999784 0.020298 -0.004522
vn -0.996081 -0.088394 -0.002896
vn -0.554140 -0.064595 0.829913
vn -0.569973 0.037521 0.820806
vn 0.244886 0.001502 -0.969551
vn -0.008456 -0.031943 -0.999454
vn 0.053091 0.284458 -0.957217
vn 0.053091 0.284458 -0.957217
vn -0.008456 -0.031943 -0.999454
vn -0.267354 0.001397 -0.963597
vn -0.008456 -0.031943 -0.999454
vn 0.001379 -0.034325 -0.999410
vn -0.176375 -0.056697 -0.982689
vn -0.267354 0.001397 -0.963597
vn 0.001379 -0.034325 -0.999410
vn -0.008456 -0.031943 -0.999454
vn 0.244886 0.001502 -0.969551
vn 0.136658 -0.060995 -0.988739
vn 0.008009 0.072097 -0.997366
vn -0.017651 -0.853525 -0.520753
vn -0.521761 -0.203481 -0.828469
vn 0.502625 -0.214003 -0.837598
vn -0.017651 -0.853525 -0.520753
vn 0.008009 0.072097 -0.997366
vn 0.106836 0.546524 -0.830601
vn 0.053091 0.284458 -0.957217
vn -0.267354 0.001397 -0.963597
vn -0.680486 0.036004 -0.731876
vn 0.001379 -0.034325 -0.999410
vn 0.008009 0.072097 -0.997366
vn -0.521761 -0.203481 -0.828469
vn -0.663294 -0.072447 -0.744844
vn -0.176375 -0.056697 -0.982689
vn 0.758637 0.035084 -0.650568
vn 0.755549 -0.079456 -0.650256
vn 0.136658 -0.060995 -0.988739
vn 0.244886 0.001502 -0.969551
vn 0.106836 0.546524 -0.830601
vn 0.758637 0.035084 -0.650568
vn 0.244886 0.001502 -0.969551
vn 0.053091 0.284458 -0.957217
vn -0.935058 -0.354495 0.000000
vn -0.521761 -0.203481 -0.828469
vn -0.017651 -0.853525 -0.520753
vn -0.014856 -0.999890 0.000000
vn -0.014856 -0.999890 0.000000
vn -0.017651 -0.853525 -0.520753
vn 0.502625 -0.214003 -0.837598
vn 0.916657 -0.399675 0.000000
vn 0.755549 -0.079456 -0.650256
vn 0.502625 -0.214003 -0.837598
vn 0.008009 0.072097 -0.997366
vn 0.001379 -0.034325 -0.999410
vn 0.136658 -0.060995 -0.988739
vn -0.663294 -0.072447 -0.744844
vn -0.680486 0.036004 -0.731876
vn -0.267354 0.001397 -0.963597
vn -0.176375 -0.056697 -0.982689
vn 0.143751 0.987291 -0.067765
vn 0.106836 0.546524 -0.830601
vn -0.680486 0.036004 -0.731876
vn -0.999784 0.020298 -0.004522
vn 0.999407 0.034120 -0.004616
vn 0.758637 0.035084 -0.650568
vn 0.106836 0.546524 -0.830601
vn 0.143751 0.987291 -0.067765
vn -0.663294 -0.072447 -0.744844
vn -0.521761 -0.203481 -0.828469
vn -0.935058 -0.354495 0.000000
vn -0.996081 -0.088394 -0.002896
vn 0.755549 -0.079456 -0.650256
vn 0.758637 0.035084 -0.650568
vn 0.999407 0.034120 -0.004616
vn 0.996149 -0.087413 -0.006766
vn 0.916657 -0.399675 0.000000
vn 0.502625 -0.214003 -0.837598
vn 0.755549 -0.079456 -0.650256
vn 0.996149 -0.087413 -0.006766
vn -0.999784 0.020298 -0.004522
vn -0.680486 0.036004 -0.731876
vn -0.663294 -0.072447 -0.744844
vn -0.996081 -0.088394 -0.002896
vn 0.694092 0.049338 -0.718194
vn 0.000000 0.048510 -0.998823
vn 0.000000 0.289517 -0.957173
vn 0.661952 0.293718 -0.689601
vn 0.000000 0.048510 -0.998823
vn -0.694092 0.049337 -0.718194
vn -0.661950 0.293718 -0.689603
vn 0.000000 0.289517 -0.957173
vn -0.694092 0.049337 -0.718194
vn -0.998739 0.050200 0.000000
vn -0.954518 0.298154 0.000000
vn -0.661950 0.293718 -0.689603
vn -0.998739 0.050200 0.000000
vn -0.694092 0.049336 0.718194
vn -0.661950 0.293718 0.689603
vn -0.954518 0.298154 0.000000
vn -0.694092 0.049336 0.718194
vn 0.000000 0.048509 0.998823
vn 0.000000 0.289517 0.957173
vn -0.661950 0.293718 0.689603
vn 0.000000 0.048509 0.998823
vn 0.694092 0.049338 0.718194
vn 0.661952 0.293718 0.689601
vn 0.000000 0.289517 0.957173
vn 0.694092 0.049338 0.718194
vn 0.998739 0.050203 0.000000
vn 0.954517 0.298156 0.000000
vn 0.661952 0.293718 0.689601
vn 0.998739 0.050203 0.000000
vn 0.694092 0.049338 -0.718194
vn 0.661952 0.293718 -0.689601
vn 0.954517 0.298156 0.000000
vn 0.000000 -0.808436 -0.588584
vn 0.401649 -0.812993 -0.421570
vn 0.000000 -1.000000 0.000000
vn -0.401645 -0.812992 -0.421575
vn 0.000000 -0.808436 -0.588584
vn 0.000000 -1.000000 0.000000
vn -0.575553 -0.817765 0.000000
vn -0.401645 -0.812992 -0.421575
vn 0.000000 -1.000000 0.000000
vn -0.401645 -0.812992 0.421574
vn -0.575553 -0.817765 0.000000
vn 0.000000 -1.000000 0.000000
vn 0.000001 -0.808436 0.588584
vn -0.401645 -0.812992 0.421574
vn 0.000000 -1.000000 0.000000
vn 0.401649 -0.812992 0.421571
vn 0.000001 -0.808436 0.588584
vn 0.000000 -1.000000 0.000000
vn 0.575553 -0.817765 0.000000
vn 0.401649 -0.812992 0.421571
vn 0.000000 -1.000000 0.000000
vn 0.401649 -0.812993 -0.421570
vn 0.575553 -0.817765 0.000000
vn 0.000000 -1.000000 0.000000
vn 0.661952 0.293718 -0.689601
vn 0.000000 0.289517 -0.957173
vn -0.000001 1.000000 0.000000
vn 0.000000 0.289517 -0.957173
vn -0.661950 0.293718 -0.689603
vn -0.000001 1.000000 0.000000
vn -0.661950 0.293718 -0.689603
vn -0.954518 0.298154 0.000000
vn -0.000001 1.000000 0.000000
vn -0.954518 0.298154 0.000000
vn -0.661950 0.293718 0.689603
vn -0.000001 1.000000 0.000000
vn -0.661950 0.293718 0.689603
vn 0.000000 0.289517 0.957173
vn -0.000001 1.000000 0.000000
vn 0.000000 0.289517 0.957173
vn 0.661952 0.293718 0.689601
vn -0.000001 1.000000 0.000000
vn 0.661952 0.293718 0.689601
vn 0.954517 0.298156 0.000000
vn -0.000001 1.000000 0.000000
vn 0.954517 0.298156 0.000000
vn 0.661952 0.293718 -0.689601
vn -0.000001 1.000000 0.000000
vn 0.000000 0.048510 -0.998823
vn 0.694092 0.049338 -0.718194
vn 0.687117 -0.132492 -0.714364
vn 0.000000 -0.130032 -0.991510
vn -0.694092 0.049337 -0.718194
vn 0.000000 0.048510 -0.998823
vn 0.000000 -0.130032 -0.991510
vn -0.687119 -0.132495 -0.714362
vn -0.998739 0.050200 0.000000
vn -0.694092 0.049337 -0.718194
vn -0.687119 -0.132495 -0.714362
vn -0.990831 -0.135108 0.000000
vn -0.694092 0.049336 0.718194
vn -0.998739 0.050200 0.000000
vn -0.990831 -0.135108 0.000000
vn -0.687119 -0.132494 0.714362
vn 0.000000 0.048509 0.998823
vn -0.694092 0.049336 0.718194
vn -0.687119 -0.132494 0.714362
vn 0.000000 -0.130032 0.991510
vn 0.694092 0.049338 0.718194
vn 0.000000 0.048509 0.998823
vn 0.000000 -0.130032 0.991510
vn 0.687117 -0.132493 0.714364
vn 0.998739 0.050203 0.000000
vn 0.694092 0.049338 0.718194
vn 0.687117 -0.132493 0.714364
vn 0.990831 -0.135105 0.000000
vn 0.694092 0.049338 -0.718194
vn 0.998739 0.050203 0.000000
vn 0.990831 -0.135105 0.000000
vn 0.687117 -0.132492 -0.714364
vn 0.000000 -0.130032 -0.991510
vn 0.687117 -0.132492 -0.714364
vn 0.692432 -0.056322 -0.719281
vn -0.000001 -0.055292 -0.998470
vn -0.687119 -0.132495 -0.714362
vn 0.000000 -0.130032 -0.991510
vn -0.000001 -0.055292 -0.998470
vn -0.692432 -0.056327 -0.719281
vn -0.990831 -0.135108 0.000000
vn -0.687119 -0.132495 -0.714362
vn -0.692432 -0.056327 -0.719281
vn -0.998350 -0.057420 0.000000
vn -0.687119 -0.132494 0.714362
vn -0.990831 -0.135108 0.000000
vn -0.998350 -0.057420 0.000000
vn -0.692432 -0.056326 0.719281
vn 0.000000 -0.130032 0.991510
vn -0.687119 -0.132494 0.714362
vn -0.692432 -0.056326 0.719281
vn -0.000001 -0.055292 0.998470
vn 0.687117 -0.132493 0.714364
vn 0.000000 -0.130032 0.991510
vn -0.000001 -0.055292 0.998470
vn 0.692432 -0.056322 0.719281
vn 0.990831 -0.135105 0.000000
vn 0.687117 -0.132493 0.714364
vn 0.692432 -0.056322 0.719281
vn 0.998350 -0.057416 0.000000
vn 0.687117 -0.132492 -0.714364
vn 0.990831 -0.135105 0.000000
vn 0.998350 -0.057416 0.000000
vn 0.692432 -0.056322 -0.719281
vn -0.000001 -0.055292 -0.998470
vn 0.692432 -0.056322 -0.719281
vn 0.693059 -0.041180 -0.719704
vn 0.000002 -0.040424 -0.999183
vn -0.692432 -0.056327 -0.719281
vn -0.000001 -0.055292 -0.998470
vn 0.000002 -0.040424 -0.999183
vn -0.693054 -0.041181 -0.719708
vn -0.998350 -0.057420 0.000000
vn -0.692432 -0.056327 -0.719281
vn -0.693054 -0.041181 -0.719708
vn -0.999118 -0.041981 0.000000
vn -0.692432 -0.056326 0.719281
vn -0.998350 -0.057420 0.000000
vn -0.999118 -0.041981 0.000000
vn -0.693054 -0.041181 0.719708
vn -0.000001 -0.055292 0.998470
vn -0.692432 -0.056326 0.719281
vn -0.693054 -0.041181 0.719708
vn 0.000002 -0.040424 0.999183
vn 0.692432 -0.056322 0.719281
vn -0.000001 -0.055292 0.998470
vn 0.000002 -0.040424 0.999183
vn 0.693059 -0.041180 0.719704
vn 0.998350 -0.057416 0.000000
vn 0.692432 -0.056322 0.719281
vn 0.693059 -0.041180 0.719704
vn 0.999118 -0.041983 0.000000
vn 0.692432 -0.056322 -0.719281
vn 0.998350 -0.057416 0.000000
vn 0.999118 -0.041983 0.000000
vn 0.693059 -0.041180 -0.719704
vn 0.000002 -0.040424 -0.999183
vn 0.693059 -0.041180 -0.719704
vn 0.691580 0.058749 -0.719906
vn -0.000711 0.055397 -0.998464
vn -0.693054 -0.041181 -0.719708
vn 0.000002 -0.040424 -0.999183
vn -0.000711 0.055397 -0.998464
vn -0.692501 0.054375 -0.719365
vn -0.999118 -0.041981 0.000000
vn -0.693054 -0.041181 -0.719708
vn -0.692501 0.054375 -0.719365
vn -0.998499 0.054775 -0.000077
vn -0.693054 -0.041181 0.719708
vn -0.999118 -0.041981 0.000000
vn -0.998499 0.054775 -0.000077
vn -0.692558 0.054835 0.719275
vn 0.000002 -0.040424 0.999183
vn -0.693054 -0.041181 0.719708
vn -0.692558 0.054835 0.719275
vn -0.000711 0.056036 0.998429
vn 0.693059 -0.041180 0.719704
vn 0.000002 -0.040424 0.999183
vn -0.000711 0.056036 0.998429
vn 0.691636 0.059211 0.719815
vn 0.999118 -0.041983 0.000000
vn 0.693059 -0.041180 0.719704
vn 0.691636 0.059211 0.719815
vn 0.998132 0.061097 -0.000076
vn 0.693059 -0.041180 -0.719704
vn 0.999118 -0.041983 0.000000
vn 0.998132 0.061097 -0.000076
vn 0.691580 0.058749 -0.719906
vn -0.000711 0.055397 -0.998464
vn 0.691580 0.058749 -0.719906
vn 0.611056 0.474389 -0.633692
vn 0.001498 0.467235 -0.884132
vn -0.692501 0.054375 -0.719365
vn -0.000711 0.055397 -0.998464
vn 0.001498 0.467235 -0.884132
vn -0.608505 0.476998 -0.634188
vn -0.998499 0.054775 -0.000077
vn -0.692501 0.054375 -0.719365
vn -0.608505 0.476998 -0.634188
vn -0.873723 0.486423 0.000157
vn -0.692558 0.054835 0.719275
vn -0.998499 0.054775 -0.000077
vn -0.873723 0.486423 0.000157
vn -0.608457 0.476706 0.634454
vn -0.000711 0.056036 0.998429
vn -0.692558 0.054835 0.719275
vn -0.608457 0.476706 0.634454
vn 0.001501 0.466841 0.884340
vn 0.691636 0.059211 0.719815
vn -0.000711 0.056036 0.998429
vn 0.001501 0.466841 0.884340
vn 0.611008 0.474097 0.633957
vn 0.998132 0.061097 -0.000076
vn 0.691636 0.059211 0.719815
vn 0.611008 0.474097 0.633957
vn 0.875862 0.482562 0.000160
vn 0.691580 0.058749 -0.719906
vn 0.998132 0.061097 -0.000076
vn 0.875862 0.482562 0.000160
vn 0.611056 0.474389 -0.633692
vn -0.000694 0.067925 -0.997690
vn 0.694124 0.064196 -0.716988
vn 0.679261 -0.196133 -0.707203
vn 0.000000 -0.192566 -0.981284
vn -0.694563 0.070041 -0.716015
vn -0.000694 0.067925 -0.997690
vn 0.000000 -0.192566 -0.981284
vn -0.679257 -0.196137 -0.707206
vn -0.997537 0.070139 -0.000073
vn -0.694563 0.070041 -0.716015
vn -0.679257 -0.196137 -0.707206
vn -0.979810 -0.199932 0.000000
vn -0.694666 0.069442 0.715973
vn -0.997537 0.070139 -0.000073
vn -0.979810 -0.199932 0.000000
vn -0.679257 -0.196137 0.707206
vn -0.000695 0.067076 0.997748
vn -0.694666 0.069442 0.715973
vn -0.679257 -0.196137 0.707206
vn 0.000000 -0.192566 0.981284
vn 0.694225 0.063592 0.716944
vn -0.000695 0.067076 0.997748
vn 0.000000 -0.192566 0.981284
vn 0.679261 -0.196132 0.707203
vn 0.998085 0.061864 -0.000075
vn 0.694225 0.063592 0.716944
vn 0.679261 -0.196132 0.707203
vn 0.979812 -0.199922 0.000000
vn 0.694124 0.064196 -0.716988
vn 0.998085 0.061864 -0.000075
vn 0.979812 -0.199922 0.000000
vn 0.679261 -0.196133 -0.707203
vn 0.001498 0.467235 -0.884132
vn 0.611056 0.474389 -0.633692
vn 0.694124 0.064196 -0.716988
vn -0.000694 0.067925 -0.997690
vn -0.608505 0.476998 -0.634188
vn 0.001498 0.467235 -0.884132
vn -0.000694 0.067925 -0.997690
vn -0.694563 0.070041 -0.716015
vn -0.873723 0.486423 0.000157
vn -0.608505 0.476998 -0.634188
vn -0.694563 0.070041 -0.716015
vn -0.997537 0.070139 -0.000073
vn -0.608457 0.476706 0.634454
vn -0.873723 0.486423 0.000157
vn -0.997537 0.070139 -0.000073
vn -0.694666 0.069442 0.715973
vn 0.001501 0.466841 0.884340
vn -0.608457 0.476706 0.634454
vn -0.694666 0.069442 0.715973
vn -0.000695 0.067076 0.997748
vn 0.611008 0.474097 0.633957
vn 0.001501 0.466841 0.884340
vn -0.000695 0.067076 0.997748
vn 0.694225 0.063592 0.716944
vn 0.875862 0.482562 0.000160
vn 0.611008 0.474097 0.633957
vn 0.694225 0.063592 0.716944
vn 0.998085 0.061864 -0.000075
vn 0.611056 0.474389 -0.633692
vn 0.875862 0.482562 0.000160
vn 0.998085 0.061864 -0.000075
vn 0.694124 0.064196 -0.716988
vn 0.000001 0.999563 -0.029575
vn 0.019944 0.999655 -0.017085
vn 0.665787 0.276561 -0.692995
vn 0.000000 0.274878 -0.961479
vn -0.019945 0.999655 -0.017086
vn 0.000001 0.999563 -0.029575
vn 0.000000 0.274878 -0.961479
vn -0.665782 0.276561 -0.693000
vn -0.022885 0.999738 0.000000
vn -0.019945 0.999655 -0.017086
vn -0.665782 0.276561 -0.693000
vn -0.960505 0.278263 0.000000
vn -0.019944 0.999655 0.017085
vn -0.022885 0.999738 0.000000
vn -0.960505 0.278263 0.000000
vn -0.665782 0.276562 0.692999
vn 0.000002 0.999563 0.029574
vn -0.019944 0.999655 0.017085
vn -0.665782 0.276562 0.692999
vn 0.000000 0.274879 0.961479
vn 0.019945 0.999655 0.017086
vn 0.000002 0.999563 0.029574
vn 0.000000 0.274879 0.961479
vn 0.665787 0.276561 0.692995
vn 0.022883 0.999738 0.000000
vn 0.019945 0.999655 0.017086
vn 0.665787 0.276561 0.692995
vn 0.960506 0.278258 0.000000
vn 0.019944 0.999655 -0.017085
vn 0.022883 0.999738 0.000000
vn 0.960506 0.278258 0.000000
vn 0.665787 0.276561 -0.692995
vn 0.000000 0.274878 -0.961479
vn 0.665787 0.276561 -0.692995
vn 0.674677 -0.239376 -0.698219
vn 0.000000 -0.236744 -0.971572
vn -0.665782 0.276561 -0.693000
vn 0.000000 0.274878 -0.961479
vn 0.000000 -0.236744 -0.971572
vn -0.674673 -0.239378 -0.698223
vn -0.960505 0.278263 0.000000
vn -0.665782 0.276561 -0.693000
vn -0.674673 -0.239378 -0.698223
vn -0.970261 -0.242062 0.000000
vn -0.665782 0.276562 0.692999
vn -0.960505 0.278263 0.000000
vn -0.970261 -0.242062 0.000000
vn -0.674673 -0.239377 0.698223
vn 0.000000 0.274879 0.961479
vn -0.665782 0.276562 0.692999
vn -0.674673 -0.239377 0.698223
vn 0.000000 -0.236744 0.971572
vn 0.665787 0.276561 0.692995
vn 0.000000 0.274879 0.961479
vn 0.000000 -0.236744 0.971572
vn 0.674677 -0.239376 0.698219
vn 0.960506 0.278258 0.000000
vn 0.665787 0.276561 0.692995
vn 0.674677 -0.239376 0.698219
vn 0.970262 -0.242058 0.000000
vn 0.665787 0.276561 -0.692995
vn 0.960506 0.278258 0.000000
vn 0.970262 -0.242058 0.000000
vn 0.674677 -0.239376 -0.698219
vn 0.000000 -0.236744 -0.971572
vn 0.674677 -0.239376 -0.698219
vn 0.468270 -0.735963 -0.488961
vn 0.000000 -0.729868 -0.683588
vn -0.674673 -0.239378 -0.698223
vn 0.000000 -0.236744 -0.971572
vn 0.000000 -0.729868 -0.683588
vn -0.468266 -0.735964 -0.488962
vn -0.970261 -0.242062 0.000000
vn -0.674673 -0.239378 -0.698223
vn -0.468266 -0.735964 -0.488962
vn -0.670072 -0.742296 0.000000
vn -0.674673 -0.239377 0.698223
vn -0.970261 -0.242062 0.000000
vn -0.670072 -0.742296 0.000000
vn -0.468266 -0.735964 0.488962
vn 0.000000 -0.236744 0.971572
vn -0.674673 -0.239377 0.698223
vn -0.468266 -0.735964 0.488962
vn 0.000000 -0.729867 0.683589
vn 0.674677 -0.239376 0.698219
vn 0.000000 -0.236744 0.971572
vn 0.000000 -0.729867 0.683589
vn 0.468270 -0.735962 0.488961
vn 0.970262 -0.242058 0.000000
vn 0.674677 -0.239376 0.698219
vn 0.468270 -0.735962 0.488961
vn 0.670077 -0.742291 0.000000
vn 0.674677 -0.239376 -0.698219
vn 0.970262 -0.242058 0.000000
vn 0.670077 -0.742291 0.000000
vn 0.468270 -0.735963 -0.488961
vn 0.000000 -0.729868 -0.683588
vn 0.468270 -0.735963 -0.488961
vn 0.401649 -0.812993 -0.421570
vn 0.000000 -0.808436 -0.588584
vn -0.468266 -0.735964 -0.488962
vn 0.000000 -0.729868 -0.683588
vn 0.000000 -0.808436 -0.588584
vn -0.401645 -0.812992 -0.421575
vn -0.670072 -0.742296 0.000000
vn -0.468266 -0.735964 -0.488962
vn -0.401645 -0.812992 -0.421575
vn -0.575553 -0.817765 0.000000
vn -0.468266 -0.735964 0.488962
vn -0.670072 -0.742296 0.000000
vn -0.575553 -0.817765 0.000000
vn -0.401645 -0.812992 0.421574
vn 0.000000 -0.729867 0.683589
vn -0.468266 -0.735964 0.488962
vn -0.401645 -0.812992 0.421574
vn 0.000001 -0.808436 0.588584
vn 0.468270 -0.735962 0.488961
vn 0.000000 -0.729867 0.683589
vn 0.000001 -0.808436 0.588584
vn 0.401649 -0.812992 0.421571
vn 0.670077 -0.742291 0.000000
vn 0.468270 -0.735962 0.488961
vn 0.401649 -0.812992 0.421571
vn 0.575553 -0.817765 0.000000
vn 0.468270 -0.735963 -0.488961
vn 0.670077 -0.742291 0.000000
vn 0.575553 -0.817765 0.000000
vn 0.401649 -0.812993 -0.421570
vn 0.000000 -0.192566 -0.981284
vn 0.679261 -0.196133 -0.707203
vn 0.019944 0.999655 -0.017085
vn 0.000001 0.999563 -0.029575
vn -0.679257 -0.196137 -0.707206
vn 0.000000 -0.192566 -0.981284
vn 0.000001 0.999563 -0.029575
vn -0.019945 0.999655 -0.017086
vn -0.979810 -0.199932 0.000000
vn -0.679257 -0.196137 -0.707206
vn -0.019945 0.999655 -0.017086
vn -0.022885 0.999738 0.000000
vn -0.679257 -0.196137 0.707206
vn -0.979810 -0.199932 0.000000
vn -0.022885 0.999738 0.000000
vn -0.019944 0.999655 0.017085
vn 0.000000 -0.192566 0.981284
vn -0.679257 -0.196137 0.707206
vn -0.019944 0.999655 0.017085
vn 0.000002 0.999563 0.029574
vn 0.679261 -0.196132 0.707203
vn 0.000000 -0.192566 0.981284
vn 0.000002 0.999563 0.029574
vn 0.019945 0.999655 0.017086
vn 0.979812 -0.199922 0.000000
vn 0.679261 -0.196132 0.707203
vn 0.019945 0.999655 0.017086
vn 0.022883 0.999738 0.000000
vn 0.679261 -0.196133 -0.707203
vn 0.979812 -0.199922 0.000000
vn 0.022883 0.999738 0.000000
vn 0.019944 0.999655 -0.017085
vn 0.787838 0.322870 -0.524467
vn 0.482229 0.070365 -0.873215
vn 0.000099 -0.015201 -0.999884
vn -0.003791 0.443307 -0.896362
vn 0.482229 0.070365 -0.873215
vn 0.854430 -0.128297 -0.503477
vn 0.003980 -0.489475 -0.872008
vn 0.000099 -0.015201 -0.999884
vn 0.854430 -0.128297 -0.503477
vn 0.980276 -0.176638 0.088647
vn 0.007689 -0.936636 -0.350219
vn 0.003980 -0.489475 -0.872008
vn 0.919821 -0.305360 0.246341
vn 0.807660 -0.262042 0.528223
vn 0.003950 -0.465612 0.884980
vn 0.008016 -0.959123 0.282876
vn 0.807660 -0.262042 0.528223
vn 0.422440 -0.044889 0.905279
vn -0.000081 0.013672 0.999907
vn 0.003950 -0.465612 0.884980
vn 0.422440 -0.044889 0.905279
vn 0.858041 0.143580 0.493102
vn -0.003904 0.500286 0.865851
vn -0.000081 0.013672 0.999907
vn 0.858041 0.143580 0.493102
vn 0.966097 0.235931 -0.104845
vn -0.007307 0.932158 0.361977
vn -0.003904 0.500286 0.865851
vn 0.886953 0.377927 -0.265491
vn 0.787838 0.322870 -0.524467
vn -0.003791 0.443307 -0.896362
vn -0.007875 0.959994 -0.279911
vn 0.482229 0.070365 -0.873215
vn 0.787838 0.322870 -0.524467
vn 0.996952 0.056787 0.053505
vn 0.854430 -0.128297 -0.503477
vn 0.482229 0.070365 -0.873215
vn 0.996952 0.056787 0.053505
vn 0.980276 -0.176638 0.088647
vn 0.854430 -0.128297 -0.503477
vn 0.996952 0.056787 0.053505
vn 0.807660 -0.262042 0.528223
vn 0.919821 -0.305360 0.246341
vn 0.998431 -0.012118 -0.054669
vn 0.422440 -0.044889 0.905279
vn 0.807660 -0.262042 0.528223
vn 0.998431 -0.012118 -0.054669
vn 0.858041 0.143580 0.493102
vn 0.422440 -0.044889 0.905279
vn 0.998431 -0.012118 -0.054669
vn 0.966097 0.235931 -0.104845
vn 0.858041 0.143580 0.493102
vn 0.998431 -0.012118 -0.054669
vn 0.787838 0.322870 -0.524467
vn 0.886953 0.377927 -0.265491
vn 0.996952 0.056787 0.053505
vn -0.330265 0.372590 -0.867238
vn -0.389576 0.033874 -0.920371
vn -0.995257 -0.096840 -0.009265
vn -0.389576 0.033874 -0.920371
vn -0.446591 -0.381287 -0.809430
vn -0.995257 -0.096840 -0.009265
vn -0.446591 -0.381287 -0.809430
vn -0.889419 -0.456864 0.014436
vn -0.995257 -0.096840 -0.009265
vn -0.781293 -0.548341 0.298167
vn -0.713932 -0.296183 0.634489
vn -0.978545 -0.172416 0.112797
vn -0.713932 -0.296183 0.634489
vn -0.211465 -0.031657 0.976873
vn -0.978545 -0.172416 0.112797
vn -0.211465 -0.031657 0.976873
vn -0.687590 0.101063 0.719031
vn -0.978545 -0.172416 0.112797
vn -0.687590 0.101063 0.719031
vn -0.979707 0.196901 0.037462
vn -0.978545 -0.172416 0.112797
vn -0.887138 0.324575 -0.328080
vn -0.330265 0.372590 -0.867238
vn -0.995257 -0.096840 -0.009265
vn 0.919821 -0.305360 0.246341
vn 0.008016 -0.959123 0.282876
vn 0.007689 -0.936636 -0.350219
vn 0.980276 -0.176638 0.088647
vn -0.007875 0.959994 -0.279911
vn -0.007307 0.932158 0.361977
vn 0.966097 0.235931 -0.104845
vn 0.886953 0.377927 -0.265491
vn 0.998431 -0.012118 -0.054669
vn 0.919821 -0.305360 0.246341
vn 0.980276 -0.176638 0.088647
vn 0.996952 0.056787 0.053505
vn 0.966097 0.235931 -0.104845
vn 0.998431 -0.012118 -0.054669
vn 0.996952 0.056787 0.053505
vn 0.886953 0.377927 -0.265491
vn -0.781293 -0.548341 0.298167
vn -0.978545 -0.172416 0.112797
vn -0.995257 -0.096840 -0.009265
vn -0.889419 -0.456864 0.014436
vn -0.978545 -0.172416 0.112797
vn -0.979707 0.196901 0.037462
vn -0.887138 0.324575 -0.328080
vn -0.995257 -0.096840 -0.009265
vn 0.007689 -0.936636 -0.350219
vn 0.008016 -0.959123 0.282876
vn 0.007978 -0.954395 0.298439
vn 0.007843 -0.953069 -0.302652
vn 0.003980 -0.489475 -0.872008
vn 0.007689 -0.936636 -0.350219
vn 0.007843 -0.953069 -0.302652
vn 0.003882 -0.477180 -0.878797
vn 0.000099 -0.015201 -0.999884
vn 0.003980 -0.489475 -0.872008
vn 0.003882 -0.477180 -0.878797
vn 0.000115 -0.017141 -0.999853
vn -0.003791 0.443307 -0.896362
vn 0.000099 -0.015201 -0.999884
vn 0.000115 -0.017141 -0.999853
vn -0.004123 0.482540 -0.875864
vn -0.007875 0.959994 -0.279911
vn -0.003791 0.443307 -0.896362
vn -0.004123 0.482540 -0.875864
vn -0.007992 0.980882 -0.194439
vn -0.007992 0.980882 -0.194439
vn -0.007397 0.941814 0.336054
vn -0.007307 0.932158 0.361977
vn -0.007875 0.959994 -0.279911
vn -0.003904 0.500286 0.865851
vn -0.007307 0.932158 0.361977
vn -0.007397 0.941814 0.336054
vn -0.004350 0.560944 0.827842
vn -0.000081 0.013672 0.999907
vn -0.003904 0.500286 0.865851
vn -0.004350 0.560944 0.827842
vn -0.000071 0.012497 0.999922
vn 0.003950 -0.465612 0.884980
vn -0.000081 0.013672 0.999907
vn -0.000071 0.012497 0.999922
vn 0.004141 -0.488700 0.872442
vn 0.008016 -0.959123 0.282876
vn 0.003950 -0.465612 0.884980
vn 0.004141 -0.488700 0.872442
vn 0.007978 -0.954395 0.298439
vn 0.007843 -0.953069 -0.302652
vn 0.007978 -0.954395 0.298439
vn -0.781293 -0.548341 0.298167
vn -0.889419 -0.456864 0.014436
vn 0.003882 -0.477180 -0.878797
vn 0.007843 -0.953069 -0.302652
vn -0.889419 -0.456864 0.014436
vn -0.446591 -0.381287 -0.809430
vn 0.000115 -0.017141 -0.999853
vn 0.003882 -0.477180 -0.878797
vn -0.446591 -0.381287 -0.809430
vn -0.389576 0.033874 -0.920371
vn -0.004123 0.482540 -0.875864
vn 0.000115 -0.017141 -0.999853
vn -0.389576 0.033874 -0.920371
vn -0.330265 0.372590 -0.867238
vn -0.007992 0.980882 -0.194439
vn -0.004123 0.482540 -0.875864
vn -0.330265 0.372590 -0.867238
vn -0.887138 0.324575 -0.328080
vn -0.979707 0.196901 0.037462
vn -0.007397 0.941814 0.336054
vn -0.007992 0.980882 -0.194439
vn -0.887138 0.324575 -0.328080
vn -0.004350 0.560944 0.827842
vn -0.007397 0.941814 0.336054
vn -0.979707 0.196901 0.037462
vn -0.687590 0.101063 0.719031
vn -0.000071 0.012497 0.999922
vn -0.004350 0.560944 0.827842
vn -0.687590 0.101063 0.719031
vn -0.211465 -0.031657 0.976873
vn 0.004141 -0.488700 0.872442
vn -0.000071 0.012497 0.999922
vn -0.211465 -0.031657 0.976873
vn -0.713932 -0.296183 0.634489
vn 0.007978 -0.954395 0.298439
vn 0.004141 -0.488700 0.872442
vn -0.713932 -0.296183 0.634489
vn -0.781293 -0.548341 0.298167
s off
g sword_frts_low:polySurface2
usemtl initialShadingGroup
f 1/1/1 2/2/2 3/3/3
f 2/2/4 4/4/5 3/3/6
f 3/3/7 4/4/8 5/5/9 6/6/10
f 6/6/11 7/7/12 1/1/13 3/3/14
f 9/8/15 8/9/16 10/10/17
f 11/11/18 9/8/19 10/10/20
f 12/12/21 13/13/22 4/4/23 2/2/24
f 6/6/25 5/5/26 16/14/27 8/9/28 9/8/29
f 14/15/30 1/1/31 7/7/32 15/16/33
f 12/12/34 2/2/35 1/1/36 14/15/37
f 20/17/38 21/18/39 10/10/40 8/9/41
f 21/18/42 22/19/43 11/11/44 10/10/45
f 15/16/46 7/7/47 6/6/48 9/8/49 11/11/50
f 16/14/51 5/5/52 4/4/53 13/13/54
f 18/20/55 17/21/56 13/13/57 12/12/58
f 19/22/59 18/20/60 12/12/61 14/15/62
f 16/14/63 24/23/64 20/17/65 8/9/66
f 15/16/67 23/24/68 19/22/69 14/15/70
f 22/19/71 23/24/72 15/16/73 11/11/74
f 17/21/75 24/23/76 16/14/77 13/13/78
f 25/25/79 27/26/80 26/27/81
f 26/27/82 27/26/83 28/28/84
f 27/26/85 30/29/86 29/30/87 28/28/88
f 30/29/89 27/26/90 25/25/91 31/31/92
f 33/32/93 34/33/94 32/34/95
f 35/35/96 34/33/97 33/32/98
f 36/36/99 26/27/100 28/28/101 37/37/102
f 30/29/103 33/32/104 32/34/105 40/38/106 29/30/107
f 38/39/108 39/40/109 31/31/110 25/25/111
f 36/36/112 38/39/113 25/25/114 26/27/115
f 20/17/116 32/41/117 34/42/118 21/18/119
f 21/18/120 34/42/121 35/43/122 22/19/123
f 39/40/124 35/35/125 33/32/126 30/29/127 31/31/128
f 40/38/129 37/37/130 28/28/131 29/30/132
f 18/20/133 36/44/134 37/45/135 17/21/136
f 19/22/137 38/46/138 36/44/139 18/20/140
f 40/47/141 32/41/142 20/17/143 24/23/144
f 39/48/145 38/46/146 19/22/147 23/24/148
f 22/19/149 35/43/150 39/48/151 23/24/152
f 17/21/153 37/45/154 40/47/155 24/23/156
f 41/49/157 42/50/158 50/51/159 49/52/160
f 42/50/161 43/53/162 51/54/163 50/51/164
f 43/53/165 44/55/166 52/56/167 51/54/168
f 44/55/169 45/57/170 53/58/171 52/56/172
f 45/57/173 46/59/174 54/60/175 53/58/176
f 46/59/177 47/61/178 55/62/179 54/60/180
f 47/61/181 48/63/182 56/64/183 55/62/184
f 48/65/185 41/49/186 49/52/187 56/66/188
f 139/67/189 138/68/190 140/69/191
f 141/70/192 139/67/193 140/69/194
f 142/71/195 141/70/196 140/69/197
f 143/72/198 142/71/199 140/69/200
f 144/73/201 143/72/202 140/69/203
f 145/74/204 144/73/205 140/69/206
f 146/75/207 145/74/208 140/69/209
f 138/68/210 146/76/211 140/69/212
f 49/52/213 50/51/214 57/77/215
f 50/51/216 51/54/217 57/77/218
f 51/54/219 52/56/220 57/77/221
f 52/56/222 53/58/223 57/77/224
f 53/58/225 54/60/226 57/77/227
f 54/60/228 55/62/229 57/77/230
f 55/62/231 56/64/232 57/77/233
f 56/66/234 49/52/235 57/77/236
f 42/50/237 41/49/238 58/78/239 59/79/240
f 43/53/241 42/50/242 59/79/243 60/80/244
f 44/55/245 43/53/246 60/80/247 61/81/248
f 45/57/249 44/55/250 61/81/251 62/82/252
f 46/59/253 45/57/254 62/82/255 63/83/256
f 47/61/257 46/59/258 63/83/259 64/84/260
f 48/63/261 47/61/262 64/84/263 65/85/264
f 41/49/265 48/65/266 65/86/267 58/78/268
f 59/79/269 58/78/270 66/87/271 67/88/272
f 60/80/273 59/79/274 67/88/275 68/89/276
f 61/81/277 60/80/278 68/89/279 69/90/280
f 62/82/281 61/81/282 69/90/283 70/91/284
f 63/83/285 62/82/286 70/91/287 71/92/288
f 64/84/289 63/83/290 71/92/291 72/93/292
f 65/85/293 64/84/294 72/93/295 73/94/296
f 58/78/297 65/86/298 73/95/299 66/87/300
f 67/88/301 66/87/302 74/96/303 75/97/304
f 68/89/305 67/88/306 75/97/307 76/98/308
f 69/90/309 68/89/310 76/98/311 77/99/312
f 70/91/313 69/90/314 77/99/315 78/100/316
f 71/92/317 70/91/318 78/100/319 79/101/320
f 72/93/321 71/92/322 79/101/323 80/102/324
f 73/94/325 72/93/326 80/102/327 81/103/328
f 66/87/329 73/95/330 81/104/331 74/96/332
f 75/97/333 74/96/334 82/105/335 83/106/336
f 76/98/337 75/97/338 83/106/339 84/107/340
f 77/99/341 76/98/342 84/107/343 85/108/344
f 78/100/345 77/99/346 85/108/347 86/109/348
f 79/101/349 78/100/350 86/109/351 87/110/352
f 80/102/353 79/101/354 87/110/355 88/111/356
f 81/103/357 80/102/358 88/111/359 89/112/360
f 74/96/361 81/104/362 89/113/363 82/105/364
f 83/106/365 82/105/366 106/114/367 107/115/368
f 84/107/369 83/106/370 107/115/371 108/116/372
f 85/108/373 84/107/374 108/116/375 109/117/376
f 86/109/377 85/108/378 109/117/379 110/118/380
f 87/110/381 86/109/382 110/118/383 111/119/384
f 88/111/385 87/110/386 111/119/387 112/120/388
f 89/112/389 88/111/390 112/120/391 113/121/392
f 82/105/393 89/113/394 113/122/395 106/114/396
f 91/123/397 90/124/398 147/125/399 148/126/400
f 92/127/401 91/123/402 148/126/403 149/128/404
f 93/129/405 92/127/406 149/128/407 150/130/408
f 94/131/409 93/129/410 150/130/411 151/132/412
f 95/133/413 94/131/414 151/132/415 152/134/416
f 96/135/417 95/133/418 152/134/419 153/136/420
f 97/137/421 96/135/422 153/136/423 154/138/424
f 90/124/425 97/139/426 154/140/427 147/125/428
f 107/115/429 106/114/430 90/124/431 91/123/432
f 108/116/433 107/115/434 91/123/435 92/127/436
f 109/117/437 108/116/438 92/127/439 93/129/440
f 110/118/441 109/117/442 93/129/443 94/131/444
f 111/119/445 110/118/446 94/131/447 95/133/448
f 112/120/449 111/119/450 95/133/451 96/135/452
f 113/121/453 112/120/454 96/135/455 97/137/456
f 106/114/457 113/122/458 97/139/459 90/124/460
f 99/141/461 98/142/462 114/143/463 115/144/464
f 100/145/465 99/141/466 115/144/467 116/146/468
f 101/147/469 100/145/470 116/146/471 117/148/472
f 102/149/473 101/147/474 117/148/475 118/150/476
f 103/151/477 102/149/478 118/150/479 119/152/480
f 104/153/481 103/151/482 119/152/483 120/154/484
f 105/155/485 104/153/486 120/154/487 121/156/488
f 98/142/489 105/157/490 121/158/491 114/143/492
f 115/144/493 114/143/494 122/159/495 123/160/496
f 116/146/497 115/144/498 123/160/499 124/161/500
f 117/148/501 116/146/502 124/161/503 125/162/504
f 118/150/505 117/148/506 125/162/507 126/163/508
f 119/152/509 118/150/510 126/163/511 127/164/512
f 120/154/513 119/152/514 127/164/515 128/165/516
f 121/156/517 120/154/518 128/165/519 129/166/520
f 114/143/521 121/158/522 129/167/523 122/159/524
f 123/160/525 122/159/526 130/168/527 131/169/528
f 124/161/529 123/160/530 131/169/531 132/170/532
f 125/162/533 124/161/534 132/170/535 133/171/536
f 126/163/537 125/162/538 133/171/539 134/172/540
f 127/164/541 126/163/542 134/172/543 135/173/544
f 128/165/545 127/164/546 135/173/547 136/174/548
f 129/166/549 128/165/550 136/174/551 137/175/552
f 122/159/553 129/167/554 137/176/555 130/168/556
f 131/169/557 130/168/558 138/68/559 139/67/560
f 132/170/561 131/169/562 139/67/563 141/70/564
f 133/171/565 132/170/566 141/70/567 142/71/568
f 134/172/569 133/171/570 142/71/571 143/72/572
f 135/173/573 134/172/574 143/72/575 144/73/576
f 136/174/577 135/173/578 144/73/579 145/74/580
f 137/175/581 136/174/582 145/74/583 146/75/584
f 130/168/585 137/176/586 146/76/587 138/68/588
f 148/177/589 147/178/590 98/142/591 99/141/592
f 149/179/593 148/177/594 99/141/595 100/145/596
f 150/180/597 149/179/598 100/145/599 101/147/600
f 151/181/601 150/180/602 101/147/603 102/149/604
f 152/182/605 151/181/606 102/149/607 103/151/608
f 153/183/609 152/182/610 103/151/611 104/153/612
f 154/184/613 153/183/614 104/153/615 105/155/616
f 147/178/617 154/185/618 105/157/619 98/142/620
f 167/186/621 168/187/622 182/188/623 183/189/624
f 168/187/625 171/190/626 181/191/627 182/188/628
f 171/190/629 173/192/630 180/193/631 181/191/632
f 155/194/633 156/195/634 188/196/635 179/197/636
f 156/195/637 157/198/638 187/199/639 188/196/640
f 157/198/641 158/200/642 186/201/643 187/199/644
f 158/200/645 159/202/646 185/203/647 186/201/648
f 175/204/649 167/186/650 183/189/651 184/205/652
f 168/206/653 167/207/654 177/208/655
f 171/209/656 168/206/657 177/208/658
f 173/210/659 171/209/660 177/208/661
f 156/211/662 155/212/663 165/213/664
f 157/214/665 156/211/666 165/213/667
f 158/215/668 157/214/669 165/213/670
f 159/216/671 158/215/672 165/213/673
f 167/207/674 175/217/675 177/208/676
f 170/218/677 169/219/678 178/220/679
f 169/219/680 172/221/681 178/220/682
f 172/221/683 174/222/684 178/220/685
f 160/223/686 161/224/687 166/225/688
f 161/224/689 162/226/690 166/225/691
f 162/226/692 163/227/693 166/225/694
f 163/227/695 164/228/696 166/225/697
f 176/229/698 170/218/699 178/220/700
f 155/194/701 179/197/702 180/230/703 173/231/704
f 184/205/705 185/203/706 159/202/707 175/204/708
f 165/213/709 155/212/710 173/210/711 177/208/712
f 159/216/713 165/213/714 177/208/715 175/217/716
f 160/223/717 166/225/718 178/220/719 174/222/720
f 166/225/721 164/228/722 176/229/723 178/220/724
f 180/230/725 179/197/726 189/232/727 190/233/728
f 181/191/729 180/193/730 190/234/731 191/235/732
f 182/188/733 181/191/734 191/235/735 192/236/736
f 183/189/737 182/188/738 192/236/739 193/237/740
f 184/205/741 183/189/742 193/237/743 194/238/744
f 194/238/745 195/239/746 185/203/747 184/205/748
f 186/201/749 185/203/750 195/239/751 196/240/752
f 187/199/753 186/201/754 196/240/755 197/241/756
f 188/196/757 187/199/758 197/241/759 198/242/760
f 179/197/761 188/196/762 198/242/763 189/232/764
f 190/233/765 189/232/766 160/243/767 174/244/768
f 191/235/769 190/234/770 174/245/771 172/246/772
f 192/236/773 191/235/774 172/246/775 169/247/776
f 193/237/777 192/236/778 169/247/779 170/248/780
f 194/238/781 193/237/782 170/248/783 176/249/784
f 164/250/785 195/239/786 194/238/787 176/249/788
f 196/240/789 195/239/790 164/250/791 163/251/792
f 197/241/793 196/240/794 163/251/795 162/252/796
f 198/242/797 197/241/798 162/252/799 161/253/800
f 189/232/801 198/242/802 161/253/803 160/243/804
